<?xml version="1.0" encoding="utf-8"?>
<!DOCTYPE svg PUBLIC "-//W3C//DTD SVG 1.1//EN" "http://www.w3.org/Graphics/SVG/1.1/DTD/svg11.dtd">
<svg xmlns="http://www.w3.org/2000/svg" xmlns:xlink="http://www.w3.org/1999/xlink" version="1.1" baseProfile="full" width="1080" height="1920" viewBox="0 0 1080.00 1920.00" enable-background="new 0 0 1080.00 1920.00" xml:space="preserve">
	<rect x="0" y="0" fill="#1E4292" fill-opacity="1" stroke-width="0.2" stroke-linejoin="round" width="1080" height="1920"/>
	<rect x="406.284" y="564.44" fill="#1A4785" fill-opacity="1" fill-rule="evenodd" stroke-width="0.2" stroke-linejoin="round" width="169.716" height="632.34"/>
	<g>
		<path fill="#3DB4F2" fill-opacity="1" stroke-width="0.2" stroke-linejoin="round" d="M 863.536,111.276L 856.473,111.276C 853.65,111.276 852.239,112.428 852.239,114.732L 852.239,125.088C 852.239,127.392 853.65,128.544 856.473,128.544L 863.536,128.544C 866.359,128.544 867.771,127.392 867.771,125.088L 867.771,114.732C 867.771,112.428 866.359,111.276 863.536,111.276 Z M 856.473,107.82L 863.536,107.82C 868.242,107.82 870.595,110.122 870.595,114.726L 870.595,125.094C 870.595,129.698 868.242,132 863.536,132L 856.473,132C 851.767,132 849.414,129.698 849.414,125.094L 849.414,114.726C 849.414,110.122 851.767,107.82 856.473,107.82 Z "/>
		<path fill="#3DB4F2" fill-opacity="1" stroke-width="0.2" stroke-linejoin="round" d="M 880.478,128.544L 894.6,128.544L 894.6,132L 880.478,132C 875.772,132 873.419,129.698 873.419,125.094C 873.419,121.638 876.479,119.421 882.598,118.443C 888.716,117.465 891.776,116.228 891.776,114.732C 891.776,112.428 890.364,111.276 887.541,111.276L 873.419,111.276L 873.419,107.82L 887.541,107.82C 892.247,107.82 894.6,110.122 894.6,114.726C 894.6,118.182 891.541,120.399 885.422,121.377C 879.303,122.355 876.244,123.592 876.244,125.088C 876.244,127.392 877.655,128.544 880.478,128.544 Z "/>
		<path fill="#3DB4F2" fill-opacity="1" stroke-width="0.2" stroke-linejoin="round" d="M 897.425,128.544L 900.249,128.544L 900.249,132L 897.425,132L 897.425,128.544 Z M 897.425,114.32L 900.249,114.32L 900.249,117.776L 897.425,117.776L 897.425,114.32 Z "/>
		<path fill="#3DB4F2" fill-opacity="1" stroke-width="0.2" stroke-linejoin="round" d="M 910.268,128.544L 924.389,128.544L 924.389,132L 910.268,132C 905.562,132 903.209,129.698 903.209,125.094C 903.209,121.638 906.268,119.421 912.387,118.443C 918.506,117.465 921.565,116.228 921.565,114.732C 921.565,112.428 920.154,111.276 917.331,111.276L 903.209,111.276L 903.209,107.82L 917.331,107.82C 922.037,107.82 924.389,110.122 924.389,114.726C 924.389,118.182 921.33,120.399 915.211,121.377C 909.093,122.355 906.033,123.592 906.033,125.088C 906.033,127.392 907.445,128.544 910.268,128.544 Z "/>
		<path fill="#3DB4F2" fill-opacity="1" stroke-width="0.2" stroke-linejoin="round" d="M 941.336,111.276L 927.214,111.276L 927.214,107.82L 941.336,107.82C 946.042,107.82 948.395,110.113 948.395,114.698C 948.395,116.991 947.805,118.712 946.628,119.86C 947.805,121.016 948.395,122.749 948.395,125.06C 948.395,129.687 946.042,132 941.336,132L 927.214,132L 927.214,128.544L 941.336,128.544C 944.159,128.544 945.57,127.385 945.57,125.066C 945.57,122.747 944.159,121.588 941.336,121.588L 927.214,121.588L 927.214,118.132L 941.336,118.132C 944.159,118.132 945.57,116.989 945.57,114.704C 945.57,112.418 944.159,111.276 941.336,111.276 Z "/>
	</g>
	<g>
		<path fill="#3DB4F2" fill-opacity="1" stroke-width="0.2" stroke-linejoin="round" d="M 970.334,118.578L 961.136,118.578L 961.136,116.474L 970.334,116.474C 973.399,116.474 974.931,117.871 974.931,120.665C 974.931,123.458 973.399,124.855 970.334,124.855L 962.976,124.855L 962.976,131.193L 961.136,131.193L 961.136,122.751L 970.334,122.751C 972.172,122.751 973.092,122.056 973.092,120.665C 973.092,119.273 972.172,118.578 970.334,118.578 Z "/>
		<path fill="#3DB4F2" fill-opacity="1" stroke-width="0.2" stroke-linejoin="round" d="M 978.139,120.682L 978.139,131.193L 976.3,131.193L 976.3,120.678C 976.3,117.875 977.832,116.474 980.897,116.474C 982.59,116.474 983.817,116.901 984.576,117.756C 985.337,116.901 986.564,116.474 988.255,116.474C 991.322,116.474 992.856,117.875 992.856,120.678L 992.856,131.193L 991.016,131.193L 991.016,120.682C 991.016,119.279 990.096,118.578 988.255,118.578C 986.417,118.578 985.497,119.279 985.497,120.682L 985.497,131.193L 983.658,131.193L 983.658,120.682C 983.658,119.279 982.738,118.578 980.897,118.578C 979.059,118.578 978.139,119.279 978.139,120.682 Z "/>
	</g>
	<line fill="none" stroke-width="8" stroke-linejoin="round" stroke="#3DB4F2" stroke-opacity="1" x1="836" y1="89" x2="992" y2="89"/>
	<line fill="none" stroke-width="8" stroke-linejoin="round" stroke="#3DB4F2" stroke-opacity="1" x1="902" y1="153" x2="992" y2="153"/>
	<path fill="#3DB4F2" fill-opacity="1" stroke-width="8" stroke-linejoin="round" stroke="#3DB4F2" stroke-opacity="1" d="M 152,1895.5C 161.665,1895.5 169.5,1903.34 169.5,1913C 169.5,1922.67 161.665,1930.5 152,1930.5C 142.335,1930.5 134.5,1922.67 134.5,1913C 134.5,1903.34 142.335,1895.5 152,1895.5 Z "/>
	<path fill="#3DB4F2" fill-opacity="1" stroke-width="8" stroke-linejoin="round" stroke="#3DB4F2" stroke-opacity="1" d="M 282,1895.5C 291.665,1895.5 299.5,1903.34 299.5,1913C 299.5,1922.67 291.665,1930.5 282,1930.5C 272.335,1930.5 264.5,1922.67 264.5,1913C 264.5,1903.34 272.335,1895.5 282,1895.5 Z "/>
	<path fill="#3DB4F2" fill-opacity="1" stroke-width="8" stroke-linejoin="round" stroke="#3DB4F2" stroke-opacity="1" d="M 932,1895.5C 922.335,1895.5 914.5,1903.33 914.5,1913C 914.5,1922.66 922.335,1930.5 932,1930.5C 941.665,1930.5 949.5,1922.66 949.5,1913C 949.5,1903.33 941.665,1895.5 932,1895.5 Z "/>
	<line fill="none" stroke-width="8" stroke-linejoin="round" stroke="#3DB4F2" stroke-opacity="1" x1="932.5" y1="1886.5" x2="932.5" y2="1708"/>
	<ellipse fill="none" stroke-width="4" stroke-linejoin="round" stroke="#2293CE" stroke-opacity="1" cx="932" cy="1913" rx="28.5" ry="28.4999"/>
	<path fill="#3DB4F2" fill-opacity="1" stroke-width="0.2" stroke-linejoin="round" d="M 939.348,1726.23C 939.348,1726.23 957.899,1716.95 939.348,1709"/>
	<ellipse fill="none" stroke-width="4" stroke-linejoin="round" stroke="#2293CE" stroke-opacity="1" cx="542" cy="1913" rx="28.5" ry="28.5"/>
	<ellipse fill="none" stroke-width="4" stroke-linejoin="round" stroke="#2293CE" stroke-opacity="1" cx="672" cy="1913" rx="28.5" ry="28.5"/>
	<ellipse fill="none" stroke-width="4" stroke-linejoin="round" stroke="#2293CE" stroke-opacity="1" cx="802" cy="1913" rx="28.5" ry="28.5"/>
	<path fill="none" stroke-width="3" stroke-linejoin="round" stroke="#298FC4" stroke-opacity="1" d="M 34.0001,183.002L 65.9999,183.002C 70.4182,183.002 73.9999,186.583 73.9999,191.002L 73.9999,191.002C 73.9999,195.42 70.4182,199.002 65.9999,199.002L 34.0001,199.002C 29.5818,199.002 26.0001,195.42 26.0001,191.002L 26.0001,191.002C 26.0001,186.583 29.5818,183.002 34.0001,183.002 Z "/>
	<path fill="none" stroke-width="3" stroke-linejoin="round" stroke="#3DB4F2" stroke-opacity="1" d="M 33.9999,160.008L 65.9997,160.008C 70.418,160.008 73.9997,163.59 73.9997,168.008L 73.9997,168.008C 73.9997,172.426 70.418,176.008 65.9997,176.008L 33.9999,176.008C 29.5816,176.008 25.9999,172.426 25.9999,168.008L 25.9999,168.008C 25.9999,163.59 29.5816,160.008 33.9999,160.008 Z "/>
	<path fill="#3DB4F2" fill-opacity="1" stroke-width="3" stroke-linejoin="round" stroke="#3DB4F2" stroke-opacity="1" d="M 37.9562,120C 42.3987,120 46,123.505 46,127.83C 46,132.154 42.3987,135.659 37.9562,135.659C 33.5138,135.659 29.9125,132.154 29.9125,127.83C 29.9125,123.505 33.5138,120 37.9562,120 Z "/>
	<line fill="none" stroke-width="4" stroke-linejoin="round" stroke="#3DB4F2" stroke-opacity="1" x1="66" y1="129" x2="66" y2="-10"/>
	<path fill="none" stroke-width="6" stroke-linejoin="round" stroke="#3DB4F2" stroke-opacity="1" d="M 729,63.0001C 743.912,63.0001 756,75.0883 756,90.0001C 756,104.912 743.912,117 729,117C 714.088,117 702,104.912 702,90.0001C 702,75.0883 714.088,63.0001 729,63.0001 Z "/>
	<path fill="none" stroke-width="6" stroke-linejoin="round" stroke="#3DB4F2" stroke-opacity="1" d="M 792,63.9999C 806.912,63.9999 819,76.0879 819,90.9999C 819,105.911 806.912,118 792,118C 777.088,118 765,105.911 765,90.9999C 765,76.0879 777.088,63.9999 792,63.9999 Z "/>
	<path fill="none" stroke-width="6" stroke-linejoin="round" stroke="#3DB4F2" stroke-opacity="1" d="M 730,115L 730,75.9487C 730,75.9489 715.4,75.0863 715.4,90.5492C 715.4,106.012 729,106 729,106"/>
	<path fill="none" stroke-width="4" stroke-linejoin="round" stroke="#3DB4F2" stroke-opacity="1" d="M 786.927,66L 797,66C 798.657,66 800,67.3433 800,69.0001L 800,112C 800,113.657 798.657,115 797,115L 786.927,115C 785.27,115 783.927,113.657 783.927,112L 783.927,69.0001C 783.927,67.3433 785.27,66 786.927,66 Z "/>
	<path fill="#3DB4F2" fill-opacity="1" stroke-width="0.2" stroke-linejoin="round" d="M 808.5,84C 813.195,84 817,86.9098 817,90.5C 817,94.0898 813.195,97 808.5,97C 803.806,97 800,94.0898 800,90.5C 800,86.9098 803.805,84 808.5,84 Z "/>
	<path fill="none" stroke-width="4" stroke-linejoin="round" stroke="#3DB4F2" stroke-opacity="1" d="M 1017.5,77.0001C 1023.57,77.0001 1028.5,81.9252 1028.5,88.0001C 1028.5,94.0752 1023.58,99.0001 1017.5,99.0001C 1011.42,99.0001 1006.5,94.0752 1006.5,88.0001C 1006.5,81.9252 1011.42,77.0001 1017.5,77.0001 Z "/>
	<path fill="none" stroke-width="4" stroke-linejoin="round" stroke="#3DB4F2" stroke-opacity="1" d="M 1017.5,149.196C 1019.99,149.196 1022,151.21 1022,153.696C 1022,156.181 1019.99,158.196 1017.5,158.196C 1015.01,158.196 1013,156.181 1013,153.696C 1013,151.21 1015.01,149.196 1017.5,149.196 Z "/>
	<path fill="#50DBED" fill-opacity="1" stroke-width="0.2" stroke-linejoin="round" d="M 1017.49,113.5C 1022.46,113.5 1026.49,117.529 1026.49,122.5C 1026.49,127.471 1022.46,131.5 1017.49,131.5C 1012.52,131.5 1008.49,127.471 1008.49,122.5C 1008.49,117.529 1012.52,113.5 1017.49,113.5 Z "/>
	<g>
		<path fill="#3ABAEA" fill-opacity="1" stroke-width="0.2" stroke-linejoin="round" d="M 846.138,1733.95L 846.138,1751L 843.381,1751L 843.381,1733.95C 843.381,1729.4 845.678,1727.13 850.271,1727.13C 852.81,1727.13 854.648,1727.82 855.786,1729.21C 856.927,1727.82 858.765,1727.13 861.3,1727.13C 865.897,1727.13 868.195,1729.4 868.195,1733.95L 868.195,1751L 865.438,1751L 865.438,1733.95C 865.438,1731.68 864.059,1730.54 861.3,1730.54C 858.544,1730.54 857.167,1731.68 857.167,1733.95L 857.167,1751L 854.409,1751L 854.409,1733.95C 854.409,1731.68 853.03,1730.54 850.271,1730.54C 847.516,1730.54 846.138,1731.68 846.138,1733.95 Z "/>
		<path fill="#3ABAEA" fill-opacity="1" stroke-width="0.2" stroke-linejoin="round" d="M 884.835,1727.13C 889.429,1727.13 891.726,1729.4 891.726,1733.95L 891.726,1751L 888.969,1751L 888.969,1742.48L 873.807,1742.48L 873.807,1751L 871.05,1751L 871.05,1733.95C 871.05,1729.4 873.346,1727.13 877.94,1727.13L 884.835,1727.13 Z M 888.969,1733.95C 888.969,1731.68 887.591,1730.54 884.835,1730.54L 877.94,1730.54C 875.185,1730.54 873.807,1731.68 873.807,1733.95L 873.807,1739.07L 888.969,1739.07L 888.969,1733.95 Z "/>
		<rect x="894.483" y="1727.13" fill="#3ABAEA" fill-opacity="1" stroke-width="0.2" stroke-linejoin="round" width="2.75714" height="23.8689"/>
		<path fill="#3ABAEA" fill-opacity="1" stroke-width="0.2" stroke-linejoin="round" d="M 918.049,1742.47L 918.049,1727.13L 920.806,1727.13L 920.806,1742.48C 920.806,1748.16 918.968,1751 915.292,1751C 912.536,1751 910.538,1747.59 909.297,1740.77C 908.056,1733.95 906.838,1730.54 905.644,1730.54C 903.806,1730.54 902.887,1732.25 902.887,1735.65L 902.887,1751L 900.13,1751L 900.13,1735.65C 900.13,1729.97 901.968,1727.13 905.644,1727.13C 908.4,1727.13 910.398,1730.54 911.639,1737.36C 912.88,1744.18 914.098,1747.59 915.292,1747.59C 917.13,1747.59 918.049,1745.88 918.049,1742.47 Z "/>
	</g>
	<g>
		<path fill="#4099EC" fill-opacity="1" stroke-linejoin="round" d="M 878.734,1712.29L 878.734,1714.9L 876.468,1714.92L 873.454,1719.76L 879.462,1719.76L 877.993,1722L 869.337,1722L 875.162,1712.29L 878.734,1712.29 Z "/>
		<path fill="#4099EC" fill-opacity="1" stroke-linejoin="round" d="M 880.367,1712.29L 882.827,1712.29L 882.827,1714.2L 889.479,1714.2L 892.876,1712.29L 897.82,1712.29L 889.479,1716.45L 880.367,1716.45L 880.367,1712.29 Z M 880.367,1717.84L 889.751,1717.84L 897.929,1722L 893.302,1722L 889.295,1720.09L 882.795,1720.09L 882.795,1722L 880.367,1722L 880.367,1717.84 Z "/>
		<path fill="#4099EC" fill-opacity="1" stroke-linejoin="round" d="M 904.516,1712.26L 904.516,1722L 902.502,1722L 902.502,1714.71L 900.357,1716.66L 898.8,1715.23C 898.779,1715.17 898.807,1715.12 898.887,1715.07L 901.891,1712.26L 904.516,1712.26 Z "/>
		<path fill="#4099EC" fill-opacity="1" stroke-linejoin="round" d="M 908.609,1720.12L 908.871,1720.1L 913.323,1712.29L 916.122,1712.29L 922.045,1722L 919.301,1722L 914.751,1714.33L 910.329,1722L 907.607,1722L 907.444,1721.99L 907.172,1721.63L 906.922,1721.24L 906.585,1720.7L 906.29,1720.08L 906.008,1719.43L 905.845,1718.68L 905.669,1717.83L 905.605,1716.95L 905.669,1716.08L 905.756,1715.28L 905.931,1714.5L 906.117,1713.91L 906.409,1713.37L 906.694,1712.9L 907.031,1712.51L 907.226,1712.31L 909.24,1712.31L 908.893,1712.62L 908.609,1713L 908.327,1713.47L 908.109,1713.93L 907.913,1714.5L 907.738,1715.25L 907.597,1716.08L 907.543,1716.9L 907.597,1717.73L 907.771,1718.61L 907.988,1719.28L 908.218,1719.69L 908.609,1720.12 Z "/>
	</g>
	<g>
		<path fill="#4099EC" fill-opacity="1" stroke-width="0.2" stroke-linejoin="round" d="M 907.705,20.5448L 907.705,23.1772L 888.32,23.1772L 888.32,20.5448L 907.705,20.5448 Z M 891.649,24.9396L 904.376,24.9396L 904.376,27.5703L 891.649,27.5703L 891.649,24.9396 Z M 888.32,29.3564L 907.705,29.3564L 907.705,32L 888.32,32L 888.32,29.3564 Z "/>
		<path fill="#4099EC" fill-opacity="1" stroke-width="0.2" stroke-linejoin="round" d="M 908.665,20.5796L 911.558,20.5796L 911.558,22.8248L 919.38,22.8248L 923.375,20.5796L 929.189,20.5796L 919.38,25.4683L 908.665,25.4683L 908.665,20.5796 Z M 908.665,27.1132L 919.7,27.1132L 929.317,32L 923.875,32L 919.164,29.7567L 911.52,29.7567L 911.52,32L 908.665,32L 908.665,27.1132 Z "/>
		<path fill="#4099EC" fill-opacity="1" stroke-width="0.2" stroke-linejoin="round" d="M 941.826,20.5337L 941.826,32.0111L 938.497,32.0111L 930.431,27.1591L 931.927,25.0094L 939.289,29.3915L 939.289,20.5337L 941.826,20.5337 Z "/>
		<path fill="#4099EC" fill-opacity="1" stroke-width="0.2" stroke-linejoin="round" d="M 943.156,20.6512L 946.037,20.6512L 946.037,28.4991L 943.156,28.4991L 943.156,20.6512 Z M 946.959,24.152L 949.802,24.152L 949.802,28.4991L 946.959,28.4991L 946.959,24.152 Z M 950.724,24.152L 953.605,24.152L 953.605,32L 950.724,32L 950.724,24.152 Z "/>
		<path fill="#4099EC" fill-opacity="1" stroke-width="0.2" stroke-linejoin="round" d="M 972.092,20.5558L 965.204,32L 960.903,32L 954.577,21.5435L 954.577,21.0038L 954.923,20.6383L 955.345,20.5558L 961.119,20.5558L 964.026,25.3031L 961.031,25.3031L 959.16,21.8481L 957.752,21.8481L 962.771,30.168L 963.412,30.168L 969.275,20.5558L 972.092,20.5558 Z "/>
		<path fill="#4099EC" fill-opacity="1" stroke-width="0.2" stroke-linejoin="round" d="M 985.765,20.5796L 990.004,29.6613L 988.314,32L 974.652,32L 972.898,29.6263L 976.983,20.5796L 985.765,20.5796 Z M 975.869,29.4979L 987.022,29.4979L 984.127,23.212L 978.737,23.212L 975.869,29.4979 Z "/>
		<path fill="#4099EC" fill-opacity="1" stroke-width="0.2" stroke-linejoin="round" d="M 994.369,29.7915L 994.678,29.7677L 999.913,20.5796L 1003.2,20.5796L 1010.17,32L 1006.94,32L 1001.59,22.9772L 996.392,32L 993.191,32L 992.999,31.9889L 992.679,31.5649L 992.385,31.1078L 991.989,30.4727L 991.643,29.7438L 991.311,28.9801L 991.119,28.099L 990.913,27.1002L 990.837,26.0668L 990.913,25.0332L 991.015,24.0933L 991.221,23.1772L 991.439,22.4834L 991.783,21.8481L 992.117,21.2975L 992.513,20.8385L 992.743,20.6035L 995.112,20.6035L 994.704,20.9669L 994.369,21.4149L 994.037,21.9657L 993.781,22.5072L 993.551,23.1772L 993.345,24.0585L 993.179,25.0332L 993.115,26.0079L 993.179,26.9829L 993.383,28.0165L 993.639,28.8038L 993.909,29.2867L 994.369,29.7915 Z "/>
	</g>
	<g>
		<path fill="#4099EC" fill-opacity="1" stroke-width="0.2" stroke-linejoin="round" d="M 889.568,39.0077L 892.543,39.0077L 892.543,46.7667L 889.568,46.7667L 889.568,39.0077 Z M 893.496,42.4689L 896.432,42.4689L 896.432,46.7667L 893.496,46.7667L 893.496,42.4689 Z M 897.385,42.4689L 900.36,42.4689L 900.36,50.2279L 897.385,50.2279L 897.385,42.4689 Z "/>
		<path fill="#4099EC" fill-opacity="1" stroke-width="0.2" stroke-linejoin="round" d="M 914.666,38.9369L 919.044,47.9155L 917.299,50.2279L 903.188,50.2279L 901.376,47.8812L 905.596,38.9369L 914.666,38.9369 Z M 904.445,47.754L 915.964,47.754L 912.974,41.5396L 907.408,41.5396L 904.445,47.754 Z "/>
		<path fill="#4099EC" fill-opacity="1" stroke-width="0.2" stroke-linejoin="round" d="M 923.553,48.0444L 923.871,48.0209L 929.278,38.9369L 932.677,38.9369L 939.872,50.2279L 936.539,50.2279L 931.012,41.3073L 925.642,50.2279L 922.336,50.2279L 922.138,50.2169L 921.807,49.7977L 921.503,49.3458L 921.094,48.7178L 920.737,47.9972L 920.394,47.2422L 920.195,46.3711L 919.982,45.3837L 919.904,44.3618L 919.982,43.34L 920.088,42.4108L 920.301,41.505L 920.526,40.819L 920.881,40.191L 921.226,39.6466L 921.635,39.1929L 921.873,38.9604L 924.319,38.9604L 923.898,39.3198L 923.553,39.7627L 923.21,40.3073L 922.945,40.8427L 922.708,41.505L 922.495,42.3763L 922.323,43.34L 922.257,44.3038L 922.323,45.2676L 922.534,46.2894L 922.799,47.068L 923.078,47.5454L 923.553,48.0444 Z "/>
		<path fill="#4099EC" fill-opacity="1" stroke-width="0.2" stroke-linejoin="round" d="M 946.616,38.9369L 956.387,47.5454L 956.387,38.9369L 959.139,38.9369L 959.139,50.2279L 955.37,50.2279L 942.502,38.9369L 946.616,38.9369 Z M 941.432,44.861L 951.428,48.0444L 950.544,50.2279L 940.506,47.1025L 941.432,44.861 Z "/>
		<path fill="#4099EC" fill-opacity="1" stroke-width="0.2" stroke-linejoin="round" d="M 973.512,38.9369L 977.89,47.9155L 976.144,50.2279L 962.034,50.2279L 960.222,47.8812L 964.441,38.9369L 973.512,38.9369 Z M 963.29,47.754L 974.809,47.754L 971.819,41.5396L 966.253,41.5396L 963.29,47.754 Z "/>
		<path fill="#4099EC" fill-opacity="1" stroke-width="0.2" stroke-linejoin="round" d="M 990.677,38.8916L 990.677,50.2388L 987.239,50.2388L 978.908,45.4418L 980.454,43.3164L 988.058,47.6488L 988.058,38.8916L 990.677,38.8916 Z "/>
		<path fill="#4099EC" fill-opacity="1" stroke-width="0.2" stroke-linejoin="round" d="M 1011.12,38.9261L 1011.12,41.5269L 1009.15,41.5269L 1009.15,50.2279L 1006.48,50.2279L 1006.48,41.5269L 1006.11,41.5269L 1001.4,50.2279L 997.975,50.2279L 991.802,38.9261L 995.12,38.9261L 999.721,47.0099L 1004.18,38.9261L 1011.12,38.9261 Z "/>
	</g>
	<line fill="none" stroke-width="4" stroke-linejoin="round" stroke="#3DB4F2" stroke-opacity="1" x1="66" y1="128" x2="66" y2="-11"/>
	<line fill="none" stroke-width="12" stroke-linejoin="round" stroke="#3DB4F2" stroke-opacity="1" x1="64" y1="127" x2="576" y2="127"/>
	<g>
		<path fill="#FFFFFF" fill-opacity="1" stroke-width="0.2" stroke-linejoin="round" d="M 85.3719,80.6646L 91.8867,87.069L 91.8867,93.434L 103.094,93.434L 103.094,99.9409L 91.8867,99.9409L 91.8867,106.661L 85.3719,113.018L 85.3719,80.6646 Z M 87.5961,80.6646L 104.956,80.6646L 104.956,87.069L 94.1582,87.069L 87.5961,80.6646 Z M 94.103,106.661L 104.956,106.661L 104.956,113.12L 85.3719,113.12L 85.3719,113.065L 87.5961,113.065L 94.103,106.661 Z "/>
		<path fill="#FFFFFF" fill-opacity="1" stroke-width="0.2" stroke-linejoin="round" d="M 108.19,80.6646L 114.957,80.6646L 116.723,84.6476L 112.078,89.1906L 108.19,80.6646 Z M 131.204,80.6646L 138.074,80.6646L 134.186,89.1906L 129.493,84.6002L 131.204,80.6646 Z M 128.531,86.8165L 133.176,91.3595L 123.23,113.168L 122.978,113.168L 113.087,91.3595L 117.678,86.8717L 123.081,99.089L 128.531,86.8165 Z "/>
		<path fill="#FFFFFF" fill-opacity="1" stroke-width="0.2" stroke-linejoin="round" d="M 140.898,80.6646L 147.413,87.069L 147.413,93.434L 158.62,93.434L 158.62,99.9409L 147.413,99.9409L 147.413,106.661L 140.898,113.018L 140.898,80.6646 Z M 143.122,80.6646L 160.482,80.6646L 160.482,87.069L 149.684,87.069L 143.122,80.6646 Z M 149.629,106.661L 160.482,106.661L 160.482,113.12L 140.898,113.12L 140.898,113.065L 143.122,113.065L 149.629,106.661 Z "/>
		<path fill="#FFFFFF" fill-opacity="1" stroke-width="0.2" stroke-linejoin="round" d="M 163.715,80.1598L 164.015,80.1598L 180.673,96.3129L 183.197,98.8365L 183.197,98.7814L 183.252,98.7814L 189.759,105.194L 189.759,113.728L 189.459,113.728L 163.715,88.536L 163.715,80.1598 Z M 183.252,98.7814L 183.859,97.0699L 183.252,98.7814 Z M 183.859,97.0699L 183.252,96.4625L 183.252,80.6646L 189.759,80.6646L 189.759,102.875L 183.859,97.0699 Z M 163.715,90.8549L 170.23,97.2671L 170.23,113.168L 163.715,113.168L 163.715,90.8549 Z "/>
		<path fill="#FFFFFF" fill-opacity="1" stroke-width="0.2" stroke-linejoin="round" d="M 193.04,80.6646L 204.303,80.6646L 197.686,87.1241L 193.04,87.1241L 193.04,80.6646 Z M 207.584,80.6646L 215.558,80.6646L 215.558,87.1241L 207.584,87.1241L 207.584,113.168L 201.022,113.168L 201.022,87.1241L 200.919,87.1241L 207.584,80.6646 Z "/>
		<path fill="#FFFFFF" fill-opacity="1" stroke-width="0.2" stroke-linejoin="round" d="M 230.496,80.6646C 232.72,80.6646 234.64,81.1273 236.254,82.0527C 237.868,82.9781 239.012,84.3662 239.685,86.2172L 235.094,89.443C 234.216,87.692 232.718,86.8165 230.599,86.8165C 229.452,86.8165 228.485,87.1031 227.696,87.6763C 226.908,88.2494 226.513,88.9409 226.513,89.7506C 226.513,90.0187 226.555,90.2618 226.639,90.4801C 226.724,90.6984 226.875,90.9087 227.093,91.1112C 227.311,91.3136 227.521,91.4897 227.724,91.6396C 227.926,91.7894 228.229,91.9657 228.631,92.168C 229.033,92.3705 229.395,92.5479 229.715,92.7003C 230.036,92.8529 230.474,93.0553 231.029,93.3077C 231.583,93.5601 232.063,93.7705 232.468,93.9386C 232.636,94.007 232.87,94.1254 233.17,94.2936L 227.523,98.2294C 226.576,97.756 225.86,97.3854 225.373,97.1172C 224.887,96.8491 224.256,96.4376 223.481,95.8828C 222.705,95.3281 222.124,94.7892 221.738,94.266C 221.351,93.7428 221.007,93.0776 220.704,92.2705C 220.402,91.4634 220.251,90.5708 220.251,89.5928C 220.251,86.9691 221.235,84.8251 223.205,83.1608C 225.174,81.4966 227.604,80.6646 230.496,80.6646 Z M 235.394,95.5004C 237.213,96.5782 238.586,97.7731 239.511,99.0851C 240.437,100.397 240.899,101.978 240.899,103.829C 240.899,106.621 239.856,108.868 237.768,110.569C 235.681,112.27 232.954,113.12 229.589,113.12C 224.405,113.12 220.737,111.117 218.587,107.11L 223.634,103.632C 224.98,105.751 226.981,106.811 229.637,106.811C 231.119,106.811 232.316,106.541 233.225,106.002C 234.135,105.463 234.59,104.773 234.59,103.932C 234.59,103.122 234.169,102.356 233.328,101.633C 232.486,100.91 231.309,100.162 229.794,99.3887L 235.394,95.5004 Z "/>
	</g>
	<line fill="none" stroke-width="8" stroke-linejoin="round" stroke="#3DB4F2" stroke-opacity="1" x1="152" y1="1884" x2="152" y2="1632"/>
	<path fill="#3DB4F2" fill-opacity="1" stroke-width="0.2" stroke-linejoin="round" d="M 145.152,1650.23C 145.152,1650.23 126.601,1640.95 145.152,1633"/>
	<line fill="none" stroke-width="8" stroke-linejoin="round" stroke="#3DB4F2" stroke-opacity="1" x1="282.5" y1="1884" x2="282.5" y2="1705.5"/>
	<path fill="#3DB4F2" fill-opacity="1" stroke-width="0.2" stroke-linejoin="round" d="M 275.652,1723.73C 275.652,1723.73 257.101,1714.45 275.652,1706.5"/>
	<g>
		<path fill="#3ABAEA" fill-opacity="1" stroke-width="0.2" stroke-linejoin="round" d="M 171.955,1648.61L 185.741,1648.61L 185.741,1652.02L 171.955,1652.02C 169.199,1652.02 167.821,1653.16 167.821,1655.43L 167.821,1665.66C 167.821,1667.93 169.199,1669.07 171.955,1669.07L 185.741,1669.07L 185.741,1672.48L 171.955,1672.48C 167.361,1672.48 165.064,1670.21 165.064,1665.66L 165.064,1655.43C 165.064,1650.88 167.361,1648.61 171.955,1648.61 Z "/>
		<path fill="#3ABAEA" fill-opacity="1" stroke-width="0.2" stroke-linejoin="round" d="M 205.711,1665.66L 205.711,1648.61L 208.469,1648.61L 208.469,1665.66C 208.469,1670.21 206.172,1672.48 201.578,1672.48L 194.683,1672.48C 190.089,1672.48 187.792,1670.21 187.792,1665.66L 187.792,1648.61L 190.549,1648.61L 190.549,1665.66C 190.549,1667.93 191.927,1669.07 194.683,1669.07L 201.578,1669.07C 204.334,1669.07 205.711,1667.93 205.711,1665.66 Z "/>
		<path fill="#3ABAEA" fill-opacity="1" stroke-width="0.2" stroke-linejoin="round" d="M 225.012,1652.02L 211.226,1652.02L 211.226,1648.61L 225.012,1648.61C 229.605,1648.61 231.902,1650.88 231.902,1655.41C 231.902,1659.94 229.605,1662.2 225.012,1662.2L 224.195,1662.2L 232.467,1672.48L 228.58,1672.48L 220.309,1662.2L 213.983,1662.2L 213.983,1672.48L 211.226,1672.48L 211.226,1658.79L 225.012,1658.79C 227.767,1658.79 229.145,1657.66 229.145,1655.41C 229.145,1653.15 227.767,1652.02 225.012,1652.02 Z "/>
		<path fill="#3ABAEA" fill-opacity="1" stroke-width="0.2" stroke-linejoin="round" d="M 247.739,1652.02L 233.954,1652.02L 233.954,1648.61L 247.739,1648.61C 252.333,1648.61 254.63,1650.88 254.63,1655.41C 254.63,1659.94 252.333,1662.2 247.739,1662.2L 246.923,1662.2L 255.195,1672.48L 251.308,1672.48L 243.037,1662.2L 236.711,1662.2L 236.711,1672.48L 233.954,1672.48L 233.954,1658.79L 247.739,1658.79C 250.495,1658.79 251.873,1657.66 251.873,1655.41C 251.873,1653.15 250.495,1652.02 247.739,1652.02 Z "/>
		<path fill="#3ABAEA" fill-opacity="1" stroke-width="0.2" stroke-linejoin="round" d="M 263.572,1648.61L 277.358,1648.61L 277.358,1652.02L 263.572,1652.02C 260.816,1652.02 259.439,1653.15 259.439,1655.41L 259.439,1658.79L 277.358,1658.79L 277.358,1662.2L 259.439,1662.2L 259.439,1665.63C 259.439,1667.92 260.816,1669.07 263.572,1669.07L 277.358,1669.07L 277.358,1672.48L 263.572,1672.48C 258.978,1672.48 256.681,1670.21 256.681,1665.66L 256.681,1655.43C 256.681,1650.88 258.978,1648.61 263.572,1648.61 Z "/>
		<path fill="#3ABAEA" fill-opacity="1" stroke-width="0.2" stroke-linejoin="round" d="M 298.035,1663.95L 298.035,1648.61L 300.792,1648.61L 300.792,1663.96C 300.792,1669.64 298.954,1672.48 295.277,1672.48C 292.522,1672.48 290.523,1669.07 289.282,1662.25C 288.041,1655.43 286.824,1652.02 285.63,1652.02C 283.791,1652.02 282.872,1653.73 282.872,1657.13L 282.872,1672.48L 280.115,1672.48L 280.115,1657.13C 280.115,1651.45 281.953,1648.61 285.63,1648.61C 288.385,1648.61 290.384,1652.02 291.625,1658.84C 292.866,1665.66 294.083,1669.07 295.277,1669.07C 297.116,1669.07 298.035,1667.36 298.035,1663.95 Z "/>
		<path fill="#3ABAEA" fill-opacity="1" stroke-width="0.2" stroke-linejoin="round" d="M 311.803,1652.02L 302.843,1652.02L 302.843,1648.61L 323.52,1648.61L 323.52,1652.02L 314.56,1652.02L 314.56,1672.48L 311.803,1672.48L 311.803,1652.02 Z "/>
		<path fill="#3ABAEA" fill-opacity="1" stroke-width="0.2" stroke-linejoin="round" d="M 338.814,1648.61L 352.6,1648.61L 352.6,1652.02L 338.814,1652.02C 336.058,1652.02 334.681,1653.15 334.681,1655.41L 334.681,1658.79L 352.6,1658.79L 352.6,1662.2L 334.681,1662.2L 334.681,1665.63C 334.681,1667.92 336.058,1669.07 338.814,1669.07L 352.6,1669.07L 352.6,1672.48L 338.814,1672.48C 334.22,1672.48 331.923,1670.21 331.923,1665.66L 331.923,1655.43C 331.923,1650.88 334.22,1648.61 338.814,1648.61 Z "/>
		<path fill="#3ABAEA" fill-opacity="1" stroke-width="0.2" stroke-linejoin="round" d="M 373.276,1662.25L 373.276,1648.61L 376.034,1648.61L 376.034,1662.26C 376.034,1666.8 372.587,1670.39 365.693,1673C 358.802,1670.39 355.357,1666.8 355.357,1662.26L 355.357,1648.61L 358.114,1648.61L 358.114,1662.25C 358.114,1664.52 360.641,1666.91 365.693,1669.41C 370.749,1666.91 373.276,1664.52 373.276,1662.25 Z "/>
		<path fill="#3ABAEA" fill-opacity="1" stroke-width="0.2" stroke-linejoin="round" d="M 385.682,1648.61L 399.467,1648.61L 399.467,1652.02L 385.682,1652.02C 382.926,1652.02 381.548,1653.15 381.548,1655.41L 381.548,1658.79L 399.467,1658.79L 399.467,1662.2L 381.548,1662.2L 381.548,1665.63C 381.548,1667.92 382.926,1669.07 385.682,1669.07L 399.467,1669.07L 399.467,1672.48L 385.682,1672.48C 381.088,1672.48 378.791,1670.21 378.791,1665.66L 378.791,1655.43C 378.791,1650.88 381.088,1648.61 385.682,1648.61 Z "/>
		<path fill="#3ABAEA" fill-opacity="1" stroke-width="0.2" stroke-linejoin="round" d="M 420.144,1663.95L 420.144,1648.61L 422.901,1648.61L 422.901,1663.96C 422.901,1669.64 421.063,1672.48 417.387,1672.48C 414.631,1672.48 412.633,1669.07 411.392,1662.25C 410.15,1655.43 408.933,1652.02 407.739,1652.02C 405.901,1652.02 404.982,1653.73 404.982,1657.13L 404.982,1672.48L 402.224,1672.48L 402.224,1657.13C 402.224,1651.45 404.063,1648.61 407.739,1648.61C 410.495,1648.61 412.493,1652.02 413.734,1658.84C 414.975,1665.66 416.193,1669.07 417.387,1669.07C 419.225,1669.07 420.144,1667.36 420.144,1663.95 Z "/>
		<path fill="#3ABAEA" fill-opacity="1" stroke-width="0.2" stroke-linejoin="round" d="M 433.912,1652.02L 424.952,1652.02L 424.952,1648.61L 445.629,1648.61L 445.629,1652.02L 436.669,1652.02L 436.669,1672.48L 433.912,1672.48L 433.912,1652.02 Z "/>
		<path fill="#3ABAEA" fill-opacity="1" stroke-width="0.2" stroke-linejoin="round" d="M 453.159,1648.61L 466.945,1648.61L 466.945,1652.02L 453.159,1652.02C 450.404,1652.02 449.026,1653.16 449.026,1655.43C 449.026,1656.91 452.012,1658.13 457.985,1659.1C 463.959,1660.06 466.945,1662.25 466.945,1665.66C 466.945,1670.21 464.648,1672.48 460.054,1672.48L 446.269,1672.48L 446.269,1669.07L 460.054,1669.07C 462.81,1669.07 464.188,1667.93 464.188,1665.66C 464.188,1664.18 461.201,1662.96 455.228,1661.99C 449.255,1661.03 446.269,1658.84 446.269,1655.43C 446.269,1650.88 448.566,1648.61 453.159,1648.61 Z "/>
	</g>
	<g>
		<path fill="#4099EC" fill-opacity="1" stroke-width="0.2" stroke-linejoin="round" d="M 165.394,1635.58L 167.844,1635.58L 167.844,1642.25L 165.394,1642.25L 165.394,1635.58 Z M 168.628,1638.56L 171.046,1638.56L 171.046,1642.25L 168.628,1642.25L 168.628,1638.56 Z M 171.83,1638.56L 174.28,1638.56L 174.28,1645.23L 171.83,1645.23L 171.83,1638.56 Z "/>
		<path fill="#4099EC" fill-opacity="1" stroke-width="0.2" stroke-linejoin="round" d="M 189.325,1635.52L 189.849,1636L 189.849,1644.73L 189.293,1645.23L 175.205,1645.23L 175.205,1635.52L 177.643,1635.52L 177.643,1643.13L 187.41,1643.13L 187.41,1637.76L 184.262,1637.76L 182.772,1639.6L 179.625,1639.6L 182.956,1635.52L 189.325,1635.52 Z "/>
		<path fill="#4099EC" fill-opacity="1" stroke-width="0.2" stroke-linejoin="round" d="M 204.122,1635.52L 195.239,1645.23L 192.156,1645.23L 198.689,1638.04L 198.689,1637.87L 190.85,1637.87L 192.767,1635.52L 204.122,1635.52 Z "/>
		<path fill="#4099EC" fill-opacity="1" stroke-width="0.2" stroke-linejoin="round" d="M 218.276,1635.52L 209.393,1645.23L 206.31,1645.23L 212.843,1638.04L 212.843,1637.87L 205.004,1637.87L 206.921,1635.52L 218.276,1635.52 Z "/>
		<path fill="#4099EC" fill-opacity="1" stroke-width="0.2" stroke-linejoin="round" d="M 234.662,1635.51L 234.662,1637.75L 233.039,1637.75L 233.039,1645.23L 230.841,1645.23L 230.841,1637.75L 230.535,1637.75L 226.66,1645.23L 223.839,1645.23L 218.756,1635.51L 221.488,1635.51L 225.277,1642.46L 228.946,1635.51L 234.662,1635.51 Z "/>
		<path fill="#4099EC" fill-opacity="1" stroke-width="0.2" stroke-linejoin="round" d="M 238.451,1643.35L 238.713,1643.33L 243.165,1635.52L 245.963,1635.52L 251.887,1645.23L 249.143,1645.23L 244.592,1637.56L 240.171,1645.23L 237.449,1645.23L 237.286,1645.22L 237.013,1644.86L 236.763,1644.47L 236.427,1643.93L 236.132,1643.31L 235.85,1642.66L 235.687,1641.91L 235.511,1641.06L 235.447,1640.18L 235.511,1639.31L 235.598,1638.51L 235.773,1637.73L 235.959,1637.14L 236.251,1636.6L 236.535,1636.13L 236.872,1635.74L 237.068,1635.54L 239.082,1635.54L 238.735,1635.85L 238.451,1636.23L 238.169,1636.7L 237.951,1637.16L 237.755,1637.73L 237.58,1638.48L 237.439,1639.31L 237.384,1640.13L 237.439,1640.96L 237.612,1641.84L 237.83,1642.51L 238.06,1642.92L 238.451,1643.35 Z "/>
		<path fill="#4099EC" fill-opacity="1" stroke-width="0.2" stroke-linejoin="round" d="M 261.86,1635.52L 261.86,1643.38L 262.557,1643.38L 266.16,1640.02L 269.33,1640.02L 263.624,1645.23L 258.081,1645.23L 252.323,1639.99L 255.512,1639.99L 259.15,1643.35L 259.813,1643.35L 259.813,1635.52L 261.86,1635.52 Z "/>
		<path fill="#4099EC" fill-opacity="1" stroke-width="0.2" stroke-linejoin="round" d="M 291.387,1635.51L 291.387,1637.75L 289.764,1637.75L 289.764,1645.23L 287.566,1645.23L 287.566,1637.75L 287.26,1637.75L 283.385,1645.23L 280.564,1645.23L 275.481,1635.51L 278.213,1635.51L 282.002,1642.46L 285.671,1635.51L 291.387,1635.51 Z "/>
		<path fill="#4099EC" fill-opacity="1" stroke-width="0.2" stroke-linejoin="round" d="M 295.557,1635.52L 298.366,1638.13L 298.823,1638.13L 301.622,1635.52L 305.074,1635.52L 299.608,1640.55L 299.608,1645.23L 297.571,1645.23L 297.571,1640.55L 292.105,1635.55L 295.557,1635.52 Z "/>
		<path fill="#4099EC" fill-opacity="1" stroke-width="0.2" stroke-linejoin="round" d="M 321.546,1635.51L 321.546,1637.75L 319.923,1637.75L 319.923,1645.23L 317.725,1645.23L 317.725,1637.75L 317.419,1637.75L 313.544,1645.23L 310.723,1645.23L 305.64,1635.51L 308.372,1635.51L 312.161,1642.46L 315.83,1635.51L 321.546,1635.51 Z "/>
		<path fill="#4099EC" fill-opacity="1" stroke-width="0.2" stroke-linejoin="round" d="M 325.335,1643.35L 325.597,1643.33L 330.049,1635.52L 332.847,1635.52L 338.771,1645.23L 336.027,1645.23L 331.476,1637.56L 327.055,1645.23L 324.333,1645.23L 324.17,1645.22L 323.897,1644.86L 323.647,1644.47L 323.31,1643.93L 323.016,1643.31L 322.734,1642.66L 322.57,1641.91L 322.395,1641.06L 322.331,1640.18L 322.395,1639.31L 322.482,1638.51L 322.657,1637.73L 322.843,1637.14L 323.135,1636.6L 323.419,1636.13L 323.756,1635.74L 323.952,1635.54L 325.966,1635.54L 325.619,1635.85L 325.335,1636.23L 325.053,1636.7L 324.835,1637.16L 324.639,1637.73L 324.464,1638.48L 324.323,1639.31L 324.268,1640.13L 324.323,1640.96L 324.496,1641.84L 324.714,1642.51L 324.944,1642.92L 325.335,1643.35 Z "/>
		<path fill="#4099EC" fill-opacity="1" stroke-width="0.2" stroke-linejoin="round" d="M 348.743,1635.52L 348.743,1643.38L 349.441,1643.38L 353.044,1640.02L 356.214,1640.02L 350.508,1645.23L 344.965,1645.23L 339.207,1639.99L 342.396,1639.99L 346.033,1643.35L 346.697,1643.35L 346.697,1635.52L 348.743,1635.52 Z "/>
		<path fill="#4099EC" fill-opacity="1" stroke-width="0.2" stroke-linejoin="round" d="M 361.853,1635.52L 369.898,1642.92L 369.898,1635.52L 372.164,1635.52L 372.164,1645.23L 369.061,1645.23L 358.466,1635.52L 361.853,1635.52 Z M 357.585,1640.61L 365.815,1643.35L 365.087,1645.23L 356.823,1642.54L 357.585,1640.61 Z "/>
	</g>
	<g>
		<path fill="#3ABAEA" fill-opacity="1" stroke-width="0.2" stroke-linejoin="round" d="M 317.003,1738.43L 317.003,1721.38L 319.76,1721.38L 319.76,1738.43C 319.76,1742.98 317.463,1745.25 312.869,1745.25L 305.974,1745.25C 301.38,1745.25 299.083,1742.98 299.083,1738.43L 299.083,1721.38L 301.84,1721.38L 301.84,1738.43C 301.84,1740.7 303.218,1741.84 305.974,1741.84L 312.869,1741.84C 315.625,1741.84 317.003,1740.7 317.003,1738.43 Z "/>
		<path fill="#3ABAEA" fill-opacity="1" stroke-width="0.2" stroke-linejoin="round" d="M 336.303,1724.79L 322.517,1724.79L 322.517,1721.38L 336.303,1721.38C 340.897,1721.38 343.194,1723.65 343.194,1728.18C 343.194,1732.71 340.897,1734.97 336.303,1734.97L 325.274,1734.97L 325.274,1745.25L 322.517,1745.25L 322.517,1731.56L 336.303,1731.56C 339.059,1731.56 340.436,1730.43 340.436,1728.18C 340.436,1725.92 339.059,1724.79 336.303,1724.79 Z "/>
		<path fill="#3ABAEA" fill-opacity="1" stroke-width="0.2" stroke-linejoin="round" d="M 352.136,1721.38L 365.921,1721.38L 365.921,1724.79L 352.136,1724.79C 349.38,1724.79 348.002,1725.93 348.002,1728.2L 348.002,1738.43C 348.002,1740.7 349.38,1741.84 352.136,1741.84L 365.921,1741.84L 365.921,1745.25L 352.136,1745.25C 347.542,1745.25 345.245,1742.98 345.245,1738.43L 345.245,1728.2C 345.245,1723.65 347.542,1721.38 352.136,1721.38 Z "/>
		<path fill="#3ABAEA" fill-opacity="1" stroke-width="0.2" stroke-linejoin="round" d="M 381.053,1724.79L 374.158,1724.79C 371.402,1724.79 370.024,1725.93 370.024,1728.2L 370.024,1738.43C 370.024,1740.7 371.402,1741.84 374.158,1741.84L 381.053,1741.84C 383.808,1741.84 385.186,1740.7 385.186,1738.43L 385.186,1728.2C 385.186,1725.93 383.808,1724.79 381.053,1724.79 Z M 374.158,1721.38L 381.053,1721.38C 385.647,1721.38 387.943,1723.65 387.943,1728.2L 387.943,1738.43C 387.943,1742.98 385.647,1745.25 381.053,1745.25L 374.158,1745.25C 369.564,1745.25 367.267,1742.98 367.267,1738.43L 367.267,1728.2C 367.267,1723.65 369.564,1721.38 374.158,1721.38 Z "/>
		<path fill="#3ABAEA" fill-opacity="1" stroke-width="0.2" stroke-linejoin="round" d="M 393.458,1728.2L 393.458,1745.25L 390.701,1745.25L 390.701,1728.2C 390.701,1723.65 392.997,1721.38 397.591,1721.38C 400.129,1721.38 401.967,1722.07 403.106,1723.46C 404.247,1722.07 406.085,1721.38 408.62,1721.38C 413.217,1721.38 415.515,1723.65 415.515,1728.2L 415.515,1745.25L 412.758,1745.25L 412.758,1728.2C 412.758,1725.93 411.379,1724.79 408.62,1724.79C 405.864,1724.79 404.486,1725.93 404.486,1728.2L 404.486,1745.25L 401.729,1745.25L 401.729,1728.2C 401.729,1725.93 400.35,1724.79 397.591,1724.79C 394.836,1724.79 393.458,1725.93 393.458,1728.2 Z "/>
		<rect x="418.369" y="1721.38" fill="#3ABAEA" fill-opacity="1" stroke-width="0.2" stroke-linejoin="round" width="2.75717" height="23.8689"/>
		<path fill="#3ABAEA" fill-opacity="1" stroke-width="0.2" stroke-linejoin="round" d="M 441.935,1736.72L 441.935,1721.38L 444.692,1721.38L 444.692,1736.73C 444.692,1742.41 442.854,1745.25 439.178,1745.25C 436.422,1745.25 434.424,1741.84 433.183,1735.02C 431.942,1728.2 430.724,1724.79 429.53,1724.79C 427.692,1724.79 426.773,1726.5 426.773,1729.9L 426.773,1745.25L 424.016,1745.25L 424.016,1729.9C 424.016,1724.22 425.854,1721.38 429.53,1721.38C 432.286,1721.38 434.284,1724.79 435.525,1731.61C 436.767,1738.43 437.984,1741.84 439.178,1741.84C 441.016,1741.84 441.935,1740.13 441.935,1736.72 Z "/>
		<path fill="#3ABAEA" fill-opacity="1" stroke-width="0.2" stroke-linejoin="round" d="M 454.34,1721.38L 468.126,1721.38L 468.126,1724.79L 454.34,1724.79C 451.585,1724.79 450.207,1725.93 450.207,1728.2L 450.207,1738.43C 450.207,1740.7 451.585,1741.84 454.34,1741.84L 465.369,1741.84L 465.369,1734.97L 457.098,1734.97L 457.098,1731.56L 468.126,1731.56L 468.126,1745.25L 454.34,1745.25C 449.747,1745.25 447.45,1742.98 447.45,1738.43L 447.45,1728.2C 447.45,1723.65 449.747,1721.38 454.34,1721.38 Z "/>
		<path fill="#3ABAEA" fill-opacity="1" stroke-width="0.2" stroke-linejoin="round" d="M 483.421,1721.38L 497.207,1721.38L 497.207,1724.79L 483.421,1724.79C 480.665,1724.79 479.287,1725.92 479.287,1728.18L 479.287,1731.56L 497.207,1731.56L 497.207,1734.97L 479.287,1734.97L 479.287,1738.4C 479.287,1740.69 480.665,1741.84 483.421,1741.84L 497.207,1741.84L 497.207,1745.25L 483.421,1745.25C 478.827,1745.25 476.53,1742.98 476.53,1738.43L 476.53,1728.2C 476.53,1723.65 478.827,1721.38 483.421,1721.38 Z "/>
		<path fill="#3ABAEA" fill-opacity="1" stroke-width="0.2" stroke-linejoin="round" d="M 517.883,1735.02L 517.883,1721.38L 520.64,1721.38L 520.64,1735.03C 520.64,1739.57 517.193,1743.16 510.3,1745.77C 503.409,1743.16 499.964,1739.57 499.964,1735.03L 499.964,1721.38L 502.721,1721.38L 502.721,1735.02C 502.721,1737.29 505.247,1739.68 510.3,1742.18C 515.355,1739.68 517.883,1737.29 517.883,1735.02 Z "/>
		<path fill="#3ABAEA" fill-opacity="1" stroke-width="0.2" stroke-linejoin="round" d="M 530.288,1721.38L 544.074,1721.38L 544.074,1724.79L 530.288,1724.79C 527.532,1724.79 526.155,1725.92 526.155,1728.18L 526.155,1731.56L 544.074,1731.56L 544.074,1734.97L 526.155,1734.97L 526.155,1738.4C 526.155,1740.69 527.532,1741.84 530.288,1741.84L 544.074,1741.84L 544.074,1745.25L 530.288,1745.25C 525.694,1745.25 523.397,1742.98 523.397,1738.43L 523.397,1728.2C 523.397,1723.65 525.694,1721.38 530.288,1721.38 Z "/>
		<path fill="#3ABAEA" fill-opacity="1" stroke-width="0.2" stroke-linejoin="round" d="M 564.75,1736.72L 564.75,1721.38L 567.508,1721.38L 567.508,1736.73C 567.508,1742.41 565.669,1745.25 561.993,1745.25C 559.238,1745.25 557.239,1741.84 555.998,1735.02C 554.757,1728.2 553.539,1724.79 552.345,1724.79C 550.507,1724.79 549.588,1726.5 549.588,1729.9L 549.588,1745.25L 546.831,1745.25L 546.831,1729.9C 546.831,1724.22 548.669,1721.38 552.345,1721.38C 555.101,1721.38 557.1,1724.79 558.341,1731.61C 559.582,1738.43 560.799,1741.84 561.993,1741.84C 563.831,1741.84 564.75,1740.13 564.75,1736.72 Z "/>
		<path fill="#3ABAEA" fill-opacity="1" stroke-width="0.2" stroke-linejoin="round" d="M 578.519,1724.79L 569.559,1724.79L 569.559,1721.38L 590.235,1721.38L 590.235,1724.79L 581.276,1724.79L 581.276,1745.25L 578.519,1745.25L 578.519,1724.79 Z "/>
		<path fill="#3ABAEA" fill-opacity="1" stroke-width="0.2" stroke-linejoin="round" d="M 597.766,1721.38L 611.552,1721.38L 611.552,1724.79L 597.766,1724.79C 595.01,1724.79 593.632,1725.93 593.632,1728.2C 593.632,1729.68 596.619,1730.9 602.592,1731.87C 608.565,1732.83 611.552,1735.02 611.552,1738.43C 611.552,1742.98 609.255,1745.25 604.661,1745.25L 590.875,1745.25L 590.875,1741.84L 604.661,1741.84C 607.417,1741.84 608.794,1740.7 608.794,1738.43C 608.794,1736.95 605.808,1735.73 599.835,1734.76C 593.862,1733.8 590.875,1731.61 590.875,1728.2C 590.875,1723.65 593.172,1721.38 597.766,1721.38 Z "/>
	</g>
	<g>
		<path fill="#4099EC" fill-opacity="1" stroke-width="0.2" stroke-linejoin="round" d="M 313.545,1708.29L 314.069,1708.77L 314.069,1717.5L 313.513,1718L 299.425,1718L 299.425,1708.29L 301.863,1708.29L 301.863,1715.9L 311.63,1715.9L 311.63,1710.53L 308.483,1710.53L 306.992,1712.38L 303.845,1712.38L 307.176,1708.29L 313.545,1708.29 Z "/>
		<path fill="#4099EC" fill-opacity="1" stroke-width="0.2" stroke-linejoin="round" d="M 324.989,1708.34L 324.989,1718L 316.975,1718C 315.64,1717.11 314.929,1715.66 314.842,1713.66C 315.016,1711.52 315.88,1709.75 317.433,1708.35L 320.917,1708.35L 320.917,1710.69L 318.499,1710.69L 318.499,1710.17L 318.108,1710.17C 317.557,1710.75 317.281,1711.92 317.281,1713.66C 317.252,1714.96 317.455,1715.66 317.89,1715.78L 322.55,1715.78L 322.55,1708.33L 324.989,1708.34 Z "/>
		<path fill="#4099EC" fill-opacity="1" stroke-width="0.2" stroke-linejoin="round" d="M 325.98,1708.35L 328.429,1708.35L 328.429,1715.02L 325.98,1715.02L 325.98,1708.35 Z M 329.214,1711.33L 331.631,1711.33L 331.631,1715.02L 329.214,1715.02L 329.214,1711.33 Z M 332.415,1711.33L 334.865,1711.33L 334.865,1718L 332.415,1718L 332.415,1711.33 Z "/>
		<path fill="#4099EC" fill-opacity="1" stroke-width="0.2" stroke-linejoin="round" d="M 346.644,1708.29L 350.249,1716.01L 348.811,1718L 337.194,1718L 335.702,1715.98L 339.176,1708.29L 346.644,1708.29 Z M 338.228,1715.87L 347.712,1715.87L 345.251,1710.53L 340.668,1710.53L 338.228,1715.87 Z "/>
		<path fill="#4099EC" fill-opacity="1" stroke-width="0.2" stroke-linejoin="round" d="M 360.233,1708.29L 360.233,1710.9L 357.967,1710.92L 354.953,1715.76L 360.961,1715.76L 359.492,1718L 350.836,1718L 356.661,1708.29L 360.233,1708.29 Z "/>
		<path fill="#4099EC" fill-opacity="1" stroke-width="0.2" stroke-linejoin="round" d="M 367.615,1708.26L 367.615,1718L 365.601,1718L 365.601,1710.71L 363.455,1712.66L 361.899,1711.23C 361.877,1711.17 361.906,1711.12 361.986,1711.07L 364.99,1708.26L 367.615,1708.26 Z "/>
		<path fill="#4099EC" fill-opacity="1" stroke-width="0.2" stroke-linejoin="round" d="M 371.708,1716.12L 371.97,1716.1L 376.422,1708.29L 379.22,1708.29L 385.144,1718L 382.4,1718L 377.849,1710.33L 373.428,1718L 370.706,1718L 370.543,1717.99L 370.27,1717.63L 370.02,1717.24L 369.684,1716.7L 369.389,1716.08L 369.107,1715.43L 368.943,1714.68L 368.768,1713.83L 368.704,1712.95L 368.768,1712.08L 368.855,1711.28L 369.03,1710.5L 369.216,1709.91L 369.508,1709.37L 369.792,1708.9L 370.129,1708.51L 370.325,1708.31L 372.339,1708.31L 371.992,1708.62L 371.708,1709L 371.426,1709.47L 371.208,1709.93L 371.012,1710.5L 370.837,1711.25L 370.696,1712.08L 370.641,1712.9L 370.696,1713.73L 370.869,1714.61L 371.087,1715.28L 371.317,1715.69L 371.708,1716.12 Z "/>
		<path fill="#4099EC" fill-opacity="1" stroke-width="0.2" stroke-linejoin="round" d="M 401.171,1708.26L 401.137,1708.43L 395.443,1718L 386.166,1718L 386.166,1708.26L 388.16,1708.26L 388.16,1715.75L 394.268,1715.75L 397.316,1710.34L 397.316,1710.28L 392.221,1710.28L 392.221,1710.87L 390.195,1710.87L 390.195,1708.26L 401.171,1708.26 Z "/>
		<path fill="#4099EC" fill-opacity="1" stroke-width="0.2" stroke-linejoin="round" d="M 423.447,1708.28L 423.447,1710.52L 421.824,1710.52L 421.824,1718L 419.626,1718L 419.626,1710.52L 419.32,1710.52L 415.444,1718L 412.624,1718L 407.54,1708.28L 410.273,1708.28L 414.061,1715.23L 417.731,1708.28L 423.447,1708.28 Z "/>
		<path fill="#4099EC" fill-opacity="1" stroke-width="0.2" stroke-linejoin="round" d="M 427.616,1708.29L 430.425,1710.9L 430.883,1710.9L 433.681,1708.29L 437.133,1708.29L 431.667,1713.32L 431.667,1718L 429.631,1718L 429.631,1713.32L 424.165,1708.32L 427.616,1708.29 Z "/>
		<path fill="#4099EC" fill-opacity="1" stroke-width="0.2" stroke-linejoin="round" d="M 453.606,1708.28L 453.606,1710.52L 451.983,1710.52L 451.983,1718L 449.785,1718L 449.785,1710.52L 449.479,1710.52L 445.603,1718L 442.783,1718L 437.699,1708.28L 440.432,1708.28L 444.22,1715.23L 447.89,1708.28L 453.606,1708.28 Z "/>
		<path fill="#4099EC" fill-opacity="1" stroke-width="0.2" stroke-linejoin="round" d="M 457.394,1716.12L 457.656,1716.1L 462.108,1708.29L 464.907,1708.29L 470.83,1718L 468.086,1718L 463.536,1710.33L 459.114,1718L 456.392,1718L 456.229,1717.99L 455.957,1717.63L 455.707,1717.24L 455.37,1716.7L 455.076,1716.08L 454.793,1715.43L 454.63,1714.68L 454.455,1713.83L 454.39,1712.95L 454.455,1712.08L 454.541,1711.28L 454.717,1710.5L 454.902,1709.91L 455.195,1709.37L 455.479,1708.9L 455.816,1708.51L 456.011,1708.31L 458.025,1708.31L 457.678,1708.62L 457.394,1709L 457.112,1709.47L 456.894,1709.93L 456.698,1710.5L 456.523,1711.25L 456.382,1712.08L 456.328,1712.9L 456.382,1713.73L 456.556,1714.61L 456.773,1715.28L 457.003,1715.69L 457.394,1716.12 Z "/>
		<path fill="#4099EC" fill-opacity="1" stroke-width="0.2" stroke-linejoin="round" d="M 480.803,1708.29L 480.803,1716.15L 481.5,1716.15L 485.104,1712.8L 488.273,1712.8L 482.567,1718L 477.025,1718L 471.266,1712.76L 474.456,1712.76L 478.093,1716.12L 478.756,1716.12L 478.756,1708.29L 480.803,1708.29 Z "/>
		<path fill="#4099EC" fill-opacity="1" stroke-width="0.2" stroke-linejoin="round" d="M 493.912,1708.29L 501.957,1715.69L 501.957,1708.29L 504.223,1708.29L 504.223,1718L 501.12,1718L 490.525,1708.29L 493.912,1708.29 Z M 489.644,1713.38L 497.874,1716.12L 497.146,1718L 488.882,1715.31L 489.644,1713.38 Z "/>
	</g>
	<path fill="#FFFF00" fill-opacity="0.498039" stroke-width="0.2" stroke-linejoin="round" d="M 1046,1070L 1047,1070L 1046,1070 Z "/>
	<line fill="none" stroke-width="8" stroke-linejoin="round" stroke="#3DB4F2" stroke-opacity="1" x1="596" y1="89" x2="685" y2="89"/>
	<ellipse fill="none" stroke-width="4" stroke-linejoin="round" stroke="#2293CE" stroke-opacity="1" cx="152" cy="1913" rx="28.5" ry="28.5"/>
	<ellipse fill="none" stroke-width="4" stroke-linejoin="round" stroke="#2293CE" stroke-opacity="1" cx="282" cy="1913" rx="28.5" ry="28.5"/>
	<line fill="none" stroke-width="8" stroke-linecap="round" stroke-linejoin="round" stroke="#3DB4F2" stroke-opacity="1" x1="49" y1="272" x2="49" y2="312"/>
	<line fill="none" stroke-linejoin="round" stroke="#3DB4F2" stroke-opacity="1" x1="78" y1="264" x2="78" y2="380"/>
	<line fill="none" stroke-linejoin="round" stroke="#3DB4F2" stroke-opacity="1" x1="78" y1="385" x2="78" y2="390"/>
	<line fill="none" stroke-width="8" stroke-linecap="round" stroke-linejoin="round" stroke="#3DB4F2" stroke-opacity="1" x1="49" y1="420" x2="49" y2="460"/>
	<line fill="none" stroke-linejoin="round" stroke="#3DB4F2" stroke-opacity="1" x1="78" y1="412" x2="78" y2="528"/>
	<line fill="none" stroke-linejoin="round" stroke="#3DB4F2" stroke-opacity="1" x1="78" y1="533" x2="78" y2="538"/>
	<line fill="none" stroke-width="8" stroke-linecap="round" stroke-linejoin="round" stroke="#3DB4F2" stroke-opacity="1" x1="49" y1="572" x2="49" y2="612"/>
	<line fill="none" stroke-linejoin="round" stroke="#3DB4F2" stroke-opacity="1" x1="78" y1="564" x2="78" y2="680"/>
	<line fill="none" stroke-linejoin="round" stroke="#3DB4F2" stroke-opacity="1" x1="78" y1="685" x2="78" y2="690"/>
	<line fill="none" stroke-width="8" stroke-linecap="round" stroke-linejoin="round" stroke="#3DB4F2" stroke-opacity="1" x1="49" y1="736" x2="49" y2="776"/>
	<line fill="none" stroke-linejoin="round" stroke="#3DB4F2" stroke-opacity="1" x1="78" y1="728" x2="78" y2="844"/>
	<line fill="none" stroke-linejoin="round" stroke="#3DB4F2" stroke-opacity="1" x1="78" y1="849" x2="78" y2="854"/>
	<line fill="none" stroke-width="8" stroke-linecap="round" stroke-linejoin="round" stroke="#3DB4F2" stroke-opacity="1" x1="49" y1="886" x2="49" y2="926"/>
	<line fill="none" stroke-linejoin="round" stroke="#3DB4F2" stroke-opacity="1" x1="78" y1="878" x2="78" y2="994"/>
	<line fill="none" stroke-linejoin="round" stroke="#3DB4F2" stroke-opacity="1" x1="78" y1="999" x2="78" y2="1004"/>
	<line fill="none" stroke-width="8" stroke-linecap="round" stroke-linejoin="round" stroke="#3DB4F2" stroke-opacity="1" x1="49" y1="1054" x2="49" y2="1094"/>
	<line fill="none" stroke-linejoin="round" stroke="#3DB4F2" stroke-opacity="1" x1="78" y1="1046" x2="78" y2="1162"/>
	<line fill="none" stroke-linejoin="round" stroke="#3DB4F2" stroke-opacity="1" x1="78" y1="1167" x2="78" y2="1172"/>
	<ellipse fill="none" stroke-width="4" stroke-linejoin="round" stroke="#2293CE" stroke-opacity="1" cx="412" cy="1913" rx="28.5" ry="28.5"/>
</svg>
