<?xml version="1.0" encoding="utf-8"?>
<!DOCTYPE svg PUBLIC "-//W3C//DTD SVG 1.1//EN" "http://www.w3.org/Graphics/SVG/1.1/DTD/svg11.dtd">
<svg xmlns="http://www.w3.org/2000/svg" xmlns:xlink="http://www.w3.org/1999/xlink" version="1.1" baseProfile="full" width="1080" height="1920" viewBox="0 0 1080.00 1920.00" enable-background="new 0 0 1080.00 1920.00" xml:space="preserve">
	<rect x="7.62939e-006" y="-0.00012207" fill="#1E4292" fill-opacity="1" stroke-width="0.2" stroke-linejoin="round" width="1080" height="1920"/>
	<ellipse fill="#3DB4F2" fill-opacity="1" stroke-width="3" stroke-linejoin="round" stroke="#3DB4F2" stroke-opacity="1" cx="685.913" cy="504.446" rx="49.1738" ry="47.8653"/>
	<ellipse fill="none" stroke-width="70" stroke-linejoin="round" stroke="#3DB4F2" stroke-opacity="1" cx="535.057" cy="850.499" rx="201.057" ry="207.5"/>
	<rect x="406.284" y="564.44" fill="#1A4785" fill-opacity="1" fill-rule="evenodd" stroke-width="0.2" stroke-linejoin="round" width="169.716" height="632.34"/>
	<path fill="#3DB4F2" fill-opacity="1" stroke-width="0.2" stroke-linejoin="round" d="M 425.625,316.629L 470,254L 470,1428.41L 426.215,1471L 425.625,346.033"/>
	<path fill="#3DB4F2" fill-opacity="1" stroke-width="0.2" stroke-linejoin="round" d="M 502.664,227.617L 540,168L 540,1285.91L 503.161,1326.45L 502.664,255.606"/>
	<text transform="matrix(0.8133421540260315 0.0000000000000000 0.0000000000000000 1.0000000000000000 881.00 132.00)" xml:space="preserve">
		<tspan id="time-string" style=" font-family:Sterilict; font-size:23.757307pt;" letter-spacing="0.00em" fill="#3DB4F2" fill-opacity="1" stroke-width="0.2" stroke-linejoin="round"></tspan>
	</text>
	<text transform="matrix(0.8702648282051085 0.0000000000000000 0.0000000000000000 1.0000000000000000 950.00 131.00)" xml:space="preserve">
		<tspan id="time-period" style=" font-family:Sterilict; font-size:16.233849pt;" letter-spacing="0.00em" fill="#3DB4F2" fill-opacity="1" stroke-width="0.2" stroke-linejoin="round"></tspan>
	</text>
	<line fill="none" stroke-width="8" stroke-linejoin="round" stroke="#3DB4F2" stroke-opacity="1" x1="836" y1="89" x2="992" y2="89"/>
	<line fill="none" stroke-width="8" stroke-linejoin="round" stroke="#3DB4F2" stroke-opacity="1" x1="902" y1="153" x2="992" y2="153"/>
	<line fill="none" stroke-width="8" stroke-linejoin="round" stroke="#3DB4F2" stroke-opacity="1" x1="39" y1="271" x2="64" y2="271"/>
	<line fill="none" stroke-width="8" stroke-linejoin="round" stroke="#3DB4F2" stroke-opacity="1" x1="39" y1="367" x2="64" y2="367"/>
	<line fill="none" stroke-width="8" stroke-linejoin="round" stroke="#3DB4F2" stroke-opacity="1" x1="39" y1="463" x2="64" y2="463"/>
	<line fill="none" stroke-width="8" stroke-linejoin="round" stroke="#3DB4F2" stroke-opacity="1" x1="39" y1="559" x2="64" y2="559"/>
	<line fill="none" stroke-width="8" stroke-linejoin="round" stroke="#3DB4F2" stroke-opacity="1" x1="39" y1="655" x2="64" y2="655"/>
	<path fill="#3DB4F2" fill-opacity="1" stroke-width="8" stroke-linejoin="round" stroke="#3DB4F2" stroke-opacity="1" d="M 152,1895.5C 161.665,1895.5 169.5,1903.34 169.5,1913C 169.5,1922.67 161.665,1930.5 152,1930.5C 142.335,1930.5 134.5,1922.67 134.5,1913C 134.5,1903.34 142.335,1895.5 152,1895.5 Z "/>
	<line fill="none" stroke-width="8" stroke-linejoin="round" stroke="#3DB4F2" stroke-opacity="1" x1="39" y1="751" x2="64" y2="751"/>
	<line fill="none" stroke-width="8" stroke-linejoin="round" stroke="#3DB4F2" stroke-opacity="1" x1="39" y1="847" x2="64" y2="847"/>
	<line fill="none" stroke-width="8" stroke-linejoin="round" stroke="#3DB4F2" stroke-opacity="1" x1="152" y1="1884" x2="152" y2="1632"/>
	<ellipse fill="none" stroke-width="4" stroke-linejoin="round" stroke="#2293CE" stroke-opacity="1" cx="152" cy="1913" rx="28.5" ry="28.5"/>
	<path fill="#3DB4F2" fill-opacity="1" stroke-width="0.2" stroke-linejoin="round" d="M 145.152,1650.23C 145.152,1650.23 126.601,1640.95 145.152,1633"/>
	<path fill="#3DB4F2" fill-opacity="1" stroke-width="8" stroke-linejoin="round" stroke="#3DB4F2" stroke-opacity="1" d="M 282,1895.5C 291.665,1895.5 299.5,1903.34 299.5,1913C 299.5,1922.67 291.665,1930.5 282,1930.5C 272.335,1930.5 264.5,1922.67 264.5,1913C 264.5,1903.34 272.335,1895.5 282,1895.5 Z "/>
	<line fill="none" stroke-width="8" stroke-linejoin="round" stroke="#3DB4F2" stroke-opacity="1" x1="282.5" y1="1884" x2="282.5" y2="1705.5"/>
	<ellipse fill="none" stroke-width="4" stroke-linejoin="round" stroke="#2293CE" stroke-opacity="1" cx="282" cy="1913" rx="28.5" ry="28.5"/>
	<path fill="#3DB4F2" fill-opacity="1" stroke-width="0.2" stroke-linejoin="round" d="M 275.652,1723.73C 275.652,1723.73 257.101,1714.45 275.652,1706.5"/>
	<path fill="#3DB4F2" fill-opacity="1" stroke-width="8" stroke-linejoin="round" stroke="#3DB4F2" stroke-opacity="1" d="M 412,1895.5C 421.665,1895.5 429.5,1903.34 429.5,1913C 429.5,1922.67 421.665,1930.5 412,1930.5C 402.335,1930.5 394.5,1922.67 394.5,1913C 394.5,1903.34 402.335,1895.5 412,1895.5 Z "/>
	<line fill="none" stroke-width="8" stroke-linejoin="round" stroke="#3DB4F2" stroke-opacity="1" x1="412.5" y1="1884" x2="412.5" y2="1779"/>
	<ellipse fill="none" stroke-width="4" stroke-linejoin="round" stroke="#2293CE" stroke-opacity="1" cx="412" cy="1913" rx="28.5" ry="28.5"/>
	<path fill="#3DB4F2" fill-opacity="1" stroke-width="0.2" stroke-linejoin="round" d="M 405.652,1797.23C 405.652,1797.23 387.101,1787.95 405.652,1780"/>
	<path fill="#3DB4F2" fill-opacity="1" stroke-width="8" stroke-linejoin="round" stroke="#3DB4F2" stroke-opacity="1" d="M 932,1895.5C 922.335,1895.5 914.5,1903.33 914.5,1913C 914.5,1922.66 922.335,1930.5 932,1930.5C 941.665,1930.5 949.5,1922.66 949.5,1913C 949.5,1903.33 941.665,1895.5 932,1895.5 Z "/>
	<line fill="none" stroke-width="8" stroke-linejoin="round" stroke="#3DB4F2" stroke-opacity="1" x1="932.5" y1="1886.5" x2="932.5" y2="1708"/>
	<ellipse fill="none" stroke-width="4" stroke-linejoin="round" stroke="#2293CE" stroke-opacity="1" cx="932" cy="1913" rx="28.5" ry="28.4999"/>
	<path fill="#3DB4F2" fill-opacity="1" stroke-width="0.2" stroke-linejoin="round" d="M 939.348,1726.23C 939.348,1726.23 957.899,1716.95 939.348,1709"/>
	<ellipse fill="none" stroke-width="4" stroke-linejoin="round" stroke="#2293CE" stroke-opacity="1" cx="542" cy="1913" rx="28.5" ry="28.5"/>
	<ellipse fill="none" stroke-width="4" stroke-linejoin="round" stroke="#2293CE" stroke-opacity="1" cx="672" cy="1913" rx="28.5" ry="28.5"/>
	<ellipse fill="none" stroke-width="4" stroke-linejoin="round" stroke="#2293CE" stroke-opacity="1" cx="802" cy="1913" rx="28.5" ry="28.5"/>
	<path fill="none" stroke-width="3" stroke-linejoin="round" stroke="#298FC4" stroke-opacity="1" d="M 34.0001,183.002L 65.9999,183.002C 70.4182,183.002 73.9999,186.583 73.9999,191.002L 73.9999,191.002C 73.9999,195.42 70.4182,199.002 65.9999,199.002L 34.0001,199.002C 29.5818,199.002 26.0001,195.42 26.0001,191.002L 26.0001,191.002C 26.0001,186.583 29.5818,183.002 34.0001,183.002 Z "/>
	<path fill="none" stroke-width="3" stroke-linejoin="round" stroke="#3DB4F2" stroke-opacity="1" d="M 33.9999,160.008L 65.9997,160.008C 70.418,160.008 73.9997,163.59 73.9997,168.008L 73.9997,168.008C 73.9997,172.426 70.418,176.008 65.9997,176.008L 33.9999,176.008C 29.5816,176.008 25.9999,172.426 25.9999,168.008L 25.9999,168.008C 25.9999,163.59 29.5816,160.008 33.9999,160.008 Z "/>
	<path fill="none" stroke-width="4" stroke-linejoin="round" stroke="#3DB4F2" stroke-opacity="1" d="M 104,69.0004L 201,69.0004C 202.657,69.0004 204,70.3436 204,72.0005L 204,104C 204,105.657 202.657,107 201,107L 104,107C 102.343,107 101,105.657 101,104L 101,72.0005C 101,70.3436 102.343,69.0004 104,69.0004 Z "/>
	<path fill="#3DB4F2" fill-opacity="1" stroke-width="3" stroke-linejoin="round" stroke="#3DB4F2" stroke-opacity="1" d="M 37.9562,120C 42.3987,120 46,123.505 46,127.83C 46,132.154 42.3987,135.659 37.9562,135.659C 33.5138,135.659 29.9125,132.154 29.9125,127.83C 29.9125,123.505 33.5138,120 37.9562,120 Z "/>
	<path fill="none" stroke-width="4" stroke-linejoin="round" stroke="#3DB4F2" stroke-opacity="1" d="M 220,69.0004L 225,69.0004C 226.657,69.0004 228,70.3436 228,72.0004L 228,104C 228,105.657 226.657,107 225,107L 220,107C 218.343,107 217,105.657 217,104L 217,72.0004C 217,70.3436 218.343,69.0004 220,69.0004 Z "/>
	<path fill="none" stroke-width="4" stroke-linejoin="round" stroke="#3DB4F2" stroke-opacity="1" d="M 237,69L 242,69C 243.657,69 245,70.3433 245,72L 245,104C 245,105.657 243.657,107 242,107L 237,107C 235.343,107 234,105.657 234,104L 234,72C 234,70.3433 235.343,69 237,69 Z "/>
	<path fill="none" stroke-width="4" stroke-linejoin="round" stroke="#3DB4F2" stroke-opacity="1" d="M 254,69L 259,69C 260.657,69 262,70.3433 262,72L 262,104C 262,105.657 260.657,107 259,107L 254,107C 252.343,107 251,105.657 251,104L 251,72C 251,70.3433 252.343,69 254,69 Z "/>
	<line fill="none" stroke-width="4" stroke-linejoin="round" stroke="#3DB4F2" stroke-opacity="1" x1="66" y1="129" x2="66" y2="-10"/>
	<line fill="none" stroke-width="4" stroke-linejoin="round" stroke="#3DB4F2" stroke-opacity="1" x1="1000" y1="1152" x2="1000" y2="1237"/>
	<g>
		<path fill="#4099EC" fill-opacity="1" stroke-width="0.2" stroke-linejoin="round" d="M 824.641,1180.18L 828.401,1180.18L 828.401,1190.43L 824.641,1190.43L 824.641,1180.18 Z M 829.605,1184.75L 833.317,1184.75L 833.317,1190.43L 829.605,1190.43L 829.605,1184.75 Z M 834.521,1184.75L 838.281,1184.75L 838.281,1195L 834.521,1195L 834.521,1184.75 Z "/>
		<path fill="#4099EC" fill-opacity="1" stroke-width="0.2" stroke-linejoin="round" d="M 856.364,1180.09L 861.898,1191.95L 859.691,1195L 841.857,1195L 839.566,1191.9L 844.899,1180.09L 856.364,1180.09 Z M 843.444,1191.73L 858.004,1191.73L 854.225,1183.53L 847.189,1183.53L 843.444,1191.73 Z "/>
		<path fill="#4099EC" fill-opacity="1" stroke-width="0.2" stroke-linejoin="round" d="M 867.597,1192.12L 867.999,1192.09L 874.833,1180.09L 879.129,1180.09L 888.223,1195L 884.011,1195L 877.024,1183.22L 870.237,1195L 866.058,1195L 865.808,1194.99L 865.39,1194.43L 865.006,1193.84L 864.489,1193.01L 864.037,1192.05L 863.603,1191.06L 863.353,1189.91L 863.084,1188.6L 862.984,1187.25L 863.084,1185.91L 863.217,1184.68L 863.486,1183.48L 863.771,1182.58L 864.22,1181.75L 864.656,1181.03L 865.173,1180.43L 865.473,1180.12L 868.565,1180.12L 868.033,1180.6L 867.597,1181.18L 867.163,1181.9L 866.829,1182.61L 866.528,1183.48L 866.259,1184.63L 866.043,1185.91L 865.959,1187.18L 866.043,1188.45L 866.309,1189.8L 866.643,1190.83L 866.996,1191.46L 867.597,1192.12 Z "/>
		<path fill="#4099EC" fill-opacity="1" stroke-width="0.2" stroke-linejoin="round" d="M 896.747,1180.09L 909.098,1191.46L 909.098,1180.09L 912.576,1180.09L 912.576,1195L 907.813,1195L 891.548,1180.09L 896.747,1180.09 Z M 890.195,1187.91L 902.83,1192.12L 901.712,1195L 889.025,1190.87L 890.195,1187.91 Z "/>
		<path fill="#4099EC" fill-opacity="1" stroke-width="0.2" stroke-linejoin="round" d="M 930.743,1180.09L 936.277,1191.95L 934.07,1195L 916.235,1195L 913.945,1191.9L 919.278,1180.09L 930.743,1180.09 Z M 917.823,1191.73L 932.383,1191.73L 928.604,1183.53L 921.568,1183.53L 917.823,1191.73 Z "/>
		<path fill="#4099EC" fill-opacity="1" stroke-width="0.2" stroke-linejoin="round" d="M 952.44,1180.03L 952.44,1195.01L 948.094,1195.01L 937.564,1188.68L 939.518,1185.87L 949.128,1191.59L 949.128,1180.03L 952.44,1180.03 Z "/>
		<path fill="#4099EC" fill-opacity="1" stroke-width="0.2" stroke-linejoin="round" d="M 978.279,1180.08L 978.279,1183.51L 975.788,1183.51L 975.788,1195L 972.414,1195L 972.414,1183.51L 971.943,1183.51L 965.994,1195L 961.664,1195L 953.861,1180.08L 958.055,1180.08L 963.871,1190.75L 969.504,1180.08L 978.279,1180.08 Z "/>
	</g>
	<g>
		<path fill="#4099EC" fill-opacity="1" stroke-width="0.2" stroke-linejoin="round" d="M 913.919,1208.67L 913.919,1212.68L 910.44,1212.71L 905.813,1220.14L 915.037,1220.14L 912.78,1223.58L 899.492,1223.58L 908.435,1208.67L 913.919,1208.67 Z "/>
		<path fill="#4099EC" fill-opacity="1" stroke-width="0.2" stroke-linejoin="round" d="M 916.426,1208.67L 920.203,1208.67L 920.203,1211.6L 930.414,1211.6L 935.629,1208.67L 943.219,1208.67L 930.414,1215.05L 916.426,1215.05L 916.426,1208.67 Z M 916.426,1217.2L 930.832,1217.2L 943.386,1223.58L 936.282,1223.58L 930.132,1220.65L 920.153,1220.65L 920.153,1223.58L 916.426,1223.58L 916.426,1217.2 Z "/>
		<path fill="#4099EC" fill-opacity="1" stroke-width="0.2" stroke-linejoin="round" d="M 953.498,1208.63L 953.498,1223.58L 950.406,1223.58L 950.406,1212.38L 947.113,1215.39L 944.723,1213.18C 944.69,1213.1 944.734,1213.02 944.856,1212.94L 949.468,1208.63L 953.498,1208.63 Z "/>
		<path fill="#4099EC" fill-opacity="1" stroke-width="0.2" stroke-linejoin="round" d="M 959.781,1220.7L 960.184,1220.67L 967.018,1208.67L 971.314,1208.67L 980.408,1223.58L 976.195,1223.58L 969.209,1211.8L 962.422,1223.58L 958.243,1223.58L 957.992,1223.57L 957.575,1223.01L 957.191,1222.42L 956.674,1221.59L 956.222,1220.64L 955.788,1219.64L 955.538,1218.49L 955.269,1217.18L 955.169,1215.84L 955.269,1214.49L 955.402,1213.26L 955.671,1212.06L 955.956,1211.16L 956.405,1210.33L 956.841,1209.61L 957.358,1209.01L 957.658,1208.7L 960.75,1208.7L 960.218,1209.18L 959.781,1209.76L 959.348,1210.48L 959.014,1211.19L 958.713,1212.06L 958.444,1213.21L 958.228,1214.49L 958.144,1215.76L 958.228,1217.03L 958.494,1218.38L 958.828,1219.41L 959.181,1220.04L 959.781,1220.7 Z "/>
	</g>
	<g>
		<path fill="#4099EC" fill-opacity="1" stroke-width="0.2" stroke-linejoin="round" d="M 910.057,1153.09L 922.407,1164.46L 922.407,1153.09L 925.886,1153.09L 925.886,1168L 921.122,1168L 904.857,1153.09L 910.057,1153.09 Z M 903.504,1160.91L 916.139,1165.12L 915.021,1168L 902.334,1163.87L 903.504,1160.91 Z "/>
		<path fill="#4099EC" fill-opacity="1" stroke-width="0.2" stroke-linejoin="round" d="M 952.461,1153.05L 952.461,1156.48L 927.155,1156.48L 927.155,1153.05L 952.461,1153.05 Z M 931.501,1158.78L 948.116,1158.78L 948.116,1162.22L 931.501,1162.22L 931.501,1158.78 Z M 927.155,1164.55L 952.461,1164.55L 952.461,1168L 927.155,1168L 927.155,1164.55 Z "/>
		<path fill="#4099EC" fill-opacity="1" stroke-width="0.2" stroke-linejoin="round" d="M 962.54,1153.05L 962.54,1168L 959.448,1168L 959.448,1156.8L 956.154,1159.81L 953.765,1157.6C 953.732,1157.52 953.776,1157.44 953.898,1157.35L 958.51,1153.05L 962.54,1153.05 Z "/>
		<path fill="#4099EC" fill-opacity="1" stroke-width="0.2" stroke-linejoin="round" d="M 979.672,1153.17L 979.672,1168L 967.369,1168C 965.319,1166.63 964.228,1164.41 964.094,1161.34C 964.362,1158.05 965.688,1155.33 968.071,1153.18L 973.42,1153.18L 973.42,1156.77L 969.709,1156.77L 969.709,1155.97L 969.108,1155.97C 968.262,1156.88 967.839,1158.66 967.839,1161.34C 967.793,1163.33 968.105,1164.41 968.774,1164.59L 975.927,1164.59L 975.927,1153.15L 979.672,1153.17 Z "/>
	</g>
	<path fill="none" stroke-width="6" stroke-linejoin="round" stroke="#3DB4F2" stroke-opacity="1" d="M 729,63.0001C 743.912,63.0001 756,75.0883 756,90.0001C 756,104.912 743.912,117 729,117C 714.088,117 702,104.912 702,90.0001C 702,75.0883 714.088,63.0001 729,63.0001 Z "/>
	<path fill="none" stroke-width="6" stroke-linejoin="round" stroke="#3DB4F2" stroke-opacity="1" d="M 792,63.9999C 806.912,63.9999 819,76.0879 819,90.9999C 819,105.911 806.912,118 792,118C 777.088,118 765,105.911 765,90.9999C 765,76.0879 777.088,63.9999 792,63.9999 Z "/>
	<path fill="none" stroke-width="6" stroke-linejoin="round" stroke="#3DB4F2" stroke-opacity="1" d="M 730,115L 730,75.9487C 730,75.9489 715.4,75.0863 715.4,90.5492C 715.4,106.012 729,106 729,106"/>
	<path fill="none" stroke-width="4" stroke-linejoin="round" stroke="#3DB4F2" stroke-opacity="1" d="M 786.927,66L 797,66C 798.657,66 800,67.3433 800,69.0001L 800,112C 800,113.657 798.657,115 797,115L 786.927,115C 785.27,115 783.927,113.657 783.927,112L 783.927,69.0001C 783.927,67.3433 785.27,66 786.927,66 Z "/>
	<path fill="#3DB4F2" fill-opacity="1" stroke-width="0.2" stroke-linejoin="round" d="M 808.5,84C 813.195,84 817,86.9098 817,90.5C 817,94.0898 813.195,97 808.5,97C 803.806,97 800,94.0898 800,90.5C 800,86.9098 803.805,84 808.5,84 Z "/>
	<path fill="none" stroke-width="4" stroke-linejoin="round" stroke="#3DB4F2" stroke-opacity="1" d="M 1017.5,77.0001C 1023.57,77.0001 1028.5,81.9252 1028.5,88.0001C 1028.5,94.0752 1023.58,99.0001 1017.5,99.0001C 1011.42,99.0001 1006.5,94.0752 1006.5,88.0001C 1006.5,81.9252 1011.42,77.0001 1017.5,77.0001 Z "/>
	<path fill="none" stroke-width="4" stroke-linejoin="round" stroke="#3DB4F2" stroke-opacity="1" d="M 1017.5,149.196C 1019.99,149.196 1022,151.21 1022,153.696C 1022,156.181 1019.99,158.196 1017.5,158.196C 1015.01,158.196 1013,156.181 1013,153.696C 1013,151.21 1015.01,149.196 1017.5,149.196 Z "/>
	<path fill="#50DBED" fill-opacity="1" stroke-width="0.2" stroke-linejoin="round" d="M 1017.49,113.5C 1022.46,113.5 1026.49,117.529 1026.49,122.5C 1026.49,127.471 1022.46,131.5 1017.49,131.5C 1012.52,131.5 1008.49,127.471 1008.49,122.5C 1008.49,117.529 1012.52,113.5 1017.49,113.5 Z "/>
	<path fill="none" stroke-width="4" stroke-linejoin="round" stroke="#54C8EA" stroke-opacity="1" d="M 92,352C 92,352 117,365.033 92,382.017"/>
	<g>
		<path fill="#3ABAEA" fill-opacity="1" stroke-width="0.2" stroke-linejoin="round" d="M 171.955,1651.61L 185.741,1651.61L 185.741,1655.02L 171.955,1655.02C 169.199,1655.02 167.821,1656.15 167.821,1658.41L 167.821,1661.79L 185.741,1661.79L 185.741,1665.2L 167.821,1665.2L 167.821,1668.63C 167.821,1670.92 169.199,1672.07 171.955,1672.07L 185.741,1672.07L 185.741,1675.48L 171.955,1675.48C 167.361,1675.48 165.064,1673.21 165.064,1668.66L 165.064,1658.43C 165.064,1653.88 167.361,1651.61 171.955,1651.61 Z "/>
		<path fill="#3ABAEA" fill-opacity="1" stroke-width="0.2" stroke-linejoin="round" d="M 206.417,1665.25L 206.417,1651.61L 209.174,1651.61L 209.174,1665.26C 209.174,1669.8 205.727,1673.39 198.834,1676C 191.943,1673.39 188.498,1669.8 188.498,1665.26L 188.498,1651.61L 191.255,1651.61L 191.255,1665.25C 191.255,1667.52 193.781,1669.91 198.834,1672.41C 203.889,1669.91 206.417,1667.52 206.417,1665.25 Z "/>
		<path fill="#3ABAEA" fill-opacity="1" stroke-width="0.2" stroke-linejoin="round" d="M 218.822,1651.61L 232.608,1651.61L 232.608,1655.02L 218.822,1655.02C 216.067,1655.02 214.689,1656.15 214.689,1658.41L 214.689,1661.79L 232.608,1661.79L 232.608,1665.2L 214.689,1665.2L 214.689,1668.63C 214.689,1670.92 216.067,1672.07 218.822,1672.07L 232.608,1672.07L 232.608,1675.48L 218.822,1675.48C 214.228,1675.48 211.932,1673.21 211.932,1668.66L 211.932,1658.43C 211.932,1653.88 214.228,1651.61 218.822,1651.61 Z "/>
		<path fill="#3ABAEA" fill-opacity="1" stroke-width="0.2" stroke-linejoin="round" d="M 253.285,1666.95L 253.285,1651.61L 256.042,1651.61L 256.042,1666.96C 256.042,1672.64 254.204,1675.48 250.527,1675.48C 247.772,1675.48 245.773,1672.07 244.532,1665.25C 243.291,1658.43 242.074,1655.02 240.88,1655.02C 239.041,1655.02 238.122,1656.73 238.122,1660.13L 238.122,1675.48L 235.365,1675.48L 235.365,1660.13C 235.365,1654.45 237.203,1651.61 240.88,1651.61C 243.635,1651.61 245.634,1655.02 246.875,1661.84C 248.116,1668.66 249.333,1672.07 250.527,1672.07C 252.365,1672.07 253.285,1670.36 253.285,1666.95 Z "/>
		<path fill="#3ABAEA" fill-opacity="1" stroke-width="0.2" stroke-linejoin="round" d="M 267.053,1655.02L 258.093,1655.02L 258.093,1651.61L 278.77,1651.61L 278.77,1655.02L 269.81,1655.02L 269.81,1675.48L 267.053,1675.48L 267.053,1655.02 Z "/>
		<path fill="#3ABAEA" fill-opacity="1" stroke-width="0.2" stroke-linejoin="round" d="M 286.3,1651.61L 300.086,1651.61L 300.086,1655.02L 286.3,1655.02C 283.544,1655.02 282.166,1656.16 282.166,1658.43C 282.166,1659.91 285.153,1661.13 291.126,1662.1C 297.099,1663.06 300.086,1665.25 300.086,1668.66C 300.086,1673.21 297.789,1675.48 293.195,1675.48L 279.409,1675.48L 279.409,1672.07L 293.195,1672.07C 295.951,1672.07 297.329,1670.93 297.329,1668.66C 297.329,1667.18 294.342,1665.96 288.369,1664.99C 282.396,1664.03 279.409,1661.84 279.409,1658.43C 279.409,1653.88 281.706,1651.61 286.3,1651.61 Z "/>
	</g>
	<g>
		<path fill="#4099EC" fill-opacity="1" stroke-width="0.2" stroke-linejoin="round" d="M 181.095,1638.51L 181.095,1640.75L 179.472,1640.75L 179.472,1648.23L 177.274,1648.23L 177.274,1640.75L 176.968,1640.75L 173.092,1648.23L 170.272,1648.23L 165.188,1638.51L 167.921,1638.51L 171.709,1645.46L 175.379,1638.51L 181.095,1638.51 Z "/>
		<path fill="#4099EC" fill-opacity="1" stroke-width="0.2" stroke-linejoin="round" d="M 185.264,1638.52L 188.073,1641.13L 188.531,1641.13L 191.329,1638.52L 194.781,1638.52L 189.315,1643.55L 189.315,1648.23L 187.279,1648.23L 187.279,1643.55L 181.813,1638.55L 185.264,1638.52 Z "/>
		<path fill="#4099EC" fill-opacity="1" stroke-width="0.2" stroke-linejoin="round" d="M 211.254,1638.51L 211.254,1640.75L 209.631,1640.75L 209.631,1648.23L 207.433,1648.23L 207.433,1640.75L 207.127,1640.75L 203.251,1648.23L 200.431,1648.23L 195.347,1638.51L 198.08,1638.51L 201.868,1645.46L 205.538,1638.51L 211.254,1638.51 Z "/>
		<path fill="#4099EC" fill-opacity="1" stroke-width="0.2" stroke-linejoin="round" d="M 215.042,1646.35L 215.304,1646.33L 219.756,1638.52L 222.555,1638.52L 228.478,1648.23L 225.734,1648.23L 221.184,1640.56L 216.762,1648.23L 214.04,1648.23L 213.877,1648.22L 213.605,1647.86L 213.355,1647.47L 213.018,1646.93L 212.724,1646.31L 212.441,1645.66L 212.278,1644.91L 212.103,1644.06L 212.038,1643.18L 212.103,1642.31L 212.189,1641.51L 212.365,1640.73L 212.55,1640.14L 212.843,1639.6L 213.127,1639.13L 213.464,1638.74L 213.659,1638.54L 215.673,1638.54L 215.326,1638.85L 215.042,1639.23L 214.76,1639.7L 214.542,1640.16L 214.346,1640.73L 214.171,1641.48L 214.03,1642.31L 213.976,1643.13L 214.03,1643.96L 214.204,1644.84L 214.421,1645.51L 214.651,1645.92L 215.042,1646.35 Z "/>
		<path fill="#4099EC" fill-opacity="1" stroke-width="0.2" stroke-linejoin="round" d="M 238.451,1638.52L 238.451,1646.38L 239.148,1646.38L 242.752,1643.02L 245.921,1643.02L 240.215,1648.23L 234.672,1648.23L 228.914,1642.99L 232.104,1642.99L 235.741,1646.35L 236.404,1646.35L 236.404,1638.52L 238.451,1638.52 Z "/>
		<path fill="#4099EC" fill-opacity="1" stroke-width="0.2" stroke-linejoin="round" d="M 251.56,1638.52L 259.605,1645.92L 259.605,1638.52L 261.871,1638.52L 261.871,1648.23L 258.768,1648.23L 248.173,1638.52L 251.56,1638.52 Z M 247.292,1643.61L 255.522,1646.35L 254.794,1648.23L 246.53,1645.54L 247.292,1643.61 Z "/>
	</g>
	<g>
		<path fill="#3ABAEA" fill-opacity="1" stroke-width="0.2" stroke-linejoin="round" d="M 305.974,1721.38L 319.76,1721.38L 319.76,1724.79L 305.974,1724.79C 303.218,1724.79 301.84,1725.93 301.84,1728.2C 301.84,1729.68 304.827,1730.9 310.8,1731.87C 316.773,1732.83 319.76,1735.02 319.76,1738.43C 319.76,1742.98 317.463,1745.25 312.869,1745.25L 299.083,1745.25L 299.083,1741.84L 312.869,1741.84C 315.625,1741.84 317.003,1740.7 317.003,1738.43C 317.003,1736.95 314.016,1735.73 308.043,1734.76C 302.07,1733.8 299.083,1731.61 299.083,1728.2C 299.083,1723.65 301.38,1721.38 305.974,1721.38 Z "/>
		<path fill="#3ABAEA" fill-opacity="1" stroke-width="0.2" stroke-linejoin="round" d="M 322.517,1721.38L 325.274,1721.38L 325.274,1731.56L 340.436,1731.56L 340.436,1721.38L 343.193,1721.38L 343.193,1745.25L 340.436,1745.25L 340.436,1734.97L 325.274,1734.97L 325.274,1745.25L 322.517,1745.25L 322.517,1721.38 Z "/>
		<rect x="345.951" y="1721.38" fill="#3ABAEA" fill-opacity="1" stroke-width="0.2" stroke-linejoin="round" width="2.75717" height="23.8689"/>
		<path fill="#3ABAEA" fill-opacity="1" stroke-width="0.2" stroke-linejoin="round" d="M 365.383,1724.79L 351.597,1724.79L 351.597,1721.38L 365.383,1721.38C 369.977,1721.38 372.274,1723.65 372.274,1728.18C 372.274,1732.71 369.977,1734.97 365.383,1734.97L 354.354,1734.97L 354.354,1745.25L 351.597,1745.25L 351.597,1731.56L 365.383,1731.56C 368.139,1731.56 369.517,1730.43 369.517,1728.18C 369.517,1725.92 368.139,1724.79 365.383,1724.79 Z "/>
		<path fill="#3ABAEA" fill-opacity="1" stroke-width="0.2" stroke-linejoin="round" d="M 383.435,1728.2L 383.435,1745.25L 380.678,1745.25L 380.678,1728.2C 380.678,1723.65 382.975,1721.38 387.568,1721.38C 390.106,1721.38 391.944,1722.07 393.083,1723.46C 394.224,1722.07 396.062,1721.38 398.597,1721.38C 403.194,1721.38 405.492,1723.65 405.492,1728.2L 405.492,1745.25L 402.735,1745.25L 402.735,1728.2C 402.735,1725.93 401.356,1724.79 398.597,1724.79C 395.841,1724.79 394.463,1725.93 394.463,1728.2L 394.463,1745.25L 391.706,1745.25L 391.706,1728.2C 391.706,1725.93 390.327,1724.79 387.568,1724.79C 384.813,1724.79 383.435,1725.93 383.435,1728.2 Z "/>
		<path fill="#3ABAEA" fill-opacity="1" stroke-width="0.2" stroke-linejoin="round" d="M 422.132,1721.38C 426.726,1721.38 429.023,1723.65 429.023,1728.2L 429.023,1745.25L 426.266,1745.25L 426.266,1736.73L 411.103,1736.73L 411.103,1745.25L 408.346,1745.25L 408.346,1728.2C 408.346,1723.65 410.643,1721.38 415.237,1721.38L 422.132,1721.38 Z M 426.266,1728.2C 426.266,1725.93 424.888,1724.79 422.132,1724.79L 415.237,1724.79C 412.481,1724.79 411.103,1725.93 411.103,1728.2L 411.103,1733.32L 426.266,1733.32L 426.266,1728.2 Z "/>
		<path fill="#3ABAEA" fill-opacity="1" stroke-width="0.2" stroke-linejoin="round" d="M 445.566,1724.79L 431.78,1724.79L 431.78,1721.38L 445.566,1721.38C 450.16,1721.38 452.457,1723.65 452.457,1728.18C 452.457,1732.71 450.16,1734.97 445.566,1734.97L 434.537,1734.97L 434.537,1745.25L 431.78,1745.25L 431.78,1731.56L 445.566,1731.56C 448.322,1731.56 449.699,1730.43 449.699,1728.18C 449.699,1725.92 448.322,1724.79 445.566,1724.79 Z "/>
	</g>
	<g>
		<path fill="#4099EC" fill-opacity="1" stroke-width="0.2" stroke-linejoin="round" d="M 304.248,1708.29L 312.293,1715.69L 312.293,1708.29L 314.559,1708.29L 314.559,1718L 311.456,1718L 300.861,1708.29L 304.248,1708.29 Z M 299.98,1713.38L 308.21,1716.12L 307.482,1718L 299.218,1715.31L 299.98,1713.38 Z "/>
		<path fill="#4099EC" fill-opacity="1" stroke-width="0.2" stroke-linejoin="round" d="M 331.871,1708.26L 331.871,1710.5L 315.386,1710.5L 315.386,1708.26L 331.871,1708.26 Z M 318.217,1712L 329.04,1712L 329.04,1714.23L 318.217,1714.23L 318.217,1712 Z M 315.386,1715.75L 331.871,1715.75L 331.871,1718L 315.386,1718L 315.386,1715.75 Z "/>
		<path fill="#4099EC" fill-opacity="1" stroke-width="0.2" stroke-linejoin="round" d="M 338.436,1708.26L 338.436,1718L 336.421,1718L 336.421,1710.71L 334.276,1712.66L 332.72,1711.23C 332.698,1711.17 332.727,1711.12 332.806,1711.07L 335.811,1708.26L 338.436,1708.26 Z "/>
		<path fill="#4099EC" fill-opacity="1" stroke-width="0.2" stroke-linejoin="round" d="M 349.596,1708.34L 349.596,1718L 341.581,1718C 340.246,1717.11 339.535,1715.66 339.448,1713.66C 339.623,1711.52 340.486,1709.75 342.039,1708.35L 345.523,1708.35L 345.523,1710.69L 343.105,1710.69L 343.105,1710.17L 342.714,1710.17C 342.163,1710.75 341.887,1711.92 341.887,1713.66C 341.858,1714.96 342.061,1715.66 342.496,1715.78L 347.156,1715.78L 347.156,1708.33L 349.596,1708.34 Z "/>
		<path fill="#4099EC" fill-opacity="1" stroke-width="0.2" stroke-linejoin="round" d="M 365.459,1708.29L 365.459,1710.9L 363.193,1710.92L 360.179,1715.76L 366.187,1715.76L 364.718,1718L 356.062,1718L 361.887,1708.29L 365.459,1708.29 Z "/>
		<path fill="#4099EC" fill-opacity="1" stroke-width="0.2" stroke-linejoin="round" d="M 367.092,1708.29L 369.552,1708.29L 369.552,1710.2L 376.204,1710.2L 379.601,1708.29L 384.545,1708.29L 376.204,1712.45L 367.092,1712.45L 367.092,1708.29 Z M 367.092,1713.84L 376.476,1713.84L 384.654,1718L 380.027,1718L 376.02,1716.09L 369.52,1716.09L 369.52,1718L 367.092,1718L 367.092,1713.84 Z "/>
		<path fill="#4099EC" fill-opacity="1" stroke-width="0.2" stroke-linejoin="round" d="M 395.542,1708.34L 395.542,1718L 387.527,1718C 386.192,1717.11 385.481,1715.66 385.394,1713.66C 385.569,1711.52 386.432,1709.75 387.985,1708.35L 391.469,1708.35L 391.469,1710.69L 389.052,1710.69L 389.052,1710.17L 388.66,1710.17C 388.109,1710.75 387.834,1711.92 387.834,1713.66C 387.804,1714.96 388.007,1715.66 388.443,1715.78L 393.102,1715.78L 393.102,1708.33L 395.542,1708.34 Z "/>
	</g>
	<g>
		<path fill="#3ABAEA" fill-opacity="1" stroke-width="0.2" stroke-linejoin="round" d="M 438.271,1795.38L 452.057,1795.38L 452.057,1798.79L 438.271,1798.79C 435.516,1798.79 434.138,1799.93 434.138,1802.2L 434.138,1812.43C 434.138,1814.7 435.516,1815.84 438.271,1815.84L 449.3,1815.84L 449.3,1808.97L 441.029,1808.97L 441.029,1805.56L 452.057,1805.56L 452.057,1819.25L 438.271,1819.25C 433.678,1819.25 431.381,1816.98 431.381,1812.43L 431.381,1802.2C 431.381,1797.65 433.678,1795.38 438.271,1795.38 Z "/>
		<path fill="#3ABAEA" fill-opacity="1" stroke-width="0.2" stroke-linejoin="round" d="M 468.6,1795.38C 473.194,1795.38 475.491,1797.65 475.491,1802.2L 475.491,1819.25L 472.734,1819.25L 472.734,1810.73L 457.572,1810.73L 457.572,1819.25L 454.814,1819.25L 454.814,1802.2C 454.814,1797.65 457.111,1795.38 461.705,1795.38L 468.6,1795.38 Z M 472.734,1802.2C 472.734,1799.93 471.356,1798.79 468.6,1798.79L 461.705,1798.79C 458.949,1798.79 457.572,1799.93 457.572,1802.2L 457.572,1807.32L 472.734,1807.32L 472.734,1802.2 Z "/>
		<path fill="#3ABAEA" fill-opacity="1" stroke-width="0.2" stroke-linejoin="round" d="M 485.139,1815.84L 498.925,1815.84L 498.925,1819.25L 485.139,1819.25C 480.545,1819.25 478.248,1816.98 478.248,1812.43L 478.248,1795.38L 481.005,1795.38L 481.005,1812.43C 481.005,1814.7 482.383,1815.84 485.139,1815.84 Z "/>
		<path fill="#3ABAEA" fill-opacity="1" stroke-width="0.2" stroke-linejoin="round" d="M 514.762,1795.38C 519.356,1795.38 521.653,1797.65 521.653,1802.2L 521.653,1819.25L 518.895,1819.25L 518.895,1810.73L 503.733,1810.73L 503.733,1819.25L 500.976,1819.25L 500.976,1802.2C 500.976,1797.65 503.273,1795.38 507.867,1795.38L 514.762,1795.38 Z M 518.895,1802.2C 518.895,1799.93 517.518,1798.79 514.762,1798.79L 507.867,1798.79C 505.111,1798.79 503.733,1799.93 503.733,1802.2L 503.733,1807.32L 518.895,1807.32L 518.895,1802.2 Z "/>
		<path fill="#3ABAEA" fill-opacity="1" stroke-width="0.2" stroke-linejoin="round" d="M 542.329,1802.17L 542.329,1795.38L 545.086,1795.38L 545.086,1802.18C 545.086,1806.71 542.789,1808.97 538.195,1808.97L 538.085,1808.97L 546.467,1819.25L 542.576,1819.25L 534.194,1808.97L 531.3,1808.97C 528.545,1808.97 527.167,1810.11 527.167,1812.4L 527.167,1819.25L 524.41,1819.25L 524.41,1812.4C 524.41,1807.84 526.707,1805.56 531.3,1805.56L 531.411,1805.56L 523.029,1795.38L 526.915,1795.38L 535.297,1805.56L 538.195,1805.56C 540.951,1805.56 542.329,1804.43 542.329,1802.17 Z "/>
		<path fill="#3ABAEA" fill-opacity="1" stroke-width="0.2" stroke-linejoin="round" d="M 565.763,1803.9L 565.763,1795.38L 568.52,1795.38L 568.52,1803.9C 568.52,1808.45 566.223,1810.73 561.629,1810.73L 559.56,1810.73L 559.56,1819.25L 556.803,1819.25L 556.803,1810.73L 554.734,1810.73C 550.14,1810.73 547.843,1808.45 547.843,1803.9L 547.843,1795.38L 550.601,1795.38L 550.601,1803.9C 550.601,1806.18 551.978,1807.32 554.734,1807.32L 561.629,1807.32C 564.385,1807.32 565.763,1806.18 565.763,1803.9 Z "/>
		<path fill="#3ABAEA" fill-opacity="1" stroke-width="0.2" stroke-linejoin="round" d="M 579.681,1802.2L 579.681,1819.25L 576.924,1819.25L 576.924,1802.2C 576.924,1797.65 579.221,1795.38 583.814,1795.38C 586.353,1795.38 588.191,1796.07 589.329,1797.46C 590.47,1796.07 592.308,1795.38 594.843,1795.38C 599.44,1795.38 601.738,1797.65 601.738,1802.2L 601.738,1819.25L 598.981,1819.25L 598.981,1802.2C 598.981,1799.93 597.602,1798.79 594.843,1798.79C 592.087,1798.79 590.71,1799.93 590.71,1802.2L 590.71,1819.25L 587.952,1819.25L 587.952,1802.2C 587.952,1799.93 586.573,1798.79 583.814,1798.79C 581.059,1798.79 579.681,1799.93 579.681,1802.2 Z "/>
		<path fill="#3ABAEA" fill-opacity="1" stroke-width="0.2" stroke-linejoin="round" d="M 618.378,1795.38C 622.972,1795.38 625.269,1797.65 625.269,1802.2L 625.269,1819.25L 622.512,1819.25L 622.512,1810.73L 607.35,1810.73L 607.35,1819.25L 604.592,1819.25L 604.592,1802.2C 604.592,1797.65 606.889,1795.38 611.483,1795.38L 618.378,1795.38 Z M 622.512,1802.2C 622.512,1799.93 621.134,1798.79 618.378,1798.79L 611.483,1798.79C 608.727,1798.79 607.35,1799.93 607.35,1802.2L 607.35,1807.32L 622.512,1807.32L 622.512,1802.2 Z "/>
		<path fill="#3ABAEA" fill-opacity="1" stroke-width="0.2" stroke-linejoin="round" d="M 641.812,1798.79L 628.026,1798.79L 628.026,1795.38L 641.812,1795.38C 646.406,1795.38 648.703,1797.65 648.703,1802.18C 648.703,1806.71 646.406,1808.97 641.812,1808.97L 630.783,1808.97L 630.783,1819.25L 628.026,1819.25L 628.026,1805.56L 641.812,1805.56C 644.568,1805.56 645.945,1804.43 645.945,1802.18C 645.945,1799.92 644.568,1798.79 641.812,1798.79 Z "/>
	</g>
	<g>
		<path fill="#4099EC" fill-opacity="1" stroke-width="0.2" stroke-linejoin="round" d="M 447.02,1782.26L 446.986,1782.43L 441.292,1792L 432.015,1792L 432.015,1782.26L 434.009,1782.26L 434.009,1789.75L 440.117,1789.75L 443.165,1784.34L 443.165,1784.28L 438.07,1784.28L 438.07,1784.87L 436.044,1784.87L 436.044,1782.26L 447.02,1782.26 Z "/>
		<path fill="#4099EC" fill-opacity="1" stroke-width="0.2" stroke-linejoin="round" d="M 448.109,1782.29L 450.569,1782.29L 450.569,1784.2L 457.221,1784.2L 460.618,1782.29L 465.562,1782.29L 457.221,1786.45L 448.109,1786.45L 448.109,1782.29 Z M 448.109,1787.84L 457.493,1787.84L 465.67,1792L 461.043,1792L 457.037,1790.09L 450.536,1790.09L 450.536,1792L 448.109,1792L 448.109,1787.84 Z "/>
		<path fill="#4099EC" fill-opacity="1" stroke-width="0.2" stroke-linejoin="round" d="M 476.308,1782.25L 476.308,1792.01L 473.477,1792.01L 466.618,1787.88L 467.89,1786.06L 474.151,1789.78L 474.151,1782.25L 476.308,1782.25 Z "/>
		<path fill="#4099EC" fill-opacity="1" stroke-width="0.2" stroke-linejoin="round" d="M 477.506,1782.29L 479.966,1782.29L 479.966,1784.2L 486.617,1784.2L 490.015,1782.29L 494.958,1782.29L 486.617,1786.45L 477.506,1786.45L 477.506,1782.29 Z M 477.506,1787.84L 486.89,1787.84L 495.067,1792L 490.44,1792L 486.434,1790.09L 479.933,1790.09L 479.933,1792L 477.506,1792L 477.506,1787.84 Z "/>
		<path fill="#4099EC" fill-opacity="1" stroke-width="0.2" stroke-linejoin="round" d="M 508.197,1791.01L 505.911,1792L 498.029,1792L 495.753,1791.01L 501.023,1782.31L 503.342,1782.31L 508.197,1791.01 Z M 505.215,1790.08L 502.187,1784.45L 498.856,1790.08L 505.215,1790.08 Z "/>
		<path fill="#4099EC" fill-opacity="1" stroke-width="0.2" stroke-linejoin="round" d="M 523.821,1782.27L 517.964,1792L 514.306,1792L 508.927,1783.11L 508.927,1782.65L 509.221,1782.34L 509.58,1782.27L 514.49,1782.27L 516.962,1786.31L 514.415,1786.31L 512.824,1783.37L 511.627,1783.37L 515.895,1790.44L 516.44,1790.44L 521.426,1782.27L 523.821,1782.27 Z "/>
		<path fill="#4099EC" fill-opacity="1" stroke-width="0.2" stroke-linejoin="round" d="M 539.457,1782.29L 539.457,1784.9L 537.191,1784.92L 534.176,1789.76L 540.185,1789.76L 538.715,1792L 530.059,1792L 535.884,1782.29L 539.457,1782.29 Z "/>
		<path fill="#4099EC" fill-opacity="1" stroke-width="0.2" stroke-linejoin="round" d="M 541.09,1782.29L 543.55,1782.29L 543.55,1784.2L 550.202,1784.2L 553.599,1782.29L 558.543,1782.29L 550.202,1786.45L 541.09,1786.45L 541.09,1782.29 Z M 541.09,1787.84L 550.474,1787.84L 558.652,1792L 554.024,1792L 550.018,1790.09L 543.518,1790.09L 543.518,1792L 541.09,1792L 541.09,1787.84 Z "/>
		<path fill="#4099EC" fill-opacity="1" stroke-width="0.2" stroke-linejoin="round" d="M 569.539,1782.34L 569.539,1792L 561.525,1792C 560.19,1791.11 559.479,1789.66 559.392,1787.66C 559.566,1785.52 560.43,1783.75 561.982,1782.35L 565.467,1782.35L 565.467,1784.69L 563.049,1784.69L 563.049,1784.17L 562.658,1784.17C 562.107,1784.75 561.831,1785.92 561.831,1787.66C 561.802,1788.96 562.005,1789.66 562.44,1789.78L 567.1,1789.78L 567.1,1782.33L 569.539,1782.34 Z "/>
	</g>
	<g>
		<path fill="#3ABAEA" fill-opacity="1" stroke-width="0.2" stroke-linejoin="round" d="M 556.167,1731.54L 542.381,1731.54L 542.381,1728.13L 556.167,1728.13C 560.76,1728.13 563.057,1730.4 563.057,1734.93C 563.057,1739.46 560.76,1741.72 556.167,1741.72L 555.351,1741.72L 563.622,1752L 559.735,1752L 551.464,1741.72L 545.138,1741.72L 545.138,1752L 542.381,1752L 542.381,1738.31L 556.167,1738.31C 558.922,1738.31 560.3,1737.18 560.3,1734.93C 560.3,1732.67 558.922,1731.54 556.167,1731.54 Z "/>
		<path fill="#3ABAEA" fill-opacity="1" stroke-width="0.2" stroke-linejoin="round" d="M 571.999,1728.13L 585.785,1728.13L 585.785,1731.54L 571.999,1731.54C 569.244,1731.54 567.866,1732.67 567.866,1734.93L 567.866,1738.31L 585.785,1738.31L 585.785,1741.72L 567.866,1741.72L 567.866,1745.16C 567.866,1747.44 569.244,1748.59 571.999,1748.59L 585.785,1748.59L 585.785,1752L 571.999,1752C 567.406,1752 565.109,1749.73 565.109,1745.18L 565.109,1734.95C 565.109,1730.4 567.406,1728.13 571.999,1728.13 Z "/>
		<path fill="#3ABAEA" fill-opacity="1" stroke-width="0.2" stroke-linejoin="round" d="M 594.727,1728.13L 608.513,1728.13L 608.513,1731.54L 594.727,1731.54C 591.971,1731.54 590.594,1732.68 590.594,1734.95C 590.594,1736.43 593.58,1737.65 599.553,1738.62C 605.526,1739.58 608.513,1741.77 608.513,1745.18C 608.513,1749.73 606.216,1752 601.622,1752L 587.836,1752L 587.836,1748.59L 601.622,1748.59C 604.378,1748.59 605.756,1747.45 605.756,1745.18C 605.756,1743.7 602.769,1742.48 596.796,1741.51C 590.823,1740.55 587.836,1738.36 587.836,1734.95C 587.836,1730.4 590.133,1728.13 594.727,1728.13 Z "/>
		<path fill="#3ABAEA" fill-opacity="1" stroke-width="0.2" stroke-linejoin="round" d="M 620.23,1731.54L 611.27,1731.54L 611.27,1728.13L 631.947,1728.13L 631.947,1731.54L 622.987,1731.54L 622.987,1752L 620.23,1752L 620.23,1731.54 Z "/>
		<path fill="#3ABAEA" fill-opacity="1" stroke-width="0.2" stroke-linejoin="round" d="M 648.49,1731.54L 634.704,1731.54L 634.704,1728.13L 648.49,1728.13C 653.083,1728.13 655.38,1730.4 655.38,1734.93C 655.38,1739.46 653.083,1741.72 648.49,1741.72L 647.674,1741.72L 655.945,1752L 652.059,1752L 643.787,1741.72L 637.461,1741.72L 637.461,1752L 634.704,1752L 634.704,1738.31L 648.49,1738.31C 651.245,1738.31 652.623,1737.18 652.623,1734.93C 652.623,1732.67 651.245,1731.54 648.49,1731.54 Z "/>
		<rect x="658.138" y="1728.13" fill="#3ABAEA" fill-opacity="1" stroke-width="0.2" stroke-linejoin="round" width="2.75714" height="23.8689"/>
		<path fill="#3ABAEA" fill-opacity="1" stroke-width="0.2" stroke-linejoin="round" d="M 670.675,1728.13L 684.461,1728.13L 684.461,1731.54L 670.675,1731.54C 667.919,1731.54 666.541,1732.68 666.541,1734.95L 666.541,1745.18C 666.541,1747.45 667.919,1748.59 670.675,1748.59L 684.461,1748.59L 684.461,1752L 670.675,1752C 666.081,1752 663.784,1749.73 663.784,1745.18L 663.784,1734.95C 663.784,1730.4 666.081,1728.13 670.675,1728.13 Z "/>
		<path fill="#3ABAEA" fill-opacity="1" stroke-width="0.2" stroke-linejoin="round" d="M 696.178,1731.54L 687.218,1731.54L 687.218,1728.13L 707.895,1728.13L 707.895,1731.54L 698.935,1731.54L 698.935,1752L 696.178,1752L 696.178,1731.54 Z "/>
		<path fill="#3ABAEA" fill-opacity="1" stroke-width="0.2" stroke-linejoin="round" d="M 715.425,1728.13L 729.211,1728.13L 729.211,1731.54L 715.425,1731.54C 712.669,1731.54 711.291,1732.67 711.291,1734.93L 711.291,1738.31L 729.211,1738.31L 729.211,1741.72L 711.291,1741.72L 711.291,1745.16C 711.291,1747.44 712.669,1748.59 715.425,1748.59L 729.211,1748.59L 729.211,1752L 715.425,1752C 710.831,1752 708.534,1749.73 708.534,1745.18L 708.534,1734.95C 708.534,1730.4 710.831,1728.13 715.425,1728.13 Z "/>
		<path fill="#3ABAEA" fill-opacity="1" stroke-width="0.2" stroke-linejoin="round" d="M 745.754,1752L 731.968,1752L 731.968,1748.59L 745.754,1748.59C 748.509,1748.59 749.887,1747.45 749.887,1745.18L 749.887,1734.95C 749.887,1732.68 748.509,1731.54 745.754,1731.54L 731.968,1731.54L 731.968,1728.13L 745.754,1728.13C 750.347,1728.13 752.644,1730.4 752.644,1734.95L 752.644,1745.18C 752.644,1749.73 750.347,1752 745.754,1752 Z "/>
		<path fill="#3ABAEA" fill-opacity="1" stroke-width="0.2" stroke-linejoin="round" d="M 767.939,1728.13L 781.725,1728.13L 781.725,1731.54L 767.939,1731.54C 765.183,1731.54 763.805,1732.68 763.805,1734.95C 763.805,1736.43 766.792,1737.65 772.765,1738.62C 778.738,1739.58 781.725,1741.77 781.725,1745.18C 781.725,1749.73 779.428,1752 774.834,1752L 761.048,1752L 761.048,1748.59L 774.834,1748.59C 777.59,1748.59 778.968,1747.45 778.968,1745.18C 778.968,1743.7 775.981,1742.48 770.008,1741.51C 764.035,1740.55 761.048,1738.36 761.048,1734.95C 761.048,1730.4 763.345,1728.13 767.939,1728.13 Z "/>
		<path fill="#3ABAEA" fill-opacity="1" stroke-width="0.2" stroke-linejoin="round" d="M 801.695,1736.65L 801.695,1728.13L 804.453,1728.13L 804.453,1736.65C 804.453,1741.2 802.156,1743.48 797.562,1743.48L 795.493,1743.48L 795.493,1752L 792.736,1752L 792.736,1743.48L 790.667,1743.48C 786.073,1743.48 783.776,1741.2 783.776,1736.65L 783.776,1728.13L 786.533,1728.13L 786.533,1736.65C 786.533,1738.93 787.911,1740.07 790.667,1740.07L 797.562,1740.07C 800.318,1740.07 801.695,1738.93 801.695,1736.65 Z "/>
		<path fill="#3ABAEA" fill-opacity="1" stroke-width="0.2" stroke-linejoin="round" d="M 813.395,1728.13L 827.18,1728.13L 827.18,1731.54L 813.395,1731.54C 810.639,1731.54 809.261,1732.68 809.261,1734.95C 809.261,1736.43 812.248,1737.65 818.221,1738.62C 824.194,1739.58 827.18,1741.77 827.18,1745.18C 827.18,1749.73 824.884,1752 820.29,1752L 806.504,1752L 806.504,1748.59L 820.29,1748.59C 823.045,1748.59 824.423,1747.45 824.423,1745.18C 824.423,1743.7 821.437,1742.48 815.464,1741.51C 809.49,1740.55 806.504,1738.36 806.504,1734.95C 806.504,1730.4 808.801,1728.13 813.395,1728.13 Z "/>
		<path fill="#3ABAEA" fill-opacity="1" stroke-width="0.2" stroke-linejoin="round" d="M 838.897,1731.54L 829.938,1731.54L 829.938,1728.13L 850.614,1728.13L 850.614,1731.54L 841.654,1731.54L 841.654,1752L 838.897,1752L 838.897,1731.54 Z "/>
		<path fill="#3ABAEA" fill-opacity="1" stroke-width="0.2" stroke-linejoin="round" d="M 858.145,1728.13L 871.93,1728.13L 871.93,1731.54L 858.145,1731.54C 855.389,1731.54 854.011,1732.67 854.011,1734.93L 854.011,1738.31L 871.93,1738.31L 871.93,1741.72L 854.011,1741.72L 854.011,1745.16C 854.011,1747.44 855.389,1748.59 858.145,1748.59L 871.93,1748.59L 871.93,1752L 858.145,1752C 853.551,1752 851.254,1749.73 851.254,1745.18L 851.254,1734.95C 851.254,1730.4 853.551,1728.13 858.145,1728.13 Z "/>
		<path fill="#3ABAEA" fill-opacity="1" stroke-width="0.2" stroke-linejoin="round" d="M 877.445,1734.95L 877.445,1752L 874.688,1752L 874.688,1734.95C 874.688,1730.4 876.984,1728.13 881.578,1728.13C 884.116,1728.13 885.954,1728.82 887.093,1730.21C 888.234,1728.82 890.072,1728.13 892.607,1728.13C 897.204,1728.13 899.502,1730.4 899.502,1734.95L 899.502,1752L 896.745,1752L 896.745,1734.95C 896.745,1732.68 895.366,1731.54 892.607,1731.54C 889.851,1731.54 888.473,1732.68 888.473,1734.95L 888.473,1752L 885.716,1752L 885.716,1734.95C 885.716,1732.68 884.337,1731.54 881.578,1731.54C 878.823,1731.54 877.445,1732.68 877.445,1734.95 Z "/>
		<path fill="#3ABAEA" fill-opacity="1" stroke-width="0.2" stroke-linejoin="round" d="M 909.247,1728.13L 923.033,1728.13L 923.033,1731.54L 909.247,1731.54C 906.491,1731.54 905.113,1732.68 905.113,1734.95C 905.113,1736.43 908.1,1737.65 914.073,1738.62C 920.046,1739.58 923.033,1741.77 923.033,1745.18C 923.033,1749.73 920.736,1752 916.142,1752L 902.356,1752L 902.356,1748.59L 916.142,1748.59C 918.898,1748.59 920.276,1747.45 920.276,1745.18C 920.276,1743.7 917.289,1742.48 911.316,1741.51C 905.343,1740.55 902.356,1738.36 902.356,1734.95C 902.356,1730.4 904.653,1728.13 909.247,1728.13 Z "/>
	</g>
	<g>
		<path fill="#4099EC" fill-opacity="1" stroke-width="0.2" stroke-linejoin="round" d="M 679.882,1713.29L 670.998,1723L 667.916,1723L 674.448,1715.81L 674.448,1715.64L 666.609,1715.64L 668.526,1713.29L 679.882,1713.29 Z "/>
		<path fill="#4099EC" fill-opacity="1" stroke-width="0.2" stroke-linejoin="round" d="M 696.268,1713.28L 696.268,1715.52L 694.645,1715.52L 694.645,1723L 692.447,1723L 692.447,1715.52L 692.141,1715.52L 688.265,1723L 685.445,1723L 680.362,1713.28L 683.094,1713.28L 686.882,1720.23L 690.552,1713.28L 696.268,1713.28 Z "/>
		<path fill="#4099EC" fill-opacity="1" stroke-width="0.2" stroke-linejoin="round" d="M 701.843,1713.29L 709.888,1720.69L 709.888,1713.29L 712.154,1713.29L 712.154,1723L 709.051,1723L 698.456,1713.29L 701.843,1713.29 Z M 697.574,1718.38L 705.805,1721.12L 705.077,1723L 696.812,1720.31L 697.574,1718.38 Z "/>
		<path fill="#4099EC" fill-opacity="1" stroke-width="0.2" stroke-linejoin="round" d="M 722.376,1713.29L 722.376,1721.15L 723.074,1721.15L 726.677,1717.8L 729.846,1717.8L 724.14,1723L 718.598,1723L 712.839,1717.76L 716.029,1717.76L 719.666,1721.12L 720.33,1721.12L 720.33,1713.29L 722.376,1713.29 Z "/>
		<path fill="#4099EC" fill-opacity="1" stroke-width="0.2" stroke-linejoin="round" d="M 744.119,1713.29L 735.236,1723L 732.153,1723L 738.686,1715.81L 738.686,1715.64L 730.847,1715.64L 732.764,1713.29L 744.119,1713.29 Z "/>
		<path fill="#4099EC" fill-opacity="1" stroke-width="0.2" stroke-linejoin="round" d="M 750.62,1713.26L 750.62,1723L 748.605,1723L 748.605,1715.71L 746.46,1717.66L 744.904,1716.23C 744.882,1716.17 744.911,1716.12 744.99,1716.07L 747.995,1713.26L 750.62,1713.26 Z "/>
		<path fill="#4099EC" fill-opacity="1" stroke-width="0.2" stroke-linejoin="round" d="M 751.664,1713.35L 754.114,1713.35L 754.114,1720.02L 751.664,1720.02L 751.664,1713.35 Z M 754.898,1716.33L 757.316,1716.33L 757.316,1720.02L 754.898,1720.02L 754.898,1716.33 Z M 758.1,1716.33L 760.55,1716.33L 760.55,1723L 758.1,1723L 758.1,1716.33 Z "/>
		<path fill="#4099EC" fill-opacity="1" stroke-width="0.2" stroke-linejoin="round" d="M 770.718,1713.29L 770.718,1721.15L 771.415,1721.15L 775.018,1717.8L 778.188,1717.8L 772.482,1723L 766.939,1723L 761.181,1717.76L 764.371,1717.76L 768.008,1721.12L 768.671,1721.12L 768.671,1713.29L 770.718,1713.29 Z "/>
		<path fill="#4099EC" fill-opacity="1" stroke-width="0.2" stroke-linejoin="round" d="M 794.693,1713.28L 794.693,1715.52L 793.07,1715.52L 793.07,1723L 790.872,1723L 790.872,1715.52L 790.566,1715.52L 786.69,1723L 783.87,1723L 778.787,1713.28L 781.519,1713.28L 785.307,1720.23L 788.977,1713.28L 794.693,1713.28 Z "/>
		<path fill="#4099EC" fill-opacity="1" stroke-width="0.2" stroke-linejoin="round" d="M 808.095,1713.36L 808.063,1713.53L 799.31,1723L 796.13,1723L 799.701,1719.3L 795.826,1719.3L 797.479,1717.08L 801.802,1717.08L 803.218,1715.58L 795.259,1715.57L 796.816,1713.36L 808.095,1713.36 Z "/>
		<path fill="#4099EC" fill-opacity="1" stroke-width="0.2" stroke-linejoin="round" d="M 819.321,1713.29L 827.366,1720.69L 827.366,1713.29L 829.632,1713.29L 829.632,1723L 826.529,1723L 815.934,1713.29L 819.321,1713.29 Z M 815.053,1718.38L 823.283,1721.12L 822.555,1723L 814.291,1720.31L 815.053,1718.38 Z "/>
		<path fill="#4099EC" fill-opacity="1" stroke-width="0.2" stroke-linejoin="round" d="M 845.407,1713.27L 839.55,1723L 835.893,1723L 830.513,1714.11L 830.513,1713.65L 830.808,1713.34L 831.167,1713.27L 836.076,1713.27L 838.548,1717.31L 836.001,1717.31L 834.411,1714.37L 833.213,1714.37L 837.482,1721.44L 838.026,1721.44L 843.012,1713.27L 845.407,1713.27 Z "/>
		<path fill="#4099EC" fill-opacity="1" stroke-width="0.2" stroke-linejoin="round" d="M 851.004,1713.29L 859.049,1720.69L 859.049,1713.29L 861.315,1713.29L 861.315,1723L 858.212,1723L 847.617,1713.29L 851.004,1713.29 Z M 846.736,1718.38L 854.966,1721.12L 854.238,1723L 845.974,1720.31L 846.736,1718.38 Z "/>
		<path fill="#4099EC" fill-opacity="1" stroke-width="0.2" stroke-linejoin="round" d="M 871.538,1713.29L 871.538,1721.15L 872.235,1721.15L 875.839,1717.8L 879.008,1717.8L 873.302,1723L 867.76,1723L 862.001,1717.76L 865.191,1717.76L 868.828,1721.12L 869.491,1721.12L 869.491,1713.29L 871.538,1713.29 Z "/>
		<path fill="#4099EC" fill-opacity="1" stroke-width="0.2" stroke-linejoin="round" d="M 895.513,1713.28L 895.513,1715.52L 893.89,1715.52L 893.89,1723L 891.692,1723L 891.692,1715.52L 891.386,1715.52L 887.511,1723L 884.69,1723L 879.607,1713.28L 882.339,1713.28L 886.128,1720.23L 889.797,1713.28L 895.513,1713.28 Z "/>
		<path fill="#4099EC" fill-opacity="1" stroke-width="0.2" stroke-linejoin="round" d="M 905.574,1713.29L 905.574,1715.9L 903.308,1715.92L 900.293,1720.76L 906.302,1720.76L 904.832,1723L 896.177,1723L 902.001,1713.29L 905.574,1713.29 Z "/>
		<path fill="#4099EC" fill-opacity="1" stroke-width="0.2" stroke-linejoin="round" d="M 911.976,1713.29L 920.021,1720.69L 920.021,1713.29L 922.287,1713.29L 922.287,1723L 919.184,1723L 908.588,1713.29L 911.976,1713.29 Z M 907.707,1718.38L 915.938,1721.12L 915.21,1723L 906.945,1720.31L 907.707,1718.38 Z "/>
	</g>
	<g>
		<path fill="#4099EC" fill-opacity="1" stroke-width="0.2" stroke-linejoin="round" d="M 907.705,20.5448L 907.705,23.1772L 888.32,23.1772L 888.32,20.5448L 907.705,20.5448 Z M 891.649,24.9396L 904.376,24.9396L 904.376,27.5703L 891.649,27.5703L 891.649,24.9396 Z M 888.32,29.3564L 907.705,29.3564L 907.705,32L 888.32,32L 888.32,29.3564 Z "/>
		<path fill="#4099EC" fill-opacity="1" stroke-width="0.2" stroke-linejoin="round" d="M 908.665,20.5796L 911.558,20.5796L 911.558,22.8248L 919.38,22.8248L 923.375,20.5796L 929.189,20.5796L 919.38,25.4683L 908.665,25.4683L 908.665,20.5796 Z M 908.665,27.1132L 919.7,27.1132L 929.317,32L 923.875,32L 919.164,29.7567L 911.52,29.7567L 911.52,32L 908.665,32L 908.665,27.1132 Z "/>
		<path fill="#4099EC" fill-opacity="1" stroke-width="0.2" stroke-linejoin="round" d="M 941.826,20.5337L 941.826,32.0111L 938.497,32.0111L 930.431,27.1591L 931.927,25.0094L 939.289,29.3915L 939.289,20.5337L 941.826,20.5337 Z "/>
		<path fill="#4099EC" fill-opacity="1" stroke-width="0.2" stroke-linejoin="round" d="M 943.156,20.6512L 946.037,20.6512L 946.037,28.4991L 943.156,28.4991L 943.156,20.6512 Z M 946.959,24.152L 949.802,24.152L 949.802,28.4991L 946.959,28.4991L 946.959,24.152 Z M 950.724,24.152L 953.605,24.152L 953.605,32L 950.724,32L 950.724,24.152 Z "/>
		<path fill="#4099EC" fill-opacity="1" stroke-width="0.2" stroke-linejoin="round" d="M 972.092,20.5558L 965.204,32L 960.903,32L 954.577,21.5435L 954.577,21.0038L 954.923,20.6383L 955.345,20.5558L 961.119,20.5558L 964.026,25.3031L 961.031,25.3031L 959.16,21.8481L 957.752,21.8481L 962.771,30.168L 963.412,30.168L 969.275,20.5558L 972.092,20.5558 Z "/>
		<path fill="#4099EC" fill-opacity="1" stroke-width="0.2" stroke-linejoin="round" d="M 985.765,20.5796L 990.004,29.6613L 988.314,32L 974.652,32L 972.898,29.6263L 976.983,20.5796L 985.765,20.5796 Z M 975.869,29.4979L 987.022,29.4979L 984.127,23.212L 978.737,23.212L 975.869,29.4979 Z "/>
		<path fill="#4099EC" fill-opacity="1" stroke-width="0.2" stroke-linejoin="round" d="M 994.369,29.7915L 994.678,29.7677L 999.913,20.5796L 1003.2,20.5796L 1010.17,32L 1006.94,32L 1001.59,22.9772L 996.392,32L 993.191,32L 992.999,31.9889L 992.679,31.5649L 992.385,31.1078L 991.989,30.4727L 991.643,29.7438L 991.311,28.9801L 991.119,28.099L 990.913,27.1002L 990.837,26.0668L 990.913,25.0332L 991.015,24.0933L 991.221,23.1772L 991.439,22.4834L 991.783,21.8481L 992.117,21.2975L 992.513,20.8385L 992.743,20.6035L 995.112,20.6035L 994.704,20.9669L 994.369,21.4149L 994.037,21.9657L 993.781,22.5072L 993.551,23.1772L 993.345,24.0585L 993.179,25.0332L 993.115,26.0079L 993.179,26.9829L 993.383,28.0165L 993.639,28.8038L 993.909,29.2867L 994.369,29.7915 Z "/>
	</g>
	<g>
		<path fill="#4099EC" fill-opacity="1" stroke-width="0.2" stroke-linejoin="round" d="M 889.568,39.0077L 892.543,39.0077L 892.543,46.7667L 889.568,46.7667L 889.568,39.0077 Z M 893.496,42.4689L 896.432,42.4689L 896.432,46.7667L 893.496,46.7667L 893.496,42.4689 Z M 897.385,42.4689L 900.36,42.4689L 900.36,50.2279L 897.385,50.2279L 897.385,42.4689 Z "/>
		<path fill="#4099EC" fill-opacity="1" stroke-width="0.2" stroke-linejoin="round" d="M 914.666,38.9369L 919.044,47.9155L 917.299,50.2279L 903.188,50.2279L 901.376,47.8812L 905.596,38.9369L 914.666,38.9369 Z M 904.445,47.754L 915.964,47.754L 912.974,41.5396L 907.408,41.5396L 904.445,47.754 Z "/>
		<path fill="#4099EC" fill-opacity="1" stroke-width="0.2" stroke-linejoin="round" d="M 923.553,48.0444L 923.871,48.0209L 929.278,38.9369L 932.677,38.9369L 939.872,50.2279L 936.539,50.2279L 931.012,41.3073L 925.642,50.2279L 922.336,50.2279L 922.138,50.2169L 921.807,49.7977L 921.503,49.3458L 921.094,48.7178L 920.737,47.9972L 920.394,47.2422L 920.195,46.3711L 919.982,45.3837L 919.904,44.3618L 919.982,43.34L 920.088,42.4108L 920.301,41.505L 920.526,40.819L 920.881,40.191L 921.226,39.6466L 921.635,39.1929L 921.873,38.9604L 924.319,38.9604L 923.898,39.3198L 923.553,39.7627L 923.21,40.3073L 922.945,40.8427L 922.708,41.505L 922.495,42.3763L 922.323,43.34L 922.257,44.3038L 922.323,45.2676L 922.534,46.2894L 922.799,47.068L 923.078,47.5454L 923.553,48.0444 Z "/>
		<path fill="#4099EC" fill-opacity="1" stroke-width="0.2" stroke-linejoin="round" d="M 946.616,38.9369L 956.387,47.5454L 956.387,38.9369L 959.139,38.9369L 959.139,50.2279L 955.37,50.2279L 942.502,38.9369L 946.616,38.9369 Z M 941.432,44.861L 951.428,48.0444L 950.544,50.2279L 940.506,47.1025L 941.432,44.861 Z "/>
		<path fill="#4099EC" fill-opacity="1" stroke-width="0.2" stroke-linejoin="round" d="M 973.512,38.9369L 977.89,47.9155L 976.144,50.2279L 962.034,50.2279L 960.222,47.8812L 964.441,38.9369L 973.512,38.9369 Z M 963.29,47.754L 974.809,47.754L 971.819,41.5396L 966.253,41.5396L 963.29,47.754 Z "/>
		<path fill="#4099EC" fill-opacity="1" stroke-width="0.2" stroke-linejoin="round" d="M 990.677,38.8916L 990.677,50.2388L 987.239,50.2388L 978.908,45.4418L 980.454,43.3164L 988.058,47.6488L 988.058,38.8916L 990.677,38.8916 Z "/>
		<path fill="#4099EC" fill-opacity="1" stroke-width="0.2" stroke-linejoin="round" d="M 1011.12,38.9261L 1011.12,41.5269L 1009.15,41.5269L 1009.15,50.2279L 1006.48,50.2279L 1006.48,41.5269L 1006.11,41.5269L 1001.4,50.2279L 997.975,50.2279L 991.802,38.9261L 995.12,38.9261L 999.721,47.0099L 1004.18,38.9261L 1011.12,38.9261 Z "/>
	</g>
</svg>
