<?xml version="1.0" encoding="utf-8"?>
<!DOCTYPE svg PUBLIC "-//W3C//DTD SVG 1.1//EN" "http://www.w3.org/Graphics/SVG/1.1/DTD/svg11.dtd">
<svg xmlns="http://www.w3.org/2000/svg" xmlns:xlink="http://www.w3.org/1999/xlink" version="1.1" baseProfile="full" width="1080" height="1920" viewBox="0 0 1080.00 1920.00" enable-background="new 0 0 1080.00 1920.00" xml:space="preserve">
	<rect x="7.62939e-006" y="-0.00012207" fill="#142640" fill-opacity="1" stroke-width="0.2" stroke-linejoin="round" width="1080" height="1920"/>
	<ellipse fill="#D8DEE3" fill-opacity="1" stroke-width="3" stroke-linejoin="round" stroke="#D8DEE3" stroke-opacity="1" cx="653.748" cy="384.5" rx="28.2519" ry="27.5001"/>
	<ellipse fill="none" stroke-width="50" stroke-linejoin="round" stroke="#D8DEE3" stroke-opacity="1" cx="546.084" cy="615.316" rx="132.084" ry="136.316"/>
	<rect x="468.283" y="423.66" fill="#142640" fill-opacity="1" fill-rule="evenodd" stroke-width="0.2" stroke-linejoin="round" width="90.7166" height="632.34"/>
	<path fill="#D8DEE3" fill-opacity="1" stroke-width="0.2" stroke-linejoin="round" stroke="#D8DEE3" stroke-opacity="1" d="M 480,315.321L 506.257,280.887L 506.257,926.587L 480.349,950L 480,331.488"/>
	<path fill="#D8DEE3" fill-opacity="1" stroke-width="0.2" stroke-linejoin="round" stroke="#D8DEE3" stroke-opacity="1" d="M 525.585,265.276L 547.677,230L 547.677,891.482L 525.879,915.468L 525.585,281.838"/>
	<g>
		<path fill="#D8DEE3" fill-opacity="1" stroke-width="0.2" stroke-linejoin="round" d="M 863.536,111.276L 856.473,111.276C 853.65,111.276 852.239,112.428 852.239,114.732L 852.239,125.088C 852.239,127.392 853.65,128.544 856.473,128.544L 863.536,128.544C 866.359,128.544 867.771,127.392 867.771,125.088L 867.771,114.732C 867.771,112.428 866.359,111.276 863.536,111.276 Z M 856.473,107.82L 863.536,107.82C 868.242,107.82 870.595,110.122 870.595,114.726L 870.595,125.094C 870.595,129.698 868.242,132 863.536,132L 856.473,132C 851.767,132 849.414,129.698 849.414,125.094L 849.414,114.726C 849.414,110.122 851.767,107.82 856.473,107.82 Z "/>
		<path fill="#D8DEE3" fill-opacity="1" stroke-width="0.2" stroke-linejoin="round" d="M 880.478,128.544L 894.6,128.544L 894.6,132L 880.478,132C 875.772,132 873.419,129.698 873.419,125.094C 873.419,121.638 876.479,119.421 882.598,118.443C 888.716,117.465 891.776,116.228 891.776,114.732C 891.776,112.428 890.364,111.276 887.541,111.276L 873.419,111.276L 873.419,107.82L 887.541,107.82C 892.247,107.82 894.6,110.122 894.6,114.726C 894.6,118.182 891.541,120.399 885.422,121.377C 879.303,122.355 876.244,123.592 876.244,125.088C 876.244,127.392 877.655,128.544 880.478,128.544 Z "/>
		<path fill="#D8DEE3" fill-opacity="1" stroke-width="0.2" stroke-linejoin="round" d="M 897.425,128.544L 900.249,128.544L 900.249,132L 897.425,132L 897.425,128.544 Z M 897.425,114.32L 900.249,114.32L 900.249,117.776L 897.425,117.776L 897.425,114.32 Z "/>
		<path fill="#D8DEE3" fill-opacity="1" stroke-width="0.2" stroke-linejoin="round" d="M 910.268,128.544L 924.389,128.544L 924.389,132L 910.268,132C 905.562,132 903.209,129.698 903.209,125.094C 903.209,121.638 906.268,119.421 912.387,118.443C 918.506,117.465 921.565,116.228 921.565,114.732C 921.565,112.428 920.154,111.276 917.331,111.276L 903.209,111.276L 903.209,107.82L 917.331,107.82C 922.037,107.82 924.389,110.122 924.389,114.726C 924.389,118.182 921.33,120.399 915.211,121.377C 909.093,122.355 906.033,123.592 906.033,125.088C 906.033,127.392 907.445,128.544 910.268,128.544 Z "/>
		<path fill="#D8DEE3" fill-opacity="1" stroke-width="0.2" stroke-linejoin="round" d="M 941.336,111.276L 927.214,111.276L 927.214,107.82L 941.336,107.82C 946.042,107.82 948.395,110.113 948.395,114.698C 948.395,116.991 947.805,118.712 946.628,119.86C 947.805,121.016 948.395,122.749 948.395,125.06C 948.395,129.687 946.042,132 941.336,132L 927.214,132L 927.214,128.544L 941.336,128.544C 944.159,128.544 945.57,127.385 945.57,125.066C 945.57,122.747 944.159,121.588 941.336,121.588L 927.214,121.588L 927.214,118.132L 941.336,118.132C 944.159,118.132 945.57,116.989 945.57,114.704C 945.57,112.418 944.159,111.276 941.336,111.276 Z "/>
	</g>
	<g>
		<path fill="#D8DEE3" fill-opacity="1" stroke-width="0.2" stroke-linejoin="round" d="M 970.334,118.578L 961.136,118.578L 961.136,116.474L 970.334,116.474C 973.399,116.474 974.931,117.871 974.931,120.665C 974.931,123.458 973.399,124.855 970.334,124.855L 962.976,124.855L 962.976,131.193L 961.136,131.193L 961.136,122.751L 970.334,122.751C 972.172,122.751 973.092,122.056 973.092,120.665C 973.092,119.273 972.172,118.578 970.334,118.578 Z "/>
		<path fill="#D8DEE3" fill-opacity="1" stroke-width="0.2" stroke-linejoin="round" d="M 978.139,120.682L 978.139,131.193L 976.3,131.193L 976.3,120.678C 976.3,117.875 977.832,116.474 980.897,116.474C 982.59,116.474 983.817,116.901 984.576,117.756C 985.337,116.901 986.564,116.474 988.255,116.474C 991.322,116.474 992.856,117.875 992.856,120.678L 992.856,131.193L 991.016,131.193L 991.016,120.682C 991.016,119.279 990.096,118.578 988.255,118.578C 986.417,118.578 985.497,119.279 985.497,120.682L 985.497,131.193L 983.658,131.193L 983.658,120.682C 983.658,119.279 982.738,118.578 980.897,118.578C 979.059,118.578 978.139,119.279 978.139,120.682 Z "/>
	</g>
	<line fill="none" stroke-width="8" stroke-linejoin="round" stroke="#D8DEE3" stroke-opacity="1" x1="836" y1="89" x2="992" y2="89"/>
	<line fill="none" stroke-width="8" stroke-linejoin="round" stroke="#D8DEE3" stroke-opacity="1" x1="39" y1="271" x2="64" y2="271"/>
	<line fill="none" stroke-width="8" stroke-linejoin="round" stroke="#D8DEE3" stroke-opacity="1" x1="39" y1="559" x2="64" y2="559"/>
	<line fill="none" stroke-width="8" stroke-linejoin="round" stroke="#D8DEE3" stroke-opacity="1" x1="39" y1="1472" x2="64" y2="1472"/>
	<line fill="none" stroke-width="8" stroke-linejoin="round" stroke="#D8DEE3" stroke-opacity="1" x1="39" y1="1496" x2="64" y2="1496"/>
	<line fill="none" stroke-width="8" stroke-linejoin="round" stroke="#D8DEE3" stroke-opacity="1" x1="39" y1="1559" x2="64" y2="1559"/>
	<line fill="none" stroke-width="8" stroke-linejoin="round" stroke="#3DB4F2" stroke-opacity="1" x1="932" y1="1877" x2="932" y2="1708"/>
	<path fill="#3DB4F2" fill-opacity="1" stroke-width="0.2" stroke-linejoin="round" d="M 939.348,1726.23C 939.348,1726.23 957.899,1716.95 939.348,1709"/>
	<g>
		<path fill="#3ABAEA" fill-opacity="1" stroke-width="0.2" stroke-linejoin="round" d="M 848.138,1733.95L 848.138,1751L 845.381,1751L 845.381,1733.95C 845.381,1729.4 847.678,1727.13 852.271,1727.13C 854.81,1727.13 856.648,1727.82 857.786,1729.21C 858.927,1727.82 860.765,1727.13 863.3,1727.13C 867.897,1727.13 870.195,1729.4 870.195,1733.95L 870.195,1751L 867.438,1751L 867.438,1733.95C 867.438,1731.68 866.059,1730.54 863.3,1730.54C 860.544,1730.54 859.167,1731.68 859.167,1733.95L 859.167,1751L 856.409,1751L 856.409,1733.95C 856.409,1731.68 855.03,1730.54 852.271,1730.54C 849.516,1730.54 848.138,1731.68 848.138,1733.95 Z "/>
		<path fill="#3ABAEA" fill-opacity="1" stroke-width="0.2" stroke-linejoin="round" d="M 886.835,1727.13C 891.429,1727.13 893.726,1729.4 893.726,1733.95L 893.726,1751L 890.969,1751L 890.969,1742.48L 875.807,1742.48L 875.807,1751L 873.05,1751L 873.05,1733.95C 873.05,1729.4 875.346,1727.13 879.94,1727.13L 886.835,1727.13 Z M 890.969,1733.95C 890.969,1731.68 889.591,1730.54 886.835,1730.54L 879.94,1730.54C 877.185,1730.54 875.807,1731.68 875.807,1733.95L 875.807,1739.07L 890.969,1739.07L 890.969,1733.95 Z "/>
		<rect x="896.483" y="1727.13" fill="#3ABAEA" fill-opacity="1" stroke-width="0.2" stroke-linejoin="round" width="2.75714" height="23.8689"/>
		<path fill="#3ABAEA" fill-opacity="1" stroke-width="0.2" stroke-linejoin="round" d="M 920.049,1742.47L 920.049,1727.13L 922.806,1727.13L 922.806,1742.48C 922.806,1748.16 920.968,1751 917.292,1751C 914.536,1751 912.538,1747.59 911.297,1740.77C 910.056,1733.95 908.838,1730.54 907.644,1730.54C 905.806,1730.54 904.887,1732.25 904.887,1735.65L 904.887,1751L 902.13,1751L 902.13,1735.65C 902.13,1729.97 903.968,1727.13 907.644,1727.13C 910.4,1727.13 912.398,1730.54 913.639,1737.36C 914.88,1744.18 916.098,1747.59 917.292,1747.59C 919.13,1747.59 920.049,1745.88 920.049,1742.47 Z "/>
	</g>
	<g>
		<path fill="#4099EC" fill-opacity="1" stroke-width="0.2" stroke-linejoin="round" d="M 879.734,1712.29L 879.734,1714.9L 877.468,1714.92L 874.454,1719.76L 880.462,1719.76L 878.993,1722L 870.337,1722L 876.162,1712.29L 879.734,1712.29 Z "/>
		<path fill="#4099EC" fill-opacity="1" stroke-width="0.2" stroke-linejoin="round" d="M 881.367,1712.29L 883.827,1712.29L 883.827,1714.2L 890.479,1714.2L 893.876,1712.29L 898.82,1712.29L 890.479,1716.45L 881.367,1716.45L 881.367,1712.29 Z M 881.367,1717.84L 890.751,1717.84L 898.929,1722L 894.302,1722L 890.295,1720.09L 883.795,1720.09L 883.795,1722L 881.367,1722L 881.367,1717.84 Z "/>
		<path fill="#4099EC" fill-opacity="1" stroke-width="0.2" stroke-linejoin="round" d="M 905.516,1712.26L 905.516,1722L 903.502,1722L 903.502,1714.71L 901.357,1716.66L 899.8,1715.23C 899.779,1715.17 899.807,1715.12 899.887,1715.07L 902.891,1712.26L 905.516,1712.26 Z "/>
		<path fill="#4099EC" fill-opacity="1" stroke-width="0.2" stroke-linejoin="round" d="M 909.609,1720.12L 909.871,1720.1L 914.323,1712.29L 917.122,1712.29L 923.045,1722L 920.301,1722L 915.751,1714.33L 911.329,1722L 908.607,1722L 908.444,1721.99L 908.172,1721.63L 907.922,1721.24L 907.585,1720.7L 907.29,1720.08L 907.008,1719.43L 906.845,1718.68L 906.669,1717.83L 906.605,1716.95L 906.669,1716.08L 906.756,1715.28L 906.931,1714.5L 907.117,1713.91L 907.409,1713.37L 907.694,1712.9L 908.031,1712.51L 908.226,1712.31L 910.24,1712.31L 909.893,1712.62L 909.609,1713L 909.327,1713.47L 909.109,1713.93L 908.913,1714.5L 908.738,1715.25L 908.597,1716.08L 908.543,1716.9L 908.597,1717.73L 908.771,1718.61L 908.988,1719.28L 909.218,1719.69L 909.609,1720.12 Z "/>
	</g>
	<path fill="#3DB4F2" fill-opacity="1" stroke-width="5" stroke-linejoin="round" stroke="#3DB4F2" stroke-opacity="1" d="M 903.5,1898.83L 932.001,1876.5L 960.5,1898.83L 960.5,1943.5L 903.5,1943.5L 903.5,1898.83 Z "/>
	<path fill="none" stroke-width="5" stroke-linejoin="round" stroke="#3DB4F2" stroke-opacity="1" d="M 773.5,1898.83L 802,1876.5L 830.5,1898.83L 830.5,1943.5L 773.5,1943.5L 773.5,1898.83 Z "/>
	<path fill="none" stroke-width="5" stroke-linejoin="round" stroke="#3DB4F2" stroke-opacity="1" d="M 643.5,1898.83L 672,1876.5L 700.5,1898.83L 700.5,1943.5L 643.5,1943.5L 643.5,1898.83 Z "/>
	<path fill="none" stroke-width="5" stroke-linejoin="round" stroke="#3DB4F2" stroke-opacity="1" d="M 513.5,1898.83L 542,1876.5L 570.5,1898.83L 570.5,1943.5L 513.5,1943.5L 513.5,1898.83 Z "/>
	<path fill="none" stroke-width="5" stroke-linejoin="round" stroke="#3DB4F2" stroke-opacity="1" d="M 383.5,1898.83L 412,1876.5L 440.5,1898.83L 440.5,1943.5L 383.5,1943.5L 383.5,1898.83 Z "/>
	<path fill="none" stroke-width="5" stroke-linejoin="round" stroke="#3DB4F2" stroke-opacity="1" d="M 253.5,1898.83L 282,1876.5L 310.5,1898.83L 310.5,1943.5L 253.5,1943.5L 253.5,1898.83 Z "/>
	<path fill="none" stroke-width="5" stroke-linejoin="round" stroke="#3DB4F2" stroke-opacity="1" d="M 123.5,1898.83L 152,1876.5L 180.5,1898.83L 180.5,1943.5L 123.5,1943.5L 123.5,1898.83 Z "/>
	<g>
		<path fill="#FFFFFF" fill-opacity="1" stroke-width="0.2" stroke-linejoin="round" d="M 112.61,125.87L 112.808,125.87L 127.951,158.326L 121.034,158.326L 119.015,153.885L 108.217,153.885L 110.686,148.483L 114.724,148.483L 116.546,148.483L 109.479,132.582L 112.61,125.87 Z M 108.517,134.601L 111.798,141.968L 109.424,147.268L 109.377,147.268L 105.236,156.409L 104.329,158.326L 97.467,158.326L 108.517,134.601 Z "/>
		<path fill="#FFFFFF" fill-opacity="1" stroke-width="0.2" stroke-linejoin="round" d="M 131.382,125.87L 137.794,125.87L 137.794,145.903C 137.794,147.523 138.349,148.903 139.458,150.044L 134.766,154.642C 132.51,152.25 131.382,149.337 131.382,145.903L 131.382,125.87 Z M 149.507,125.87L 155.919,125.87L 155.919,134.199L 155.816,134.144L 149.507,140.304L 149.507,125.87 Z M 155.919,137.172L 155.919,145.903C 155.919,149.474 154.732,152.444 152.358,154.816C 149.984,157.187 147.083,158.373 143.654,158.373C 140.994,158.373 138.604,157.616 136.485,156.102L 141.328,151.409C 142.069,151.745 142.845,151.913 143.654,151.913C 145.2,151.913 146.562,151.333 147.74,150.17C 148.918,149.008 149.507,147.586 149.507,145.903L 149.507,143.435L 155.919,137.172 Z "/>
		<path fill="#FFFFFF" fill-opacity="1" stroke-width="0.2" stroke-linejoin="round" d="M 159.145,125.87L 170.408,125.87L 163.79,132.33L 159.145,132.33L 159.145,125.87 Z M 173.689,125.87L 181.663,125.87L 181.663,132.33L 173.689,132.33L 173.689,158.373L 167.127,158.373L 167.127,132.33L 167.024,132.33L 173.689,125.87 Z "/>
		<path fill="#FFFFFF" fill-opacity="1" stroke-width="0.2" stroke-linejoin="round" d="M 184.889,125.87L 191.403,125.87L 191.403,138.789L 188.17,141.108L 184.889,138.789L 184.889,125.87 Z M 209.528,125.87L 209.528,138.789L 206.247,141.108L 203.013,138.789L 203.013,125.87L 209.528,125.87 Z M 194.077,138.836L 200.34,138.836L 201.247,139.499L 204.883,142.07L 201.199,144.641L 200.284,145.304L 194.132,145.304L 193.218,144.641L 189.534,142.07L 193.17,139.499L 194.077,138.836 Z M 184.889,140.761L 186.758,142.07L 184.889,143.38L 184.889,140.761 Z M 209.528,140.761L 209.528,143.38L 207.659,142.07L 209.528,140.761 Z M 188.17,143.033L 191.403,145.351L 191.403,158.373L 184.889,158.373L 184.889,145.351L 188.17,143.033 Z M 206.247,143.033L 209.528,145.351L 209.528,158.373L 203.013,158.373L 203.013,145.351L 206.247,143.033 Z "/>
		<path fill="#FFFFFF" fill-opacity="1" stroke-width="0.2" stroke-linejoin="round" d="M 228.962,125.665C 233.169,125.665 236.836,127.061 239.965,129.853L 235.319,134.293C 233.468,132.779 231.331,132.022 228.907,132.022C 226.147,132.022 223.791,132.999 221.84,134.952C 219.889,136.905 218.914,139.262 218.914,142.023C 218.914,144.242 219.603,146.243 220.98,148.025L 216.343,152.521C 213.751,149.455 212.454,145.956 212.454,142.023C 212.454,139.057 213.194,136.322 214.675,133.816C 216.155,131.311 218.157,129.326 220.681,127.861C 223.205,126.397 225.965,125.665 228.962,125.665 Z M 241.527,131.47C 244.15,134.53 245.462,138.048 245.462,142.023C 245.462,144.983 244.722,147.708 243.242,150.198C 241.762,152.688 239.752,154.665 237.212,156.129C 234.673,157.594 231.904,158.326 228.907,158.326C 224.701,158.326 221.033,156.911 217.904,154.083L 217.952,154.138L 222.597,149.689C 224.448,151.172 226.551,151.913 228.907,151.913C 231.699,151.913 234.08,150.946 236.049,149.011C 238.018,147.076 239.003,144.747 239.003,142.023C 239.003,139.767 238.295,137.73 236.881,135.91L 241.527,131.47 Z "/>
		<path fill="#FFFFFF" fill-opacity="1" stroke-width="0.2" stroke-linejoin="round" d="M 250.968,125.87L 259.044,125.87C 262.073,125.87 264.673,126.895 266.844,128.946C 269.016,130.997 270.102,133.486 270.102,136.415C 270.102,138.471 269.538,140.34 268.41,142.023C 267.282,143.706 265.843,144.849 264.092,145.454L 273.328,158.373L 265.306,158.373L 254.958,143.033L 254.958,158.373L 248.444,158.373L 248.396,126.122L 254.958,135.91L 254.958,140.509L 259.147,140.509C 260.256,140.54 261.231,140.152 262.073,139.345C 262.914,138.538 263.335,137.571 263.335,136.443C 263.335,135.315 262.914,134.347 262.073,133.54C 261.231,132.733 260.256,132.33 259.147,132.33L 255.305,132.33L 250.968,125.87 Z "/>
		<path fill="#FFFFFF" fill-opacity="1" stroke-width="0.2" stroke-linejoin="round" d="M 279.488,125.87L 282.769,125.87L 282.769,138.836L 279.488,141.163L 276.207,138.836L 276.207,125.87L 279.488,125.87 Z M 276.207,140.808L 278.076,142.118L 276.207,143.435L 276.207,140.808 Z M 282.769,140.808L 282.769,143.435L 280.899,142.118L 282.769,140.808 Z M 279.488,143.08L 282.769,145.399L 282.769,158.373L 279.488,158.373L 276.207,158.373L 276.207,145.399L 279.488,143.08 Z M 284.283,125.87L 282.769,125.87L 284.283,125.87 Z "/>
		<path fill="#FFFFFF" fill-opacity="1" stroke-width="0.2" stroke-linejoin="round" d="M 285.75,125.87L 299.632,125.87L 296.5,132.33L 285.75,132.33L 285.75,125.87 Z M 301.493,125.87L 308.662,125.87L 297.865,148.175L 292.912,158.373L 285.75,158.373L 296.548,136.06L 301.493,125.87 Z M 297.912,151.866L 308.662,151.866L 308.662,158.373L 294.781,158.373L 297.912,151.866 Z "/>
		<path fill="#FFFFFF" fill-opacity="1" stroke-width="0.2" stroke-linejoin="round" d="M 311.439,125.87L 317.953,132.274L 317.953,138.639L 329.161,138.639L 329.161,145.146L 317.953,145.146L 317.953,151.866L 311.439,158.223L 311.439,125.87 Z M 313.663,125.87L 331.023,125.87L 331.023,132.274L 320.225,132.274L 313.663,125.87 Z M 320.17,151.866L 331.023,151.866L 331.023,158.326L 311.439,158.326L 311.439,158.271L 313.663,158.271L 320.17,151.866 Z "/>
		<path fill="#FFFFFF" fill-opacity="1" stroke-width="0.2" stroke-linejoin="round" d="M 343.642,125.87C 348.895,125.833 353.026,127.27 356.037,130.18C 359.047,133.091 360.552,137.07 360.552,142.118C 360.552,147.165 359.047,151.129 356.037,154.007C 353.026,156.886 348.895,158.326 343.642,158.326L 334.209,158.326L 342.838,151.811L 343.697,151.811C 346.626,151.811 348.982,151.079 350.764,149.614C 352.547,148.15 353.59,146.124 353.895,143.537L 353.99,143.435L 353.895,143.38C 353.927,142.943 353.943,142.522 353.943,142.118C 353.943,139.057 353.025,136.661 351.19,134.928C 349.355,133.196 346.839,132.33 343.642,132.33L 342.94,132.33L 334.359,125.87L 343.642,125.87 Z M 334.209,127.834L 340.716,132.732L 340.716,151.306L 334.209,156.204L 334.209,127.834 Z "/>
		<path fill="#FFFFFF" fill-opacity="1" stroke-width="0.2" stroke-linejoin="round" d="M 398.821,125.87L 399.018,125.87L 414.161,158.326L 407.244,158.326L 405.225,153.885L 394.428,153.885L 396.896,148.483L 400.935,148.483L 402.757,148.483L 395.69,132.582L 398.821,125.87 Z M 394.727,134.601L 398.008,141.968L 395.634,147.268L 395.587,147.268L 391.446,156.409L 390.539,158.326L 383.677,158.326L 394.727,134.601 Z "/>
		<path fill="#FFFFFF" fill-opacity="1" stroke-width="0.2" stroke-linejoin="round" d="M 433.745,125.87C 437.784,125.933 441.435,127.547 444.701,130.713L 441.065,135.611C 438.777,133.386 436.322,132.274 433.698,132.274C 433.093,132.274 432.489,132.327 431.884,132.432L 427.893,127.029C 429.812,126.256 431.763,125.87 433.745,125.87 Z M 425.976,127.936L 429.81,133.134C 428.095,133.944 426.682,135.156 425.57,136.77C 424.458,138.384 423.902,140.151 423.902,142.07C 423.902,144.021 424.458,145.805 425.57,147.422C 426.682,149.039 428.095,150.234 429.81,151.006L 425.976,156.251C 423.453,154.806 421.416,152.82 419.868,150.297C 418.319,147.773 417.545,145.031 417.545,142.07C 417.545,139.141 418.319,136.415 419.868,133.891C 421.416,131.367 423.453,129.382 425.976,127.936 Z M 441.065,148.585L 444.701,153.475C 441.435,156.641 437.784,158.257 433.745,158.326C 431.763,158.326 429.812,157.939 427.893,157.166L 431.884,151.708C 432.489,151.845 433.093,151.913 433.698,151.913C 436.322,151.913 438.777,150.804 441.065,148.585 Z "/>
		<path fill="#FFFFFF" fill-opacity="1" stroke-width="0.2" stroke-linejoin="round" d="M 464.032,125.87C 468.07,125.933 471.722,127.547 474.987,130.713L 471.351,135.611C 469.064,133.386 466.609,132.274 463.985,132.274C 463.38,132.274 462.775,132.327 462.171,132.432L 458.18,127.029C 460.099,126.256 462.05,125.87 464.032,125.87 Z M 456.263,127.936L 460.096,133.134C 458.382,133.944 456.969,135.156 455.857,136.77C 454.745,138.384 454.189,140.151 454.189,142.07C 454.189,144.021 454.745,145.805 455.857,147.422C 456.969,149.039 458.382,150.234 460.096,151.006L 456.263,156.251C 453.739,154.806 451.703,152.82 450.155,150.297C 448.606,147.773 447.832,145.031 447.832,142.07C 447.832,139.141 448.606,136.415 450.155,133.891C 451.703,131.367 453.739,129.382 456.263,127.936 Z M 471.351,148.585L 474.987,153.475C 471.722,156.641 468.07,158.257 464.032,158.326C 462.05,158.326 460.099,157.939 458.18,157.166L 462.171,151.708C 462.775,151.845 463.38,151.913 463.985,151.913C 466.609,151.913 469.064,150.804 471.351,148.585 Z "/>
		<path fill="#FFFFFF" fill-opacity="1" stroke-width="0.2" stroke-linejoin="round" d="M 478.016,125.87L 484.531,132.274L 484.531,138.639L 495.739,138.639L 495.739,145.146L 484.531,145.146L 484.531,151.866L 478.016,158.223L 478.016,125.87 Z M 480.24,125.87L 497.6,125.87L 497.6,132.274L 486.802,132.274L 480.24,125.87 Z M 486.747,151.866L 497.6,151.866L 497.6,158.326L 478.016,158.326L 478.016,158.271L 480.24,158.271L 486.747,151.866 Z "/>
		<path fill="#FFFFFF" fill-opacity="1" stroke-width="0.2" stroke-linejoin="round" d="M 512.594,125.87C 514.818,125.87 516.737,126.333 518.351,127.258C 519.965,128.184 521.109,129.572 521.782,131.422L 517.192,134.648C 516.314,132.897 514.815,132.022 512.696,132.022C 511.55,132.022 510.582,132.309 509.794,132.882C 509.005,133.455 508.611,134.146 508.611,134.956C 508.611,135.224 508.653,135.467 508.737,135.686C 508.821,135.904 508.972,136.114 509.19,136.317C 509.408,136.519 509.619,136.695 509.821,136.845C 510.024,136.995 510.326,137.171 510.728,137.373C 511.13,137.576 511.492,137.753 511.813,137.906C 512.133,138.058 512.571,138.261 513.126,138.513C 513.681,138.766 514.16,138.976 514.565,139.144C 514.734,139.212 514.968,139.331 515.267,139.499L 509.62,143.435C 508.674,142.961 507.957,142.591 507.471,142.323C 506.984,142.055 506.353,141.643 505.578,141.088C 504.802,140.534 504.221,139.995 503.835,139.471C 503.448,138.948 503.104,138.283 502.802,137.476C 502.499,136.669 502.348,135.776 502.348,134.798C 502.348,132.174 503.333,130.03 505.302,128.366C 507.271,126.702 509.702,125.87 512.594,125.87 Z M 517.492,140.706C 519.311,141.784 520.683,142.979 521.609,144.291C 522.534,145.602 522.997,147.184 522.997,149.035C 522.997,151.827 521.953,154.073 519.866,155.774C 517.778,157.475 515.052,158.326 511.687,158.326C 506.502,158.326 502.834,156.322 500.684,152.316L 505.732,148.837C 507.078,150.957 509.078,152.016 511.734,152.016C 513.217,152.016 514.413,151.747 515.323,151.208C 516.232,150.669 516.687,149.979 516.687,149.137C 516.687,148.328 516.266,147.561 515.425,146.838C 514.584,146.115 513.406,145.367 511.892,144.594L 517.492,140.706 Z "/>
		<path fill="#FFFFFF" fill-opacity="1" stroke-width="0.2" stroke-linejoin="round" d="M 537.833,125.87C 540.057,125.87 541.976,126.333 543.59,127.258C 545.204,128.184 546.348,129.572 547.021,131.422L 542.431,134.648C 541.553,132.897 540.054,132.022 537.935,132.022C 536.789,132.022 535.821,132.309 535.033,132.882C 534.244,133.455 533.85,134.146 533.85,134.956C 533.85,135.224 533.892,135.467 533.976,135.686C 534.06,135.904 534.211,136.114 534.429,136.317C 534.647,136.519 534.858,136.695 535.06,136.845C 535.263,136.995 535.565,137.171 535.967,137.373C 536.37,137.576 536.731,137.753 537.052,137.906C 537.372,138.058 537.81,138.261 538.365,138.513C 538.92,138.766 539.399,138.976 539.804,139.144C 539.973,139.212 540.207,139.331 540.506,139.499L 534.859,143.435C 533.913,142.961 533.196,142.591 532.71,142.323C 532.223,142.055 531.592,141.643 530.817,141.088C 530.041,140.534 529.46,139.995 529.074,139.471C 528.687,138.948 528.343,138.283 528.041,137.476C 527.738,136.669 527.587,135.776 527.587,134.798C 527.587,132.174 528.572,130.03 530.541,128.366C 532.51,126.702 534.941,125.87 537.833,125.87 Z M 542.731,140.706C 544.55,141.784 545.922,142.979 546.848,144.291C 547.773,145.602 548.236,147.184 548.236,149.035C 548.236,151.827 547.192,154.073 545.105,155.774C 543.017,157.475 540.291,158.326 536.926,158.326C 531.741,158.326 528.073,156.322 525.923,152.316L 530.971,148.837C 532.317,150.957 534.318,152.016 536.973,152.016C 538.456,152.016 539.652,151.747 540.562,151.208C 541.471,150.669 541.926,149.979 541.926,149.137C 541.926,148.328 541.505,147.561 540.664,146.838C 539.823,146.115 538.645,145.367 537.131,144.594L 542.731,140.706 Z "/>
	</g>
	<line fill="none" stroke-width="8" stroke-linejoin="round" stroke="#D8DEE3" stroke-opacity="1" x1="996" y1="1440" x2="1021" y2="1440"/>
	<line fill="none" stroke-width="8" stroke-linejoin="round" stroke="#D8DEE3" stroke-opacity="1" x1="996" y1="1464" x2="1021" y2="1464"/>
	<line fill="none" stroke-width="8" stroke-linejoin="round" stroke="#D8DEE3" stroke-opacity="1" x1="996" y1="840" x2="1021" y2="840"/>
	<line fill="none" stroke-width="8" stroke-linejoin="round" stroke="#D8DEE3" stroke-opacity="1" x1="996" y1="864" x2="1021" y2="864"/>
	<rect x="63.9998" y="1057" fill="#D8DEE3" fill-opacity="1" stroke-width="3" stroke-linejoin="round" stroke="#D8DEE3" stroke-opacity="1" width="960" height="96"/>
	<g>
		<path fill="#000000" fill-opacity="1" stroke-linejoin="round" d="M 143.837,1120L 143.837,1089.28L 128.866,1089.28L 128.866,1085.44L 165.046,1085.44L 165.046,1089.28L 150.075,1089.28L 150.075,1120L 143.837,1120 Z "/>
		<path fill="#000000" fill-opacity="1" stroke-linejoin="round" d="M 160.631,1120L 178.448,1085.44L 185.329,1085.44L 203.146,1120L 196.548,1120L 191.518,1109.44L 172.259,1109.44L 167.23,1120L 160.631,1120 Z M 174.101,1105.6L 189.667,1105.6L 185.232,1096.28C 183.841,1093.38 182.727,1091.05 181.889,1089.28C 180.888,1091.38 179.871,1093.51 178.838,1095.68L 174.101,1105.6 Z "/>
		<path fill="#000000" fill-opacity="1" stroke-linejoin="round" d="M 208.4,1120L 208.4,1085.44L 225.047,1085.44C 227.978,1085.44 230.216,1085.55 231.763,1085.76C 233.927,1086.04 235.741,1086.57 237.206,1087.35C 238.672,1088.13 239.851,1089.23 240.744,1090.63C 241.638,1092.04 242.085,1093.58 242.085,1095.27C 242.085,1098.16 240.907,1100.6 238.551,1102.6C 236.196,1104.6 231.945,1105.6 225.798,1105.6L 214.638,1105.6L 214.638,1120L 208.4,1120 Z M 214.638,1101.76L 225.73,1101.76C 229.394,1101.76 231.997,1101.2 233.537,1100.09C 235.077,1098.98 235.847,1097.42 235.847,1095.4C 235.847,1093.94 235.393,1092.69 234.487,1091.65C 233.581,1090.61 232.387,1089.92 230.905,1089.59C 229.95,1089.38 228.186,1089.28 225.613,1089.28L 214.638,1089.28L 214.638,1101.76 Z "/>
		<path fill="#000000" fill-opacity="1" stroke-linejoin="round" d="M 265.477,1120L 265.477,1085.44L 274.746,1085.44L 284.941,1109.76C 285.883,1112.03 286.569,1113.73 286.998,1114.86C 287.479,1113.61 288.226,1111.77 289.239,1109.34L 299.347,1085.44L 308.519,1085.44L 308.519,1120L 302.281,1120L 302.281,1090.72L 290.078,1120L 283.83,1120L 271.715,1090.72L 271.715,1120L 265.477,1120 Z "/>
		<rect x="314.756" y="1106.08" fill="#000000" fill-opacity="1" stroke-linejoin="round" width="16.8424" height="3.84009"/>
		<path fill="#000000" fill-opacity="1" stroke-linejoin="round" d="M 338.461,1120L 338.461,1085.44L 355.352,1085.44C 358.789,1085.44 361.547,1085.79 363.627,1086.5C 365.706,1087.2 367.334,1088.29 368.51,1089.76C 369.686,1091.22 370.274,1092.76 370.274,1094.37C 370.274,1095.86 369.722,1097.26 368.617,1098.57C 367.512,1099.89 365.846,1100.95 363.617,1101.76C 366.359,1102.37 368.466,1103.41 369.938,1104.87C 371.409,1106.34 372.145,1108.07 372.145,1110.06C 372.145,1111.67 371.703,1113.16 370.82,1114.54C 369.936,1115.92 368.846,1116.98 367.55,1117.73C 366.253,1118.48 364.626,1119.04 362.667,1119.43C 360.707,1119.81 358.308,1120 355.469,1120L 338.461,1120 Z M 344.698,1100.32L 354.114,1100.32C 356.667,1100.32 358.5,1100.18 359.611,1099.89C 361.073,1099.53 362.176,1098.92 362.92,1098.07C 363.664,1097.23 364.036,1096.16 364.036,1094.88C 364.036,1093.67 363.69,1092.61 362.998,1091.68C 362.306,1090.76 361.315,1090.13 360.025,1089.79C 358.735,1089.45 356.528,1089.28 353.402,1089.28L 344.698,1089.28L 344.698,1100.32 Z M 344.698,1116.16L 355.576,1116.16C 357.441,1116.16 358.75,1116.11 359.504,1116C 360.836,1115.81 361.949,1115.49 362.842,1115.04C 363.735,1114.6 364.47,1113.95 365.045,1113.1C 365.62,1112.25 365.907,1111.27 365.907,1110.16C 365.907,1108.86 365.482,1107.73 364.631,1106.77C 363.779,1105.81 362.616,1105.14 361.141,1104.75C 359.666,1104.36 357.541,1104.16 354.767,1104.16L 344.698,1104.16L 344.698,1116.16 Z "/>
		<path fill="#000000" fill-opacity="1" stroke-linejoin="round" d="M 374.28,1120L 392.097,1085.44L 398.978,1085.44L 416.795,1120L 410.197,1120L 405.167,1109.44L 385.908,1109.44L 380.878,1120L 374.28,1120 Z M 387.75,1105.6L 403.315,1105.6L 398.881,1096.28C 397.49,1093.38 396.376,1091.05 395.538,1089.28C 394.537,1091.38 393.52,1093.51 392.487,1095.68L 387.75,1105.6 Z "/>
		<path fill="#000000" fill-opacity="1" stroke-linejoin="round" d="M 422.049,1120L 422.049,1085.44L 428.657,1085.44L 450.743,1111.54L 450.743,1085.44L 456.981,1085.44L 456.981,1120L 450.373,1120L 428.287,1093.9L 428.287,1120L 422.049,1120 Z "/>
		<path fill="#000000" fill-opacity="1" stroke-linejoin="round" d="M 466.962,1120L 466.962,1085.44L 482.293,1085.44C 485.757,1085.44 488.398,1085.61 490.217,1085.94C 492.771,1086.39 494.948,1087.22 496.748,1088.41C 499.1,1089.95 500.858,1091.92 502.021,1094.32C 503.184,1096.71 503.765,1099.45 503.765,1102.53C 503.765,1105.16 503.371,1107.48 502.581,1109.51C 501.792,1111.54 500.78,1113.22 499.545,1114.54C 498.311,1115.87 496.959,1116.92 495.49,1117.68C 494.022,1118.44 492.25,1119.02 490.174,1119.41C 488.098,1119.8 485.714,1120 483.024,1120L 466.962,1120 Z M 473.2,1116.16L 482.508,1116.16C 485.386,1116.16 487.643,1115.94 489.277,1115.51C 490.911,1115.08 492.216,1114.47 493.19,1113.69C 494.555,1112.59 495.619,1111.1 496.382,1109.24C 497.146,1107.37 497.527,1105.11 497.527,1102.46C 497.527,1098.78 496.779,1095.95 495.281,1093.97C 493.783,1091.99 491.965,1090.67 489.828,1090C 488.281,1089.52 485.792,1089.28 482.362,1089.28L 473.2,1089.28L 473.2,1116.16 Z "/>
		<path fill="#000000" fill-opacity="1" stroke-linejoin="round" d="M 559.907,1107.87L 566.145,1109.02C 564.93,1112.75 562.746,1115.59 559.595,1117.54C 556.443,1119.5 552.59,1120.48 548.035,1120.48C 543.318,1120.48 539.482,1119.73 536.529,1118.22C 533.576,1116.71 531.328,1114.53 529.784,1111.67C 528.241,1108.81 527.47,1105.75 527.47,1102.47C 527.47,1098.89 528.329,1095.76 530.048,1093.1C 531.766,1090.44 534.211,1088.42 537.382,1087.03C 540.553,1085.65 544.042,1084.96 547.85,1084.96C 552.165,1084.96 555.795,1085.83 558.742,1087.58C 561.689,1089.32 563.74,1091.78 564.897,1094.94L 558.659,1095.99C 557.697,1093.49 556.299,1091.66 554.463,1090.52C 552.628,1089.37 550.322,1088.8 547.548,1088.8C 544.351,1088.8 541.68,1089.44 539.536,1090.71C 537.392,1091.98 535.884,1093.68 535.013,1095.82C 534.143,1097.96 533.707,1100.17 533.707,1102.44C 533.707,1105.37 534.235,1107.93 535.291,1110.12C 536.347,1112.3 537.988,1113.93 540.213,1115.02C 542.439,1116.1 544.851,1116.64 547.45,1116.64C 550.602,1116.64 553.272,1115.9 555.462,1114.43C 557.652,1112.96 559.133,1110.77 559.907,1107.87 Z "/>
		<path fill="#000000" fill-opacity="1" stroke-linejoin="round" d="M 574.254,1120L 574.254,1085.44L 593.874,1085.44C 597.708,1085.44 600.622,1085.75 602.617,1086.37C 604.612,1086.98 606.205,1088.07 607.398,1089.64C 608.59,1091.2 609.186,1092.93 609.186,1094.82C 609.186,1097.25 608.199,1099.3 606.223,1100.97C 604.248,1102.64 601.197,1103.71 597.071,1104.16C 598.592,1104.74 599.745,1105.32 600.531,1105.89C 602.208,1107.11 603.787,1108.66 605.268,1110.53L 612.734,1120L 605.551,1120L 599.859,1112.76C 598.195,1110.67 596.826,1109.07 595.75,1107.96C 594.675,1106.85 593.712,1106.09 592.861,1105.67C 592.009,1105.25 591.142,1104.96 590.258,1104.8C 589.615,1104.69 588.559,1104.64 587.09,1104.64L 580.492,1104.64L 580.492,1120L 574.254,1120 Z M 580.492,1100.8L 592.724,1100.8C 595.33,1100.8 597.325,1100.58 598.709,1100.15C 600.093,1099.71 601.145,1099.02 601.867,1098.06C 602.588,1097.1 602.948,1096.06 602.948,1094.94C 602.948,1093.29 602.24,1091.93 600.824,1090.87C 599.407,1089.81 597.169,1089.28 594.108,1089.28L 580.492,1089.28L 580.492,1100.8 Z "/>
		<path fill="#000000" fill-opacity="1" stroke-linejoin="round" d="M 619.167,1120L 619.167,1085.44L 651.604,1085.44L 651.604,1089.28L 625.405,1089.28L 625.405,1100.32L 649.733,1100.32L 649.733,1104.16L 625.405,1104.16L 625.405,1116.16L 652.852,1116.16L 652.852,1120L 619.167,1120 Z "/>
		<path fill="#000000" fill-opacity="1" stroke-linejoin="round" d="M 660.961,1120L 660.961,1085.44L 676.293,1085.44C 679.756,1085.44 682.397,1085.61 684.217,1085.94C 686.771,1086.39 688.947,1087.22 690.747,1088.41C 693.099,1089.95 694.857,1091.92 696.02,1094.32C 697.183,1096.71 697.765,1099.45 697.765,1102.53C 697.765,1105.16 697.37,1107.48 696.581,1109.51C 695.791,1111.54 694.779,1113.22 693.544,1114.54C 692.31,1115.87 690.958,1116.92 689.49,1117.68C 688.021,1118.44 686.249,1119.02 684.173,1119.41C 682.097,1119.8 679.714,1120 677.024,1120L 660.961,1120 Z M 667.199,1116.16L 676.507,1116.16C 679.386,1116.16 681.642,1115.94 683.276,1115.51C 684.91,1115.08 686.215,1114.47 687.19,1113.69C 688.554,1112.59 689.618,1111.1 690.382,1109.24C 691.145,1107.37 691.527,1105.11 691.527,1102.46C 691.527,1098.78 690.778,1095.95 689.28,1093.97C 687.783,1091.99 685.965,1090.67 683.827,1090C 682.28,1089.52 679.792,1089.28 676.361,1089.28L 667.199,1089.28L 667.199,1116.16 Z "/>
		<path fill="#000000" fill-opacity="1" stroke-linejoin="round" d="M 705.874,1120L 705.874,1085.44L 738.311,1085.44L 738.311,1089.28L 712.112,1089.28L 712.112,1100.32L 736.44,1100.32L 736.44,1104.16L 712.112,1104.16L 712.112,1116.16L 739.559,1116.16L 739.559,1120L 705.874,1120 Z "/>
		<path fill="#000000" fill-opacity="1" stroke-linejoin="round" d="M 747.668,1120L 747.668,1085.44L 754.276,1085.44L 776.363,1111.54L 776.363,1085.44L 782.601,1085.44L 782.601,1120L 775.992,1120L 753.906,1093.9L 753.906,1120L 747.668,1120 Z "/>
		<path fill="#000000" fill-opacity="1" stroke-linejoin="round" d="M 803.81,1120L 803.81,1089.28L 788.838,1089.28L 788.838,1085.44L 825.018,1085.44L 825.018,1089.28L 810.047,1089.28L 810.047,1120L 803.81,1120 Z "/>
		<rect x="831.88" y="1085.44" fill="#000000" fill-opacity="1" stroke-linejoin="round" width="6.23792" height="34.5601"/>
		<path fill="#000000" fill-opacity="1" stroke-linejoin="round" d="M 842.748,1120L 860.565,1085.44L 867.446,1085.44L 885.263,1120L 878.664,1120L 873.635,1109.44L 854.376,1109.44L 849.346,1120L 842.748,1120 Z M 856.218,1105.6L 871.783,1105.6L 867.348,1096.28C 865.958,1093.38 864.844,1091.05 864.005,1089.28C 863.005,1091.38 861.988,1093.51 860.955,1095.68L 856.218,1105.6 Z "/>
		<path fill="#000000" fill-opacity="1" stroke-linejoin="round" d="M 890.517,1120L 890.517,1085.44L 896.754,1085.44L 896.754,1116.16L 918.587,1116.16L 918.587,1120L 890.517,1120 Z "/>
		<path fill="#000000" fill-opacity="1" stroke-linejoin="round" d="M 923.578,1108L 929.815,1108C 930.069,1109.88 930.654,1111.41 931.57,1112.61C 932.486,1113.81 933.909,1114.78 935.839,1115.53C 937.769,1116.27 939.942,1116.64 942.36,1116.64C 944.497,1116.64 946.387,1116.36 948.027,1115.8C 949.668,1115.23 950.89,1114.46 951.692,1113.48C 952.495,1112.5 952.896,1111.51 952.896,1110.49C 952.896,1109.46 952.511,1108.55 951.741,1107.78C 950.971,1107.01 949.702,1106.35 947.935,1105.8C 946.804,1105.44 944.302,1104.87 940.43,1104.1C 936.557,1103.33 933.763,1102.61 932.047,1101.93C 929.825,1101.07 928.17,1100.01 927.082,1098.73C 925.993,1097.46 925.449,1096.03 925.449,1094.45C 925.449,1092.71 926.087,1091.08 927.364,1089.57C 928.641,1088.06 930.506,1086.92 932.959,1086.13C 935.412,1085.35 938.136,1084.96 941.131,1084.96C 944.439,1084.96 947.353,1085.36 949.874,1086.17C 952.395,1086.97 954.335,1088.16 955.693,1089.72C 957.051,1091.29 957.782,1093.06 957.886,1095.04L 951.648,1095.04C 951.362,1092.98 950.389,1091.43 948.729,1090.38C 947.069,1089.33 944.617,1088.8 941.375,1088.8C 938.003,1088.8 935.545,1089.31 934.002,1090.33C 932.458,1091.36 931.687,1092.59 931.687,1094.04C 931.687,1095.29 932.233,1096.31 933.324,1097.12C 934.396,1097.93 937.2,1098.76 941.736,1099.6C 946.271,1100.45 949.458,1101.19 951.297,1101.81C 953.974,1102.73 955.95,1103.9 957.223,1105.31C 958.497,1106.72 959.134,1108.35 959.134,1110.2C 959.134,1112.02 958.453,1113.74 957.092,1115.36C 955.73,1116.98 953.776,1118.24 951.229,1119.13C 948.682,1120.03 945.813,1120.48 942.623,1120.48C 938.581,1120.48 935.194,1119.99 932.462,1119.02C 929.729,1118.05 927.587,1116.59 926.034,1114.63C 924.481,1112.68 923.662,1110.47 923.578,1108 Z "/>
	</g>
	<g>
		<path fill="#FFFFFF" fill-opacity="1" stroke-width="0.2" stroke-linejoin="round" d="M 79.7885,1000.67L 104.436,1000.67L 104.436,1005.58L 79.7885,1005.58C 74.8616,1005.58 72.3982,1007.22 72.3982,1010.49L 72.3982,1025.19C 72.3982,1028.46 74.8616,1030.09 79.7885,1030.09L 104.436,1030.09L 104.436,1035L 79.7885,1035C 71.5753,1035 67.4687,1031.73 67.4687,1025.2L 67.4687,1010.48C 67.4687,1003.94 71.5753,1000.67 79.7885,1000.67 Z "/>
		<path fill="#FFFFFF" fill-opacity="1" stroke-width="0.2" stroke-linejoin="round" d="M 134.013,1005.58L 109.365,1005.58L 109.365,1000.67L 134.013,1000.67C 142.226,1000.67 146.333,1003.93 146.333,1010.45C 146.333,1016.96 142.226,1020.22 134.013,1020.22L 132.554,1020.22L 147.342,1035L 140.394,1035L 125.605,1020.22L 114.295,1020.22L 114.295,1035L 109.365,1035L 109.365,1015.31L 134.013,1015.31C 138.94,1015.31 141.403,1013.69 141.403,1010.45C 141.403,1007.2 138.94,1005.58 134.013,1005.58 Z "/>
		<path fill="#FFFFFF" fill-opacity="1" stroke-width="0.2" stroke-linejoin="round" d="M 162.32,1000.67L 186.968,1000.67L 186.968,1005.58L 162.32,1005.58C 157.393,1005.58 154.93,1007.2 154.93,1010.45L 154.93,1015.31L 186.968,1015.31L 186.968,1020.22L 154.93,1020.22L 154.93,1025.16C 154.93,1028.45 157.393,1030.09 162.32,1030.09L 186.968,1030.09L 186.968,1035L 162.32,1035C 154.107,1035 150,1031.73 150,1025.2L 150,1010.48C 150,1003.94 154.107,1000.67 162.32,1000.67 Z "/>
		<path fill="#FFFFFF" fill-opacity="1" stroke-width="0.2" stroke-linejoin="round" d="M 191.897,1025.2L 191.897,1000.67L 196.826,1000.67L 196.826,1025.19C 196.826,1028.46 199.29,1030.09 204.217,1030.09C 209.149,1030.09 211.615,1028.46 211.615,1025.19L 211.615,1000.67L 216.544,1000.67L 216.544,1025.19C 216.544,1028.46 219.008,1030.09 223.935,1030.09C 228.867,1030.09 231.333,1028.46 231.333,1025.19L 231.333,1000.67L 236.262,1000.67L 236.262,1025.2C 236.262,1031.73 232.153,1035 223.935,1035C 219.402,1035 216.116,1034 214.076,1032C 212.041,1034 208.755,1035 204.217,1035C 196.004,1035 191.897,1031.73 191.897,1025.2 Z "/>
		<path fill="#FFFFFF" fill-opacity="1" stroke-width="0.2" stroke-linejoin="round" d="M 276.109,1000.67C 284.322,1000.67 288.428,1003.94 288.428,1010.48L 288.428,1035L 283.499,1035L 283.499,1022.74L 256.391,1022.74L 256.391,1035L 251.461,1035L 251.461,1010.48C 251.461,1003.94 255.568,1000.67 263.781,1000.67L 276.109,1000.67 Z M 283.499,1010.49C 283.499,1007.22 281.035,1005.58 276.109,1005.58L 263.781,1005.58C 258.854,1005.58 256.391,1007.22 256.391,1010.49L 256.391,1017.84L 283.499,1017.84L 283.499,1010.49 Z "/>
		<path fill="#FFFFFF" fill-opacity="1" stroke-width="0.2" stroke-linejoin="round" d="M 305.678,1000.67L 330.325,1000.67L 330.325,1005.58L 305.678,1005.58C 300.751,1005.58 298.287,1007.22 298.287,1010.49L 298.287,1025.19C 298.287,1028.46 300.751,1030.09 305.678,1030.09L 330.325,1030.09L 330.325,1035L 305.678,1035C 297.464,1035 293.358,1031.73 293.358,1025.2L 293.358,1010.48C 293.358,1003.94 297.464,1000.67 305.678,1000.67 Z "/>
		<path fill="#FFFFFF" fill-opacity="1" stroke-width="0.2" stroke-linejoin="round" d="M 345.05,1000.67L 369.698,1000.67L 369.698,1005.58L 345.05,1005.58C 340.124,1005.58 337.66,1007.22 337.66,1010.49L 337.66,1025.19C 337.66,1028.46 340.124,1030.09 345.05,1030.09L 369.698,1030.09L 369.698,1035L 345.05,1035C 336.837,1035 332.731,1031.73 332.731,1025.2L 332.731,1010.48C 332.731,1003.94 336.837,1000.67 345.05,1000.67 Z "/>
		<path fill="#FFFFFF" fill-opacity="1" stroke-width="0.2" stroke-linejoin="round" d="M 384.423,1000.67L 409.071,1000.67L 409.071,1005.58L 384.423,1005.58C 379.496,1005.58 377.033,1007.2 377.033,1010.45L 377.033,1015.31L 409.071,1015.31L 409.071,1020.22L 377.033,1020.22L 377.033,1025.16C 377.033,1028.45 379.496,1030.09 384.423,1030.09L 409.071,1030.09L 409.071,1035L 384.423,1035C 376.21,1035 372.104,1031.73 372.104,1025.2L 372.104,1010.48C 372.104,1003.94 376.21,1000.67 384.423,1000.67 Z "/>
		<path fill="#FFFFFF" fill-opacity="1" stroke-width="0.2" stroke-linejoin="round" d="M 425.058,1000.67L 449.706,1000.67L 449.706,1005.58L 425.058,1005.58C 420.131,1005.58 417.668,1007.22 417.668,1010.49C 417.668,1012.61 423.007,1014.37 433.687,1015.76C 444.366,1017.14 449.706,1020.29 449.706,1025.2C 449.706,1031.73 445.599,1035 437.386,1035L 412.738,1035L 412.738,1030.09L 437.386,1030.09C 442.313,1030.09 444.776,1028.46 444.776,1025.19C 444.776,1023.06 439.436,1021.31 428.757,1019.92C 418.078,1018.53 412.738,1015.38 412.738,1010.48C 412.738,1003.94 416.845,1000.67 425.058,1000.67 Z "/>
		<path fill="#FFFFFF" fill-opacity="1" stroke-width="0.2" stroke-linejoin="round" d="M 464.431,1000.67L 489.078,1000.67L 489.078,1005.58L 464.431,1005.58C 459.504,1005.58 457.041,1007.22 457.041,1010.49C 457.041,1012.61 462.38,1014.37 473.06,1015.76C 483.739,1017.14 489.078,1020.29 489.078,1025.2C 489.078,1031.73 484.972,1035 476.759,1035L 452.111,1035L 452.111,1030.09L 476.759,1030.09C 481.686,1030.09 484.149,1028.46 484.149,1025.19C 484.149,1023.06 478.809,1021.31 468.13,1019.92C 457.451,1018.53 452.111,1015.38 452.111,1010.48C 452.111,1003.94 456.218,1000.67 464.431,1000.67 Z "/>
	</g>
	<g>
		<path fill="#4099EC" fill-opacity="1" stroke-width="0.2" stroke-linejoin="round" d="M 809.618,1000.06L 819.02,1000.06L 819.02,1024.22L 809.618,1024.22L 809.618,1000.06 Z M 822.03,1010.84L 831.307,1010.84L 831.307,1024.22L 822.03,1024.22L 822.03,1010.84 Z M 834.317,1010.84L 843.719,1010.84L 843.719,1035L 834.317,1035L 834.317,1010.84 Z "/>
		<path fill="#4099EC" fill-opacity="1" stroke-width="0.2" stroke-linejoin="round" d="M 898.916,999.837L 864.821,1035L 852.991,1035L 878.062,1008.95L 878.062,1008.34L 847.976,1008.34L 855.335,999.837L 898.916,999.837 Z "/>
		<path fill="#4099EC" fill-opacity="1" stroke-width="0.2" stroke-linejoin="round" d="M 961.804,999.803L 961.804,1007.9L 955.576,1007.9L 955.576,1035L 947.14,1035L 947.14,1007.9L 945.965,1007.9L 931.092,1035L 920.266,1035L 900.757,999.803L 911.243,999.803L 925.783,1024.98L 939.867,999.803L 961.804,999.803 Z "/>
		<path fill="#4099EC" fill-opacity="1" stroke-width="0.2" stroke-linejoin="round" d="M 1022.69,1000.35L 1023.02,1000.92L 1023.27,1002.23L 1023.27,1032.83L 1023.06,1033.95L 1022.73,1034.56L 1021.89,1034.79L 1020.3,1035L 967.028,1035L 965.356,1034.85L 964.52,1034.46L 964.187,1033.73L 963.933,1032.65L 963.933,1002.23L 964.142,1001.14L 964.481,1000.35L 965.317,999.984L 966.904,999.911L 1020.3,999.911L 1021.98,1000.09L 1022.69,1000.35 Z M 1015.21,1026.5L 1015.21,1007.94L 973.126,1007.94L 973.126,1026.5L 1015.21,1026.5 Z "/>
	</g>
	<rect x="352" y="1163.97" fill="#D8DEE3" fill-opacity="1" stroke-width="0.2" stroke-linejoin="round" stroke="#30373D" stroke-opacity="1" width="192" height="20.0334"/>
	<rect x="64" y="1164" fill="#4099EC" fill-opacity="1" stroke-width="0.2" stroke-linejoin="round" width="273" height="20"/>
	<rect x="864" y="1163.97" fill="none" stroke-linejoin="round" stroke="#D8DEE3" stroke-opacity="1" width="128" height="20.0334"/>
	<rect x="999" y="1163.97" fill="none" stroke-linejoin="round" stroke="#D8DEE3" stroke-opacity="1" width="0.262207" height="20.0334"/>
	<path fill="none" stroke-width="4" stroke-linejoin="round" stroke="#FFFFFF" stroke-opacity="1" d="M 86,109L 596,109L 662,49.0001L 992,49.0001"/>
	<g>
		<path fill="#D8DEE3" fill-opacity="1" stroke-width="0.2" stroke-linejoin="round" d="M 33.2536,301.677L 38.6884,301.677L 38.6884,315.644L 33.2536,315.644L 33.2536,301.677 Z M 40.4283,307.907L 45.7913,307.907L 45.7913,315.644L 40.4283,315.644L 40.4283,307.907 Z M 47.5312,307.907L 52.9659,307.907L 52.9659,321.875L 47.5312,321.875L 47.5312,307.907 Z "/>
		<path fill="#D8DEE3" fill-opacity="1" stroke-width="0.2" stroke-linejoin="round" d="M 84.8725,301.549L 65.1639,321.875L 58.3252,321.875L 72.8179,306.819L 72.8179,306.463L 55.4267,306.463L 59.6801,301.549L 84.8725,301.549 Z "/>
		<path fill="#D8DEE3" fill-opacity="1" stroke-width="0.2" stroke-linejoin="round" d="M 121.225,301.53L 121.225,306.212L 117.624,306.212L 117.624,321.875L 112.748,321.875L 112.748,306.212L 112.069,306.212L 103.471,321.875L 97.2139,321.875L 85.9368,301.53L 91.998,301.53L 100.403,316.082L 108.544,301.53L 121.225,301.53 Z "/>
		<path fill="#D8DEE3" fill-opacity="1" stroke-width="0.2" stroke-linejoin="round" d="M 156.419,301.843L 156.611,302.177L 156.755,302.931L 156.755,320.62L 156.634,321.267L 156.441,321.624L 155.958,321.751L 155.041,321.875L 124.244,321.875L 123.278,321.79L 122.795,321.562L 122.602,321.143L 122.455,320.516L 122.455,302.931L 122.576,302.304L 122.772,301.843L 123.255,301.634L 124.173,301.592L 155.041,301.592L 156.007,301.696L 156.419,301.843 Z M 152.094,316.961L 152.094,306.234L 127.769,306.234L 127.769,316.961L 152.094,316.961 Z "/>
		<path fill="#D8DEE3" fill-opacity="1" stroke-width="0.2" stroke-linejoin="round" d="M 33.4008,327.688L 38.8582,327.688L 38.8582,331.684L 53.6151,331.684L 61.152,327.688L 72.1197,327.688L 53.6151,336.389L 33.4008,336.389L 33.4008,327.688 Z M 33.4008,339.316L 54.2189,339.316L 72.3612,348.014L 62.0956,348.014L 53.2075,344.021L 38.7865,344.021L 38.7865,348.014L 33.4008,348.014L 33.4008,339.316 Z "/>
		<path fill="#D8DEE3" fill-opacity="1" stroke-width="0.2" stroke-linejoin="round" d="M 74.0747,327.815L 79.5094,327.815L 79.5094,341.783L 74.0747,341.783L 74.0747,327.815 Z M 81.2493,334.046L 86.6123,334.046L 86.6123,341.783L 81.2493,341.783L 81.2493,334.046 Z M 88.3522,334.046L 93.787,334.046L 93.787,348.014L 88.3522,348.014L 88.3522,334.046 Z "/>
		<path fill="#D8DEE3" fill-opacity="1" stroke-width="0.2" stroke-linejoin="round" d="M 95.8137,327.815L 101.248,327.815L 101.248,341.783L 95.8137,341.783L 95.8137,327.815 Z M 102.988,334.046L 108.351,334.046L 108.351,341.783L 102.988,341.783L 102.988,334.046 Z M 110.091,334.046L 115.526,334.046L 115.526,348.014L 110.091,348.014L 110.091,334.046 Z "/>
		<path fill="#D8DEE3" fill-opacity="1" stroke-width="0.2" stroke-linejoin="round" d="M 152.384,327.668L 152.384,332.35L 148.784,332.35L 148.784,348.014L 143.907,348.014L 143.907,332.35L 143.228,332.35L 134.631,348.014L 128.373,348.014L 117.096,327.668L 123.157,327.668L 131.562,342.221L 139.703,327.668L 152.384,327.668 Z "/>
		<path fill="#D8DEE3" fill-opacity="1" stroke-width="0.2" stroke-linejoin="round" d="M 164.752,327.688L 182.6,343.185L 182.6,327.688L 187.627,327.688L 187.627,348.014L 180.743,348.014L 157.238,327.688L 164.752,327.688 Z M 155.283,338.352L 173.542,344.083L 171.927,348.014L 153.592,342.387L 155.283,338.352 Z "/>
		<path fill="#D8DEE3" fill-opacity="1" stroke-width="0.2" stroke-linejoin="round" d="M 200.501,327.688L 218.348,343.185L 218.348,327.688L 223.376,327.688L 223.376,348.014L 216.492,348.014L 192.986,327.688L 200.501,327.688 Z M 191.031,338.352L 209.291,344.083L 207.675,348.014L 189.34,342.387L 191.031,338.352 Z "/>
	</g>
</svg>
