<?xml version="1.0" encoding="utf-8"?>
<!DOCTYPE svg PUBLIC "-//W3C//DTD SVG 1.1//EN" "http://www.w3.org/Graphics/SVG/1.1/DTD/svg11.dtd">
<svg xmlns="http://www.w3.org/2000/svg" xmlns:xlink="http://www.w3.org/1999/xlink" version="1.1" baseProfile="full" width="3840" height="2160" viewBox="0 0 3840.00 2160.00" enable-background="new 0 0 3840.00 2160.00" xml:space="preserve">
	<path fill="#030409" fill-opacity="1" fill-rule="evenodd" stroke-linejoin="round" stroke="#000000" stroke-opacity="1" d="M -0.154898,-0.000244141L 3839.68,-0.000244141L 3840,2160L 0.165197,2160L -0.154898,-0.000244141 Z "/>
	<path fill="none" stroke-width="16" stroke-linejoin="round" stroke="#05408F" stroke-opacity="0.803922" d="M 2688,1312C 2688,1312 2336,1344 2240,1536C 2144,1728 2144,1792 2048,1856C 1952,1920 1920,1888 1920,1888C 1920,1888 1888,1824 1888,1760C 1888,1696 1797.27,1637.18 1711,1653C 1651,1664 1312,1806 1184,1774C 1056,1742 907,1504 764,1480C 664.203,1463.25 491,1493 491,1493"/>
	<path fill="none" stroke-width="16" stroke-linejoin="round" stroke="#05408F" stroke-opacity="0.803922" d="M 2976,2208C 2976,2208 1899.15,987.056 1792,864C 1664,717 1504,416 1664,-128"/>
	<line fill="none" stroke-width="2" stroke-linejoin="round" stroke="#1B56E3" stroke-opacity="0.603922" x1="259" y1="-0.000244141" x2="259" y2="2160"/>
	<line fill="none" stroke-width="2" stroke-linejoin="round" stroke="#1B56E3" stroke-opacity="0.603922" x1="658.333" y1="-0.000244141" x2="658.333" y2="2160"/>
	<line fill="none" stroke-width="2" stroke-linejoin="round" stroke="#1B56E3" stroke-opacity="0.603922" x1="1057.67" y1="-0.000244141" x2="1057.67" y2="2160"/>
	<line fill="none" stroke-width="2" stroke-linejoin="round" stroke="#1B56E3" stroke-opacity="0.603922" x1="1457" y1="-0.000244141" x2="1457" y2="2160"/>
	<line fill="none" stroke-width="2" stroke-linejoin="round" stroke="#1B56E3" stroke-opacity="0.603922" x1="1856.33" y1="-0.000244141" x2="1856.33" y2="2160"/>
	<line fill="none" stroke-width="2" stroke-linejoin="round" stroke="#1B56E3" stroke-opacity="0.603922" x1="2255.67" y1="-0.000244141" x2="2255.67" y2="2160"/>
	<line fill="none" stroke-width="2" stroke-linejoin="round" stroke="#1B56E3" stroke-opacity="0.603922" x1="2655" y1="-0.000244141" x2="2655" y2="2160"/>
	<line fill="none" stroke-width="2" stroke-linejoin="round" stroke="#1B56E3" stroke-opacity="0.603922" x1="3054.33" y1="-0.000244141" x2="3054.33" y2="2160"/>
	<line fill="none" stroke-width="2" stroke-linejoin="round" stroke="#1B56E3" stroke-opacity="0.603922" x1="3453.67" y1="-0.000244141" x2="3453.67" y2="2160"/>
	<line fill="none" stroke-width="2" stroke-linejoin="round" stroke="#1B56E3" stroke-opacity="0.603922" x1="3840" y1="1923.33" x2="0" y2="1923.33"/>
	<g>
		<path fill="#DCFF85" fill-opacity="1" stroke-width="0.2" stroke-linejoin="round" d="M 1969.03,1156.33L 1991,1110.59L 2018.95,1110.59L 2018.95,1161.73L 1995.35,1161.73L 1995.35,1148.56L 2007.39,1148.56L 2007.39,1123.76L 1997.59,1123.76L 1978.89,1162.51L 1969.03,1156.33 Z "/>
		<path fill="#DCFF85" fill-opacity="1" stroke-width="0.2" stroke-linejoin="round" d="M 2073.37,1110.59L 2073.37,1145.23L 2058.83,1161.73L 2028.48,1161.73L 2028.48,1110.59L 2073.37,1110.59 Z M 2061.8,1123.76L 2040.04,1123.76L 2040.04,1148.56L 2054.13,1148.56L 2061.8,1139.77L 2061.8,1123.76 Z "/>
		<rect x="2082.89" y="1110.59" fill="#DCFF85" fill-opacity="1" stroke-width="0.2" stroke-linejoin="round" width="11.563" height="51.1471"/>
		<path fill="#DCFF85" fill-opacity="1" stroke-width="0.2" stroke-linejoin="round" d="M 2115.54,1123.76L 2115.54,1161.73L 2103.97,1161.73L 2103.97,1110.59L 2134.33,1110.59L 2148.86,1127.09L 2148.86,1161.73L 2137.3,1161.73L 2137.3,1132.73L 2129.63,1123.76L 2115.54,1123.76 Z "/>
		<path fill="#DCFF85" fill-opacity="1" stroke-width="0.2" stroke-linejoin="round" d="M 2154.71,1156.33L 2176.69,1110.59L 2204.64,1110.59L 2204.64,1161.73L 2181.03,1161.73L 2181.03,1148.56L 2193.07,1148.56L 2193.07,1123.76L 2183.28,1123.76L 2164.57,1162.51L 2154.71,1156.33 Z "/>
		<path fill="#DCFF85" fill-opacity="1" stroke-width="0.2" stroke-linejoin="round" d="M 2215.52,1142.08L 2225.21,1130.78L 2214.29,1118.15L 2222.18,1109.04L 2243.33,1133.51L 2248.85,1127.04L 2248.85,1110.44L 2260.41,1110.44L 2260.41,1132.42L 2251.59,1142.55L 2261.63,1154.17L 2253.75,1163.28L 2233.62,1139.9L 2227.08,1147.38L 2227.08,1161.88L 2215.52,1161.88L 2215.52,1142.08 Z "/>
		<path fill="#DCFF85" fill-opacity="1" stroke-width="0.2" stroke-linejoin="round" d="M 2310.06,1123.76L 2310.06,1161.73L 2298.5,1161.73L 2298.5,1110.59L 2328.85,1110.59L 2343.39,1127.09L 2343.39,1161.73L 2331.83,1161.73L 2331.83,1132.73L 2324.15,1123.76L 2310.06,1123.76 Z "/>
		<path fill="#DCFF85" fill-opacity="1" stroke-width="0.2" stroke-linejoin="round" d="M 2397.8,1143.13L 2397.8,1110.59L 2352.91,1110.59L 2352.91,1161.73L 2397.8,1161.73L 2397.8,1148.56L 2364.47,1148.56L 2364.47,1122.99L 2386.24,1122.99L 2386.24,1129.96L 2376.99,1129.96L 2376.99,1143.13L 2397.8,1143.13 Z "/>
		<path fill="#DCFF85" fill-opacity="1" stroke-width="0.2" stroke-linejoin="round" d="M 2442.32,1118.75L 2432.8,1129.19L 2450.17,1129.19L 2450.17,1161.73L 2407.32,1161.73L 2407.32,1110.59L 2442.32,1110.59L 2442.32,1118.75 Z M 2418.89,1148.56L 2438.61,1148.56L 2438.61,1142.36L 2418.89,1142.36L 2418.89,1148.56 Z M 2425.38,1122.21L 2418.89,1122.21L 2418.79,1129.73L 2425.38,1122.21 Z "/>
		<path fill="#DCFF85" fill-opacity="1" stroke-width="0.2" stroke-linejoin="round" d="M 2493.02,1148.56L 2493.02,1110.59L 2504.59,1110.59L 2504.59,1161.73L 2474.23,1161.73L 2459.7,1145.23L 2459.7,1110.59L 2471.26,1110.59L 2471.26,1139.59L 2478.93,1148.56L 2493.02,1148.56 Z "/>
		<path fill="#DCFF85" fill-opacity="1" stroke-width="0.2" stroke-linejoin="round" d="M 2514.11,1161.73L 2514.11,1110.59L 2525.67,1110.59L 2525.67,1148.56L 2555.52,1148.56L 2555.52,1161.73L 2514.11,1161.73 Z "/>
		<path fill="#DCFF85" fill-opacity="1" stroke-width="0.2" stroke-linejoin="round" d="M 2561.44,1156.33L 2583.42,1110.59L 2611.37,1110.59L 2611.37,1161.73L 2587.77,1161.73L 2587.77,1148.56L 2599.81,1148.56L 2599.81,1123.76L 2590.01,1123.76L 2571.31,1162.51L 2561.44,1156.33 Z "/>
	</g>
	<g>
		<path fill="none" stroke-width="15" stroke-linejoin="round" stroke="#4E9AFB" stroke-opacity="1" d="M 3569.03,743C 3612.65,743 3648,777.249 3648,819.5C 3648,861.75 3612.65,896 3569.03,896C 3525.42,896 3490.06,861.75 3490.06,819.5C 3490.06,777.249 3525.42,743 3569.03,743 Z "/>
		<line fill="none" stroke-width="15" stroke-linejoin="round" stroke="#4E9AFB" stroke-opacity="1" x1="3623" y1="874" x2="3519" y2="764"/>
		<line fill="none" stroke-width="15" stroke-linejoin="round" stroke="#4E9AFB" stroke-opacity="1" x1="3625" y1="766" x2="3515" y2="870"/>
		<path fill="#030409" fill-opacity="1" stroke-width="15" stroke-linejoin="round" stroke="#4E9AFB" stroke-opacity="1" d="M 3569.03,782.203C 3590.3,782.203 3607.53,798.901 3607.53,819.5C 3607.53,840.099 3590.3,856.797 3569.03,856.797C 3547.77,856.797 3530.53,840.099 3530.53,819.5C 3530.53,798.901 3547.77,782.203 3569.03,782.203 Z "/>
	</g>
	<line fill="none" stroke-width="2" stroke-linejoin="round" stroke="#1B56E3" stroke-opacity="0.603922" x1="3840" y1="1571" x2="0" y2="1571"/>
	<line fill="none" stroke-width="2" stroke-linejoin="round" stroke="#1B56E3" stroke-opacity="0.603922" x1="3840" y1="1216" x2="0" y2="1216"/>
	<line fill="none" stroke-width="2" stroke-linejoin="round" stroke="#1B56E3" stroke-opacity="0.603922" x1="3840" y1="863.668" x2="0" y2="863.668"/>
	<line fill="none" stroke-width="2" stroke-linejoin="round" stroke="#1B56E3" stroke-opacity="0.603922" x1="3840" y1="508.668" x2="0" y2="508.668"/>
	<line fill="none" stroke-width="2" stroke-linejoin="round" stroke="#1B56E3" stroke-opacity="0.603922" x1="3840" y1="157" x2="0" y2="157"/>
	<path fill="#378AFB" fill-opacity="1" stroke-width="0.2" stroke-linejoin="round" stroke="#4E9AFB" stroke-opacity="1" d="M 1668.97,768.5C 1687.21,768.5 1702,782.827 1702,800.5C 1702,818.174 1687.21,832.5 1668.97,832.5C 1650.73,832.5 1635.94,818.174 1635.94,800.5C 1635.94,782.827 1650.73,768.5 1668.97,768.5 Z "/>
	<path fill="none" stroke-width="8" stroke-linejoin="round" stroke="#4E9AFB" stroke-opacity="1" d="M 1668.97,750C 1697.76,750 1721.1,772.61 1721.1,800.501C 1721.1,828.391 1697.76,851.001 1668.97,851.001C 1640.18,851.001 1616.84,828.391 1616.84,800.501C 1616.84,772.61 1640.18,750 1668.97,750 Z "/>
	<path fill="none" stroke-width="8" stroke-linejoin="round" stroke="#4E9AFB" stroke-opacity="1" d="M 1668.97,724C 1712.58,724 1747.94,758.249 1747.94,800.5C 1747.94,842.75 1712.58,877 1668.97,877C 1625.35,877 1590,842.75 1590,800.5C 1590,758.249 1625.35,724 1668.97,724 Z "/>
	<path fill="#378AFB" fill-opacity="1" stroke-width="0.2" stroke-linejoin="round" stroke="#4E9AFB" stroke-opacity="1" d="M 1766.97,1497.5C 1785.21,1497.5 1800,1511.83 1800,1529.5C 1800,1547.17 1785.21,1561.5 1766.97,1561.5C 1748.73,1561.5 1733.94,1547.17 1733.94,1529.5C 1733.94,1511.83 1748.73,1497.5 1766.97,1497.5 Z "/>
	<path fill="none" stroke-width="8" stroke-linejoin="round" stroke="#4E9AFB" stroke-opacity="1" d="M 1766.97,1479C 1795.76,1479 1819.1,1501.61 1819.1,1529.5C 1819.1,1557.39 1795.76,1580 1766.97,1580C 1738.18,1580 1714.84,1557.39 1714.84,1529.5C 1714.84,1501.61 1738.18,1479 1766.97,1479 Z "/>
	<path fill="none" stroke-width="8" stroke-linejoin="round" stroke="#4E9AFB" stroke-opacity="1" d="M 1766.97,1453C 1810.58,1453 1845.94,1487.25 1845.94,1529.5C 1845.94,1571.75 1810.58,1606 1766.97,1606C 1723.35,1606 1688,1571.75 1688,1529.5C 1688,1487.25 1723.35,1453 1766.97,1453 Z "/>
	<path fill="#378AFB" fill-opacity="1" stroke-width="0.2" stroke-linejoin="round" stroke="#4E9AFB" stroke-opacity="1" d="M 1349,996C 1367.24,996 1382.03,1010.33 1382.03,1028C 1382.03,1045.67 1367.24,1060 1349,1060C 1330.76,1060 1315.97,1045.67 1315.97,1028C 1315.97,1010.33 1330.76,996 1349,996 Z "/>
	<path fill="#378AFB" fill-opacity="1" stroke-width="0.2" stroke-linejoin="round" stroke="#4E9AFB" stroke-opacity="1" d="M 1638.97,1244C 1657.21,1244 1672,1258.33 1672,1276C 1672,1293.67 1657.21,1308 1638.97,1308C 1620.72,1308 1605.94,1293.67 1605.94,1276C 1605.94,1258.33 1620.72,1244 1638.97,1244 Z "/>
	<path fill="#378AFB" fill-opacity="1" stroke-width="0.2" stroke-linejoin="round" stroke="#4E9AFB" stroke-opacity="1" d="M 1935.03,1478C 1953.28,1478 1968.06,1492.33 1968.06,1510C 1968.06,1527.67 1953.28,1542 1935.03,1542C 1916.79,1542 1902,1527.67 1902,1510C 1902,1492.33 1916.79,1478 1935.03,1478 Z "/>
	<path fill="#378AFB" fill-opacity="1" stroke-width="0.2" stroke-linejoin="round" stroke="#4E9AFB" stroke-opacity="1" d="M 1962.03,1611C 1980.28,1611 1995.06,1625.33 1995.06,1643C 1995.06,1660.67 1980.28,1675 1962.03,1675C 1943.79,1675 1929,1660.67 1929,1643C 1929,1625.33 1943.79,1611 1962.03,1611 Z "/>
	<path fill="#378AFB" fill-opacity="1" stroke-width="0.2" stroke-linejoin="round" stroke="#4E9AFB" stroke-opacity="1" d="M 1936.03,1691C 1954.28,1691 1969.06,1705.33 1969.06,1723C 1969.06,1740.67 1954.28,1755 1936.03,1755C 1917.79,1755 1903,1740.67 1903,1723C 1903,1705.33 1917.79,1691 1936.03,1691 Z "/>
	<path fill="#378AFB" fill-opacity="1" stroke-width="0.2" stroke-linejoin="round" stroke="#4E9AFB" stroke-opacity="1" d="M 2293.97,1556C 2312.21,1556 2327,1570.33 2327,1588C 2327,1605.67 2312.21,1620 2293.97,1620C 2275.72,1620 2260.94,1605.67 2260.94,1588C 2260.94,1570.33 2275.72,1556 2293.97,1556 Z "/>
	<path fill="#378AFB" fill-opacity="1" stroke-width="0.2" stroke-linejoin="round" stroke="#4E9AFB" stroke-opacity="1" d="M 2450.03,1818C 2468.28,1818 2483.06,1832.33 2483.06,1850C 2483.06,1867.67 2468.28,1882 2450.03,1882C 2431.79,1882 2417,1867.67 2417,1850C 2417,1832.33 2431.79,1818 2450.03,1818 Z "/>
	<path fill="#378AFB" fill-opacity="1" stroke-width="0.2" stroke-linejoin="round" stroke="#4E9AFB" stroke-opacity="1" d="M 3607.03,1172C 3625.28,1172 3640.06,1186.33 3640.06,1204C 3640.06,1221.67 3625.28,1236 3607.03,1236C 3588.79,1236 3574,1221.67 3574,1204C 3574,1186.33 3588.79,1172 3607.03,1172 Z "/>
	<path fill="#378AFB" fill-opacity="1" stroke-width="0.2" stroke-linejoin="round" stroke="#4E9AFB" stroke-opacity="1" d="M 410.968,1461C 429.211,1461 444,1475.33 444,1493C 444,1510.67 429.211,1525 410.968,1525C 392.724,1525 377.936,1510.67 377.936,1493C 377.936,1475.33 392.724,1461 410.968,1461 Z "/>
	<path fill="none" stroke-width="20" stroke-linejoin="round" stroke="#DCFF85" stroke-opacity="1" d="M 3314,1549C 3314,1549 3386,1625 3514,1625C 3642,1625 3930,1721 3930,1753"/>
	<path fill="none" stroke-width="19" stroke-linejoin="round" stroke="#1C79D4" stroke-opacity="0.803922" d="M 3166.39,2437.18C 3166.39,2437.18 3107.29,1068.84 2575.07,-19.0247"/>
	<g>
		<path fill="#DCFF85" fill-opacity="1" stroke-width="24" stroke-linejoin="round" stroke="#DCFF85" stroke-opacity="1" d="M 2768.17,1018.41L 2768.17,1082.92L 2848.85,1018.41L 2768.17,1018.41 Z "/>
		<path fill="none" stroke-width="24" stroke-linejoin="round" stroke="#DCFF85" stroke-opacity="1" d="M 2683,941L 2763.44,941L 3324,941L 3324,1556L 2683,1556L 2683,1005.29L 2683,941 Z "/>
		<rect x="2768.17" y="1018.41" fill="none" stroke-width="24" stroke-linejoin="round" stroke="#DCFF85" stroke-opacity="1" width="466.181" height="455.874"/>
		<path fill="#DCFF85" fill-opacity="1" stroke-width="24" stroke-linejoin="round" stroke="#DCFF85" stroke-opacity="1" d="M 3230.09,1465.91L 3230.09,1401.4L 3149.41,1465.91L 3230.09,1465.91 Z "/>
		<ellipse fill="#030409" fill-opacity="1" stroke-width="24" stroke-linejoin="round" stroke="#DCFF85" stroke-opacity="1" cx="3006.19" cy="1247.64" rx="134.474" ry="124.72"/>
		<ellipse fill="#DCFF85" fill-opacity="1" stroke-width="0.2" stroke-linejoin="round" cx="3005.74" cy="1246.35" rx="80.6857" ry="77.4127"/>
	</g>
	<path fill="none" stroke-width="20" stroke-linejoin="round" stroke="#DCFF85" stroke-opacity="1" d="M 416,-63.9998C 416,-63.9998 1792,576 1888,672C 1984,768 2125.44,859.027 2349,873C 2509,883 2688,992 2688,992"/>
	<g>
		<path fill="#378AFB" fill-opacity="1" stroke-width="0.2" stroke-linejoin="round" d="M 1493.48,1502.06L 1493.48,1479.41L 1462.31,1479.41L 1462.31,1515L 1493.48,1515L 1493.48,1505.83L 1470.34,1505.83L 1470.34,1488.04L 1485.45,1488.04L 1485.45,1492.89L 1479.03,1492.89L 1479.03,1502.06L 1493.48,1502.06 Z "/>
		<path fill="#378AFB" fill-opacity="1" stroke-width="0.2" stroke-linejoin="round" d="M 1508.12,1488.58L 1508.12,1515L 1500.09,1515L 1500.09,1479.41L 1521.17,1479.41L 1531.27,1490.89L 1531.27,1515L 1523.24,1515L 1523.24,1494.82L 1517.91,1488.58L 1508.12,1488.58 Z "/>
		<path fill="#378AFB" fill-opacity="1" stroke-width="0.2" stroke-linejoin="round" d="M 1569.06,1479.41L 1569.06,1503.51L 1558.96,1515L 1537.88,1515L 1537.88,1479.41L 1569.06,1479.41 Z M 1561.03,1488.58L 1545.91,1488.58L 1545.91,1505.83L 1555.7,1505.83L 1561.03,1499.71L 1561.03,1488.58 Z "/>
		<path fill="#378AFB" fill-opacity="1" stroke-width="0.2" stroke-linejoin="round" d="M 1606.85,1479.41L 1606.85,1515L 1575.67,1515L 1575.67,1479.41L 1606.85,1479.41 Z M 1598.82,1488.58L 1583.7,1488.58L 1583.7,1505.83L 1598.82,1505.83L 1598.82,1488.58 Z "/>
		<path fill="#378AFB" fill-opacity="1" stroke-width="0.2" stroke-linejoin="round" d="M 1613.46,1515L 1613.46,1479.41L 1643.22,1479.41L 1643.22,1501.52L 1631.37,1501.52L 1643.22,1515L 1633.28,1515L 1621.49,1501.63L 1621.49,1515L 1613.46,1515 Z M 1635.19,1488.58L 1621.49,1488.58L 1621.49,1492.35L 1635.19,1492.35L 1635.19,1488.58 Z "/>
	</g>
	<g>
		<path fill="#378AFB" fill-opacity="1" stroke-width="0.2" stroke-linejoin="round" d="M 1468.87,1534.65L 1468.87,1541.63L 1464.09,1541.63L 1464.09,1565L 1457.59,1565L 1457.59,1541.63L 1456.72,1541.63L 1445.38,1565L 1437.06,1565L 1422.2,1534.65L 1430.19,1534.65L 1441.29,1556.36L 1452.05,1534.65L 1468.87,1534.65 Z "/>
		<path fill="#378AFB" fill-opacity="1" stroke-width="0.2" stroke-linejoin="round" d="M 1481.6,1559.14L 1482.36,1559.07L 1495.64,1534.68L 1503.96,1534.68L 1521.66,1565L 1513.47,1565L 1499.87,1541.04L 1486.7,1565L 1478.58,1565L 1478.13,1564.97L 1477.32,1563.84L 1476.56,1562.63L 1475.55,1560.94L 1474.67,1559.01L 1473.85,1556.98L 1473.34,1554.64L 1472.84,1551.99L 1472.65,1549.25L 1472.52,1546.28L 1473.1,1544.01L 1473.6,1541.57L 1474.17,1539.73L 1475.04,1538.05L 1475.86,1536.58L 1476.88,1535.36L 1477.44,1534.74L 1483.49,1534.74L 1482.42,1535.71L 1481.6,1536.9L 1480.71,1538.36L 1480.08,1539.8L 1479.52,1541.57L 1478.95,1543.91L 1478.58,1546.5L 1478.38,1549.09L 1478.58,1551.68L 1479.08,1554.42L 1479.71,1556.51L 1480.4,1557.8L 1481.6,1559.14 Z "/>
		<path fill="#378AFB" fill-opacity="1" stroke-width="0.2" stroke-linejoin="round" d="M 1562.16,1534.9L 1562.04,1535.43L 1536.27,1565L 1526.95,1565L 1537.47,1553.46L 1526.07,1553.46L 1530.92,1546.53L 1543.65,1546.53L 1547.8,1541.82L 1524.43,1541.79L 1528.97,1534.9L 1562.16,1534.9 Z "/>
		<path fill="#378AFB" fill-opacity="1" stroke-width="0.2" stroke-linejoin="round" d="M 1596.87,1534.68L 1607.33,1558.79L 1603.17,1565L 1569.34,1565L 1565.06,1558.7L 1575.14,1534.68L 1596.87,1534.68 Z M 1572.37,1558.36L 1599.95,1558.36L 1592.84,1541.67L 1579.48,1541.67L 1572.37,1558.36 Z "/>
		<path fill="#378AFB" fill-opacity="1" stroke-width="0.2" stroke-linejoin="round" d="M 1649.09,1534.68L 1622.76,1565L 1613.69,1565L 1632.97,1542.54L 1632.97,1542.01L 1609.85,1542.01L 1615.46,1534.68L 1649.09,1534.68 Z "/>
	</g>
	<g>
		<path fill="#378AFB" fill-opacity="1" stroke-width="0.2" stroke-linejoin="round" d="M 1283.26,790L 1283.26,754.407L 1310.75,754.407L 1310.75,776.518L 1299.81,776.518L 1310.75,790L 1301.57,790L 1290.68,776.627L 1290.68,790L 1283.26,790 Z M 1303.33,763.575L 1290.68,763.575L 1290.68,767.35L 1303.33,767.35L 1303.33,763.575 Z "/>
		<path fill="#378AFB" fill-opacity="1" stroke-width="0.2" stroke-linejoin="round" d="M 1314.5,786.242L 1328.6,754.407L 1346.53,754.407L 1346.53,790L 1331.38,790L 1331.38,780.832L 1339.11,780.832L 1339.11,763.575L 1332.82,763.575L 1320.82,790.539L 1314.5,786.242 Z "/>
		<path fill="#378AFB" fill-opacity="1" stroke-width="0.2" stroke-linejoin="round" d="M 1364.41,763.036L 1364.41,780.832L 1375.59,780.832L 1375.59,790L 1357.43,790L 1357.43,763.036L 1352.59,763.036L 1352.59,754.407L 1379.64,754.407L 1379.64,763.036L 1364.41,763.036 Z "/>
		<path fill="#378AFB" fill-opacity="1" stroke-width="0.2" stroke-linejoin="round" d="M 1398.01,763.036L 1398.01,780.832L 1409.18,780.832L 1409.18,790L 1391.03,790L 1391.03,763.036L 1386.18,763.036L 1386.18,754.407L 1413.24,754.407L 1413.24,763.036L 1398.01,763.036 Z "/>
		<path fill="#378AFB" fill-opacity="1" stroke-width="0.2" stroke-linejoin="round" d="M 1417.47,786.242L 1431.56,754.407L 1449.49,754.407L 1449.49,790L 1434.35,790L 1434.35,780.832L 1442.08,780.832L 1442.08,763.575L 1435.79,763.575L 1423.79,790.539L 1417.47,786.242 Z "/>
		<path fill="#378AFB" fill-opacity="1" stroke-width="0.2" stroke-linejoin="round" d="M 1467.38,763.036L 1467.38,780.832L 1478.56,780.832L 1478.56,790L 1460.4,790L 1460.4,763.036L 1455.55,763.036L 1455.55,754.407L 1482.61,754.407L 1482.61,763.036L 1467.38,763.036 Z "/>
		<path fill="#378AFB" fill-opacity="1" stroke-width="0.2" stroke-linejoin="round" d="M 1486.84,786.242L 1500.94,754.407L 1518.87,754.407L 1518.87,790L 1503.72,790L 1503.72,780.832L 1511.45,780.832L 1511.45,763.575L 1505.16,763.575L 1493.16,790.539L 1486.84,786.242 Z "/>
		<path fill="#378AFB" fill-opacity="1" stroke-width="0.2" stroke-linejoin="round" d="M 1545.04,790L 1545.04,776.518L 1532.39,776.518L 1532.39,790L 1524.97,790L 1524.97,754.407L 1532.39,754.407L 1532.3,767.729L 1543.24,754.407L 1552.46,754.407L 1541.52,767.35L 1552.46,767.35L 1552.46,790L 1545.04,790 Z "/>
	</g>
	<g>
		<path fill="#378AFB" fill-opacity="1" stroke-width="0.2" stroke-linejoin="round" d="M 1188.41,809.678L 1162.47,840L 1153.54,840L 1172.52,817.54L 1172.52,817.009L 1149.74,817.009L 1155.27,809.678L 1188.41,809.678 Z "/>
		<path fill="#378AFB" fill-opacity="1" stroke-width="0.2" stroke-linejoin="round" d="M 1191.32,809.678L 1198.22,809.678L 1198.22,815.639L 1216.84,815.639L 1226.33,809.678L 1240.23,809.678L 1216.84,822.658L 1191.32,822.658L 1191.32,809.678 Z M 1191.32,827.025L 1217.57,827.025L 1240.54,840L 1227.57,840L 1216.33,834.044L 1198.09,834.044L 1198.09,840L 1191.32,840L 1191.32,827.025 Z "/>
		<path fill="#378AFB" fill-opacity="1" stroke-width="0.2" stroke-linejoin="round" d="M 1270.7,809.678L 1270.7,834.229L 1272.69,834.229L 1283.17,823.75L 1292.36,823.75L 1275.79,840L 1259.72,840L 1243.09,823.652L 1252.27,823.652L 1262.82,834.136L 1264.74,834.136L 1264.74,809.678L 1270.7,809.678 Z "/>
		<path fill="#378AFB" fill-opacity="1" stroke-width="0.2" stroke-linejoin="round" d="M 1321.59,809.678L 1321.59,834.229L 1323.58,834.229L 1334.06,823.75L 1343.24,823.75L 1326.68,840L 1310.61,840L 1293.97,823.652L 1303.16,823.652L 1313.71,834.136L 1315.63,834.136L 1315.63,809.678L 1321.59,809.678 Z "/>
		<path fill="#378AFB" fill-opacity="1" stroke-width="0.2" stroke-linejoin="round" d="M 1345.85,809.678L 1352.75,809.678L 1352.75,815.639L 1371.37,815.639L 1380.86,809.678L 1394.75,809.678L 1371.37,822.658L 1345.85,822.658L 1345.85,809.678 Z M 1345.85,827.025L 1372.1,827.025L 1395.06,840L 1382.1,840L 1370.86,834.044L 1352.62,834.044L 1352.62,840L 1345.85,840L 1345.85,827.025 Z "/>
		<path fill="#378AFB" fill-opacity="1" stroke-width="0.2" stroke-linejoin="round" d="M 1425.23,809.678L 1425.23,834.229L 1427.22,834.229L 1437.7,823.75L 1446.88,823.75L 1430.32,840L 1414.25,840L 1397.61,823.652L 1406.8,823.652L 1417.35,834.136L 1419.27,834.136L 1419.27,809.678L 1425.23,809.678 Z "/>
		<path fill="#378AFB" fill-opacity="1" stroke-width="0.2" stroke-linejoin="round" d="M 1449.49,809.678L 1456.39,809.678L 1456.39,815.639L 1475.01,815.639L 1484.5,809.678L 1498.39,809.678L 1475.01,822.658L 1449.49,822.658L 1449.49,809.678 Z M 1449.49,827.025L 1475.74,827.025L 1498.7,840L 1485.74,840L 1474.5,834.044L 1456.26,834.044L 1456.26,840L 1449.49,840L 1449.49,827.025 Z "/>
		<path fill="#378AFB" fill-opacity="1" stroke-width="0.2" stroke-linejoin="round" d="M 1546.56,809.712C 1546.93,809.878 1547.21,810.169 1547.42,810.584L 1547.42,838.972C 1547.26,839.469 1546.91,839.812 1546.37,840L 1502.68,840L 1502.68,833.01L 1540.35,833.01L 1540.35,816.667L 1502.68,816.667L 1502.68,809.712L 1546.56,809.712 Z "/>
	</g>
	<g>
		<path fill="#378AFB" fill-opacity="1" stroke-width="0.2" stroke-linejoin="round" d="M 3175.25,800L 3175.25,775.892L 3184.76,764.407L 3204.27,764.407L 3204.27,773.575L 3187.73,773.575L 3182.67,779.693L 3182.67,790.832L 3204.27,790.832L 3204.27,800L 3175.25,800 Z "/>
		<path fill="#378AFB" fill-opacity="1" stroke-width="0.2" stroke-linejoin="round" d="M 3207.8,796.242L 3221.9,764.407L 3239.83,764.407L 3239.83,800L 3224.69,800L 3224.69,790.832L 3232.41,790.832L 3232.41,773.575L 3226.12,773.575L 3214.13,800.539L 3207.8,796.242 Z "/>
		<path fill="#378AFB" fill-opacity="1" stroke-width="0.2" stroke-linejoin="round" d="M 3274.73,773.036L 3253.35,773.036L 3253.35,777.889L 3274.73,777.889L 3274.73,800L 3245.93,800L 3245.93,790.832L 3267.31,790.832L 3267.31,787.057L 3245.93,787.057L 3245.93,764.407L 3274.73,764.407L 3274.73,773.036 Z "/>
		<path fill="#378AFB" fill-opacity="1" stroke-width="0.2" stroke-linejoin="round" d="M 3292.62,773.036L 3292.62,790.832L 3303.79,790.832L 3303.79,800L 3285.64,800L 3285.64,773.036L 3280.79,773.036L 3280.79,764.407L 3307.85,764.407L 3307.85,773.036L 3292.62,773.036 Z "/>
		<rect x="3314.43" y="764.407" fill="#378AFB" fill-opacity="1" stroke-width="0.2" stroke-linejoin="round" width="7.41724" height="35.5927"/>
		<path fill="#378AFB" fill-opacity="1" stroke-width="0.2" stroke-linejoin="round" d="M 3327.96,800L 3327.96,764.407L 3335.38,764.407L 3335.38,790.832L 3354.53,790.832L 3354.53,800L 3327.96,800 Z "/>
		<rect x="3360.68" y="764.407" fill="#378AFB" fill-opacity="1" stroke-width="0.2" stroke-linejoin="round" width="7.41724" height="35.5927"/>
		<path fill="#378AFB" fill-opacity="1" stroke-width="0.2" stroke-linejoin="round" d="M 3403,764.407L 3403,800L 3374.21,800L 3374.21,764.407L 3403,764.407 Z M 3395.59,773.575L 3381.63,773.575L 3381.63,790.832L 3395.59,790.832L 3395.59,773.575 Z "/>
		<path fill="#378AFB" fill-opacity="1" stroke-width="0.2" stroke-linejoin="round" d="M 3416.53,773.575L 3416.53,800L 3409.11,800L 3409.11,764.407L 3428.58,764.407L 3437.91,775.892L 3437.91,800L 3430.49,800L 3430.49,779.819L 3425.57,773.575L 3416.53,773.575 Z "/>
	</g>
	<g>
		<path fill="#378AFB" fill-opacity="1" stroke-width="0.2" stroke-linejoin="round" d="M 3073.02,824.018L 3080.5,824.018L 3080.5,847.093L 3073.02,847.093L 3073.02,824.018 Z M 3082.91,834.311L 3090.31,834.311L 3090.31,847.093L 3082.91,847.093L 3082.91,834.311 Z M 3092.71,834.311L 3100.26,834.311L 3100.26,857.387L 3092.71,857.387L 3092.71,834.311 Z "/>
		<path fill="#378AFB" fill-opacity="1" stroke-width="0.2" stroke-linejoin="round" d="M 3103.86,823.807L 3111.28,823.807L 3111.28,830.409L 3131.31,830.409L 3141.52,823.807L 3156.47,823.807L 3131.31,838.182L 3103.86,838.182L 3103.86,823.807 Z M 3103.86,843.018L 3132.1,843.018L 3156.8,857.387L 3142.86,857.387L 3130.77,850.791L 3111.14,850.791L 3111.14,857.387L 3103.86,857.387L 3103.86,843.018 Z "/>
		<path fill="#378AFB" fill-opacity="1" stroke-width="0.2" stroke-linejoin="round" d="M 3176.37,823.807L 3202.47,849.409L 3202.47,823.807L 3209.82,823.807L 3209.82,857.387L 3199.74,857.387L 3165.36,823.807L 3176.37,823.807 Z M 3162.55,841.426L 3189.18,850.893L 3186.85,857.387L 3160.08,848.092L 3162.55,841.426 Z "/>
		<path fill="#378AFB" fill-opacity="1" stroke-width="0.2" stroke-linejoin="round" d="M 3242,823.807L 3242,850.996L 3244.14,850.996L 3255.41,839.391L 3265.29,839.391L 3247.47,857.387L 3230.18,857.387L 3212.29,839.283L 3222.17,839.283L 3233.52,850.893L 3235.58,850.893L 3235.58,823.807L 3242,823.807 Z "/>
		<path fill="#378AFB" fill-opacity="1" stroke-width="0.2" stroke-linejoin="round" d="M 3286.46,823.705L 3286.46,857.387L 3279.85,857.387L 3279.85,832.169L 3272.77,838.937L 3267.63,833.966C 3267.59,833.782 3267.68,833.597 3267.9,833.41L 3277.85,823.705L 3286.46,823.705 Z "/>
		<path fill="#378AFB" fill-opacity="1" stroke-width="0.2" stroke-linejoin="round" d="M 3323.25,823.672L 3323.25,857.419L 3313.63,857.419L 3290.54,843.153L 3294.8,836.832L 3315.9,849.717L 3315.9,823.672L 3323.25,823.672 Z "/>
		<path fill="#378AFB" fill-opacity="1" stroke-width="0.2" stroke-linejoin="round" d="M 3345.87,823.705L 3345.87,857.387L 3339.27,857.387L 3339.27,832.169L 3332.19,838.937L 3327.05,833.966C 3327,833.782 3327.09,833.597 3327.32,833.41L 3337.27,823.705L 3345.87,823.705 Z "/>
		<path fill="#378AFB" fill-opacity="1" stroke-width="0.2" stroke-linejoin="round" d="M 3383.2,823.807L 3394.28,850.51L 3389.87,857.387L 3354.02,857.387L 3349.48,850.408L 3360.17,823.807L 3383.2,823.807 Z M 3357.22,850.03L 3386.46,850.03L 3378.92,831.548L 3364.77,831.548L 3357.22,850.03 Z "/>
		<path fill="#378AFB" fill-opacity="1" stroke-width="0.2" stroke-linejoin="round" d="M 3406.57,850.893L 3407.37,850.823L 3421.45,823.807L 3430.27,823.807L 3449.02,857.387L 3440.34,857.387L 3425.93,830.857L 3411.97,857.387L 3403.36,857.387L 3402.89,857.355L 3402.03,856.108L 3401.22,854.764L 3400.15,852.896L 3399.22,850.753L 3398.36,848.508L 3397.81,845.917L 3397.28,842.98L 3397.08,839.941L 3396.95,836.66L 3397.55,834.139L 3398.08,831.445L 3398.69,829.405L 3399.62,827.537L 3400.48,825.918L 3401.56,824.568L 3402.15,823.878L 3408.57,823.878L 3407.43,824.946L 3406.57,826.263L 3405.63,827.883L 3404.96,829.475L 3404.36,831.445L 3403.76,834.036L 3403.36,836.902L 3403.15,839.769L 3403.36,842.635L 3403.89,845.674L 3404.56,847.99L 3405.29,849.409L 3406.57,850.893 Z "/>
	</g>
	<g>
		<path fill="#DCFF85" fill-opacity="1" stroke-width="0.2" stroke-linejoin="round" d="M 1738.57,1187.04L 1749.11,1187.04L 1749.11,1196.67L 1777.57,1196.67L 1792.09,1187.04L 1813.33,1187.04L 1777.57,1208L 1738.57,1208L 1738.57,1187.04 Z M 1738.57,1215.05L 1778.7,1215.05L 1813.8,1236L 1793.98,1236L 1776.8,1226.38L 1748.92,1226.38L 1748.92,1236L 1738.57,1236L 1738.57,1215.05 Z "/>
		<path fill="#DCFF85" fill-opacity="1" stroke-width="0.2" stroke-linejoin="round" d="M 1875.47,1187.4L 1875.29,1188.25L 1836.48,1236L 1822.45,1236L 1838.29,1217.36L 1821.11,1217.36L 1828.42,1206.18L 1847.59,1206.18L 1853.84,1198.58L 1818.65,1198.52L 1825.48,1187.4L 1875.47,1187.4 Z "/>
		<path fill="#DCFF85" fill-opacity="1" stroke-width="0.2" stroke-linejoin="round" d="M 1906.02,1186.89L 1906.02,1236L 1896.64,1236L 1896.64,1199.23L 1886.57,1209.1L 1879.26,1201.85C 1879.21,1201.58 1879.33,1201.31 1879.65,1201.04L 1893.79,1186.89L 1906.02,1186.89 Z "/>
		<path fill="#DCFF85" fill-opacity="1" stroke-width="0.2" stroke-linejoin="round" d="M 1924.91,1226.53L 1926.05,1226.43L 1946.06,1187.04L 1958.59,1187.04L 1985.24,1236L 1972.91,1236L 1952.42,1197.32L 1932.59,1236L 1920.36,1236L 1919.69,1235.95L 1918.46,1234.14L 1917.32,1232.18L 1915.79,1229.45L 1914.47,1226.33L 1913.24,1223.05L 1912.47,1219.28L 1911.71,1215L 1911.43,1210.56L 1911.24,1205.78L 1912.1,1202.1L 1912.86,1198.18L 1913.72,1195.2L 1915.03,1192.48L 1916.27,1190.12L 1917.79,1188.15L 1918.64,1187.14L 1927.75,1187.14L 1926.14,1188.7L 1924.91,1190.62L 1923.57,1192.98L 1922.62,1195.3L 1921.78,1198.18L 1920.92,1201.96L 1920.36,1206.13L 1920.06,1210.31L 1920.36,1214.49L 1921.11,1218.92L 1922.06,1222.3L 1923.1,1224.37L 1924.91,1226.53 Z "/>
		<path fill="#DCFF85" fill-opacity="1" stroke-width="0.2" stroke-linejoin="round" d="M 1989.98,1187.04L 2000.52,1187.04L 2000.52,1196.67L 2028.99,1196.67L 2043.5,1187.04L 2064.74,1187.04L 2028.99,1208L 1989.98,1208L 1989.98,1187.04 Z M 1989.98,1215.05L 2030.11,1215.05L 2065.21,1236L 2045.4,1236L 2028.21,1226.38L 2000.33,1226.38L 2000.33,1236L 1989.98,1236L 1989.98,1215.05 Z "/>
		<path fill="#DCFF85" fill-opacity="1" stroke-width="0.2" stroke-linejoin="round" d="M 2126.13,1231.01L 2115.79,1236L 2080.31,1236L 2070.06,1231.01L 2093.78,1187.14L 2104.22,1187.14L 2126.13,1231.01 Z M 2112.65,1226.33L 2099,1197.93L 2084.01,1226.33L 2112.65,1226.33 Z "/>
		<path fill="#DCFF85" fill-opacity="1" stroke-width="0.2" stroke-linejoin="round" d="M 2192.45,1226.53L 2193.59,1226.43L 2213.6,1187.04L 2226.13,1187.04L 2252.78,1236L 2240.45,1236L 2219.96,1197.32L 2200.13,1236L 2187.9,1236L 2187.23,1235.95L 2186,1234.14L 2184.86,1232.18L 2183.33,1229.45L 2182.01,1226.33L 2180.78,1223.05L 2180.01,1219.28L 2179.25,1215L 2178.97,1210.56L 2178.78,1205.78L 2179.64,1202.1L 2180.4,1198.18L 2181.26,1195.2L 2182.57,1192.48L 2183.8,1190.12L 2185.33,1188.15L 2186.18,1187.14L 2195.29,1187.14L 2193.68,1188.7L 2192.45,1190.62L 2191.11,1192.98L 2190.16,1195.3L 2189.32,1198.18L 2188.46,1201.96L 2187.9,1206.13L 2187.6,1210.31L 2187.9,1214.49L 2188.65,1218.92L 2189.6,1222.3L 2190.64,1224.37L 2192.45,1226.53 Z "/>
		<path fill="#DCFF85" fill-opacity="1" stroke-width="0.2" stroke-linejoin="round" d="M 2326.97,1186.99L 2326.97,1198.27L 2319.77,1198.27L 2319.77,1236L 2309.99,1236L 2309.99,1198.27L 2308.67,1198.27L 2291.59,1236L 2279.06,1236L 2256.68,1186.99L 2268.72,1186.99L 2285.42,1222.05L 2301.64,1186.99L 2326.97,1186.99 Z "/>
		<path fill="#DCFF85" fill-opacity="1" stroke-width="0.2" stroke-linejoin="round" d="M 2345.95,1187.4L 2391.68,1187.4L 2405.05,1203.26L 2405.05,1205.83L 2393.3,1205.83L 2387.88,1198.33L 2349.94,1198.33L 2344.24,1205.83L 2332.47,1205.83L 2332.47,1203.26L 2345.95,1187.4 Z M 2354.1,1205.68L 2384.65,1205.68L 2384.65,1217.36L 2354.1,1217.36L 2354.1,1205.68 Z M 2332.38,1218.73L 2344.14,1218.73L 2349.74,1225.22L 2387.78,1225.22L 2393.19,1218.83L 2404.96,1218.83L 2404.96,1221.09L 2391.58,1236.05L 2345.76,1236.05L 2332.38,1221.09L 2332.38,1218.73 Z "/>
		<path fill="#DCFF85" fill-opacity="1" stroke-width="0.2" stroke-linejoin="round" d="M 2473.55,1187.04L 2475.83,1189.46L 2475.83,1233.48L 2473.36,1236L 2410.18,1236L 2410.18,1187.04L 2421.09,1187.04L 2421.09,1225.42L 2464.92,1225.42L 2464.92,1198.33L 2450.78,1198.33L 2444.14,1207.65L 2430,1207.65L 2444.9,1187.04L 2473.55,1187.04 Z "/>
		<path fill="#DCFF85" fill-opacity="1" stroke-width="0.2" stroke-linejoin="round" d="M 2527.54,1186.84L 2527.54,1236.05L 2513.87,1236.05L 2481.05,1215.25L 2487.11,1206.03L 2517.1,1224.82L 2517.1,1186.84L 2527.54,1186.84 Z "/>
		<path fill="#DCFF85" fill-opacity="1" stroke-width="0.2" stroke-linejoin="round" d="M 2533.6,1187.04L 2544.14,1187.04L 2544.14,1196.67L 2572.6,1196.67L 2587.12,1187.04L 2608.36,1187.04L 2572.6,1208L 2533.6,1208L 2533.6,1187.04 Z M 2533.6,1215.05L 2573.73,1215.05L 2608.83,1236L 2589.01,1236L 2571.83,1226.38L 2543.95,1226.38L 2543.95,1236L 2533.6,1236L 2533.6,1215.05 Z "/>
	</g>
</svg>
