<?xml version="1.0" encoding="utf-8"?>
<!DOCTYPE svg PUBLIC "-//W3C//DTD SVG 1.1//EN" "http://www.w3.org/Graphics/SVG/1.1/DTD/svg11.dtd">
<svg xmlns="http://www.w3.org/2000/svg" xmlns:xlink="http://www.w3.org/1999/xlink" version="1.1" baseProfile="full" width="3840" height="2160" viewBox="0 0 3840.00 2160.00" enable-background="new 0 0 3840.00 2160.00" xml:space="preserve">
	<rect x="0.000569661" y="0" fill="#030409" fill-opacity="1" fill-rule="evenodd" stroke-linejoin="round" stroke="#000000" stroke-opacity="1" width="3840" height="2160"/>
	<path fill="none" stroke-width="16" stroke-linejoin="round" stroke="#05408F" stroke-opacity="0.803922" d="M 2272,-32C 2272,-32 2334.31,1180.38 2610.22,1625.31C 2833.84,1985.93 3402.31,2346.42 3540.24,2496"/>
	<g>
		<line fill="none" stroke-width="2" stroke-linejoin="round" stroke="#1B56E3" stroke-opacity="0.603922" x1="568.001" y1="-0.000244141" x2="568.001" y2="2160"/>
		<line fill="none" stroke-width="2" stroke-linejoin="round" stroke="#1B56E3" stroke-opacity="0.603922" x1="280" y1="38.9998" x2="280" y2="2199"/>
		<line fill="none" stroke-width="2" stroke-linejoin="round" stroke="#1B56E3" stroke-opacity="0.603922" x1="856" y1="-0.000244141" x2="856" y2="2160"/>
		<line fill="none" stroke-width="2" stroke-linejoin="round" stroke="#1B56E3" stroke-opacity="0.603922" x1="1144" y1="-0.000244141" x2="1144" y2="2160"/>
		<line fill="none" stroke-width="2" stroke-linejoin="round" stroke="#1B56E3" stroke-opacity="0.603922" x1="1432" y1="-0.000244141" x2="1432" y2="2160"/>
		<line fill="none" stroke-width="2" stroke-linejoin="round" stroke="#1B56E3" stroke-opacity="0.603922" x1="1720" y1="-0.000244141" x2="1720" y2="2160"/>
		<line fill="none" stroke-width="2" stroke-linejoin="round" stroke="#1B56E3" stroke-opacity="0.603922" x1="2008" y1="-0.000244141" x2="2008" y2="2160"/>
		<line fill="none" stroke-width="2" stroke-linejoin="round" stroke="#1B56E3" stroke-opacity="0.603922" x1="2296" y1="-0.000244141" x2="2296" y2="2160"/>
		<line fill="none" stroke-width="2" stroke-linejoin="round" stroke="#1B56E3" stroke-opacity="0.603922" x1="2584" y1="-0.000244141" x2="2584" y2="2160"/>
		<line fill="none" stroke-width="2" stroke-linejoin="round" stroke="#1B56E3" stroke-opacity="0.603922" x1="2872" y1="-0.000244141" x2="2872" y2="2160"/>
		<line fill="none" stroke-width="2" stroke-linejoin="round" stroke="#1B56E3" stroke-opacity="0.603922" x1="3160" y1="-0.000244141" x2="3160" y2="2160"/>
		<line fill="none" stroke-width="2" stroke-linejoin="round" stroke="#1B56E3" stroke-opacity="0.603922" x1="3448" y1="-0.000244141" x2="3448" y2="2160"/>
		<line fill="none" stroke-width="2" stroke-linejoin="round" stroke="#1B56E3" stroke-opacity="0.603922" x1="3736" y1="-0.000244141" x2="3736" y2="2160"/>
		<line fill="none" stroke-width="2" stroke-linejoin="round" stroke="#1B56E3" stroke-opacity="0.603922" x1="3840" y1="256.001" x2="-1.27157e-006" y2="256.001"/>
		<line fill="none" stroke-width="2" stroke-linejoin="round" stroke="#1B56E3" stroke-opacity="0.603922" x1="3840" y1="544.001" x2="0.000179291" y2="544.001"/>
		<line fill="none" stroke-width="2" stroke-linejoin="round" stroke="#1B56E3" stroke-opacity="0.603922" x1="3840" y1="832" x2="3.43323e-005" y2="832"/>
		<line fill="none" stroke-width="2" stroke-linejoin="round" stroke="#1B56E3" stroke-opacity="0.603922" x1="3840" y1="1120" x2="8.13802e-005" y2="1120"/>
		<line fill="none" stroke-width="2" stroke-linejoin="round" stroke="#1B56E3" stroke-opacity="0.603922" x1="3840" y1="1408" x2="-4.06901e-005" y2="1408"/>
		<line fill="none" stroke-width="2" stroke-linejoin="round" stroke="#1B56E3" stroke-opacity="0.603922" x1="3840" y1="1696" x2="0.000813802" y2="1696"/>
		<line fill="none" stroke-width="2" stroke-linejoin="round" stroke="#1B56E3" stroke-opacity="0.603922" x1="3840" y1="1984" x2="0.000691732" y2="1984"/>
	</g>
	<path fill="none" stroke-width="19" stroke-linejoin="round" stroke="#1C79D4" stroke-opacity="0.803922" d="M 3936,2348.28C 3936,2348.28 3456.22,788.898 2752,-96.0005"/>
	<g>
		<path fill="#DCFF85" fill-opacity="1" stroke-width="0.2" stroke-linejoin="round" d="M 489.119,905.911L 480.766,915.16L 496.008,915.16L 496.008,944L 458.42,944L 458.42,898.68L 489.119,898.68L 489.119,905.911 Z M 468.562,932.327L 485.865,932.327L 485.865,926.833L 468.562,926.833L 468.562,932.327 Z M 474.258,908.98L 468.562,908.98L 468.479,915.643L 474.258,908.98 Z "/>
		<path fill="#DCFF85" fill-opacity="1" stroke-width="0.2" stroke-linejoin="round" d="M 501.135,939.215L 520.414,898.68L 544.933,898.68L 544.933,944L 524.227,944L 524.227,932.327L 534.79,932.327L 534.79,910.353L 526.194,910.353L 509.787,944.687L 501.135,939.215 Z "/>
		<path fill="#DCFF85" fill-opacity="1" stroke-width="0.2" stroke-linejoin="round" d="M 569.395,909.667L 569.395,932.327L 584.674,932.327L 584.674,944L 559.849,944L 559.849,909.667L 553.22,909.667L 553.22,898.68L 590.221,898.68L 590.221,909.667L 569.395,909.667 Z "/>
		<path fill="#DCFF85" fill-opacity="1" stroke-width="0.2" stroke-linejoin="round" d="M 628.462,932.327L 628.462,898.68L 638.605,898.68L 638.605,944L 611.98,944L 599.227,929.376L 599.227,898.68L 609.37,898.68L 609.37,924.376L 616.101,932.327L 628.462,932.327 Z "/>
		<path fill="#DCFF85" fill-opacity="1" stroke-width="0.2" stroke-linejoin="round" d="M 676.194,932.327L 676.194,898.68L 686.337,898.68L 686.337,944L 659.711,944L 646.958,929.376L 646.958,898.68L 657.101,898.68L 657.101,924.376L 663.832,932.327L 676.194,932.327 Z "/>
	</g>
	<g>
		<path fill="#DCFF85" fill-opacity="1" stroke-width="0.2" stroke-linejoin="round" d="M 364.823,964.697L 406.162,964.697L 418.249,979.811L 418.249,982.255L 407.623,982.255L 402.732,975.11L 368.427,975.11L 363.281,982.255L 352.642,982.255L 352.642,979.811L 364.823,964.697 Z M 372.193,982.113L 399.811,982.113L 399.811,993.246L 372.193,993.246L 372.193,982.113 Z M 352.561,994.543L 363.188,994.543L 368.253,1000.73L 402.638,1000.73L 407.529,994.641L 418.169,994.641L 418.169,996.8L 406.069,1011.05L 364.648,1011.05L 352.561,996.8L 352.561,994.543 Z "/>
		<path fill="#DCFF85" fill-opacity="1" stroke-width="0.2" stroke-linejoin="round" d="M 422.966,964.359L 432.494,964.359L 432.494,973.529L 458.222,973.529L 471.341,964.359L 490.544,964.359L 458.222,984.325L 422.966,984.325L 422.966,964.359 Z M 422.966,991.042L 459.241,991.042L 490.973,1011L 473.056,1011L 457.526,1001.84L 432.32,1001.84L 432.32,1011L 422.966,1011L 422.966,991.042 Z "/>
		<path fill="#DCFF85" fill-opacity="1" stroke-width="0.2" stroke-linejoin="round" d="M 532.661,964.359L 532.661,1002.12L 535.408,1002.12L 549.894,986.004L 562.584,986.004L 539.696,1011L 517.478,1011L 494.497,985.854L 507.187,985.854L 521.766,1001.98L 524.42,1001.98L 524.42,964.359L 532.661,964.359 Z "/>
		<path fill="#DCFF85" fill-opacity="1" stroke-width="0.2" stroke-linejoin="round" d="M 623.394,964.359L 625.458,966.661L 625.458,1008.6L 623.22,1011L 566.108,1011L 566.108,964.359L 575.971,964.359L 575.971,1000.92L 615.595,1000.92L 615.595,975.11L 602.811,975.11L 596.808,983.987L 584.024,983.987L 597.491,964.359L 623.394,964.359 Z "/>
		<path fill="#DCFF85" fill-opacity="1" stroke-width="0.2" stroke-linejoin="round" d="M 686.858,964.359L 688.921,966.661L 688.921,1008.6L 686.684,1011L 629.572,1011L 629.572,964.359L 639.434,964.359L 639.434,1000.92L 679.059,1000.92L 679.059,975.11L 666.275,975.11L 660.272,983.987L 647.488,983.987L 660.955,964.359L 686.858,964.359 Z "/>
	</g>
	<path fill="#378AFB" fill-opacity="1" stroke-width="0.2" stroke-linejoin="round" stroke="#4E9AFB" stroke-opacity="1" d="M 1047.28,1313C 1065.52,1313 1080.31,1327.33 1080.31,1345C 1080.31,1362.67 1065.52,1377 1047.28,1377C 1029.03,1377 1014.24,1362.67 1014.24,1345C 1014.24,1327.33 1029.03,1313 1047.28,1313 Z "/>
	<path fill="#378AFB" fill-opacity="1" stroke-width="0.2" stroke-linejoin="round" stroke="#4E9AFB" stroke-opacity="1" d="M 2284.21,663C 2302.45,663 2317.24,677.327 2317.24,695C 2317.24,712.673 2302.45,727 2284.21,727C 2265.97,727 2251.18,712.673 2251.18,695C 2251.18,677.327 2265.97,663 2284.21,663 Z "/>
	<path fill="#378AFB" fill-opacity="1" stroke-width="0.2" stroke-linejoin="round" stroke="#4E9AFB" stroke-opacity="1" d="M 2262.28,1504C 2280.52,1504 2295.31,1518.33 2295.31,1536C 2295.31,1553.67 2280.52,1568 2262.28,1568C 2244.03,1568 2229.24,1553.67 2229.24,1536C 2229.24,1518.33 2244.03,1504 2262.28,1504 Z "/>
	<path fill="#378AFB" fill-opacity="1" stroke-width="0.2" stroke-linejoin="round" stroke="#4E9AFB" stroke-opacity="1" d="M 2196.28,1696C 2214.52,1696 2229.31,1710.33 2229.31,1728C 2229.31,1745.67 2214.52,1760 2196.28,1760C 2178.03,1760 2163.24,1745.67 2163.24,1728C 2163.24,1710.33 2178.03,1696 2196.28,1696 Z "/>
	<path fill="#378AFB" fill-opacity="1" stroke-width="0.2" stroke-linejoin="round" stroke="#4E9AFB" stroke-opacity="1" d="M 2484.21,1960C 2502.45,1960 2517.24,1974.33 2517.24,1992C 2517.24,2009.67 2502.45,2024 2484.21,2024C 2465.97,2024 2451.18,2009.67 2451.18,1992C 2451.18,1974.33 2465.97,1960 2484.21,1960 Z "/>
	<path fill="none" stroke-width="8" stroke-linejoin="round" stroke="#4E9AFB" stroke-opacity="1" d="M 2262.27,1485.5C 2291.07,1485.5 2314.4,1508.11 2314.4,1536C 2314.4,1563.89 2291.07,1586.5 2262.27,1586.5C 2233.48,1586.5 2210.15,1563.89 2210.15,1536C 2210.15,1508.11 2233.48,1485.5 2262.27,1485.5 Z "/>
	<path fill="none" stroke-width="8" stroke-linejoin="round" stroke="#4E9AFB" stroke-opacity="1" d="M 2262.27,1459.5C 2305.89,1459.5 2341.24,1493.75 2341.24,1536C 2341.24,1578.25 2305.89,1612.5 2262.27,1612.5C 2218.66,1612.5 2183.31,1578.25 2183.31,1536C 2183.31,1493.75 2218.66,1459.5 2262.27,1459.5 Z "/>
	<g>
		<path fill="#378AFB" fill-opacity="1" stroke-width="0.2" stroke-linejoin="round" d="M 2371.64,1525.13L 2371.64,1495.59L 2397.99,1495.59L 2397.99,1513.94L 2387.5,1513.94L 2397.99,1525.13L 2389.19,1525.13L 2378.75,1514.03L 2378.75,1525.13L 2371.64,1525.13 Z M 2390.88,1503.2L 2378.75,1503.2L 2378.75,1506.33L 2390.88,1506.33L 2390.88,1503.2 Z "/>
		<path fill="#378AFB" fill-opacity="1" stroke-width="0.2" stroke-linejoin="round" d="M 2401.58,1522.01L 2415.1,1495.59L 2432.28,1495.59L 2432.28,1525.13L 2417.77,1525.13L 2417.77,1517.52L 2425.17,1517.52L 2425.17,1503.2L 2419.15,1503.2L 2407.65,1525.57L 2401.58,1522.01 Z "/>
		<path fill="#378AFB" fill-opacity="1" stroke-width="0.2" stroke-linejoin="round" d="M 2449.43,1502.75L 2449.43,1517.52L 2460.14,1517.52L 2460.14,1525.13L 2442.74,1525.13L 2442.74,1502.75L 2438.09,1502.75L 2438.09,1495.59L 2464.03,1495.59L 2464.03,1502.75L 2449.43,1502.75 Z "/>
		<path fill="#378AFB" fill-opacity="1" stroke-width="0.2" stroke-linejoin="round" d="M 2481.64,1502.75L 2481.64,1517.52L 2492.35,1517.52L 2492.35,1525.13L 2474.94,1525.13L 2474.94,1502.75L 2470.3,1502.75L 2470.3,1495.59L 2496.23,1495.59L 2496.23,1502.75L 2481.64,1502.75 Z "/>
		<path fill="#378AFB" fill-opacity="1" stroke-width="0.2" stroke-linejoin="round" d="M 2500.29,1522.01L 2513.8,1495.59L 2530.99,1495.59L 2530.99,1525.13L 2516.47,1525.13L 2516.47,1517.52L 2523.88,1517.52L 2523.88,1503.2L 2517.85,1503.2L 2506.35,1525.57L 2500.29,1522.01 Z "/>
		<path fill="#378AFB" fill-opacity="1" stroke-width="0.2" stroke-linejoin="round" d="M 2548.13,1502.75L 2548.13,1517.52L 2558.84,1517.52L 2558.84,1525.13L 2541.44,1525.13L 2541.44,1502.75L 2536.8,1502.75L 2536.8,1495.59L 2562.73,1495.59L 2562.73,1502.75L 2548.13,1502.75 Z "/>
		<path fill="#378AFB" fill-opacity="1" stroke-width="0.2" stroke-linejoin="round" d="M 2566.78,1522.01L 2580.3,1495.59L 2597.48,1495.59L 2597.48,1525.13L 2582.97,1525.13L 2582.97,1517.52L 2590.37,1517.52L 2590.37,1503.2L 2584.35,1503.2L 2572.85,1525.57L 2566.78,1522.01 Z "/>
		<path fill="#378AFB" fill-opacity="1" stroke-width="0.2" stroke-linejoin="round" d="M 2622.58,1525.13L 2622.58,1513.94L 2610.45,1513.94L 2610.45,1525.13L 2603.34,1525.13L 2603.34,1495.59L 2610.45,1495.59L 2610.36,1506.65L 2620.85,1495.59L 2629.69,1495.59L 2619.2,1506.33L 2629.69,1506.33L 2629.69,1525.13L 2622.58,1525.13 Z "/>
	</g>
	<g>
		<path fill="#378AFB" fill-opacity="1" stroke-width="0.2" stroke-linejoin="round" d="M 2406.33,1543.35L 2380,1572.41L 2370.94,1572.41L 2390.21,1550.88L 2390.21,1550.37L 2367.09,1550.37L 2372.7,1543.35L 2406.33,1543.35 Z "/>
		<path fill="#378AFB" fill-opacity="1" stroke-width="0.2" stroke-linejoin="round" d="M 2409.29,1543.35L 2416.29,1543.35L 2416.29,1549.06L 2435.19,1549.06L 2444.82,1543.35L 2458.93,1543.35L 2435.19,1555.79L 2409.29,1555.79L 2409.29,1543.35 Z M 2409.29,1559.97L 2435.94,1559.97L 2459.24,1572.41L 2446.08,1572.41L 2434.68,1566.7L 2416.16,1566.7L 2416.16,1572.41L 2409.29,1572.41L 2409.29,1559.97 Z "/>
		<path fill="#378AFB" fill-opacity="1" stroke-width="0.2" stroke-linejoin="round" d="M 2489.86,1543.35L 2489.86,1566.88L 2491.88,1566.88L 2502.52,1556.83L 2511.84,1556.83L 2495.03,1572.41L 2478.71,1572.41L 2461.83,1556.74L 2471.15,1556.74L 2481.86,1566.79L 2483.81,1566.79L 2483.81,1543.35L 2489.86,1543.35 Z "/>
		<path fill="#378AFB" fill-opacity="1" stroke-width="0.2" stroke-linejoin="round" d="M 2541.52,1543.35L 2541.52,1566.88L 2543.53,1566.88L 2554.17,1556.83L 2563.49,1556.83L 2546.68,1572.41L 2530.36,1572.41L 2513.48,1556.74L 2522.81,1556.74L 2533.51,1566.79L 2535.46,1566.79L 2535.46,1543.35L 2541.52,1543.35 Z "/>
		<path fill="#378AFB" fill-opacity="1" stroke-width="0.2" stroke-linejoin="round" d="M 2566.14,1543.35L 2573.14,1543.35L 2573.14,1549.06L 2592.04,1549.06L 2601.67,1543.35L 2615.78,1543.35L 2592.04,1555.79L 2566.14,1555.79L 2566.14,1543.35 Z M 2566.14,1559.97L 2592.78,1559.97L 2616.09,1572.41L 2602.93,1572.41L 2591.52,1566.7L 2573.01,1566.7L 2573.01,1572.41L 2566.14,1572.41L 2566.14,1559.97 Z "/>
		<path fill="#378AFB" fill-opacity="1" stroke-width="0.2" stroke-linejoin="round" d="M 2646.71,1543.35L 2646.71,1566.88L 2648.73,1566.88L 2659.37,1556.83L 2668.69,1556.83L 2651.88,1572.41L 2635.56,1572.41L 2618.68,1556.74L 2628,1556.74L 2638.71,1566.79L 2640.66,1566.79L 2640.66,1543.35L 2646.71,1543.35 Z "/>
		<path fill="#378AFB" fill-opacity="1" stroke-width="0.2" stroke-linejoin="round" d="M 2671.34,1543.35L 2678.33,1543.35L 2678.33,1549.06L 2697.23,1549.06L 2706.87,1543.35L 2720.97,1543.35L 2697.23,1555.79L 2671.34,1555.79L 2671.34,1543.35 Z M 2671.34,1559.97L 2697.98,1559.97L 2721.29,1572.41L 2708.13,1572.41L 2696.72,1566.7L 2678.21,1566.7L 2678.21,1572.41L 2671.34,1572.41L 2671.34,1559.97 Z "/>
		<path fill="#378AFB" fill-opacity="1" stroke-width="0.2" stroke-linejoin="round" d="M 2769.86,1543.38C 2770.23,1543.54 2770.52,1543.82 2770.73,1544.22L 2770.73,1571.42C 2770.57,1571.9 2770.22,1572.22 2769.67,1572.41L 2725.32,1572.41L 2725.32,1565.71L 2763.56,1565.71L 2763.56,1550.05L 2725.32,1550.05L 2725.32,1543.38L 2769.86,1543.38 Z "/>
	</g>
	<path fill="#DCFF85" fill-opacity="1" stroke-linejoin="round" stroke="#DCFF85" stroke-opacity="1" d="M 662.069,1543.26L 659.001,1630.47L 703.912,1630.47L 731.972,1588.58L 706.719,1543.46L 662.069,1543.26 Z "/>
	<path fill="none" stroke-width="16" stroke-linejoin="round" stroke="#DCFF85" stroke-opacity="1" d="M 650.581,1521L 608.477,1582.75L 644.967,1652.93L 715.139,1652.93L 757.243,1591.17L 720.753,1521L 650.581,1521 Z "/>
	<path fill="#DCFF85" fill-opacity="1" stroke-linejoin="round" stroke="#DCFF85" stroke-opacity="1" d="M 1514.83,1800.26L 1511.77,1887.47L 1556.68,1887.47L 1584.74,1845.58L 1559.48,1800.46L 1514.83,1800.26 Z "/>
	<path fill="none" stroke-width="16" stroke-linejoin="round" stroke="#DCFF85" stroke-opacity="1" d="M 1503.35,1778L 1461.24,1839.75L 1497.73,1909.93L 1567.91,1909.93L 1610.01,1848.17L 1573.52,1778L 1503.35,1778 Z "/>
	<g>
		<path fill="#DCFF85" fill-opacity="1" stroke-width="0.2" stroke-linejoin="round" d="M 1004.22,1836.07L 1004.22,1813.76L 1013.26,1803.13L 1031.8,1803.13L 1031.8,1811.61L 1016.08,1811.61L 1011.27,1817.27L 1011.27,1827.59L 1031.8,1827.59L 1031.8,1836.07L 1004.22,1836.07 Z "/>
		<path fill="#DCFF85" fill-opacity="1" stroke-width="0.2" stroke-linejoin="round" d="M 1035.15,1832.59L 1048.56,1803.13L 1065.6,1803.13L 1065.6,1836.07L 1051.21,1836.07L 1051.21,1827.59L 1058.55,1827.59L 1058.55,1811.61L 1052.57,1811.61L 1041.17,1836.57L 1035.15,1832.59 Z "/>
		<path fill="#DCFF85" fill-opacity="1" stroke-width="0.2" stroke-linejoin="round" d="M 1098.78,1811.11L 1078.46,1811.11L 1078.46,1815.61L 1098.78,1815.61L 1098.78,1836.07L 1071.41,1836.07L 1071.41,1827.59L 1091.73,1827.59L 1091.73,1824.09L 1071.41,1824.09L 1071.41,1803.13L 1098.78,1803.13L 1098.78,1811.11 Z "/>
		<path fill="#DCFF85" fill-opacity="1" stroke-width="0.2" stroke-linejoin="round" d="M 1115.78,1811.11L 1115.78,1827.59L 1126.41,1827.59L 1126.41,1836.07L 1109.15,1836.07L 1109.15,1811.11L 1104.54,1811.11L 1104.54,1803.13L 1130.26,1803.13L 1130.26,1811.11L 1115.78,1811.11 Z "/>
		<rect x="1136.52" y="1803.13" fill="#DCFF85" fill-opacity="1" stroke-width="0.2" stroke-linejoin="round" width="7.05078" height="32.9454"/>
		<path fill="#DCFF85" fill-opacity="1" stroke-width="0.2" stroke-linejoin="round" d="M 1149.38,1836.07L 1149.38,1803.13L 1156.43,1803.13L 1156.43,1827.59L 1174.63,1827.59L 1174.63,1836.07L 1149.38,1836.07 Z "/>
		<path fill="#DCFF85" fill-opacity="1" stroke-width="0.2" stroke-linejoin="round" d="M 1207.86,1803.13L 1207.86,1836.07L 1180.49,1836.07L 1180.49,1803.13L 1207.86,1803.13 Z M 1200.81,1811.61L 1187.54,1811.61L 1187.54,1827.59L 1200.81,1827.59L 1200.81,1811.61 Z "/>
		<path fill="#DCFF85" fill-opacity="1" stroke-width="0.2" stroke-linejoin="round" d="M 1220.72,1811.61L 1220.72,1836.07L 1213.67,1836.07L 1213.67,1803.13L 1232.17,1803.13L 1241.04,1813.76L 1241.04,1836.07L 1233.99,1836.07L 1233.99,1817.39L 1229.31,1811.61L 1220.72,1811.61 Z "/>
		<path fill="#DCFF85" fill-opacity="1" stroke-width="0.2" stroke-linejoin="round" d="M 1261.19,1832.59L 1274.59,1803.13L 1291.64,1803.13L 1291.64,1836.07L 1277.25,1836.07L 1277.25,1827.59L 1284.59,1827.59L 1284.59,1811.61L 1278.61,1811.61L 1267.21,1836.57L 1261.19,1832.59 Z "/>
		<path fill="#DCFF85" fill-opacity="1" stroke-width="0.2" stroke-linejoin="round" d="M 1297.44,1836.07L 1297.44,1803.13L 1304.5,1803.13L 1304.5,1827.59L 1322.7,1827.59L 1322.7,1836.07L 1297.44,1836.07 Z "/>
		<path fill="#DCFF85" fill-opacity="1" stroke-width="0.2" stroke-linejoin="round" d="M 1328.55,1836.07L 1328.55,1803.13L 1335.6,1803.13L 1335.6,1827.59L 1353.81,1827.59L 1353.81,1836.07L 1328.55,1836.07 Z "/>
		<path fill="#DCFF85" fill-opacity="1" stroke-width="0.2" stroke-linejoin="round" d="M 1387.03,1824.09L 1387.03,1803.13L 1359.66,1803.13L 1359.66,1836.07L 1387.03,1836.07L 1387.03,1827.59L 1366.71,1827.59L 1366.71,1811.11L 1379.98,1811.11L 1379.98,1815.61L 1374.34,1815.61L 1374.34,1824.09L 1387.03,1824.09 Z "/>
		<path fill="#DCFF85" fill-opacity="1" stroke-width="0.2" stroke-linejoin="round" d="M 1417.72,1803.23L 1410.67,1803.23L 1410.67,1822.28L 1396.74,1802.63L 1391.47,1807.84L 1405.66,1827.59L 1392.13,1827.59L 1392.13,1836.07L 1417.72,1836.07L 1417.72,1803.23 Z "/>
	</g>
	<g>
		<path fill="#DCFF85" fill-opacity="1" stroke-width="0.2" stroke-linejoin="round" d="M 973.264,1849.05L 978.647,1849.05L 978.647,1866.64L 973.264,1866.64L 973.264,1849.05 Z M 980.381,1856.89L 985.711,1856.89L 985.711,1866.64L 980.381,1866.64L 980.381,1856.89 Z M 987.438,1856.89L 992.873,1856.89L 992.873,1874.48L 987.438,1874.48L 987.438,1856.89 Z "/>
		<path fill="#DCFF85" fill-opacity="1" stroke-width="0.2" stroke-linejoin="round" d="M 995.463,1848.89L 1000.8,1848.89L 1000.8,1853.92L 1015.21,1853.92L 1022.56,1848.89L 1033.32,1848.89L 1015.21,1859.84L 995.463,1859.84L 995.463,1848.89 Z M 995.463,1863.53L 1015.78,1863.53L 1033.56,1874.48L 1023.52,1874.48L 1014.82,1869.45L 1000.7,1869.45L 1000.7,1874.48L 995.463,1874.48L 995.463,1863.53 Z "/>
		<path fill="#DCFF85" fill-opacity="1" stroke-width="0.2" stroke-linejoin="round" d="M 1047.65,1848.89L 1066.43,1868.4L 1066.43,1848.89L 1071.71,1848.89L 1071.71,1874.48L 1064.46,1874.48L 1039.72,1848.89L 1047.65,1848.89 Z M 1037.7,1862.32L 1056.86,1869.53L 1055.18,1874.48L 1035.92,1867.4L 1037.7,1862.32 Z "/>
		<path fill="#DCFF85" fill-opacity="1" stroke-width="0.2" stroke-linejoin="round" d="M 1094.87,1848.89L 1094.87,1869.61L 1096.41,1869.61L 1104.53,1860.76L 1111.64,1860.76L 1098.81,1874.48L 1086.37,1874.48L 1073.49,1860.68L 1080.6,1860.68L 1088.77,1869.53L 1090.26,1869.53L 1090.26,1848.89L 1094.87,1848.89 Z "/>
		<path fill="#DCFF85" fill-opacity="1" stroke-width="0.2" stroke-linejoin="round" d="M 1126.87,1848.81L 1126.87,1874.48L 1122.12,1874.48L 1122.12,1855.26L 1117.02,1860.42L 1113.32,1856.63C 1113.29,1856.49 1113.35,1856.35 1113.51,1856.21L 1120.68,1848.81L 1126.87,1848.81 Z "/>
		<path fill="#DCFF85" fill-opacity="1" stroke-width="0.2" stroke-linejoin="round" d="M 1153.35,1848.78L 1153.35,1874.51L 1146.43,1874.51L 1129.8,1863.63L 1132.87,1858.81L 1148.06,1868.64L 1148.06,1848.78L 1153.35,1848.78 Z "/>
		<path fill="#DCFF85" fill-opacity="1" stroke-width="0.2" stroke-linejoin="round" d="M 1180.64,1848.89L 1188.61,1869.24L 1185.44,1874.48L 1159.64,1874.48L 1156.37,1869.16L 1164.06,1848.89L 1180.64,1848.89 Z M 1161.94,1868.87L 1182.99,1868.87L 1177.56,1854.79L 1167.37,1854.79L 1161.94,1868.87 Z "/>
		<path fill="#DCFF85" fill-opacity="1" stroke-width="0.2" stroke-linejoin="round" d="M 1197.45,1869.53L 1198.03,1869.48L 1208.16,1848.89L 1214.51,1848.89L 1228.01,1874.48L 1221.76,1874.48L 1211.39,1854.26L 1201.34,1874.48L 1195.15,1874.48L 1194.81,1874.46L 1194.19,1873.51L 1193.61,1872.48L 1192.83,1871.06L 1192.17,1869.42L 1191.54,1867.71L 1191.15,1865.74L 1190.77,1863.5L 1190.63,1861.18L 1190.53,1858.68L 1190.97,1856.76L 1191.35,1854.71L 1191.78,1853.15L 1192.45,1851.73L 1193.07,1850.49L 1193.85,1849.47L 1194.28,1848.94L 1198.89,1848.94L 1198.07,1849.75L 1197.45,1850.76L 1196.78,1851.99L 1196.3,1853.21L 1195.87,1854.71L 1195.43,1856.68L 1195.15,1858.87L 1195,1861.05L 1195.15,1863.24L 1195.53,1865.55L 1196.01,1867.32L 1196.54,1868.4L 1197.45,1869.53 Z "/>
		<path fill="#DCFF85" fill-opacity="1" stroke-width="0.2" stroke-linejoin="round" d="M 1254.91,1848.89L 1260.25,1848.89L 1260.25,1853.92L 1274.66,1853.92L 1282.01,1848.89L 1292.77,1848.89L 1274.66,1859.84L 1254.91,1859.84L 1254.91,1848.89 Z M 1254.91,1863.53L 1275.23,1863.53L 1293.01,1874.48L 1282.97,1874.48L 1274.27,1869.45L 1260.15,1869.45L 1260.15,1874.48L 1254.91,1874.48L 1254.91,1863.53 Z "/>
		<path fill="#DCFF85" fill-opacity="1" stroke-width="0.2" stroke-linejoin="round" d="M 1319.59,1848.78L 1319.59,1874.51L 1312.66,1874.51L 1296.04,1863.63L 1299.11,1858.81L 1314.3,1868.64L 1314.3,1848.78L 1319.59,1848.78 Z "/>
		<path fill="#DCFF85" fill-opacity="1" stroke-width="0.2" stroke-linejoin="round" d="M 1346.49,1848.78L 1346.49,1874.51L 1339.57,1874.51L 1322.95,1863.63L 1326.02,1858.81L 1341.21,1868.64L 1341.21,1848.78L 1346.49,1848.78 Z "/>
		<path fill="#DCFF85" fill-opacity="1" stroke-width="0.2" stroke-linejoin="round" d="M 1384.73,1848.86L 1384.73,1854.76L 1381.09,1854.76L 1381.09,1874.48L 1376.13,1874.48L 1376.13,1854.76L 1375.46,1854.76L 1366.81,1874.48L 1360.47,1874.48L 1349.13,1848.86L 1355.23,1848.86L 1363.69,1867.19L 1371.9,1848.86L 1384.73,1848.86 Z "/>
		<path fill="#DCFF85" fill-opacity="1" stroke-width="0.2" stroke-linejoin="round" d="M 1420.48,1848.83L 1407.36,1874.48L 1399.19,1874.48L 1387.23,1851.05L 1387.23,1849.84L 1387.86,1849.02L 1388.67,1848.83L 1399.63,1848.83L 1405.15,1859.47L 1399.43,1859.47L 1395.93,1851.73L 1393.24,1851.73L 1402.75,1870.38L 1404,1870.38L 1415.1,1848.83L 1420.48,1848.83 Z "/>
	</g>
	<g>
		<path fill="#DCFF85" fill-opacity="1" stroke-width="0.2" stroke-linejoin="round" d="M 216.031,1548.16L 208.981,1548.16L 208.981,1567.21L 195.048,1547.56L 189.779,1552.77L 203.965,1572.51L 190.44,1572.51L 190.44,1581L 216.031,1581L 216.031,1548.16 Z "/>
		<path fill="#DCFF85" fill-opacity="1" stroke-width="0.2" stroke-linejoin="round" d="M 219.596,1577.52L 232.997,1548.05L 250.041,1548.05L 250.041,1581L 235.648,1581L 235.648,1572.51L 242.99,1572.51L 242.99,1556.54L 237.015,1556.54L 225.609,1581.5L 219.596,1577.52 Z "/>
		<path fill="#DCFF85" fill-opacity="1" stroke-width="0.2" stroke-linejoin="round" d="M 274.926,1581L 274.926,1568.52L 262.898,1568.52L 262.898,1581L 255.847,1581L 255.847,1548.05L 262.898,1548.05L 262.807,1560.39L 273.208,1548.05L 281.977,1548.05L 271.575,1560.03L 281.977,1560.03L 281.977,1581L 274.926,1581 Z "/>
		<path fill="#DCFF85" fill-opacity="1" stroke-width="0.2" stroke-linejoin="round" d="M 315.157,1548.05L 315.157,1581L 287.783,1581L 287.783,1548.05L 315.157,1548.05 Z M 308.106,1556.54L 294.834,1556.54L 294.834,1572.51L 308.106,1572.51L 308.106,1556.54 Z "/>
		<path fill="#DCFF85" fill-opacity="1" stroke-width="0.2" stroke-linejoin="round" d="M 320.963,1581L 320.963,1548.05L 347.092,1548.05L 347.092,1568.52L 336.691,1568.52L 347.092,1581L 338.37,1581L 328.014,1568.62L 328.014,1581L 320.963,1581 Z M 340.042,1556.54L 328.014,1556.54L 328.014,1560.03L 340.042,1560.03L 340.042,1556.54 Z "/>
		<path fill="#DCFF85" fill-opacity="1" stroke-width="0.2" stroke-linejoin="round" d="M 371.977,1581L 371.977,1568.52L 359.95,1568.52L 359.95,1581L 352.899,1581L 352.899,1548.05L 359.95,1548.05L 359.859,1560.39L 370.26,1548.05L 379.028,1548.05L 368.627,1560.03L 379.028,1560.03L 379.028,1581L 371.977,1581 Z "/>
		<rect x="384.835" y="1548.05" fill="#DCFF85" fill-opacity="1" stroke-width="0.2" stroke-linejoin="round" width="7.05078" height="32.9456"/>
		<path fill="#DCFF85" fill-opacity="1" stroke-width="0.2" stroke-linejoin="round" d="M 412.04,1577.52L 425.441,1548.05L 442.485,1548.05L 442.485,1581L 428.092,1581L 428.092,1572.51L 435.434,1572.51L 435.434,1556.54L 429.459,1556.54L 418.053,1581.5L 412.04,1577.52 Z "/>
		<path fill="#DCFF85" fill-opacity="1" stroke-width="0.2" stroke-linejoin="round" d="M 448.291,1581L 448.291,1548.05L 455.342,1548.05L 455.342,1572.51L 473.546,1572.51L 473.546,1581L 448.291,1581 Z "/>
		<path fill="#DCFF85" fill-opacity="1" stroke-width="0.2" stroke-linejoin="round" d="M 479.398,1581L 479.398,1548.05L 486.448,1548.05L 486.448,1572.51L 504.652,1572.51L 504.652,1581L 479.398,1581 Z "/>
		<path fill="#DCFF85" fill-opacity="1" stroke-width="0.2" stroke-linejoin="round" d="M 537.877,1569.02L 537.877,1548.05L 510.504,1548.05L 510.504,1581L 537.877,1581L 537.877,1572.51L 517.555,1572.51L 517.555,1556.04L 530.827,1556.04L 530.827,1560.53L 525.189,1560.53L 525.189,1569.02L 537.877,1569.02 Z "/>
		<path fill="#DCFF85" fill-opacity="1" stroke-width="0.2" stroke-linejoin="round" d="M 568.569,1548.16L 561.518,1548.16L 561.518,1567.21L 547.585,1547.56L 542.316,1552.77L 556.502,1572.51L 542.977,1572.51L 542.977,1581L 568.569,1581L 568.569,1548.16 Z "/>
	</g>
	<g>
		<path fill="#DCFF85" fill-opacity="1" stroke-width="0.2" stroke-linejoin="round" d="M 199.247,1589.35L 186.716,1615L 178.917,1615L 167.498,1591.56L 167.498,1590.35L 168.093,1589.54L 168.874,1589.35L 179.333,1589.35L 184.609,1599.99L 179.146,1599.99L 175.799,1592.25L 173.232,1592.25L 182.315,1610.89L 183.505,1610.89L 194.107,1589.35L 199.247,1589.35 Z "/>
		<path fill="#DCFF85" fill-opacity="1" stroke-width="0.2" stroke-linejoin="round" d="M 201.261,1589.4L 206.358,1589.4L 206.358,1594.44L 220.121,1594.44L 227.139,1589.4L 237.411,1589.4L 220.121,1600.36L 201.261,1600.36L 201.261,1589.4 Z M 201.261,1604.05L 220.666,1604.05L 237.641,1615L 228.056,1615L 219.748,1609.97L 206.264,1609.97L 206.264,1615L 201.261,1615L 201.261,1604.05 Z "/>
		<path fill="#DCFF85" fill-opacity="1" stroke-width="0.2" stroke-linejoin="round" d="M 273.017,1589.43C 273.289,1589.57 273.502,1589.82 273.655,1590.17L 273.655,1614.13C 273.535,1614.55 273.277,1614.84 272.88,1615L 240.58,1615L 240.58,1609.1L 268.429,1609.1L 268.429,1595.3L 240.58,1595.3L 240.58,1589.43L 273.017,1589.43 Z "/>
		<path fill="#DCFF85" fill-opacity="1" stroke-width="0.2" stroke-linejoin="round" d="M 299.626,1589.4L 307.239,1609.76L 304.213,1615L 279.576,1615L 276.457,1609.68L 283.798,1589.4L 299.626,1589.4 Z M 281.776,1609.39L 301.869,1609.39L 296.687,1595.3L 286.959,1595.3L 281.776,1609.39 Z "/>
		<path fill="#DCFF85" fill-opacity="1" stroke-width="0.2" stroke-linejoin="round" d="M 337.654,1589.4L 318.479,1615L 311.877,1615L 325.912,1596.04L 325.912,1595.59L 309.074,1595.59L 313.16,1589.4L 337.654,1589.4 Z "/>
		<path fill="#DCFF85" fill-opacity="1" stroke-width="0.2" stroke-linejoin="round" d="M 372.571,1589.43C 372.844,1589.57 373.056,1589.82 373.209,1590.17L 373.209,1614.13C 373.09,1614.55 372.832,1614.84 372.435,1615L 340.134,1615L 340.134,1609.1L 367.984,1609.1L 367.984,1595.3L 340.134,1595.3L 340.134,1589.43L 372.571,1589.43 Z "/>
		<path fill="#DCFF85" fill-opacity="1" stroke-width="0.2" stroke-linejoin="round" d="M 388.672,1589.33L 388.672,1615L 384.134,1615L 384.134,1595.78L 379.267,1600.94L 375.733,1597.15C 375.704,1597.01 375.766,1596.87 375.919,1596.72L 382.758,1589.33L 388.672,1589.33 Z "/>
		<path fill="#DCFF85" fill-opacity="1" stroke-width="0.2" stroke-linejoin="round" d="M 414.593,1589.4L 419.689,1589.4L 419.689,1594.44L 433.453,1594.44L 440.47,1589.4L 450.743,1589.4L 433.453,1600.36L 414.593,1600.36L 414.593,1589.4 Z M 414.593,1604.05L 433.997,1604.05L 450.972,1615L 441.388,1615L 433.08,1609.97L 419.596,1609.97L 419.596,1615L 414.593,1615L 414.593,1604.05 Z "/>
		<path fill="#DCFF85" fill-opacity="1" stroke-width="0.2" stroke-linejoin="round" d="M 476.348,1589.3L 476.348,1615.02L 469.739,1615.02L 453.868,1604.15L 456.8,1599.33L 471.302,1609.15L 471.302,1589.3L 476.348,1589.3 Z "/>
		<path fill="#DCFF85" fill-opacity="1" stroke-width="0.2" stroke-linejoin="round" d="M 502.04,1589.3L 502.04,1615.02L 495.431,1615.02L 479.56,1604.15L 482.492,1599.33L 496.993,1609.15L 496.993,1589.3L 502.04,1589.3 Z "/>
		<path fill="#DCFF85" fill-opacity="1" stroke-width="0.2" stroke-linejoin="round" d="M 538.556,1589.38L 538.556,1595.28L 535.072,1595.28L 535.072,1615L 530.341,1615L 530.341,1595.28L 529.703,1595.28L 521.445,1615L 515.388,1615L 504.563,1589.38L 510.384,1589.38L 518.463,1607.71L 526.305,1589.38L 538.556,1589.38 Z "/>
		<path fill="#DCFF85" fill-opacity="1" stroke-width="0.2" stroke-linejoin="round" d="M 572.692,1589.35L 560.161,1615L 552.362,1615L 540.943,1591.56L 540.943,1590.35L 541.538,1589.54L 542.319,1589.35L 552.778,1589.35L 558.054,1599.99L 552.591,1599.99L 549.244,1592.25L 546.678,1592.25L 555.76,1610.89L 556.95,1610.89L 567.552,1589.35L 572.692,1589.35 Z "/>
	</g>
	<path fill="none" stroke-width="19" stroke-linejoin="round" stroke="#1C79D4" stroke-opacity="0.803922" d="M -202.757,1634C -202.757,1634 1171.73,1116.65 2144,-93.9998"/>
	<g>
		<path fill="#DCFF85" fill-opacity="1" stroke-width="6" stroke-linejoin="round" stroke="#DCFF85" stroke-opacity="1" d="M 803.776,747.505L 803.776,807.925L 876.278,747.505L 803.776,747.505 Z "/>
		<path fill="none" stroke-width="16" stroke-linejoin="round" stroke="#DCFF85" stroke-opacity="1" d="M 727.243,675L 799.529,675L 1303.24,675L 1303.24,1251L 727.243,1251L 727.243,735.217L 727.243,675 Z "/>
		<rect x="803.778" y="747.505" fill="none" stroke-width="16" stroke-linejoin="round" stroke="#DCFF85" stroke-opacity="1" width="418.908" height="426.964"/>
		<path fill="#DCFF85" fill-opacity="1" stroke-width="6" stroke-linejoin="round" stroke="#DCFF85" stroke-opacity="1" d="M 1218.86,1166.62L 1218.86,1106.2L 1146.36,1166.62L 1218.86,1166.62 Z "/>
		<ellipse fill="#030409" fill-opacity="1" stroke-width="16" stroke-linejoin="round" stroke="#DCFF85" stroke-opacity="1" cx="1017.66" cy="962.196" rx="120.838" ry="116.811"/>
		<ellipse fill="#DCFF85" fill-opacity="1" stroke-width="0.2" stroke-linejoin="round" cx="1017.26" cy="960.987" rx="72.5039" ry="72.5035"/>
	</g>
	<path fill="none" stroke-width="16" stroke-linejoin="round" stroke="#DCFF85" stroke-opacity="1" d="M 1301.24,872C 1301.24,872 3296,192 3776,-95.9998"/>
	<path fill="none" stroke-width="16" stroke-linejoin="round" stroke="#DCFF85" stroke-opacity="1" d="M 1301.24,1120C 1301.24,1120 1686.22,1163.84 1749.24,1175C 1845.24,1192 2150.24,1228 2302.24,1264C 2469.93,1303.72 2626.24,1376 2850.24,1536C 3074.24,1696 3174.6,1758.97 3317.24,1803C 3398.24,1828 3675.24,1943 3675.24,1943"/>
	<line fill="none" stroke-width="16" stroke-linejoin="round" stroke="#DCFF85" stroke-opacity="1" x1="869.243" y1="1251" x2="706.243" y2="1520"/>
	<line fill="none" stroke-width="16" stroke-linejoin="round" stroke="#DCFF85" stroke-opacity="1" x1="920.243" y1="1248" x2="737.243" y2="1547"/>
	<path fill="none" stroke-width="16" stroke-linejoin="round" stroke="#DCFF85" stroke-opacity="1" d="M 1503.17,1774.89C 1503.17,1774.89 1279.24,1481 1166.31,1252.11"/>
	<path fill="none" stroke-width="16" stroke-linejoin="round" stroke="#DCFF85" stroke-opacity="1" d="M 1478.24,1807C 1478.24,1807 1235.86,1493.83 1115.24,1253"/>
	<path fill="none" stroke-width="16" stroke-linejoin="round" stroke="#05408F" stroke-opacity="0.803922" d="M 3669.24,2016C 3669.24,2016 2613.24,2304 2517.24,2464"/>
	<g>
		<path fill="#DCFF85" fill-opacity="1" stroke-width="0.2" stroke-linejoin="round" d="M 2973.54,2002.64L 2995.07,1964.41L 3022.46,1964.41L 3022.46,2007.15L 2999.33,2007.15L 2999.33,1996.14L 3011.13,1996.14L 3011.13,1975.42L 3001.53,1975.42L 2983.2,2007.8L 2973.54,2002.64 Z "/>
		<path fill="#DCFF85" fill-opacity="1" stroke-width="0.2" stroke-linejoin="round" d="M 3075.78,1964.41L 3075.78,1993.36L 3061.54,2007.15L 3031.79,2007.15L 3031.79,1964.41L 3075.78,1964.41 Z M 3064.45,1975.42L 3043.13,1975.42L 3043.13,1996.14L 3056.93,1996.14L 3064.45,1988.8L 3064.45,1975.42 Z "/>
		<rect x="3085.12" y="1964.41" fill="#DCFF85" fill-opacity="1" stroke-width="0.2" stroke-linejoin="round" width="11.3308" height="42.746"/>
		<path fill="#DCFF85" fill-opacity="1" stroke-width="0.2" stroke-linejoin="round" d="M 3117.11,1975.42L 3117.11,2007.15L 3105.78,2007.15L 3105.78,1964.41L 3135.52,1964.41L 3149.77,1978.2L 3149.77,2007.15L 3138.44,2007.15L 3138.44,1982.92L 3130.92,1975.42L 3117.11,1975.42 Z "/>
		<path fill="#DCFF85" fill-opacity="1" stroke-width="0.2" stroke-linejoin="round" d="M 3155.49,2002.64L 3177.03,1964.41L 3204.42,1964.41L 3204.42,2007.15L 3181.29,2007.15L 3181.29,1996.14L 3193.09,1996.14L 3193.09,1975.42L 3183.49,1975.42L 3165.16,2007.8L 3155.49,2002.64 Z "/>
		<path fill="#DCFF85" fill-opacity="1" stroke-width="0.2" stroke-linejoin="round" d="M 3215.08,1990.73L 3224.58,1981.29L 3213.88,1970.73L 3221.61,1963.11L 3242.34,1983.57L 3247.74,1978.16L 3247.74,1964.29L 3259.07,1964.29L 3259.07,1982.65L 3250.43,1991.13L 3260.27,2000.83L 3252.54,2008.45L 3232.82,1988.91L 3226.42,1995.16L 3226.42,2007.28L 3215.08,2007.28L 3215.08,1990.73 Z "/>
		<path fill="#DCFF85" fill-opacity="1" stroke-width="0.2" stroke-linejoin="round" d="M 3307.73,1975.42L 3307.73,2007.15L 3296.4,2007.15L 3296.4,1964.41L 3326.14,1964.41L 3340.39,1978.2L 3340.39,2007.15L 3329.06,2007.15L 3329.06,1982.92L 3321.54,1975.42L 3307.73,1975.42 Z "/>
		<path fill="#DCFF85" fill-opacity="1" stroke-width="0.2" stroke-linejoin="round" d="M 3393.71,1991.61L 3393.71,1964.41L 3349.72,1964.41L 3349.72,2007.15L 3393.71,2007.15L 3393.71,1996.14L 3361.05,1996.14L 3361.05,1974.77L 3382.38,1974.77L 3382.38,1980.6L 3373.32,1980.6L 3373.32,1991.61L 3393.71,1991.61 Z "/>
		<path fill="#DCFF85" fill-opacity="1" stroke-width="0.2" stroke-linejoin="round" d="M 3437.33,1971.23L 3428,1979.95L 3445.03,1979.95L 3445.03,2007.15L 3403.04,2007.15L 3403.04,1964.41L 3437.33,1964.41L 3437.33,1971.23 Z M 3414.37,1996.14L 3433.7,1996.14L 3433.7,1990.96L 3414.37,1990.96L 3414.37,1996.14 Z M 3420.73,1974.12L 3414.37,1974.12L 3414.28,1980.41L 3420.73,1974.12 Z "/>
		<path fill="#DCFF85" fill-opacity="1" stroke-width="0.2" stroke-linejoin="round" d="M 3487.02,1996.14L 3487.02,1964.41L 3498.35,1964.41L 3498.35,2007.15L 3468.61,2007.15L 3454.36,1993.36L 3454.36,1964.41L 3465.69,1964.41L 3465.69,1988.65L 3473.21,1996.14L 3487.02,1996.14 Z "/>
		<path fill="#DCFF85" fill-opacity="1" stroke-width="0.2" stroke-linejoin="round" d="M 3507.68,2007.15L 3507.68,1964.41L 3519.01,1964.41L 3519.01,1996.14L 3548.27,1996.14L 3548.27,2007.15L 3507.68,2007.15 Z "/>
		<path fill="#DCFF85" fill-opacity="1" stroke-width="0.2" stroke-linejoin="round" d="M 3554.07,2002.64L 3575.6,1964.41L 3602.99,1964.41L 3602.99,2007.15L 3579.86,2007.15L 3579.86,1996.14L 3591.66,1996.14L 3591.66,1975.42L 3582.06,1975.42L 3563.73,2007.8L 3554.07,2002.64 Z "/>
	</g>
	<g>
		<path fill="#DCFF85" fill-opacity="1" stroke-width="0.2" stroke-linejoin="round" d="M 2780.77,2031.15L 2790.8,2031.15L 2790.8,2038.95L 2817.88,2038.95L 2831.69,2031.15L 2851.91,2031.15L 2817.88,2048.14L 2780.77,2048.14L 2780.77,2031.15 Z M 2780.77,2053.86L 2818.96,2053.86L 2852.36,2070.85L 2833.5,2070.85L 2817.15,2063.05L 2790.61,2063.05L 2790.61,2070.85L 2780.77,2070.85L 2780.77,2053.86 Z "/>
		<path fill="#DCFF85" fill-opacity="1" stroke-width="0.2" stroke-linejoin="round" d="M 2911.05,2031.43L 2910.88,2032.13L 2873.94,2070.85L 2860.58,2070.85L 2875.67,2055.73L 2859.32,2055.73L 2866.27,2046.67L 2884.51,2046.67L 2890.46,2040.5L 2856.97,2040.46L 2863.48,2031.43L 2911.05,2031.43 Z "/>
		<path fill="#DCFF85" fill-opacity="1" stroke-width="0.2" stroke-linejoin="round" d="M 2940.12,2031.02L 2940.12,2070.85L 2931.19,2070.85L 2931.19,2041.03L 2921.61,2049.03L 2914.66,2043.16C 2914.6,2042.94 2914.72,2042.72 2915.02,2042.5L 2928.48,2031.02L 2940.12,2031.02 Z "/>
		<path fill="#DCFF85" fill-opacity="1" stroke-width="0.2" stroke-linejoin="round" d="M 2958.09,2063.17L 2959.18,2063.09L 2978.22,2031.15L 2990.14,2031.15L 3015.51,2070.85L 3003.77,2070.85L 2984.27,2039.48L 2965.4,2070.85L 2953.76,2070.85L 2953.13,2070.81L 2951.96,2069.33L 2950.87,2067.74L 2949.42,2065.54L 2948.16,2063L 2946.99,2060.35L 2946.26,2057.29L 2945.54,2053.81L 2945.27,2050.22L 2945.09,2046.34L 2945.9,2043.36L 2946.62,2040.18L 2947.44,2037.76L 2948.7,2035.56L 2949.87,2033.64L 2951.32,2032.05L 2952.12,2031.23L 2960.8,2031.23L 2959.26,2032.49L 2958.09,2034.05L 2956.82,2035.96L 2955.92,2037.85L 2955.12,2040.18L 2954.3,2043.24L 2953.76,2046.63L 2953.48,2050.02L 2953.76,2053.41L 2954.48,2057L 2955.38,2059.74L 2956.37,2061.41L 2958.09,2063.17 Z "/>
		<path fill="#DCFF85" fill-opacity="1" stroke-width="0.2" stroke-linejoin="round" d="M 3020.02,2031.15L 3030.05,2031.15L 3030.05,2038.95L 3057.14,2038.95L 3070.95,2031.15L 3091.16,2031.15L 3057.14,2048.14L 3020.02,2048.14L 3020.02,2031.15 Z M 3020.02,2053.86L 3058.21,2053.86L 3091.61,2070.85L 3072.75,2070.85L 3056.4,2063.05L 3029.87,2063.05L 3029.87,2070.85L 3020.02,2070.85L 3020.02,2053.86 Z "/>
		<path fill="#DCFF85" fill-opacity="1" stroke-width="0.2" stroke-linejoin="round" d="M 3149.58,2066.8L 3139.75,2070.85L 3105.97,2070.85L 3096.23,2066.8L 3118.8,2031.23L 3128.73,2031.23L 3149.58,2066.8 Z M 3136.76,2063L 3123.76,2039.97L 3109.5,2063L 3136.76,2063 Z "/>
		<path fill="#DCFF85" fill-opacity="1" stroke-width="0.2" stroke-linejoin="round" d="M 3212.69,2063.17L 3213.78,2063.09L 3232.82,2031.15L 3244.74,2031.15L 3270.11,2070.85L 3258.37,2070.85L 3238.88,2039.48L 3220,2070.85L 3208.36,2070.85L 3207.73,2070.81L 3206.56,2069.33L 3205.47,2067.74L 3204.02,2065.54L 3202.76,2063L 3201.59,2060.35L 3200.86,2057.29L 3200.14,2053.81L 3199.87,2050.22L 3199.69,2046.34L 3200.5,2043.36L 3201.22,2040.18L 3202.04,2037.76L 3203.3,2035.56L 3204.47,2033.64L 3205.92,2032.05L 3206.73,2031.23L 3215.4,2031.23L 3213.86,2032.49L 3212.69,2034.05L 3211.42,2035.96L 3210.52,2037.85L 3209.72,2040.18L 3208.9,2043.24L 3208.36,2046.63L 3208.08,2050.02L 3208.36,2053.41L 3209.08,2057L 3209.98,2059.74L 3210.97,2061.41L 3212.69,2063.17 Z "/>
		<path fill="#DCFF85" fill-opacity="1" stroke-width="0.2" stroke-linejoin="round" d="M 3340.71,2031.11L 3340.71,2040.25L 3333.86,2040.25L 3333.86,2070.85L 3324.55,2070.85L 3324.55,2040.25L 3323.29,2040.25L 3307.04,2070.85L 3295.12,2070.85L 3273.82,2031.11L 3285.27,2031.11L 3301.17,2059.53L 3316.61,2031.11L 3340.71,2031.11 Z "/>
		<path fill="#DCFF85" fill-opacity="1" stroke-width="0.2" stroke-linejoin="round" d="M 3358.77,2031.43L 3402.29,2031.43L 3415.01,2044.3L 3415.01,2046.38L 3403.83,2046.38L 3398.68,2040.3L 3362.57,2040.3L 3357.15,2046.38L 3345.95,2046.38L 3345.95,2044.3L 3358.77,2031.43 Z M 3366.53,2046.26L 3395.6,2046.26L 3395.6,2055.73L 3366.53,2055.73L 3366.53,2046.26 Z M 3345.86,2056.84L 3357.05,2056.84L 3362.38,2062.1L 3398.58,2062.1L 3403.73,2056.92L 3414.93,2056.92L 3414.93,2058.76L 3402.19,2070.88L 3358.59,2070.88L 3345.86,2058.76L 3345.86,2056.84 Z "/>
		<path fill="#DCFF85" fill-opacity="1" stroke-width="0.2" stroke-linejoin="round" d="M 3480.2,2031.15L 3482.38,2033.1L 3482.38,2068.8L 3480.02,2070.85L 3419.9,2070.85L 3419.9,2031.15L 3430.28,2031.15L 3430.28,2062.27L 3471.99,2062.27L 3471.99,2040.3L 3458.53,2040.3L 3452.21,2047.85L 3438.76,2047.85L 3452.93,2031.15L 3480.2,2031.15 Z "/>
		<path fill="#DCFF85" fill-opacity="1" stroke-width="0.2" stroke-linejoin="round" d="M 3531.58,2030.99L 3531.58,2070.88L 3518.57,2070.88L 3487.34,2054.02L 3493.11,2046.54L 3521.65,2061.78L 3521.65,2030.99L 3531.58,2030.99 Z "/>
		<path fill="#DCFF85" fill-opacity="1" stroke-width="0.2" stroke-linejoin="round" d="M 3537.35,2031.15L 3547.38,2031.15L 3547.38,2038.95L 3574.46,2038.95L 3588.28,2031.15L 3608.49,2031.15L 3574.46,2048.14L 3537.35,2048.14L 3537.35,2031.15 Z M 3537.35,2053.86L 3575.54,2053.86L 3608.94,2070.85L 3590.08,2070.85L 3573.73,2063.05L 3547.2,2063.05L 3547.2,2070.85L 3537.35,2070.85L 3537.35,2053.86 Z "/>
	</g>
	<ellipse fill="#030409" fill-opacity="1" stroke-width="16" stroke-linejoin="round" stroke="#DCFF85" stroke-opacity="1" cx="3789.17" cy="1997.9" rx="125.069" ry="120.9"/>
	<ellipse fill="#DCFF85" fill-opacity="1" stroke-width="0.2" stroke-linejoin="round" cx="3790.86" cy="1999.34" rx="75.0422" ry="75.0419"/>
</svg>
