<?xml version="1.0" encoding="utf-8"?>
<!DOCTYPE svg PUBLIC "-//W3C//DTD SVG 1.1//EN" "http://www.w3.org/Graphics/SVG/1.1/DTD/svg11.dtd">
<svg xmlns="http://www.w3.org/2000/svg" xmlns:xlink="http://www.w3.org/1999/xlink" version="1.1" baseProfile="full" width="3840" height="2160" viewBox="0 0 3840.00 2160.00" enable-background="new 0 0 3840.00 2160.00" xml:space="preserve">
	<rect x="0" y="0.000488281" fill="#030409" fill-opacity="1" fill-rule="evenodd" stroke-linejoin="round" stroke="#000000" stroke-opacity="1" width="3840" height="2160"/>
	<line fill="none" stroke-width="6" stroke-linejoin="round" stroke="#1B56E3" stroke-opacity="0.403922" x1="545" y1="0" x2="545" y2="2160"/>
	<line fill="none" stroke-width="6" stroke-linejoin="round" stroke="#1B56E3" stroke-opacity="0.403922" x1="2974" y1="0" x2="2974" y2="2160"/>
	<line fill="none" stroke-width="6" stroke-linejoin="round" stroke="#1B56E3" stroke-opacity="0.403922" x1="0.000228882" y1="2069" x2="3840" y2="2069"/>
	<g>
		<path fill="#DCFF85" fill-opacity="1" stroke-width="0.2" stroke-linejoin="round" d="M 999.84,711.185L 991.975,721.095L 1006.33,721.095L 1006.33,752L 970.933,752L 970.933,703.436L 999.84,703.436L 999.84,711.185 Z M 980.484,739.491L 996.777,739.491L 996.777,733.604L 980.484,733.604L 980.484,739.491 Z M 985.847,714.473L 980.484,714.473L 980.405,721.613L 985.847,714.473 Z "/>
		<path fill="#DCFF85" fill-opacity="1" stroke-width="0.2" stroke-linejoin="round" d="M 1051.27,734.34L 1051.27,703.436L 1014.19,703.436L 1014.19,752L 1051.27,752L 1051.27,739.491L 1023.74,739.491L 1023.74,715.209L 1041.72,715.209L 1041.72,721.831L 1034.08,721.831L 1034.08,734.34L 1051.27,734.34 Z "/>
		<path fill="#DCFF85" fill-opacity="1" stroke-width="0.2" stroke-linejoin="round" d="M 1096.22,715.209L 1068.69,715.209L 1068.69,721.831L 1096.22,721.831L 1096.22,752L 1059.14,752L 1059.14,739.491L 1086.67,739.491L 1086.67,734.34L 1059.14,734.34L 1059.14,703.436L 1096.22,703.436L 1096.22,715.209 Z "/>
		<path fill="#DCFF85" fill-opacity="1" stroke-width="0.2" stroke-linejoin="round" d="M 1141.73,703.436L 1104.08,703.436L 1104.08,703.585L 1104.08,764.509L 1113.64,764.509L 1113.64,752L 1127.99,752L 1141.73,736.329L 1141.73,703.436 Z M 1132.18,715.945L 1132.18,731.305L 1125.71,739.491L 1113.64,739.491L 1113.64,715.945L 1132.18,715.945 Z "/>
		<rect x="1149.59" y="703.436" fill="#DCFF85" fill-opacity="1" stroke-width="0.2" stroke-linejoin="round" width="9.5509" height="48.5643"/>
		<path fill="#DCFF85" fill-opacity="1" stroke-width="0.2" stroke-linejoin="round" d="M 1176.56,715.945L 1176.56,752L 1167.01,752L 1167.01,703.436L 1192.08,703.436L 1204.09,719.106L 1204.09,752L 1194.54,752L 1194.54,724.464L 1188.2,715.945L 1176.56,715.945 Z "/>
	</g>
	<g>
		<path fill="#DCFF85" fill-opacity="1" stroke-width="0.2" stroke-linejoin="round" d="M 878.124,768.604L 918.262,768.604L 929.998,782.117L 929.998,784.302L 919.68,784.302L 914.931,777.914L 881.623,777.914L 876.627,784.302L 866.297,784.302L 866.297,782.117L 878.124,768.604 Z M 885.279,784.174L 912.095,784.174L 912.095,794.128L 885.279,794.128L 885.279,784.174 Z M 866.219,795.288L 876.536,795.288L 881.454,800.817L 914.84,800.817L 919.589,795.375L 929.92,795.375L 929.92,797.305L 918.171,810.04L 877.954,810.04L 866.219,797.305L 866.219,795.288 Z "/>
		<path fill="#DCFF85" fill-opacity="1" stroke-width="0.2" stroke-linejoin="round" d="M 995.533,768.262L 995.533,777.867L 989.21,777.867L 989.21,810L 980.623,810L 980.623,777.867L 979.465,777.867L 964.476,810L 953.482,810L 933.836,768.262L 944.401,768.262L 959.064,798.116L 973.298,768.262L 995.533,768.262 Z "/>
		<path fill="#DCFF85" fill-opacity="1" stroke-width="0.2" stroke-linejoin="round" d="M 1020.02,768.302L 1052.57,800.094L 1052.57,768.302L 1061.73,768.302L 1061.73,810L 1049.16,810L 1006.28,768.302L 1020.02,768.302 Z M 1002.78,790.18L 1036,801.937L 1033.08,810L 999.696,798.458L 1002.78,790.18 Z "/>
		<path fill="#DCFF85" fill-opacity="1" stroke-width="0.2" stroke-linejoin="round" d="M 1106.36,768.517L 1106.36,810L 1074.22,810C 1068.9,806.166 1066.06,799.959 1065.73,791.38C 1066.39,782.175 1069.84,774.569 1076.06,768.564L 1090.04,768.564L 1090.04,778.598L 1080.3,778.598L 1080.3,776.366L 1078.8,776.366C 1076.58,778.886 1075.47,783.891 1075.47,791.38C 1075.36,796.93 1076.17,799.962 1077.89,800.475L 1096.54,800.475L 1096.54,768.477L 1106.36,768.517 Z "/>
		<path fill="#DCFF85" fill-opacity="1" stroke-width="0.2" stroke-linejoin="round" d="M 1134.01,768.175L 1134.01,810L 1125.77,810L 1125.77,778.685L 1116.94,787.09L 1110.52,780.917C 1110.47,780.689 1110.58,780.459 1110.86,780.227L 1123.27,768.175L 1134.01,768.175 Z "/>
		<path fill="#DCFF85" fill-opacity="1" stroke-width="0.2" stroke-linejoin="round" d="M 1150.58,801.937L 1151.58,801.85L 1169.15,768.302L 1180.14,768.302L 1203.54,810L 1192.71,810L 1174.73,777.056L 1157.32,810L 1146.59,810L 1146,809.96L 1144.92,808.412L 1143.92,806.743L 1142.58,804.423L 1141.42,801.762L 1140.34,798.974L 1139.67,795.757L 1139,792.11L 1138.76,788.337L 1138.59,784.262L 1139.34,781.131L 1140.01,777.787L 1140.76,775.253L 1141.92,772.934L 1143,770.923L 1144.34,769.247L 1145.08,768.39L 1153.08,768.39L 1151.66,769.717L 1150.58,771.352L 1149.41,773.363L 1148.58,775.34L 1147.84,777.787L 1147.08,781.004L 1146.59,784.563L 1146.33,788.122L 1146.59,791.682L 1147.25,795.455L 1148.08,798.331L 1149,800.094L 1150.58,801.937 Z "/>
	</g>
	<line fill="none" stroke-width="6" stroke-linejoin="round" stroke="#1B56E3" stroke-opacity="0.403922" x1="0.000228882" y1="943" x2="3840" y2="943"/>
	<line fill="none" stroke-width="6" stroke-linejoin="round" stroke="#1B56E3" stroke-opacity="0.403922" x1="1760" y1="0" x2="1760" y2="2160"/>
	<path fill="none" stroke-width="18" stroke-linejoin="round" stroke="#DCFF85" stroke-opacity="1" d="M 3100.65,-1545.46C 3532.5,-1814.29 4037.87,-1782.76 4229.42,-1475.05C 4420.98,-1167.33 4226.19,-699.947 3794.34,-431.116C 3362.49,-162.285 2857.12,-193.808 2665.56,-501.525C 2474,-809.241 2668.8,-1276.63 3100.65,-1545.46 Z "/>
	<path fill="none" stroke-width="33" stroke-linejoin="round" stroke="#DCFF85" stroke-opacity="1" d="M 3464,3424C 3464,3424 4896,1632 5216,864"/>
	<path fill="none" stroke-width="14" stroke-linejoin="round" stroke="#DCFF85" stroke-opacity="1" d="M 4574.67,553C 4574.67,553 4582.67,701 4559.67,707C 4536.67,713 4518.67,704 4521.67,686C 4524.67,668 4507.67,570 4503.67,568C 4499.67,566 4499.67,553 4499.67,553L 4495.67,544"/>
	<g>
		<path fill="#0083FF" fill-opacity="1" stroke-linejoin="round" d="M 2753.32,728L 2753.32,718.026L 2741.05,718.026L 2741.05,728L 2733.86,728L 2733.86,701.667L 2741.05,701.667L 2741.05,711.243L 2753.32,711.243L 2753.32,701.667L 2760.52,701.667L 2760.52,728L 2753.32,728 Z "/>
		<rect x="2766.44" y="701.667" fill="#0083FF" fill-opacity="1" stroke-linejoin="round" width="7.19263" height="13.1669"/>
		<path fill="#0083FF" fill-opacity="1" stroke-linejoin="round" d="M 2807.48,711.243L 2807.48,728L 2779.56,728L 2779.56,701.667L 2807.48,701.667L 2807.48,708.45L 2786.75,708.45L 2786.75,721.617L 2800.29,721.617L 2800.29,718.026L 2794.54,718.026L 2794.54,711.243L 2807.48,711.243 Z "/>
		<path fill="#0083FF" fill-opacity="1" stroke-linejoin="round" d="M 2811.12,725.22L 2824.79,701.667L 2842.17,701.667L 2842.17,728L 2827.49,728L 2827.49,721.217L 2834.98,721.217L 2834.98,708.45L 2828.89,708.45L 2817.25,728.399L 2811.12,725.22 Z "/>
		<path fill="#0083FF" fill-opacity="1" stroke-linejoin="round" d="M 2845.81,725.22L 2859.48,701.667L 2876.87,701.667L 2876.87,728L 2862.18,728L 2862.18,721.217L 2869.68,721.217L 2869.68,708.45L 2863.58,708.45L 2851.95,728.399L 2845.81,725.22 Z "/>
		<path fill="#0083FF" fill-opacity="1" stroke-linejoin="round" d="M 2882.79,728L 2882.79,701.667L 2909.45,701.667L 2909.45,718.026L 2898.84,718.026L 2909.45,728L 2900.55,728L 2889.98,718.107L 2889.98,728L 2882.79,728 Z M 2902.25,708.45L 2889.98,708.45L 2889.98,711.243L 2902.25,711.243L 2902.25,708.45 Z "/>
		<path fill="#0083FF" fill-opacity="1" stroke-linejoin="round" d="M 2943.29,701.667L 2943.29,719.503L 2934.25,728L 2915.37,728L 2915.37,701.667L 2943.29,701.667 Z M 2936.1,708.45L 2922.56,708.45L 2922.56,721.217L 2931.33,721.217L 2936.1,716.691L 2936.1,708.45 Z "/>
	</g>
	<g>
		<path fill="#0083FF" fill-opacity="1" stroke-width="0.2" stroke-linejoin="round" d="M 2775.63,740.096L 2775.63,746.604L 2733.39,746.604L 2733.39,740.096L 2775.63,740.096 Z M 2740.59,750.962L 2768.36,750.962L 2768.36,757.466L 2740.59,757.466L 2740.59,750.962 Z M 2733.39,761.883L 2775.63,761.883L 2775.63,768.419L 2733.39,768.419L 2733.39,761.883 Z "/>
		<path fill="#0083FF" fill-opacity="1" stroke-width="0.2" stroke-linejoin="round" d="M 2788.88,736.9L 2792.54,739.487L 2787.02,739.487L 2787.02,757.235L 2780.26,751.048L 2780.26,736.9L 2788.88,736.9 Z "/>
		<path fill="#0083FF" fill-opacity="1" stroke-width="0.2" stroke-linejoin="round" d="M 2833.9,740.096L 2833.84,740.59L 2819.55,768.419L 2796.3,768.419L 2796.3,740.096L 2801.27,740.096L 2801.27,761.883L 2816.6,761.883L 2824.24,746.137L 2824.24,745.964L 2811.47,745.964L 2811.47,747.676L 2806.39,747.676L 2806.39,740.096L 2833.9,740.096 Z "/>
		<path fill="#0083FF" fill-opacity="1" stroke-width="0.2" stroke-linejoin="round" d="M 2875.64,740.214C 2875.96,740.368 2876.22,740.639 2876.4,741.026L 2876.4,767.461C 2876.26,767.924 2875.95,768.243 2875.48,768.419L 2837.06,768.419L 2837.06,761.91L 2870.18,761.91L 2870.18,746.691L 2837.06,746.691L 2837.06,740.214L 2875.64,740.214 Z "/>
		<path fill="#0083FF" fill-opacity="1" stroke-width="0.2" stroke-linejoin="round" d="M 2918.74,740.214C 2919.07,740.368 2919.32,740.639 2919.5,741.026L 2919.5,767.461C 2919.36,767.924 2919.05,768.243 2918.58,768.419L 2880.17,768.419L 2880.17,761.91L 2913.29,761.91L 2913.29,746.691L 2880.17,746.691L 2880.17,740.214L 2918.74,740.214 Z "/>
		<path fill="#0083FF" fill-opacity="1" stroke-width="0.2" stroke-linejoin="round" d="M 2956.88,740.182L 2934.07,768.419L 2926.22,768.419L 2942.91,747.503L 2942.91,747.008L 2922.89,747.008L 2927.75,740.182L 2956.88,740.182 Z "/>
		<path fill="#0083FF" fill-opacity="1" stroke-width="0.2" stroke-linejoin="round" d="M 2991.8,740.386L 2991.7,740.881L 2969.38,768.419L 2961.3,768.419L 2970.42,757.67L 2960.54,757.67L 2964.74,751.221L 2975.76,751.221L 2979.36,746.836L 2959.12,746.804L 2963.05,740.386L 2991.8,740.386 Z "/>
	</g>
	<path fill="#267FF8" fill-opacity="1" stroke-width="0.2" stroke-linejoin="round" stroke="#267FF8" stroke-opacity="1" d="M 2642.26,682C 2675.04,682 2701.61,707.743 2701.61,739.5C 2701.61,771.256 2675.04,797 2642.26,797C 2609.48,797 2582.9,771.256 2582.9,739.5C 2582.9,707.743 2609.48,682 2642.26,682 Z "/>
	<path fill="#267FF8" fill-opacity="1" stroke-width="0.2" stroke-linejoin="round" stroke="#267FF8" stroke-opacity="1" d="M 2902.35,1940C 2935.14,1940 2961.71,1965.74 2961.71,1997.5C 2961.71,2029.26 2935.14,2055 2902.35,2055C 2869.57,2055 2843,2029.26 2843,1997.5C 2843,1965.74 2869.57,1940 2902.35,1940 Z "/>
	<g>
		<path fill="#0083FF" fill-opacity="1" stroke-linejoin="round" d="M 2567.41,1953.98L 2567.41,1978.05L 2558.2,1989.51L 2538.97,1989.51L 2538.97,1953.98L 2567.41,1953.98 Z M 2560.09,1963.13L 2546.3,1963.13L 2546.3,1980.36L 2555.23,1980.36L 2560.09,1974.25L 2560.09,1963.13 Z "/>
		<path fill="#0083FF" fill-opacity="1" stroke-linejoin="round" d="M 2573.45,1989.51L 2573.45,1953.98L 2600.59,1953.98L 2600.59,1976.05L 2589.79,1976.05L 2600.59,1989.51L 2591.53,1989.51L 2580.77,1976.16L 2580.77,1989.51L 2573.45,1989.51 Z M 2593.27,1963.13L 2580.77,1963.13L 2580.77,1966.9L 2593.27,1966.9L 2593.27,1963.13 Z "/>
		<path fill="#0083FF" fill-opacity="1" stroke-linejoin="round" d="M 2627.74,1980.36L 2627.74,1953.98L 2635.06,1953.98L 2635.06,1989.51L 2615.83,1989.51L 2606.62,1978.05L 2606.62,1953.98L 2613.95,1953.98L 2613.95,1974.13L 2618.81,1980.36L 2627.74,1980.36 Z "/>
		<path fill="#0083FF" fill-opacity="1" stroke-linejoin="round" d="M 2669.53,1953.98L 2669.53,1978.05L 2660.32,1989.51L 2641.09,1989.51L 2641.09,1953.98L 2669.53,1953.98 Z M 2662.21,1963.13L 2648.42,1963.13L 2648.42,1980.36L 2657.35,1980.36L 2662.21,1974.25L 2662.21,1963.13 Z "/>
		<path fill="#0083FF" fill-opacity="1" stroke-linejoin="round" d="M 2704,1953.98L 2704,1989.51L 2675.57,1989.51L 2675.57,1953.98L 2704,1953.98 Z M 2696.68,1963.13L 2682.89,1963.13L 2682.89,1980.36L 2696.68,1980.36L 2696.68,1963.13 Z "/>
		<path fill="#0083FF" fill-opacity="1" stroke-linejoin="round" d="M 2717.36,1963.13L 2717.36,1989.51L 2710.04,1989.51L 2710.04,1953.98L 2729.27,1953.98L 2738.48,1965.45L 2738.48,1989.51L 2731.15,1989.51L 2731.15,1969.37L 2726.29,1963.13L 2717.36,1963.13 Z "/>
		<path fill="#0083FF" fill-opacity="1" stroke-linejoin="round" d="M 2751.83,1963.13L 2751.83,1989.51L 2744.51,1989.51L 2744.51,1953.98L 2763.74,1953.98L 2772.95,1965.45L 2772.95,1989.51L 2765.62,1989.51L 2765.62,1969.37L 2760.76,1963.13L 2751.83,1963.13 Z "/>
		<path fill="#0083FF" fill-opacity="1" stroke-linejoin="round" d="M 2776.65,1985.76L 2790.57,1953.98L 2808.28,1953.98L 2808.28,1989.51L 2793.33,1989.51L 2793.33,1980.36L 2800.96,1980.36L 2800.96,1963.13L 2794.75,1963.13L 2782.9,1990.05L 2776.65,1985.76 Z "/>
	</g>
	<g>
		<path fill="#0083FF" fill-opacity="1" stroke-width="0.2" stroke-linejoin="round" d="M 2498.62,2006.86L 2498.51,2007.42L 2473.72,2039L 2464.76,2039L 2474.88,2026.68L 2463.91,2026.68L 2468.57,2019.28L 2480.81,2019.28L 2484.81,2014.25L 2462.33,2014.22L 2466.7,2006.86L 2498.62,2006.86 Z "/>
		<path fill="#0083FF" fill-opacity="1" stroke-width="0.2" stroke-linejoin="round" d="M 2539.22,2006.62L 2513.89,2039L 2505.17,2039L 2523.71,2015.02L 2523.71,2014.45L 2501.47,2014.45L 2506.87,2006.62L 2539.22,2006.62 Z "/>
		<path fill="#0083FF" fill-opacity="1" stroke-width="0.2" stroke-linejoin="round" d="M 2582.48,2006.62L 2583.94,2008.22L 2583.94,2037.33L 2582.36,2039L 2542.01,2039L 2542.01,2006.62L 2548.98,2006.62L 2548.98,2032.01L 2576.97,2032.01L 2576.97,2014.09L 2567.94,2014.09L 2563.7,2020.25L 2554.67,2020.25L 2564.18,2006.62L 2582.48,2006.62 Z "/>
		<path fill="#0083FF" fill-opacity="1" stroke-width="0.2" stroke-linejoin="round" d="M 2622.83,2006.86L 2622.72,2007.42L 2597.93,2039L 2588.97,2039L 2599.09,2026.68L 2588.12,2026.68L 2592.78,2019.28L 2605.03,2019.28L 2609.02,2014.25L 2586.54,2014.22L 2590.91,2006.86L 2622.83,2006.86 Z "/>
		<path fill="#0083FF" fill-opacity="1" stroke-width="0.2" stroke-linejoin="round" d="M 2656.22,2006.62L 2666.28,2032.37L 2662.28,2039L 2629.74,2039L 2625.63,2032.27L 2635.32,2006.62L 2656.22,2006.62 Z M 2632.65,2031.91L 2659.19,2031.91L 2652.34,2014.09L 2639.5,2014.09L 2632.65,2031.91 Z "/>
		<path fill="#0083FF" fill-opacity="1" stroke-width="0.2" stroke-linejoin="round" d="M 2677.43,2032.74L 2678.16,2032.67L 2690.94,2006.62L 2698.94,2006.62L 2715.96,2039L 2708.09,2039L 2695,2013.42L 2682.33,2039L 2674.52,2039L 2674.1,2038.97L 2673.31,2037.77L 2672.58,2036.47L 2671.61,2034.67L 2670.77,2032.6L 2669.98,2030.44L 2669.49,2027.94L 2669,2025.11L 2668.82,2022.18L 2668.7,2019.02L 2669.25,2016.58L 2669.73,2013.99L 2670.28,2012.02L 2671.13,2010.22L 2671.91,2008.66L 2672.89,2007.36L 2673.43,2006.69L 2679.25,2006.69L 2678.22,2007.72L 2677.43,2008.99L 2676.58,2010.55L 2675.97,2012.09L 2675.43,2013.99L 2674.88,2016.49L 2674.52,2019.25L 2674.33,2022.01L 2674.52,2024.78L 2675.01,2027.71L 2675.61,2029.94L 2676.28,2031.31L 2677.43,2032.74 Z "/>
		<path fill="#0083FF" fill-opacity="1" stroke-width="0.2" stroke-linejoin="round" d="M 2727.72,2032.74L 2728.45,2032.67L 2741.23,2006.62L 2749.23,2006.62L 2766.25,2039L 2758.38,2039L 2745.29,2013.42L 2732.62,2039L 2724.81,2039L 2724.39,2038.97L 2723.6,2037.77L 2722.87,2036.47L 2721.9,2034.67L 2721.06,2032.6L 2720.27,2030.44L 2719.78,2027.94L 2719.29,2025.11L 2719.11,2022.18L 2718.99,2019.02L 2719.54,2016.58L 2720.02,2013.99L 2720.57,2012.02L 2721.42,2010.22L 2722.2,2008.66L 2723.18,2007.36L 2723.72,2006.69L 2729.54,2006.69L 2728.51,2007.72L 2727.72,2008.99L 2726.87,2010.55L 2726.26,2012.09L 2725.72,2013.99L 2725.17,2016.49L 2724.81,2019.25L 2724.62,2022.01L 2724.81,2024.78L 2725.3,2027.71L 2725.9,2029.94L 2726.57,2031.31L 2727.72,2032.74 Z "/>
		<path fill="#0083FF" fill-opacity="1" stroke-width="0.2" stroke-linejoin="round" d="M 2769.28,2006.62L 2776.01,2006.62L 2776.01,2012.99L 2794.19,2012.99L 2803.46,2006.62L 2817.02,2006.62L 2794.19,2020.48L 2769.28,2020.48L 2769.28,2006.62 Z M 2769.28,2025.15L 2794.91,2025.15L 2817.33,2039L 2804.67,2039L 2793.7,2032.64L 2775.89,2032.64L 2775.89,2039L 2769.28,2039L 2769.28,2025.15 Z "/>
	</g>
	<path fill="none" stroke-width="40" stroke-linejoin="round" stroke="#1C79D4" stroke-opacity="0.803922" d="M -1375.97,-128C -1375.97,-128 -1388.79,1243.04 -875.971,2368"/>
	<path fill="none" stroke-width="40" stroke-linejoin="round" stroke="#1C79D4" stroke-opacity="0.803922" d="M -192,1811C -192,1811 3104,435 4032,-493"/>
	<path fill="none" stroke-width="40" stroke-linejoin="round" stroke="#1C79D4" stroke-opacity="0.803922" d="M 2208,2304C 2208,2304 2368,1920 2272,1760C 2176,1600 1536,704 1536,704L 1376,576C 1376,576 1288.72,478.789 1280,448C 1248,335 1152,-26.9998 1088,-95.9998C 1052.09,-134.712 1024,-224 1024,-224"/>
	<path fill="none" stroke-width="40" stroke-linejoin="round" stroke="#1C79D4" stroke-opacity="0.803922" d="M 2144,544C 2144,544 2240,448 2240,288C 2240,128 2208,160 2304,32.0002C 2400,-95.9998 2528,-224 2528,-224"/>
	<g>
		<ellipse fill="#030911" fill-opacity="1" stroke-width="22" stroke-linejoin="round" stroke="#DCFF85" stroke-opacity="1" cx="1820.38" cy="934.002" rx="551.376" ry="533"/>
		<path fill="none" stroke-width="43" stroke-linejoin="round" stroke="#DCFF85" stroke-opacity="1" d="M 1472,512C 1472,512 1696,812 1984,588C 2060.57,528.445 2109.41,516.562 2138.67,516.087C 2144,516 2150,507 2150,507"/>
		<path fill="none" stroke-width="22" stroke-linejoin="round" stroke="#DCFF85" stroke-opacity="1" d="M 1330,694C 1330,694 1341.87,715.58 1342.41,733.988C 1343.44,769.13 1354.19,829.156 1408,881C 1490,960 1620,1056 1728,1056C 1836,1056 1999,1038 2048,1024C 2097,1010 2221.35,976.801 2254,972C 2288,967 2368,967 2368,967"/>
		<path fill="none" stroke-width="22" stroke-linejoin="round" stroke="#DCFF85" stroke-opacity="1" d="M 1268,915C 1268,915 1380,1088 1522,1120C 1664,1152 1728,1156 1920,1106C 2112,1056 2194,1010 2272,1009C 2350,1008 2368,1009 2368,1009"/>
		<path fill="none" stroke-width="22" stroke-linejoin="round" stroke="#DCFF85" stroke-opacity="1" d="M 1408,1295C 1408,1295 1422,1224 1472,1216C 1522,1208 1769.64,1210.27 1792,1208C 1920,1195 2030,1134 2176,1079C 2322,1024 2338,1041 2353,1040"/>
		<path fill="none" stroke-width="43" stroke-linejoin="round" stroke="#DCFF85" stroke-opacity="1" d="M 1566,1401C 1566,1401 1570.99,1393.14 1591.17,1387.62C 1660.35,1368.67 1825.84,1318.32 1935,1244C 2076,1148 2326,1143 2326,1143"/>
		<path fill="none" stroke-width="17" stroke-linejoin="round" stroke="#DCFF85" stroke-opacity="1" d="M 1649,1440C 1649,1440 1711,1424 1746,1427C 1781,1430 1871,1440 1920,1440C 1969,1440 2046,1440 2106,1328C 2166,1216 2276,1198 2293,1198"/>
		<path fill="none" stroke-width="17" stroke-linejoin="round" stroke="#DCFF85" stroke-opacity="1" d="M 1974.5,1319C 2005.7,1319 2031,1333.77 2031,1352C 2031,1370.23 2005.7,1385 1974.5,1385C 1943.3,1385 1918,1370.23 1918,1352C 1918,1333.77 1943.3,1319 1974.5,1319 Z "/>
		<path fill="none" stroke-width="19" stroke-linejoin="round" stroke="#DCFF85" stroke-opacity="1" d="M 1568.13,1255.34C 1620.78,1263.64 1660.84,1286.95 1657.62,1307.41C 1654.39,1327.87 1609.1,1337.73 1556.45,1329.43C 1503.79,1321.12 1463.73,1297.81 1466.95,1277.35C 1470.18,1256.89 1515.47,1247.04 1568.13,1255.34 Z "/>
	</g>
	<path fill="none" stroke-width="33" stroke-linejoin="round" stroke="#DCFF85" stroke-opacity="1" d="M 3904,1046C 3904,1046 2304,2614 -448,1622"/>
	<g>
		<path fill="#030409" fill-opacity="1" stroke-width="16" stroke-linejoin="round" stroke="#DCFF85" stroke-opacity="1" d="M 2785.84,1849.17L 2819.32,1835.01L 3052.66,1736.32L 2939.8,1469.5L 2672.98,1582.35L 2774.04,1821.28L 2785.84,1849.17 Z "/>
		<path fill="#030409" fill-opacity="1" stroke-width="16" stroke-linejoin="round" stroke="#DCFF85" stroke-opacity="1" d="M 2807.08,1800.59L 3001.13,1718.51L 2917.48,1520.73L 2723.43,1602.81L 2807.08,1800.59 Z "/>
		<path fill="#DCFF85" fill-opacity="1" stroke-width="6" stroke-linejoin="round" stroke="#DCFF85" stroke-opacity="1" d="M 2917.25,1525.12L 2929.08,1553.11L 2883.66,1539.32L 2917.25,1525.12 Z "/>
		<path fill="#DCFF85" fill-opacity="1" stroke-width="16" stroke-linejoin="round" stroke="#DCFF85" stroke-opacity="1" d="M 2803.56,1686.29L 2933.72,1677.84L 2890.05,1649.5L 2899.74,1596.8L 2803.56,1686.29 Z "/>
		<path fill="#DCFF85" fill-opacity="1" stroke-width="6" stroke-linejoin="round" stroke="#DCFF85" stroke-opacity="1" d="M 2807.08,1800.59L 2795.25,1772.6L 2840.67,1786.39L 2807.08,1800.59 Z "/>
	</g>
</svg>
