<?xml version="1.0" encoding="utf-8"?>
<!DOCTYPE svg PUBLIC "-//W3C//DTD SVG 1.1//EN" "http://www.w3.org/Graphics/SVG/1.1/DTD/svg11.dtd">
<svg xmlns="http://www.w3.org/2000/svg" xmlns:xlink="http://www.w3.org/1999/xlink" version="1.1" baseProfile="full" width="3840" height="2160" viewBox="0 0 3840.00 2160.00" enable-background="new 0 0 3840.00 2160.00" xml:space="preserve">
	<g>
		<rect x="0" y="0.000488281" fill="#030409" fill-opacity="1" fill-rule="evenodd" stroke-linejoin="round" stroke="#000000" stroke-opacity="1" width="3840" height="2160"/>
		<g>
			<line fill="none" stroke-width="2" stroke-linejoin="round" stroke="#1B56E3" stroke-opacity="0.603922" x1="3328" y1="-0.000244141" x2="3328" y2="2160"/>
			<line fill="none" stroke-width="2" stroke-linejoin="round" stroke="#1B56E3" stroke-opacity="0.603922" x1="2816" y1="-0.000244141" x2="2816" y2="2160"/>
			<line fill="none" stroke-width="2" stroke-linejoin="round" stroke="#1B56E3" stroke-opacity="0.603922" x1="2304" y1="0" x2="2304" y2="2160"/>
			<line fill="none" stroke-width="2" stroke-linejoin="round" stroke="#1B56E3" stroke-opacity="0.603922" x1="1792" y1="-0.000244141" x2="1792" y2="2160"/>
			<line fill="none" stroke-width="2" stroke-linejoin="round" stroke="#1B56E3" stroke-opacity="0.603922" x1="1280" y1="-0.000244141" x2="1280" y2="2160"/>
			<line fill="none" stroke-width="2" stroke-linejoin="round" stroke="#1B56E3" stroke-opacity="0.603922" x1="768" y1="0" x2="768" y2="2160"/>
			<line fill="none" stroke-width="2" stroke-linejoin="round" stroke="#1B56E3" stroke-opacity="0.603922" x1="256" y1="0" x2="256" y2="2160"/>
			<line fill="none" stroke-width="2" stroke-linejoin="round" stroke="#1B56E3" stroke-opacity="0.603922" x1="0.000228882" y1="256" x2="3840" y2="256"/>
			<line fill="none" stroke-width="2" stroke-linejoin="round" stroke="#1B56E3" stroke-opacity="0.603922" x1="-0.000164668" y1="768" x2="3840" y2="768"/>
			<line fill="none" stroke-width="2" stroke-linejoin="round" stroke="#1B56E3" stroke-opacity="0.603922" x1="-15.4325" y1="1280" x2="3824.57" y2="1280"/>
			<line fill="none" stroke-width="2" stroke-linejoin="round" stroke="#1B56E3" stroke-opacity="0.603922" x1="0.000160853" y1="1792" x2="3840" y2="1792"/>
		</g>
	</g>
	<path fill="none" stroke-width="16" stroke-linejoin="round" stroke="#05408F" stroke-opacity="0.803922" d="M 2720,0.000244141C 2720,0.000244141 3008,1280 3424,1760C 3705.18,2084.44 3930.57,2521.21 4064,2688"/>
	<path fill="none" stroke-width="16" stroke-linejoin="round" stroke="#00347C" stroke-opacity="1" d="M 256,2236C 256,2236 448,1628 1120,1500C 1170.92,1490.3 1760.41,1349.66 1792,1308C 1952,1097 1950,1276 2481,924C 3005.57,576.26 3745.12,261.284 3921,188"/>
	<g>
		<path fill="#1059FB" fill-opacity="0.901961" stroke-width="0.2" stroke-linejoin="round" stroke="#438DFE" stroke-opacity="0.901961" d="M 1111.23,785.153C 1131.36,785.153 1147.67,801.137 1147.67,820.854C 1147.67,840.572 1131.36,856.556 1111.23,856.556C 1091.11,856.556 1074.79,840.572 1074.79,820.854C 1074.79,801.137 1091.11,785.153 1111.23,785.153 Z "/>
		<path fill="#1059FB" fill-opacity="1" stroke-width="0.2" stroke-linejoin="round" stroke="#438DFE" stroke-opacity="1" d="M 1060.38,809.172L 1012.34,809.172C 1012.34,809.172 1005.56,760.628 1051.6,737.191L 1078.44,779.225L 1060.38,809.172 Z "/>
		<path fill="#1059FB" fill-opacity="1" stroke-width="0.2" stroke-linejoin="round" stroke="#438DFE" stroke-opacity="1" d="M 1094.54,766.674L 1069.19,728.531C 1069.19,728.532 1109.02,699.967 1151.17,729.832L 1126.43,767.137L 1094.54,766.674 Z "/>
		<path fill="#1059FB" fill-opacity="1" stroke-width="0.2" stroke-linejoin="round" stroke="#438DFE" stroke-opacity="1" d="M 1162.13,809.172L 1210.16,809.172C 1210.16,809.172 1216.94,760.628 1170.91,737.191L 1144.06,779.225L 1162.13,809.172 Z "/>
		<path fill="#1059FB" fill-opacity="1" stroke-width="0.2" stroke-linejoin="round" stroke="#438DFE" stroke-opacity="1" d="M 1060.38,831.123L 1012.34,831.123C 1012.34,831.123 1005.56,879.667 1051.6,903.104L 1078.44,861.07L 1060.38,831.123 Z "/>
		<path fill="#1059FB" fill-opacity="1" stroke-width="0.2" stroke-linejoin="round" stroke="#438DFE" stroke-opacity="1" d="M 1094.54,873.623L 1069.19,911.765C 1069.19,911.765 1109.02,940.329 1151.17,910.464L 1126.43,873.159L 1094.54,873.623 Z "/>
		<path fill="#1059FB" fill-opacity="1" stroke-width="0.2" stroke-linejoin="round" stroke="#438DFE" stroke-opacity="1" d="M 1162.13,831.123L 1210.16,831.123C 1210.16,831.123 1216.94,879.667 1170.91,903.104L 1144.06,861.071L 1162.13,831.123 Z "/>
	</g>
	<g>
		<path fill="#0083FF" fill-opacity="1" stroke-width="0.2" stroke-linejoin="round" d="M 735.799,805.861L 751.998,776.227L 772.598,776.227L 772.598,809.359L 755.201,809.359L 755.201,800.825L 764.076,800.825L 764.076,784.761L 756.854,784.761L 743.068,809.861L 735.799,805.861 Z "/>
		<path fill="#0083FF" fill-opacity="1" stroke-width="0.2" stroke-linejoin="round" d="M 788.139,784.761L 805.419,784.761L 811.199,790.573L 811.199,809.359L 819.722,809.359L 819.722,786.918L 809.014,776.227L 779.617,776.227L 779.617,809.359L 788.139,809.359L 788.139,784.761 Z "/>
		<path fill="#0083FF" fill-opacity="1" stroke-width="0.2" stroke-linejoin="round" d="M 824.03,805.861L 840.228,776.227L 860.829,776.227L 860.829,809.359L 843.432,809.359L 843.432,800.825L 852.307,800.825L 852.307,784.761L 845.085,784.761L 831.299,809.861L 824.03,805.861 Z "/>
		<path fill="#0083FF" fill-opacity="1" stroke-width="0.2" stroke-linejoin="round" d="M 868.85,796.629L 875.994,789.311L 867.941,781.129L 873.761,775.223L 889.349,791.075L 893.414,786.887L 893.414,776.133L 901.937,776.133L 901.937,790.37L 895.435,796.935L 902.837,804.457L 897.025,810.363L 882.19,795.217L 877.372,800.064L 877.372,809.454L 868.85,809.454L 868.85,796.629 Z "/>
		<path fill="#0083FF" fill-opacity="1" stroke-width="0.2" stroke-linejoin="round" d="M 943.044,797.311L 943.044,776.227L 909.958,776.227L 909.958,809.359L 943.044,809.359L 943.044,800.825L 918.48,800.825L 918.48,784.259L 934.522,784.259L 934.522,788.777L 927.707,788.777L 927.707,797.311L 943.044,797.311 Z "/>
		<path fill="#0083FF" fill-opacity="1" stroke-width="0.2" stroke-linejoin="round" d="M 983.149,784.259L 958.585,784.259L 958.585,788.777L 983.149,788.777L 983.149,809.359L 950.063,809.359L 950.063,800.825L 974.627,800.825L 974.627,797.311L 950.063,797.311L 950.063,776.227L 983.149,776.227L 983.149,784.259 Z "/>
	</g>
	<g>
		<path fill="#0083FF" fill-opacity="1" stroke-width="0.2" stroke-linejoin="round" d="M 644.178,831.413L 652.105,831.413L 652.105,837.819L 673.509,837.819L 684.423,831.413L 700.399,831.413L 673.509,845.362L 644.178,845.362L 644.178,831.413 Z M 644.178,850.056L 674.357,850.056L 700.755,864L 685.85,864L 672.93,857.599L 651.96,857.599L 651.96,864L 644.178,864L 644.178,850.056 Z "/>
		<path fill="#0083FF" fill-opacity="1" stroke-width="0.2" stroke-linejoin="round" d="M 715.103,857.698L 715.962,857.63L 731.012,831.413L 740.432,831.413L 760.476,864L 751.201,864L 735.794,838.254L 720.878,864L 711.681,864L 711.179,863.969L 710.254,862.759L 709.395,861.454L 708.247,859.642L 707.255,857.562L 706.33,855.383L 705.75,852.869L 705.181,850.019L 704.969,847.07L 704.825,843.885L 705.471,841.439L 706.04,838.825L 706.686,836.845L 707.678,835.033L 708.604,833.461L 709.752,832.151L 710.388,831.481L 717.244,831.481L 716.029,832.518L 715.103,833.796L 714.1,835.368L 713.386,836.913L 712.751,838.825L 712.104,841.339L 711.681,844.121L 711.458,846.902L 711.681,849.684L 712.249,852.633L 712.963,854.88L 713.743,856.258L 715.103,857.698 Z "/>
		<path fill="#0083FF" fill-opacity="1" stroke-width="0.2" stroke-linejoin="round" d="M 764.044,831.413L 771.97,831.413L 771.97,837.819L 793.375,837.819L 804.289,831.413L 820.264,831.413L 793.375,845.362L 764.044,845.362L 764.044,831.413 Z M 764.044,850.056L 794.222,850.056L 820.621,864L 805.716,864L 792.795,857.599L 771.825,857.599L 771.825,864L 764.044,864L 764.044,850.056 Z "/>
		<path fill="#0083FF" fill-opacity="1" stroke-width="0.2" stroke-linejoin="round" d="M 866.429,860.679L 858.659,864L 831.97,864L 824.267,860.679L 842.104,831.481L 849.952,831.481L 866.429,860.679 Z M 856.295,857.562L 846.028,838.657L 834.757,857.562L 856.295,857.562 Z "/>
		<path fill="#0083FF" fill-opacity="1" stroke-width="0.2" stroke-linejoin="round" d="M 921.869,831.381L 921.869,838.888L 916.451,838.888L 916.451,864L 909.093,864L 909.093,838.888L 908.101,838.888L 895.258,864L 885.838,864L 869.004,831.381L 878.057,831.381L 890.621,854.713L 902.817,831.381L 921.869,831.381 Z "/>
		<path fill="#0083FF" fill-opacity="1" stroke-width="0.2" stroke-linejoin="round" d="M 942.85,831.413L 970.743,856.258L 970.743,831.413L 978.591,831.413L 978.591,864L 967.822,864L 931.078,831.413L 942.85,831.413 Z M 928.079,848.511L 956.54,857.698L 954.043,864L 925.437,854.98L 928.079,848.511 Z "/>
	</g>
	<path fill="#378AFB" fill-opacity="1" stroke-width="0.2" stroke-linejoin="round" stroke="#4E9AFB" stroke-opacity="1" d="M 1051.97,961C 1070.21,961 1085,975.327 1085,993C 1085,1010.67 1070.21,1025 1051.97,1025C 1033.72,1025 1018.94,1010.67 1018.94,993C 1018.94,975.327 1033.72,961 1051.97,961 Z "/>
	<path fill="#378AFB" fill-opacity="1" stroke-width="0.2" stroke-linejoin="round" stroke="#4E9AFB" stroke-opacity="1" d="M 1214.97,1504C 1233.21,1504 1248,1518.33 1248,1536C 1248,1553.67 1233.21,1568 1214.97,1568C 1196.72,1568 1181.94,1553.67 1181.94,1536C 1181.94,1518.33 1196.72,1504 1214.97,1504 Z "/>
	<path fill="none" stroke-width="19" stroke-linejoin="round" stroke="#00419A" stroke-opacity="0.803922" d="M 1504,2272C 1504,2260.97 1824,2048 1824,1792C 1824,1210.34 1716.04,1116.65 1700.19,1100.88C 1483.99,885.834 1352.56,846 1293,846C 1274.88,846 1225.62,804.009 1238,750C 1326,366 1122,51.9998 534,-466"/>
	<g>
		<path fill="#DCFF85" fill-opacity="1" stroke-width="0.2" stroke-linejoin="round" d="M 800.869,1166.68L 800.869,1114.13L 821.162,1089.1L 862.78,1089.1L 862.78,1109.08L 827.49,1109.08L 816.696,1122.42L 816.696,1146.7L 862.78,1146.7L 862.78,1166.68L 800.869,1166.68 Z "/>
		<path fill="#DCFF85" fill-opacity="1" stroke-width="0.2" stroke-linejoin="round" d="M 936.795,1089.1L 936.795,1166.68L 875.349,1166.68L 875.349,1089.1L 936.795,1089.1 Z M 920.968,1109.08L 891.176,1109.08L 891.176,1146.7L 920.968,1146.7L 920.968,1109.08 Z "/>
		<path fill="#DCFF85" fill-opacity="1" stroke-width="0.2" stroke-linejoin="round" d="M 949.829,1166.68L 949.829,1089.1L 1008.48,1089.1L 1008.48,1137.29L 985.134,1137.29L 1008.48,1166.68L 988.901,1166.68L 965.656,1137.53L 965.656,1166.68L 949.829,1166.68 Z M 992.654,1109.08L 965.656,1109.08L 965.656,1117.31L 992.654,1117.31L 992.654,1109.08 Z "/>
		<path fill="#DCFF85" fill-opacity="1" stroke-width="0.2" stroke-linejoin="round" d="M 1082.96,1166.68L 1021.52,1166.68L 1021.52,1089.1L 1037.34,1089.1L 1037.34,1146.7L 1067.13,1146.7L 1067.13,1089.1L 1082.96,1089.1L 1082.96,1166.68 Z "/>
		<path fill="#DCFF85" fill-opacity="1" stroke-width="0.2" stroke-linejoin="round" d="M 1157.44,1107.91L 1111.82,1107.91L 1111.82,1118.49L 1157.44,1118.49L 1157.44,1166.68L 1095.99,1166.68L 1095.99,1146.7L 1141.61,1146.7L 1141.61,1138.47L 1095.99,1138.47L 1095.99,1089.1L 1157.44,1089.1L 1157.44,1107.91 Z "/>
		<path fill="#DCFF85" fill-opacity="1" stroke-width="0.2" stroke-linejoin="round" d="M 1170.47,1166.68L 1170.47,1114.13L 1190.77,1089.1L 1232.39,1089.1L 1232.39,1109.08L 1197.1,1109.08L 1186.3,1122.42L 1186.3,1146.7L 1232.39,1146.7L 1232.39,1166.68L 1170.47,1166.68 Z "/>
		<path fill="#DCFF85" fill-opacity="1" stroke-width="0.2" stroke-linejoin="round" d="M 1239.92,1158.49L 1270,1089.1L 1308.26,1089.1L 1308.26,1166.68L 1275.95,1166.68L 1275.95,1146.7L 1292.44,1146.7L 1292.44,1109.08L 1279.02,1109.08L 1253.42,1167.86L 1239.92,1158.49 Z "/>
		<path fill="#DCFF85" fill-opacity="1" stroke-width="0.2" stroke-linejoin="round" d="M 1337.12,1109.08L 1369.21,1109.08L 1379.95,1122.69L 1379.95,1166.68L 1395.78,1166.68L 1395.78,1114.13L 1375.89,1089.1L 1321.3,1089.1L 1321.3,1166.68L 1337.12,1166.68L 1337.12,1109.08 Z "/>
		<path fill="#DCFF85" fill-opacity="1" stroke-width="0.2" stroke-linejoin="round" d="M 1433.95,1107.91L 1433.95,1146.7L 1457.79,1146.7L 1457.79,1166.68L 1419.05,1166.68L 1419.05,1107.91L 1408.71,1107.91L 1408.71,1089.1L 1466.44,1089.1L 1466.44,1107.91L 1433.95,1107.91 Z "/>
	</g>
	<g>
		<path fill="#DCFF85" fill-opacity="1" stroke-width="0.2" stroke-linejoin="round" d="M 673.942,1192.77L 687.826,1192.77L 687.826,1230.96L 673.942,1230.96L 673.942,1192.77 Z M 692.299,1209.81L 706.047,1209.81L 706.047,1230.96L 692.299,1230.96L 692.299,1209.81 Z M 710.501,1209.81L 724.52,1209.81L 724.52,1248L 710.501,1248L 710.501,1209.81 Z "/>
		<path fill="#DCFF85" fill-opacity="1" stroke-width="0.2" stroke-linejoin="round" d="M 793.669,1192.42L 814.234,1236.62L 806.062,1248L 739.508,1248L 731.085,1236.45L 750.913,1192.42L 793.669,1192.42 Z M 745.453,1235.82L 799.73,1235.82L 785.73,1205.24L 759.453,1205.24L 745.453,1235.82 Z "/>
		<path fill="#DCFF85" fill-opacity="1" stroke-width="0.2" stroke-linejoin="round" d="M 896.395,1192.42L 844.596,1248L 826.762,1248L 864.677,1206.83L 864.677,1205.86L 819.191,1205.86L 830.228,1192.42L 896.395,1192.42 Z "/>
		<path fill="#DCFF85" fill-opacity="1" stroke-width="0.2" stroke-linejoin="round" d="M 984.888,1192.42L 987.87,1195.17L 987.87,1245.14L 984.637,1248L 902.107,1248L 902.107,1192.42L 916.359,1192.42L 916.359,1235.99L 973.619,1235.99L 973.619,1205.24L 955.145,1205.24L 946.47,1215.81L 927.997,1215.81L 947.458,1192.42L 984.888,1192.42 Z "/>
		<path fill="#DCFF85" fill-opacity="1" stroke-width="0.2" stroke-linejoin="round" d="M 1023.19,1192.42L 1071.64,1234.8L 1071.64,1192.42L 1085.27,1192.42L 1085.27,1248L 1066.57,1248L 1002.74,1192.42L 1023.19,1192.42 Z M 997.533,1221.58L 1046.97,1237.25L 1042.63,1248L 992.944,1232.62L 997.533,1221.58 Z "/>
		<path fill="#DCFF85" fill-opacity="1" stroke-width="0.2" stroke-linejoin="round" d="M 1091.58,1192.77L 1105.47,1192.77L 1105.47,1230.96L 1091.58,1230.96L 1091.58,1192.77 Z M 1109.94,1209.81L 1123.69,1209.81L 1123.69,1230.96L 1109.94,1230.96L 1109.94,1209.81 Z M 1128.14,1209.81L 1142.16,1209.81L 1142.16,1248L 1128.14,1248L 1128.14,1209.81 Z "/>
		<path fill="#DCFF85" fill-opacity="1" stroke-width="0.2" stroke-linejoin="round" d="M 1148.84,1192.42L 1162.61,1192.42L 1162.61,1203.35L 1199.79,1203.35L 1218.75,1192.42L 1246.5,1192.42L 1199.79,1216.21L 1148.84,1216.21L 1148.84,1192.42 Z M 1148.84,1224.22L 1201.26,1224.22L 1247.12,1248L 1221.23,1248L 1198.78,1237.08L 1162.36,1237.08L 1162.36,1248L 1148.84,1248L 1148.84,1224.22 Z "/>
		<path fill="#DCFF85" fill-opacity="1" stroke-width="0.2" stroke-linejoin="round" d="M 1272.04,1237.25L 1273.53,1237.14L 1299.67,1192.42L 1316.03,1192.42L 1350.85,1248L 1334.74,1248L 1307.98,1204.09L 1282.07,1248L 1266.09,1248L 1265.22,1247.95L 1263.61,1245.88L 1262.12,1243.66L 1260.13,1240.57L 1258.4,1237.02L 1256.8,1233.3L 1255.79,1229.02L 1254.8,1224.16L 1254.43,1219.13L 1254.18,1213.7L 1255.31,1209.52L 1256.29,1205.07L 1257.42,1201.69L 1259.14,1198.6L 1260.75,1195.92L 1262.74,1193.68L 1263.85,1192.54L 1275.75,1192.54L 1273.64,1194.31L 1272.04,1196.49L 1270.29,1199.17L 1269.05,1201.8L 1267.95,1205.07L 1266.83,1209.35L 1266.09,1214.1L 1265.7,1218.84L 1266.09,1223.58L 1267.08,1228.61L 1268.32,1232.45L 1269.67,1234.8L 1272.04,1237.25 Z "/>
		<path fill="#DCFF85" fill-opacity="1" stroke-width="0.2" stroke-linejoin="round" d="M 1410.22,1192.42L 1410.22,1237.42L 1414.19,1237.42L 1435.12,1218.22L 1453.46,1218.22L 1420.38,1248L 1388.28,1248L 1355.07,1218.04L 1373.41,1218.04L 1394.48,1237.25L 1398.31,1237.25L 1398.31,1192.42L 1410.22,1192.42 Z "/>
	</g>
	<path fill="#DCFF85" fill-opacity="1" stroke-linejoin="round" stroke="#DCFF85" stroke-opacity="1" d="M 3296.91,1271.33L 3293.84,1358.54L 3338.75,1358.54L 3366.81,1316.66L 3341.56,1271.53L 3296.91,1271.33 Z "/>
	<path fill="none" stroke-width="16" stroke-linejoin="round" stroke="#DCFF85" stroke-opacity="1" d="M 3285.42,1249.07L 3243.32,1310.83L 3279.81,1381L 3349.98,1381L 3392.08,1319.25L 3355.59,1249.08L 3285.42,1249.07 Z "/>
	<path fill="#378AFB" fill-opacity="1" stroke-width="0.2" stroke-linejoin="round" stroke="#4E9AFB" stroke-opacity="1" d="M 2494.97,800C 2513.21,800 2528,814.327 2528,832C 2528,849.673 2513.21,864 2494.97,864C 2476.72,864 2461.94,849.673 2461.94,832C 2461.94,814.327 2476.72,800 2494.97,800 Z "/>
	<path fill="#267FF8" fill-opacity="1" stroke-width="0.2" stroke-linejoin="round" stroke="#267FF8" stroke-opacity="1" d="M 2401.03,1440C 2419.28,1440 2434.06,1454.33 2434.06,1472C 2434.06,1489.67 2419.28,1504 2401.03,1504C 2382.79,1504 2368,1489.67 2368,1472C 2368,1454.33 2382.79,1440 2401.03,1440 Z "/>
	<path fill="#378AFB" fill-opacity="1" stroke-width="0.2" stroke-linejoin="round" stroke="#4E9AFB" stroke-opacity="1" d="M 2529.03,1568C 2547.28,1568 2562.06,1582.33 2562.06,1600C 2562.06,1617.67 2547.28,1632 2529.03,1632C 2510.79,1632 2496,1617.67 2496,1600C 2496,1582.33 2510.79,1568 2529.03,1568 Z "/>
	<path fill="none" stroke-width="16" stroke-linejoin="round" stroke="#00347C" stroke-opacity="0.803922" d="M 213,2599C 213,2599 404.131,1609 1780.27,1609C 3156.42,1609 3424,2665 3424,2665"/>
	<path fill="none" stroke-width="16" stroke-linejoin="round" stroke="#267FF8" stroke-opacity="1" d="M 1344,-95.9998C 1344,-95.9998 1670.64,1168.15 2335,2144C 2640,2592 2772,2661 2804,2709"/>
	<path fill="none" stroke-width="19" stroke-linejoin="round" stroke="#1C79D4" stroke-opacity="0.803922" d="M 2752,-96.0002C 2752,-96.0002 2816,1711.46 3564,2784"/>
	<path fill="none" stroke-width="16" stroke-linejoin="round" stroke="#DCFF85" stroke-opacity="1" d="M 1944,1216C 1944,1216 2468,1075 3260,1279"/>
	<path fill="none" stroke-width="16" stroke-linejoin="round" stroke="#DCFF85" stroke-opacity="1" d="M 1951.09,1276.79C 1951.09,1276.79 2476.27,1140.26 3266.51,1351"/>
	<path fill="none" stroke-width="16" stroke-linejoin="round" stroke="#00347C" stroke-opacity="1" d="M 3840,2720C 3840,2720 3392,1167.68 1856,1322.91"/>
	<path fill="none" stroke-width="16" stroke-linejoin="round" stroke="#DCFF85" stroke-opacity="1" d="M 3808,2752C 3808,2752 3494.03,1344.73 2138,1312"/>
	<g>
		<path fill="#DCFF85" fill-opacity="1" stroke-width="6" stroke-linejoin="round" stroke="#DCFF85" stroke-opacity="1" d="M 1587.44,1039.05L 1587.44,1104.93L 1666.49,1039.05L 1587.44,1039.05 Z "/>
		<path fill="none" stroke-width="16" stroke-linejoin="round" stroke="#DCFF85" stroke-opacity="1" d="M 1504,960L 1582.81,960L 2132,960L 2132,1588L 1504,1588L 1504,1025.65L 1504,960 Z "/>
		<rect x="1587.44" y="1039.05" fill="none" stroke-width="16" stroke-linejoin="round" stroke="#DCFF85" stroke-opacity="1" width="456.728" height="465.511"/>
		<path fill="#DCFF85" fill-opacity="1" stroke-width="6" stroke-linejoin="round" stroke="#DCFF85" stroke-opacity="1" d="M 2133.05,1590L 2133.05,1524.13L 2054,1590L 2133.05,1590 Z "/>
		<ellipse fill="#030409" fill-opacity="1" stroke-width="16" stroke-linejoin="round" stroke="#DCFF85" stroke-opacity="1" cx="1820.64" cy="1273.12" rx="131.748" ry="127.357"/>
		<ellipse fill="#DCFF85" fill-opacity="1" stroke-width="0.2" stroke-linejoin="round" cx="1820.2" cy="1271.81" rx="79.0497" ry="79.0493"/>
	</g>
	<path fill="#378AFB" fill-opacity="1" stroke-width="0.2" stroke-linejoin="round" stroke="#4E9AFB" stroke-opacity="1" d="M 3766,2016C 3784.24,2016 3799.03,2030.33 3799.03,2048C 3799.03,2065.67 3784.24,2080 3766,2080C 3747.76,2080 3732.97,2065.67 3732.97,2048C 3732.97,2030.33 3747.76,2016 3766,2016 Z "/>
	<path fill="none" stroke-width="19" stroke-linejoin="round" stroke="#00419A" stroke-opacity="0.803922" d="M 3808,1248C 3616,960 3347.66,1077.94 3328,960C 3264,576 3276,486 2688,-31.9998"/>
	<g>
		<path fill="#DCFF85" fill-opacity="1" stroke-width="0.2" stroke-linejoin="round" d="M 3153.93,1445.46L 3153.93,1462.98L 3143.05,1462.98L 3143.05,1472L 3161.19,1472L 3161.19,1445.46L 3165.89,1445.46L 3165.89,1436.96L 3139.03,1436.96L 3139.03,1445.46L 3153.93,1445.46 Z "/>
		<rect x="3171.87" y="1436.96" fill="#DCFF85" fill-opacity="1" stroke-width="0.2" stroke-linejoin="round" width="7.25854" height="35.0352"/>
		<path fill="#DCFF85" fill-opacity="1" stroke-width="0.2" stroke-linejoin="round" d="M 3192.36,1445.99L 3207.08,1445.99L 3212,1452.14L 3212,1472L 3219.26,1472L 3219.26,1448.27L 3210.14,1436.96L 3185.1,1436.96L 3185.1,1472L 3192.36,1472L 3192.36,1445.99 Z "/>
		<path fill="#DCFF85" fill-opacity="1" stroke-width="0.2" stroke-linejoin="round" d="M 3222.93,1468.3L 3236.73,1436.96L 3254.27,1436.96L 3254.27,1472L 3239.46,1472L 3239.46,1462.98L 3247.01,1462.98L 3247.01,1445.99L 3240.86,1445.99L 3229.12,1472.53L 3222.93,1468.3 Z "/>
		<path fill="#DCFF85" fill-opacity="1" stroke-width="0.2" stroke-linejoin="round" d="M 3271.78,1445.46L 3271.78,1462.98L 3282.71,1462.98L 3282.71,1472L 3264.95,1472L 3264.95,1445.46L 3260.2,1445.46L 3260.2,1436.96L 3286.68,1436.96L 3286.68,1445.46L 3271.78,1445.46 Z "/>
		<path fill="#DCFF85" fill-opacity="1" stroke-width="0.2" stroke-linejoin="round" d="M 3290.82,1468.3L 3304.62,1436.96L 3322.16,1436.96L 3322.16,1472L 3307.34,1472L 3307.34,1462.98L 3314.9,1462.98L 3314.9,1445.99L 3308.75,1445.99L 3297.01,1472.53L 3290.82,1468.3 Z "/>
		<path fill="#DCFF85" fill-opacity="1" stroke-width="0.2" stroke-linejoin="round" d="M 3342.91,1468.3L 3356.71,1436.96L 3374.25,1436.96L 3374.25,1472L 3359.44,1472L 3359.44,1462.98L 3367,1462.98L 3367,1445.99L 3360.84,1445.99L 3349.1,1472.53L 3342.91,1468.3 Z "/>
		<path fill="#DCFF85" fill-opacity="1" stroke-width="0.2" stroke-linejoin="round" d="M 3408.41,1445.46L 3387.49,1445.46L 3387.49,1450.24L 3408.41,1450.24L 3408.41,1472L 3380.23,1472L 3380.23,1462.98L 3401.15,1462.98L 3401.15,1459.26L 3380.23,1459.26L 3380.23,1436.96L 3408.41,1436.96L 3408.41,1445.46 Z "/>
		<path fill="#DCFF85" fill-opacity="1" stroke-width="0.2" stroke-linejoin="round" d="M 3425.92,1445.46L 3425.92,1462.98L 3436.85,1462.98L 3436.85,1472L 3419.09,1472L 3419.09,1445.46L 3414.34,1445.46L 3414.34,1436.96L 3440.82,1436.96L 3440.82,1445.46L 3425.92,1445.46 Z "/>
		<path fill="#DCFF85" fill-opacity="1" stroke-width="0.2" stroke-linejoin="round" d="M 3475.45,1459.26L 3475.45,1436.96L 3447.27,1436.96L 3447.27,1472L 3475.45,1472L 3475.45,1462.98L 3454.53,1462.98L 3454.53,1445.46L 3468.19,1445.46L 3468.19,1450.24L 3462.38,1450.24L 3462.38,1459.26L 3475.45,1459.26 Z "/>
		<path fill="#DCFF85" fill-opacity="1" stroke-width="0.2" stroke-linejoin="round" d="M 3481.43,1472L 3481.43,1436.96L 3508.32,1436.96L 3508.32,1458.73L 3497.62,1458.73L 3508.32,1472L 3499.34,1472L 3488.68,1458.84L 3488.68,1472L 3481.43,1472 Z M 3501.07,1445.99L 3488.68,1445.99L 3488.68,1449.7L 3501.07,1449.7L 3501.07,1445.99 Z "/>
		<path fill="#DCFF85" fill-opacity="1" stroke-width="0.2" stroke-linejoin="round" d="M 3542.48,1436.96L 3542.48,1472L 3514.3,1472L 3514.3,1436.96L 3542.48,1436.96 Z M 3535.22,1445.99L 3521.56,1445.99L 3521.56,1462.98L 3535.22,1462.98L 3535.22,1445.99 Z "/>
		<rect x="3548.46" y="1436.96" fill="#DCFF85" fill-opacity="1" stroke-width="0.2" stroke-linejoin="round" width="7.25854" height="35.0352"/>
		<path fill="#DCFF85" fill-opacity="1" stroke-width="0.2" stroke-linejoin="round" d="M 3589.88,1436.96L 3589.88,1460.69L 3580.75,1472L 3561.7,1472L 3561.7,1436.96L 3589.88,1436.96 Z M 3582.62,1445.99L 3568.96,1445.99L 3568.96,1462.98L 3577.8,1462.98L 3582.62,1456.95L 3582.62,1445.99 Z "/>
		<path fill="#DCFF85" fill-opacity="1" stroke-width="0.2" stroke-linejoin="round" d="M 3639.71,1445.99L 3620.19,1445.99L 3620.19,1452.89L 3635.52,1452.89L 3635.52,1461.91L 3620.19,1461.91L 3620.19,1472L 3612.93,1472L 3612.93,1436.96L 3639.71,1436.96L 3639.71,1445.99 Z "/>
		<rect x="3645.81" y="1436.96" fill="#DCFF85" fill-opacity="1" stroke-width="0.2" stroke-linejoin="round" width="7.25854" height="35.0352"/>
		<path fill="#DCFF85" fill-opacity="1" stroke-width="0.2" stroke-linejoin="round" d="M 3687.23,1459.26L 3687.23,1436.96L 3659.05,1436.96L 3659.05,1472L 3687.23,1472L 3687.23,1462.98L 3666.31,1462.98L 3666.31,1445.46L 3679.97,1445.46L 3679.97,1450.24L 3674.17,1450.24L 3674.17,1459.26L 3687.23,1459.26 Z "/>
		<path fill="#DCFF85" fill-opacity="1" stroke-width="0.2" stroke-linejoin="round" d="M 3693.21,1472L 3693.21,1436.96L 3700.46,1436.96L 3700.46,1462.98L 3719.21,1462.98L 3719.21,1472L 3693.21,1472 Z "/>
		<path fill="#DCFF85" fill-opacity="1" stroke-width="0.2" stroke-linejoin="round" d="M 3753.41,1436.96L 3753.41,1460.69L 3744.28,1472L 3725.23,1472L 3725.23,1436.96L 3753.41,1436.96 Z M 3746.15,1445.99L 3732.49,1445.99L 3732.49,1462.98L 3741.33,1462.98L 3746.15,1456.95L 3746.15,1445.99 Z "/>
	</g>
	<g>
		<path fill="#DCFF85" fill-opacity="1" stroke-width="0.2" stroke-linejoin="round" d="M 3175.73,1482.1L 3163.37,1514.97L 3139.34,1514.97L 3139.34,1507.55L 3159.78,1507.55L 3163.37,1497.26C 3161.53,1498.64 3159.84,1499.58 3158.29,1500.07C 3156.74,1500.57 3154.96,1501 3152.95,1501.38C 3150.93,1501.75 3147.66,1501.98 3143.14,1502.07L 3139.45,1502.07L 3139.45,1494.66L 3143.25,1494.66C 3147.7,1494.3 3150.56,1494 3151.83,1493.78C 3153.09,1493.55 3154.82,1493.02 3157.01,1492.19C 3159.69,1490.92 3161.88,1489.71 3163.58,1488.56C 3165.29,1487.41 3167.2,1485.25 3169.32,1482.06L 3175.73,1482.1 Z "/>
		<path fill="#DCFF85" fill-opacity="1" stroke-width="0.2" stroke-linejoin="round" d="M 3192.57,1481.96L 3192.57,1514.97L 3187.42,1514.97L 3187.42,1490.26L 3181.89,1496.89L 3177.87,1492.02C 3177.84,1491.84 3177.91,1491.66 3178.08,1491.47L 3185.85,1481.96L 3192.57,1481.96 Z "/>
		<path fill="#DCFF85" fill-opacity="1" stroke-width="0.2" stroke-linejoin="round" d="M 3202.95,1508.61L 3203.58,1508.54L 3214.58,1482.06L 3221.46,1482.06L 3236.11,1514.97L 3229.33,1514.97L 3218.08,1488.97L 3207.17,1514.97L 3200.45,1514.97L 3200.09,1514.94L 3199.41,1513.71L 3198.78,1512.4L 3197.94,1510.57L 3197.22,1508.47L 3196.54,1506.27L 3196.12,1503.73L 3195.7,1500.85L 3195.55,1497.87L 3195.44,1494.66L 3195.91,1492.19L 3196.33,1489.55L 3196.8,1487.55L 3197.53,1485.72L 3198.2,1484.13L 3199.04,1482.81L 3199.51,1482.13L 3204.52,1482.13L 3203.63,1483.18L 3202.95,1484.47L 3202.22,1486.06L 3201.7,1487.62L 3201.23,1489.55L 3200.76,1492.09L 3200.45,1494.89L 3200.29,1497.7L 3200.45,1500.51L 3200.87,1503.49L 3201.39,1505.76L 3201.96,1507.15L 3202.95,1508.61 Z "/>
		<path fill="#DCFF85" fill-opacity="1" stroke-width="0.2" stroke-linejoin="round" d="M 3238.72,1482.06L 3244.51,1482.06L 3244.51,1488.53L 3260.16,1488.53L 3268.13,1482.06L 3279.81,1482.06L 3260.16,1496.15L 3238.72,1496.15L 3238.72,1482.06 Z M 3238.72,1500.89L 3260.77,1500.89L 3280.07,1514.97L 3269.17,1514.97L 3259.73,1508.5L 3244.41,1508.5L 3244.41,1514.97L 3238.72,1514.97L 3238.72,1500.89 Z "/>
		<path fill="#DCFF85" fill-opacity="1" stroke-width="0.2" stroke-linejoin="round" d="M 3305.41,1482.06L 3305.41,1508.71L 3307.08,1508.71L 3315.89,1497.33L 3323.61,1497.33L 3309.69,1514.97L 3296.18,1514.97L 3282.21,1497.23L 3289.93,1497.23L 3298.79,1508.61L 3300.4,1508.61L 3300.4,1482.06L 3305.41,1482.06 Z "/>
		<path fill="#DCFF85" fill-opacity="1" stroke-width="0.2" stroke-linejoin="round" d="M 3325.8,1482.06L 3331.59,1482.06L 3331.59,1488.53L 3347.23,1488.53L 3355.21,1482.06L 3366.88,1482.06L 3347.23,1496.15L 3325.8,1496.15L 3325.8,1482.06 Z M 3325.8,1500.89L 3347.85,1500.89L 3367.15,1514.97L 3356.25,1514.97L 3346.81,1508.5L 3331.48,1508.5L 3331.48,1514.97L 3325.8,1514.97L 3325.8,1500.89 Z "/>
		<path fill="#DCFF85" fill-opacity="1" stroke-width="0.2" stroke-linejoin="round" d="M 3396.71,1482.06L 3402.5,1482.06L 3402.5,1488.53L 3418.15,1488.53L 3426.12,1482.06L 3437.8,1482.06L 3418.15,1496.15L 3396.71,1496.15L 3396.71,1482.06 Z M 3396.71,1500.89L 3418.77,1500.89L 3438.06,1514.97L 3427.17,1514.97L 3417.72,1508.5L 3402.4,1508.5L 3402.4,1514.97L 3396.71,1514.97L 3396.71,1500.89 Z "/>
		<path fill="#DCFF85" fill-opacity="1" stroke-width="0.2" stroke-linejoin="round" d="M 3453.34,1482.06L 3473.73,1507.15L 3473.73,1482.06L 3479.46,1482.06L 3479.46,1514.97L 3471.59,1514.97L 3444.74,1482.06L 3453.34,1482.06 Z M 3442.55,1499.33L 3463.35,1508.61L 3461.52,1514.97L 3440.62,1505.86L 3442.55,1499.33 Z "/>
		<path fill="#DCFF85" fill-opacity="1" stroke-width="0.2" stroke-linejoin="round" d="M 3504.6,1482.06L 3504.6,1508.71L 3506.27,1508.71L 3515.07,1497.33L 3522.79,1497.33L 3508.87,1514.97L 3495.37,1514.97L 3481.39,1497.23L 3489.11,1497.23L 3497.97,1508.61L 3499.59,1508.61L 3499.59,1482.06L 3504.6,1482.06 Z "/>
		<path fill="#DCFF85" fill-opacity="1" stroke-width="0.2" stroke-linejoin="round" d="M 3563.15,1482.03L 3563.15,1489.61L 3559.19,1489.61L 3559.19,1514.97L 3553.81,1514.97L 3553.81,1489.61L 3553.09,1489.61L 3543.7,1514.97L 3536.82,1514.97L 3524.52,1482.03L 3531.13,1482.03L 3540.31,1505.59L 3549.23,1482.03L 3563.15,1482.03 Z "/>
		<path fill="#DCFF85" fill-opacity="1" stroke-width="0.2" stroke-linejoin="round" d="M 3598.66,1482.06L 3576.86,1514.97L 3569.36,1514.97L 3585.31,1490.59L 3585.31,1490.02L 3566.17,1490.02L 3570.82,1482.06L 3598.66,1482.06 Z "/>
		<path fill="#DCFF85" fill-opacity="1" stroke-width="0.2" stroke-linejoin="round" d="M 3627.39,1482.06L 3636.04,1508.23L 3632.61,1514.97L 3604.6,1514.97L 3601.06,1508.13L 3609.4,1482.06L 3627.39,1482.06 Z M 3607.11,1507.76L 3629.94,1507.76L 3624.05,1489.65L 3613,1489.65L 3607.11,1507.76 Z "/>
		<path fill="#DCFF85" fill-opacity="1" stroke-width="0.2" stroke-linejoin="round" d="M 3652.47,1481.96L 3652.47,1514.97L 3647.31,1514.97L 3647.31,1490.26L 3641.78,1496.89L 3637.76,1492.02C 3637.73,1491.84 3637.8,1491.66 3637.98,1491.47L 3645.75,1481.96L 3652.47,1481.96 Z "/>
		<path fill="#DCFF85" fill-opacity="1" stroke-width="0.2" stroke-linejoin="round" d="M 3686.26,1482.3L 3686.16,1482.88L 3664.83,1514.97L 3657.11,1514.97L 3665.82,1502.44L 3656.38,1502.44L 3660.4,1494.93L 3670.93,1494.93L 3674.37,1489.82L 3655.03,1489.78L 3658.78,1482.3L 3686.26,1482.3 Z "/>
		<path fill="#DCFF85" fill-opacity="1" stroke-width="0.2" stroke-linejoin="round" d="M 3736.31,1482.23L 3736.31,1490.12C 3739.58,1489.42 3742.19,1488.61 3744.14,1487.68C 3746.09,1486.76 3748.9,1484.79 3752.58,1481.79L 3752.58,1488.56C 3749.67,1491.09 3747.07,1492.96 3744.79,1494.17C 3742.51,1495.38 3739.69,1496.43 3736.31,1497.33L 3736.31,1507.42L 3752.58,1507.42L 3752.58,1514.97L 3715.1,1514.97L 3715.1,1492.32L 3721.92,1492.29C 3725.02,1492.11 3728.01,1491.7 3730.89,1491.07L 3730.94,1482.23L 3736.31,1482.23 Z M 3720.83,1507.42L 3730.94,1507.42L 3730.94,1498.92C 3728.58,1499.33 3726.13,1499.58 3723.59,1499.67L 3720.83,1499.67L 3720.83,1507.42 Z "/>
		<path fill="#DCFF85" fill-opacity="1" stroke-width="0.2" stroke-linejoin="round" d="M 3769.79,1481.96L 3769.79,1514.97L 3764.63,1514.97L 3764.63,1490.26L 3759.1,1496.89L 3755.08,1492.02C 3755.05,1491.84 3755.12,1491.66 3755.3,1491.47L 3763.07,1481.96L 3769.79,1481.96 Z "/>
		<path fill="#DCFF85" fill-opacity="1" stroke-width="0.2" stroke-linejoin="round" d="M 3810.83,1482.03L 3810.83,1489.61L 3806.87,1489.61L 3806.87,1514.97L 3801.49,1514.97L 3801.49,1489.61L 3800.77,1489.61L 3791.38,1514.97L 3784.5,1514.97L 3772.19,1482.03L 3778.81,1482.03L 3787.99,1505.59L 3796.9,1482.03L 3810.83,1482.03 Z "/>
		<path fill="#DCFF85" fill-opacity="1" stroke-width="0.2" stroke-linejoin="round" d="M 3839.72,1481.93L 3839.72,1515L 3832.21,1515L 3814.17,1501.02L 3817.5,1494.83L 3833.98,1507.45L 3833.98,1481.93L 3839.72,1481.93 Z "/>
		<path fill="#DCFF85" fill-opacity="1" stroke-width="0.2" stroke-linejoin="round" d="M 3873.97,1482.3L 3873.87,1482.88L 3852.54,1514.97L 3844.83,1514.97L 3853.54,1502.44L 3844.09,1502.44L 3848.11,1494.93L 3858.64,1494.93L 3862.08,1489.82L 3842.74,1489.78L 3846.5,1482.3L 3873.97,1482.3 Z "/>
	</g>
	<path fill="#378AFB" fill-opacity="1" stroke-width="0.2" stroke-linejoin="round" stroke="#4E9AFB" stroke-opacity="1" d="M 3387.97,891C 3406.21,891 3421,905.327 3421,923C 3421,940.673 3406.21,955 3387.97,955C 3369.72,955 3354.94,940.673 3354.94,923C 3354.94,905.327 3369.72,891 3387.97,891 Z "/>
	<path fill="none" stroke-width="16" stroke-linejoin="round" stroke="#DCFF85" stroke-opacity="1" d="M 1877,1382C 1877,1382 2001.01,1717 2033,2069"/>
	<path fill="none" stroke-width="16" stroke-linejoin="round" stroke="#DCFF85" stroke-opacity="1" d="M 1838,1393C 1838,1393 1962.01,1728 1994,2080"/>
	<line fill="none" stroke-width="16" stroke-linejoin="round" stroke="#DCFF85" stroke-opacity="1" x1="2129.01" y1="959.992" x2="3360" y2="-127.998"/>
	<path fill="#378AFB" fill-opacity="1" stroke-width="0.2" stroke-linejoin="round" stroke="#4E9AFB" stroke-opacity="1" d="M 2922.84,852C 2937.66,852 2949.68,863.64 2949.68,878C 2949.68,892.359 2937.66,904 2922.84,904C 2908.02,904 2896,892.359 2896,878C 2896,863.64 2908.02,852 2922.84,852 Z "/>
	<path fill="#030409" fill-opacity="1" stroke-width="16" stroke-linejoin="round" stroke="#DCFF85" stroke-opacity="1" d="M 1973.34,2014L 1931.23,2075.75L 1967.72,2145.93L 2037.9,2145.93L 2080,2084.17L 2043.51,2014L 1973.34,2014 Z "/>
	<path fill="#DCFF85" fill-opacity="1" stroke-linejoin="round" stroke="#DCFF85" stroke-opacity="1" d="M 1987.07,2035.78L 1984,2123L 2028.91,2123L 2056.97,2081.11L 2031.72,2035.99L 1987.07,2035.78 Z "/>
	<path fill="#378AFB" fill-opacity="1" stroke-linejoin="round" d="M 1713.57,1914.88L 1712.51,1926.3L 1710.42,1935.41L 1707.39,1944.4L 1703.4,1953.2L 1698.56,1961.55L 1693,1969.24L 1683.33,1980.72L 1670.86,1970.71L 1680.52,1959.23L 1685.14,1952.83L 1689.18,1945.87L 1692.5,1938.54L 1695.02,1931.06L 1696.76,1923.5L 1697.62,1913.64L 1713.57,1914.88 Z M 1645.7,2000.93L 1630.71,2003.88L 1621.65,2004.54L 1612.52,2004.32L 1603.37,2003.19L 1594.29,2001.13L 1585.33,1998.13L 1573.71,1993.32L 1579.55,1978.43L 1591.17,1983.24L 1598.6,1985.73L 1606.12,1987.43L 1613.69,1988.36L 1621.26,1988.55L 1628.77,1988L 1642.26,1985.31L 1645.7,2000.93 Z M 1543.11,1964.67L 1537.22,1955.73L 1533.28,1947.58L 1530.14,1939.1L 1527.83,1930.36L 1526.35,1921.42L 1525.73,1912.34L 1526,1903.19L 1526.81,1893.67L 1542.76,1894.91L 1541.95,1904.43L 1541.73,1912.03L 1542.24,1919.57L 1543.47,1927.01L 1545.4,1934.27L 1548,1941.31L 1551.27,1948.08L 1556.36,1955.7L 1543.11,1964.67 Z M 1543.52,1855.23L 1552.89,1844.08L 1559.67,1837.81L 1566.97,1832.27L 1574.72,1827.5L 1582.86,1823.51L 1591.32,1820.32L 1604.54,1816.34L 1609.47,1831.56L 1596.24,1835.55L 1589.21,1838.2L 1582.45,1841.51L 1576.01,1845.48L 1569.94,1850.07L 1564.31,1855.28L 1556,1865.24L 1543.52,1855.23 Z M 1647.22,1819.4L 1663.11,1826.14L 1671.42,1830.98L 1679.07,1836.53L 1686.02,1842.73L 1692.25,1849.52L 1697.73,1856.82L 1702.45,1864.58L 1707.28,1873.68L 1693.22,1881.32L 1688.4,1872.23L 1684.48,1865.79L 1679.94,1859.74L 1674.78,1854.12L 1669.03,1848.98L 1662.69,1844.38L 1655.78,1840.37L 1641.38,1834.3L 1647.22,1819.4 Z "/>
	<path fill="none" stroke-width="19" stroke-linecap="square" stroke-linejoin="miter" stroke="#378AFB" stroke-opacity="1" d="M 1646.42,1860.07C 1673.56,1874.18 1684.05,1907.76 1669.85,1935.06C 1655.65,1962.36 1622.14,1973.05 1594.99,1958.93C 1567.85,1944.82 1557.36,1911.24 1571.56,1883.94C 1585.76,1856.64 1619.27,1845.95 1646.42,1860.07 Z "/>
	<line fill="none" stroke-width="19" stroke-linecap="square" stroke-linejoin="miter" stroke="#378AFB" stroke-opacity="1" x1="1583.64" y1="1949.61" x2="1654.19" y2="1870.07"/>
	<g>
		<path fill="#0083FF" fill-opacity="1" stroke-width="0.2" stroke-linejoin="round" d="M 1067.6,1876.95L 1067.6,1855.87L 1034.51,1855.87L 1034.51,1889L 1067.6,1889L 1067.6,1880.47L 1043.03,1880.47L 1043.03,1863.9L 1059.07,1863.9L 1059.07,1868.42L 1052.26,1868.42L 1052.26,1876.95L 1067.6,1876.95 Z "/>
		<path fill="#0083FF" fill-opacity="1" stroke-width="0.2" stroke-linejoin="round" d="M 1098.18,1864.4L 1100.33,1864.4L 1106.2,1870.21L 1106.2,1889L 1114.72,1889L 1114.72,1866.56L 1104.01,1855.87L 1074.61,1855.87L 1074.61,1889L 1083.14,1889L 1083.14,1864.4L 1090.15,1864.4L 1090.15,1889L 1098.18,1889L 1098.18,1864.4 Z "/>
		<path fill="#0083FF" fill-opacity="1" stroke-width="0.2" stroke-linejoin="round" d="M 1121.74,1889L 1130.26,1889L 1130.26,1876.45L 1153.32,1876.45L 1153.32,1855.87L 1121.74,1855.87L 1121.74,1889 Z M 1144.8,1864.4L 1144.8,1867.92L 1130.26,1867.92L 1130.26,1864.4L 1144.8,1864.4 Z "/>
		<path fill="#0083FF" fill-opacity="1" stroke-width="0.2" stroke-linejoin="round" d="M 1160.34,1889L 1160.34,1855.87L 1191.92,1855.87L 1191.92,1876.45L 1179.35,1876.45L 1191.92,1889L 1181.38,1889L 1168.86,1876.55L 1168.86,1889L 1160.34,1889 Z M 1183.4,1864.4L 1168.86,1864.4L 1168.86,1867.92L 1183.4,1867.92L 1183.4,1864.4 Z "/>
		<path fill="#0083FF" fill-opacity="1" stroke-width="0.2" stroke-linejoin="round" d="M 1232.03,1876.95L 1232.03,1855.87L 1198.94,1855.87L 1198.94,1889L 1232.03,1889L 1232.03,1880.47L 1207.46,1880.47L 1207.46,1863.9L 1223.5,1863.9L 1223.5,1868.42L 1216.69,1868.42L 1216.69,1876.95L 1232.03,1876.95 Z "/>
		<path fill="#0083FF" fill-opacity="1" stroke-width="0.2" stroke-linejoin="round" d="M 1272.13,1863.9L 1247.57,1863.9L 1247.57,1868.42L 1272.13,1868.42L 1272.13,1889L 1239.04,1889L 1239.04,1880.47L 1263.61,1880.47L 1263.61,1876.95L 1239.04,1876.95L 1239.04,1855.87L 1272.13,1855.87L 1272.13,1863.9 Z "/>
		<path fill="#0083FF" fill-opacity="1" stroke-width="0.2" stroke-linejoin="round" d="M 1312.24,1863.9L 1287.67,1863.9L 1287.67,1868.42L 1312.24,1868.42L 1312.24,1889L 1279.15,1889L 1279.15,1880.47L 1303.71,1880.47L 1303.71,1876.95L 1279.15,1876.95L 1279.15,1855.87L 1312.24,1855.87L 1312.24,1863.9 Z "/>
		<path fill="#0083FF" fill-opacity="1" stroke-width="0.2" stroke-linejoin="round" d="M 1352.84,1863.9L 1352.84,1880.47L 1365.68,1880.47L 1365.68,1889L 1344.82,1889L 1344.82,1863.9L 1339.25,1863.9L 1339.25,1855.87L 1370.34,1855.87L 1370.34,1863.9L 1352.84,1863.9 Z "/>
		<path fill="#0083FF" fill-opacity="1" stroke-width="0.2" stroke-linejoin="round" d="M 1410.99,1876.95L 1410.99,1855.87L 1377.91,1855.87L 1377.91,1889L 1410.99,1889L 1410.99,1880.47L 1386.43,1880.47L 1386.43,1863.9L 1402.47,1863.9L 1402.47,1868.42L 1395.66,1868.42L 1395.66,1876.95L 1410.99,1876.95 Z "/>
		<path fill="#0083FF" fill-opacity="1" stroke-width="0.2" stroke-linejoin="round" d="M 1431.55,1863.9L 1431.55,1880.47L 1444.39,1880.47L 1444.39,1889L 1423.53,1889L 1423.53,1863.9L 1417.96,1863.9L 1417.96,1855.87L 1449.05,1855.87L 1449.05,1863.9L 1431.55,1863.9 Z "/>
		<path fill="#0083FF" fill-opacity="1" stroke-width="0.2" stroke-linejoin="round" d="M 1453.9,1885.5L 1470.1,1855.87L 1490.7,1855.87L 1490.7,1889L 1473.31,1889L 1473.31,1880.47L 1482.18,1880.47L 1482.18,1864.4L 1474.96,1864.4L 1461.17,1889.5L 1453.9,1885.5 Z "/>
	</g>
	<g>
		<path fill="#0083FF" fill-opacity="1" stroke-width="0.2" stroke-linejoin="round" d="M 957.341,1902.38L 957.341,1909.89L 952.211,1909.89L 952.211,1935L 945.244,1935L 945.244,1909.89L 944.305,1909.89L 932.145,1935L 923.226,1935L 907.288,1902.38L 915.859,1902.38L 927.754,1925.71L 939.302,1902.38L 957.341,1902.38 Z "/>
		<path fill="#0083FF" fill-opacity="1" stroke-width="0.2" stroke-linejoin="round" d="M 989.903,1902.41L 989.903,1911.17L 983.01,1911.23L 973.891,1927.49L 992.067,1927.49L 987.676,1935L 961.457,1935L 979.095,1902.41L 989.903,1902.41 Z "/>
		<path fill="#0083FF" fill-opacity="1" stroke-width="0.2" stroke-linejoin="round" d="M 1028.33,1902.58L 1028.33,1935L 1002.26,1935C 997.942,1932 995.645,1927.15 995.371,1920.45C 995.912,1913.25 998.706,1907.31 1003.75,1902.62L 1015.1,1902.62L 1015.1,1910.46L 1007.19,1910.46L 1007.19,1908.71L 1005.98,1908.71C 1004.18,1910.68 1003.28,1914.6 1003.28,1920.45C 1003.18,1924.79 1003.84,1927.15 1005.24,1927.56L 1020.37,1927.56L 1020.37,1902.55L 1028.33,1902.58 Z "/>
		<path fill="#0083FF" fill-opacity="1" stroke-width="0.2" stroke-linejoin="round" d="M 1074.27,1902.41L 1046.04,1935L 1036.31,1935L 1056.98,1910.86L 1056.98,1910.29L 1032.19,1910.29L 1038.2,1902.41L 1074.27,1902.41 Z "/>
		<path fill="#0083FF" fill-opacity="1" stroke-width="0.2" stroke-linejoin="round" d="M 1126.9,1902.38L 1126.9,1909.89L 1121.77,1909.89L 1121.77,1935L 1114.8,1935L 1114.8,1909.89L 1113.86,1909.89L 1101.7,1935L 1092.78,1935L 1076.85,1902.38L 1085.42,1902.38L 1097.31,1925.71L 1108.86,1902.38L 1126.9,1902.38 Z "/>
		<path fill="#0083FF" fill-opacity="1" stroke-width="0.2" stroke-linejoin="round" d="M 1146.76,1902.41L 1173.17,1927.26L 1173.17,1902.41L 1180.6,1902.41L 1180.6,1935L 1170.41,1935L 1135.62,1902.41L 1146.76,1902.41 Z M 1132.78,1919.51L 1159.72,1928.7L 1157.36,1935L 1130.28,1925.98L 1132.78,1919.51 Z "/>
		<path fill="#0083FF" fill-opacity="1" stroke-width="0.2" stroke-linejoin="round" d="M 1200.13,1902.41L 1226.54,1927.26L 1226.54,1902.41L 1233.97,1902.41L 1233.97,1935L 1223.77,1935L 1188.98,1902.41L 1200.13,1902.41 Z M 1186.14,1919.51L 1213.09,1928.7L 1210.73,1935L 1183.64,1925.98L 1186.14,1919.51 Z "/>
		<path fill="#0083FF" fill-opacity="1" stroke-width="0.2" stroke-linejoin="round" d="M 1300.98,1902.41L 1300.98,1928.8L 1303.15,1928.8L 1314.56,1917.54L 1324.55,1917.54L 1306.53,1935L 1289.02,1935L 1270.92,1917.43L 1280.92,1917.43L 1292.4,1928.7L 1294.49,1928.7L 1294.49,1902.41L 1300.98,1902.41 Z "/>
		<path fill="#0083FF" fill-opacity="1" stroke-width="0.2" stroke-linejoin="round" d="M 1376.84,1902.38L 1376.84,1909.89L 1371.71,1909.89L 1371.71,1935L 1364.75,1935L 1364.75,1909.89L 1363.81,1909.89L 1351.65,1935L 1342.73,1935L 1326.79,1902.38L 1335.36,1902.38L 1347.26,1925.71L 1358.8,1902.38L 1376.84,1902.38 Z "/>
		<path fill="#0083FF" fill-opacity="1" stroke-width="0.2" stroke-linejoin="round" d="M 1409.74,1902.41L 1409.74,1928.8L 1411.91,1928.8L 1423.32,1917.54L 1433.31,1917.54L 1415.29,1935L 1397.78,1935L 1379.68,1917.43L 1389.68,1917.43L 1401.16,1928.7L 1403.25,1928.7L 1403.25,1902.41L 1409.74,1902.41 Z "/>
		<path fill="#0083FF" fill-opacity="1" stroke-width="0.2" stroke-linejoin="round" d="M 1436.15,1902.41L 1443.66,1902.41L 1443.66,1908.82L 1463.92,1908.82L 1474.26,1902.41L 1489.38,1902.41L 1463.92,1916.36L 1436.15,1916.36L 1436.15,1902.41 Z M 1436.15,1921.06L 1464.73,1921.06L 1489.72,1935L 1475.61,1935L 1463.37,1928.6L 1443.52,1928.6L 1443.52,1935L 1436.15,1935L 1436.15,1921.06 Z "/>
	</g>
	<g>
		<path fill="#378AFB" fill-opacity="1" stroke-linejoin="round" d="M 2850.21,2099.43L 2849.23,2104.37L 2846.41,2113.57L 2842.75,2122.27L 2838.28,2130.45L 2833.09,2138.06L 2827.22,2145.06L 2820.73,2151.42L 2813.69,2157.1L 2806.15,2162.09L 2798.16,2166.33L 2789.79,2169.8L 2781.09,2172.46L 2772.11,2174.28L 2762.92,2175.22L 2753.57,2175.26L 2744.12,2174.35L 2741.65,2173.86L 2743.98,2158.03L 2746.45,2158.52L 2754.3,2159.28L 2762.06,2159.25L 2769.7,2158.46L 2777.15,2156.95L 2784.38,2154.74L 2791.34,2151.85L 2797.98,2148.33L 2804.25,2144.19L 2810.09,2139.47L 2815.47,2134.19L 2820.34,2128.39L 2824.64,2122.09L 2828.33,2115.32L 2831.38,2108.11L 2833.72,2100.47L 2834.38,2097.12L 2850.21,2099.43 Z M 2664.15,2067.33L 2665.95,2058.25L 2668.76,2049.05L 2672.43,2040.34L 2676.9,2032.17L 2682.09,2024.56L 2687.96,2017.56L 2694.45,2011.2L 2701.49,2005.51L 2709.03,2000.53L 2717.01,1996.29L 2725.39,1992.82L 2734.09,1990.16L 2743.07,1988.34L 2752.26,1987.39L 2761.61,1987.36L 2771.06,1988.27L 2777.67,1989.58L 2775.34,2005.41L 2768.73,2004.1L 2760.88,2003.34L 2753.12,2003.37L 2745.48,2004.15L 2738.03,2005.67L 2730.8,2007.88L 2723.84,2010.76L 2717.2,2014.29L 2710.93,2018.43L 2705.09,2023.15L 2699.71,2028.43L 2694.84,2034.23L 2690.54,2040.53L 2686.84,2047.29L 2683.8,2054.51L 2681.46,2062.15L 2679.98,2069.64L 2664.15,2067.33 Z "/>
		<path fill="#378AFB" fill-opacity="1" stroke-width="19" stroke-linecap="square" stroke-linejoin="miter" stroke="#378AFB" stroke-opacity="1" d="M 2778.7,2042.06C 2800.47,2053.38 2808.89,2080.32 2797.5,2102.22C 2786.11,2124.13 2759.22,2132.7 2737.44,2121.38C 2715.66,2110.05 2707.24,2083.11 2718.64,2061.21C 2730.03,2039.3 2756.92,2030.73 2778.7,2042.06 Z "/>
		<path fill="#378AFB" fill-opacity="1" stroke-linejoin="round" d="M 2776.83,2174.01L 2771.89,2175.02L 2762.32,2175.99L 2752.87,2175.99L 2743.61,2175.05L 2734.58,2173.21L 2725.85,2170.52L 2717.47,2167.01L 2709.5,2162.72L 2701.98,2157.71L 2694.97,2151.99L 2688.53,2145.62L 2682.7,2138.63L 2677.54,2131.06L 2673.1,2122.96L 2669.44,2114.35L 2666.61,2105.3L 2666.11,2102.83L 2681.6,2098.83L 2682.11,2101.3L 2684.46,2108.83L 2687.49,2115.97L 2691.18,2122.7L 2695.46,2128.99L 2700.31,2134.79L 2705.67,2140.09L 2711.49,2144.84L 2717.74,2149.01L 2724.36,2152.57L 2731.31,2155.48L 2738.54,2157.71L 2746.02,2159.23L 2753.69,2160.01L 2761.52,2160.01L 2769.47,2159.21L 2772.81,2158.52L 2776.83,2174.01 Z M 2734.22,1990.06L 2743.3,1988.2L 2752.86,1987.23L 2762.31,1987.23L 2771.58,1988.17L 2780.61,1990.01L 2789.34,1992.7L 2797.71,1996.21L 2805.69,2000.5L 2813.2,2005.52L 2820.21,2011.23L 2826.66,2017.6L 2832.49,2024.59L 2837.65,2032.16L 2842.09,2040.27L 2845.75,2048.87L 2848.57,2057.93L 2849.93,2064.53L 2834.43,2068.53L 2833.08,2061.92L 2830.73,2054.39L 2827.69,2047.25L 2824.01,2040.52L 2819.72,2034.24L 2814.88,2028.43L 2809.52,2023.13L 2803.7,2018.38L 2797.45,2014.21L 2790.83,2010.66L 2783.88,2007.74L 2776.64,2005.51L 2769.17,2003.99L 2761.5,2003.21L 2753.67,2003.21L 2745.72,2004.01L 2738.24,2005.55L 2734.22,1990.06 Z "/>
	</g>
	<g>
		<path fill="#0083FF" fill-opacity="1" stroke-width="0.2" stroke-linejoin="round" d="M 2920.21,2036.37L 2912.98,2032.37L 2899.2,2057.47L 2892.03,2057.47L 2892.03,2032.62L 2883.51,2032.62L 2883.51,2066L 2904.02,2066L 2920.21,2036.37 Z "/>
		<path fill="#0083FF" fill-opacity="1" stroke-width="0.2" stroke-linejoin="round" d="M 2949.18,2057.47L 2949.18,2032.87L 2957.7,2032.87L 2957.7,2066L 2935.33,2066L 2924.62,2055.31L 2924.62,2032.87L 2933.14,2032.87L 2933.14,2051.65L 2938.79,2057.47L 2949.18,2057.47 Z "/>
		<path fill="#0083FF" fill-opacity="1" stroke-width="0.2" stroke-linejoin="round" d="M 2964.72,2066L 2964.72,2032.87L 2973.24,2032.87L 2973.24,2057.47L 2995.25,2057.47L 2995.25,2066L 2964.72,2066 Z "/>
		<path fill="#0083FF" fill-opacity="1" stroke-width="0.2" stroke-linejoin="round" d="M 3002.32,2066L 3010.84,2066L 3010.84,2053.45L 3033.9,2053.45L 3033.9,2032.87L 3002.32,2032.87L 3002.32,2066 Z M 3025.38,2041.4L 3025.38,2044.92L 3010.84,2044.92L 3010.84,2041.4L 3025.38,2041.4 Z "/>
		<path fill="#0083FF" fill-opacity="1" stroke-width="0.2" stroke-linejoin="round" d="M 3054.46,2040.9L 3054.46,2057.47L 3067.29,2057.47L 3067.29,2066L 3046.44,2066L 3046.44,2040.9L 3040.87,2040.9L 3040.87,2032.87L 3071.96,2032.87L 3071.96,2040.9L 3054.46,2040.9 Z "/>
		<path fill="#0083FF" fill-opacity="1" stroke-width="0.2" stroke-linejoin="round" d="M 3112.61,2053.95L 3112.61,2032.87L 3079.52,2032.87L 3079.52,2066L 3112.61,2066L 3112.61,2057.47L 3088.04,2057.47L 3088.04,2040.9L 3104.09,2040.9L 3104.09,2045.42L 3097.27,2045.42L 3097.27,2053.95L 3112.61,2053.95 Z "/>
		<path fill="#0083FF" fill-opacity="1" stroke-width="0.2" stroke-linejoin="round" d="M 3119.63,2066L 3119.63,2032.87L 3151.21,2032.87L 3151.21,2053.45L 3138.64,2053.45L 3151.21,2066L 3140.67,2066L 3128.15,2053.55L 3128.15,2066L 3119.63,2066 Z M 3142.69,2041.4L 3128.15,2041.4L 3128.15,2044.92L 3142.69,2044.92L 3142.69,2041.4 Z "/>
	</g>
	<g>
		<path fill="#0083FF" fill-opacity="1" stroke-width="0.2" stroke-linejoin="round" d="M 2892.16,2079.41L 2901,2088.17L 2902.43,2088.17L 2911.21,2079.41L 2922.02,2079.41L 2904.86,2096.31L 2904.86,2112L 2898.51,2112L 2898.51,2096.31L 2881.35,2079.51L 2892.16,2079.41 Z "/>
		<path fill="#0083FF" fill-opacity="1" stroke-width="0.2" stroke-linejoin="round" d="M 2970.18,2079.41L 2971.81,2081.02L 2971.81,2110.32L 2970.05,2112L 2925.06,2112L 2925.06,2079.41L 2932.83,2079.41L 2932.83,2104.96L 2964.04,2104.96L 2964.04,2086.92L 2953.97,2086.92L 2949.24,2093.13L 2939.17,2093.13L 2949.78,2079.41L 2970.18,2079.41 Z "/>
		<path fill="#0083FF" fill-opacity="1" stroke-width="0.2" stroke-linejoin="round" d="M 3008.62,2079.28L 3008.62,2112.03L 2998.89,2112.03L 2975.52,2098.19L 2979.84,2092.05L 3001.19,2104.56L 3001.19,2079.28L 3008.62,2079.28 Z "/>
		<path fill="#0083FF" fill-opacity="1" stroke-width="0.2" stroke-linejoin="round" d="M 3045.57,2079.58L 3045.57,2112L 3019.5,2112C 3015.18,2109 3012.88,2104.15 3012.6,2097.45C 3013.15,2090.25 3015.94,2084.31 3020.99,2079.62L 3032.33,2079.62L 3032.33,2087.46L 3024.43,2087.46L 3024.43,2085.71L 3023.21,2085.71C 3021.41,2087.68 3020.51,2091.6 3020.51,2097.45C 3020.42,2101.79 3021.07,2104.15 3022.47,2104.56L 3037.6,2104.56L 3037.6,2079.55L 3045.57,2079.58 Z "/>
		<path fill="#0083FF" fill-opacity="1" stroke-width="0.2" stroke-linejoin="round" d="M 3078.4,2079.41L 3078.4,2105.8L 3080.57,2105.8L 3091.98,2094.54L 3101.97,2094.54L 3083.95,2112L 3066.45,2112L 3048.34,2094.43L 3058.34,2094.43L 3069.82,2105.7L 3071.91,2105.7L 3071.91,2079.41L 3078.4,2079.41 Z "/>
		<path fill="#0083FF" fill-opacity="1" stroke-width="0.2" stroke-linejoin="round" d="M 3154.26,2079.38L 3154.26,2086.89L 3149.13,2086.89L 3149.13,2112L 3142.17,2112L 3142.17,2086.89L 3141.23,2086.89L 3129.07,2112L 3120.15,2112L 3104.21,2079.38L 3112.78,2079.38L 3124.68,2102.71L 3136.23,2079.38L 3154.26,2079.38 Z "/>
		<path fill="#0083FF" fill-opacity="1" stroke-width="0.2" stroke-linejoin="round" d="M 3200.26,2079.41L 3172.03,2112L 3162.31,2112L 3182.97,2087.86L 3182.97,2087.29L 3158.18,2087.29L 3164.2,2079.41L 3200.26,2079.41 Z "/>
	</g>
</svg>
