<?xml version="1.0" encoding="utf-8"?>
<!DOCTYPE svg PUBLIC "-//W3C//DTD SVG 1.1//EN" "http://www.w3.org/Graphics/SVG/1.1/DTD/svg11.dtd">
<svg xmlns="http://www.w3.org/2000/svg" xmlns:xlink="http://www.w3.org/1999/xlink" version="1.1" baseProfile="full" width="3840" height="2160" viewBox="0 0 3840.00 2160.00" enable-background="new 0 0 3840.00 2160.00" xml:space="preserve">
	<rect x="0" y="0.000488281" fill="#030409" fill-opacity="1" fill-rule="evenodd" stroke-linejoin="round" stroke="#000000" stroke-opacity="1" width="3840" height="2160"/>
	<line fill="none" stroke-width="6" stroke-linejoin="round" stroke="#1B56E3" stroke-opacity="0.403922" x1="2528" y1="0" x2="2528" y2="2160"/>
	<line fill="none" stroke-width="6" stroke-linejoin="round" stroke="#1B56E3" stroke-opacity="0.403922" x1="-9.6639e-005" y1="576" x2="3840" y2="576"/>
	<path fill="none" stroke-width="40" stroke-linejoin="round" stroke="#05408F" stroke-opacity="0.803922" d="M 1376,2592C 1376,2592 1009.18,1871.7 704,1472C 456.649,1148.04 65.1908,730.79 -82.0773,600.429"/>
	<g>
		<path fill="#DCFF85" fill-opacity="1" stroke-width="0.2" stroke-linejoin="round" d="M 3006.78,1130.44L 3006.78,1109.86L 2989.9,1109.86L 2989.9,1130.44L 2980.01,1130.44L 2980.01,1076.11L 2989.9,1076.11L 2989.77,1096.45L 3004.37,1076.11L 3016.67,1076.11L 3002.08,1095.87L 3016.67,1095.87L 3016.67,1130.44L 3006.78,1130.44 Z "/>
		<path fill="#DCFF85" fill-opacity="1" stroke-width="0.2" stroke-linejoin="round" d="M 3053.34,1116.45L 3053.34,1076.11L 3063.24,1076.11L 3063.24,1130.44L 3037.26,1130.44L 3024.82,1112.91L 3024.82,1076.11L 3034.72,1076.11L 3034.72,1106.92L 3041.28,1116.45L 3053.34,1116.45 Z "/>
		<path fill="#DCFF85" fill-opacity="1" stroke-width="0.2" stroke-linejoin="round" d="M 3068.24,1124.7L 3087.04,1076.11L 3110.96,1076.11L 3110.96,1130.44L 3090.76,1130.44L 3090.76,1116.45L 3101.07,1116.45L 3101.07,1090.1L 3092.68,1090.1L 3076.68,1131.26L 3068.24,1124.7 Z "/>
		<path fill="#DCFF85" fill-opacity="1" stroke-width="0.2" stroke-linejoin="round" d="M 3134.82,1089.28L 3134.82,1116.45L 3149.73,1116.45L 3149.73,1130.44L 3125.51,1130.44L 3125.51,1089.28L 3119.05,1089.28L 3119.05,1076.11L 3155.14,1076.11L 3155.14,1089.28L 3134.82,1089.28 Z "/>
	</g>
	<g>
		<path fill="#DCFF85" fill-opacity="1" stroke-width="0.2" stroke-linejoin="round" d="M 3037.98,1150.21C 3038.48,1150.47 3038.87,1150.91 3039.15,1151.55L 3039.15,1195.22C 3038.93,1195.99 3038.46,1196.52 3037.73,1196.81L 2978.62,1196.81L 2978.62,1186.05L 3029.59,1186.05L 3029.59,1160.91L 2978.62,1160.91L 2978.62,1150.21L 3037.98,1150.21 Z "/>
		<path fill="#DCFF85" fill-opacity="1" stroke-width="0.2" stroke-linejoin="round" d="M 3100.36,1150.16L 3102.38,1152.46L 3102.38,1194.41L 3100.19,1196.81L 3044.28,1196.81L 3044.28,1150.16L 3053.93,1150.16L 3053.93,1186.73L 3092.73,1186.73L 3092.73,1160.91L 3080.21,1160.91L 3074.33,1169.79L 3061.82,1169.79L 3075,1150.16L 3100.36,1150.16 Z "/>
		<path fill="#DCFF85" fill-opacity="1" stroke-width="0.2" stroke-linejoin="round" d="M 3106.49,1150.16L 3115.82,1150.16L 3115.82,1159.33L 3141.01,1159.33L 3153.85,1150.16L 3172.65,1150.16L 3141.01,1170.13L 3106.49,1170.13L 3106.49,1150.16 Z M 3106.49,1176.85L 3142,1176.85L 3173.07,1196.81L 3155.53,1196.81L 3140.32,1187.64L 3115.65,1187.64L 3115.65,1196.81L 3106.49,1196.81L 3106.49,1176.85 Z "/>
		<path fill="#DCFF85" fill-opacity="1" stroke-width="0.2" stroke-linejoin="round" d="M 3213.88,1150.16L 3213.88,1187.93L 3216.57,1187.93L 3230.75,1171.81L 3243.18,1171.81L 3220.77,1196.81L 3199.02,1196.81L 3176.52,1171.66L 3188.94,1171.66L 3203.22,1187.79L 3205.81,1187.79L 3205.81,1150.16L 3213.88,1150.16 Z "/>
	</g>
	<path fill="#267FF8" fill-opacity="1" stroke-width="0.2" stroke-linejoin="round" stroke="#267FF8" stroke-opacity="1" d="M 462.452,1728C 489.816,1728 512,1749.49 512,1776C 512,1802.51 489.816,1824 462.452,1824C 435.087,1824 412.903,1802.51 412.903,1776C 412.903,1749.49 435.087,1728 462.452,1728 Z "/>
	<path fill="none" stroke-width="40" stroke-linejoin="round" stroke="#1C79D4" stroke-opacity="0.803922" d="M 3532.56,-237.32C 3532.56,-237.32 2400.72,1160.95 1980.08,2712.11"/>
	<ellipse fill="#160B12" fill-opacity="1" stroke-width="24" stroke-linejoin="round" stroke="#DCFF85" stroke-opacity="1" cx="2507.44" cy="1406.35" rx="400.566" ry="415.357"/>
	<path fill="none" stroke-width="40" stroke-linejoin="round" stroke="#012988" stroke-opacity="1" d="M 4064,2016C 4064,2016 3707.43,284.951 2400,-256.001"/>
	<line fill="none" stroke-width="6" stroke-linejoin="round" stroke="#1B56E3" stroke-opacity="0.403922" x1="1216" y1="0" x2="1216" y2="2160"/>
	<line fill="none" stroke-width="6" stroke-linejoin="round" stroke="#1B56E3" stroke-opacity="0.403922" x1="0.000228882" y1="1472" x2="3840" y2="1472"/>
	<ellipse fill="none" stroke-width="16" stroke-linejoin="round" stroke="#A7C45F" stroke-opacity="1" cx="2507.45" cy="1406.36" rx="456.011" ry="472.85"/>
	<path fill="none" stroke-width="24" stroke-linejoin="round" stroke="#DCFF85" stroke-opacity="1" d="M 2432,-128C 2432,-128 992,576 1728,2784"/>
	<g>
		<path fill="#030409" fill-opacity="1" stroke-width="16" stroke-linejoin="round" stroke="#DCFF85" stroke-opacity="1" d="M 1634.36,1590.6L 1635.77,1561.06L 1645.6,1355.24L 1410.24,1344L 1399,1579.36L 1609.76,1589.42L 1634.36,1590.6 Z "/>
		<path fill="#030409" fill-opacity="1" stroke-width="16" stroke-linejoin="round" stroke="#DCFF85" stroke-opacity="1" d="M 1606.23,1557.91L 1614.4,1386.74L 1439.94,1378.41L 1431.76,1549.58L 1606.23,1557.91 Z "/>
		<path fill="#DCFF85" fill-opacity="1" stroke-width="6" stroke-linejoin="round" stroke="#DCFF85" stroke-opacity="1" d="M 1443.07,1380.13L 1467.76,1381.3L 1441.66,1409.75L 1443.07,1380.13 Z "/>
		<path fill="#DCFF85" fill-opacity="1" stroke-width="16" stroke-linejoin="round" stroke="#DCFF85" stroke-opacity="1" d="M 1521.19,1520.24L 1560.84,1421.84L 1524.68,1443.87L 1489.46,1418.21L 1521.19,1520.24 Z "/>
		<path fill="#DCFF85" fill-opacity="1" stroke-width="6" stroke-linejoin="round" stroke="#DCFF85" stroke-opacity="1" d="M 1606.23,1557.91L 1581.54,1556.73L 1607.64,1528.29L 1606.23,1557.91 Z "/>
	</g>
	<path fill="#160B12" fill-opacity="1" stroke-width="18" stroke-linejoin="round" stroke="#DCFF85" stroke-opacity="1" d="M 2400,1056C 2400,1056 2368,1056 2368,1088C 2368,1120 2400,1120 2336,1152C 2272,1184 2272,1120 2240,1152C 2208,1184 2176,1152 2208,1216C 2240,1280 2272,1312 2240,1344C 2208,1376 2208,1408 2240,1408C 2272,1408 2304,1344 2304,1408C 2304,1472 2336,1504 2400,1504C 2464,1504 2528,1440 2560,1440C 2592,1440 2752,1472 2720,1408C 2688,1344 2752,1184 2656,1184C 2560,1184 2592,1024 2528,1056C 2464,1088 2432,1088 2432,1088L 2400,1056 Z "/>
	<path fill="#160B12" fill-opacity="1" stroke-width="18" stroke-linejoin="round" stroke="#A7C45F" stroke-opacity="1" d="M 2368,1184C 2368,1184 2400,1216 2336,1216C 2272,1216 2272,1216 2304,1248C 2336,1280 2272,1344 2304,1344C 2336,1344 2368,1376 2400,1344C 2432,1312 2592,1184 2560,1152C 2528,1120 2496,1120 2464,1120C 2432,1120 2400,1152 2400,1152L 2368,1184 Z "/>
	<path fill="#160B12" fill-opacity="1" stroke-width="18" stroke-linejoin="round" stroke="#A7C45F" stroke-opacity="1" d="M 2592,1216L 2432,1376C 2432,1376 2400,1408 2368,1408C 2336,1408 2336,1440 2336,1440C 2336,1440 2368,1472 2432,1440C 2496,1408 2528,1408 2560,1408C 2592,1408 2656,1440 2656,1408C 2656,1376 2688,1312 2688,1280C 2688,1248 2688,1216 2656,1216L 2592,1216 Z "/>
	<path fill="none" stroke-width="18" stroke-linejoin="round" stroke="#DCFF85" stroke-opacity="1" d="M 2112,1504C 2112,1504 2208,1504 2240,1472C 2272,1440 2304,1504 2304,1504C 2304,1504 2368,1600 2432,1568C 2496,1536 2592,1536 2592,1504C 2592,1472 2688,1472 2688,1472C 2688,1472 2752,1632 2784,1632C 2816,1632 2752,1440 2752,1440C 2752,1440 2784,1472 2784,1408C 2784,1344 2816,1280 2784,1216C 2752,1152 2688,1152 2656,1120C 2624,1088 2592,1024 2592,1024L 2528,992"/>
	<path fill="none" stroke-width="18" stroke-linejoin="round" stroke="#A7C45F" stroke-opacity="1" d="M 2173.97,1597.21C 2173.97,1597.21 2272,1664 2432,1632C 2592,1600 2592,1568 2656,1600C 2720,1632 2784,1696 2752,1696C 2720,1696 2624,1728 2528,1728C 2432,1728 2304,1696 2304,1728L 2293.76,1742.54"/>
</svg>
