<?xml version="1.0" encoding="utf-8"?>
<!DOCTYPE svg PUBLIC "-//W3C//DTD SVG 1.1//EN" "http://www.w3.org/Graphics/SVG/1.1/DTD/svg11.dtd">
<svg xmlns="http://www.w3.org/2000/svg" xmlns:xlink="http://www.w3.org/1999/xlink" version="1.1" baseProfile="full" width="3840" height="2160" viewBox="0 0 3840.00 2160.00" enable-background="new 0 0 3840.00 2160.00" xml:space="preserve">
	<image x="0" y="0" width="1638" height="890" transform="matrix(1.00,0.00,0.00,1.00,1101.50,50.50)" xlink:href="AdinaxSmall_files/image0.png"/>
	<rect x="0" y="0" fill="#030409" fill-opacity="1" fill-rule="evenodd" stroke-linejoin="round" stroke="#000000" stroke-opacity="1" width="3840" height="2160"/>
	<line fill="none" stroke-width="6" stroke-linejoin="round" stroke="#1B56E3" stroke-opacity="0.403922" x1="544.001" y1="-0.000244141" x2="544.001" y2="2160"/>
	<line fill="none" stroke-width="6" stroke-linejoin="round" stroke="#1B56E3" stroke-opacity="0.403922" x1="-9.6639e-005" y1="896" x2="3840" y2="896"/>
	<g>
		<path fill="#DCFF85" fill-opacity="1" stroke-width="0.2" stroke-linejoin="round" d="M 1559.99,690.535L 1559.99,658.025L 1567.09,658.025L 1567.09,682.161L 1585.41,682.161L 1585.41,690.535L 1559.99,690.535 Z "/>
		<path fill="#DCFF85" fill-opacity="1" stroke-width="0.2" stroke-linejoin="round" d="M 1591.3,690.535L 1591.3,658.025L 1598.4,658.025L 1598.4,682.161L 1616.72,682.161L 1616.72,690.535L 1591.3,690.535 Z "/>
		<path fill="#DCFF85" fill-opacity="1" stroke-width="0.2" stroke-linejoin="round" d="M 1620.36,687.103L 1633.85,658.025L 1651,658.025L 1651,690.535L 1636.52,690.535L 1636.52,682.161L 1643.91,682.161L 1643.91,666.399L 1637.89,666.399L 1626.41,691.028L 1620.36,687.103 Z "/>
		<path fill="#DCFF85" fill-opacity="1" stroke-width="0.2" stroke-linejoin="round" d="M 1676.05,690.535L 1676.05,678.221L 1663.95,678.221L 1663.95,690.535L 1656.85,690.535L 1656.85,658.025L 1663.95,658.025L 1663.95,669.847L 1676.05,669.847L 1676.05,658.025L 1683.15,658.025L 1683.15,690.535L 1676.05,690.535 Z "/>
		<rect x="1689" y="658.025" fill="#DCFF85" fill-opacity="1" stroke-width="0.2" stroke-linejoin="round" width="7.09729" height="16.2552"/>
		<rect x="1701.94" y="658.025" fill="#DCFF85" fill-opacity="1" stroke-width="0.2" stroke-linejoin="round" width="7.09729" height="32.5103"/>
		<path fill="#DCFF85" fill-opacity="1" stroke-width="0.2" stroke-linejoin="round" d="M 1742.43,665.906L 1721.98,665.906L 1721.98,670.339L 1742.43,670.339L 1742.43,690.535L 1714.88,690.535L 1714.88,682.161L 1735.34,682.161L 1735.34,678.713L 1714.88,678.713L 1714.88,658.025L 1742.43,658.025L 1742.43,665.906 Z "/>
	</g>
	<g>
		<path fill="#DCFF85" fill-opacity="1" stroke-width="0.2" stroke-linejoin="round" d="M 1588.58,709.324L 1588.58,737.578L 1579.86,737.578L 1558.93,725.634L 1562.8,720.342L 1581.92,731.129L 1581.92,709.324L 1588.58,709.324 Z "/>
		<path fill="#DCFF85" fill-opacity="1" stroke-width="0.2" stroke-linejoin="round" d="M 1622.46,709.324L 1622.46,737.578L 1613.75,737.578L 1592.81,725.634L 1596.68,720.342L 1615.81,731.129L 1615.81,709.324L 1622.46,709.324 Z "/>
		<path fill="#DCFF85" fill-opacity="1" stroke-width="0.2" stroke-linejoin="round" d="M 1626.33,709.437L 1633.05,709.437L 1633.05,714.964L 1651.2,714.964L 1660.46,709.437L 1674.01,709.437L 1651.2,721.471L 1626.33,721.471L 1626.33,709.437 Z M 1626.33,725.521L 1651.92,725.521L 1674.31,737.551L 1661.67,737.551L 1650.71,732.028L 1632.93,732.028L 1632.93,737.551L 1626.33,737.551L 1626.33,725.521 Z "/>
		<path fill="#DCFF85" fill-opacity="1" stroke-width="0.2" stroke-linejoin="round" d="M 1724.42,709.351L 1724.42,715.831L 1677.58,715.831L 1677.58,709.351L 1724.42,709.351 Z M 1685.57,720.17L 1716.36,720.17L 1716.36,726.646L 1685.57,726.646L 1685.57,720.17 Z M 1677.58,731.043L 1724.42,731.043L 1724.42,737.551L 1677.58,737.551L 1677.58,731.043 Z "/>
		<path fill="#DCFF85" fill-opacity="1" stroke-width="0.2" stroke-linejoin="round" d="M 1739.12,706.169L 1743.17,708.745L 1737.06,708.745L 1737.06,726.415L 1729.56,720.256L 1729.56,706.169L 1739.12,706.169 Z "/>
		<path fill="#DCFF85" fill-opacity="1" stroke-width="0.2" stroke-linejoin="round" d="M 1763.38,709.351L 1763.38,737.551L 1757.39,737.551L 1757.39,716.437L 1750.97,722.104L 1746.31,717.942C 1746.28,717.788 1746.36,717.633 1746.56,717.476L 1755.58,709.351L 1763.38,709.351 Z "/>
		<path fill="#DCFF85" fill-opacity="1" stroke-width="0.2" stroke-linejoin="round" d="M 1780.99,709.437L 1804.65,730.871L 1804.65,709.437L 1811.3,709.437L 1811.3,737.551L 1802.17,737.551L 1771.01,709.437L 1780.99,709.437 Z M 1768.47,724.188L 1792.6,732.114L 1790.48,737.551L 1766.22,729.769L 1768.47,724.188 Z "/>
	</g>
	<g>
		<path fill="#030409" fill-opacity="1" stroke-width="16" stroke-linejoin="round" stroke="#DCFF85" stroke-opacity="1" d="M 2031.99,1283.34L 1999.86,1281.55L 1775.94,1269.14L 1761.57,1522.79L 2017.62,1536.98L 2030.49,1309.85L 2031.99,1283.34 Z "/>
		<path fill="#030409" fill-opacity="1" stroke-width="16" stroke-linejoin="round" stroke="#DCFF85" stroke-opacity="1" d="M 1996.16,1313.38L 1809.94,1303.05L 1799.29,1491.07L 1985.51,1501.39L 1996.16,1313.38 Z "/>
		<path fill="#DCFF85" fill-opacity="1" stroke-width="6" stroke-linejoin="round" stroke="#DCFF85" stroke-opacity="1" d="M 1801.18,1487.71L 1802.69,1461.1L 1833.41,1489.49L 1801.18,1487.71 Z "/>
		<path fill="#DCFF85" fill-opacity="1" stroke-width="16" stroke-linejoin="round" stroke="#DCFF85" stroke-opacity="1" d="M 1954.38,1404.72L 1847.65,1361.11L 1871.3,1400.29L 1843.05,1438.03L 1954.38,1404.72 Z "/>
		<path fill="#DCFF85" fill-opacity="1" stroke-width="6" stroke-linejoin="round" stroke="#DCFF85" stroke-opacity="1" d="M 1996.16,1313.38L 1994.65,1339.98L 1963.93,1311.59L 1996.16,1313.38 Z "/>
	</g>
	<line fill="none" stroke-width="6" stroke-linejoin="round" stroke="#1B56E3" stroke-opacity="0.403922" x1="1504" y1="-0.000244141" x2="1504" y2="2160"/>
	<line fill="none" stroke-width="6" stroke-linejoin="round" stroke="#1B56E3" stroke-opacity="0.403922" x1="2464" y1="31.9998" x2="2464" y2="2192"/>
	<line fill="none" stroke-width="6" stroke-linejoin="round" stroke="#1B56E3" stroke-opacity="0.403922" x1="3424" y1="-0.000244141" x2="3424" y2="2160"/>
	<line fill="none" stroke-width="6" stroke-linejoin="round" stroke="#1B56E3" stroke-opacity="0.403922" x1="-9.6639e-005" y1="1888" x2="3840" y2="1888"/>
	<g>
		<path fill="#DCFF85" fill-opacity="1" stroke-width="0.2" stroke-linejoin="round" d="M 3016.4,1837.68L 3010.56,1844.31L 3021.22,1844.31L 3021.22,1865L 2994.92,1865L 2994.92,1832.49L 3016.4,1832.49L 3016.4,1837.68 Z M 3002.02,1856.63L 3014.13,1856.63L 3014.13,1852.69L 3002.02,1852.69L 3002.02,1856.63 Z M 3006.01,1839.88L 3002.02,1839.88L 3001.96,1844.66L 3006.01,1839.88 Z "/>
		<path fill="#DCFF85" fill-opacity="1" stroke-width="0.2" stroke-linejoin="round" d="M 3046.27,1865L 3046.27,1852.69L 3034.17,1852.69L 3034.17,1865L 3027.07,1865L 3027.07,1832.49L 3034.17,1832.49L 3034.17,1844.31L 3046.27,1844.31L 3046.27,1832.49L 3053.37,1832.49L 3053.37,1865L 3046.27,1865 Z "/>
		<path fill="#DCFF85" fill-opacity="1" stroke-width="0.2" stroke-linejoin="round" d="M 3056.96,1861.57L 3070.45,1832.49L 3087.61,1832.49L 3087.61,1865L 3073.12,1865L 3073.12,1856.63L 3080.51,1856.63L 3080.51,1840.86L 3074.49,1840.86L 3063.01,1865.49L 3056.96,1861.57 Z "/>
		<path fill="#DCFF85" fill-opacity="1" stroke-width="0.2" stroke-linejoin="round" d="M 3118.5,1865L 3118.5,1832.49L 3111.82,1832.49L 3111.82,1856.63L 3093.41,1856.63L 3093.41,1865L 3118.5,1865 Z "/>
		<path fill="#DCFF85" fill-opacity="1" stroke-width="0.2" stroke-linejoin="round" d="M 3143.55,1865L 3143.55,1852.69L 3131.44,1852.69L 3131.44,1865L 3124.34,1865L 3124.34,1832.49L 3131.44,1832.49L 3131.44,1844.31L 3143.55,1844.31L 3143.55,1832.49L 3150.65,1832.49L 3150.65,1865L 3143.55,1865 Z "/>
		<path fill="#DCFF85" fill-opacity="1" stroke-width="0.2" stroke-linejoin="round" d="M 3154.23,1861.57L 3167.72,1832.49L 3184.88,1832.49L 3184.88,1865L 3170.39,1865L 3170.39,1856.63L 3177.78,1856.63L 3177.78,1840.86L 3171.77,1840.86L 3160.29,1865.49L 3154.23,1861.57 Z "/>
		<path fill="#DCFF85" fill-opacity="1" stroke-width="0.2" stroke-linejoin="round" d="M 3190.73,1865L 3190.73,1832.49L 3217.03,1832.49L 3217.03,1852.69L 3206.56,1852.69L 3217.03,1865L 3208.25,1865L 3197.82,1852.79L 3197.82,1865L 3190.73,1865 Z M 3209.93,1840.86L 3197.82,1840.86L 3197.82,1844.31L 3209.93,1844.31L 3209.93,1840.86 Z "/>
		<path fill="#DCFF85" fill-opacity="1" stroke-width="0.2" stroke-linejoin="round" d="M 3234.15,1840.37L 3234.15,1856.63L 3244.84,1856.63L 3244.84,1865L 3227.47,1865L 3227.47,1840.37L 3222.83,1840.37L 3222.83,1832.49L 3248.72,1832.49L 3248.72,1840.37L 3234.15,1840.37 Z "/>
	</g>
	<g>
		<path fill="#DCFF85" fill-opacity="1" stroke-width="0.2" stroke-linejoin="round" d="M 3001.29,1878.09L 3030.45,1878.09L 3038.98,1887.2L 3038.98,1888.67L 3031.48,1888.67L 3028.03,1884.37L 3003.83,1884.37L 3000.2,1888.67L 2992.69,1888.67L 2992.69,1887.2L 3001.29,1878.09 Z M 3006.49,1888.59L 3025.97,1888.59L 3025.97,1895.3L 3006.49,1895.3L 3006.49,1888.59 Z M 2992.64,1896.08L 3000.13,1896.08L 3003.71,1899.81L 3027.97,1899.81L 3031.42,1896.14L 3038.92,1896.14L 3038.92,1897.44L 3030.39,1906.03L 3001.16,1906.03L 2992.64,1897.44L 2992.64,1896.08 Z "/>
		<path fill="#DCFF85" fill-opacity="1" stroke-width="0.2" stroke-linejoin="round" d="M 3088.96,1877.8L 3088.96,1884.28L 3042.13,1884.28L 3042.13,1877.8L 3088.96,1877.8 Z M 3050.12,1888.62L 3080.91,1888.62L 3080.91,1895.1L 3050.12,1895.1L 3050.12,1888.62 Z M 3042.13,1899.49L 3088.96,1899.49L 3088.96,1906L 3042.13,1906L 3042.13,1899.49 Z "/>
		<path fill="#DCFF85" fill-opacity="1" stroke-width="0.2" stroke-linejoin="round" d="M 3092.53,1877.89L 3099.25,1877.89L 3099.25,1883.41L 3117.4,1883.41L 3126.66,1877.89L 3140.21,1877.89L 3117.4,1889.92L 3092.53,1889.92L 3092.53,1877.89 Z M 3092.53,1893.97L 3118.12,1893.97L 3140.51,1906L 3127.87,1906L 3116.91,1900.48L 3099.13,1900.48L 3099.13,1906L 3092.53,1906L 3092.53,1893.97 Z "/>
		<path fill="#DCFF85" fill-opacity="1" stroke-width="0.2" stroke-linejoin="round" d="M 3186.44,1877.92L 3172.1,1906L 3144.21,1906L 3144.21,1899.66L 3167.93,1899.66L 3172.1,1890.87C 3169.96,1892.05 3167.99,1892.85 3166.2,1893.27C 3164.4,1893.7 3162.33,1894.07 3159.99,1894.39C 3157.66,1894.71 3153.87,1894.9 3148.62,1894.98L 3144.33,1894.98L 3144.33,1888.65L 3148.74,1888.65C 3153.91,1888.34 3157.22,1888.09 3158.69,1887.9C 3160.17,1887.7 3162.17,1887.25 3164.71,1886.54C 3167.82,1885.45 3170.36,1884.42 3172.34,1883.44C 3174.31,1882.46 3176.53,1880.61 3179,1877.89L 3186.44,1877.92 Z "/>
		<path fill="#DCFF85" fill-opacity="1" stroke-width="0.2" stroke-linejoin="round" d="M 3236,1877.8L 3236,1884.28L 3189.16,1884.28L 3189.16,1877.8L 3236,1877.8 Z M 3197.15,1888.62L 3227.94,1888.62L 3227.94,1895.1L 3197.15,1895.1L 3197.15,1888.62 Z M 3189.16,1899.49L 3236,1899.49L 3236,1906L 3189.16,1906L 3189.16,1899.49 Z "/>
		<path fill="#DCFF85" fill-opacity="1" stroke-width="0.2" stroke-linejoin="round" d="M 3239.56,1877.89L 3246.28,1877.89L 3246.28,1883.41L 3264.44,1883.41L 3273.69,1877.89L 3287.24,1877.89L 3264.44,1889.92L 3239.56,1889.92L 3239.56,1877.89 Z M 3239.56,1893.97L 3265.15,1893.97L 3287.54,1906L 3274.9,1906L 3263.94,1900.48L 3246.16,1900.48L 3246.16,1906L 3239.56,1906L 3239.56,1893.97 Z "/>
		<path fill="#DCFF85" fill-opacity="1" stroke-width="0.2" stroke-linejoin="round" d="M 3328.69,1877.89L 3303.4,1906L 3294.69,1906L 3313.2,1885.18L 3313.2,1884.68L 3290.99,1884.68L 3296.38,1877.89L 3328.69,1877.89 Z "/>
		<path fill="#DCFF85" fill-opacity="1" stroke-width="0.2" stroke-linejoin="round" d="M 3357.49,1877.89L 3357.49,1900.65L 3359.43,1900.65L 3369.65,1890.93L 3378.61,1890.93L 3362.46,1906L 3346.78,1906L 3330.57,1890.84L 3339.52,1890.84L 3349.81,1900.56L 3351.68,1900.56L 3351.68,1877.89L 3357.49,1877.89 Z "/>
	</g>
	<path fill="none" stroke-width="18" stroke-linejoin="round" stroke="#DCFF85" stroke-opacity="1" d="M -32,1088C -32,1088 679,1433 1767,1401"/>
	<path fill="none" stroke-width="18" stroke-linejoin="round" stroke="#DCFF85" stroke-opacity="1" d="M 3904,1620C 3904,1620 3329.51,1436.18 2453,1418C 2404.17,1416.99 2072.66,1408 2022,1408"/>
	<ellipse fill="#030409" fill-opacity="1" stroke-width="13" stroke-linejoin="round" stroke="#DCFF85" stroke-opacity="1" cx="2825.35" cy="1863.5" rx="124.655" ry="120.5"/>
	<path fill="none" stroke-width="5" stroke-linejoin="round" stroke="#DCFF85" stroke-opacity="1" d="M 2890,1767C 2890,1767 2888,1779 2880,1780C 2872,1781 2862,1782 2868,1789C 2874,1796 2892,1798 2888,1809C 2884,1820 2881,1834 2887,1839C 2893,1844 2898,1851 2909,1849C 2920,1847 2938,1834 2941,1829"/>
	<path fill="none" stroke-width="5" stroke-linejoin="round" stroke="#AFB587" stroke-opacity="1" d="M 2790,1751C 2790,1751 2798,1787 2789,1792C 2780,1797 2772,1782 2770,1782C 2768,1782 2742,1791 2749,1801C 2756,1811 2771,1799 2769,1814C 2767,1829 2752,1850 2752,1850C 2752,1850 2758,1861 2761,1867C 2764,1873 2760,1879 2756,1888C 2752,1897 2740,1902 2752,1905C 2764,1908 2775,1902 2793,1911C 2811,1920 2824,1934 2843,1925C 2862,1916 2854,1927 2870,1898C 2886,1869 2885,1865 2893,1862C 2901,1859 2926,1860 2929,1856C 2932,1852 2947,1845 2947,1845"/>
	<path fill="none" stroke-width="5" stroke-linejoin="round" stroke="#DCFF85" stroke-opacity="1" d="M 2725.27,1799.5C 2725.27,1799.5 2751.35,1818.81 2745.81,1829.55C 2740.28,1840.29 2730.75,1850.83 2727.75,1850.69C 2724.76,1850.54 2721.81,1849.39 2721.81,1849.39"/>
	<path fill="none" stroke-width="5" stroke-linejoin="round" stroke="#DCFF85" stroke-opacity="1" d="M 2725,1837L 2726,1836L 2709,1841L 2707,1841"/>
	<path fill="none" stroke-width="5" stroke-linejoin="round" stroke="#DCFF85" stroke-opacity="1" d="M 2705,1864C 2705,1864 2710,1872 2715,1870C 2720,1868 2729,1862 2735,1864C 2741,1866 2752,1868 2749,1874C 2746,1880 2738,1894 2737,1904C 2736,1914 2739,1921 2750,1924C 2761,1927 2782,1925 2784,1930C 2786,1935 2784,1964 2792,1964C 2800,1964 2821,1949 2827,1944C 2833,1939 2856,1941 2857,1941C 2858,1941 2881,1930 2889,1909C 2897,1888 2903,1882 2912,1881C 2921,1880 2944,1891 2944,1891"/>
	<path fill="none" stroke-width="5" stroke-linejoin="round" stroke="#DCFF85" stroke-opacity="1" d="M 2710,1897C 2710,1897 2723,1873 2727,1874C 2731,1875 2727,1893 2727,1904C 2727,1915 2722,1923 2727,1925C 2732,1927 2728,1940 2744,1940C 2760,1940 2770,1941 2769,1952C 2768,1963 2770,1968 2770,1968"/>
	<path fill="none" stroke-width="5" stroke-linejoin="round" stroke="#DCFF85" stroke-opacity="1" d="M 2811,1979C 2811,1979 2823,1970 2834,1971C 2845,1972 2858,1975 2858,1975C 2858,1975 2873,1975 2874,1971C 2875,1967 2883,1952 2883,1952C 2883,1952 2889,1948 2888,1942C 2887,1936 2880,1944 2890,1932C 2900,1920 2912,1911 2912,1911L 2917,1902C 2917,1902 2921,1898 2922,1905C 2923,1912 2916,1926 2916,1926L 2912,1938L 2916,1945"/>
	<path fill="none" stroke-width="5" stroke-linejoin="round" stroke="#DCFF85" stroke-opacity="1" d="M 2816,1792C 2816,1792 2809,1793 2807,1813C 2805,1833 2805,1836 2801,1842C 2797,1848 2795,1852 2799,1859C 2803,1866 2804,1872 2810,1876C 2816,1880 2822,1881 2827,1879C 2832,1877 2836,1874 2842,1881C 2848,1888 2849,1888 2854,1888C 2859,1888 2864,1889 2862,1882C 2860,1875 2863,1879 2848,1869C 2833,1859 2826,1870 2826,1852C 2826,1834 2834,1834 2830,1829C 2826,1824 2817,1829 2823,1818C 2829,1807 2832,1806 2829,1799C 2826,1792 2828,1785 2822,1787C 2816,1789 2816,1792 2816,1792 Z "/>
	<ellipse fill="none" stroke-width="13" stroke-linejoin="round" stroke="#DCFF85" stroke-opacity="1" cx="2825.35" cy="1863.5" rx="124.655" ry="120.5"/>
	<ellipse fill="#030409" fill-opacity="1" stroke-width="13" stroke-linejoin="round" stroke="#DCFF85" stroke-opacity="1" cx="1394.66" cy="699.5" rx="124.654" ry="120.5"/>
	<path fill="none" stroke-width="5" stroke-linejoin="round" stroke="#DCFF85" stroke-opacity="1" d="M 1272,693C 1272,693 1297,679 1330,681C 1363,683 1394,692 1408,682C 1422,672 1431,675 1430,650C 1429,625 1427,584 1427,584"/>
	<path fill="none" stroke-width="5" stroke-linejoin="round" stroke="#DCFF85" stroke-opacity="1" d="M 1280,736C 1280,736 1324,704 1334,704C 1344,704 1392,707 1400,704C 1408,701 1437,684 1440,675C 1443,666 1433,589 1434,589"/>
	<path fill="none" stroke-width="5" stroke-linejoin="round" stroke="#DCFF85" stroke-opacity="1" d="M 1371.86,594.814C 1371.86,594.814 1351.86,602.814 1352.86,605.814C 1353.86,608.814 1357.86,617.814 1352.86,622.814C 1347.86,627.814 1336.86,637.814 1343.86,640.814C 1350.86,643.814 1363.86,650.814 1369.86,640.814C 1375.86,630.814 1384.86,628.814 1389.86,625.814C 1394.86,622.814 1400.86,619.814 1398.86,608.814C 1396.86,597.814 1398.86,592.814 1395.86,591.814C 1392.86,590.814 1371.86,594.814 1371.86,594.814 Z "/>
	<path fill="none" stroke-width="5" stroke-linejoin="round" stroke="#DCFF85" stroke-opacity="1" d="M 1491,648L 1480,640L 1472,677C 1472,677 1471,682 1467,684C 1463,686 1458,683 1455,683C 1452,683 1444,686 1443,692C 1442,698 1444,704 1437,704C 1430,704 1427,704 1423,709C 1419,714 1403,724 1401,724C 1399,724 1387,716 1386,721C 1385,726 1395,753 1399,752C 1403,751 1412,741 1416,736C 1420,731 1424,725 1425,727C 1426,729 1417,758 1424,753C 1431,748 1440,734 1451,736C 1462,738 1466,742 1469,736C 1472,730 1475,725 1476,724C 1477,723 1489,715 1489,715C 1489,715 1497,654 1491,648 Z "/>
	<path fill="none" stroke-width="5" stroke-linejoin="round" stroke="#DCFF85" stroke-opacity="1" d="M 1296,765C 1296,765 1332,754 1363,777C 1394,800 1398,796 1403,796C 1408,796 1436,793 1440,800C 1444,807 1450,807 1450,807"/>
	<path fill="none" stroke-width="5" stroke-linejoin="round" stroke="#DCFF85" stroke-opacity="1" d="M 1461,800C 1461,800 1430,778 1433,768C 1436,758 1437,755 1446,752C 1455,749 1472,754 1472,754C 1472,754 1481,744 1484,740C 1487,736 1508,717 1513,722"/>
</svg>
