<?xml version="1.0" encoding="utf-8"?>
<!DOCTYPE svg PUBLIC "-//W3C//DTD SVG 1.1//EN" "http://www.w3.org/Graphics/SVG/1.1/DTD/svg11.dtd">
<svg xmlns="http://www.w3.org/2000/svg" xmlns:xlink="http://www.w3.org/1999/xlink" version="1.1" baseProfile="full" width="3840" height="2160" viewBox="0 0 3840.00 2160.00" enable-background="new 0 0 3840.00 2160.00" xml:space="preserve">
	<rect x="0" y="0.000488281" fill="#030409" fill-opacity="1" fill-rule="evenodd" stroke-linejoin="round" stroke="#000000" stroke-opacity="1" width="3840" height="2160"/>
	<path fill="none" stroke-width="16" stroke-linejoin="round" stroke="#05408F" stroke-opacity="0.803922" d="M 2322.69,-40.5168C 2322.69,-40.5168 2345.07,892.381 2620.97,1337.31C 2844.6,1697.93 3413.06,2058.42 3551,2208"/>
	<line fill="none" stroke-width="2" stroke-linejoin="round" stroke="#1B56E3" stroke-opacity="0.603922" x1="280" y1="-0.000244141" x2="280" y2="2160"/>
	<path fill="none" stroke-width="19" stroke-linejoin="round" stroke="#1C79D4" stroke-opacity="0.803922" d="M 3946.76,2099.28C 3946.76,2099.28 3660.22,870.899 2956,-14"/>
	<line fill="none" stroke-width="2" stroke-linejoin="round" stroke="#1B56E3" stroke-opacity="0.603922" x1="568.001" y1="-0.000244141" x2="568.001" y2="2160"/>
	<line fill="none" stroke-width="2" stroke-linejoin="round" stroke="#1B56E3" stroke-opacity="0.603922" x1="856" y1="-0.000244141" x2="856" y2="2160"/>
	<line fill="none" stroke-width="2" stroke-linejoin="round" stroke="#1B56E3" stroke-opacity="0.603922" x1="1144" y1="-0.000244141" x2="1144" y2="2160"/>
	<line fill="none" stroke-width="2" stroke-linejoin="round" stroke="#1B56E3" stroke-opacity="0.603922" x1="1432" y1="-0.000244141" x2="1432" y2="2160"/>
	<line fill="none" stroke-width="2" stroke-linejoin="round" stroke="#1B56E3" stroke-opacity="0.603922" x1="1720" y1="-0.000244141" x2="1720" y2="2160"/>
	<line fill="none" stroke-width="2" stroke-linejoin="round" stroke="#1B56E3" stroke-opacity="0.603922" x1="2008" y1="-0.000244141" x2="2008" y2="2160"/>
	<line fill="none" stroke-width="2" stroke-linejoin="round" stroke="#1B56E3" stroke-opacity="0.603922" x1="2296" y1="-0.000244141" x2="2296" y2="2160"/>
	<line fill="none" stroke-width="2" stroke-linejoin="round" stroke="#1B56E3" stroke-opacity="0.603922" x1="2584" y1="-0.000244141" x2="2584" y2="2160"/>
	<line fill="none" stroke-width="2" stroke-linejoin="round" stroke="#1B56E3" stroke-opacity="0.603922" x1="2872" y1="-0.000244141" x2="2872" y2="2160"/>
	<line fill="none" stroke-width="2" stroke-linejoin="round" stroke="#1B56E3" stroke-opacity="0.603922" x1="3160" y1="-0.000244141" x2="3160" y2="2160"/>
	<line fill="none" stroke-width="2" stroke-linejoin="round" stroke="#1B56E3" stroke-opacity="0.603922" x1="3448" y1="-0.000244141" x2="3448" y2="2160"/>
	<line fill="none" stroke-width="2" stroke-linejoin="round" stroke="#1B56E3" stroke-opacity="0.603922" x1="3736" y1="-0.000244141" x2="3736" y2="2160"/>
	<line fill="none" stroke-width="2" stroke-linejoin="round" stroke="#1B56E3" stroke-opacity="0.603922" x1="3840" y1="256.001" x2="-1.27157e-006" y2="256.001"/>
	<line fill="none" stroke-width="2" stroke-linejoin="round" stroke="#1B56E3" stroke-opacity="0.603922" x1="3840" y1="544.001" x2="0.000179291" y2="544.001"/>
	<line fill="none" stroke-width="2" stroke-linejoin="round" stroke="#1B56E3" stroke-opacity="0.603922" x1="3840" y1="832" x2="3.43323e-005" y2="832"/>
	<line fill="none" stroke-width="2" stroke-linejoin="round" stroke="#1B56E3" stroke-opacity="0.603922" x1="3840" y1="1120" x2="8.13802e-005" y2="1120"/>
	<line fill="none" stroke-width="2" stroke-linejoin="round" stroke="#1B56E3" stroke-opacity="0.603922" x1="3840" y1="1408" x2="-4.06901e-005" y2="1408"/>
	<line fill="none" stroke-width="2" stroke-linejoin="round" stroke="#1B56E3" stroke-opacity="0.603922" x1="3840" y1="1696" x2="0.000813802" y2="1696"/>
	<line fill="none" stroke-width="2" stroke-linejoin="round" stroke="#1B56E3" stroke-opacity="0.603922" x1="3840" y1="1984" x2="0.000691732" y2="1984"/>
	<g>
		<path fill="#DCFF85" fill-opacity="1" stroke-width="0.2" stroke-linejoin="round" d="M 499.876,617.912L 491.523,627.16L 506.765,627.16L 506.765,656L 469.177,656L 469.177,610.68L 499.876,610.68L 499.876,617.912 Z M 479.319,644.327L 496.622,644.327L 496.622,638.833L 479.319,638.833L 479.319,644.327 Z M 485.015,620.98L 479.319,620.98L 479.236,627.643L 485.015,620.98 Z "/>
		<path fill="#DCFF85" fill-opacity="1" stroke-width="0.2" stroke-linejoin="round" d="M 511.892,651.215L 531.171,610.68L 555.69,610.68L 555.69,656L 534.984,656L 534.984,644.327L 545.547,644.327L 545.547,622.353L 536.951,622.353L 520.544,656.687L 511.892,651.215 Z "/>
		<path fill="#DCFF85" fill-opacity="1" stroke-width="0.2" stroke-linejoin="round" d="M 580.152,621.667L 580.152,644.327L 595.431,644.327L 595.431,656L 570.606,656L 570.606,621.667L 563.977,621.667L 563.977,610.68L 600.978,610.68L 600.978,621.667L 580.152,621.667 Z "/>
		<path fill="#DCFF85" fill-opacity="1" stroke-width="0.2" stroke-linejoin="round" d="M 639.219,644.327L 639.219,610.68L 649.362,610.68L 649.362,656L 622.737,656L 609.984,641.376L 609.984,610.68L 620.127,610.68L 620.127,636.376L 626.858,644.327L 639.219,644.327 Z "/>
		<path fill="#DCFF85" fill-opacity="1" stroke-width="0.2" stroke-linejoin="round" d="M 686.951,644.327L 686.951,610.68L 697.094,610.68L 697.094,656L 670.468,656L 657.715,641.376L 657.715,610.68L 667.858,610.68L 667.858,636.376L 674.589,644.327L 686.951,644.327 Z "/>
	</g>
	<g>
		<path fill="#DCFF85" fill-opacity="1" stroke-width="0.2" stroke-linejoin="round" d="M 375.579,676.697L 416.919,676.697L 429.006,691.811L 429.006,694.255L 418.38,694.255L 413.489,687.11L 379.184,687.11L 374.038,694.255L 363.399,694.255L 363.399,691.811L 375.579,676.697 Z M 382.95,694.113L 410.568,694.113L 410.568,705.246L 382.95,705.246L 382.95,694.113 Z M 363.318,706.543L 373.945,706.543L 379.01,712.729L 413.395,712.729L 418.286,706.641L 428.926,706.641L 428.926,708.8L 416.826,723.045L 375.405,723.045L 363.318,708.8L 363.318,706.543 Z "/>
		<path fill="#DCFF85" fill-opacity="1" stroke-width="0.2" stroke-linejoin="round" d="M 433.723,676.359L 443.251,676.359L 443.251,685.528L 468.979,685.528L 482.098,676.359L 501.301,676.359L 468.979,696.325L 433.723,696.325L 433.723,676.359 Z M 433.723,703.042L 469.998,703.042L 501.73,723L 483.813,723L 468.283,713.838L 443.077,713.838L 443.077,723L 433.723,723L 433.723,703.042 Z "/>
		<path fill="#DCFF85" fill-opacity="1" stroke-width="0.2" stroke-linejoin="round" d="M 543.418,676.359L 543.418,714.123L 546.165,714.123L 560.651,698.004L 573.341,698.004L 550.453,723L 528.235,723L 505.254,697.854L 517.944,697.854L 532.523,713.981L 535.177,713.981L 535.177,676.359L 543.418,676.359 Z "/>
		<path fill="#DCFF85" fill-opacity="1" stroke-width="0.2" stroke-linejoin="round" d="M 634.151,676.359L 636.215,678.661L 636.215,720.601L 633.977,723L 576.865,723L 576.865,676.359L 586.728,676.359L 586.728,712.924L 626.352,712.924L 626.352,687.11L 613.568,687.11L 607.565,695.987L 594.781,695.987L 608.248,676.359L 634.151,676.359 Z "/>
		<path fill="#DCFF85" fill-opacity="1" stroke-width="0.2" stroke-linejoin="round" d="M 697.615,676.359L 699.678,678.661L 699.678,720.601L 697.441,723L 640.329,723L 640.329,676.359L 650.191,676.359L 650.191,712.924L 689.816,712.924L 689.816,687.11L 677.032,687.11L 671.029,695.987L 658.245,695.987L 671.712,676.359L 697.615,676.359 Z "/>
	</g>
	<path fill="#378AFB" fill-opacity="1" stroke-width="0.2" stroke-linejoin="round" stroke="#4E9AFB" stroke-opacity="1" d="M 1058.03,1025C 1076.28,1025 1091.06,1039.33 1091.06,1057C 1091.06,1074.67 1076.28,1089 1058.03,1089C 1039.79,1089 1025,1074.67 1025,1057C 1025,1039.33 1039.79,1025 1058.03,1025 Z "/>
	<path fill="#378AFB" fill-opacity="1" stroke-width="0.2" stroke-linejoin="round" stroke="#4E9AFB" stroke-opacity="1" d="M 2294.97,375C 2313.21,375 2328,389.327 2328,407C 2328,424.673 2313.21,439 2294.97,439C 2276.72,439 2261.94,424.673 2261.94,407C 2261.94,389.327 2276.72,375 2294.97,375 Z "/>
	<path fill="#378AFB" fill-opacity="1" stroke-width="0.2" stroke-linejoin="round" stroke="#4E9AFB" stroke-opacity="1" d="M 2273.03,1216C 2291.28,1216 2306.06,1230.33 2306.06,1248C 2306.06,1265.67 2291.28,1280 2273.03,1280C 2254.79,1280 2240,1265.67 2240,1248C 2240,1230.33 2254.79,1216 2273.03,1216 Z "/>
	<path fill="#378AFB" fill-opacity="1" stroke-width="0.2" stroke-linejoin="round" stroke="#4E9AFB" stroke-opacity="1" d="M 2207.03,1408C 2225.28,1408 2240.06,1422.33 2240.06,1440C 2240.06,1457.67 2225.28,1472 2207.03,1472C 2188.79,1472 2174,1457.67 2174,1440C 2174,1422.33 2188.79,1408 2207.03,1408 Z "/>
	<path fill="#378AFB" fill-opacity="1" stroke-width="0.2" stroke-linejoin="round" stroke="#4E9AFB" stroke-opacity="1" d="M 2494.97,1672C 2513.21,1672 2528,1686.33 2528,1704C 2528,1721.67 2513.21,1736 2494.97,1736C 2476.72,1736 2461.94,1721.67 2461.94,1704C 2461.94,1686.33 2476.72,1672 2494.97,1672 Z "/>
	<path fill="none" stroke-width="8" stroke-linejoin="round" stroke="#4E9AFB" stroke-opacity="1" d="M 2273.03,1197.5C 2301.82,1197.5 2325.16,1220.11 2325.16,1248C 2325.16,1275.89 2301.82,1298.5 2273.03,1298.5C 2244.24,1298.5 2220.9,1275.89 2220.9,1248C 2220.9,1220.11 2244.24,1197.5 2273.03,1197.5 Z "/>
	<path fill="none" stroke-width="8" stroke-linejoin="round" stroke="#4E9AFB" stroke-opacity="1" d="M 2273.03,1171.5C 2316.64,1171.5 2352,1205.75 2352,1248C 2352,1290.25 2316.64,1324.5 2273.03,1324.5C 2229.42,1324.5 2194.06,1290.25 2194.06,1248C 2194.06,1205.75 2229.42,1171.5 2273.03,1171.5 Z "/>
	<g>
		<path fill="#378AFB" fill-opacity="1" stroke-width="0.2" stroke-linejoin="round" d="M 2382.4,1237.13L 2382.4,1207.59L 2408.75,1207.59L 2408.75,1225.94L 2398.26,1225.94L 2408.75,1237.13L 2399.95,1237.13L 2389.51,1226.03L 2389.51,1237.13L 2382.4,1237.13 Z M 2401.64,1215.2L 2389.51,1215.2L 2389.51,1218.33L 2401.64,1218.33L 2401.64,1215.2 Z "/>
		<path fill="#378AFB" fill-opacity="1" stroke-width="0.2" stroke-linejoin="round" d="M 2412.34,1234.01L 2425.85,1207.59L 2443.04,1207.59L 2443.04,1237.13L 2428.53,1237.13L 2428.53,1229.52L 2435.93,1229.52L 2435.93,1215.2L 2429.91,1215.2L 2418.41,1237.57L 2412.34,1234.01 Z "/>
		<path fill="#378AFB" fill-opacity="1" stroke-width="0.2" stroke-linejoin="round" d="M 2460.19,1214.75L 2460.19,1229.52L 2470.9,1229.52L 2470.9,1237.13L 2453.5,1237.13L 2453.5,1214.75L 2448.85,1214.75L 2448.85,1207.59L 2474.79,1207.59L 2474.79,1214.75L 2460.19,1214.75 Z "/>
		<path fill="#378AFB" fill-opacity="1" stroke-width="0.2" stroke-linejoin="round" d="M 2492.39,1214.75L 2492.39,1229.52L 2503.1,1229.52L 2503.1,1237.13L 2485.7,1237.13L 2485.7,1214.75L 2481.05,1214.75L 2481.05,1207.59L 2506.99,1207.59L 2506.99,1214.75L 2492.39,1214.75 Z "/>
		<path fill="#378AFB" fill-opacity="1" stroke-width="0.2" stroke-linejoin="round" d="M 2511.04,1234.01L 2524.56,1207.59L 2541.74,1207.59L 2541.74,1237.13L 2527.23,1237.13L 2527.23,1229.52L 2534.63,1229.52L 2534.63,1215.2L 2528.61,1215.2L 2517.11,1237.57L 2511.04,1234.01 Z "/>
		<path fill="#378AFB" fill-opacity="1" stroke-width="0.2" stroke-linejoin="round" d="M 2558.89,1214.75L 2558.89,1229.52L 2569.6,1229.52L 2569.6,1237.13L 2552.2,1237.13L 2552.2,1214.75L 2547.55,1214.75L 2547.55,1207.59L 2573.49,1207.59L 2573.49,1214.75L 2558.89,1214.75 Z "/>
		<path fill="#378AFB" fill-opacity="1" stroke-width="0.2" stroke-linejoin="round" d="M 2577.54,1234.01L 2591.05,1207.59L 2608.24,1207.59L 2608.24,1237.13L 2593.73,1237.13L 2593.73,1229.52L 2601.13,1229.52L 2601.13,1215.2L 2595.11,1215.2L 2583.6,1237.57L 2577.54,1234.01 Z "/>
		<path fill="#378AFB" fill-opacity="1" stroke-width="0.2" stroke-linejoin="round" d="M 2633.33,1237.13L 2633.33,1225.94L 2621.21,1225.94L 2621.21,1237.13L 2614.1,1237.13L 2614.1,1207.59L 2621.21,1207.59L 2621.11,1218.65L 2631.6,1207.59L 2640.44,1207.59L 2629.96,1218.33L 2640.44,1218.33L 2640.44,1237.13L 2633.33,1237.13 Z "/>
	</g>
	<g>
		<path fill="#378AFB" fill-opacity="1" stroke-width="0.2" stroke-linejoin="round" d="M 2417.09,1255.35L 2390.76,1284.41L 2381.69,1284.41L 2400.97,1262.88L 2400.97,1262.37L 2377.85,1262.37L 2383.46,1255.35L 2417.09,1255.35 Z "/>
		<path fill="#378AFB" fill-opacity="1" stroke-width="0.2" stroke-linejoin="round" d="M 2420.05,1255.35L 2427.05,1255.35L 2427.05,1261.06L 2445.95,1261.06L 2455.58,1255.35L 2469.69,1255.35L 2445.95,1267.79L 2420.05,1267.79L 2420.05,1255.35 Z M 2420.05,1271.97L 2446.69,1271.97L 2470,1284.41L 2456.84,1284.41L 2445.43,1278.7L 2426.92,1278.7L 2426.92,1284.41L 2420.05,1284.41L 2420.05,1271.97 Z "/>
		<path fill="#378AFB" fill-opacity="1" stroke-width="0.2" stroke-linejoin="round" d="M 2500.62,1255.35L 2500.62,1278.88L 2502.64,1278.88L 2513.28,1268.83L 2522.6,1268.83L 2505.79,1284.41L 2489.47,1284.41L 2472.59,1268.74L 2481.91,1268.74L 2492.62,1278.79L 2494.57,1278.79L 2494.57,1255.35L 2500.62,1255.35 Z "/>
		<path fill="#378AFB" fill-opacity="1" stroke-width="0.2" stroke-linejoin="round" d="M 2552.27,1255.35L 2552.27,1278.88L 2554.29,1278.88L 2564.93,1268.83L 2574.25,1268.83L 2557.44,1284.41L 2541.12,1284.41L 2524.24,1268.74L 2533.56,1268.74L 2544.27,1278.79L 2546.22,1278.79L 2546.22,1255.35L 2552.27,1255.35 Z "/>
		<path fill="#378AFB" fill-opacity="1" stroke-width="0.2" stroke-linejoin="round" d="M 2576.9,1255.35L 2583.9,1255.35L 2583.9,1261.06L 2602.79,1261.06L 2612.43,1255.35L 2626.53,1255.35L 2602.79,1267.79L 2576.9,1267.79L 2576.9,1255.35 Z M 2576.9,1271.97L 2603.54,1271.97L 2626.85,1284.41L 2613.69,1284.41L 2602.28,1278.7L 2583.77,1278.7L 2583.77,1284.41L 2576.9,1284.41L 2576.9,1271.97 Z "/>
		<path fill="#378AFB" fill-opacity="1" stroke-width="0.2" stroke-linejoin="round" d="M 2657.47,1255.35L 2657.47,1278.88L 2659.49,1278.88L 2670.13,1268.83L 2679.45,1268.83L 2662.64,1284.41L 2646.32,1284.41L 2629.44,1268.74L 2638.76,1268.74L 2649.47,1278.79L 2651.41,1278.79L 2651.41,1255.35L 2657.47,1255.35 Z "/>
		<path fill="#378AFB" fill-opacity="1" stroke-width="0.2" stroke-linejoin="round" d="M 2682.09,1255.35L 2689.09,1255.35L 2689.09,1261.06L 2707.99,1261.06L 2717.62,1255.35L 2731.73,1255.35L 2707.99,1267.79L 2682.09,1267.79L 2682.09,1255.35 Z M 2682.09,1271.97L 2708.74,1271.97L 2732.04,1284.41L 2718.88,1284.41L 2707.48,1278.7L 2688.96,1278.7L 2688.96,1284.41L 2682.09,1284.41L 2682.09,1271.97 Z "/>
		<path fill="#378AFB" fill-opacity="1" stroke-width="0.2" stroke-linejoin="round" d="M 2780.62,1255.38C 2780.99,1255.54 2781.28,1255.82 2781.49,1256.22L 2781.49,1283.42C 2781.33,1283.9 2780.97,1284.23 2780.43,1284.41L 2736.08,1284.41L 2736.08,1277.71L 2774.32,1277.71L 2774.32,1262.05L 2736.08,1262.05L 2736.08,1255.38L 2780.62,1255.38 Z "/>
	</g>
	<path fill="#DCFF85" fill-opacity="1" stroke-linejoin="round" stroke="#DCFF85" stroke-opacity="1" d="M 672.826,1255.26L 669.758,1342.47L 714.669,1342.47L 742.729,1300.58L 717.476,1255.46L 672.826,1255.26 Z "/>
	<path fill="none" stroke-width="16" stroke-linejoin="round" stroke="#DCFF85" stroke-opacity="1" d="M 661.338,1233L 619.234,1294.75L 655.723,1364.93L 725.896,1364.93L 768,1303.17L 731.51,1233L 661.338,1233 Z "/>
	<path fill="#DCFF85" fill-opacity="1" stroke-linejoin="round" stroke="#DCFF85" stroke-opacity="1" d="M 1525.59,1512.26L 1522.52,1599.47L 1567.43,1599.47L 1595.49,1557.58L 1570.24,1512.46L 1525.59,1512.26 Z "/>
	<path fill="none" stroke-width="16" stroke-linejoin="round" stroke="#DCFF85" stroke-opacity="1" d="M 1514.1,1490L 1472,1551.75L 1508.49,1621.93L 1578.66,1621.93L 1620.77,1560.17L 1584.28,1490L 1514.1,1490 Z "/>
	<g>
		<path fill="#DCFF85" fill-opacity="1" stroke-width="0.2" stroke-linejoin="round" d="M 1014.97,1548.07L 1014.97,1525.76L 1024.01,1515.13L 1042.55,1515.13L 1042.55,1523.61L 1026.83,1523.61L 1022.02,1529.27L 1022.02,1539.59L 1042.55,1539.59L 1042.55,1548.07L 1014.97,1548.07 Z "/>
		<path fill="#DCFF85" fill-opacity="1" stroke-width="0.2" stroke-linejoin="round" d="M 1045.91,1544.59L 1059.31,1515.13L 1076.36,1515.13L 1076.36,1548.07L 1061.96,1548.07L 1061.96,1539.59L 1069.31,1539.59L 1069.31,1523.61L 1063.33,1523.61L 1051.93,1548.57L 1045.91,1544.59 Z "/>
		<path fill="#DCFF85" fill-opacity="1" stroke-width="0.2" stroke-linejoin="round" d="M 1109.54,1523.11L 1089.21,1523.11L 1089.21,1527.61L 1109.54,1527.61L 1109.54,1548.07L 1082.16,1548.07L 1082.16,1539.59L 1102.49,1539.59L 1102.49,1536.09L 1082.16,1536.09L 1082.16,1515.13L 1109.54,1515.13L 1109.54,1523.11 Z "/>
		<path fill="#DCFF85" fill-opacity="1" stroke-width="0.2" stroke-linejoin="round" d="M 1126.54,1523.11L 1126.54,1539.59L 1137.16,1539.59L 1137.16,1548.07L 1119.91,1548.07L 1119.91,1523.11L 1115.3,1523.11L 1115.3,1515.13L 1141.02,1515.13L 1141.02,1523.11L 1126.54,1523.11 Z "/>
		<rect x="1147.28" y="1515.13" fill="#DCFF85" fill-opacity="1" stroke-width="0.2" stroke-linejoin="round" width="7.05078" height="32.9454"/>
		<path fill="#DCFF85" fill-opacity="1" stroke-width="0.2" stroke-linejoin="round" d="M 1160.14,1548.07L 1160.14,1515.13L 1167.19,1515.13L 1167.19,1539.59L 1185.39,1539.59L 1185.39,1548.07L 1160.14,1548.07 Z "/>
		<path fill="#DCFF85" fill-opacity="1" stroke-width="0.2" stroke-linejoin="round" d="M 1218.62,1515.13L 1218.62,1548.07L 1191.24,1548.07L 1191.24,1515.13L 1218.62,1515.13 Z M 1211.56,1523.61L 1198.29,1523.61L 1198.29,1539.59L 1211.56,1539.59L 1211.56,1523.61 Z "/>
		<path fill="#DCFF85" fill-opacity="1" stroke-width="0.2" stroke-linejoin="round" d="M 1231.47,1523.61L 1231.47,1548.07L 1224.42,1548.07L 1224.42,1515.13L 1242.93,1515.13L 1251.8,1525.76L 1251.8,1548.07L 1244.74,1548.07L 1244.74,1529.39L 1240.07,1523.61L 1231.47,1523.61 Z "/>
		<path fill="#DCFF85" fill-opacity="1" stroke-width="0.2" stroke-linejoin="round" d="M 1271.95,1544.59L 1285.35,1515.13L 1302.4,1515.13L 1302.4,1548.07L 1288,1548.07L 1288,1539.59L 1295.34,1539.59L 1295.34,1523.61L 1289.37,1523.61L 1277.96,1548.57L 1271.95,1544.59 Z "/>
		<path fill="#DCFF85" fill-opacity="1" stroke-width="0.2" stroke-linejoin="round" d="M 1308.2,1548.07L 1308.2,1515.13L 1315.25,1515.13L 1315.25,1539.59L 1333.46,1539.59L 1333.46,1548.07L 1308.2,1548.07 Z "/>
		<path fill="#DCFF85" fill-opacity="1" stroke-width="0.2" stroke-linejoin="round" d="M 1339.31,1548.07L 1339.31,1515.13L 1346.36,1515.13L 1346.36,1539.59L 1364.56,1539.59L 1364.56,1548.07L 1339.31,1548.07 Z "/>
		<path fill="#DCFF85" fill-opacity="1" stroke-width="0.2" stroke-linejoin="round" d="M 1397.79,1536.09L 1397.79,1515.13L 1370.41,1515.13L 1370.41,1548.07L 1397.79,1548.07L 1397.79,1539.59L 1377.46,1539.59L 1377.46,1523.11L 1390.74,1523.11L 1390.74,1527.61L 1385.1,1527.61L 1385.1,1536.09L 1397.79,1536.09 Z "/>
		<path fill="#DCFF85" fill-opacity="1" stroke-width="0.2" stroke-linejoin="round" d="M 1428.48,1515.23L 1421.43,1515.23L 1421.43,1534.28L 1407.5,1514.63L 1402.23,1519.84L 1416.41,1539.59L 1402.89,1539.59L 1402.89,1548.07L 1428.48,1548.07L 1428.48,1515.23 Z "/>
	</g>
	<g>
		<path fill="#DCFF85" fill-opacity="1" stroke-width="0.2" stroke-linejoin="round" d="M 984.021,1561.05L 989.404,1561.05L 989.404,1578.64L 984.021,1578.64L 984.021,1561.05 Z M 991.138,1568.89L 996.468,1568.89L 996.468,1578.64L 991.138,1578.64L 991.138,1568.89 Z M 998.195,1568.89L 1003.63,1568.89L 1003.63,1586.48L 998.195,1586.48L 998.195,1568.89 Z "/>
		<path fill="#DCFF85" fill-opacity="1" stroke-width="0.2" stroke-linejoin="round" d="M 1006.22,1560.89L 1011.56,1560.89L 1011.56,1565.92L 1025.97,1565.92L 1033.32,1560.89L 1044.08,1560.89L 1025.97,1571.84L 1006.22,1571.84L 1006.22,1560.89 Z M 1006.22,1575.53L 1026.54,1575.53L 1044.32,1586.48L 1034.28,1586.48L 1025.58,1581.45L 1011.46,1581.45L 1011.46,1586.48L 1006.22,1586.48L 1006.22,1575.53 Z "/>
		<path fill="#DCFF85" fill-opacity="1" stroke-width="0.2" stroke-linejoin="round" d="M 1058.4,1560.89L 1077.19,1580.4L 1077.19,1560.89L 1082.47,1560.89L 1082.47,1586.48L 1075.22,1586.48L 1050.47,1560.89L 1058.4,1560.89 Z M 1048.46,1574.32L 1067.62,1581.53L 1065.94,1586.48L 1046.68,1579.4L 1048.46,1574.32 Z "/>
		<path fill="#DCFF85" fill-opacity="1" stroke-width="0.2" stroke-linejoin="round" d="M 1105.63,1560.89L 1105.63,1581.61L 1107.17,1581.61L 1115.28,1572.76L 1122.39,1572.76L 1109.57,1586.48L 1097.12,1586.48L 1084.25,1572.68L 1091.36,1572.68L 1099.53,1581.53L 1101.01,1581.53L 1101.01,1560.89L 1105.63,1560.89 Z "/>
		<path fill="#DCFF85" fill-opacity="1" stroke-width="0.2" stroke-linejoin="round" d="M 1137.63,1560.81L 1137.63,1586.48L 1132.87,1586.48L 1132.87,1567.26L 1127.78,1572.42L 1124.08,1568.63C 1124.05,1568.49 1124.11,1568.35 1124.27,1568.21L 1131.43,1560.81L 1137.63,1560.81 Z "/>
		<path fill="#DCFF85" fill-opacity="1" stroke-width="0.2" stroke-linejoin="round" d="M 1164.1,1560.78L 1164.1,1586.51L 1157.18,1586.51L 1140.56,1575.63L 1143.63,1570.81L 1158.82,1580.64L 1158.82,1560.78L 1164.1,1560.78 Z "/>
		<path fill="#DCFF85" fill-opacity="1" stroke-width="0.2" stroke-linejoin="round" d="M 1191.39,1560.89L 1199.37,1581.24L 1196.2,1586.48L 1170.39,1586.48L 1167.13,1581.16L 1174.82,1560.89L 1191.39,1560.89 Z M 1172.7,1580.87L 1193.74,1580.87L 1188.31,1566.79L 1178.13,1566.79L 1172.7,1580.87 Z "/>
		<path fill="#DCFF85" fill-opacity="1" stroke-width="0.2" stroke-linejoin="round" d="M 1208.21,1581.53L 1208.79,1581.48L 1218.92,1560.89L 1225.27,1560.89L 1238.76,1586.48L 1232.52,1586.48L 1222.14,1566.26L 1212.1,1586.48L 1205.9,1586.48L 1205.57,1586.46L 1204.94,1585.51L 1204.36,1584.48L 1203.59,1583.06L 1202.92,1581.43L 1202.3,1579.71L 1201.91,1577.74L 1201.53,1575.5L 1201.38,1573.18L 1201.29,1570.68L 1201.72,1568.76L 1202.11,1566.71L 1202.54,1565.15L 1203.21,1563.73L 1203.83,1562.49L 1204.61,1561.47L 1205.03,1560.94L 1209.65,1560.94L 1208.83,1561.75L 1208.21,1562.76L 1207.53,1563.99L 1207.05,1565.21L 1206.62,1566.71L 1206.19,1568.68L 1205.9,1570.87L 1205.75,1573.05L 1205.9,1575.24L 1206.29,1577.55L 1206.77,1579.32L 1207.29,1580.4L 1208.21,1581.53 Z "/>
		<path fill="#DCFF85" fill-opacity="1" stroke-width="0.2" stroke-linejoin="round" d="M 1265.67,1560.89L 1271.01,1560.89L 1271.01,1565.92L 1285.42,1565.92L 1292.77,1560.89L 1303.53,1560.89L 1285.42,1571.84L 1265.67,1571.84L 1265.67,1560.89 Z M 1265.67,1575.53L 1285.99,1575.53L 1303.77,1586.48L 1293.73,1586.48L 1285.03,1581.45L 1270.91,1581.45L 1270.91,1586.48L 1265.67,1586.48L 1265.67,1575.53 Z "/>
		<path fill="#DCFF85" fill-opacity="1" stroke-width="0.2" stroke-linejoin="round" d="M 1330.34,1560.78L 1330.34,1586.51L 1323.42,1586.51L 1306.8,1575.63L 1309.87,1570.81L 1325.06,1580.64L 1325.06,1560.78L 1330.34,1560.78 Z "/>
		<path fill="#DCFF85" fill-opacity="1" stroke-width="0.2" stroke-linejoin="round" d="M 1357.25,1560.78L 1357.25,1586.51L 1350.33,1586.51L 1333.71,1575.63L 1336.78,1570.81L 1351.96,1580.64L 1351.96,1560.78L 1357.25,1560.78 Z "/>
		<path fill="#DCFF85" fill-opacity="1" stroke-width="0.2" stroke-linejoin="round" d="M 1395.49,1560.86L 1395.49,1566.76L 1391.84,1566.76L 1391.84,1586.48L 1386.89,1586.48L 1386.89,1566.76L 1386.22,1566.76L 1377.57,1586.48L 1371.23,1586.48L 1359.89,1560.86L 1365.99,1560.86L 1374.45,1579.19L 1382.66,1560.86L 1395.49,1560.86 Z "/>
		<path fill="#DCFF85" fill-opacity="1" stroke-width="0.2" stroke-linejoin="round" d="M 1431.24,1560.83L 1418.12,1586.48L 1409.95,1586.48L 1397.99,1563.05L 1397.99,1561.84L 1398.61,1561.02L 1399.43,1560.83L 1410.38,1560.83L 1415.91,1571.47L 1410.19,1571.47L 1406.68,1563.73L 1404,1563.73L 1413.51,1582.38L 1414.75,1582.38L 1425.86,1560.83L 1431.24,1560.83 Z "/>
	</g>
	<g>
		<path fill="#DCFF85" fill-opacity="1" stroke-width="0.2" stroke-linejoin="round" d="M 226.788,1260.16L 219.738,1260.16L 219.738,1279.21L 205.805,1259.56L 200.536,1264.77L 214.722,1284.51L 201.197,1284.51L 201.197,1293L 226.788,1293L 226.788,1260.16 Z "/>
		<path fill="#DCFF85" fill-opacity="1" stroke-width="0.2" stroke-linejoin="round" d="M 230.353,1289.52L 243.754,1260.05L 260.798,1260.05L 260.798,1293L 246.405,1293L 246.405,1284.51L 253.747,1284.51L 253.747,1268.54L 247.772,1268.54L 236.366,1293.5L 230.353,1289.52 Z "/>
		<path fill="#DCFF85" fill-opacity="1" stroke-width="0.2" stroke-linejoin="round" d="M 285.683,1293L 285.683,1280.52L 273.655,1280.52L 273.655,1293L 266.604,1293L 266.604,1260.05L 273.655,1260.05L 273.564,1272.39L 283.965,1260.05L 292.734,1260.05L 282.332,1272.03L 292.734,1272.03L 292.734,1293L 285.683,1293 Z "/>
		<path fill="#DCFF85" fill-opacity="1" stroke-width="0.2" stroke-linejoin="round" d="M 325.914,1260.05L 325.914,1293L 298.54,1293L 298.54,1260.05L 325.914,1260.05 Z M 318.863,1268.54L 305.591,1268.54L 305.591,1284.51L 318.863,1284.51L 318.863,1268.54 Z "/>
		<path fill="#DCFF85" fill-opacity="1" stroke-width="0.2" stroke-linejoin="round" d="M 331.72,1293L 331.72,1260.05L 357.849,1260.05L 357.849,1280.52L 347.448,1280.52L 357.849,1293L 349.127,1293L 338.771,1280.62L 338.771,1293L 331.72,1293 Z M 350.799,1268.54L 338.771,1268.54L 338.771,1272.03L 350.799,1272.03L 350.799,1268.54 Z "/>
		<path fill="#DCFF85" fill-opacity="1" stroke-width="0.2" stroke-linejoin="round" d="M 382.734,1293L 382.734,1280.52L 370.707,1280.52L 370.707,1293L 363.656,1293L 363.656,1260.05L 370.707,1260.05L 370.616,1272.39L 381.017,1260.05L 389.785,1260.05L 379.384,1272.03L 389.785,1272.03L 389.785,1293L 382.734,1293 Z "/>
		<rect x="395.592" y="1260.05" fill="#DCFF85" fill-opacity="1" stroke-width="0.2" stroke-linejoin="round" width="7.05078" height="32.9453"/>
		<path fill="#DCFF85" fill-opacity="1" stroke-width="0.2" stroke-linejoin="round" d="M 422.797,1289.52L 436.198,1260.05L 453.242,1260.05L 453.242,1293L 438.849,1293L 438.849,1284.51L 446.191,1284.51L 446.191,1268.54L 440.216,1268.54L 428.81,1293.5L 422.797,1289.52 Z "/>
		<path fill="#DCFF85" fill-opacity="1" stroke-width="0.2" stroke-linejoin="round" d="M 459.048,1293L 459.048,1260.05L 466.099,1260.05L 466.099,1284.51L 484.303,1284.51L 484.303,1293L 459.048,1293 Z "/>
		<path fill="#DCFF85" fill-opacity="1" stroke-width="0.2" stroke-linejoin="round" d="M 490.155,1293L 490.155,1260.05L 497.205,1260.05L 497.205,1284.51L 515.409,1284.51L 515.409,1293L 490.155,1293 Z "/>
		<path fill="#DCFF85" fill-opacity="1" stroke-width="0.2" stroke-linejoin="round" d="M 548.634,1281.02L 548.634,1260.05L 521.261,1260.05L 521.261,1293L 548.634,1293L 548.634,1284.51L 528.312,1284.51L 528.312,1268.04L 541.584,1268.04L 541.584,1272.53L 535.946,1272.53L 535.946,1281.02L 548.634,1281.02 Z "/>
		<path fill="#DCFF85" fill-opacity="1" stroke-width="0.2" stroke-linejoin="round" d="M 579.326,1260.16L 572.275,1260.16L 572.275,1279.21L 558.342,1259.56L 553.073,1264.77L 567.259,1284.51L 553.734,1284.51L 553.734,1293L 579.326,1293L 579.326,1260.16 Z "/>
	</g>
	<g>
		<path fill="#DCFF85" fill-opacity="1" stroke-width="0.2" stroke-linejoin="round" d="M 210.004,1301.35L 197.473,1327L 189.674,1327L 178.255,1303.56L 178.255,1302.35L 178.85,1301.54L 179.631,1301.35L 190.09,1301.35L 195.366,1311.99L 189.903,1311.99L 186.556,1304.25L 183.989,1304.25L 193.072,1322.89L 194.262,1322.89L 204.864,1301.35L 210.004,1301.35 Z "/>
		<path fill="#DCFF85" fill-opacity="1" stroke-width="0.2" stroke-linejoin="round" d="M 212.018,1301.4L 217.115,1301.4L 217.115,1306.44L 230.878,1306.44L 237.896,1301.4L 248.168,1301.4L 230.878,1312.36L 212.018,1312.36L 212.018,1301.4 Z M 212.018,1316.05L 231.423,1316.05L 248.398,1327L 238.813,1327L 230.505,1321.97L 217.021,1321.97L 217.021,1327L 212.018,1327L 212.018,1316.05 Z "/>
		<path fill="#DCFF85" fill-opacity="1" stroke-width="0.2" stroke-linejoin="round" d="M 283.774,1301.43C 284.046,1301.57 284.259,1301.82 284.412,1302.17L 284.412,1326.13C 284.292,1326.55 284.034,1326.84 283.637,1327L 251.337,1327L 251.337,1321.1L 279.186,1321.1L 279.186,1307.3L 251.337,1307.3L 251.337,1301.43L 283.774,1301.43 Z "/>
		<path fill="#DCFF85" fill-opacity="1" stroke-width="0.2" stroke-linejoin="round" d="M 310.383,1301.4L 317.996,1321.76L 314.97,1327L 290.333,1327L 287.214,1321.68L 294.555,1301.4L 310.383,1301.4 Z M 292.533,1321.39L 312.626,1321.39L 307.444,1307.3L 297.716,1307.3L 292.533,1321.39 Z "/>
		<path fill="#DCFF85" fill-opacity="1" stroke-width="0.2" stroke-linejoin="round" d="M 348.411,1301.4L 329.236,1327L 322.634,1327L 336.669,1308.04L 336.669,1307.59L 319.831,1307.59L 323.917,1301.4L 348.411,1301.4 Z "/>
		<path fill="#DCFF85" fill-opacity="1" stroke-width="0.2" stroke-linejoin="round" d="M 383.328,1301.43C 383.601,1301.57 383.813,1301.82 383.966,1302.17L 383.966,1326.13C 383.847,1326.55 383.589,1326.84 383.192,1327L 350.891,1327L 350.891,1321.1L 378.741,1321.1L 378.741,1307.3L 350.891,1307.3L 350.891,1301.43L 383.328,1301.43 Z "/>
		<path fill="#DCFF85" fill-opacity="1" stroke-width="0.2" stroke-linejoin="round" d="M 399.429,1301.33L 399.429,1327L 394.891,1327L 394.891,1307.78L 390.024,1312.94L 386.49,1309.15C 386.461,1309.01 386.523,1308.87 386.676,1308.72L 393.515,1301.33L 399.429,1301.33 Z "/>
		<path fill="#DCFF85" fill-opacity="1" stroke-width="0.2" stroke-linejoin="round" d="M 425.35,1301.4L 430.446,1301.4L 430.446,1306.44L 444.21,1306.44L 451.228,1301.4L 461.5,1301.4L 444.21,1312.36L 425.35,1312.36L 425.35,1301.4 Z M 425.35,1316.05L 444.754,1316.05L 461.729,1327L 452.145,1327L 443.837,1321.97L 430.353,1321.97L 430.353,1327L 425.35,1327L 425.35,1316.05 Z "/>
		<path fill="#DCFF85" fill-opacity="1" stroke-width="0.2" stroke-linejoin="round" d="M 487.105,1301.3L 487.105,1327.02L 480.496,1327.02L 464.625,1316.15L 467.557,1311.33L 482.059,1321.15L 482.059,1301.3L 487.105,1301.3 Z "/>
		<path fill="#DCFF85" fill-opacity="1" stroke-width="0.2" stroke-linejoin="round" d="M 512.797,1301.3L 512.797,1327.02L 506.188,1327.02L 490.317,1316.15L 493.249,1311.33L 507.75,1321.15L 507.75,1301.3L 512.797,1301.3 Z "/>
		<path fill="#DCFF85" fill-opacity="1" stroke-width="0.2" stroke-linejoin="round" d="M 549.313,1301.38L 549.313,1307.28L 545.829,1307.28L 545.829,1327L 541.098,1327L 541.098,1307.28L 540.46,1307.28L 532.202,1327L 526.144,1327L 515.32,1301.38L 521.141,1301.38L 529.22,1319.71L 537.062,1301.38L 549.313,1301.38 Z "/>
		<path fill="#DCFF85" fill-opacity="1" stroke-width="0.2" stroke-linejoin="round" d="M 583.449,1301.35L 570.918,1327L 563.119,1327L 551.7,1303.56L 551.7,1302.35L 552.295,1301.54L 553.076,1301.35L 563.535,1301.35L 568.811,1311.99L 563.349,1311.99L 560.001,1304.25L 557.435,1304.25L 566.517,1322.89L 567.707,1322.89L 578.309,1301.35L 583.449,1301.35 Z "/>
	</g>
	<path fill="none" stroke-width="19" stroke-linejoin="round" stroke="#1C79D4" stroke-opacity="0.803922" d="M -192,1344C -192,1344 960,928 1792,0.000244141"/>
	<g>
		<path fill="#DCFF85" fill-opacity="1" stroke-width="6" stroke-linejoin="round" stroke="#DCFF85" stroke-opacity="1" d="M 814.532,459.505L 814.532,519.925L 887.035,459.505L 814.532,459.505 Z "/>
		<path fill="none" stroke-width="16" stroke-linejoin="round" stroke="#DCFF85" stroke-opacity="1" d="M 738,387L 810.286,387L 1314,387L 1314,963L 738,963L 738,447.217L 738,387 Z "/>
		<rect x="814.535" y="459.505" fill="none" stroke-width="16" stroke-linejoin="round" stroke="#DCFF85" stroke-opacity="1" width="418.908" height="426.964"/>
		<path fill="#DCFF85" fill-opacity="1" stroke-width="6" stroke-linejoin="round" stroke="#DCFF85" stroke-opacity="1" d="M 1229.62,878.62L 1229.62,818.2L 1157.11,878.619L 1229.62,878.62 Z "/>
		<ellipse fill="#030409" fill-opacity="1" stroke-width="16" stroke-linejoin="round" stroke="#DCFF85" stroke-opacity="1" cx="1028.42" cy="674.196" rx="120.838" ry="116.811"/>
		<ellipse fill="#DCFF85" fill-opacity="1" stroke-width="0.2" stroke-linejoin="round" cx="1028.01" cy="672.987" rx="72.5039" ry="72.5036"/>
	</g>
	<path fill="none" stroke-width="16" stroke-linejoin="round" stroke="#DCFF85" stroke-opacity="1" d="M 1312,584C 1312,584 2624,200 3104,-88"/>
	<path fill="none" stroke-width="16" stroke-linejoin="round" stroke="#DCFF85" stroke-opacity="1" d="M 1312,832C 1312,832 1696.98,875.84 1760,887C 1856,904 2161,940 2313,976C 2480.69,1015.72 2637,1088 2861,1248C 3085,1408 3185.36,1470.97 3328,1515C 3409,1540 3686,1655 3686,1655"/>
	<line fill="none" stroke-width="16" stroke-linejoin="round" stroke="#DCFF85" stroke-opacity="1" x1="880" y1="963" x2="717" y2="1232"/>
	<line fill="none" stroke-width="16" stroke-linejoin="round" stroke="#DCFF85" stroke-opacity="1" x1="931" y1="960" x2="748" y2="1259"/>
	<path fill="none" stroke-width="16" stroke-linejoin="round" stroke="#DCFF85" stroke-opacity="1" d="M 1513.93,1486.89C 1513.93,1486.89 1290,1193 1177.07,964.106"/>
	<path fill="none" stroke-width="16" stroke-linejoin="round" stroke="#DCFF85" stroke-opacity="1" d="M 1489,1519C 1489,1519 1246.62,1205.83 1126,965"/>
	<path fill="none" stroke-width="16" stroke-linejoin="round" stroke="#05408F" stroke-opacity="0.803922" d="M 3680,1728C 3680,1728 2624,2016 2528,2176"/>
	<g>
		<path fill="#DCFF85" fill-opacity="1" stroke-width="0.2" stroke-linejoin="round" d="M 2984.29,1714.64L 3005.83,1676.41L 3033.22,1676.41L 3033.22,1719.15L 3010.09,1719.15L 3010.09,1708.14L 3021.89,1708.14L 3021.89,1687.42L 3012.29,1687.42L 2993.96,1719.8L 2984.29,1714.64 Z "/>
		<path fill="#DCFF85" fill-opacity="1" stroke-width="0.2" stroke-linejoin="round" d="M 3086.54,1676.41L 3086.54,1705.36L 3072.29,1719.15L 3042.55,1719.15L 3042.55,1676.41L 3086.54,1676.41 Z M 3075.21,1687.42L 3053.88,1687.42L 3053.88,1708.14L 3067.69,1708.14L 3075.21,1700.8L 3075.21,1687.42 Z "/>
		<rect x="3095.87" y="1676.41" fill="#DCFF85" fill-opacity="1" stroke-width="0.2" stroke-linejoin="round" width="11.3308" height="42.7461"/>
		<path fill="#DCFF85" fill-opacity="1" stroke-width="0.2" stroke-linejoin="round" d="M 3127.86,1687.42L 3127.86,1719.15L 3116.53,1719.15L 3116.53,1676.41L 3146.28,1676.41L 3160.52,1690.2L 3160.52,1719.15L 3149.19,1719.15L 3149.19,1694.92L 3141.67,1687.42L 3127.86,1687.42 Z "/>
		<path fill="#DCFF85" fill-opacity="1" stroke-width="0.2" stroke-linejoin="round" d="M 3166.25,1714.64L 3187.79,1676.41L 3215.18,1676.41L 3215.18,1719.15L 3192.05,1719.15L 3192.05,1708.14L 3203.85,1708.14L 3203.85,1687.42L 3194.24,1687.42L 3175.92,1719.8L 3166.25,1714.64 Z "/>
		<path fill="#DCFF85" fill-opacity="1" stroke-width="0.2" stroke-linejoin="round" d="M 3225.84,1702.73L 3235.34,1693.29L 3224.63,1682.73L 3232.37,1675.11L 3253.1,1695.57L 3258.5,1690.16L 3258.5,1676.29L 3269.83,1676.29L 3269.83,1694.65L 3261.19,1703.13L 3271.03,1712.83L 3263.3,1720.45L 3243.58,1700.91L 3237.17,1707.16L 3237.17,1719.28L 3225.84,1719.28L 3225.84,1702.73 Z "/>
		<path fill="#DCFF85" fill-opacity="1" stroke-width="0.2" stroke-linejoin="round" d="M 3318.49,1687.42L 3318.49,1719.15L 3307.16,1719.15L 3307.16,1676.41L 3336.9,1676.41L 3351.14,1690.2L 3351.14,1719.15L 3339.81,1719.15L 3339.81,1694.92L 3332.3,1687.42L 3318.49,1687.42 Z "/>
		<path fill="#DCFF85" fill-opacity="1" stroke-width="0.2" stroke-linejoin="round" d="M 3404.47,1703.61L 3404.47,1676.41L 3360.48,1676.41L 3360.48,1719.15L 3404.47,1719.15L 3404.47,1708.14L 3371.81,1708.14L 3371.81,1686.77L 3393.13,1686.77L 3393.13,1692.6L 3384.07,1692.6L 3384.07,1703.61L 3404.47,1703.61 Z "/>
		<path fill="#DCFF85" fill-opacity="1" stroke-width="0.2" stroke-linejoin="round" d="M 3448.09,1683.23L 3438.76,1691.95L 3455.79,1691.95L 3455.79,1719.15L 3413.8,1719.15L 3413.8,1676.41L 3448.09,1676.41L 3448.09,1683.23 Z M 3425.13,1708.14L 3444.46,1708.14L 3444.46,1702.96L 3425.13,1702.96L 3425.13,1708.14 Z M 3431.49,1686.12L 3425.13,1686.12L 3425.03,1692.41L 3431.49,1686.12 Z "/>
		<path fill="#DCFF85" fill-opacity="1" stroke-width="0.2" stroke-linejoin="round" d="M 3497.78,1708.14L 3497.78,1676.41L 3509.11,1676.41L 3509.11,1719.15L 3479.36,1719.15L 3465.12,1705.36L 3465.12,1676.41L 3476.45,1676.41L 3476.45,1700.65L 3483.97,1708.14L 3497.78,1708.14 Z "/>
		<path fill="#DCFF85" fill-opacity="1" stroke-width="0.2" stroke-linejoin="round" d="M 3518.44,1719.15L 3518.44,1676.41L 3529.77,1676.41L 3529.77,1708.14L 3559.02,1708.14L 3559.02,1719.15L 3518.44,1719.15 Z "/>
		<path fill="#DCFF85" fill-opacity="1" stroke-width="0.2" stroke-linejoin="round" d="M 3564.82,1714.64L 3586.36,1676.41L 3613.75,1676.41L 3613.75,1719.15L 3590.62,1719.15L 3590.62,1708.14L 3602.42,1708.14L 3602.42,1687.42L 3592.82,1687.42L 3574.49,1719.8L 3564.82,1714.64 Z "/>
	</g>
	<g>
		<path fill="#DCFF85" fill-opacity="1" stroke-width="0.2" stroke-linejoin="round" d="M 2791.53,1743.15L 2801.55,1743.15L 2801.55,1750.95L 2828.64,1750.95L 2842.45,1743.15L 2862.67,1743.15L 2828.64,1760.14L 2791.53,1760.14L 2791.53,1743.15 Z M 2791.53,1765.86L 2829.71,1765.86L 2863.12,1782.85L 2844.26,1782.85L 2827.91,1775.05L 2801.37,1775.05L 2801.37,1782.85L 2791.53,1782.85L 2791.53,1765.86 Z "/>
		<path fill="#DCFF85" fill-opacity="1" stroke-width="0.2" stroke-linejoin="round" d="M 2921.8,1743.43L 2921.63,1744.13L 2884.7,1782.85L 2871.34,1782.85L 2886.42,1767.73L 2870.07,1767.73L 2877.03,1758.67L 2895.27,1758.67L 2901.22,1752.5L 2867.73,1752.46L 2874.23,1743.43L 2921.8,1743.43 Z "/>
		<path fill="#DCFF85" fill-opacity="1" stroke-width="0.2" stroke-linejoin="round" d="M 2950.88,1743.02L 2950.88,1782.85L 2941.95,1782.85L 2941.95,1753.03L 2932.37,1761.03L 2925.41,1755.16C 2925.36,1754.94 2925.48,1754.72 2925.78,1754.5L 2939.24,1743.02L 2950.88,1743.02 Z "/>
		<path fill="#DCFF85" fill-opacity="1" stroke-width="0.2" stroke-linejoin="round" d="M 2968.85,1775.17L 2969.94,1775.09L 2988.98,1743.15L 3000.9,1743.15L 3026.26,1782.85L 3014.53,1782.85L 2995.03,1751.48L 2976.16,1782.85L 2964.52,1782.85L 2963.88,1782.81L 2962.71,1781.33L 2961.63,1779.74L 2960.17,1777.54L 2958.92,1775L 2957.75,1772.35L 2957.01,1769.29L 2956.29,1765.81L 2956.03,1762.22L 2955.84,1758.34L 2956.66,1755.36L 2957.38,1752.18L 2958.2,1749.76L 2959.45,1747.56L 2960.62,1745.64L 2962.08,1744.05L 2962.88,1743.23L 2971.56,1743.23L 2970.02,1744.49L 2968.85,1746.05L 2967.58,1747.96L 2966.68,1749.85L 2965.87,1752.18L 2965.05,1755.24L 2964.52,1758.63L 2964.24,1762.02L 2964.52,1765.41L 2965.24,1769L 2966.14,1771.74L 2967.13,1773.41L 2968.85,1775.17 Z "/>
		<path fill="#DCFF85" fill-opacity="1" stroke-width="0.2" stroke-linejoin="round" d="M 3030.78,1743.15L 3040.81,1743.15L 3040.81,1750.95L 3067.89,1750.95L 3081.7,1743.15L 3101.92,1743.15L 3067.89,1760.14L 3030.78,1760.14L 3030.78,1743.15 Z M 3030.78,1765.86L 3068.97,1765.86L 3102.37,1782.85L 3083.51,1782.85L 3067.16,1775.05L 3040.63,1775.05L 3040.63,1782.85L 3030.78,1782.85L 3030.78,1765.86 Z "/>
		<path fill="#DCFF85" fill-opacity="1" stroke-width="0.2" stroke-linejoin="round" d="M 3160.34,1778.8L 3150.5,1782.85L 3116.73,1782.85L 3106.98,1778.8L 3129.55,1743.23L 3139.49,1743.23L 3160.34,1778.8 Z M 3147.51,1775L 3134.52,1751.97L 3120.26,1775L 3147.51,1775 Z "/>
		<path fill="#DCFF85" fill-opacity="1" stroke-width="0.2" stroke-linejoin="round" d="M 3223.45,1775.17L 3224.54,1775.09L 3243.58,1743.15L 3255.5,1743.15L 3280.87,1782.85L 3269.13,1782.85L 3249.63,1751.48L 3230.76,1782.85L 3219.12,1782.85L 3218.49,1782.81L 3217.31,1781.33L 3216.23,1779.74L 3214.77,1777.54L 3213.52,1775L 3212.35,1772.35L 3211.61,1769.29L 3210.9,1765.81L 3210.63,1762.22L 3210.44,1758.34L 3211.26,1755.36L 3211.98,1752.18L 3212.8,1749.76L 3214.06,1747.56L 3215.23,1745.64L 3216.68,1744.05L 3217.48,1743.23L 3226.16,1743.23L 3224.62,1744.49L 3223.45,1746.05L 3222.18,1747.96L 3221.28,1749.85L 3220.47,1752.18L 3219.66,1755.24L 3219.12,1758.63L 3218.84,1762.02L 3219.12,1765.41L 3219.84,1769L 3220.74,1771.74L 3221.73,1773.41L 3223.45,1775.17 Z "/>
		<path fill="#DCFF85" fill-opacity="1" stroke-width="0.2" stroke-linejoin="round" d="M 3351.47,1743.11L 3351.47,1752.25L 3344.61,1752.25L 3344.61,1782.85L 3335.3,1782.85L 3335.3,1752.25L 3334.05,1752.25L 3317.8,1782.85L 3305.88,1782.85L 3284.58,1743.11L 3296.03,1743.11L 3311.93,1771.53L 3327.36,1743.11L 3351.47,1743.11 Z "/>
		<path fill="#DCFF85" fill-opacity="1" stroke-width="0.2" stroke-linejoin="round" d="M 3369.53,1743.43L 3413.05,1743.43L 3425.77,1756.3L 3425.77,1758.38L 3414.59,1758.38L 3409.44,1752.3L 3373.32,1752.3L 3367.91,1758.38L 3356.7,1758.38L 3356.7,1756.3L 3369.53,1743.43 Z M 3377.29,1758.26L 3406.36,1758.26L 3406.36,1767.73L 3377.29,1767.73L 3377.29,1758.26 Z M 3356.62,1768.84L 3367.81,1768.84L 3373.14,1774.1L 3409.34,1774.1L 3414.49,1768.92L 3425.69,1768.92L 3425.69,1770.76L 3412.95,1782.88L 3369.34,1782.88L 3356.62,1770.76L 3356.62,1768.84 Z "/>
		<path fill="#DCFF85" fill-opacity="1" stroke-width="0.2" stroke-linejoin="round" d="M 3490.96,1743.15L 3493.13,1745.1L 3493.13,1780.8L 3490.78,1782.85L 3430.65,1782.85L 3430.65,1743.15L 3441.04,1743.15L 3441.04,1774.27L 3482.75,1774.27L 3482.75,1752.3L 3469.29,1752.3L 3462.97,1759.85L 3449.51,1759.85L 3463.69,1743.15L 3490.96,1743.15 Z "/>
		<path fill="#DCFF85" fill-opacity="1" stroke-width="0.2" stroke-linejoin="round" d="M 3542.34,1742.99L 3542.34,1782.88L 3529.33,1782.88L 3498.1,1766.02L 3503.87,1758.54L 3532.41,1773.78L 3532.41,1742.99L 3542.34,1742.99 Z "/>
		<path fill="#DCFF85" fill-opacity="1" stroke-width="0.2" stroke-linejoin="round" d="M 3548.11,1743.15L 3558.14,1743.15L 3558.14,1750.95L 3585.22,1750.95L 3599.03,1743.15L 3619.25,1743.15L 3585.22,1760.14L 3548.11,1760.14L 3548.11,1743.15 Z M 3548.11,1765.86L 3586.29,1765.86L 3619.7,1782.85L 3600.84,1782.85L 3584.49,1775.05L 3557.95,1775.05L 3557.95,1782.85L 3548.11,1782.85L 3548.11,1765.86 Z "/>
	</g>
	<ellipse fill="#030409" fill-opacity="1" stroke-width="16" stroke-linejoin="round" stroke="#DCFF85" stroke-opacity="1" cx="3799.93" cy="1709.9" rx="125.069" ry="120.9"/>
	<ellipse fill="#DCFF85" fill-opacity="1" stroke-width="0.2" stroke-linejoin="round" cx="3801.62" cy="1711.34" rx="75.0424" ry="75.0419"/>
</svg>
