<?xml version="1.0" encoding="utf-8"?>
<!DOCTYPE svg PUBLIC "-//W3C//DTD SVG 1.1//EN" "http://www.w3.org/Graphics/SVG/1.1/DTD/svg11.dtd">
<svg xmlns="http://www.w3.org/2000/svg" xmlns:xlink="http://www.w3.org/1999/xlink" version="1.1" baseProfile="full" width="3840" height="2160" viewBox="0 0 3840.00 2160.00" enable-background="new 0 0 3840.00 2160.00" xml:space="preserve">
	<rect x="0.000651042" y="0" fill="#030409" fill-opacity="1" fill-rule="evenodd" stroke-linejoin="round" stroke="#000000" stroke-opacity="1" width="3840" height="2160"/>
	<line fill="none" stroke-width="6" stroke-linejoin="round" stroke="#1B56E3" stroke-opacity="0.403922" x1="3136" y1="-0.000244141" x2="3136" y2="2160"/>
	<line fill="none" stroke-width="6" stroke-linejoin="round" stroke="#1B56E3" stroke-opacity="0.403922" x1="0.000228882" y1="528" x2="3840" y2="528"/>
	<g>
		<path fill="#DCFF85" fill-opacity="1" stroke-width="0.2" stroke-linejoin="round" d="M 2016.84,987.86L 2008.97,997.77L 2023.33,997.77L 2023.33,1028.67L 1987.93,1028.67L 1987.93,980.111L 2016.84,980.111L 2016.84,987.86 Z M 1997.48,1016.17L 2013.78,1016.17L 2013.78,1010.28L 1997.48,1010.28L 1997.48,1016.17 Z M 2002.85,991.148L 1997.48,991.148L 1997.4,998.288L 2002.85,991.148 Z "/>
		<path fill="#DCFF85" fill-opacity="1" stroke-width="0.2" stroke-linejoin="round" d="M 2028.16,1023.55L 2046.31,980.111L 2069.4,980.111L 2069.4,1028.67L 2049.9,1028.67L 2049.9,1016.17L 2059.85,1016.17L 2059.85,992.62L 2051.75,992.62L 2036.3,1029.41L 2028.16,1023.55 Z "/>
		<path fill="#DCFF85" fill-opacity="1" stroke-width="0.2" stroke-linejoin="round" d="M 2092.43,991.884L 2092.43,1016.17L 2106.82,1016.17L 2106.82,1028.67L 2083.44,1028.67L 2083.44,991.884L 2077.2,991.884L 2077.2,980.111L 2112.04,980.111L 2112.04,991.884L 2092.43,991.884 Z "/>
		<path fill="#DCFF85" fill-opacity="1" stroke-width="0.2" stroke-linejoin="round" d="M 2148.05,1016.17L 2148.05,980.111L 2157.6,980.111L 2157.6,1028.67L 2132.53,1028.67L 2120.52,1013L 2120.52,980.111L 2130.07,980.111L 2130.07,1007.65L 2136.41,1016.17L 2148.05,1016.17 Z "/>
		<path fill="#DCFF85" fill-opacity="1" stroke-width="0.2" stroke-linejoin="round" d="M 2193,1016.17L 2193,980.111L 2202.55,980.111L 2202.55,1028.67L 2177.48,1028.67L 2165.47,1013L 2165.47,980.111L 2175.02,980.111L 2175.02,1007.65L 2181.36,1016.17L 2193,1016.17 Z "/>
	</g>
	<g>
		<path fill="#DCFF85" fill-opacity="1" stroke-width="0.2" stroke-linejoin="round" d="M 1997.53,1046.6L 2036.6,1046.6L 2048.02,1060.12L 2048.02,1062.3L 2037.98,1062.3L 2033.36,1055.91L 2000.94,1055.91L 1996.08,1062.3L 1986.02,1062.3L 1986.02,1060.12L 1997.53,1046.6 Z M 2004.5,1062.17L 2030.6,1062.17L 2030.6,1072.13L 2004.5,1072.13L 2004.5,1062.17 Z M 1985.95,1073.29L 1995.99,1073.29L 2000.78,1078.82L 2033.27,1078.82L 2037.89,1073.37L 2047.95,1073.37L 2047.95,1075.31L 2036.51,1088.04L 1997.37,1088.04L 1985.95,1075.31L 1985.95,1073.29 Z "/>
		<path fill="#DCFF85" fill-opacity="1" stroke-width="0.2" stroke-linejoin="round" d="M 2052.48,1046.3L 2061.49,1046.3L 2061.49,1054.5L 2085.8,1054.5L 2098.2,1046.3L 2116.34,1046.3L 2085.8,1064.15L 2052.48,1064.15L 2052.48,1046.3 Z M 2052.48,1070.16L 2086.76,1070.16L 2116.75,1088L 2099.82,1088L 2085.14,1079.81L 2061.32,1079.81L 2061.32,1088L 2052.48,1088L 2052.48,1070.16 Z "/>
		<path fill="#DCFF85" fill-opacity="1" stroke-width="0.2" stroke-linejoin="round" d="M 2156.15,1046.3L 2156.15,1080.06L 2158.74,1080.06L 2172.43,1065.65L 2184.43,1065.65L 2162.8,1088L 2141.8,1088L 2120.08,1065.52L 2132.07,1065.52L 2145.85,1079.94L 2148.36,1079.94L 2148.36,1046.3L 2156.15,1046.3 Z "/>
		<path fill="#DCFF85" fill-opacity="1" stroke-width="0.2" stroke-linejoin="round" d="M 2241.89,1046.3L 2243.84,1048.36L 2243.84,1085.86L 2241.73,1088L 2187.76,1088L 2187.76,1046.3L 2197.08,1046.3L 2197.08,1078.99L 2234.52,1078.99L 2234.52,1055.91L 2222.44,1055.91L 2216.77,1063.85L 2204.69,1063.85L 2217.41,1046.3L 2241.89,1046.3 Z "/>
		<path fill="#DCFF85" fill-opacity="1" stroke-width="0.2" stroke-linejoin="round" d="M 2301.87,1046.3L 2303.82,1048.36L 2303.82,1085.86L 2301.7,1088L 2247.73,1088L 2247.73,1046.3L 2257.05,1046.3L 2257.05,1078.99L 2294.5,1078.99L 2294.5,1055.91L 2282.42,1055.91L 2276.74,1063.85L 2264.66,1063.85L 2277.39,1046.3L 2301.87,1046.3 Z "/>
	</g>
	<line fill="none" stroke-width="6" stroke-linejoin="round" stroke="#1B56E3" stroke-opacity="0.403922" x1="-9.6639e-005" y1="1335" x2="3840" y2="1335"/>
	<line fill="none" stroke-width="6" stroke-linejoin="round" stroke="#1B56E3" stroke-opacity="0.403922" x1="2396" y1="-0.000244141" x2="2396" y2="2160"/>
	<line fill="none" stroke-width="6" stroke-linejoin="round" stroke="#1B56E3" stroke-opacity="0.403922" x1="1660" y1="-0.000244141" x2="1660" y2="2160"/>
	<line fill="none" stroke-width="6" stroke-linejoin="round" stroke="#1B56E3" stroke-opacity="0.403922" x1="924.001" y1="-1.00024" x2="924.001" y2="2159"/>
	<line fill="none" stroke-width="6" stroke-linejoin="round" stroke="#1B56E3" stroke-opacity="0.403922" x1="188.001" y1="-1.00024" x2="188.001" y2="2159"/>
	<path fill="none" stroke-width="18" stroke-linejoin="round" stroke="#DCFF85" stroke-opacity="1" d="M 1242.38,709.422C 1674.23,440.591 2179.6,472.114 2371.16,779.831C 2562.71,1087.55 2367.92,1554.93 1936.07,1823.76C 1504.22,2092.59 998.848,2061.07 807.291,1753.35C 615.735,1445.64 810.53,978.253 1242.38,709.422 Z "/>
	<g>
		<path fill="#030409" fill-opacity="1" stroke-width="16" stroke-linejoin="round" stroke="#DCFF85" stroke-opacity="1" d="M 1957.46,690.101L 1991.05,704.018L 2225.1,801L 2336,533.36L 2068.36,422.461L 1969.06,662.121L 1957.46,690.101 Z "/>
		<path fill="#030409" fill-opacity="1" stroke-width="16" stroke-linejoin="round" stroke="#DCFF85" stroke-opacity="1" d="M 2006.98,671.146L 2201.63,751.8L 2283.83,553.41L 2089.19,472.756L 2006.98,671.146 Z "/>
		<path fill="#DCFF85" fill-opacity="1" stroke-width="6" stroke-linejoin="round" stroke="#DCFF85" stroke-opacity="1" d="M 2280.54,556.322L 2268.91,584.396L 2246.85,542.363L 2280.54,556.322 Z "/>
		<path fill="#DCFF85" fill-opacity="1" stroke-width="16" stroke-linejoin="round" stroke="#DCFF85" stroke-opacity="1" d="M 2085.94,588.426L 2183.29,675.228L 2172.84,624.226L 2217.19,594.15L 2085.94,588.426 Z "/>
		<path fill="#DCFF85" fill-opacity="1" stroke-width="6" stroke-linejoin="round" stroke="#DCFF85" stroke-opacity="1" d="M 2006.98,671.146L 2018.61,643.072L 2040.67,685.105L 2006.98,671.146 Z "/>
	</g>
	<path fill="none" stroke-width="33" stroke-linejoin="round" stroke="#DCFF85" stroke-opacity="1" d="M 608,2368C 608,2368 2040,576.002 2360,-191.998"/>
	<ellipse fill="#030409" fill-opacity="1" stroke-width="18" stroke-linejoin="round" stroke="#DCFF85" stroke-opacity="1" cx="1482" cy="1253.27" rx="457.999" ry="442.734"/>
	<path fill="none" stroke-width="14" stroke-linejoin="round" stroke="#DCFF85" stroke-opacity="1" d="M 1024,1280C 1024,1280 1135,1274 1152,1334C 1169,1394 1190,1373 1194,1363C 1198,1353 1196,1324 1206,1323C 1216,1322 1274,1334 1261,1312C 1248,1290 1161,1216 1161,1216C 1161,1216 1172,1152 1184,1141C 1196,1130 1164,1088 1164,1088L 1184,1056C 1184,1056 1128,1003 1105,1007"/>
	<path fill="none" stroke-width="14" stroke-linejoin="round" stroke="#DCFF85" stroke-opacity="1" d="M 1039,1376C 1039,1376 1088,1332 1099,1344C 1110,1356 1166,1456 1184,1448C 1202,1440 1203,1460 1216,1418C 1229,1376 1238,1385 1259,1376C 1280,1367 1333,1328 1312,1288C 1291,1248 1216,1214 1216,1194C 1216,1174 1239,1164 1236,1142C 1233,1120 1207,1094 1216,1075C 1225,1056 1261,1056 1280,1056C 1299,1056 1333,1024 1333,1024C 1333,1024 1372,1000 1398,1024C 1424,1048 1460,1072 1450,1048C 1440,1024 1430,972 1431,960C 1432,948 1432,884 1395,874C 1358,864 1278,858 1295,888C 1312,918 1344,913 1328,928C 1312,943 1280,946 1280,969C 1280,992 1280,992 1248,992C 1216,992 1176,990 1171,981C 1166,972 1147,957 1147,957"/>
	<path fill="none" stroke-width="14" stroke-linejoin="round" stroke="#DCFF85" stroke-opacity="1" d="M 1520,941C 1520,941 1509,965 1504,986C 1499.5,1004.89 1536,1024 1536,1024C 1536,1024 1537,1046 1499,1088C 1461,1130 1492,1123 1494,1127C 1496,1131 1536,1138 1536,1138C 1536,1138 1548,1170 1568,1152C 1588,1134 1638,1062 1626,1043C 1614,1024 1546.77,944.254 1540,938C 1527,926 1520,941 1520,941 Z "/>
	<path fill="none" stroke-width="14" stroke-linejoin="round" stroke="#DCFF85" stroke-opacity="1" d="M 1656,845C 1656,845 1643,932 1678,978C 1713,1024 1664,1094 1664,1107C 1664,1120 1600,1166 1600,1216C 1600,1266 1498,1258 1490,1260C 1482,1262 1364,1280 1408,1344C 1452,1408 1474,1454 1489,1440C 1504,1426 1536,1365 1568,1366C 1600,1367 1595,1310 1651,1331C 1707,1352 1760,1364 1760,1354C 1760,1344 1837,1321 1856,1280C 1875,1239 1908,1115 1903,1095C 1898,1075 1895,1064 1895,1064"/>
	<path fill="none" stroke-width="14" stroke-linejoin="round" stroke="#DCFF85" stroke-opacity="1" d="M 1728,882L 1728,883C 1728,883 1772,1054 1722,1115C 1672,1176 1653,1170 1652,1189C 1651,1208 1659,1229 1635,1241C 1611,1253 1576,1252 1596,1269C 1616,1286 1720,1278 1734,1284C 1748,1290 1770,1311 1789,1294C 1808,1277 1856,1194 1856,1144C 1856,1094 1864,1009 1856,1004C 1848,999 1851,992 1851,992"/>
	<path fill="none" stroke-width="14" stroke-linejoin="round" stroke="#DCFF85" stroke-opacity="1" d="M 1819,960C 1819,960 1827,1108 1804,1114C 1781,1120 1763,1111 1766,1093C 1769,1075 1752,977 1748,975C 1744,973 1744,960 1744,960L 1740,951"/>
	<path fill="none" stroke-width="14" stroke-linejoin="round" stroke="#DCFF85" stroke-opacity="1" d="M 1932,1328C 1932,1328 1855,1388 1803,1419C 1751,1450 1712,1448 1685,1428C 1658,1408 1649,1386 1632,1392C 1615,1398 1536,1444 1536,1454C 1536,1464 1549,1484 1581,1478C 1613,1472 1632,1454 1632,1479C 1632,1504 1621,1552 1588,1524C 1555,1496 1556,1504 1530,1504C 1504,1504 1440,1535 1424,1527C 1408,1519 1408,1526 1408,1490C 1408,1454 1413,1440 1391,1440C 1369,1440 1328,1416 1320,1417C 1312,1418 1308,1402 1300,1408C 1292,1414 1280,1435 1280,1459C 1280,1483 1324,1551 1324,1551C 1324,1551 1321,1554 1312,1568C 1303,1582 1297,1600 1312,1600C 1327,1600 1386,1583 1386,1583C 1386,1583 1378,1576 1398,1588C 1418,1600 1420,1609 1420,1609C 1420,1609 1456,1576 1472,1568C 1488,1560 1496,1560 1496,1560C 1496,1560 1463,1611 1460,1613C 1457,1615 1440,1641 1440,1641C 1440,1641 1450,1676 1458,1678C 1466,1680 1514,1657 1514,1657L 1544,1686L 1547,1696"/>
	<path fill="none" stroke-width="14" stroke-linejoin="round" stroke="#DCFF85" stroke-opacity="1" d="M 1844,1518C 1844,1518 1777,1520 1728,1568C 1679,1616 1660,1609 1646,1608C 1632,1607 1594,1632 1576,1632C 1558,1632 1511,1628 1536,1614C 1561,1600 1588,1594 1568,1581C 1548,1568 1518,1561 1527,1545C 1536,1529 1556,1536 1562,1536C 1568,1536 1602,1578 1617,1568C 1632,1558 1680,1520 1677,1512C 1674,1504 1670,1472 1674,1472C 1678,1472 1716,1488 1728,1485C 1740,1482 1760,1484 1792,1462C 1824,1440 1864,1408 1908,1408"/>
</svg>
