<?xml version="1.0" encoding="utf-8"?>
<!DOCTYPE svg PUBLIC "-//W3C//DTD SVG 1.1//EN" "http://www.w3.org/Graphics/SVG/1.1/DTD/svg11.dtd">
<svg xmlns="http://www.w3.org/2000/svg" xmlns:xlink="http://www.w3.org/1999/xlink" version="1.1" baseProfile="full" width="3840" height="2160" viewBox="0 0 3840.00 2160.00" enable-background="new 0 0 3840.00 2160.00" xml:space="preserve">
	<rect x="0.000651042" y="0.000488281" fill="#030409" fill-opacity="1" fill-rule="evenodd" stroke-linejoin="round" stroke="#000000" stroke-opacity="1" width="3840" height="2160"/>
	<g>
		<line fill="none" stroke-width="2" stroke-linejoin="round" stroke="#1B56E3" stroke-opacity="0.603922" x1="3584" y1="0" x2="3584" y2="2160"/>
		<line fill="none" stroke-width="2" stroke-linejoin="round" stroke="#1B56E3" stroke-opacity="0.603922" x1="3328" y1="-0.000244141" x2="3328" y2="2160"/>
		<line fill="none" stroke-width="2" stroke-linejoin="round" stroke="#1B56E3" stroke-opacity="0.603922" x1="3072" y1="0" x2="3072" y2="2160"/>
		<line fill="none" stroke-width="2" stroke-linejoin="round" stroke="#1B56E3" stroke-opacity="0.603922" x1="2816" y1="-0.000244141" x2="2816" y2="2160"/>
		<line fill="none" stroke-width="2" stroke-linejoin="round" stroke="#1B56E3" stroke-opacity="0.603922" x1="2560" y1="-0.000244141" x2="2560" y2="2160"/>
		<line fill="none" stroke-width="2" stroke-linejoin="round" stroke="#1B56E3" stroke-opacity="0.603922" x1="2304" y1="0" x2="2304" y2="2160"/>
		<line fill="none" stroke-width="2" stroke-linejoin="round" stroke="#1B56E3" stroke-opacity="0.603922" x1="2048" y1="-0.000244141" x2="2048" y2="2160"/>
		<line fill="none" stroke-width="2" stroke-linejoin="round" stroke="#1B56E3" stroke-opacity="0.603922" x1="1792" y1="-0.000244141" x2="1792" y2="2160"/>
		<line fill="none" stroke-width="2" stroke-linejoin="round" stroke="#1B56E3" stroke-opacity="0.603922" x1="1536" y1="0" x2="1536" y2="2160"/>
		<line fill="none" stroke-width="2" stroke-linejoin="round" stroke="#1B56E3" stroke-opacity="0.603922" x1="1280" y1="-0.000244141" x2="1280" y2="2160"/>
		<line fill="none" stroke-width="2" stroke-linejoin="round" stroke="#1B56E3" stroke-opacity="0.603922" x1="1024" y1="-0.000244141" x2="1024" y2="2160"/>
		<line fill="none" stroke-width="2" stroke-linejoin="round" stroke="#1B56E3" stroke-opacity="0.603922" x1="768" y1="0" x2="768" y2="2160"/>
		<line fill="none" stroke-width="2" stroke-linejoin="round" stroke="#1B56E3" stroke-opacity="0.603922" x1="512.001" y1="-0.000244141" x2="512.001" y2="2160"/>
		<line fill="none" stroke-width="2" stroke-linejoin="round" stroke="#1B56E3" stroke-opacity="0.603922" x1="256" y1="0" x2="256" y2="2160"/>
		<line fill="none" stroke-width="2" stroke-linejoin="round" stroke="#1B56E3" stroke-opacity="0.603922" x1="0.000228882" y1="256" x2="3840" y2="256"/>
		<line fill="none" stroke-width="2" stroke-linejoin="round" stroke="#1B56E3" stroke-opacity="0.603922" x1="-0.000164668" y1="512" x2="3840" y2="512"/>
		<line fill="none" stroke-width="2" stroke-linejoin="round" stroke="#1B56E3" stroke-opacity="0.603922" x1="-0.000164668" y1="768" x2="3840" y2="768"/>
		<line fill="none" stroke-width="2" stroke-linejoin="round" stroke="#1B56E3" stroke-opacity="0.603922" x1="0.000228882" y1="1024" x2="3840" y2="1024"/>
		<line fill="none" stroke-width="2" stroke-linejoin="round" stroke="#1B56E3" stroke-opacity="0.603922" x1="-0.000164668" y1="1280" x2="3840" y2="1280"/>
		<line fill="none" stroke-width="2" stroke-linejoin="round" stroke="#1B56E3" stroke-opacity="0.603922" x1="0.000228882" y1="1536" x2="3840" y2="1536"/>
		<line fill="none" stroke-width="2" stroke-linejoin="round" stroke="#1B56E3" stroke-opacity="0.603922" x1="0.000160853" y1="1792" x2="3840" y2="1792"/>
		<line fill="none" stroke-width="2" stroke-linejoin="round" stroke="#1B56E3" stroke-opacity="0.603922" x1="0.000160853" y1="2048" x2="3840" y2="2048"/>
	</g>
	<path fill="none" fill-rule="evenodd" stroke-width="6" stroke-linejoin="round" stroke="#00419A" stroke-opacity="0.231373" d="M 1938,2023L 1952,1974C 1952,1964 2036,1673 2042,1664C 2048,1655 2098,1526 2112,1515C 2126,1504 2162.13,1301.45 2164,1274C 2167,1230 2095.82,997.648 2080,966C 2071,948 2062,910 2016,871"/>
	<path fill="none" stroke-width="13" stroke-linejoin="round" stroke="#00419A" stroke-opacity="0.286275" d="M 1760,784C 1759.01,785.174 1464,755 1440,1120C 1416,1485 1824,1440 1792,1440C 1760,1440 2080,1453 2080,1152C 2080,851 1944,832 1964,832C 1984,832 1777,782 1760,784 Z "/>
	<path fill="none" stroke-width="13" stroke-linejoin="round" stroke="#00419A" stroke-opacity="0.286275" d="M 1744.62,562.23C 1671,559 1248,640 1203.62,1071.23C 1143.49,1655.39 1854.38,1644.23 1801.62,1644.23C 1748.85,1644.23 2208,1632 2284.62,1160.23C 2339.15,803.931 2080,667 2069,660C 2055.28,651.267 1920.29,553.916 1744.62,562.23 Z "/>
	<path fill="none" stroke-width="13" stroke-linejoin="round" stroke="#00419A" stroke-opacity="0.286275" d="M 1844.81,64.0203C 1429.21,64.0203 979.828,492.041 928.005,1088C 864.005,1824 928.005,1792 1408.01,2080C 1652.94,2226.96 1773.84,2294.09 1856.01,2240C 2080.9,2091.95 2449.95,1917.61 2432.01,1792C 2400.01,1568 2592.01,1130 2646.01,1065C 2785.53,897.057 2880.01,736 2752.01,480C 2659.21,294.401 2316.64,285.081 2307.65,277.021C 2286.76,258.292 2082.06,63.2317 1844.81,64.0203 Z "/>
	<path fill="none" stroke-width="13" stroke-linejoin="round" stroke="#00419A" stroke-opacity="0.286275" d="M 1760,351.995C 1408,351.995 1088,639.996 1060.55,1027.78C 1006.1,1797.12 1664,1824 1831.56,1823.98C 1984.86,1823.96 2449.13,1617.04 2473,1152C 2496,703.996 2166.18,499.722 2152,489.995C 2134.31,477.86 1960.93,351.484 1760,351.995 Z "/>
	<path fill="none" stroke-width="13" stroke-linejoin="round" stroke="#DCFF85" stroke-opacity="1" d="M 1952,2208C 1952,2208 1952,1952 1878,1885C 1814.57,1827.57 1775.04,1715.04 1756,1696C 1724,1664 1739.76,1480.48 1760,1440C 1776,1408 1787,1408 1787,1376C 1787,1344 1717,1262 1693,1252C 1668.15,1241.64 1584.7,1213.78 1568,1152C 1558,1115 1538.13,1066.88 1563,1040C 1600,1000 1611,1048 1652,974C 1686.68,911.411 1771.79,907.992 1775,888C 1784,832 1772,783 1772,783"/>
	<path fill="none" stroke-width="13" stroke-linejoin="round" stroke="#DCFF85" stroke-opacity="1" d="M 1802,763L 1807,763C 1994,782 2098,928 2223,928"/>
	<path fill="none" stroke-width="13" stroke-linejoin="round" stroke="#DCFF85" stroke-opacity="1" d="M 1808,853C 1808,853 1792,783 1782,777"/>
	<path fill="none" stroke-width="13" stroke-linejoin="round" stroke="#DCFF85" stroke-opacity="1" d="M 1824,855C 1824,855 1806,778 1796,772"/>
	<path fill="#C2E372" fill-opacity="1" stroke-linejoin="round" stroke="#C2E372" stroke-opacity="1" d="M 1950.09,746.928L 1949,778L 1965,778L 1975,763.078L 1966,747L 1950.09,746.928 Z "/>
	<path fill="none" stroke-width="10" stroke-linejoin="round" stroke="#C2E372" stroke-opacity="1" d="M 1946,739L 1931,761L 1944,786L 1969,786L 1984,764L 1971,739L 1946,739 Z "/>
	<path fill="#DCFF85" fill-opacity="1" stroke-linejoin="round" stroke="#DCFF85" stroke-opacity="1" d="M 1807.09,861.928L 1806,893L 1822,893L 1832,878.078L 1823,862L 1807.09,861.928 Z "/>
	<path fill="none" stroke-width="10" stroke-linejoin="round" stroke="#DCFF85" stroke-opacity="1" d="M 1803,854L 1788,876L 1801,901L 1826,901L 1841,879L 1828,854L 1803,854 Z "/>
	<path fill="#DCFF85" fill-opacity="1" stroke-width="0.2" stroke-linejoin="round" d="M 1771.37,731.741C 1781.66,731.741 1790,740.082 1790,750.37C 1790,760.659 1781.66,769 1771.37,769C 1761.08,769 1752.74,760.659 1752.74,750.37C 1752.74,740.082 1761.08,731.741 1771.37,731.741 Z "/>
	<ellipse fill="none" stroke-width="13" stroke-linejoin="round" stroke="#DCFF85" stroke-opacity="1" cx="1770.95" cy="750.014" rx="31.0488" ry="30.014"/>
	<path fill="#DCFF85" fill-opacity="1" stroke-width="0.2" stroke-linejoin="round" d="M 2256.47,911.713C 2266.76,911.713 2275.1,920.054 2275.1,930.342C 2275.1,940.631 2266.76,948.972 2256.47,948.972C 2246.18,948.972 2237.84,940.631 2237.84,930.342C 2237.84,920.054 2246.18,911.713 2256.47,911.713 Z "/>
	<path fill="none" stroke-width="13" stroke-linejoin="round" stroke="#DCFF85" stroke-opacity="1" d="M 2256.05,899.972C 2273.2,899.972 2287.1,913.41 2287.1,929.986C 2287.1,946.562 2273.2,960 2256.05,960C 2238.9,960 2225,946.562 2225,929.986C 2225,913.41 2238.9,899.972 2256.05,899.972 Z "/>
	<path fill="none" stroke-width="13" stroke-linejoin="round" stroke="#DCFF85" stroke-opacity="1" d="M 2304,2240L 2336,1588C 2336,1588 2292.22,1357.94 2272,1280C 2251,1200 2236.24,1177.91 2232,1144C 2229,1120 2208,1088 2240,960"/>
	<g>
		<path fill="none" stroke-width="13" stroke-linejoin="round" stroke="#DCFF85" stroke-opacity="1" d="M 1819,602L 1837.57,602L 1967,602L 1967,750L 1819,750L 1819,617.473L 1819,602 Z "/>
		<rect x="1838.66" y="620.629" fill="none" stroke-width="13" stroke-linejoin="round" stroke="#DCFF85" stroke-opacity="1" width="107.636" height="109.707"/>
		<ellipse fill="#DCFF85" fill-opacity="1" stroke-width="0.2" stroke-linejoin="round" cx="1893.52" cy="675.483" rx="18.6296" ry="18.6295"/>
		<path fill="none" stroke-width="13" stroke-linejoin="round" stroke="#DCFF85" stroke-opacity="1" d="M 1893.62,645.779C 1910.77,645.779 1924.67,659.217 1924.67,675.793C 1924.67,692.369 1910.77,705.807 1893.62,705.807C 1876.47,705.807 1862.57,692.369 1862.57,675.793C 1862.57,659.217 1876.47,645.779 1893.62,645.779 Z "/>
		<path fill="#DCFF85" fill-opacity="1" stroke-width="6" stroke-linejoin="round" stroke="#DCFF85" stroke-opacity="1" d="M 1838.66,620.629L 1838.66,636.154L 1857.29,620.629L 1838.66,620.629 Z "/>
		<path fill="#DCFF85" fill-opacity="1" stroke-width="6" stroke-linejoin="round" stroke="#DCFF85" stroke-opacity="1" d="M 1945.32,728.319L 1945.32,712.794L 1926.69,728.319L 1945.32,728.319 Z "/>
	</g>
	<line fill="none" stroke-width="13" stroke-linejoin="round" stroke="#DCFF85" stroke-opacity="1" x1="1792" y1="726" x2="1818" y2="711"/>
	<path fill="#378AFB" fill-opacity="1" stroke-width="0.2" stroke-linejoin="round" stroke="#4E9AFB" stroke-opacity="1" d="M 1649.06,963C 1657.37,963 1664.12,969.492 1664.12,977.5C 1664.12,985.508 1657.37,992 1649.06,992C 1640.74,992 1634,985.508 1634,977.5C 1634,969.492 1640.74,963 1649.06,963 Z "/>
	<path fill="#378AFB" fill-opacity="1" stroke-width="0.2" stroke-linejoin="round" stroke="#4E9AFB" stroke-opacity="1" d="M 1761.5,960C 1768.96,960 1775,965.82 1775,973C 1775,980.18 1768.96,986 1761.5,986C 1754.04,986 1748,980.18 1748,973C 1748,965.82 1754.04,960 1761.5,960 Z "/>
	<path fill="#378AFB" fill-opacity="1" stroke-width="0.2" stroke-linejoin="round" stroke="#4E9AFB" stroke-opacity="1" d="M 1515.5,888C 1522.96,888 1529,893.82 1529,901C 1529,908.18 1522.96,914 1515.5,914C 1508.04,914 1502,908.18 1502,901C 1502,893.82 1508.04,888 1515.5,888 Z "/>
	<path fill="#378AFB" fill-opacity="1" stroke-width="0.2" stroke-linejoin="round" stroke="#4E9AFB" stroke-opacity="1" d="M 1938.5,1399C 1945.96,1399 1952,1404.82 1952,1412C 1952,1419.18 1945.96,1425 1938.5,1425C 1931.04,1425 1925,1419.18 1925,1412C 1925,1404.82 1931.04,1399 1938.5,1399 Z "/>
	<path fill="#378AFB" fill-opacity="1" stroke-width="0.2" stroke-linejoin="round" stroke="#4E9AFB" stroke-opacity="1" d="M 2271.1,1257C 2279.99,1257 2287.19,1263.94 2287.19,1272.5C 2287.19,1281.06 2279.99,1288 2271.1,1288C 2262.21,1288 2255,1281.06 2255,1272.5C 2255,1263.94 2262.21,1257 2271.1,1257 Z "/>
	<path fill="#378AFB" fill-opacity="1" stroke-width="0.2" stroke-linejoin="round" stroke="#4E9AFB" stroke-opacity="1" d="M 2232.1,1128C 2240.99,1128 2248.19,1134.94 2248.19,1143.5C 2248.19,1152.06 2240.99,1159 2232.1,1159C 2223.21,1159 2216,1152.06 2216,1143.5C 2216,1134.94 2223.21,1128 2232.1,1128 Z "/>
	<path fill="#0D70F8" fill-opacity="1" stroke-width="0.2" stroke-linejoin="round" stroke="#4E9AFB" stroke-opacity="1" d="M 2042.19,1173.29C 2047.27,1173.29 2051.38,1177.26 2051.38,1182.15C 2051.38,1187.04 2047.27,1191 2042.19,1191C 2037.11,1191 2032.99,1187.04 2032.99,1182.15C 2032.99,1177.26 2037.11,1173.29 2042.19,1173.29 Z "/>
	<path fill="#0D70F8" fill-opacity="1" stroke-width="0.2" stroke-linejoin="round" stroke="#4E9AFB" stroke-opacity="1" d="M 2182,1204.74C 2187.52,1204.74 2192,1209.05 2192,1214.37C 2192,1219.69 2187.52,1224 2182,1224C 2176.48,1224 2172,1219.69 2172,1214.37C 2172,1209.05 2176.48,1204.74 2182,1204.74 Z "/>
	<path fill="#0D70F8" fill-opacity="1" stroke-width="0.2" stroke-linejoin="round" stroke="#4E9AFB" stroke-opacity="1" d="M 2105.8,1091C 2110.88,1091 2114.99,1094.96 2114.99,1099.85C 2114.99,1104.74 2110.88,1108.71 2105.8,1108.71C 2100.72,1108.71 2096.6,1104.74 2096.6,1099.85C 2096.6,1094.96 2100.72,1091 2105.8,1091 Z "/>
	<path fill="#378AFB" fill-opacity="1" stroke-width="0.2" stroke-linejoin="round" stroke="#4E9AFB" stroke-opacity="1" d="M 1005.5,1538C 1012.96,1538 1019,1543.68 1019,1550.68C 1019,1557.69 1012.96,1563.36 1005.5,1563.36C 998.044,1563.36 992,1557.69 992,1550.68C 992,1543.68 998.044,1538 1005.5,1538 Z "/>
	<path fill="none" stroke-width="8" stroke-linejoin="round" stroke="#4E9AFB" stroke-opacity="1" d="M 1005.5,1528C 1019.03,1528 1030,1538.3 1030,1551C 1030,1563.7 1019.03,1574 1005.5,1574C 991.969,1574 981,1563.7 981,1551C 981,1538.3 991.969,1528 1005.5,1528 Z "/>
	<path fill="#378AFB" fill-opacity="1" stroke-width="0.2" stroke-linejoin="round" stroke="#4E9AFB" stroke-opacity="1" d="M 1656.5,1171C 1663.96,1171 1670,1176.68 1670,1183.68C 1670,1190.69 1663.96,1196.36 1656.5,1196.36C 1649.04,1196.36 1643,1190.69 1643,1183.68C 1643,1176.68 1649.04,1171 1656.5,1171 Z "/>
	<path fill="none" stroke-width="8" stroke-linejoin="round" stroke="#4E9AFB" stroke-opacity="1" d="M 1656.5,1161C 1670.03,1161 1681,1171.3 1681,1184C 1681,1196.7 1670.03,1207 1656.5,1207C 1642.97,1207 1632,1196.7 1632,1184C 1632,1171.3 1642.97,1161 1656.5,1161 Z "/>
	<path fill="#378AFB" fill-opacity="1" stroke-width="0.2" stroke-linejoin="round" stroke="#4E9AFB" stroke-opacity="1" d="M 2866.5,1903C 2873.96,1903 2880,1908.68 2880,1915.68C 2880,1922.69 2873.96,1928.36 2866.5,1928.36C 2859.04,1928.36 2853,1922.69 2853,1915.68C 2853,1908.68 2859.04,1903 2866.5,1903 Z "/>
	<path fill="none" stroke-width="8" stroke-linejoin="round" stroke="#4E9AFB" stroke-opacity="1" d="M 2866.5,1893C 2880.03,1893 2891,1903.3 2891,1916C 2891,1928.7 2880.03,1939 2866.5,1939C 2852.97,1939 2842,1928.7 2842,1916C 2842,1903.3 2852.97,1893 2866.5,1893 Z "/>
	<text transform="matrix(1.9876885414123535 0.0000000000000000 0.0000000000000000 1.0000000000000000 1568.00 1303.00)" xml:space="preserve">
		<tspan style=" font-family:Aurek-Besh Narrow; font-size:9.457907pt;" letter-spacing="0.00em" fill="#378AFB" fill-opacity="1" stroke-width="0.2" stroke-linejoin="round">deep core</tspan>
	</text>
	<text transform="matrix(1.9876885414123535 0.0000000000000000 0.0000000000000000 1.0000000000000000 1568.00 1498.00)" xml:space="preserve">
		<tspan style=" font-family:Aurek-Besh Narrow; font-size:9.457907pt;" letter-spacing="0.00em" fill="#378AFB" fill-opacity="1" stroke-width="0.2" stroke-linejoin="round">core</tspan>
	</text>
	<text transform="matrix(1.9876885414123535 0.0000000000000000 0.0000000000000000 1.0000000000000000 1568.00 1719.00)" xml:space="preserve">
		<tspan style=" font-family:Aurek-Besh Narrow; font-size:9.457907pt;" letter-spacing="0.00em" fill="#378AFB" fill-opacity="1" stroke-width="0.2" stroke-linejoin="round">colonies</tspan>
	</text>
	<text transform="matrix(1.9876885414123535 0.0000000000000000 0.0000000000000000 1.0000000000000000 1568.00 1934.00)" xml:space="preserve">
		<tspan style=" font-family:Aurek-Besh Narrow; font-size:9.457907pt;" letter-spacing="0.00em" fill="#378AFB" fill-opacity="1" stroke-width="0.2" stroke-linejoin="round">Inner Rim</tspan>
	</text>
	<text transform="matrix(1.0000000000000000 0.0000000000000000 0.0000000000000000 1.0000000000000000 1994.00 665.00)" xml:space="preserve">
		<tspan style=" font-family:Uno Estado; font-size:33.000000pt;" letter-spacing="0.00em" fill="#DCFF85" fill-opacity="1" stroke-width="0.2" stroke-linejoin="round">CHaNDRILa</tspan>
	</text>
	<text transform="matrix(1.7188353538513184 0.0000000000000000 0.0000000000000000 1.0000000000000000 1999.00 704.00)" xml:space="preserve">
		<tspan style=" font-family:Aurek-Besh Narrow; font-size:21.044964pt;" letter-spacing="0.00em" fill="#DCFF85" fill-opacity="1" stroke-width="0.2" stroke-linejoin="round">CHANDRILA</tspan>
	</text>
	<text transform="matrix(1.0000000000000000 0.0000000000000000 0.0000000000000000 1.0000000000000000 1408.00 697.00)" xml:space="preserve">
		<tspan style=" font-family:Uno Estado; font-size:33.000000pt;" letter-spacing="0.00em" fill="#DCFF85" fill-opacity="1" stroke-width="0.2" stroke-linejoin="round">CORUSCaNT</tspan>
	</text>
	<text transform="matrix(1.7188353538513184 0.0000000000000000 0.0000000000000000 1.0000000000000000 1413.00 736.00)" xml:space="preserve">
		<tspan style=" font-family:Aurek-Besh Narrow; font-size:21.044964pt;" letter-spacing="0.00em" fill="#DCFF85" fill-opacity="1" stroke-width="0.2" stroke-linejoin="round">CORUSCANT</tspan>
	</text>
	<text transform="matrix(0.8218885660171509 0.0000000000000000 0.0000000000000000 1.0000000000000000 1801.00 935.00)" xml:space="preserve">
		<tspan style=" font-family:Uno Estado; font-size:20.588755pt;" letter-spacing="0.00em" fill="#DCFF85" fill-opacity="1" stroke-width="0.2" stroke-linejoin="round">STaSSIa aLLEY</tspan>
	</text>
	<text transform="matrix(1.5853428840637207 0.0000000000000000 0.0000000000000000 1.0000000000000000 1806.00 960.00)" xml:space="preserve">
		<tspan style=" font-family:Aurek-Besh Narrow; font-size:13.129988pt;" letter-spacing="0.00em" fill="#DCFF85" fill-opacity="1" stroke-width="0.2" stroke-linejoin="round">STASSIA ALLEY</tspan>
	</text>
	<path fill="none" stroke-width="13" stroke-linejoin="round" stroke="#00419A" stroke-opacity="0.282353" d="M 1120,2176C 1120,2176 817.498,2015.47 800,1728C 786,1498 756.778,1264.26 850,736C 946,192 1248,96 1312,64.0002C 1376,32.0002 1472,0.000244141 1472,0.000244141L 1696,-31.9998"/>
	<path fill="none" stroke-width="13" stroke-linejoin="round" stroke="#00419A" stroke-opacity="0.321569" d="M 768,2176C 736,2144 704,1696 704,1568C 704,1440 704,800 736,704C 768,608 864,0 1056,-63.9998"/>
	<path fill="none" stroke-width="13" stroke-linejoin="round" stroke="#00419A" stroke-opacity="0.282353" d="M 2560,2144C 3072,1696 3087.21,1410.45 3008,1120C 2912,768.003 2848,224.004 2720,0.00415039"/>
	<path fill="none" stroke-width="13" stroke-linejoin="round" stroke="#00419A" stroke-opacity="0.321569" d="M 3456,2304C 3456,2232.81 3513.34,2008.26 3488,1792C 3473,1664 3520,1440 3520,1376C 3520,896 3808,-0.000244141 3616,-64"/>
	<path fill="none" stroke-width="13" stroke-linejoin="round" stroke="#00419A" stroke-opacity="0.321569" d="M 3904,1856C 3903.61,1839.82 3507,1664 3524.56,1627.81C 3540.29,1595.38 3439,1616 3392,1536C 3371.77,1501.57 3365.08,1485.7 3360,1472C 3352.92,1452.92 3360,1312 3392,1170C 3403.51,1118.94 3450.61,955.922 3467,877C 3479.75,815.617 3505.13,773.287 3505,768C 3501.09,605.838 3706.51,682.811 3872,672"/>
	<path fill="#0D5FCE" fill-opacity="1" stroke-width="0.2" stroke-linejoin="round" stroke="#4E9AFB" stroke-opacity="1" d="M 1719.2,1242.06C 1724.06,1242.06 1728,1245.85 1728,1250.53C 1728,1255.21 1724.06,1259 1719.2,1259C 1714.34,1259 1710.4,1255.21 1710.4,1250.53C 1710.4,1245.85 1714.34,1242.06 1719.2,1242.06 Z "/>
	<path fill="#0D5FCE" fill-opacity="1" stroke-width="0.2" stroke-linejoin="round" stroke="#4E9AFB" stroke-opacity="1" d="M 1706.8,1344C 1711.66,1344 1715.6,1347.79 1715.6,1352.47C 1715.6,1357.15 1711.66,1360.94 1706.8,1360.94C 1701.94,1360.94 1698,1357.15 1698,1352.47C 1698,1347.79 1701.94,1344 1706.8,1344 Z "/>
	<path fill="#0D5FCE" fill-opacity="1" stroke-width="0.2" stroke-linejoin="round" stroke="#4E9AFB" stroke-opacity="1" d="M 1800.8,1391.06C 1805.66,1391.06 1809.6,1394.85 1809.6,1399.53C 1809.6,1404.21 1805.66,1408 1800.8,1408C 1795.94,1408 1792,1404.21 1792,1399.53C 1792,1394.85 1795.94,1391.06 1800.8,1391.06 Z "/>
	<path fill="#0D5FCE" fill-opacity="1" stroke-width="0.2" stroke-linejoin="round" stroke="#4E9AFB" stroke-opacity="1" d="M 1728.1,1461.22C 1732.96,1461.22 1736.9,1465.02 1736.9,1469.7C 1736.9,1474.38 1732.96,1478.17 1728.1,1478.17C 1723.25,1478.17 1719.31,1474.38 1719.31,1469.7C 1719.31,1465.02 1723.25,1461.22 1728.1,1461.22 Z "/>
	<path fill="#0D5FCE" fill-opacity="1" stroke-width="0.2" stroke-linejoin="round" stroke="#4E9AFB" stroke-opacity="1" d="M 1695.8,1445C 1700.66,1445 1704.6,1448.79 1704.6,1453.47C 1704.6,1458.15 1700.66,1461.94 1695.8,1461.94C 1690.94,1461.94 1687,1458.15 1687,1453.47C 1687,1448.79 1690.94,1445 1695.8,1445 Z "/>
	<path fill="#0D5FCE" fill-opacity="1" stroke-width="0.2" stroke-linejoin="round" stroke="#4E9AFB" stroke-opacity="1" d="M 1715.2,1546C 1720.06,1546 1724,1549.79 1724,1554.47C 1724,1559.15 1720.06,1562.94 1715.2,1562.94C 1710.34,1562.94 1706.4,1559.15 1706.4,1554.47C 1706.4,1549.79 1710.34,1546 1715.2,1546 Z "/>
	<path fill="#0D5FCE" fill-opacity="1" stroke-width="0.2" stroke-linejoin="round" stroke="#4E9AFB" stroke-opacity="1" d="M 1704.8,1608.06C 1709.66,1608.06 1713.6,1611.85 1713.6,1616.53C 1713.6,1621.21 1709.66,1625 1704.8,1625C 1699.94,1625 1696,1621.21 1696,1616.53C 1696,1611.85 1699.94,1608.06 1704.8,1608.06 Z "/>
	<path fill="#0D5FCE" fill-opacity="1" stroke-width="0.2" stroke-linejoin="round" stroke="#4E9AFB" stroke-opacity="1" d="M 1308.8,1700.06C 1313.66,1700.06 1317.6,1703.85 1317.6,1708.53C 1317.6,1713.21 1313.66,1717 1308.8,1717C 1303.94,1717 1300,1713.21 1300,1708.53C 1300,1703.85 1303.94,1700.06 1308.8,1700.06 Z "/>
	<path fill="#0D5FCE" fill-opacity="1" stroke-width="0.2" stroke-linejoin="round" stroke="#4E9AFB" stroke-opacity="1" d="M 1452.2,1702C 1457.06,1702 1461,1705.79 1461,1710.47C 1461,1715.15 1457.06,1718.94 1452.2,1718.94C 1447.34,1718.94 1443.4,1715.15 1443.4,1710.47C 1443.4,1705.79 1447.34,1702 1452.2,1702 Z "/>
	<path fill="#0D5FCE" fill-opacity="1" stroke-width="0.2" stroke-linejoin="round" stroke="#4E9AFB" stroke-opacity="1" d="M 1317.2,1760C 1322.06,1760 1326,1763.79 1326,1768.47C 1326,1773.15 1322.06,1776.94 1317.2,1776.94C 1312.34,1776.94 1308.4,1773.15 1308.4,1768.47C 1308.4,1763.79 1312.34,1760 1317.2,1760 Z "/>
	<path fill="#0D5FCE" fill-opacity="1" stroke-width="0.2" stroke-linejoin="round" stroke="#4E9AFB" stroke-opacity="1" d="M 1783.74,1789.97C 1788.6,1789.97 1792.53,1793.76 1792.53,1798.44C 1792.53,1803.12 1788.6,1806.91 1783.74,1806.91C 1778.88,1806.91 1774.94,1803.12 1774.94,1798.44C 1774.94,1793.76 1778.88,1789.97 1783.74,1789.97 Z "/>
	<path fill="#378AFB" fill-opacity="1" stroke-width="0.2" stroke-linejoin="round" stroke="#4E9AFB" stroke-opacity="1" d="M 1872.1,1867C 1880.99,1867 1888.19,1873.94 1888.19,1882.5C 1888.19,1891.06 1880.99,1898 1872.1,1898C 1863.21,1898 1856,1891.06 1856,1882.5C 1856,1873.94 1863.21,1867 1872.1,1867 Z "/>
	<path fill="#0D5FCE" fill-opacity="1" stroke-width="0.2" stroke-linejoin="round" stroke="#4E9AFB" stroke-opacity="1" d="M 2046.2,1705C 2051.06,1705 2055,1708.79 2055,1713.47C 2055,1718.15 2051.06,1721.94 2046.2,1721.94C 2041.34,1721.94 2037.4,1718.15 2037.4,1713.47C 2037.4,1708.79 2041.34,1705 2046.2,1705 Z "/>
	<path fill="#0D5FCE" fill-opacity="1" stroke-width="0.2" stroke-linejoin="round" stroke="#4E9AFB" stroke-opacity="1" d="M 2216.8,1783.06C 2221.66,1783.06 2225.6,1786.85 2225.6,1791.53C 2225.6,1796.21 2221.66,1800 2216.8,1800C 2211.94,1800 2208,1796.21 2208,1791.53C 2208,1786.85 2211.94,1783.06 2216.8,1783.06 Z "/>
	<path fill="#0D5FCE" fill-opacity="1" stroke-width="0.2" stroke-linejoin="round" stroke="#4E9AFB" stroke-opacity="1" d="M 2140.8,1845C 2145.66,1845 2149.6,1848.79 2149.6,1853.47C 2149.6,1858.15 2145.66,1861.94 2140.8,1861.94C 2135.94,1861.94 2132,1858.15 2132,1853.47C 2132,1848.79 2135.94,1845 2140.8,1845 Z "/>
	<path fill="#0D5FCE" fill-opacity="1" stroke-width="0.2" stroke-linejoin="round" stroke="#4E9AFB" stroke-opacity="1" d="M 2256.8,1879C 2261.66,1879 2265.6,1882.79 2265.6,1887.47C 2265.6,1892.15 2261.66,1895.94 2256.8,1895.94C 2251.94,1895.94 2248,1892.15 2248,1887.47C 2248,1882.79 2251.94,1879 2256.8,1879 Z "/>
	<path fill="#0D5FCE" fill-opacity="1" stroke-width="0.2" stroke-linejoin="round" stroke="#4E9AFB" stroke-opacity="1" d="M 2543.8,1917C 2548.66,1917 2552.6,1920.79 2552.6,1925.47C 2552.6,1930.15 2548.66,1933.94 2543.8,1933.94C 2538.94,1933.94 2535,1930.15 2535,1925.47C 2535,1920.79 2538.94,1917 2543.8,1917 Z "/>
	<path fill="#0D5FCE" fill-opacity="1" stroke-width="0.2" stroke-linejoin="round" stroke="#4E9AFB" stroke-opacity="1" d="M 2709.38,1883.02C 2714.23,1883.02 2718.17,1886.81 2718.17,1891.49C 2718.17,1896.17 2714.23,1899.96 2709.38,1899.96C 2704.52,1899.96 2700.58,1896.17 2700.58,1891.49C 2700.58,1886.81 2704.52,1883.02 2709.38,1883.02 Z "/>
	<path fill="#0D5FCE" fill-opacity="1" stroke-width="0.2" stroke-linejoin="round" stroke="#4E9AFB" stroke-opacity="1" d="M 2432.2,1781C 2437.06,1781 2441,1784.79 2441,1789.47C 2441,1794.15 2437.06,1797.94 2432.2,1797.94C 2427.34,1797.94 2423.4,1794.15 2423.4,1789.47C 2423.4,1784.79 2427.34,1781 2432.2,1781 Z "/>
	<path fill="#0D5FCE" fill-opacity="1" stroke-width="0.2" stroke-linejoin="round" stroke="#4E9AFB" stroke-opacity="1" d="M 2362.2,1396.06C 2367.06,1396.06 2371,1399.85 2371,1404.53C 2371,1409.21 2367.06,1413 2362.2,1413C 2357.34,1413 2353.4,1409.21 2353.4,1404.53C 2353.4,1399.85 2357.34,1396.06 2362.2,1396.06 Z "/>
	<path fill="#378AFB" fill-opacity="1" stroke-width="0.2" stroke-linejoin="round" stroke="#4E9AFB" stroke-opacity="1" d="M 2536.8,1478C 2541.66,1478 2545.6,1481.79 2545.6,1486.47C 2545.6,1491.15 2541.66,1494.94 2536.8,1494.94C 2531.94,1494.94 2528,1491.15 2528,1486.47C 2528,1481.79 2531.94,1478 2536.8,1478 Z "/>
	<path fill="#0D5FCE" fill-opacity="1" stroke-width="0.2" stroke-linejoin="round" stroke="#4E9AFB" stroke-opacity="1" d="M 2688.8,1521.06C 2693.66,1521.06 2697.6,1524.85 2697.6,1529.53C 2697.6,1534.21 2693.66,1538 2688.8,1538C 2683.94,1538 2680,1534.21 2680,1529.53C 2680,1524.85 2683.94,1521.06 2688.8,1521.06 Z "/>
	<path fill="#024AAB" fill-opacity="1" stroke-width="0.2" stroke-linejoin="round" stroke="#4E9AFB" stroke-opacity="1" d="M 1531.2,644.056C 1536.06,644.056 1540,647.849 1540,652.528C 1540,657.207 1536.06,661 1531.2,661C 1526.34,661 1522.4,657.207 1522.4,652.528C 1522.4,647.849 1526.34,644.056 1531.2,644.056 Z "/>
	<path fill="#084FAF" fill-opacity="1" stroke-width="0.2" stroke-linejoin="round" stroke="#4E9AFB" stroke-opacity="1" d="M 1528.2,478C 1533.06,478 1537,481.793 1537,486.472C 1537,491.151 1533.06,494.944 1528.2,494.944C 1523.34,494.944 1519.4,491.151 1519.4,486.472C 1519.4,481.793 1523.34,478 1528.2,478 Z "/>
	<path fill="#08479D" fill-opacity="1" stroke-width="0.2" stroke-linejoin="round" stroke="#4E9AFB" stroke-opacity="1" d="M 2042.59,710.554C 2047.44,710.554 2051.38,714.347 2051.38,719.026C 2051.38,723.705 2047.44,727.498 2042.59,727.498C 2037.73,727.498 2033.79,723.705 2033.79,719.026C 2033.79,714.347 2037.73,710.554 2042.59,710.554 Z "/>
	<path fill="#0D5FCE" fill-opacity="1" stroke-width="0.2" stroke-linejoin="round" stroke="#4E9AFB" stroke-opacity="1" d="M 2530.17,791.22C 2535.03,791.22 2538.97,795.013 2538.97,799.693C 2538.97,804.371 2535.03,808.165 2530.17,808.165C 2525.31,808.165 2521.37,804.371 2521.37,799.693C 2521.37,795.013 2525.31,791.22 2530.17,791.22 Z "/>
	<path fill="#0D5FCE" fill-opacity="1" stroke-width="0.2" stroke-linejoin="round" stroke="#4E9AFB" stroke-opacity="1" d="M 2540.34,536.22C 2545.2,536.22 2549.13,540.013 2549.13,544.693C 2549.13,549.372 2545.2,553.165 2540.34,553.165C 2535.48,553.165 2531.54,549.372 2531.54,544.693C 2531.54,540.013 2535.48,536.22 2540.34,536.22 Z "/>
	<path fill="#0D5FCE" fill-opacity="1" stroke-width="0.2" stroke-linejoin="round" stroke="#4E9AFB" stroke-opacity="1" d="M 2706.8,634.056C 2711.66,634.056 2715.6,637.849 2715.6,642.528C 2715.6,647.207 2711.66,651 2706.8,651C 2701.94,651 2698,647.207 2698,642.528C 2698,637.849 2701.94,634.056 2706.8,634.056 Z "/>
	<path fill="#0D5FCE" fill-opacity="1" stroke-width="0.2" stroke-linejoin="round" stroke="#4E9AFB" stroke-opacity="1" d="M 2612.67,1072.21C 2617.53,1072.21 2621.46,1076.01 2621.46,1080.69C 2621.46,1085.36 2617.53,1089.16 2612.67,1089.16C 2607.81,1089.16 2603.87,1085.36 2603.87,1080.69C 2603.87,1076.01 2607.81,1072.21 2612.67,1072.21 Z "/>
	<path fill="#0D5FCE" fill-opacity="1" stroke-width="0.2" stroke-linejoin="round" stroke="#4E9AFB" stroke-opacity="1" d="M 3048.8,1508C 3053.66,1508 3057.6,1511.79 3057.6,1516.47C 3057.6,1521.15 3053.66,1524.94 3048.8,1524.94C 3043.94,1524.94 3040,1521.15 3040,1516.47C 3040,1511.79 3043.94,1508 3048.8,1508 Z "/>
	<path fill="#378AFB" fill-opacity="1" stroke-width="0.2" stroke-linejoin="round" stroke="#4E9AFB" stroke-opacity="1" d="M 3105.5,1910C 3114.61,1910 3122,1916.94 3122,1925.5C 3122,1934.06 3114.61,1941 3105.5,1941C 3096.39,1941 3089,1934.06 3089,1925.5C 3089,1916.94 3096.39,1910 3105.5,1910 Z "/>
	<path fill="#185BB6" fill-opacity="1" stroke-width="0.2" stroke-linejoin="round" stroke="#4E9AFB" stroke-opacity="1" d="M 3402.5,1625C 3411.61,1625 3419,1631.94 3419,1640.5C 3419,1649.06 3411.61,1656 3402.5,1656C 3393.39,1656 3386,1649.06 3386,1640.5C 3386,1631.94 3393.39,1625 3402.5,1625 Z "/>
	<path fill="#185BB6" fill-opacity="1" stroke-width="0.2" stroke-linejoin="round" stroke="#4E9AFB" stroke-opacity="1" d="M 3436.5,1306C 3445.61,1306 3453,1312.94 3453,1321.5C 3453,1330.06 3445.61,1337 3436.5,1337C 3427.39,1337 3420,1330.06 3420,1321.5C 3420,1312.94 3427.39,1306 3436.5,1306 Z "/>
	<path fill="#185BB6" fill-opacity="1" stroke-width="0.2" stroke-linejoin="round" stroke="#4E9AFB" stroke-opacity="1" d="M 3432.5,1408C 3441.61,1408 3449,1414.94 3449,1423.5C 3449,1432.06 3441.61,1439 3432.5,1439C 3423.39,1439 3416,1432.06 3416,1423.5C 3416,1414.94 3423.39,1408 3432.5,1408 Z "/>
	<path fill="#185BB6" fill-opacity="1" stroke-width="0.2" stroke-linejoin="round" stroke="#4E9AFB" stroke-opacity="1" d="M 3608.5,1199C 3617.61,1199 3625,1205.94 3625,1214.5C 3625,1223.06 3617.61,1230 3608.5,1230C 3599.39,1230 3592,1223.06 3592,1214.5C 3592,1205.94 3599.39,1199 3608.5,1199 Z "/>
	<path fill="#0D5FCE" fill-opacity="1" stroke-width="0.2" stroke-linejoin="round" stroke="#4E9AFB" stroke-opacity="1" d="M 3457.2,1237C 3462.06,1237 3466,1240.79 3466,1245.47C 3466,1250.15 3462.06,1253.94 3457.2,1253.94C 3452.34,1253.94 3448.4,1250.15 3448.4,1245.47C 3448.4,1240.79 3452.34,1237 3457.2,1237 Z "/>
	<path fill="#0D5FCE" fill-opacity="1" stroke-width="0.2" stroke-linejoin="round" stroke="#4E9AFB" stroke-opacity="1" d="M 3223.2,815.056C 3228.06,815.056 3232,818.849 3232,823.528C 3232,828.207 3228.06,832 3223.2,832C 3218.34,832 3214.4,828.207 3214.4,823.528C 3214.4,818.849 3218.34,815.056 3223.2,815.056 Z "/>
	<path fill="#0D5FCE" fill-opacity="1" stroke-width="0.2" stroke-linejoin="round" stroke="#4E9AFB" stroke-opacity="1" d="M 3597.2,664.056C 3602.06,664.056 3606,667.849 3606,672.528C 3606,677.207 3602.06,681 3597.2,681C 3592.34,681 3588.4,677.207 3588.4,672.528C 3588.4,667.849 3592.34,664.056 3597.2,664.056 Z "/>
	<path fill="#378AFB" fill-opacity="1" stroke-width="0.2" stroke-linejoin="round" stroke="#4E9AFB" stroke-opacity="1" d="M 3638.5,859C 3647.61,859 3655,865.939 3655,874.5C 3655,883.06 3647.61,890 3638.5,890C 3629.39,890 3622,883.06 3622,874.5C 3622,865.939 3629.39,859 3638.5,859 Z "/>
	<path fill="#378AFB" fill-opacity="1" stroke-width="0.2" stroke-linejoin="round" stroke="#4E9AFB" stroke-opacity="1" d="M 3670.5,557C 3679.61,557 3687,563.939 3687,572.5C 3687,581.06 3679.61,588 3670.5,588C 3661.39,588 3654,581.06 3654,572.5C 3654,563.939 3661.39,557 3670.5,557 Z "/>
	<path fill="none" fill-rule="evenodd" stroke-width="7" stroke-linejoin="round" stroke="#00419A" stroke-opacity="0.282353" d="M 1848.06,1806C 1848.06,1806 1859.28,1788.12 1810.08,1713.95C 1768.29,1650.97 1755,1619.97 1755,1619"/>
	<path fill="#378AFB" fill-opacity="1" stroke-width="0.2" stroke-linejoin="round" stroke="#4E9AFB" stroke-opacity="1" d="M 1736.9,1589C 1745.79,1589 1753,1595.94 1753,1604.5C 1753,1613.06 1745.79,1620 1736.9,1620C 1728.01,1620 1720.81,1613.06 1720.81,1604.5C 1720.81,1595.94 1728.01,1589 1736.9,1589 Z "/>
	<path fill="none" fill-rule="evenodd" stroke-width="7" stroke-linejoin="round" stroke="#00419A" stroke-opacity="0.282353" d="M 1974,1778C 1974,1778 1950.78,1745.8 1920,1723C 1893,1703 1813,1708.97 1813,1708"/>
	<path fill="none" fill-rule="evenodd" stroke-width="7" stroke-linejoin="round" stroke="#00419A" stroke-opacity="0.282353" d="M 1714,1664C 1704.5,1653.79 1685.33,1648.17 1664.48,1645.12C 1644.6,1642.21 1573,1643 1561,1639C 1550.72,1635.57 1456.52,1567.57 1411,1534C 1393.73,1521.26 1392,1505 1394,1502"/>
	<path fill="#378AFB" fill-opacity="1" stroke-width="0.2" stroke-linejoin="round" stroke="#4E9AFB" stroke-opacity="1" d="M 1395.85,1465.78C 1406.81,1465.78 1415.69,1474.33 1415.69,1484.89C 1415.69,1495.44 1406.81,1504 1395.85,1504C 1384.89,1504 1376,1495.44 1376,1484.89C 1376,1474.33 1384.89,1465.78 1395.85,1465.78 Z "/>
	<path fill="none" fill-rule="evenodd" stroke-width="7" stroke-linejoin="round" stroke="#00419A" stroke-opacity="0.282353" d="M 2901,2186C 2901,2186 2624,1912 2592,1873C 2560.78,1834.96 2422,1698 2304,1550C 2236.93,1465.88 2193,1355 2157,1255"/>
	<ellipse fill="#378AFB" fill-opacity="1" stroke-width="0.2" stroke-linejoin="round" stroke="#4E9AFB" stroke-opacity="1" cx="2157.5" cy="1253" rx="13.5" ry="13"/>
	<path fill="#378AFB" fill-opacity="1" stroke-width="0.2" stroke-linejoin="round" stroke="#4E9AFB" stroke-opacity="1" d="M 2184.5,1307C 2191.96,1307 2198,1312.82 2198,1320C 2198,1327.18 2191.96,1333 2184.5,1333C 2177.04,1333 2171,1327.18 2171,1320C 2171,1312.82 2177.04,1307 2184.5,1307 Z "/>
	<path fill="#378AFB" fill-opacity="1" stroke-width="0.2" stroke-linejoin="round" stroke="#4E9AFB" stroke-opacity="1" d="M 2240.5,1440C 2247.96,1440 2254,1445.82 2254,1453C 2254,1460.18 2247.96,1466 2240.5,1466C 2233.04,1466 2227,1460.18 2227,1453C 2227,1445.82 2233.04,1440 2240.5,1440 Z "/>
	<path fill="#378AFB" fill-opacity="1" stroke-width="0.2" stroke-linejoin="round" stroke="#4E9AFB" stroke-opacity="1" d="M 2049.5,1623C 2056.96,1623 2063,1628.82 2063,1636C 2063,1643.18 2056.96,1649 2049.5,1649C 2042.04,1649 2036,1643.18 2036,1636C 2036,1628.82 2042.04,1623 2049.5,1623 Z "/>
	<path fill="#378AFB" fill-opacity="1" stroke-width="0.2" stroke-linejoin="round" stroke="#4E9AFB" stroke-opacity="1" d="M 1999.5,1795C 2006.96,1795 2013,1800.82 2013,1808C 2013,1815.18 2006.96,1821 1999.5,1821C 1992.04,1821 1986,1815.18 1986,1808C 1986,1800.82 1992.04,1795 1999.5,1795 Z "/>
	<path fill="#378AFB" fill-opacity="1" stroke-width="0.2" stroke-linejoin="round" stroke="#4E9AFB" stroke-opacity="1" d="M 1828.9,1813C 1837.79,1813 1845,1819.94 1845,1828.5C 1845,1837.06 1837.79,1844 1828.9,1844C 1820.01,1844 1812.81,1837.06 1812.81,1828.5C 1812.81,1819.94 1820.01,1813 1828.9,1813 Z "/>
	<path fill="#378AFB" fill-opacity="1" stroke-width="0.2" stroke-linejoin="round" stroke="#4E9AFB" stroke-opacity="1" d="M 2336.17,1568C 2346.02,1568 2354,1575.69 2354,1585.17C 2354,1594.66 2346.02,1602.35 2336.17,1602.35C 2326.32,1602.35 2318.33,1594.66 2318.33,1585.17C 2318.33,1575.69 2326.32,1568 2336.17,1568 Z "/>
	<path fill="#378AFB" fill-opacity="1" stroke-width="0.2" stroke-linejoin="round" stroke="#4E9AFB" stroke-opacity="1" d="M 2544.83,1807.5C 2553.21,1807.5 2560,1813.88 2560,1821.75C 2560,1829.62 2553.21,1836 2544.83,1836C 2536.46,1836 2529.67,1829.62 2529.67,1821.75C 2529.67,1813.88 2536.46,1807.5 2544.83,1807.5 Z "/>
	<path fill="none" fill-rule="evenodd" stroke-width="6" stroke-linejoin="round" stroke="#00419A" stroke-opacity="0.282353" d="M 1609,483C 1609,483 1694,564 1679,608C 1676,642 1696,637 1714,640C 1812,621 1805,686 1792,704"/>
	<path fill="#378AFB" fill-opacity="1" stroke-width="0.2" stroke-linejoin="round" stroke="#4E9AFB" stroke-opacity="1" d="M 1609.28,470.054C 1616.61,470.054 1622.56,475.638 1622.56,482.527C 1622.56,489.416 1616.61,495 1609.28,495C 1601.94,495 1596,489.416 1596,482.527C 1596,475.638 1601.94,470.054 1609.28,470.054 Z "/>
	<path fill="#378AFB" fill-opacity="1" stroke-width="0.2" stroke-linejoin="round" stroke="#4E9AFB" stroke-opacity="1" d="M 1674.5,570C 1683.61,570 1691,576.94 1691,585.5C 1691,594.061 1683.61,601 1674.5,601C 1665.39,601 1658,594.061 1658,585.5C 1658,576.94 1665.39,570 1674.5,570 Z "/>
	<path fill="none" fill-rule="evenodd" stroke-width="7" stroke-linejoin="round" stroke="#00419A" stroke-opacity="0.282353" d="M 1747,711C 1747,711 1738,697 1736,670C 1734.5,649.825 1725,641.969 1725,641"/>
	<path fill="none" fill-rule="evenodd" stroke-width="6" stroke-linejoin="round" stroke="#00419A" stroke-opacity="0.286275" d="M 2624,2246C 2624,2246 2639.2,1980.42 2639.63,1974.38C 2641.79,1944.16 2649.88,1852.5 2669,1842C 2720,1814 2868,1816 2899,1794C 2946.87,1760.03 3016,1732 3044,1656C 3060.01,1612.53 3118,1608 3168,1504C 3194.83,1448.2 3119,1506 3104,1424C 3099.56,1399.71 3065,1366 3104,1344C 3112.97,1338.94 3043,1327 3040,1308C 3037,1289 2953,1334 2961,1351C 2965.7,1360.99 2853.93,1326.2 2839,1323C 2825,1320 2796.51,1348.3 2790,1359C 2776,1382 2726,1299 2720,1312C 2714.95,1322.93 2705,1367 2720,1376C 2754.3,1396.58 2688,1388 2664,1387C 2644.7,1386.2 2602,1391 2602,1389C 2602,1387 2567,1358 2567,1358C 2567,1358 2496.96,1317.42 2493,1312C 2474,1286 2423,1307 2368,1306C 2340.71,1305.5 2376,1259 2360,1231C 2344,1203 2306,1132 2314,1110C 2322,1088 2368,1016 2368,1016C 2368,1016 2326,814 2259,822C 2166.44,833.052 2070,766 2043,719"/>
	<path fill="#378AFB" fill-opacity="1" stroke-width="0.2" stroke-linejoin="round" stroke="#4E9AFB" stroke-opacity="1" d="M 2359.1,1292C 2367.99,1292 2375.19,1298.94 2375.19,1307.5C 2375.19,1316.06 2367.99,1323 2359.1,1323C 2350.21,1323 2343,1316.06 2343,1307.5C 2343,1298.94 2350.21,1292 2359.1,1292 Z "/>
	<path fill="#378AFB" fill-opacity="1" stroke-width="0.2" stroke-linejoin="round" stroke="#4E9AFB" stroke-opacity="1" d="M 2486.5,1294C 2495.61,1294 2503,1300.94 2503,1309.5C 2503,1318.06 2495.61,1325 2486.5,1325C 2477.39,1325 2470,1318.06 2470,1309.5C 2470,1300.94 2477.39,1294 2486.5,1294 Z "/>
	<path fill="#378AFB" fill-opacity="1" stroke-width="0.2" stroke-linejoin="round" stroke="#4E9AFB" stroke-opacity="1" d="M 2789.5,1345C 2798.61,1345 2806,1351.94 2806,1360.5C 2806,1369.06 2798.61,1376 2789.5,1376C 2780.39,1376 2773,1369.06 2773,1360.5C 2773,1351.94 2780.39,1345 2789.5,1345 Z "/>
	<path fill="#378AFB" fill-opacity="1" stroke-width="0.2" stroke-linejoin="round" stroke="#4E9AFB" stroke-opacity="1" d="M 2716.5,1289C 2727.82,1289 2737,1297.62 2737,1308.26C 2737,1318.89 2727.82,1327.52 2716.5,1327.52C 2705.18,1327.52 2696,1318.89 2696,1308.26C 2696,1297.62 2705.18,1289 2716.5,1289 Z "/>
	<path fill="#378AFB" fill-opacity="1" stroke-width="0.2" stroke-linejoin="round" stroke="#4E9AFB" stroke-opacity="1" d="M 2962.27,1337C 2969.85,1337 2976,1342.78 2976,1349.9C 2976,1357.02 2969.85,1362.8 2962.27,1362.8C 2954.69,1362.8 2948.54,1357.02 2948.54,1349.9C 2948.54,1342.78 2954.69,1337 2962.27,1337 Z "/>
	<path fill="#378AFB" fill-opacity="1" stroke-width="0.2" stroke-linejoin="round" stroke="#4E9AFB" stroke-opacity="1" d="M 2640.83,1911C 2649.21,1911 2656,1917.38 2656,1925.25C 2656,1933.12 2649.21,1939.5 2640.83,1939.5C 2632.46,1939.5 2625.67,1933.12 2625.67,1925.25C 2625.67,1917.38 2632.46,1911 2640.83,1911 Z "/>
	<path fill="#378AFB" fill-opacity="1" stroke-width="0.2" stroke-linejoin="round" stroke="#4E9AFB" stroke-opacity="1" d="M 2372.58,1002C 2381.18,1002 2388.15,1008.72 2388.15,1017C 2388.15,1025.28 2381.18,1032 2372.58,1032C 2363.97,1032 2357,1025.28 2357,1017C 2357,1008.72 2363.97,1002 2372.58,1002 Z "/>
	<text transform="matrix(0.8218885660171509 0.0000000000000000 0.0000000000000000 1.0000000000000000 2335.00 928.00)" xml:space="preserve">
		<tspan style=" font-family:Uno Estado; font-size:20.588755pt;" letter-spacing="0.00em" fill="#DCFF85" fill-opacity="1" stroke-width="0.2" stroke-linejoin="round">KUaT</tspan>
	</text>
	<text transform="matrix(1.5853428840637207 0.0000000000000000 0.0000000000000000 1.0000000000000000 2340.00 952.00)" xml:space="preserve">
		<tspan style=" font-family:Aurek-Besh Narrow; font-size:13.129988pt;" letter-spacing="0.00em" fill="#DCFF85" fill-opacity="1" stroke-width="0.2" stroke-linejoin="round">KUAT</tspan>
	</text>
	<path fill="#378AFB" fill-opacity="1" stroke-width="0.2" stroke-linejoin="round" stroke="#4E9AFB" stroke-opacity="1" d="M 2258.5,812C 2265.96,812 2272,817.82 2272,825C 2272,832.18 2265.96,838 2258.5,838C 2251.04,838 2245,832.18 2245,825C 2245,817.82 2251.04,812 2258.5,812 Z "/>
	<text transform="matrix(0.8218885660171509 0.0000000000000000 0.0000000000000000 1.0000000000000000 2002.00 760.00)" xml:space="preserve">
		<tspan style=" font-family:Uno Estado; font-size:20.588755pt;" letter-spacing="0.00em" fill="#DCFF85" fill-opacity="1" stroke-width="0.2" stroke-linejoin="round">JINaTa aSTEROID FIELD</tspan>
	</text>
	<text transform="matrix(1.5853428840637207 0.0000000000000000 0.0000000000000000 1.0000000000000000 2007.00 784.00)" xml:space="preserve">
		<tspan style=" font-family:Aurek-Besh Narrow; font-size:13.129988pt;" letter-spacing="0.00em" fill="#DCFF85" fill-opacity="1" stroke-width="0.2" stroke-linejoin="round">jinata asteroid field</tspan>
	</text>
	<path fill="none" fill-rule="evenodd" stroke-width="6" stroke-linejoin="round" stroke="#00419A" stroke-opacity="0.282353" d="M 2373,1017C 2373,1017 2417.21,987.382 2457,989C 2486.06,990.182 2509.43,1022.31 2528,1024C 2617.63,1032.15 2688,960 2688,960C 2688,960 2673,936 2734,873C 2781.92,823.513 2737,781 2759,736C 2773.12,707.126 2837,608 2930,608C 3023,608 3006,600 3033,608C 3060,616 3118,627 3136,624C 3154,621 3371,626 3371,626C 3371,626 3456,599 3543,608C 3553.76,609.113 3580,560 3580,552"/>
	<path fill="#378AFB" fill-opacity="1" stroke-width="0.2" stroke-linejoin="round" stroke="#4E9AFB" stroke-opacity="1" d="M 2759.9,726C 2768.79,726 2776,732.939 2776,741.5C 2776,750.06 2768.79,757 2759.9,757C 2751.01,757 2743.81,750.06 2743.81,741.5C 2743.81,732.939 2751.01,726 2759.9,726 Z "/>
	<path fill="#378AFB" fill-opacity="1" stroke-width="0.2" stroke-linejoin="round" stroke="#4E9AFB" stroke-opacity="1" d="M 3537.5,586C 3546.61,586 3554,592.939 3554,601.5C 3554,610.06 3546.61,617 3537.5,617C 3528.39,617 3521,610.06 3521,601.5C 3521,592.939 3528.39,586 3537.5,586 Z "/>
	<path fill="none" stroke-width="6" stroke-linejoin="round" stroke="#00419A" stroke-opacity="0.286275" d="M 2688,960C 2688,960 2786,868 2838,841C 2890,814 3002.11,777.629 3014,768C 3093,704 3124,800 3212,712C 3265.37,658.633 3340,686 3373,631"/>
	<path fill="#378AFB" fill-opacity="1" stroke-width="0.2" stroke-linejoin="round" stroke="#4E9AFB" stroke-opacity="1" d="M 2687.1,946C 2695.99,946 2703.19,952.94 2703.19,961.5C 2703.19,970.06 2695.99,977 2687.1,977C 2678.21,977 2671,970.06 2671,961.5C 2671,952.94 2678.21,946 2687.1,946 Z "/>
	<path fill="#378AFB" fill-opacity="1" stroke-width="0.2" stroke-linejoin="round" stroke="#4E9AFB" stroke-opacity="1" d="M 2836.9,824C 2845.79,824 2853,830.939 2853,839.5C 2853,848.06 2845.79,855 2836.9,855C 2828.01,855 2820.81,848.06 2820.81,839.5C 2820.81,830.939 2828.01,824 2836.9,824 Z "/>
	<path fill="#378AFB" fill-opacity="1" stroke-width="0.2" stroke-linejoin="round" stroke="#4E9AFB" stroke-opacity="1" d="M 3370.56,612C 3380.27,612 3388.13,619.387 3388.13,628.5C 3388.13,637.613 3380.27,645 3370.56,645C 3360.86,645 3353,637.613 3353,628.5C 3353,619.387 3360.86,612 3370.56,612 Z "/>
	<path fill="none" fill-rule="evenodd" stroke-width="6" stroke-linejoin="round" stroke="#00419A" stroke-opacity="0.286275" d="M 2561,1353C 2561,1353 2665,1230 2696,1204C 2722.76,1181.55 2749.99,1160.69 2760,1148C 2816,1077 2931.13,990.232 2959,921C 2990,844 3105.13,897.292 3136,892C 3171,886 3342.24,882.171 3444,864C 3472,859 3578,903 3578,903C 3578,903 3611,921 3680,896C 3785.9,857.629 3854,896 3854,896"/>
	<path fill="#378AFB" fill-opacity="1" stroke-width="0.2" stroke-linejoin="round" stroke="#4E9AFB" stroke-opacity="1" d="M 2958.86,905.071C 2967.97,905.071 2975.36,912.011 2975.36,920.571C 2975.36,929.132 2967.97,936.071 2958.86,936.071C 2949.74,936.071 2942.36,929.132 2942.36,920.571C 2942.36,912.011 2949.74,905.071 2958.86,905.071 Z "/>
	<path fill="#378AFB" fill-opacity="1" stroke-width="0.2" stroke-linejoin="round" stroke="#4E9AFB" stroke-opacity="1" d="M 3446.5,850C 3455.61,850 3463,856.939 3463,865.5C 3463,874.06 3455.61,881 3446.5,881C 3437.39,881 3430,874.06 3430,865.5C 3430,856.939 3437.39,850 3446.5,850 Z "/>
	<path fill="#378AFB" fill-opacity="1" stroke-width="0.2" stroke-linejoin="round" stroke="#4E9AFB" stroke-opacity="1" d="M 2765.5,1127C 2774.61,1127 2782,1133.94 2782,1142.5C 2782,1151.06 2774.61,1158 2765.5,1158C 2756.39,1158 2749,1151.06 2749,1142.5C 2749,1133.94 2756.39,1127 2765.5,1127 Z "/>
	<path fill="#378AFB" fill-opacity="1" stroke-width="0.2" stroke-linejoin="round" stroke="#4E9AFB" stroke-opacity="1" d="M 2560.5,1338C 2569.61,1338 2577,1344.94 2577,1353.5C 2577,1362.06 2569.61,1369 2560.5,1369C 2551.39,1369 2544,1362.06 2544,1353.5C 2544,1344.94 2551.39,1338 2560.5,1338 Z "/>
	<path fill="none" fill-rule="evenodd" stroke-width="7" stroke-linejoin="round" stroke="#00419A" stroke-opacity="0.282353" d="M 2336,489C 2336,489 2186.75,538.207 2152,554C 2130,564 2006,624.969 2006,624"/>
	<path fill="#378AFB" fill-opacity="1" stroke-width="0.2" stroke-linejoin="round" stroke="#4E9AFB" stroke-opacity="1" d="M 2155.03,540C 2163.33,540 2170.06,546.322 2170.06,554.121C 2170.06,561.919 2163.33,568.241 2155.03,568.241C 2146.73,568.241 2140,561.919 2140,554.121C 2140,546.322 2146.73,540 2155.03,540 Z "/>
	<path fill="#1D6FE0" fill-opacity="1" stroke-width="0.2" stroke-linejoin="round" stroke="#4E9AFB" stroke-opacity="1" d="M 2333.03,480C 2341.33,480 2348.06,486.322 2348.06,494.121C 2348.06,501.919 2341.33,508.241 2333.03,508.241C 2324.73,508.241 2318,501.919 2318,494.121C 2318,486.322 2324.73,480 2333.03,480 Z "/>
	<path fill="none" fill-rule="evenodd" stroke-width="7" stroke-linejoin="round" stroke="#00419A" stroke-opacity="0.282353" d="M 1945.01,485C 1945.01,485 1939.01,492 1930.01,515C 1917.84,546.089 1920.01,579 1920.01,578"/>
	<path fill="#378AFB" fill-opacity="1" stroke-width="0.2" stroke-linejoin="round" stroke="#4E9AFB" stroke-opacity="1" d="M 1929.5,502C 1938.61,502 1946,508.939 1946,517.5C 1946,526.06 1938.61,533 1929.5,533C 1920.39,533 1913,526.06 1913,517.5C 1913,508.939 1920.39,502 1929.5,502 Z "/>
	<path fill="none" fill-rule="evenodd" stroke-width="6" stroke-linejoin="round" stroke="#00419A" stroke-opacity="0.286275" d="M 3317,2133C 3317,2133 3294.03,1918.96 3285,1888C 3271,1840 3296.84,1794.52 3296,1792C 3293,1783 3247,1739 3264,1696C 3277.14,1662.77 3276,1632 3276,1632C 3276,1632 3286,1588 3237,1543C 3233.71,1539.98 3188,1500 3168,1477C 3165.38,1473.98 3116,1479 3099,1418C 3075.16,1332.45 3088,1352 3104,1332C 3120,1312 3136,1280 3120,1248C 3104,1216 3098.33,1199.73 3117,1184C 3155,1152 3162,1104 3162,1072C 3162,1040 3136,1056 3136,1024C 3136,992 3156.93,923.474 3136,896C 3104,854 3098,851 3027,768C 3010.85,749.125 2981,729 2981,653C 2981,577 2996,597 2996,530"/>
	<path fill="#378AFB" fill-opacity="1" stroke-width="0.2" stroke-linejoin="round" stroke="#4E9AFB" stroke-opacity="1" d="M 3274.5,1620C 3283.61,1620 3291,1626.94 3291,1635.5C 3291,1644.06 3283.61,1651 3274.5,1651C 3265.39,1651 3258,1644.06 3258,1635.5C 3258,1626.94 3265.39,1620 3274.5,1620 Z "/>
	<path fill="#378AFB" fill-opacity="1" stroke-width="0.2" stroke-linejoin="round" stroke="#4E9AFB" stroke-opacity="1" d="M 3287.5,1871C 3296.61,1871 3304,1877.94 3304,1886.5C 3304,1895.06 3296.61,1902 3287.5,1902C 3278.39,1902 3271,1895.06 3271,1886.5C 3271,1877.94 3278.39,1871 3287.5,1871 Z "/>
	<path fill="#378AFB" fill-opacity="1" stroke-width="0.2" stroke-linejoin="round" stroke="#4E9AFB" stroke-opacity="1" d="M 3098.56,1318C 3108.26,1318 3116.13,1325.39 3116.13,1334.5C 3116.13,1343.61 3108.26,1351 3098.56,1351C 3088.86,1351 3081,1343.61 3081,1334.5C 3081,1325.39 3088.86,1318 3098.56,1318 Z "/>
	<path fill="#378AFB" fill-opacity="1" stroke-width="0.2" stroke-linejoin="round" stroke="#4E9AFB" stroke-opacity="1" d="M 3098.5,1403C 3107.06,1403 3114,1409.49 3114,1417.5C 3114,1425.51 3107.06,1432 3098.5,1432C 3089.94,1432 3083,1425.51 3083,1417.5C 3083,1409.49 3089.94,1403 3098.5,1403 Z "/>
	<path fill="#378AFB" fill-opacity="1" stroke-width="0.2" stroke-linejoin="round" stroke="#4E9AFB" stroke-opacity="1" d="M 3178.5,1468C 3187.61,1468 3195,1474.94 3195,1483.5C 3195,1492.06 3187.61,1499 3178.5,1499C 3169.39,1499 3162,1492.06 3162,1483.5C 3162,1474.94 3169.39,1468 3178.5,1468 Z "/>
	<path fill="#378AFB" fill-opacity="1" stroke-width="0.2" stroke-linejoin="round" stroke="#2B88FF" stroke-opacity="1" d="M 3141.54,1028C 3148.42,1028 3154,1033.37 3154,1040C 3154,1046.63 3148.42,1052 3141.54,1052C 3134.66,1052 3129.08,1046.63 3129.08,1040C 3129.08,1033.37 3134.66,1028 3141.54,1028 Z "/>
	<path fill="#378AFB" fill-opacity="1" stroke-width="0.2" stroke-linejoin="round" stroke="#4E9AFB" stroke-opacity="1" d="M 3021.9,751C 3030.79,751 3038,757.939 3038,766.5C 3038,775.06 3030.79,782 3021.9,782C 3013.01,782 3005.81,775.06 3005.81,766.5C 3005.81,757.939 3013.01,751 3021.9,751 Z "/>
	<path fill="#378AFB" fill-opacity="1" stroke-width="0.2" stroke-linejoin="round" stroke="#4E9AFB" stroke-opacity="1" d="M 3136.5,876C 3145.61,876 3153,882.939 3153,891.5C 3153,900.06 3145.61,907 3136.5,907C 3127.39,907 3120,900.06 3120,891.5C 3120,882.939 3127.39,876 3136.5,876 Z "/>
	<path fill="#378AFB" fill-opacity="1" stroke-width="0.2" stroke-linejoin="round" stroke="#4E9AFB" stroke-opacity="1" d="M 1805.5,1696C 1812.96,1696 1819,1701.82 1819,1709C 1819,1716.18 1812.96,1722 1805.5,1722C 1798.04,1722 1792,1716.18 1792,1709C 1792,1701.82 1798.04,1696 1805.5,1696 Z "/>
	<path fill="#DCFF85" fill-opacity="1" fill-rule="evenodd" stroke-linejoin="round" stroke="#000000" stroke-opacity="1" d="M 168,640L 168,640C 172.418,640 176,643.582 176,648L 176,1848C 176,1852.42 172.418,1856 168,1856L 168,1856C 163.582,1856 160,1852.42 160,1848L 160,648C 160,643.582 163.582,640 168,640 Z "/>
	<path fill="#DCFF85" fill-opacity="1" fill-rule="evenodd" stroke-linejoin="bevel" stroke="#030409" stroke-opacity="1" d="M 164,1840C 156.967,1826.01 131,1769.73 131,1766.54C 131,1756.98 164.873,1776.1 167.743,1776.1C 171.762,1776.1 204.486,1756.98 204.486,1766.54C 204.486,1770.46 180.033,1826.16 173,1840L 164,1840 Z "/>
	<g>
		<ellipse fill="#DCFF85" fill-opacity="1" stroke-width="0.2" stroke-linejoin="round" cx="233.432" cy="873.432" rx="9.43161" ry="9.43158"/>
		<text transform="matrix(1.0000000000000000 0.0000000000000000 0.0000000000000000 1.0000000000000000 256.00 882.00)" xml:space="preserve">
			<tspan style=" font-family:Uno Estado; font-size:23.197336pt;" letter-spacing="0.00em" fill="#DCFF85" fill-opacity="1" stroke-width="0.2" stroke-linejoin="round">CORUSCaNT</tspan>
		</text>
	</g>
	<g>
		<ellipse fill="#DCFF85" fill-opacity="1" stroke-width="0.2" stroke-linejoin="round" cx="233.432" cy="656.568" rx="9.43161" ry="9.43158"/>
		<text transform="matrix(1.0000000000000000 0.0000000000000000 0.0000000000000000 1.0000000000000000 256.00 666.00)" xml:space="preserve">
			<tspan style=" font-family:Uno Estado; font-size:23.197336pt;" letter-spacing="0.00em" fill="#DCFF85" fill-opacity="1" stroke-width="0.2" stroke-linejoin="round">chandrila</tspan>
		</text>
	</g>
	<g>
		<ellipse fill="#DCFF85" fill-opacity="1" stroke-width="0.2" stroke-linejoin="round" cx="233.432" cy="1097.43" rx="9.43161" ry="9.43158"/>
		<text transform="matrix(1.0000000000000000 0.0000000000000000 0.0000000000000000 1.0000000000000000 256.00 1106.00)" xml:space="preserve">
			<tspan style=" font-family:Uno Estado; font-size:23.197336pt;" letter-spacing="0.00em" fill="#DCFF85" fill-opacity="1" stroke-width="0.2" stroke-linejoin="round">beSPIN</tspan>
		</text>
	</g>
	<g>
		<ellipse fill="#DCFF85" fill-opacity="1" stroke-width="0.2" stroke-linejoin="round" cx="233.432" cy="1328.57" rx="9.43161" ry="9.43164"/>
		<text transform="matrix(1.0000000000000000 0.0000000000000000 0.0000000000000000 1.0000000000000000 256.00 1338.00)" xml:space="preserve">
			<tspan style=" font-family:Uno Estado; font-size:23.197336pt;" letter-spacing="0.00em" fill="#DCFF85" fill-opacity="1" stroke-width="0.2" stroke-linejoin="round">aDINaX NEBULA</tspan>
		</text>
	</g>
	<g>
		<path fill="#DCFF85" fill-opacity="1" stroke-width="0.2" stroke-linejoin="round" d="M 233.432,1542C 238.641,1542 242.863,1546.22 242.863,1551.43C 242.863,1556.64 238.641,1560.86 233.432,1560.86C 228.223,1560.86 224,1556.64 224,1551.43C 224,1546.22 228.223,1542 233.432,1542 Z "/>
		<text transform="matrix(1.0000000000000000 0.0000000000000000 0.0000000000000000 1.0000000000000000 256.00 1560.00)" xml:space="preserve">
			<tspan style=" font-family:Uno Estado; font-size:23.197336pt;" letter-spacing="0.00em" fill="#DCFF85" fill-opacity="1" stroke-width="0.2" stroke-linejoin="round">baTUU</tspan>
		</text>
	</g>
	<g>
		<ellipse fill="#DCFF85" fill-opacity="1" stroke-width="0.2" stroke-linejoin="round" cx="233.432" cy="1775.43" rx="9.43161" ry="9.43158"/>
		<text transform="matrix(1.0000000000000000 0.0000000000000000 0.0000000000000000 1.0000000000000000 256.00 1784.00)" xml:space="preserve">
			<tspan style=" font-family:Uno Estado; font-size:23.197336pt;" letter-spacing="0.00em" fill="#DCFF85" fill-opacity="1" stroke-width="0.2" stroke-linejoin="round">CHaNDRILa</tspan>
		</text>
	</g>
</svg>
