<?xml version="1.0" encoding="utf-8"?>
<!DOCTYPE svg PUBLIC "-//W3C//DTD SVG 1.1//EN" "http://www.w3.org/Graphics/SVG/1.1/DTD/svg11.dtd">
<svg xmlns="http://www.w3.org/2000/svg" xmlns:xlink="http://www.w3.org/1999/xlink" version="1.1" baseProfile="full" width="3840" height="2160" viewBox="0 0 3840.00 2160.00" enable-background="new 0 0 3840.00 2160.00" xml:space="preserve">
	<rect x="-1" y="0.000488281" fill="#030409" fill-opacity="1" fill-rule="evenodd" stroke-linejoin="round" stroke="#000000" stroke-opacity="1" width="3840" height="2160"/>
	<path fill="none" stroke-width="40" stroke-linejoin="round" stroke="#05408F" stroke-opacity="0.803922" d="M 3328,1433L 3136,1433L 3040,1369"/>
	<line fill="none" stroke-width="6" stroke-linejoin="round" stroke="#1B56E3" stroke-opacity="0.403922" x1="2400" y1="-0.000244141" x2="2400" y2="2160"/>
	<line fill="none" stroke-width="6" stroke-linejoin="round" stroke="#1B56E3" stroke-opacity="0.403922" x1="-9.6639e-005" y1="1216" x2="3840" y2="1216"/>
	<path fill="none" stroke-width="40" stroke-linejoin="round" stroke="#05408F" stroke-opacity="0.803922" d="M 3008,1305.47C 3008,1305.47 2565.17,1487.38 2395.49,1692.83C 2257.97,1859.35 2175.3,2182.42 2125.44,2272"/>
	<g>
		<path fill="#0083FF" fill-opacity="1" stroke-width="0.2" stroke-linejoin="round" d="M 466.831,343L 466.831,325.159L 475.648,316.66L 493.729,316.66L 493.729,323.444L 478.397,323.444L 473.707,327.972L 473.707,336.215L 493.729,336.215L 493.729,343L 466.831,343 Z "/>
		<path fill="#0083FF" fill-opacity="1" stroke-width="0.2" stroke-linejoin="round" d="M 525.885,333.422L 525.885,316.66L 499.19,316.66L 499.19,343L 525.885,343L 525.885,336.215L 506.066,336.215L 506.066,323.045L 519.009,323.045L 519.009,326.637L 513.511,326.637L 513.511,333.422L 525.885,333.422 Z "/>
		<path fill="#0083FF" fill-opacity="1" stroke-width="0.2" stroke-linejoin="round" d="M 538.424,323.444L 538.424,343L 531.548,343L 531.548,316.66L 549.598,316.66L 558.244,325.159L 558.244,343L 551.367,343L 551.367,328.065L 546.805,323.444L 538.424,323.444 Z "/>
		<path fill="#0083FF" fill-opacity="1" stroke-width="0.2" stroke-linejoin="round" d="M 574.827,323.045L 574.827,336.215L 585.186,336.215L 585.186,343L 568.356,343L 568.356,323.045L 563.862,323.045L 563.862,316.66L 588.946,316.66L 588.946,323.045L 574.827,323.045 Z "/>
		<path fill="#0083FF" fill-opacity="1" stroke-width="0.2" stroke-linejoin="round" d="M 592.865,340.219L 605.934,316.66L 622.556,316.66L 622.556,343L 608.519,343L 608.519,336.215L 615.68,336.215L 615.68,323.444L 609.853,323.444L 598.729,343.399L 592.865,340.219 Z "/>
		<path fill="#0083FF" fill-opacity="1" stroke-width="0.2" stroke-linejoin="round" d="M 629.027,332.879L 634.791,327.061L 628.294,320.557L 632.99,315.862L 645.567,328.464L 648.847,325.134L 648.847,316.585L 655.723,316.585L 655.723,327.903L 650.477,333.123L 656.45,339.103L 651.76,343.798L 639.79,331.757L 635.904,335.61L 635.904,343.075L 629.027,343.075L 629.027,332.879 Z "/>
		<path fill="#0083FF" fill-opacity="1" stroke-width="0.2" stroke-linejoin="round" d="M 678.374,323.045L 698.193,323.045L 698.193,326.637L 678.374,326.637L 678.374,343L 705.07,343L 705.07,336.215L 685.25,336.215L 685.25,333.422L 705.07,333.422L 705.07,316.66L 678.374,316.66L 678.374,323.045 Z "/>
	</g>
	<g>
		<path fill="#0083FF" fill-opacity="1" stroke-width="0.2" stroke-linejoin="round" d="M 429.4,352.879L 435.449,352.879L 435.449,370.251L 429.4,370.251L 429.4,352.879 Z M 437.398,360.628L 443.388,360.628L 443.388,370.251L 437.398,370.251L 437.398,360.628 Z M 445.328,360.628L 451.436,360.628L 451.436,378L 445.328,378L 445.328,360.628 Z "/>
		<path fill="#0083FF" fill-opacity="1" stroke-width="0.2" stroke-linejoin="round" d="M 493.871,352.696L 493.871,358.519L 489.771,358.519L 489.771,378L 484.203,378L 484.203,358.519L 483.452,358.519L 473.733,378L 466.605,378L 453.866,352.696L 460.716,352.696L 470.224,370.795L 479.453,352.696L 493.871,352.696 Z "/>
		<path fill="#0083FF" fill-opacity="1" stroke-width="0.2" stroke-linejoin="round" d="M 504.779,373.111L 505.429,373.059L 516.818,352.721L 523.947,352.721L 539.115,378L 532.096,378L 520.437,358.028L 509.149,378L 502.189,378L 501.81,377.976L 501.109,377.037L 500.46,376.025L 499.591,374.619L 498.84,373.006L 498.14,371.315L 497.701,369.365L 497.271,367.154L 497.111,364.867L 497.001,362.396L 497.49,360.498L 497.921,358.471L 498.41,356.935L 499.161,355.528L 499.861,354.31L 500.73,353.294L 501.211,352.773L 506.399,352.773L 505.479,353.578L 504.779,354.569L 504.02,355.789L 503.48,356.987L 502.999,358.471L 502.51,360.421L 502.189,362.579L 502.021,364.736L 502.189,366.894L 502.62,369.182L 503.159,370.925L 503.75,371.994L 504.779,373.111 Z "/>
		<path fill="#0083FF" fill-opacity="1" stroke-width="0.2" stroke-linejoin="round" d="M 564.981,352.721L 564.981,373.189L 566.711,373.189L 575.83,364.452L 583.819,364.452L 569.41,378L 555.423,378L 540.954,364.371L 548.944,364.371L 558.122,373.111L 559.793,373.111L 559.793,352.721L 564.981,352.721 Z "/>
		<path fill="#0083FF" fill-opacity="1" stroke-width="0.2" stroke-linejoin="round" d="M 586.089,352.721L 592.087,352.721L 592.087,357.69L 608.285,357.69L 616.544,352.721L 628.633,352.721L 608.285,363.542L 586.089,363.542L 586.089,352.721 Z M 586.089,367.183L 608.926,367.183L 628.903,378L 617.624,378L 607.846,373.034L 591.977,373.034L 591.977,378L 586.089,378L 586.089,367.183 Z "/>
		<path fill="#0083FF" fill-opacity="1" stroke-width="0.2" stroke-linejoin="round" d="M 663.568,375.424L 657.688,378L 637.492,378L 631.662,375.424L 645.16,352.773L 651.099,352.773L 663.568,375.424 Z M 655.9,373.006L 648.13,358.34L 639.601,373.006L 655.9,373.006 Z "/>
	</g>
	<g>
		<path fill="#DCFF85" fill-opacity="1" stroke-width="0.2" stroke-linejoin="round" d="M 2851.93,512L 2851.93,479.106L 2864.18,463.436L 2889.29,463.436L 2889.29,475.945L 2868,475.945L 2861.48,484.292L 2861.48,499.491L 2889.29,499.491L 2889.29,512L 2851.93,512 Z "/>
		<path fill="#DCFF85" fill-opacity="1" stroke-width="0.2" stroke-linejoin="round" d="M 2933.96,463.436L 2933.96,512L 2896.88,512L 2896.88,463.436L 2933.96,463.436 Z M 2924.41,475.945L 2906.43,475.945L 2906.43,499.491L 2924.41,499.491L 2924.41,475.945 Z "/>
		<path fill="#DCFF85" fill-opacity="1" stroke-width="0.2" stroke-linejoin="round" d="M 2941.82,512L 2941.82,463.436L 2977.22,463.436L 2977.22,493.604L 2963.13,493.604L 2977.22,512L 2965.4,512L 2951.38,493.754L 2951.38,512L 2941.82,512 Z M 2967.67,475.945L 2951.38,475.945L 2951.38,481.095L 2967.67,481.095L 2967.67,475.945 Z "/>
		<path fill="#DCFF85" fill-opacity="1" stroke-width="0.2" stroke-linejoin="round" d="M 3012.61,499.491L 3012.61,463.436L 3022.16,463.436L 3022.16,512L 2997.09,512L 2985.08,496.329L 2985.08,463.436L 2994.64,463.436L 2994.64,490.972L 3000.97,499.491L 3012.61,499.491 Z "/>
		<path fill="#DCFF85" fill-opacity="1" stroke-width="0.2" stroke-linejoin="round" d="M 3067.11,475.209L 3039.58,475.209L 3039.58,481.831L 3067.11,481.831L 3067.11,512L 3030.03,512L 3030.03,499.491L 3057.56,499.491L 3057.56,494.34L 3030.03,494.34L 3030.03,463.436L 3067.11,463.436L 3067.11,475.209 Z "/>
		<path fill="#DCFF85" fill-opacity="1" stroke-width="0.2" stroke-linejoin="round" d="M 3074.98,512L 3074.98,479.106L 3087.22,463.436L 3112.34,463.436L 3112.34,475.945L 3091.04,475.945L 3084.53,484.292L 3084.53,499.491L 3112.34,499.491L 3112.34,512L 3074.98,512 Z "/>
		<path fill="#DCFF85" fill-opacity="1" stroke-width="0.2" stroke-linejoin="round" d="M 3116.88,506.872L 3135.04,463.436L 3158.13,463.436L 3158.13,512L 3138.63,512L 3138.63,499.491L 3148.57,499.491L 3148.57,475.945L 3140.48,475.945L 3125.03,512.736L 3116.88,506.872 Z "/>
		<path fill="#DCFF85" fill-opacity="1" stroke-width="0.2" stroke-linejoin="round" d="M 3175.54,475.945L 3175.54,512L 3165.99,512L 3165.99,463.436L 3191.06,463.436L 3203.07,479.106L 3203.07,512L 3193.52,512L 3193.52,484.464L 3187.18,475.945L 3175.54,475.945 Z "/>
		<path fill="#DCFF85" fill-opacity="1" stroke-width="0.2" stroke-linejoin="round" d="M 3226.11,475.209L 3226.11,499.491L 3240.49,499.491L 3240.49,512L 3217.12,512L 3217.12,475.209L 3210.88,475.209L 3210.88,463.436L 3245.72,463.436L 3245.72,475.209L 3226.11,475.209 Z "/>
	</g>
	<g>
		<path fill="#DCFF85" fill-opacity="1" stroke-width="0.2" stroke-linejoin="round" d="M 2850.1,534.563L 2859.18,534.563L 2859.18,563.218L 2850.1,563.218L 2850.1,534.563 Z M 2862.11,547.346L 2871.1,547.346L 2871.1,563.218L 2862.11,563.218L 2862.11,547.346 Z M 2874.01,547.346L 2883.18,547.346L 2883.18,576L 2874.01,576L 2874.01,547.346 Z "/>
		<path fill="#DCFF85" fill-opacity="1" stroke-width="0.2" stroke-linejoin="round" d="M 2928.4,534.302L 2941.85,567.461L 2936.51,576L 2892.98,576L 2887.47,567.333L 2900.44,534.302L 2928.4,534.302 Z M 2896.87,566.864L 2932.37,566.864L 2923.21,543.914L 2906.03,543.914L 2896.87,566.864 Z "/>
		<path fill="#DCFF85" fill-opacity="1" stroke-width="0.2" stroke-linejoin="round" d="M 2995.58,534.302L 2961.71,576L 2950.04,576L 2974.84,545.114L 2974.84,544.383L 2945.09,544.383L 2952.31,534.302L 2995.58,534.302 Z "/>
		<path fill="#DCFF85" fill-opacity="1" stroke-width="0.2" stroke-linejoin="round" d="M 3053.46,534.302L 3055.41,536.36L 3055.41,573.855L 3053.29,576L 2999.32,576L 2999.32,534.302L 3008.64,534.302L 3008.64,566.992L 3046.09,566.992L 3046.09,543.914L 3034.01,543.914L 3028.33,551.85L 3016.25,551.85L 3028.98,534.302L 3053.46,534.302 Z "/>
		<path fill="#DCFF85" fill-opacity="1" stroke-width="0.2" stroke-linejoin="round" d="M 3078.51,534.302L 3110.19,566.093L 3110.19,534.302L 3119.11,534.302L 3119.11,576L 3106.87,576L 3065.13,534.302L 3078.51,534.302 Z M 3061.73,556.18L 3094.06,567.937L 3091.22,576L 3058.72,564.458L 3061.73,556.18 Z "/>
		<path fill="#DCFF85" fill-opacity="1" stroke-width="0.2" stroke-linejoin="round" d="M 3123.23,534.563L 3132.31,534.563L 3132.31,563.218L 3123.23,563.218L 3123.23,534.563 Z M 3135.24,547.346L 3144.23,547.346L 3144.23,563.218L 3135.24,563.218L 3135.24,547.346 Z M 3147.14,547.346L 3156.31,547.346L 3156.31,576L 3147.14,576L 3147.14,547.346 Z "/>
		<path fill="#DCFF85" fill-opacity="1" stroke-width="0.2" stroke-linejoin="round" d="M 3160.68,534.302L 3169.68,534.302L 3169.68,542.5L 3194,542.5L 3206.4,534.302L 3224.54,534.302L 3194,552.151L 3160.68,552.151L 3160.68,534.302 Z M 3160.68,558.157L 3194.96,558.157L 3224.95,576L 3208.02,576L 3193.34,567.809L 3169.52,567.809L 3169.52,576L 3160.68,576L 3160.68,558.157 Z "/>
		<path fill="#DCFF85" fill-opacity="1" stroke-width="0.2" stroke-linejoin="round" d="M 3241.25,567.937L 3242.22,567.849L 3259.32,534.302L 3270.02,534.302L 3292.79,576L 3282.25,576L 3264.75,543.056L 3247.81,576L 3237.36,576L 3236.79,575.96L 3235.74,574.411L 3234.76,572.743L 3233.46,570.423L 3232.33,567.762L 3231.28,564.974L 3230.62,561.757L 3229.98,558.11L 3229.74,554.337L 3229.57,550.261L 3230.31,547.131L 3230.95,543.787L 3231.69,541.253L 3232.81,538.934L 3233.86,536.923L 3235.17,535.247L 3235.89,534.389L 3243.68,534.389L 3242.3,535.716L 3241.25,537.352L 3240.11,539.363L 3239.3,541.34L 3238.58,543.787L 3237.84,547.004L 3237.36,550.563L 3237.11,554.122L 3237.36,557.681L 3238.01,561.455L 3238.82,564.331L 3239.7,566.093L 3241.25,567.937 Z "/>
		<path fill="#DCFF85" fill-opacity="1" stroke-width="0.2" stroke-linejoin="round" d="M 3331.62,534.302L 3331.62,568.064L 3334.21,568.064L 3347.9,553.653L 3359.89,553.653L 3338.26,576L 3317.27,576L 3295.55,553.519L 3307.54,553.519L 3321.32,567.937L 3323.83,567.937L 3323.83,534.302L 3331.62,534.302 Z "/>
	</g>
	<path fill="#267FF8" fill-opacity="1" stroke-width="0.2" stroke-linejoin="round" stroke="#267FF8" stroke-opacity="1" d="M 2036.55,1696C 2063.91,1696 2086.1,1717.49 2086.1,1744C 2086.1,1770.51 2063.91,1792 2036.55,1792C 2009.18,1792 1987,1770.51 1987,1744C 1987,1717.49 2009.18,1696 2036.55,1696 Z "/>
	<path fill="none" stroke-width="40" stroke-linejoin="round" stroke="#C1E076" stroke-opacity="0.803922" d="M 2124,-192C 2124,-192 2111.18,1179.04 2624,2304"/>
	<ellipse fill="#030409" fill-opacity="1" stroke-width="18" stroke-linejoin="round" stroke="#DCFF85" stroke-opacity="1" cx="2383.99" cy="1192" rx="720.001" ry="696.005"/>
	<path fill="none" stroke-width="18" stroke-linejoin="round" stroke="#DCFF85" stroke-opacity="1" d="M 736,2208C 736,2208 672,1056 1376,-64"/>
	<g>
		<path fill="#030409" fill-opacity="1" stroke-width="16" stroke-linejoin="round" stroke="#DCFF85" stroke-opacity="1" d="M 698.273,1344L 691.695,1372.83L 645.854,1573.73L 875.581,1626.15L 928,1396.42L 722.29,1349.48L 698.273,1344 Z "/>
		<path fill="#030409" fill-opacity="1" stroke-width="16" stroke-linejoin="round" stroke="#DCFF85" stroke-opacity="1" d="M 720.226,1381.12L 682.103,1548.2L 852.39,1587.05L 890.513,1419.98L 720.226,1381.12 Z "/>
		<path fill="#DCFF85" fill-opacity="1" stroke-width="6" stroke-linejoin="round" stroke="#DCFF85" stroke-opacity="1" d="M 849.607,1584.81L 825.51,1579.31L 856.205,1555.9L 849.607,1584.81 Z "/>
		<path fill="#DCFF85" fill-opacity="1" stroke-width="16" stroke-linejoin="round" stroke="#DCFF85" stroke-opacity="1" d="M 797.322,1433.15L 741,1523.05L 780.47,1507.72L 810.633,1539.17L 797.322,1433.15 Z "/>
		<path fill="#DCFF85" fill-opacity="1" stroke-width="6" stroke-linejoin="round" stroke="#DCFF85" stroke-opacity="1" d="M 720.226,1381.12L 744.323,1386.62L 713.628,1410.04L 720.226,1381.12 Z "/>
	</g>
	<line fill="none" stroke-width="6" stroke-linejoin="round" stroke="#1B56E3" stroke-opacity="0.403922" x1="992" y1="-0.000244141" x2="992" y2="2160"/>
	<path fill="#267FF8" fill-opacity="1" stroke-width="0.2" stroke-linejoin="round" stroke="#267FF8" stroke-opacity="1" d="M 799.999,287.999C 835.345,287.999 863.998,316.652 863.998,351.999C 863.998,387.345 835.345,415.999 799.999,415.999C 764.652,415.999 735.999,387.345 735.999,351.999C 735.999,316.652 764.652,287.999 799.999,287.999 Z "/>
	<path fill="#267FF8" fill-opacity="1" stroke-width="0.2" stroke-linejoin="round" stroke="#267FF8" stroke-opacity="1" d="M 1248,1888C 1283.35,1888 1312,1916.65 1312,1952C 1312,1987.35 1283.35,2016 1248,2016C 1212.65,2016 1184,1987.35 1184,1952C 1184,1916.65 1212.65,1888 1248,1888 Z "/>
	<path fill="#030409" fill-opacity="1" stroke-width="20" stroke-linejoin="round" stroke="#4E9AFB" stroke-opacity="1" d="M 3326.43,1376C 3362.65,1376 3392,1403.56 3392,1437.55C 3392,1471.55 3362.65,1499.1 3326.43,1499.1C 3290.22,1499.1 3260.87,1471.55 3260.87,1437.55C 3260.87,1403.56 3290.22,1376 3326.43,1376 Z "/>
	<path fill="#378AFB" fill-opacity="1" stroke-width="0.2" stroke-linejoin="round" stroke="#4E9AFB" stroke-opacity="1" d="M 3326.24,1396.57C 3350.33,1396.57 3369.86,1414.92 3369.86,1437.55C 3369.86,1460.19 3350.33,1478.54 3326.24,1478.54C 3302.14,1478.54 3282.61,1460.19 3282.61,1437.55C 3282.61,1414.92 3302.14,1396.57 3326.24,1396.57 Z "/>
	<g>
		<path fill="#0083FF" fill-opacity="1" stroke-width="0.2" stroke-linejoin="round" d="M 1355.44,1950L 1355.44,1940.02L 1343.71,1940.02L 1343.71,1950L 1336.83,1950L 1336.83,1923.66L 1343.71,1923.66L 1343.71,1933.24L 1355.44,1933.24L 1355.44,1923.66L 1362.31,1923.66L 1362.31,1950L 1355.44,1950 Z "/>
		<path fill="#0083FF" fill-opacity="1" stroke-width="0.2" stroke-linejoin="round" d="M 1394.67,1940.42L 1394.67,1923.66L 1367.98,1923.66L 1367.98,1950L 1394.67,1950L 1394.67,1943.22L 1374.85,1943.22L 1374.85,1930.05L 1387.8,1930.05L 1387.8,1933.64L 1382.3,1933.64L 1382.3,1940.42L 1394.67,1940.42 Z "/>
		<path fill="#0083FF" fill-opacity="1" stroke-width="0.2" stroke-linejoin="round" d="M 1427.03,1930.05L 1407.21,1930.05L 1407.21,1933.64L 1427.03,1933.64L 1427.03,1950L 1400.33,1950L 1400.33,1943.22L 1420.15,1943.22L 1420.15,1940.42L 1400.33,1940.42L 1400.33,1923.66L 1427.03,1923.66L 1427.03,1930.05 Z "/>
		<path fill="#0083FF" fill-opacity="1" stroke-width="0.2" stroke-linejoin="round" d="M 1459.79,1923.66L 1432.69,1923.66L 1432.69,1923.74L 1432.69,1956.78L 1439.57,1956.78L 1439.57,1950L 1449.9,1950L 1459.79,1941.5L 1459.79,1923.66 Z M 1452.92,1930.44L 1452.92,1938.78L 1448.27,1943.22L 1439.57,1943.22L 1439.57,1930.44L 1452.92,1930.44 Z "/>
		<path fill="#0083FF" fill-opacity="1" stroke-width="0.2" stroke-linejoin="round" d="M 1492.15,1940.42L 1492.15,1923.66L 1465.46,1923.66L 1465.46,1950L 1492.15,1950L 1492.15,1943.22L 1472.33,1943.22L 1472.33,1930.05L 1485.28,1930.05L 1485.28,1933.64L 1479.78,1933.64L 1479.78,1940.42L 1492.15,1940.42 Z "/>
		<path fill="#0083FF" fill-opacity="1" stroke-width="0.2" stroke-linejoin="round" d="M 1497.81,1950L 1497.81,1923.66L 1523.3,1923.66L 1523.3,1940.02L 1513.15,1940.02L 1523.3,1950L 1514.79,1950L 1504.69,1940.1L 1504.69,1950L 1497.81,1950 Z M 1516.42,1930.44L 1504.69,1930.44L 1504.69,1933.24L 1516.42,1933.24L 1516.42,1930.44 Z "/>
		<rect x="1528.96" y="1923.66" fill="#0083FF" fill-opacity="1" stroke-width="0.2" stroke-linejoin="round" width="6.87622" height="26.34"/>
		<path fill="#0083FF" fill-opacity="1" stroke-width="0.2" stroke-linejoin="round" d="M 1568.19,1923.66L 1568.19,1941.5L 1559.55,1950L 1541.5,1950L 1541.5,1923.66L 1568.19,1923.66 Z M 1561.32,1930.44L 1548.37,1930.44L 1548.37,1943.22L 1556.75,1943.22L 1561.32,1938.69L 1561.32,1930.44 Z "/>
		<rect x="1573.86" y="1923.66" fill="#0083FF" fill-opacity="1" stroke-width="0.2" stroke-linejoin="round" width="6.87634" height="26.34"/>
		<path fill="#0083FF" fill-opacity="1" stroke-width="0.2" stroke-linejoin="round" d="M 1606.21,1943.22L 1606.21,1923.66L 1613.09,1923.66L 1613.09,1950L 1595.04,1950L 1586.39,1941.5L 1586.39,1923.66L 1593.27,1923.66L 1593.27,1938.59L 1597.83,1943.22L 1606.21,1943.22 Z "/>
		<path fill="#0083FF" fill-opacity="1" stroke-width="0.2" stroke-linejoin="round" d="M 1637.76,1930.44L 1639.5,1930.44L 1644.24,1935.07L 1644.24,1950L 1651.11,1950L 1651.11,1932.16L 1642.47,1923.66L 1618.75,1923.66L 1618.75,1950L 1625.63,1950L 1625.63,1930.44L 1631.29,1930.44L 1631.29,1950L 1637.76,1950L 1637.76,1930.44 Z "/>
	</g>
	<g>
		<path fill="#0083FF" fill-opacity="1" stroke-width="0.2" stroke-linejoin="round" d="M 1378.14,1958.64L 1378.14,1964.47L 1336.35,1964.47L 1336.35,1958.64L 1378.14,1958.64 Z M 1343.48,1968.37L 1370.96,1968.37L 1370.96,1974.19L 1343.48,1974.19L 1343.48,1968.37 Z M 1336.35,1978.15L 1378.14,1978.15L 1378.14,1984L 1336.35,1984L 1336.35,1978.15 Z "/>
		<path fill="#0083FF" fill-opacity="1" stroke-width="0.2" stroke-linejoin="round" d="M 1420.85,1958.7L 1420.85,1964.52L 1416.75,1964.52L 1416.75,1984L 1411.18,1984L 1411.18,1964.52L 1410.43,1964.52L 1400.71,1984L 1393.58,1984L 1380.84,1958.7L 1387.69,1958.7L 1397.2,1976.8L 1406.43,1958.7L 1420.85,1958.7 Z "/>
		<path fill="#0083FF" fill-opacity="1" stroke-width="0.2" stroke-linejoin="round" d="M 1436.73,1958.72L 1457.83,1977.99L 1457.83,1958.72L 1463.77,1958.72L 1463.77,1984L 1455.62,1984L 1427.82,1958.72L 1436.73,1958.72 Z M 1425.55,1971.98L 1447.09,1979.11L 1445.2,1984L 1423.55,1977L 1425.55,1971.98 Z "/>
		<path fill="#0083FF" fill-opacity="1" stroke-width="0.2" stroke-linejoin="round" d="M 1492.71,1958.85L 1492.71,1984L 1471.87,1984C 1468.42,1981.68 1466.58,1977.91 1466.36,1972.71C 1466.8,1967.13 1469.03,1962.52 1473.06,1958.88L 1482.13,1958.88L 1482.13,1964.96L 1475.81,1964.96L 1475.81,1963.61L 1474.84,1963.61C 1473.4,1965.14 1472.68,1968.17 1472.68,1972.71C 1472.61,1976.08 1473.13,1977.91 1474.25,1978.23L 1486.34,1978.23L 1486.34,1958.83L 1492.71,1958.85 Z "/>
		<path fill="#0083FF" fill-opacity="1" stroke-width="0.2" stroke-linejoin="round" d="M 1535.31,1958.7L 1535.31,1964.52L 1531.21,1964.52L 1531.21,1984L 1525.64,1984L 1525.64,1964.52L 1524.89,1964.52L 1515.18,1984L 1508.05,1984L 1495.31,1958.7L 1502.16,1958.7L 1511.67,1976.8L 1520.9,1958.7L 1535.31,1958.7 Z "/>
		<path fill="#0083FF" fill-opacity="1" stroke-width="0.2" stroke-linejoin="round" d="M 1572.08,1958.72L 1549.51,1984L 1541.74,1984L 1558.26,1965.28L 1558.26,1964.83L 1538.44,1964.83L 1543.25,1958.72L 1572.08,1958.72 Z "/>
		<path fill="#0083FF" fill-opacity="1" stroke-width="0.2" stroke-linejoin="round" d="M 1589.47,1958.64L 1589.47,1984L 1584.13,1984L 1584.13,1965.02L 1578.4,1970.11L 1574.24,1966.37C 1574.2,1966.23 1574.28,1966.09 1574.46,1965.95L 1582.51,1958.64L 1589.47,1958.64 Z "/>
		<path fill="#0083FF" fill-opacity="1" stroke-width="0.2" stroke-linejoin="round" d="M 1624.45,1958.9L 1624.35,1959.35L 1602.26,1984L 1594.27,1984L 1603.29,1974.38L 1593.52,1974.38L 1597.67,1968.6L 1608.58,1968.6L 1612.14,1964.68L 1592.11,1964.65L 1596,1958.9L 1624.45,1958.9 Z "/>
		<path fill="#0083FF" fill-opacity="1" stroke-width="0.2" stroke-linejoin="round" d="M 1641.84,1958.64L 1641.84,1984L 1636.5,1984L 1636.5,1965.02L 1630.77,1970.11L 1626.61,1966.37C 1626.58,1966.23 1626.65,1966.09 1626.83,1965.95L 1634.88,1958.64L 1641.84,1958.64 Z "/>
		<path fill="#0083FF" fill-opacity="1" stroke-width="0.2" stroke-linejoin="round" d="M 1680.82,1958.72L 1682.12,1959.97L 1682.12,1982.7L 1680.71,1984L 1644.76,1984L 1644.76,1958.72L 1650.97,1958.72L 1650.97,1978.54L 1675.91,1978.54L 1675.91,1964.55L 1667.86,1964.55L 1664.09,1969.36L 1656.04,1969.36L 1664.52,1958.72L 1680.82,1958.72 Z "/>
		<path fill="#0083FF" fill-opacity="1" stroke-width="0.2" stroke-linejoin="round" d="M 1707.66,1958.72L 1707.66,1965.51L 1702.15,1965.56L 1694.86,1978.17L 1709.39,1978.17L 1705.88,1984L 1684.92,1984L 1699.02,1958.72L 1707.66,1958.72 Z "/>
	</g>
	<g>
		<path fill="#0083FF" fill-opacity="1" stroke-width="0.2" stroke-linejoin="round" d="M 3414.83,1440L 3414.83,1422.16L 3423.65,1413.66L 3441.73,1413.66L 3441.73,1420.44L 3426.4,1420.44L 3421.71,1424.97L 3421.71,1433.22L 3441.73,1433.22L 3441.73,1440L 3414.83,1440 Z "/>
		<path fill="#0083FF" fill-opacity="1" stroke-width="0.2" stroke-linejoin="round" d="M 3473.89,1430.42L 3473.89,1413.66L 3447.19,1413.66L 3447.19,1440L 3473.89,1440L 3473.89,1433.22L 3454.07,1433.22L 3454.07,1420.05L 3467.01,1420.05L 3467.01,1423.64L 3461.51,1423.64L 3461.51,1430.42L 3473.89,1430.42 Z "/>
		<path fill="#0083FF" fill-opacity="1" stroke-width="0.2" stroke-linejoin="round" d="M 3486.42,1420.44L 3486.42,1440L 3479.55,1440L 3479.55,1413.66L 3497.6,1413.66L 3506.24,1422.16L 3506.24,1440L 3499.37,1440L 3499.37,1425.07L 3494.8,1420.44L 3486.42,1420.44 Z "/>
		<path fill="#0083FF" fill-opacity="1" stroke-width="0.2" stroke-linejoin="round" d="M 3522.83,1420.05L 3522.83,1433.22L 3533.19,1433.22L 3533.19,1440L 3516.36,1440L 3516.36,1420.05L 3511.86,1420.05L 3511.86,1413.66L 3536.95,1413.66L 3536.95,1420.05L 3522.83,1420.05 Z "/>
		<path fill="#0083FF" fill-opacity="1" stroke-width="0.2" stroke-linejoin="round" d="M 3540.86,1437.22L 3553.93,1413.66L 3570.56,1413.66L 3570.56,1440L 3556.52,1440L 3556.52,1433.22L 3563.68,1433.22L 3563.68,1420.44L 3557.85,1420.44L 3546.73,1440.4L 3540.86,1437.22 Z "/>
		<path fill="#0083FF" fill-opacity="1" stroke-width="0.2" stroke-linejoin="round" d="M 3577.03,1429.88L 3582.79,1424.06L 3576.29,1417.56L 3580.99,1412.86L 3593.57,1425.46L 3596.85,1422.13L 3596.85,1413.59L 3603.72,1413.59L 3603.72,1424.9L 3598.48,1430.12L 3604.45,1436.1L 3599.76,1440.8L 3587.79,1428.76L 3583.9,1432.61L 3583.9,1440.07L 3577.03,1440.07L 3577.03,1429.88 Z "/>
		<path fill="#0083FF" fill-opacity="1" stroke-width="0.2" stroke-linejoin="round" d="M 3636.49,1433.58L 3626.21,1433.61L 3626.21,1440L 3647.81,1440L 3647.81,1433.61L 3643.36,1433.61L 3643.36,1413.66L 3626.13,1413.66L 3626.13,1420.44L 3636.49,1420.44L 3636.49,1433.58 Z "/>
	</g>
	<g>
		<path fill="#0083FF" fill-opacity="1" stroke-width="0.2" stroke-linejoin="round" d="M 3416.4,1453.88L 3422.45,1453.88L 3422.45,1471.25L 3416.4,1471.25L 3416.4,1453.88 Z M 3424.4,1461.63L 3430.39,1461.63L 3430.39,1471.25L 3424.4,1471.25L 3424.4,1461.63 Z M 3432.33,1461.63L 3438.44,1461.63L 3438.44,1479L 3432.33,1479L 3432.33,1461.63 Z "/>
		<path fill="#0083FF" fill-opacity="1" stroke-width="0.2" stroke-linejoin="round" d="M 3480.87,1453.7L 3480.87,1459.52L 3476.77,1459.52L 3476.77,1479L 3471.2,1479L 3471.2,1459.52L 3470.45,1459.52L 3460.73,1479L 3453.6,1479L 3440.87,1453.7L 3447.72,1453.7L 3457.22,1471.8L 3466.45,1453.7L 3480.87,1453.7 Z "/>
		<path fill="#0083FF" fill-opacity="1" stroke-width="0.2" stroke-linejoin="round" d="M 3491.78,1474.11L 3492.43,1474.06L 3503.82,1453.72L 3510.95,1453.72L 3526.12,1479L 3519.1,1479L 3507.44,1459.03L 3496.15,1479L 3489.19,1479L 3488.81,1478.98L 3488.11,1478.04L 3487.46,1477.03L 3486.59,1475.62L 3485.84,1474.01L 3485.14,1472.32L 3484.7,1470.36L 3484.27,1468.15L 3484.11,1465.87L 3484,1463.4L 3484.49,1461.5L 3484.92,1459.47L 3485.41,1457.93L 3486.16,1456.53L 3486.86,1455.31L 3487.73,1454.29L 3488.21,1453.77L 3493.4,1453.77L 3492.48,1454.58L 3491.78,1455.57L 3491.02,1456.79L 3490.48,1457.99L 3490,1459.47L 3489.51,1461.42L 3489.19,1463.58L 3489.02,1465.74L 3489.19,1467.89L 3489.62,1470.18L 3490.16,1471.93L 3490.75,1472.99L 3491.78,1474.11 Z "/>
		<path fill="#0083FF" fill-opacity="1" stroke-width="0.2" stroke-linejoin="round" d="M 3551.98,1453.72L 3551.98,1474.19L 3553.71,1474.19L 3562.83,1465.45L 3570.82,1465.45L 3556.41,1479L 3542.42,1479L 3527.95,1465.37L 3535.94,1465.37L 3545.12,1474.11L 3546.79,1474.11L 3546.79,1453.72L 3551.98,1453.72 Z "/>
		<path fill="#0083FF" fill-opacity="1" stroke-width="0.2" stroke-linejoin="round" d="M 3573.09,1453.72L 3579.09,1453.72L 3579.09,1458.69L 3595.28,1458.69L 3603.54,1453.72L 3615.63,1453.72L 3595.28,1464.54L 3573.09,1464.54L 3573.09,1453.72 Z M 3573.09,1468.18L 3595.93,1468.18L 3615.9,1479L 3604.62,1479L 3594.85,1474.03L 3578.98,1474.03L 3578.98,1479L 3573.09,1479L 3573.09,1468.18 Z "/>
		<path fill="#0083FF" fill-opacity="1" stroke-width="0.2" stroke-linejoin="round" d="M 3650.57,1476.42L 3644.69,1479L 3624.49,1479L 3618.66,1476.42L 3632.16,1453.77L 3638.1,1453.77L 3650.57,1476.42 Z M 3642.9,1474.01L 3635.13,1459.34L 3626.6,1474.01L 3642.9,1474.01 Z "/>
	</g>
	<g>
		<path fill="#0083FF" fill-opacity="1" stroke-width="0.2" stroke-linejoin="round" d="M 678.831,357.045L 698.651,357.045L 698.651,360.637L 678.831,360.637L 678.831,377L 705.527,377L 705.527,370.215L 685.708,370.215L 685.708,367.422L 705.527,367.422L 705.527,350.66L 678.831,350.66L 678.831,357.045 Z "/>
	</g>
	<g>
		<path fill="#0083FF" fill-opacity="1" stroke-width="0.2" stroke-linejoin="round" d="M 3670.94,1471.58L 3660.67,1471.61L 3660.67,1478L 3682.27,1478L 3682.27,1471.61L 3677.82,1471.61L 3677.82,1451.66L 3660.58,1451.66L 3660.58,1458.44L 3670.94,1458.44L 3670.94,1471.58 Z "/>
	</g>
	<path fill="none" stroke-width="18" stroke-linejoin="round" stroke="#DCFF85" stroke-opacity="1" d="M 2197.61,534.098C 2238.7,517.837 2278.89,522.062 2287.39,543.536C 2295.89,565.01 2269.48,595.601 2228.4,611.863C 2187.32,628.125 2147.12,623.899 2138.62,602.425C 2130.12,580.951 2156.53,550.36 2197.61,534.098 Z "/>
	<path fill="none" stroke-width="18" stroke-linejoin="round" stroke="#DCFF85" stroke-opacity="1" d="M 2278.28,706.851C 2299.66,735.4 2289.96,778.794 2256.61,803.775C 2223.27,828.756 2178.9,825.864 2157.51,797.316C 2136.13,768.767 2145.82,725.373 2179.17,700.392C 2212.52,675.411 2256.89,678.303 2278.28,706.851 Z "/>
	<path fill="#DCFF85" fill-opacity="1" stroke-width="18" stroke-linejoin="round" stroke="#DCFF85" stroke-opacity="1" d="M 2203.73,730.5C 2216.54,721.422 2233.73,723.668 2242.12,735.516C 2250.52,747.364 2246.95,764.328 2234.14,773.406C 2221.33,782.484 2204.14,780.239 2195.74,768.391C 2187.35,756.542 2190.92,739.578 2203.73,730.5 Z "/>
	<path fill="none" stroke-width="18" stroke-linejoin="round" stroke="#DCFF85" stroke-opacity="1" d="M 2573.77,618.871C 2600.36,617.092 2622.85,629.554 2624,646.705C 2625.15,663.856 2604.52,679.202 2577.93,680.982C 2551.33,682.761 2528.84,670.3 2527.7,653.148C 2526.55,635.997 2547.18,620.651 2573.77,618.871 Z "/>
	<ellipse fill="none" stroke-width="35" stroke-linejoin="round" stroke="#DCFF85" stroke-opacity="1" cx="2635" cy="1290" rx="336" ry="336"/>
	<ellipse fill="none" stroke-width="18" stroke-linejoin="round" stroke="#DCFF85" stroke-opacity="1" cx="2556" cy="844" rx="96" ry="76"/>
	<ellipse fill="none" stroke-width="22" stroke-linejoin="round" stroke="#DCFF85" stroke-opacity="1" cx="2634" cy="1306" rx="266" ry="272"/>
	<ellipse fill="none" stroke-width="18" stroke-linejoin="round" stroke="#DCFF85" stroke-opacity="1" cx="2271" cy="1040" rx="80" ry="80"/>
	<ellipse fill="none" stroke-width="18" stroke-linejoin="round" stroke="#DCFF85" stroke-opacity="1" cx="2272.5" cy="1040" rx="50.5" ry="48"/>
	<path fill="none" stroke-width="18" stroke-linejoin="round" stroke="#DCFF85" stroke-opacity="1" d="M 2106.54,1057C 2141.95,1063.41 2164.69,1101.6 2157.33,1142.3C 2149.97,1183 2115.29,1210.81 2079.87,1204.4C 2044.45,1197.99 2021.71,1159.8 2029.08,1119.1C 2036.44,1078.4 2071.12,1050.59 2106.54,1057 Z "/>
	<path fill="none" stroke-width="18" stroke-linejoin="round" stroke="#DCFF85" stroke-opacity="1" d="M 2100.69,1091.43C 2118.96,1094.74 2130.7,1114.45 2126.9,1135.45C 2123.1,1156.46 2105.2,1170.8 2086.93,1167.5C 2068.65,1164.19 2056.91,1144.48 2060.71,1123.48C 2064.51,1102.47 2082.41,1088.13 2100.69,1091.43 Z "/>
	<path fill="none" stroke-width="18" stroke-linejoin="round" stroke="#DCFF85" stroke-opacity="1" d="M 1918.05,1120.48C 1936.07,1123.74 1947.87,1141.95 1944.4,1161.14C 1940.92,1180.34 1923.5,1193.25 1905.48,1189.99C 1887.45,1186.73 1875.66,1168.53 1879.13,1149.33C 1882.6,1130.14 1900.03,1117.22 1918.05,1120.48 Z "/>
	<path fill="none" stroke-width="18" stroke-linejoin="round" stroke="#DCFF85" stroke-opacity="1" d="M 1993.05,1406.68C 2025.66,1412.58 2047.21,1444.39 2041.18,1477.72C 2035.15,1511.05 2003.82,1533.29 1971.21,1527.39C 1938.6,1521.49 1917.05,1489.69 1923.08,1456.35C 1929.11,1423.02 1960.44,1400.78 1993.05,1406.68 Z "/>
	<path fill="none" stroke-width="18" stroke-linejoin="round" stroke="#DCFF85" stroke-opacity="1" d="M 2006.65,1359.56C 2064.66,1370.06 2103.04,1426.35 2092.38,1485.29C 2081.72,1544.22 2026.05,1583.5 1968.04,1573C 1910.03,1562.51 1871.64,1506.22 1882.31,1447.28C 1892.97,1388.34 1948.64,1349.07 2006.65,1359.56 Z "/>
	<path fill="none" stroke-width="18" stroke-linejoin="round" stroke="#DCFF85" stroke-opacity="1" d="M 2902.2,974.568C 2926.67,931.69 2984.77,921.498 3031.97,951.804C 3079.17,982.11 3097.59,1041.44 3073.11,1084.32C 3048.64,1127.19 2990.54,1137.39 2943.34,1107.08C 2896.15,1076.77 2877.73,1017.45 2902.2,974.568 Z "/>
	<line fill="none" stroke-width="20" stroke-linecap="round" stroke-linejoin="round" stroke="#DCFF85" stroke-opacity="1" x1="3016" y1="1027.15" x2="2825.01" y2="896"/>
	<path fill="none" fill-rule="evenodd" stroke-width="16" stroke-linecap="round" stroke-linejoin="round" stroke="#DCFF85" stroke-opacity="1" d="M 2112,1664C 2112,1664 2857,1203 2921,1107"/>
	<path fill="none" stroke-width="18" stroke-linejoin="round" stroke="#DCFF85" stroke-opacity="1" d="M 2632.31,1290.71C 2647.51,1281.91 2666.69,1286.62 2675.14,1301.23C 2683.6,1315.83 2678.12,1334.81 2662.92,1343.61C 2647.72,1352.41 2628.54,1347.7 2620.08,1333.09C 2611.63,1318.48 2617.1,1299.51 2632.31,1290.71 Z "/>
	<path fill="none" stroke-width="16" stroke-linejoin="round" stroke="#DCFF85" stroke-opacity="1" d="M 2603.64,1242.61C 2644.2,1219.14 2696.27,1233.28 2719.95,1274.19C 2743.63,1315.11 2729.94,1367.3 2689.38,1390.78C 2648.82,1414.25 2596.74,1400.11 2573.06,1359.2C 2549.39,1318.28 2563.07,1266.09 2603.64,1242.61 Z "/>
	<path fill="none" stroke-width="16" stroke-linejoin="round" stroke="#DCFF85" stroke-opacity="1" d="M 2564.41,1162.45C 2651.51,1112.04 2759.73,1136.18 2806.13,1216.36C 2852.53,1296.54 2819.54,1402.39 2732.44,1452.8C 2645.35,1503.2 2537.13,1479.07 2490.73,1398.89C 2444.33,1318.71 2477.32,1212.85 2564.41,1162.45 Z "/>
	<line fill="none" stroke-width="18" stroke-linejoin="round" stroke="#DCFF85" stroke-opacity="1" x1="2607" y1="1239" x2="2552" y2="1172"/>
	<line fill="none" stroke-width="18" stroke-linejoin="round" stroke="#DCFF85" stroke-opacity="1" x1="2584" y1="1257" x2="2523.98" y2="1196.98"/>
	<line fill="none" stroke-width="18" stroke-linejoin="round" stroke="#DCFF85" stroke-opacity="1" x1="2656" y1="1294" x2="2688" y2="1041"/>
	<line fill="none" stroke-width="18" stroke-linejoin="round" stroke="#DCFF85" stroke-opacity="1" x1="2640" y1="1233" x2="2565" y2="875"/>
	<line fill="none" stroke-width="18" stroke-linecap="round" stroke-linejoin="round" stroke="#DCFF85" stroke-opacity="1" x1="2415" y1="1144" x2="2164" y2="960"/>
	<line fill="none" stroke-width="18" stroke-linejoin="round" stroke="#DCFF85" stroke-opacity="1" x1="2560" y1="1331" x2="2464" y2="1330"/>
	<line fill="none" stroke-width="18" stroke-linecap="round" stroke-linejoin="round" stroke="#DCFF85" stroke-opacity="1" x1="2516" y1="1683" x2="2560" y2="1568"/>
	<line fill="none" stroke-width="18" stroke-linecap="round" stroke-linejoin="round" stroke="#DCFF85" stroke-opacity="1" x1="2469.89" y1="1764.36" x2="2505.11" y2="1707.64"/>
	<path fill="#030409" fill-opacity="1" stroke-width="18" stroke-linecap="round" stroke-linejoin="round" stroke="#DCFF85" stroke-opacity="1" d="M 2752,1699L 2688,1475L 2673,1399"/>
	<line fill="none" stroke-width="18" stroke-linejoin="round" stroke="#DCFF85" stroke-opacity="1" x1="2837" y1="1472" x2="2769" y2="1426"/>
	<path fill="none" stroke-width="18" stroke-linejoin="round" stroke="#DCFF85" stroke-opacity="1" d="M 2478.45,1442.52C 2501.91,1428.94 2532.21,1437.46 2546.15,1461.54C 2560.08,1485.61 2552.36,1516.13 2528.91,1529.7C 2505.46,1543.28 2475.15,1534.76 2461.22,1510.69C 2447.28,1486.61 2455,1456.09 2478.45,1442.52 Z "/>
	<path fill="none" stroke-width="18" stroke-linejoin="round" stroke="#DCFF85" stroke-opacity="1" d="M 2861.66,1168.77C 2892.08,1151.16 2929.67,1159.24 2945.62,1186.8C 2961.57,1214.37 2949.85,1250.98 2919.43,1268.58C 2889.01,1286.19 2851.43,1278.11 2835.47,1250.55C 2819.52,1222.98 2831.25,1186.37 2861.66,1168.77 Z "/>
	<path fill="none" stroke-width="18" stroke-linejoin="round" stroke="#DCFF85" stroke-opacity="1" d="M 2878.12,1200.42C 2885.15,1196.35 2895.26,1200.68 2900.7,1210.08C 2906.14,1219.48 2904.85,1230.4 2897.82,1234.47C 2890.79,1238.54 2880.68,1234.22 2875.24,1224.81C 2869.8,1215.41 2871.08,1204.49 2878.12,1200.42 Z "/>
	<path fill="none" stroke-width="18" stroke-linejoin="round" stroke="#DCFF85" stroke-opacity="1" d="M 2657.25,1772.42C 2681.1,1761.36 2705.37,1763.03 2711.45,1776.15C 2717.53,1789.26 2703.13,1808.86 2679.28,1819.92C 2655.43,1830.98 2631.17,1829.31 2625.08,1816.2C 2619,1803.08 2633.4,1783.48 2657.25,1772.42 Z "/>
	<line fill="none" stroke-width="18" stroke-linejoin="round" stroke="#DCFF85" stroke-opacity="1" x1="2684" y1="1819" x2="2656" y2="1778"/>
	<line fill="none" stroke-width="18" stroke-linejoin="round" stroke="#DCFF85" stroke-opacity="1" x1="2634" y1="1817" x2="2702" y2="1778"/>
	<path fill="none" stroke-width="18" stroke-linejoin="round" stroke="#DCFF85" stroke-opacity="1" d="M 1865.28,1569.37C 1890.62,1596.46 1899.77,1629.08 1885.72,1642.22C 1871.67,1655.37 1839.73,1644.06 1814.39,1616.96C 1789.05,1589.87 1779.9,1557.25 1793.95,1544.1C 1808,1530.96 1839.94,1542.27 1865.28,1569.37 Z "/>
	<line fill="none" stroke-width="18" stroke-linecap="round" stroke-linejoin="round" stroke="#DCFF85" stroke-opacity="1" x1="1863" y1="1568" x2="1984" y2="1472"/>
	<line fill="none" stroke-width="18" stroke-linecap="round" stroke-linejoin="miter" stroke="#DCFF85" stroke-opacity="1" x1="1893" y1="1543" x2="1824" y2="1440"/>
	<path fill="#030409" fill-opacity="1" stroke-width="18" stroke-linecap="round" stroke-linejoin="round" stroke="#DCFF85" stroke-opacity="1" d="M 2292,1810C 2292,1810 2161,1726 2149,1711"/>
	<line fill="none" stroke-width="18" stroke-linecap="round" stroke-linejoin="round" stroke="#DCFF85" stroke-opacity="1" x1="2235" y1="1800" x2="2304" y2="1777"/>
	<line fill="none" stroke-width="18" stroke-linecap="round" stroke-linejoin="round" stroke="#DCFF85" stroke-opacity="1" x1="2074" y1="1817" x2="2092" y2="1796"/>
	<path fill="none" stroke-width="18" stroke-linejoin="round" stroke="#DCFF85" stroke-opacity="1" d="M 2553.72,821C 2570.69,821 2584.45,832.139 2584.45,845.88C 2584.45,859.621 2570.69,870.761 2553.72,870.761C 2536.75,870.761 2523,859.621 2523,845.88C 2523,832.139 2536.75,821 2553.72,821 Z "/>
	<path fill="none" stroke-width="18" stroke-linejoin="round" stroke="#DCFF85" stroke-opacity="1" d="M 1915,1120C 1915,1120 1929,1102 1935,1095C 1941,1088 1920,1083 1920,1083"/>
	<path fill="none" stroke-width="23" stroke-linecap="round" stroke-linejoin="round" stroke="#DCFF85" stroke-opacity="1" d="M 1984,960C 1984,960 2048,916 2048,879"/>
	<line fill="none" stroke-width="16" stroke-linejoin="round" stroke="#DCFF85" stroke-opacity="1" x1="2675" y1="1312" x2="2880" y2="1216"/>
	<path fill="none" fill-rule="evenodd" stroke-width="16" stroke-linejoin="round" stroke="#DCFF85" stroke-opacity="1" d="M 2514,1332C 2514,1332 2561.6,1462.55 2678,1434C 2784,1408 2788,1296 2772,1270C 2756,1244 2734,1202 2674,1184"/>
	<path fill="none" stroke-width="18" stroke-linejoin="round" stroke="#DCFF85" stroke-opacity="1" d="M 2935.31,983.754C 2953.79,951.393 2997.63,943.701 3033.25,966.574C 3068.87,989.446 3082.78,1034.22 3064.3,1066.58C 3045.83,1098.94 3001.99,1106.63 2966.37,1083.76C 2930.75,1060.89 2916.84,1016.11 2935.31,983.754 Z "/>
	<path fill="#DCFF85" fill-opacity="1" stroke-width="18" stroke-linejoin="round" stroke="#DCFF85" stroke-opacity="1" d="M 2974.39,1004.77C 2982.27,990.96 3001.26,987.853 3016.79,997.83C 3032.33,1007.81 3038.54,1027.09 3030.66,1040.9C 3022.77,1054.71 3003.79,1057.82 2988.25,1047.84C 2972.71,1037.87 2966.5,1018.58 2974.39,1004.77 Z "/>
	<path fill="none" stroke-width="18" stroke-linejoin="round" stroke="#DCFF85" stroke-opacity="1" d="M 1843.93,1439.01C 1853.15,1448.87 1854.92,1462.19 1847.88,1468.77C 1840.85,1475.34 1827.68,1472.69 1818.46,1462.83C 1809.24,1452.98 1807.47,1439.66 1814.51,1433.08C 1821.54,1426.5 1834.71,1429.16 1843.93,1439.01 Z "/>
</svg>
