<?xml version="1.0" encoding="utf-8"?>
<!DOCTYPE svg PUBLIC "-//W3C//DTD SVG 1.1//EN" "http://www.w3.org/Graphics/SVG/1.1/DTD/svg11.dtd">
<svg xmlns="http://www.w3.org/2000/svg" xmlns:xlink="http://www.w3.org/1999/xlink" version="1.1" baseProfile="full" width="3840" height="2160" viewBox="0 0 3840.00 2160.00" enable-background="new 0 0 3840.00 2160.00" xml:space="preserve">
	<rect x="-1" y="0.000488281" fill="#030409" fill-opacity="1" fill-rule="evenodd" stroke-linejoin="round" stroke="#000000" stroke-opacity="1" width="3840" height="2160"/>
	<path fill="none" stroke-width="40" stroke-linejoin="round" stroke="#05408F" stroke-opacity="0.803922" d="M 3328,1433L 3136,1433L 3040,1369"/>
	<line fill="none" stroke-width="6" stroke-linejoin="round" stroke="#1B56E3" stroke-opacity="0.403922" x1="2400" y1="-0.000244141" x2="2400" y2="2160"/>
	<line fill="none" stroke-width="6" stroke-linejoin="round" stroke="#1B56E3" stroke-opacity="0.403922" x1="-9.6639e-005" y1="1216" x2="3840" y2="1216"/>
	<path fill="none" stroke-width="40" stroke-linejoin="round" stroke="#05408F" stroke-opacity="0.803922" d="M 3008,1305.47C 3008,1305.47 2565.17,1487.38 2395.49,1692.83C 2257.97,1859.35 2175.3,2182.42 2125.44,2272"/>
	<g>
		<path fill="#0083FF" fill-opacity="1" stroke-width="0.2" stroke-linejoin="round" d="M 306.833,919.001L 306.833,901.161L 315.649,892.661L 333.73,892.661L 333.73,899.446L 318.398,899.446L 313.709,903.973L 313.709,912.217L 333.73,912.217L 333.73,919.001L 306.833,919.001 Z "/>
		<path fill="#0083FF" fill-opacity="1" stroke-width="0.2" stroke-linejoin="round" d="M 365.887,909.423L 365.887,892.661L 339.191,892.661L 339.191,919.001L 365.887,919.001L 365.887,912.217L 346.067,912.217L 346.067,899.047L 359.01,899.047L 359.01,902.639L 353.512,902.639L 353.512,909.423L 365.887,909.423 Z "/>
		<path fill="#0083FF" fill-opacity="1" stroke-width="0.2" stroke-linejoin="round" d="M 378.425,899.446L 378.425,919.001L 371.549,919.001L 371.549,892.661L 389.599,892.661L 398.245,901.161L 398.245,919.001L 391.369,919.001L 391.369,904.067L 386.806,899.446L 378.425,899.446 Z "/>
		<path fill="#0083FF" fill-opacity="1" stroke-width="0.2" stroke-linejoin="round" d="M 414.829,899.047L 414.829,912.217L 425.187,912.217L 425.187,919.001L 408.357,919.001L 408.357,899.047L 403.863,899.047L 403.863,892.661L 428.947,892.661L 428.947,899.047L 414.829,899.047 Z "/>
		<path fill="#0083FF" fill-opacity="1" stroke-width="0.2" stroke-linejoin="round" d="M 432.866,916.22L 445.935,892.661L 462.557,892.661L 462.557,919.001L 448.52,919.001L 448.52,912.217L 455.681,912.217L 455.681,899.446L 449.854,899.446L 438.731,919.4L 432.866,916.22 Z "/>
		<path fill="#0083FF" fill-opacity="1" stroke-width="0.2" stroke-linejoin="round" d="M 469.029,908.881L 474.793,903.063L 468.296,896.559L 472.991,891.863L 485.568,904.466L 488.848,901.136L 488.848,892.587L 495.724,892.587L 495.724,903.904L 490.479,909.124L 496.451,915.104L 491.762,919.799L 479.792,907.758L 475.905,911.612L 475.905,919.076L 469.029,919.076L 469.029,908.881 Z "/>
		<path fill="#0083FF" fill-opacity="1" stroke-width="0.2" stroke-linejoin="round" d="M 518.375,899.047L 538.195,899.047L 538.195,902.639L 518.375,902.639L 518.375,919.001L 545.071,919.001L 545.071,912.217L 525.251,912.217L 525.251,909.423L 545.071,909.423L 545.071,892.661L 518.375,892.661L 518.375,899.047 Z "/>
	</g>
	<g>
		<path fill="#0083FF" fill-opacity="1" stroke-width="0.2" stroke-linejoin="round" d="M 269.402,931.88L 275.451,931.88L 275.451,949.252L 269.402,949.252L 269.402,931.88 Z M 277.399,939.63L 283.389,939.63L 283.389,949.252L 277.399,949.252L 277.399,939.63 Z M 285.33,939.63L 291.437,939.63L 291.437,957.001L 285.33,957.001L 285.33,939.63 Z "/>
		<path fill="#0083FF" fill-opacity="1" stroke-width="0.2" stroke-linejoin="round" d="M 333.872,931.698L 333.872,937.521L 329.772,937.521L 329.772,957.001L 324.204,957.001L 324.204,937.521L 323.453,937.521L 313.735,957.001L 306.606,957.001L 293.867,931.698L 300.717,931.698L 310.225,949.797L 319.455,931.698L 333.872,931.698 Z "/>
		<path fill="#0083FF" fill-opacity="1" stroke-width="0.2" stroke-linejoin="round" d="M 344.78,952.113L 345.43,952.06L 356.819,931.722L 363.948,931.722L 379.116,957.001L 372.097,957.001L 360.438,937.029L 349.151,957.001L 342.191,957.001L 341.811,956.977L 341.111,956.038L 340.461,955.026L 339.592,953.62L 338.841,952.007L 338.141,950.317L 337.702,948.366L 337.272,946.156L 337.112,943.868L 337.002,941.397L 337.491,939.5L 337.922,937.472L 338.411,935.936L 339.162,934.53L 339.862,933.311L 340.731,932.295L 341.212,931.775L 346.4,931.775L 345.481,932.579L 344.78,933.571L 344.021,934.79L 343.481,935.989L 343,937.472L 342.511,939.422L 342.191,941.58L 342.022,943.738L 342.191,945.896L 342.621,948.183L 343.161,949.927L 343.751,950.995L 344.78,952.113 Z "/>
		<path fill="#0083FF" fill-opacity="1" stroke-width="0.2" stroke-linejoin="round" d="M 404.982,931.722L 404.982,952.19L 406.712,952.19L 415.831,943.453L 423.821,943.453L 409.411,957.001L 395.424,957.001L 380.956,943.372L 388.945,943.372L 398.124,952.113L 399.794,952.113L 399.794,931.722L 404.982,931.722 Z "/>
		<path fill="#0083FF" fill-opacity="1" stroke-width="0.2" stroke-linejoin="round" d="M 426.09,931.722L 432.088,931.722L 432.088,936.692L 448.286,936.692L 456.545,931.722L 468.635,931.722L 448.286,942.543L 426.09,942.543L 426.09,931.722 Z M 426.09,946.184L 448.927,946.184L 468.905,957.001L 457.625,957.001L 447.847,952.036L 431.979,952.036L 431.979,957.001L 426.09,957.001L 426.09,946.184 Z "/>
		<path fill="#0083FF" fill-opacity="1" stroke-width="0.2" stroke-linejoin="round" d="M 503.57,954.425L 497.689,957.001L 477.493,957.001L 471.663,954.425L 485.161,931.775L 491.101,931.775L 503.57,954.425 Z M 495.901,952.007L 488.131,937.342L 479.602,952.007L 495.901,952.007 Z "/>
	</g>
	<g>
		<path fill="#DCFF85" fill-opacity="1" stroke-width="0.2" stroke-linejoin="round" d="M 3139.93,896L 3139.93,863.106L 3152.18,847.436L 3177.29,847.436L 3177.29,859.945L 3156,859.945L 3149.48,868.292L 3149.48,883.491L 3177.29,883.491L 3177.29,896L 3139.93,896 Z "/>
		<path fill="#DCFF85" fill-opacity="1" stroke-width="0.2" stroke-linejoin="round" d="M 3221.96,847.436L 3221.96,896L 3184.88,896L 3184.88,847.436L 3221.96,847.436 Z M 3212.41,859.945L 3194.43,859.945L 3194.43,883.491L 3212.41,883.491L 3212.41,859.945 Z "/>
		<path fill="#DCFF85" fill-opacity="1" stroke-width="0.2" stroke-linejoin="round" d="M 3229.82,896L 3229.82,847.436L 3265.22,847.436L 3265.22,877.604L 3251.13,877.604L 3265.22,896L 3253.4,896L 3239.38,877.754L 3239.38,896L 3229.82,896 Z M 3255.67,859.945L 3239.38,859.945L 3239.38,865.095L 3255.67,865.095L 3255.67,859.945 Z "/>
		<path fill="#DCFF85" fill-opacity="1" stroke-width="0.2" stroke-linejoin="round" d="M 3300.61,883.491L 3300.61,847.436L 3310.16,847.436L 3310.16,896L 3285.09,896L 3273.08,880.329L 3273.08,847.436L 3282.64,847.436L 3282.64,874.972L 3288.97,883.491L 3300.61,883.491 Z "/>
		<path fill="#DCFF85" fill-opacity="1" stroke-width="0.2" stroke-linejoin="round" d="M 3355.11,859.209L 3327.58,859.209L 3327.58,865.831L 3355.11,865.831L 3355.11,896L 3318.03,896L 3318.03,883.491L 3345.56,883.491L 3345.56,878.34L 3318.03,878.34L 3318.03,847.436L 3355.11,847.436L 3355.11,859.209 Z "/>
		<path fill="#DCFF85" fill-opacity="1" stroke-width="0.2" stroke-linejoin="round" d="M 3362.98,896L 3362.98,863.106L 3375.22,847.436L 3400.34,847.436L 3400.34,859.945L 3379.04,859.945L 3372.53,868.292L 3372.53,883.491L 3400.34,883.491L 3400.34,896L 3362.98,896 Z "/>
		<path fill="#DCFF85" fill-opacity="1" stroke-width="0.2" stroke-linejoin="round" d="M 3404.88,890.872L 3423.04,847.436L 3446.13,847.436L 3446.13,896L 3426.63,896L 3426.63,883.491L 3436.57,883.491L 3436.57,859.945L 3428.48,859.945L 3413.03,896.736L 3404.88,890.872 Z "/>
		<path fill="#DCFF85" fill-opacity="1" stroke-width="0.2" stroke-linejoin="round" d="M 3463.54,859.945L 3463.54,896L 3453.99,896L 3453.99,847.436L 3479.06,847.436L 3491.07,863.106L 3491.07,896L 3481.52,896L 3481.52,868.464L 3475.18,859.945L 3463.54,859.945 Z "/>
		<path fill="#DCFF85" fill-opacity="1" stroke-width="0.2" stroke-linejoin="round" d="M 3514.11,859.209L 3514.11,883.491L 3528.49,883.491L 3528.49,896L 3505.12,896L 3505.12,859.209L 3498.88,859.209L 3498.88,847.436L 3533.72,847.436L 3533.72,859.209L 3514.11,859.209 Z "/>
	</g>
	<g>
		<path fill="#DCFF85" fill-opacity="1" stroke-width="0.2" stroke-linejoin="round" d="M 3138.1,918.564L 3147.18,918.564L 3147.18,947.218L 3138.1,947.218L 3138.1,918.564 Z M 3150.11,931.346L 3159.1,931.346L 3159.1,947.218L 3150.11,947.218L 3150.11,931.346 Z M 3162.01,931.346L 3171.18,931.346L 3171.18,960L 3162.01,960L 3162.01,931.346 Z "/>
		<path fill="#DCFF85" fill-opacity="1" stroke-width="0.2" stroke-linejoin="round" d="M 3216.4,918.302L 3229.85,951.461L 3224.51,960L 3180.98,960L 3175.47,951.333L 3188.44,918.302L 3216.4,918.302 Z M 3184.87,950.864L 3220.37,950.864L 3211.21,927.914L 3194.03,927.914L 3184.87,950.864 Z "/>
		<path fill="#DCFF85" fill-opacity="1" stroke-width="0.2" stroke-linejoin="round" d="M 3283.58,918.302L 3249.71,960L 3238.04,960L 3262.84,929.114L 3262.84,928.383L 3233.09,928.383L 3240.31,918.302L 3283.58,918.302 Z "/>
		<path fill="#DCFF85" fill-opacity="1" stroke-width="0.2" stroke-linejoin="round" d="M 3341.46,918.302L 3343.41,920.36L 3343.41,957.855L 3341.29,960L 3287.32,960L 3287.32,918.302L 3296.64,918.302L 3296.64,950.991L 3334.09,950.991L 3334.09,927.914L 3322.01,927.914L 3316.33,935.85L 3304.25,935.85L 3316.98,918.302L 3341.46,918.302 Z "/>
		<path fill="#DCFF85" fill-opacity="1" stroke-width="0.2" stroke-linejoin="round" d="M 3366.51,918.302L 3398.19,950.093L 3398.19,918.302L 3407.11,918.302L 3407.11,960L 3394.87,960L 3353.13,918.302L 3366.51,918.302 Z M 3349.73,940.18L 3382.06,951.937L 3379.22,960L 3346.72,948.458L 3349.73,940.18 Z "/>
		<path fill="#DCFF85" fill-opacity="1" stroke-width="0.2" stroke-linejoin="round" d="M 3411.23,918.564L 3420.31,918.564L 3420.31,947.218L 3411.23,947.218L 3411.23,918.564 Z M 3423.24,931.346L 3432.23,931.346L 3432.23,947.218L 3423.24,947.218L 3423.24,931.346 Z M 3435.14,931.346L 3444.31,931.346L 3444.31,960L 3435.14,960L 3435.14,931.346 Z "/>
		<path fill="#DCFF85" fill-opacity="1" stroke-width="0.2" stroke-linejoin="round" d="M 3448.68,918.302L 3457.68,918.302L 3457.68,926.5L 3482,926.5L 3494.4,918.302L 3512.54,918.302L 3482,936.152L 3448.68,936.152L 3448.68,918.302 Z M 3448.68,942.157L 3482.96,942.157L 3512.95,960L 3496.02,960L 3481.34,951.809L 3457.52,951.809L 3457.52,960L 3448.68,960L 3448.68,942.157 Z "/>
		<path fill="#DCFF85" fill-opacity="1" stroke-width="0.2" stroke-linejoin="round" d="M 3529.25,951.937L 3530.22,951.849L 3547.32,918.302L 3558.02,918.302L 3580.79,960L 3570.25,960L 3552.75,927.056L 3535.81,960L 3525.36,960L 3524.79,959.96L 3523.74,958.411L 3522.76,956.742L 3521.46,954.423L 3520.33,951.762L 3519.28,948.974L 3518.62,945.757L 3517.98,942.11L 3517.74,938.337L 3517.57,934.261L 3518.31,931.131L 3518.95,927.786L 3519.69,925.253L 3520.81,922.934L 3521.86,920.923L 3523.17,919.247L 3523.89,918.389L 3531.68,918.389L 3530.3,919.716L 3529.25,921.352L 3528.11,923.363L 3527.3,925.34L 3526.58,927.786L 3525.84,931.004L 3525.36,934.563L 3525.11,938.122L 3525.36,941.681L 3526.01,945.455L 3526.82,948.33L 3527.7,950.093L 3529.25,951.937 Z "/>
		<path fill="#DCFF85" fill-opacity="1" stroke-width="0.2" stroke-linejoin="round" d="M 3619.62,918.302L 3619.62,952.064L 3622.21,952.064L 3635.9,937.653L 3647.89,937.653L 3626.26,960L 3605.27,960L 3583.55,937.519L 3595.54,937.519L 3609.32,951.937L 3611.83,951.937L 3611.83,918.302L 3619.62,918.302 Z "/>
	</g>
	<path fill="#267FF8" fill-opacity="1" stroke-width="0.2" stroke-linejoin="round" stroke="#267FF8" stroke-opacity="1" d="M 2036.55,1696C 2063.91,1696 2086.1,1717.49 2086.1,1744C 2086.1,1770.51 2063.91,1792 2036.55,1792C 2009.18,1792 1987,1770.51 1987,1744C 1987,1717.49 2009.18,1696 2036.55,1696 Z "/>
	<path fill="none" stroke-width="40" stroke-linejoin="round" stroke="#C1E076" stroke-opacity="0.803922" d="M 2124,-192C 2124,-192 2111.18,1179.04 2624,2304"/>
	<ellipse fill="#030409" fill-opacity="1" stroke-width="18" stroke-linejoin="round" stroke="#DCFF85" stroke-opacity="1" cx="2383.99" cy="1192" rx="720.001" ry="696.005"/>
	<path fill="none" stroke-width="18" stroke-linejoin="round" stroke="#DCFF85" stroke-opacity="1" d="M 736,2208C 736,2208 672,1056 1376,-64"/>
	<g>
		<path fill="#030409" fill-opacity="1" stroke-width="16" stroke-linejoin="round" stroke="#DCFF85" stroke-opacity="1" d="M 698.273,1344L 691.695,1372.83L 645.854,1573.73L 875.581,1626.15L 928,1396.42L 722.29,1349.48L 698.273,1344 Z "/>
		<path fill="#030409" fill-opacity="1" stroke-width="16" stroke-linejoin="round" stroke="#DCFF85" stroke-opacity="1" d="M 720.226,1381.12L 682.103,1548.2L 852.39,1587.05L 890.513,1419.98L 720.226,1381.12 Z "/>
		<path fill="#DCFF85" fill-opacity="1" stroke-width="6" stroke-linejoin="round" stroke="#DCFF85" stroke-opacity="1" d="M 849.607,1584.81L 825.51,1579.31L 856.205,1555.9L 849.607,1584.81 Z "/>
		<path fill="#DCFF85" fill-opacity="1" stroke-width="16" stroke-linejoin="round" stroke="#DCFF85" stroke-opacity="1" d="M 797.322,1433.15L 741,1523.05L 780.47,1507.72L 810.633,1539.17L 797.322,1433.15 Z "/>
		<path fill="#DCFF85" fill-opacity="1" stroke-width="6" stroke-linejoin="round" stroke="#DCFF85" stroke-opacity="1" d="M 720.226,1381.12L 744.323,1386.62L 713.628,1410.04L 720.226,1381.12 Z "/>
	</g>
	<line fill="none" stroke-width="6" stroke-linejoin="round" stroke="#1B56E3" stroke-opacity="0.403922" x1="992" y1="-0.000244141" x2="992" y2="2160"/>
	<path fill="#267FF8" fill-opacity="1" stroke-width="0.2" stroke-linejoin="round" stroke="#267FF8" stroke-opacity="1" d="M 640,864C 675.346,864 704,892.653 704,928C 704,963.346 675.346,992 640,992C 604.654,992 576,963.346 576,928C 576,892.653 604.654,864 640,864 Z "/>
	<path fill="#267FF8" fill-opacity="1" stroke-width="0.2" stroke-linejoin="round" stroke="#267FF8" stroke-opacity="1" d="M 1248,1888C 1283.35,1888 1312,1916.65 1312,1952C 1312,1987.35 1283.35,2016 1248,2016C 1212.65,2016 1184,1987.35 1184,1952C 1184,1916.65 1212.65,1888 1248,1888 Z "/>
	<path fill="#030409" fill-opacity="1" stroke-width="20" stroke-linejoin="round" stroke="#4E9AFB" stroke-opacity="1" d="M 3326.43,1376C 3362.65,1376 3392,1403.56 3392,1437.55C 3392,1471.55 3362.65,1499.1 3326.43,1499.1C 3290.22,1499.1 3260.87,1471.55 3260.87,1437.55C 3260.87,1403.56 3290.22,1376 3326.43,1376 Z "/>
	<path fill="#378AFB" fill-opacity="1" stroke-width="0.2" stroke-linejoin="round" stroke="#4E9AFB" stroke-opacity="1" d="M 3326.24,1396.57C 3350.33,1396.57 3369.86,1414.92 3369.86,1437.55C 3369.86,1460.19 3350.33,1478.54 3326.24,1478.54C 3302.14,1478.54 3282.61,1460.19 3282.61,1437.55C 3282.61,1414.92 3302.14,1396.57 3326.24,1396.57 Z "/>
	<g>
		<path fill="#0083FF" fill-opacity="1" stroke-width="0.2" stroke-linejoin="round" d="M 1355.44,1950L 1355.44,1940.02L 1343.71,1940.02L 1343.71,1950L 1336.83,1950L 1336.83,1923.66L 1343.71,1923.66L 1343.71,1933.24L 1355.44,1933.24L 1355.44,1923.66L 1362.31,1923.66L 1362.31,1950L 1355.44,1950 Z "/>
		<path fill="#0083FF" fill-opacity="1" stroke-width="0.2" stroke-linejoin="round" d="M 1394.67,1940.42L 1394.67,1923.66L 1367.98,1923.66L 1367.98,1950L 1394.67,1950L 1394.67,1943.22L 1374.85,1943.22L 1374.85,1930.05L 1387.8,1930.05L 1387.8,1933.64L 1382.3,1933.64L 1382.3,1940.42L 1394.67,1940.42 Z "/>
		<path fill="#0083FF" fill-opacity="1" stroke-width="0.2" stroke-linejoin="round" d="M 1427.03,1930.05L 1407.21,1930.05L 1407.21,1933.64L 1427.03,1933.64L 1427.03,1950L 1400.33,1950L 1400.33,1943.22L 1420.15,1943.22L 1420.15,1940.42L 1400.33,1940.42L 1400.33,1923.66L 1427.03,1923.66L 1427.03,1930.05 Z "/>
		<path fill="#0083FF" fill-opacity="1" stroke-width="0.2" stroke-linejoin="round" d="M 1459.79,1923.66L 1432.69,1923.66L 1432.69,1923.74L 1432.69,1956.78L 1439.57,1956.78L 1439.57,1950L 1449.9,1950L 1459.79,1941.5L 1459.79,1923.66 Z M 1452.92,1930.44L 1452.92,1938.78L 1448.27,1943.22L 1439.57,1943.22L 1439.57,1930.44L 1452.92,1930.44 Z "/>
		<path fill="#0083FF" fill-opacity="1" stroke-width="0.2" stroke-linejoin="round" d="M 1492.15,1940.42L 1492.15,1923.66L 1465.46,1923.66L 1465.46,1950L 1492.15,1950L 1492.15,1943.22L 1472.33,1943.22L 1472.33,1930.05L 1485.28,1930.05L 1485.28,1933.64L 1479.78,1933.64L 1479.78,1940.42L 1492.15,1940.42 Z "/>
		<path fill="#0083FF" fill-opacity="1" stroke-width="0.2" stroke-linejoin="round" d="M 1497.81,1950L 1497.81,1923.66L 1523.3,1923.66L 1523.3,1940.02L 1513.15,1940.02L 1523.3,1950L 1514.79,1950L 1504.69,1940.1L 1504.69,1950L 1497.81,1950 Z M 1516.42,1930.44L 1504.69,1930.44L 1504.69,1933.24L 1516.42,1933.24L 1516.42,1930.44 Z "/>
		<rect x="1528.96" y="1923.66" fill="#0083FF" fill-opacity="1" stroke-width="0.2" stroke-linejoin="round" width="6.87622" height="26.34"/>
		<path fill="#0083FF" fill-opacity="1" stroke-width="0.2" stroke-linejoin="round" d="M 1568.19,1923.66L 1568.19,1941.5L 1559.55,1950L 1541.5,1950L 1541.5,1923.66L 1568.19,1923.66 Z M 1561.32,1930.44L 1548.37,1930.44L 1548.37,1943.22L 1556.75,1943.22L 1561.32,1938.69L 1561.32,1930.44 Z "/>
		<rect x="1573.86" y="1923.66" fill="#0083FF" fill-opacity="1" stroke-width="0.2" stroke-linejoin="round" width="6.87634" height="26.34"/>
		<path fill="#0083FF" fill-opacity="1" stroke-width="0.2" stroke-linejoin="round" d="M 1606.21,1943.22L 1606.21,1923.66L 1613.09,1923.66L 1613.09,1950L 1595.04,1950L 1586.39,1941.5L 1586.39,1923.66L 1593.27,1923.66L 1593.27,1938.59L 1597.83,1943.22L 1606.21,1943.22 Z "/>
		<path fill="#0083FF" fill-opacity="1" stroke-width="0.2" stroke-linejoin="round" d="M 1637.76,1930.44L 1639.5,1930.44L 1644.24,1935.07L 1644.24,1950L 1651.11,1950L 1651.11,1932.16L 1642.47,1923.66L 1618.75,1923.66L 1618.75,1950L 1625.63,1950L 1625.63,1930.44L 1631.29,1930.44L 1631.29,1950L 1637.76,1950L 1637.76,1930.44 Z "/>
	</g>
	<g>
		<path fill="#0083FF" fill-opacity="1" stroke-width="0.2" stroke-linejoin="round" d="M 1378.14,1958.64L 1378.14,1964.47L 1336.35,1964.47L 1336.35,1958.64L 1378.14,1958.64 Z M 1343.48,1968.37L 1370.96,1968.37L 1370.96,1974.19L 1343.48,1974.19L 1343.48,1968.37 Z M 1336.35,1978.15L 1378.14,1978.15L 1378.14,1984L 1336.35,1984L 1336.35,1978.15 Z "/>
		<path fill="#0083FF" fill-opacity="1" stroke-width="0.2" stroke-linejoin="round" d="M 1420.85,1958.7L 1420.85,1964.52L 1416.75,1964.52L 1416.75,1984L 1411.18,1984L 1411.18,1964.52L 1410.43,1964.52L 1400.71,1984L 1393.58,1984L 1380.84,1958.7L 1387.69,1958.7L 1397.2,1976.8L 1406.43,1958.7L 1420.85,1958.7 Z "/>
		<path fill="#0083FF" fill-opacity="1" stroke-width="0.2" stroke-linejoin="round" d="M 1436.73,1958.72L 1457.83,1977.99L 1457.83,1958.72L 1463.77,1958.72L 1463.77,1984L 1455.62,1984L 1427.82,1958.72L 1436.73,1958.72 Z M 1425.55,1971.98L 1447.09,1979.11L 1445.2,1984L 1423.55,1977L 1425.55,1971.98 Z "/>
		<path fill="#0083FF" fill-opacity="1" stroke-width="0.2" stroke-linejoin="round" d="M 1492.71,1958.85L 1492.71,1984L 1471.87,1984C 1468.42,1981.68 1466.58,1977.91 1466.36,1972.71C 1466.8,1967.13 1469.03,1962.52 1473.06,1958.88L 1482.13,1958.88L 1482.13,1964.96L 1475.81,1964.96L 1475.81,1963.61L 1474.84,1963.61C 1473.4,1965.14 1472.68,1968.17 1472.68,1972.71C 1472.61,1976.08 1473.13,1977.91 1474.25,1978.23L 1486.34,1978.23L 1486.34,1958.83L 1492.71,1958.85 Z "/>
		<path fill="#0083FF" fill-opacity="1" stroke-width="0.2" stroke-linejoin="round" d="M 1535.31,1958.7L 1535.31,1964.52L 1531.21,1964.52L 1531.21,1984L 1525.64,1984L 1525.64,1964.52L 1524.89,1964.52L 1515.18,1984L 1508.05,1984L 1495.31,1958.7L 1502.16,1958.7L 1511.67,1976.8L 1520.9,1958.7L 1535.31,1958.7 Z "/>
		<path fill="#0083FF" fill-opacity="1" stroke-width="0.2" stroke-linejoin="round" d="M 1572.08,1958.72L 1549.51,1984L 1541.74,1984L 1558.26,1965.28L 1558.26,1964.83L 1538.44,1964.83L 1543.25,1958.72L 1572.08,1958.72 Z "/>
		<path fill="#0083FF" fill-opacity="1" stroke-width="0.2" stroke-linejoin="round" d="M 1589.47,1958.64L 1589.47,1984L 1584.13,1984L 1584.13,1965.02L 1578.4,1970.11L 1574.24,1966.37C 1574.2,1966.23 1574.28,1966.09 1574.46,1965.95L 1582.51,1958.64L 1589.47,1958.64 Z "/>
		<path fill="#0083FF" fill-opacity="1" stroke-width="0.2" stroke-linejoin="round" d="M 1624.45,1958.9L 1624.35,1959.35L 1602.26,1984L 1594.27,1984L 1603.29,1974.38L 1593.52,1974.38L 1597.67,1968.6L 1608.58,1968.6L 1612.14,1964.68L 1592.11,1964.65L 1596,1958.9L 1624.45,1958.9 Z "/>
		<path fill="#0083FF" fill-opacity="1" stroke-width="0.2" stroke-linejoin="round" d="M 1641.84,1958.64L 1641.84,1984L 1636.5,1984L 1636.5,1965.02L 1630.77,1970.11L 1626.61,1966.37C 1626.58,1966.23 1626.65,1966.09 1626.83,1965.95L 1634.88,1958.64L 1641.84,1958.64 Z "/>
		<path fill="#0083FF" fill-opacity="1" stroke-width="0.2" stroke-linejoin="round" d="M 1680.82,1958.72L 1682.12,1959.97L 1682.12,1982.7L 1680.71,1984L 1644.76,1984L 1644.76,1958.72L 1650.97,1958.72L 1650.97,1978.54L 1675.91,1978.54L 1675.91,1964.55L 1667.86,1964.55L 1664.09,1969.36L 1656.04,1969.36L 1664.52,1958.72L 1680.82,1958.72 Z "/>
		<path fill="#0083FF" fill-opacity="1" stroke-width="0.2" stroke-linejoin="round" d="M 1707.66,1958.72L 1707.66,1965.51L 1702.15,1965.56L 1694.86,1978.17L 1709.39,1978.17L 1705.88,1984L 1684.92,1984L 1699.02,1958.72L 1707.66,1958.72 Z "/>
	</g>
	<g>
		<path fill="#0083FF" fill-opacity="1" stroke-width="0.2" stroke-linejoin="round" d="M 3414.83,1440L 3414.83,1422.16L 3423.65,1413.66L 3441.73,1413.66L 3441.73,1420.44L 3426.4,1420.44L 3421.71,1424.97L 3421.71,1433.22L 3441.73,1433.22L 3441.73,1440L 3414.83,1440 Z "/>
		<path fill="#0083FF" fill-opacity="1" stroke-width="0.2" stroke-linejoin="round" d="M 3473.89,1430.42L 3473.89,1413.66L 3447.19,1413.66L 3447.19,1440L 3473.89,1440L 3473.89,1433.22L 3454.07,1433.22L 3454.07,1420.05L 3467.01,1420.05L 3467.01,1423.64L 3461.51,1423.64L 3461.51,1430.42L 3473.89,1430.42 Z "/>
		<path fill="#0083FF" fill-opacity="1" stroke-width="0.2" stroke-linejoin="round" d="M 3486.42,1420.44L 3486.42,1440L 3479.55,1440L 3479.55,1413.66L 3497.6,1413.66L 3506.24,1422.16L 3506.24,1440L 3499.37,1440L 3499.37,1425.07L 3494.8,1420.44L 3486.42,1420.44 Z "/>
		<path fill="#0083FF" fill-opacity="1" stroke-width="0.2" stroke-linejoin="round" d="M 3522.83,1420.05L 3522.83,1433.22L 3533.19,1433.22L 3533.19,1440L 3516.36,1440L 3516.36,1420.05L 3511.86,1420.05L 3511.86,1413.66L 3536.95,1413.66L 3536.95,1420.05L 3522.83,1420.05 Z "/>
		<path fill="#0083FF" fill-opacity="1" stroke-width="0.2" stroke-linejoin="round" d="M 3540.86,1437.22L 3553.93,1413.66L 3570.56,1413.66L 3570.56,1440L 3556.52,1440L 3556.52,1433.22L 3563.68,1433.22L 3563.68,1420.44L 3557.85,1420.44L 3546.73,1440.4L 3540.86,1437.22 Z "/>
		<path fill="#0083FF" fill-opacity="1" stroke-width="0.2" stroke-linejoin="round" d="M 3577.03,1429.88L 3582.79,1424.06L 3576.29,1417.56L 3580.99,1412.86L 3593.57,1425.46L 3596.85,1422.13L 3596.85,1413.59L 3603.72,1413.59L 3603.72,1424.9L 3598.48,1430.12L 3604.45,1436.1L 3599.76,1440.8L 3587.79,1428.76L 3583.9,1432.61L 3583.9,1440.07L 3577.03,1440.07L 3577.03,1429.88 Z "/>
		<path fill="#0083FF" fill-opacity="1" stroke-width="0.2" stroke-linejoin="round" d="M 3636.49,1433.58L 3626.21,1433.61L 3626.21,1440L 3647.81,1440L 3647.81,1433.61L 3643.36,1433.61L 3643.36,1413.66L 3626.13,1413.66L 3626.13,1420.44L 3636.49,1420.44L 3636.49,1433.58 Z "/>
	</g>
	<g>
		<path fill="#0083FF" fill-opacity="1" stroke-width="0.2" stroke-linejoin="round" d="M 3416.4,1453.88L 3422.45,1453.88L 3422.45,1471.25L 3416.4,1471.25L 3416.4,1453.88 Z M 3424.4,1461.63L 3430.39,1461.63L 3430.39,1471.25L 3424.4,1471.25L 3424.4,1461.63 Z M 3432.33,1461.63L 3438.44,1461.63L 3438.44,1479L 3432.33,1479L 3432.33,1461.63 Z "/>
		<path fill="#0083FF" fill-opacity="1" stroke-width="0.2" stroke-linejoin="round" d="M 3480.87,1453.7L 3480.87,1459.52L 3476.77,1459.52L 3476.77,1479L 3471.2,1479L 3471.2,1459.52L 3470.45,1459.52L 3460.73,1479L 3453.6,1479L 3440.87,1453.7L 3447.72,1453.7L 3457.22,1471.8L 3466.45,1453.7L 3480.87,1453.7 Z "/>
		<path fill="#0083FF" fill-opacity="1" stroke-width="0.2" stroke-linejoin="round" d="M 3491.78,1474.11L 3492.43,1474.06L 3503.82,1453.72L 3510.95,1453.72L 3526.12,1479L 3519.1,1479L 3507.44,1459.03L 3496.15,1479L 3489.19,1479L 3488.81,1478.98L 3488.11,1478.04L 3487.46,1477.03L 3486.59,1475.62L 3485.84,1474.01L 3485.14,1472.32L 3484.7,1470.36L 3484.27,1468.15L 3484.11,1465.87L 3484,1463.4L 3484.49,1461.5L 3484.92,1459.47L 3485.41,1457.93L 3486.16,1456.53L 3486.86,1455.31L 3487.73,1454.29L 3488.21,1453.77L 3493.4,1453.77L 3492.48,1454.58L 3491.78,1455.57L 3491.02,1456.79L 3490.48,1457.99L 3490,1459.47L 3489.51,1461.42L 3489.19,1463.58L 3489.02,1465.74L 3489.19,1467.89L 3489.62,1470.18L 3490.16,1471.93L 3490.75,1472.99L 3491.78,1474.11 Z "/>
		<path fill="#0083FF" fill-opacity="1" stroke-width="0.2" stroke-linejoin="round" d="M 3551.98,1453.72L 3551.98,1474.19L 3553.71,1474.19L 3562.83,1465.45L 3570.82,1465.45L 3556.41,1479L 3542.42,1479L 3527.95,1465.37L 3535.94,1465.37L 3545.12,1474.11L 3546.79,1474.11L 3546.79,1453.72L 3551.98,1453.72 Z "/>
		<path fill="#0083FF" fill-opacity="1" stroke-width="0.2" stroke-linejoin="round" d="M 3573.09,1453.72L 3579.09,1453.72L 3579.09,1458.69L 3595.28,1458.69L 3603.54,1453.72L 3615.63,1453.72L 3595.28,1464.54L 3573.09,1464.54L 3573.09,1453.72 Z M 3573.09,1468.18L 3595.93,1468.18L 3615.9,1479L 3604.62,1479L 3594.85,1474.03L 3578.98,1474.03L 3578.98,1479L 3573.09,1479L 3573.09,1468.18 Z "/>
		<path fill="#0083FF" fill-opacity="1" stroke-width="0.2" stroke-linejoin="round" d="M 3650.57,1476.42L 3644.69,1479L 3624.49,1479L 3618.66,1476.42L 3632.16,1453.77L 3638.1,1453.77L 3650.57,1476.42 Z M 3642.9,1474.01L 3635.13,1459.34L 3626.6,1474.01L 3642.9,1474.01 Z "/>
	</g>
	<g>
		<path fill="#0083FF" fill-opacity="1" stroke-width="0.2" stroke-linejoin="round" d="M 518.833,936.047L 538.652,936.047L 538.652,939.639L 518.833,939.639L 518.833,956.001L 545.528,956.001L 545.528,949.217L 525.709,949.217L 525.709,946.423L 545.528,946.423L 545.528,929.661L 518.833,929.661L 518.833,936.047 Z "/>
	</g>
	<g>
		<path fill="#0083FF" fill-opacity="1" stroke-width="0.2" stroke-linejoin="round" d="M 3670.94,1471.58L 3660.67,1471.61L 3660.67,1478L 3682.27,1478L 3682.27,1471.61L 3677.82,1471.61L 3677.82,1451.66L 3660.58,1451.66L 3660.58,1458.44L 3670.94,1458.44L 3670.94,1471.58 Z "/>
	</g>
	<path fill="none" stroke-width="18" stroke-linejoin="round" stroke="#DCFF85" stroke-opacity="1" d="M 2197.61,534.098C 2238.7,517.837 2278.89,522.062 2287.39,543.536C 2295.89,565.01 2269.48,595.601 2228.4,611.863C 2187.32,628.125 2147.12,623.899 2138.62,602.425C 2130.12,580.951 2156.53,550.36 2197.61,534.098 Z "/>
	<path fill="none" stroke-width="18" stroke-linejoin="round" stroke="#DCFF85" stroke-opacity="1" d="M 2278.28,706.851C 2299.66,735.4 2289.96,778.794 2256.61,803.775C 2223.27,828.756 2178.9,825.864 2157.51,797.316C 2136.13,768.767 2145.82,725.373 2179.17,700.392C 2212.52,675.411 2256.89,678.303 2278.28,706.851 Z "/>
	<path fill="#DCFF85" fill-opacity="1" stroke-width="18" stroke-linejoin="round" stroke="#DCFF85" stroke-opacity="1" d="M 2203.73,730.5C 2216.54,721.422 2233.73,723.668 2242.12,735.516C 2250.52,747.364 2246.95,764.328 2234.14,773.406C 2221.33,782.484 2204.14,780.239 2195.74,768.391C 2187.35,756.542 2190.92,739.578 2203.73,730.5 Z "/>
	<path fill="none" stroke-width="18" stroke-linejoin="round" stroke="#DCFF85" stroke-opacity="1" d="M 2573.77,618.871C 2600.36,617.092 2622.85,629.554 2624,646.705C 2625.15,663.856 2604.52,679.202 2577.93,680.982C 2551.33,682.761 2528.84,670.3 2527.7,653.148C 2526.55,635.997 2547.18,620.651 2573.77,618.871 Z "/>
	<ellipse fill="none" stroke-width="35" stroke-linejoin="round" stroke="#DCFF85" stroke-opacity="1" cx="2635" cy="1290" rx="336" ry="336"/>
	<ellipse fill="none" stroke-width="18" stroke-linejoin="round" stroke="#DCFF85" stroke-opacity="1" cx="2556" cy="844" rx="96" ry="76"/>
	<ellipse fill="none" stroke-width="22" stroke-linejoin="round" stroke="#DCFF85" stroke-opacity="1" cx="2634" cy="1306" rx="266" ry="272"/>
	<ellipse fill="none" stroke-width="18" stroke-linejoin="round" stroke="#DCFF85" stroke-opacity="1" cx="2271" cy="1040" rx="80" ry="80"/>
	<ellipse fill="none" stroke-width="18" stroke-linejoin="round" stroke="#DCFF85" stroke-opacity="1" cx="2272.5" cy="1040" rx="50.5" ry="48"/>
	<path fill="none" stroke-width="18" stroke-linejoin="round" stroke="#DCFF85" stroke-opacity="1" d="M 2106.54,1057C 2141.95,1063.41 2164.69,1101.6 2157.33,1142.3C 2149.97,1183 2115.29,1210.81 2079.87,1204.4C 2044.45,1197.99 2021.71,1159.8 2029.08,1119.1C 2036.44,1078.4 2071.12,1050.59 2106.54,1057 Z "/>
	<path fill="none" stroke-width="18" stroke-linejoin="round" stroke="#DCFF85" stroke-opacity="1" d="M 2100.69,1091.43C 2118.96,1094.74 2130.7,1114.45 2126.9,1135.45C 2123.1,1156.46 2105.2,1170.8 2086.93,1167.5C 2068.65,1164.19 2056.91,1144.48 2060.71,1123.48C 2064.51,1102.47 2082.41,1088.13 2100.69,1091.43 Z "/>
	<path fill="none" stroke-width="18" stroke-linejoin="round" stroke="#DCFF85" stroke-opacity="1" d="M 1918.05,1120.48C 1936.07,1123.74 1947.87,1141.95 1944.4,1161.14C 1940.92,1180.34 1923.5,1193.25 1905.48,1189.99C 1887.45,1186.73 1875.66,1168.53 1879.13,1149.33C 1882.6,1130.14 1900.03,1117.22 1918.05,1120.48 Z "/>
	<path fill="none" stroke-width="18" stroke-linejoin="round" stroke="#DCFF85" stroke-opacity="1" d="M 1993.05,1406.68C 2025.66,1412.58 2047.21,1444.39 2041.18,1477.72C 2035.15,1511.05 2003.82,1533.29 1971.21,1527.39C 1938.6,1521.49 1917.05,1489.69 1923.08,1456.35C 1929.11,1423.02 1960.44,1400.78 1993.05,1406.68 Z "/>
	<path fill="none" stroke-width="18" stroke-linejoin="round" stroke="#DCFF85" stroke-opacity="1" d="M 2006.65,1359.56C 2064.66,1370.06 2103.04,1426.35 2092.38,1485.29C 2081.72,1544.22 2026.05,1583.5 1968.04,1573C 1910.03,1562.51 1871.64,1506.22 1882.31,1447.28C 1892.97,1388.34 1948.64,1349.07 2006.65,1359.56 Z "/>
	<path fill="none" stroke-width="18" stroke-linejoin="round" stroke="#DCFF85" stroke-opacity="1" d="M 2902.2,974.568C 2926.67,931.69 2984.77,921.498 3031.97,951.804C 3079.17,982.11 3097.59,1041.44 3073.11,1084.32C 3048.64,1127.19 2990.54,1137.39 2943.34,1107.08C 2896.15,1076.77 2877.73,1017.45 2902.2,974.568 Z "/>
	<line fill="none" stroke-width="20" stroke-linecap="round" stroke-linejoin="round" stroke="#DCFF85" stroke-opacity="1" x1="3016" y1="1027.15" x2="2825.01" y2="896"/>
	<path fill="none" fill-rule="evenodd" stroke-width="16" stroke-linecap="round" stroke-linejoin="round" stroke="#DCFF85" stroke-opacity="1" d="M 2112,1664C 2112,1664 2857,1203 2921,1107"/>
	<path fill="none" stroke-width="18" stroke-linejoin="round" stroke="#DCFF85" stroke-opacity="1" d="M 2632.31,1290.71C 2647.51,1281.91 2666.69,1286.62 2675.14,1301.23C 2683.6,1315.83 2678.12,1334.81 2662.92,1343.61C 2647.72,1352.41 2628.54,1347.7 2620.08,1333.09C 2611.63,1318.48 2617.1,1299.51 2632.31,1290.71 Z "/>
	<path fill="none" stroke-width="16" stroke-linejoin="round" stroke="#DCFF85" stroke-opacity="1" d="M 2603.64,1242.61C 2644.2,1219.14 2696.27,1233.28 2719.95,1274.19C 2743.63,1315.11 2729.94,1367.3 2689.38,1390.78C 2648.82,1414.25 2596.74,1400.11 2573.06,1359.2C 2549.39,1318.28 2563.07,1266.09 2603.64,1242.61 Z "/>
	<path fill="none" stroke-width="16" stroke-linejoin="round" stroke="#DCFF85" stroke-opacity="1" d="M 2564.41,1162.45C 2651.51,1112.04 2759.73,1136.18 2806.13,1216.36C 2852.53,1296.54 2819.54,1402.39 2732.44,1452.8C 2645.35,1503.2 2537.13,1479.07 2490.73,1398.89C 2444.33,1318.71 2477.32,1212.85 2564.41,1162.45 Z "/>
	<line fill="none" stroke-width="18" stroke-linejoin="round" stroke="#DCFF85" stroke-opacity="1" x1="2607" y1="1239" x2="2552" y2="1172"/>
	<line fill="none" stroke-width="18" stroke-linejoin="round" stroke="#DCFF85" stroke-opacity="1" x1="2584" y1="1257" x2="2523.98" y2="1196.98"/>
	<line fill="none" stroke-width="18" stroke-linejoin="round" stroke="#DCFF85" stroke-opacity="1" x1="2656" y1="1294" x2="2688" y2="1041"/>
	<line fill="none" stroke-width="18" stroke-linejoin="round" stroke="#DCFF85" stroke-opacity="1" x1="2640" y1="1233" x2="2565" y2="875"/>
	<line fill="none" stroke-width="18" stroke-linecap="round" stroke-linejoin="round" stroke="#DCFF85" stroke-opacity="1" x1="2415" y1="1144" x2="2164" y2="960"/>
	<line fill="none" stroke-width="18" stroke-linejoin="round" stroke="#DCFF85" stroke-opacity="1" x1="2560" y1="1331" x2="2464" y2="1330"/>
	<line fill="none" stroke-width="18" stroke-linecap="round" stroke-linejoin="round" stroke="#DCFF85" stroke-opacity="1" x1="2516" y1="1683" x2="2560" y2="1568"/>
	<line fill="none" stroke-width="18" stroke-linecap="round" stroke-linejoin="round" stroke="#DCFF85" stroke-opacity="1" x1="2469.89" y1="1764.36" x2="2505.11" y2="1707.64"/>
	<path fill="#030409" fill-opacity="1" stroke-width="18" stroke-linecap="round" stroke-linejoin="round" stroke="#DCFF85" stroke-opacity="1" d="M 2752,1699L 2688,1475L 2673,1399"/>
	<line fill="none" stroke-width="18" stroke-linejoin="round" stroke="#DCFF85" stroke-opacity="1" x1="2837" y1="1472" x2="2769" y2="1426"/>
	<path fill="none" stroke-width="18" stroke-linejoin="round" stroke="#DCFF85" stroke-opacity="1" d="M 2478.45,1442.52C 2501.91,1428.94 2532.21,1437.46 2546.15,1461.54C 2560.08,1485.61 2552.36,1516.13 2528.91,1529.7C 2505.46,1543.28 2475.15,1534.76 2461.22,1510.69C 2447.28,1486.61 2455,1456.09 2478.45,1442.52 Z "/>
	<path fill="none" stroke-width="18" stroke-linejoin="round" stroke="#DCFF85" stroke-opacity="1" d="M 2861.66,1168.77C 2892.08,1151.16 2929.67,1159.24 2945.62,1186.8C 2961.57,1214.37 2949.85,1250.98 2919.43,1268.58C 2889.01,1286.19 2851.43,1278.11 2835.47,1250.55C 2819.52,1222.98 2831.25,1186.37 2861.66,1168.77 Z "/>
	<path fill="none" stroke-width="18" stroke-linejoin="round" stroke="#DCFF85" stroke-opacity="1" d="M 2878.12,1200.42C 2885.15,1196.35 2895.26,1200.68 2900.7,1210.08C 2906.14,1219.48 2904.85,1230.4 2897.82,1234.47C 2890.79,1238.54 2880.68,1234.22 2875.24,1224.81C 2869.8,1215.41 2871.08,1204.49 2878.12,1200.42 Z "/>
	<path fill="none" stroke-width="18" stroke-linejoin="round" stroke="#DCFF85" stroke-opacity="1" d="M 2657.25,1772.42C 2681.1,1761.36 2705.37,1763.03 2711.45,1776.15C 2717.53,1789.26 2703.13,1808.86 2679.28,1819.92C 2655.43,1830.98 2631.17,1829.31 2625.08,1816.2C 2619,1803.08 2633.4,1783.48 2657.25,1772.42 Z "/>
	<line fill="none" stroke-width="18" stroke-linejoin="round" stroke="#DCFF85" stroke-opacity="1" x1="2684" y1="1819" x2="2656" y2="1778"/>
	<line fill="none" stroke-width="18" stroke-linejoin="round" stroke="#DCFF85" stroke-opacity="1" x1="2634" y1="1817" x2="2702" y2="1778"/>
	<path fill="none" stroke-width="18" stroke-linejoin="round" stroke="#DCFF85" stroke-opacity="1" d="M 1865.28,1569.37C 1890.62,1596.46 1899.77,1629.08 1885.72,1642.22C 1871.67,1655.37 1839.73,1644.06 1814.39,1616.96C 1789.05,1589.87 1779.9,1557.25 1793.95,1544.1C 1808,1530.96 1839.94,1542.27 1865.28,1569.37 Z "/>
	<line fill="none" stroke-width="18" stroke-linecap="round" stroke-linejoin="round" stroke="#DCFF85" stroke-opacity="1" x1="1863" y1="1568" x2="1984" y2="1472"/>
	<line fill="none" stroke-width="18" stroke-linecap="round" stroke-linejoin="miter" stroke="#DCFF85" stroke-opacity="1" x1="1893" y1="1543" x2="1824" y2="1440"/>
	<path fill="#030409" fill-opacity="1" stroke-width="18" stroke-linecap="round" stroke-linejoin="round" stroke="#DCFF85" stroke-opacity="1" d="M 2292,1810C 2292,1810 2161,1726 2149,1711"/>
	<line fill="none" stroke-width="18" stroke-linecap="round" stroke-linejoin="round" stroke="#DCFF85" stroke-opacity="1" x1="2235" y1="1800" x2="2304" y2="1777"/>
	<line fill="none" stroke-width="18" stroke-linecap="round" stroke-linejoin="round" stroke="#DCFF85" stroke-opacity="1" x1="2074" y1="1817" x2="2092" y2="1796"/>
	<path fill="none" stroke-width="18" stroke-linejoin="round" stroke="#DCFF85" stroke-opacity="1" d="M 2553.72,821C 2570.69,821 2584.45,832.139 2584.45,845.88C 2584.45,859.621 2570.69,870.761 2553.72,870.761C 2536.75,870.761 2523,859.621 2523,845.88C 2523,832.139 2536.75,821 2553.72,821 Z "/>
	<path fill="none" stroke-width="18" stroke-linejoin="round" stroke="#DCFF85" stroke-opacity="1" d="M 1915,1120C 1915,1120 1929,1102 1935,1095C 1941,1088 1920,1083 1920,1083"/>
	<path fill="none" stroke-width="23" stroke-linecap="round" stroke-linejoin="round" stroke="#DCFF85" stroke-opacity="1" d="M 1984,960C 1984,960 2048,916 2048,879"/>
	<line fill="none" stroke-width="16" stroke-linejoin="round" stroke="#DCFF85" stroke-opacity="1" x1="2675" y1="1312" x2="2880" y2="1216"/>
	<path fill="none" fill-rule="evenodd" stroke-width="16" stroke-linejoin="round" stroke="#DCFF85" stroke-opacity="1" d="M 2514,1332C 2514,1332 2561.6,1462.55 2678,1434C 2784,1408 2788,1296 2772,1270C 2756,1244 2734,1202 2674,1184"/>
	<path fill="none" stroke-width="18" stroke-linejoin="round" stroke="#DCFF85" stroke-opacity="1" d="M 2935.31,983.754C 2953.79,951.393 2997.63,943.701 3033.25,966.574C 3068.87,989.446 3082.78,1034.22 3064.3,1066.58C 3045.83,1098.94 3001.99,1106.63 2966.37,1083.76C 2930.75,1060.89 2916.84,1016.11 2935.31,983.754 Z "/>
	<path fill="#DCFF85" fill-opacity="1" stroke-width="18" stroke-linejoin="round" stroke="#DCFF85" stroke-opacity="1" d="M 2974.39,1004.77C 2982.27,990.96 3001.26,987.853 3016.79,997.83C 3032.33,1007.81 3038.54,1027.09 3030.66,1040.9C 3022.77,1054.71 3003.79,1057.82 2988.25,1047.84C 2972.71,1037.87 2966.5,1018.58 2974.39,1004.77 Z "/>
	<path fill="none" stroke-width="18" stroke-linejoin="round" stroke="#DCFF85" stroke-opacity="1" d="M 1843.93,1439.01C 1853.15,1448.87 1854.92,1462.19 1847.88,1468.77C 1840.85,1475.34 1827.68,1472.69 1818.46,1462.83C 1809.24,1452.98 1807.47,1439.66 1814.51,1433.08C 1821.54,1426.5 1834.71,1429.16 1843.93,1439.01 Z "/>
</svg>
