<?xml version="1.0" encoding="utf-8"?>
<!DOCTYPE svg PUBLIC "-//W3C//DTD SVG 1.1//EN" "http://www.w3.org/Graphics/SVG/1.1/DTD/svg11.dtd">
<svg xmlns="http://www.w3.org/2000/svg" xmlns:xlink="http://www.w3.org/1999/xlink" version="1.1" baseProfile="full" width="3840" height="2160" viewBox="0 0 3840.00 2160.00" enable-background="new 0 0 3840.00 2160.00" xml:space="preserve">
	<rect x="0.000651042" y="0" fill="#030409" fill-opacity="1" fill-rule="evenodd" stroke-linejoin="round" stroke="#000000" stroke-opacity="1" width="3840" height="2160"/>
	<path fill="none" stroke-width="16" stroke-linejoin="round" stroke="#05408F" stroke-opacity="0.803922" d="M 2140,2402C 2140,2402 2080,1056 576,896C 107.913,846.203 -508.978,1191.93 -704.001,1081.73"/>
	<path fill="none" stroke-width="16" stroke-linejoin="round" stroke="#00347C" stroke-opacity="1" d="M 395,5564C 395,5564 587.001,4956 1259,4828C 1309.92,4818.3 1899.41,4677.67 1931,4636C 2091,4425 2089,4604 2620,4252C 3144.57,3904.26 3884.12,3589.28 4060,3516"/>
	<g>
		<path fill="#1059FB" fill-opacity="0.901961" stroke-width="0.2" stroke-linejoin="round" stroke="#438DFE" stroke-opacity="0.901961" d="M 1250.23,4113.15C 1270.36,4113.15 1286.67,4129.14 1286.67,4148.85C 1286.67,4168.57 1270.36,4184.56 1250.23,4184.56C 1230.11,4184.56 1213.79,4168.57 1213.79,4148.85C 1213.79,4129.14 1230.11,4113.15 1250.23,4113.15 Z "/>
		<path fill="#1059FB" fill-opacity="1" stroke-width="0.2" stroke-linejoin="round" stroke="#438DFE" stroke-opacity="1" d="M 1199.38,4137.17L 1151.34,4137.17C 1151.34,4137.17 1144.56,4088.63 1190.6,4065.19L 1217.44,4107.23L 1199.38,4137.17 Z "/>
		<path fill="#1059FB" fill-opacity="1" stroke-width="0.2" stroke-linejoin="round" stroke="#438DFE" stroke-opacity="1" d="M 1233.54,4094.67L 1208.19,4056.53C 1208.19,4056.53 1248.02,4027.97 1290.17,4057.83L 1265.43,4095.14L 1233.54,4094.67 Z "/>
		<path fill="#1059FB" fill-opacity="1" stroke-width="0.2" stroke-linejoin="round" stroke="#438DFE" stroke-opacity="1" d="M 1301.13,4137.17L 1349.16,4137.17C 1349.16,4137.17 1355.94,4088.63 1309.91,4065.19L 1283.06,4107.23L 1301.13,4137.17 Z "/>
		<path fill="#1059FB" fill-opacity="1" stroke-width="0.2" stroke-linejoin="round" stroke="#438DFE" stroke-opacity="1" d="M 1199.38,4159.12L 1151.34,4159.12C 1151.34,4159.12 1144.56,4207.67 1190.6,4231.1L 1217.44,4189.07L 1199.38,4159.12 Z "/>
		<path fill="#1059FB" fill-opacity="1" stroke-width="0.2" stroke-linejoin="round" stroke="#438DFE" stroke-opacity="1" d="M 1233.54,4201.62L 1208.19,4239.77C 1208.19,4239.76 1248.02,4268.33 1290.17,4238.46L 1265.43,4201.16L 1233.54,4201.62 Z "/>
		<path fill="#1059FB" fill-opacity="1" stroke-width="0.2" stroke-linejoin="round" stroke="#438DFE" stroke-opacity="1" d="M 1301.13,4159.12L 1349.16,4159.12C 1349.16,4159.12 1355.94,4207.67 1309.91,4231.1L 1283.06,4189.07L 1301.13,4159.12 Z "/>
	</g>
	<g>
		<path fill="#0083FF" fill-opacity="1" stroke-width="0.2" stroke-linejoin="round" d="M 874.799,4133.86L 890.998,4104.23L 911.598,4104.23L 911.598,4137.36L 894.201,4137.36L 894.201,4128.83L 903.076,4128.83L 903.076,4112.76L 895.854,4112.76L 882.068,4137.86L 874.799,4133.86 Z "/>
		<path fill="#0083FF" fill-opacity="1" stroke-width="0.2" stroke-linejoin="round" d="M 927.139,4112.76L 944.419,4112.76L 950.2,4118.57L 950.2,4137.36L 958.722,4137.36L 958.722,4114.92L 948.014,4104.23L 918.617,4104.23L 918.617,4137.36L 927.139,4137.36L 927.139,4112.76 Z "/>
		<path fill="#0083FF" fill-opacity="1" stroke-width="0.2" stroke-linejoin="round" d="M 963.03,4133.86L 979.229,4104.23L 999.829,4104.23L 999.829,4137.36L 982.432,4137.36L 982.432,4128.83L 991.307,4128.83L 991.307,4112.76L 984.085,4112.76L 970.299,4137.86L 963.03,4133.86 Z "/>
		<path fill="#0083FF" fill-opacity="1" stroke-width="0.2" stroke-linejoin="round" d="M 1007.85,4124.63L 1014.99,4117.31L 1006.94,4109.13L 1012.76,4103.22L 1028.35,4119.08L 1032.41,4114.89L 1032.41,4104.13L 1040.94,4104.13L 1040.94,4118.37L 1034.44,4124.94L 1041.84,4132.46L 1036.03,4138.36L 1021.19,4123.22L 1016.37,4128.06L 1016.37,4137.45L 1007.85,4137.45L 1007.85,4124.63 Z "/>
		<path fill="#0083FF" fill-opacity="1" stroke-width="0.2" stroke-linejoin="round" d="M 1082.04,4125.31L 1082.04,4104.23L 1048.96,4104.23L 1048.96,4137.36L 1082.04,4137.36L 1082.04,4128.83L 1057.48,4128.83L 1057.48,4112.26L 1073.52,4112.26L 1073.52,4116.78L 1066.71,4116.78L 1066.71,4125.31L 1082.04,4125.31 Z "/>
		<path fill="#0083FF" fill-opacity="1" stroke-width="0.2" stroke-linejoin="round" d="M 1122.15,4112.26L 1097.58,4112.26L 1097.58,4116.78L 1122.15,4116.78L 1122.15,4137.36L 1089.06,4137.36L 1089.06,4128.83L 1113.63,4128.83L 1113.63,4125.31L 1089.06,4125.31L 1089.06,4104.23L 1122.15,4104.23L 1122.15,4112.26 Z "/>
	</g>
	<g>
		<path fill="#0083FF" fill-opacity="1" stroke-width="0.2" stroke-linejoin="round" d="M 783.178,4159.41L 791.105,4159.41L 791.105,4165.82L 812.509,4165.82L 823.424,4159.41L 839.399,4159.41L 812.509,4173.36L 783.178,4173.36L 783.178,4159.41 Z M 783.178,4178.06L 813.357,4178.06L 839.756,4192L 824.851,4192L 811.93,4185.6L 790.96,4185.6L 790.96,4192L 783.178,4192L 783.178,4178.06 Z "/>
		<path fill="#0083FF" fill-opacity="1" stroke-width="0.2" stroke-linejoin="round" d="M 854.103,4185.7L 854.962,4185.63L 870.012,4159.41L 879.432,4159.41L 899.477,4192L 890.201,4192L 874.794,4166.25L 859.878,4192L 850.681,4192L 850.179,4191.97L 849.254,4190.76L 848.396,4189.45L 847.247,4187.64L 846.255,4185.56L 845.33,4183.38L 844.75,4180.87L 844.182,4178.02L 843.97,4175.07L 843.825,4171.89L 844.471,4169.44L 845.04,4166.83L 845.687,4164.85L 846.679,4163.03L 847.604,4161.46L 848.752,4160.15L 849.388,4159.48L 856.244,4159.48L 855.029,4160.52L 854.103,4161.8L 853.1,4163.37L 852.387,4164.91L 851.751,4166.83L 851.105,4169.34L 850.681,4172.12L 850.458,4174.9L 850.681,4177.68L 851.25,4180.63L 851.963,4182.88L 852.743,4184.26L 854.103,4185.7 Z "/>
		<path fill="#0083FF" fill-opacity="1" stroke-width="0.2" stroke-linejoin="round" d="M 903.044,4159.41L 910.971,4159.41L 910.971,4165.82L 932.375,4165.82L 943.289,4159.41L 959.265,4159.41L 932.375,4173.36L 903.044,4173.36L 903.044,4159.41 Z M 903.044,4178.06L 933.222,4178.06L 959.621,4192L 944.716,4192L 931.795,4185.6L 910.826,4185.6L 910.826,4192L 903.044,4192L 903.044,4178.06 Z "/>
		<path fill="#0083FF" fill-opacity="1" stroke-width="0.2" stroke-linejoin="round" d="M 1005.43,4188.68L 997.659,4192L 970.97,4192L 963.267,4188.68L 981.104,4159.48L 988.952,4159.48L 1005.43,4188.68 Z M 995.295,4185.56L 985.028,4166.66L 973.757,4185.56L 995.295,4185.56 Z "/>
		<path fill="#0083FF" fill-opacity="1" stroke-width="0.2" stroke-linejoin="round" d="M 1060.87,4159.38L 1060.87,4166.89L 1055.45,4166.89L 1055.45,4192L 1048.09,4192L 1048.09,4166.89L 1047.1,4166.89L 1034.26,4192L 1024.84,4192L 1008,4159.38L 1017.06,4159.38L 1029.62,4182.71L 1041.82,4159.38L 1060.87,4159.38 Z "/>
		<path fill="#0083FF" fill-opacity="1" stroke-width="0.2" stroke-linejoin="round" d="M 1081.85,4159.41L 1109.74,4184.26L 1109.74,4159.41L 1117.59,4159.41L 1117.59,4192L 1106.82,4192L 1070.08,4159.41L 1081.85,4159.41 Z M 1067.08,4176.51L 1095.54,4185.7L 1093.04,4192L 1064.44,4182.98L 1067.08,4176.51 Z "/>
	</g>
	<path fill="none" stroke-width="19" stroke-linejoin="round" stroke="#00419A" stroke-opacity="0.803922" d="M -96,1920C 32,1536 621.044,1411.26 608,1021.11C 576,63.9998 610.875,-197.03 576,-224"/>
	<path fill="none" stroke-width="16" stroke-linejoin="round" stroke="#267FF8" stroke-opacity="1" d="M 2304,2368C 2304,2368 3104,544 4192,384"/>
	<path fill="#378AFB" fill-opacity="1" stroke-width="0.2" stroke-linejoin="round" stroke="#4E9AFB" stroke-opacity="1" d="M 1190.97,4289C 1209.21,4289 1224,4303.33 1224,4321C 1224,4338.67 1209.21,4353 1190.97,4353C 1172.72,4353 1157.94,4338.67 1157.94,4321C 1157.94,4303.33 1172.72,4289 1190.97,4289 Z "/>
	<path fill="#378AFB" fill-opacity="1" stroke-width="0.2" stroke-linejoin="round" stroke="#4E9AFB" stroke-opacity="1" d="M 1353.97,4832C 1372.21,4832 1387,4846.33 1387,4864C 1387,4881.67 1372.21,4896 1353.97,4896C 1335.72,4896 1320.94,4881.67 1320.94,4864C 1320.94,4846.33 1335.72,4832 1353.97,4832 Z "/>
	<path fill="none" stroke-width="19" stroke-linejoin="round" stroke="#00419A" stroke-opacity="0.803922" d="M 1643,5600C 1643,5588.97 1963,5376 1963,5120C 1963,4538.34 1855.04,4444.65 1839.19,4428.88C 1622.99,4213.83 1491.56,4174 1432,4174C 1413.88,4174 1364.62,4132.01 1377,4078C 1465,3694 1261,3380 673,2862"/>
	<g>
		<path fill="#DCFF85" fill-opacity="1" stroke-width="0.2" stroke-linejoin="round" d="M 939.869,4494.68L 939.869,4442.13L 960.162,4417.1L 1001.78,4417.1L 1001.78,4437.08L 966.49,4437.08L 955.696,4450.42L 955.696,4474.7L 1001.78,4474.7L 1001.78,4494.68L 939.869,4494.68 Z "/>
		<path fill="#DCFF85" fill-opacity="1" stroke-width="0.2" stroke-linejoin="round" d="M 1075.79,4417.1L 1075.79,4494.68L 1014.35,4494.68L 1014.35,4417.1L 1075.79,4417.1 Z M 1059.97,4437.08L 1030.18,4437.08L 1030.18,4474.7L 1059.97,4474.7L 1059.97,4437.08 Z "/>
		<path fill="#DCFF85" fill-opacity="1" stroke-width="0.2" stroke-linejoin="round" d="M 1088.83,4494.68L 1088.83,4417.1L 1147.48,4417.1L 1147.48,4465.29L 1124.13,4465.29L 1147.48,4494.68L 1127.9,4494.68L 1104.66,4465.53L 1104.66,4494.68L 1088.83,4494.68 Z M 1131.65,4437.08L 1104.66,4437.08L 1104.66,4445.31L 1131.65,4445.31L 1131.65,4437.08 Z "/>
		<path fill="#DCFF85" fill-opacity="1" stroke-width="0.2" stroke-linejoin="round" d="M 1221.96,4494.68L 1160.52,4494.68L 1160.52,4417.1L 1176.34,4417.1L 1176.34,4474.7L 1206.13,4474.7L 1206.13,4417.1L 1221.96,4417.1L 1221.96,4494.68 Z "/>
		<path fill="#DCFF85" fill-opacity="1" stroke-width="0.2" stroke-linejoin="round" d="M 1296.44,4435.91L 1250.82,4435.91L 1250.82,4446.49L 1296.44,4446.49L 1296.44,4494.68L 1235,4494.68L 1235,4474.7L 1280.61,4474.7L 1280.61,4466.47L 1235,4466.47L 1235,4417.1L 1296.44,4417.1L 1296.44,4435.91 Z "/>
		<path fill="#DCFF85" fill-opacity="1" stroke-width="0.2" stroke-linejoin="round" d="M 1309.47,4494.68L 1309.47,4442.13L 1329.77,4417.1L 1371.39,4417.1L 1371.39,4437.08L 1336.1,4437.08L 1325.3,4450.42L 1325.3,4474.7L 1371.39,4474.7L 1371.39,4494.68L 1309.47,4494.68 Z "/>
		<path fill="#DCFF85" fill-opacity="1" stroke-width="0.2" stroke-linejoin="round" d="M 1378.92,4486.49L 1409,4417.1L 1447.26,4417.1L 1447.26,4494.68L 1414.95,4494.68L 1414.95,4474.7L 1431.44,4474.7L 1431.44,4437.08L 1418.02,4437.08L 1392.42,4495.86L 1378.92,4486.49 Z "/>
		<path fill="#DCFF85" fill-opacity="1" stroke-width="0.2" stroke-linejoin="round" d="M 1476.12,4437.08L 1508.21,4437.08L 1518.95,4450.69L 1518.95,4494.68L 1534.78,4494.68L 1534.78,4442.13L 1514.89,4417.1L 1460.3,4417.1L 1460.3,4494.68L 1476.12,4494.68L 1476.12,4437.08 Z "/>
		<path fill="#DCFF85" fill-opacity="1" stroke-width="0.2" stroke-linejoin="round" d="M 1572.95,4435.91L 1572.95,4474.7L 1596.79,4474.7L 1596.79,4494.68L 1558.05,4494.68L 1558.05,4435.91L 1547.71,4435.91L 1547.71,4417.1L 1605.44,4417.1L 1605.44,4435.91L 1572.95,4435.91 Z "/>
	</g>
	<g>
		<path fill="#DCFF85" fill-opacity="1" stroke-width="0.2" stroke-linejoin="round" d="M 812.942,4520.77L 826.826,4520.77L 826.826,4558.96L 812.942,4558.96L 812.942,4520.77 Z M 831.299,4537.81L 845.047,4537.81L 845.047,4558.96L 831.299,4558.96L 831.299,4537.81 Z M 849.501,4537.81L 863.521,4537.81L 863.521,4576L 849.501,4576L 849.501,4537.81 Z "/>
		<path fill="#DCFF85" fill-opacity="1" stroke-width="0.2" stroke-linejoin="round" d="M 932.669,4520.42L 953.234,4564.62L 945.062,4576L 878.508,4576L 870.085,4564.45L 889.914,4520.42L 932.669,4520.42 Z M 884.453,4563.82L 938.73,4563.82L 924.73,4533.24L 898.453,4533.24L 884.453,4563.82 Z "/>
		<path fill="#DCFF85" fill-opacity="1" stroke-width="0.2" stroke-linejoin="round" d="M 1035.4,4520.42L 983.596,4576L 965.762,4576L 1003.68,4534.83L 1003.68,4533.86L 958.191,4533.86L 969.228,4520.42L 1035.4,4520.42 Z "/>
		<path fill="#DCFF85" fill-opacity="1" stroke-width="0.2" stroke-linejoin="round" d="M 1123.89,4520.42L 1126.87,4523.17L 1126.87,4573.14L 1123.64,4576L 1041.11,4576L 1041.11,4520.42L 1055.36,4520.42L 1055.36,4563.99L 1112.62,4563.99L 1112.62,4533.24L 1094.15,4533.24L 1085.47,4543.81L 1067,4543.81L 1086.46,4520.42L 1123.89,4520.42 Z "/>
		<path fill="#DCFF85" fill-opacity="1" stroke-width="0.2" stroke-linejoin="round" d="M 1162.19,4520.42L 1210.64,4562.8L 1210.64,4520.42L 1224.27,4520.42L 1224.27,4576L 1205.57,4576L 1141.74,4520.42L 1162.19,4520.42 Z M 1136.53,4549.58L 1185.97,4565.25L 1181.63,4576L 1131.94,4560.62L 1136.53,4549.58 Z "/>
		<path fill="#DCFF85" fill-opacity="1" stroke-width="0.2" stroke-linejoin="round" d="M 1230.58,4520.77L 1244.47,4520.77L 1244.47,4558.96L 1230.58,4558.96L 1230.58,4520.77 Z M 1248.94,4537.81L 1262.69,4537.81L 1262.69,4558.96L 1248.94,4558.96L 1248.94,4537.81 Z M 1267.14,4537.81L 1281.16,4537.81L 1281.16,4576L 1267.14,4576L 1267.14,4537.81 Z "/>
		<path fill="#DCFF85" fill-opacity="1" stroke-width="0.2" stroke-linejoin="round" d="M 1287.84,4520.42L 1301.61,4520.42L 1301.61,4531.35L 1338.79,4531.35L 1357.75,4520.42L 1385.5,4520.42L 1338.79,4544.21L 1287.84,4544.21L 1287.84,4520.42 Z M 1287.84,4552.22L 1340.26,4552.22L 1386.12,4576L 1360.23,4576L 1337.78,4565.08L 1301.36,4565.08L 1301.36,4576L 1287.84,4576L 1287.84,4552.22 Z "/>
		<path fill="#DCFF85" fill-opacity="1" stroke-width="0.2" stroke-linejoin="round" d="M 1411.04,4565.25L 1412.53,4565.14L 1438.67,4520.42L 1455.03,4520.42L 1489.85,4576L 1473.74,4576L 1446.98,4532.09L 1421.07,4576L 1405.09,4576L 1404.22,4575.95L 1402.61,4573.88L 1401.12,4571.66L 1399.13,4568.57L 1397.4,4565.02L 1395.8,4561.3L 1394.79,4557.02L 1393.8,4552.16L 1393.44,4547.13L 1393.18,4541.7L 1394.31,4537.52L 1395.29,4533.07L 1396.42,4529.69L 1398.14,4526.6L 1399.75,4523.92L 1401.74,4521.68L 1402.85,4520.54L 1414.75,4520.54L 1412.64,4522.31L 1411.04,4524.49L 1409.29,4527.17L 1408.05,4529.8L 1406.95,4533.07L 1405.83,4537.35L 1405.09,4542.1L 1404.7,4546.84L 1405.09,4551.58L 1406.08,4556.61L 1407.32,4560.45L 1408.67,4562.8L 1411.04,4565.25 Z "/>
		<path fill="#DCFF85" fill-opacity="1" stroke-width="0.2" stroke-linejoin="round" d="M 1549.22,4520.42L 1549.22,4565.42L 1553.19,4565.42L 1574.12,4546.22L 1592.46,4546.22L 1559.38,4576L 1527.28,4576L 1494.07,4546.04L 1512.41,4546.04L 1533.48,4565.25L 1537.31,4565.25L 1537.31,4520.42L 1549.22,4520.42 Z "/>
	</g>
	<path fill="#378AFB" fill-opacity="1" stroke-width="0.2" stroke-linejoin="round" stroke="#4E9AFB" stroke-opacity="1" d="M 2633.97,4128C 2652.21,4128 2667,4142.33 2667,4160C 2667,4177.67 2652.21,4192 2633.97,4192C 2615.72,4192 2600.94,4177.67 2600.94,4160C 2600.94,4142.33 2615.72,4128 2633.97,4128 Z "/>
	<path fill="#267FF8" fill-opacity="1" stroke-width="0.2" stroke-linejoin="round" stroke="#267FF8" stroke-opacity="1" d="M 2540.03,4768C 2558.28,4768 2573.06,4782.33 2573.06,4800C 2573.06,4817.67 2558.28,4832 2540.03,4832C 2521.79,4832 2507,4817.67 2507,4800C 2507,4782.33 2521.79,4768 2540.03,4768 Z "/>
	<path fill="#378AFB" fill-opacity="1" stroke-width="0.2" stroke-linejoin="round" stroke="#4E9AFB" stroke-opacity="1" d="M 2668.03,4896C 2686.28,4896 2701.06,4910.33 2701.06,4928C 2701.06,4945.67 2686.28,4960 2668.03,4960C 2649.79,4960 2635,4945.67 2635,4928C 2635,4910.33 2649.79,4896 2668.03,4896 Z "/>
	<path fill="none" stroke-width="16" stroke-linejoin="round" stroke="#00347C" stroke-opacity="0.803922" d="M 352,5927C 352,5927 543.131,4937 1919.27,4937C 3295.42,4937 3563,5993 3563,5993"/>
	<path fill="none" stroke-width="16" stroke-linejoin="round" stroke="#267FF8" stroke-opacity="1" d="M 640,672C 640,672 992,1472 2368,2464C 2807.63,2780.94 2976,3088 3008,3136"/>
	<path fill="none" stroke-width="19" stroke-linejoin="round" stroke="#1C79D4" stroke-opacity="0.803922" d="M 3712,2432C 3712,2432 3232,320 1856,-191.999"/>
	<path fill="none" stroke-width="16" stroke-linejoin="round" stroke="#DCFF85" stroke-opacity="1" d="M 682,527.394C 682,527.394 1121.8,386.394 1786.54,590.394"/>
	<path fill="none" stroke-width="16" stroke-linejoin="round" stroke="#DCFF85" stroke-opacity="1" d="M 687.952,588.184C 687.952,588.184 1128.74,451.653 1792,662.392"/>
	<path fill="none" stroke-width="16" stroke-linejoin="round" stroke="#00347C" stroke-opacity="1" d="M 3979,6048C 3979,6048 3531,4495.68 1995,4650.91"/>
	<path fill="none" stroke-width="16" stroke-linejoin="round" stroke="#DCFF85" stroke-opacity="1" d="M 3947,6080C 3947,6080 3633.03,4672.73 2277,4640"/>
	<path fill="#DCFF85" fill-opacity="1" stroke-width="6" stroke-linejoin="round" stroke="#DCFF85" stroke-opacity="1" d="M 2659.53,1207.01L 2659.53,1262.84L 2726.54,1207.01L 2659.53,1207.01 Z "/>
	<path fill="none" stroke-width="16" stroke-linejoin="round" stroke="#DCFF85" stroke-opacity="1" d="M 2588.81,1140L 2655.61,1140L 3121.11,1140L 3121.11,1672.31L 2588.81,1672.31L 2588.81,1195.65L 2588.81,1140 Z "/>
	<rect x="2659.53" y="1207.01" fill="none" stroke-width="16" stroke-linejoin="round" stroke="#DCFF85" stroke-opacity="1" width="387.131" height="394.576"/>
	<path fill="#DCFF85" fill-opacity="1" stroke-width="6" stroke-linejoin="round" stroke="#DCFF85" stroke-opacity="1" d="M 3122,1674L 3122,1618.16L 3055,1674L 3122,1674 Z "/>
	<ellipse fill="#030409" fill-opacity="1" stroke-width="16" stroke-linejoin="round" stroke="#DCFF85" stroke-opacity="1" cx="2857.2" cy="1405.41" rx="111.672" ry="107.95"/>
	<ellipse fill="#DCFF85" fill-opacity="1" stroke-width="0.2" stroke-linejoin="round" cx="2856.82" cy="1404.29" rx="67.0039" ry="67.0037"/>
	<path fill="#378AFB" fill-opacity="1" stroke-width="0.2" stroke-linejoin="round" stroke="#4E9AFB" stroke-opacity="1" d="M 3905,5344C 3923.24,5344 3938.03,5358.33 3938.03,5376C 3938.03,5393.67 3923.24,5408 3905,5408C 3886.76,5408 3871.97,5393.67 3871.97,5376C 3871.97,5358.33 3886.76,5344 3905,5344 Z "/>
	<path fill="none" stroke-width="19" stroke-linejoin="round" stroke="#00419A" stroke-opacity="0.803922" d="M -1600,2656C -1792,2368 -2060.34,2485.94 -2080,2368C -2144,1984 -2132,1894 -2720,1376"/>
	<path fill="none" stroke-width="16" stroke-linejoin="round" stroke="#DCFF85" stroke-opacity="1" d="M 692.451,608C 692.451,608 1125.42,649.555 1690.52,1024C 2173.46,1344 2431.02,1408 2592,1408"/>
	<g>
		<path fill="#DCFF85" fill-opacity="1" stroke-width="0.2" stroke-linejoin="round" d="M 1928.26,611.49L 1928.26,629.007L 1917.38,629.007L 1917.38,638.032L 1935.52,638.032L 1935.52,611.49L 1940.22,611.49L 1940.22,602.996L 1913.36,602.996L 1913.36,611.49L 1928.26,611.49 Z "/>
		<rect x="1946.2" y="602.996" fill="#DCFF85" fill-opacity="1" stroke-width="0.2" stroke-linejoin="round" width="7.25842" height="35.0354"/>
		<path fill="#DCFF85" fill-opacity="1" stroke-width="0.2" stroke-linejoin="round" d="M 1966.69,612.021L 1981.41,612.021L 1986.33,618.167L 1986.33,638.032L 1993.59,638.032L 1993.59,614.301L 1984.47,602.996L 1959.43,602.996L 1959.43,638.032L 1966.69,638.032L 1966.69,612.021 Z "/>
		<path fill="#DCFF85" fill-opacity="1" stroke-width="0.2" stroke-linejoin="round" d="M 1997.26,634.332L 2011.06,602.996L 2028.6,602.996L 2028.6,638.032L 2013.79,638.032L 2013.79,629.007L 2021.34,629.007L 2021.34,612.021L 2015.19,612.021L 2003.45,638.562L 1997.26,634.332 Z "/>
		<path fill="#DCFF85" fill-opacity="1" stroke-width="0.2" stroke-linejoin="round" d="M 2046.11,611.49L 2046.11,629.007L 2057.04,629.007L 2057.04,638.032L 2039.28,638.032L 2039.28,611.49L 2034.53,611.49L 2034.53,602.996L 2061.01,602.996L 2061.01,611.49L 2046.11,611.49 Z "/>
		<path fill="#DCFF85" fill-opacity="1" stroke-width="0.2" stroke-linejoin="round" d="M 2065.15,634.332L 2078.95,602.996L 2096.49,602.996L 2096.49,638.032L 2081.68,638.032L 2081.68,629.007L 2089.23,629.007L 2089.23,612.021L 2083.08,612.021L 2071.34,638.562L 2065.15,634.332 Z "/>
		<path fill="#DCFF85" fill-opacity="1" stroke-width="0.2" stroke-linejoin="round" d="M 2117.24,634.332L 2131.04,602.996L 2148.58,602.996L 2148.58,638.032L 2133.77,638.032L 2133.77,629.007L 2141.32,629.007L 2141.32,612.021L 2135.17,612.021L 2123.43,638.562L 2117.24,634.332 Z "/>
		<path fill="#DCFF85" fill-opacity="1" stroke-width="0.2" stroke-linejoin="round" d="M 2182.74,611.49L 2161.82,611.49L 2161.82,616.267L 2182.74,616.267L 2182.74,638.032L 2154.56,638.032L 2154.56,629.007L 2175.48,629.007L 2175.48,625.292L 2154.56,625.292L 2154.56,602.996L 2182.74,602.996L 2182.74,611.49 Z "/>
		<path fill="#DCFF85" fill-opacity="1" stroke-width="0.2" stroke-linejoin="round" d="M 2200.25,611.49L 2200.25,629.007L 2211.18,629.007L 2211.18,638.032L 2193.42,638.032L 2193.42,611.49L 2188.67,611.49L 2188.67,602.996L 2215.15,602.996L 2215.15,611.49L 2200.25,611.49 Z "/>
		<path fill="#DCFF85" fill-opacity="1" stroke-width="0.2" stroke-linejoin="round" d="M 2249.78,625.292L 2249.78,602.996L 2221.6,602.996L 2221.6,638.032L 2249.78,638.032L 2249.78,629.007L 2228.86,629.007L 2228.86,611.49L 2242.52,611.49L 2242.52,616.267L 2236.71,616.267L 2236.71,625.292L 2249.78,625.292 Z "/>
		<path fill="#DCFF85" fill-opacity="1" stroke-width="0.2" stroke-linejoin="round" d="M 2255.76,638.032L 2255.76,602.996L 2282.66,602.996L 2282.66,624.761L 2271.95,624.761L 2282.66,638.032L 2273.68,638.032L 2263.01,624.869L 2263.01,638.032L 2255.76,638.032 Z M 2275.4,612.021L 2263.01,612.021L 2263.01,615.736L 2275.4,615.736L 2275.4,612.021 Z "/>
		<path fill="#DCFF85" fill-opacity="1" stroke-width="0.2" stroke-linejoin="round" d="M 2316.81,602.996L 2316.81,638.032L 2288.63,638.032L 2288.63,602.996L 2316.81,602.996 Z M 2309.55,612.021L 2295.89,612.021L 2295.89,629.007L 2309.55,629.007L 2309.55,612.021 Z "/>
		<rect x="2322.79" y="602.996" fill="#DCFF85" fill-opacity="1" stroke-width="0.2" stroke-linejoin="round" width="7.25854" height="35.0354"/>
		<path fill="#DCFF85" fill-opacity="1" stroke-width="0.2" stroke-linejoin="round" d="M 2364.21,602.996L 2364.21,626.726L 2355.08,638.032L 2336.03,638.032L 2336.03,602.996L 2364.21,602.996 Z M 2356.95,612.021L 2343.29,612.021L 2343.29,629.007L 2352.13,629.007L 2356.95,622.986L 2356.95,612.021 Z "/>
		<path fill="#DCFF85" fill-opacity="1" stroke-width="0.2" stroke-linejoin="round" d="M 2414.04,612.021L 2394.52,612.021L 2394.52,618.921L 2409.85,618.921L 2409.85,627.946L 2394.52,627.946L 2394.52,638.032L 2387.26,638.032L 2387.26,602.996L 2414.04,602.996L 2414.04,612.021 Z "/>
		<rect x="2420.14" y="602.996" fill="#DCFF85" fill-opacity="1" stroke-width="0.2" stroke-linejoin="round" width="7.25854" height="35.0354"/>
		<path fill="#DCFF85" fill-opacity="1" stroke-width="0.2" stroke-linejoin="round" d="M 2461.56,625.292L 2461.56,602.996L 2433.38,602.996L 2433.38,638.032L 2461.56,638.032L 2461.56,629.007L 2440.64,629.007L 2440.64,611.49L 2454.3,611.49L 2454.3,616.267L 2448.5,616.267L 2448.5,625.292L 2461.56,625.292 Z "/>
		<path fill="#DCFF85" fill-opacity="1" stroke-width="0.2" stroke-linejoin="round" d="M 2467.54,638.032L 2467.54,602.996L 2474.8,602.996L 2474.8,629.007L 2493.54,629.007L 2493.54,638.032L 2467.54,638.032 Z "/>
		<path fill="#DCFF85" fill-opacity="1" stroke-width="0.2" stroke-linejoin="round" d="M 2527.74,602.996L 2527.74,626.726L 2518.61,638.032L 2499.56,638.032L 2499.56,602.996L 2527.74,602.996 Z M 2520.48,612.021L 2506.82,612.021L 2506.82,629.007L 2515.66,629.007L 2520.48,622.986L 2520.48,612.021 Z "/>
	</g>
	<g>
		<path fill="#DCFF85" fill-opacity="1" stroke-width="0.2" stroke-linejoin="round" d="M 1950.06,648.131L 1937.7,681L 1913.67,681L 1913.67,673.584L 1934.11,673.584L 1937.7,663.296C 1935.86,664.671 1934.17,665.607 1932.62,666.105C 1931.07,666.602 1929.29,667.036 1927.28,667.409C 1925.26,667.781 1921.99,668.012 1917.47,668.104L 1913.78,668.104L 1913.78,660.688L 1917.58,660.688C 1922.03,660.328 1924.89,660.036 1926.16,659.81C 1927.42,659.584 1929.15,659.054 1931.34,658.218C 1934.02,656.952 1936.21,655.744 1937.91,654.595C 1939.62,653.445 1941.53,651.278 1943.65,648.094L 1950.06,648.131 Z "/>
		<path fill="#DCFF85" fill-opacity="1" stroke-width="0.2" stroke-linejoin="round" d="M 1966.9,647.993L 1966.9,681L 1961.75,681L 1961.75,656.287L 1956.22,662.92L 1952.2,658.049C 1952.17,657.869 1952.24,657.687 1952.41,657.504L 1960.18,647.993L 1966.9,647.993 Z "/>
		<path fill="#DCFF85" fill-opacity="1" stroke-width="0.2" stroke-linejoin="round" d="M 1977.28,674.637L 1977.91,674.568L 1988.91,648.094L 1995.79,648.094L 2010.44,681L 2003.66,681L 1992.41,655.002L 1981.5,681L 1974.78,681L 1974.42,680.968L 1973.74,679.746L 1973.11,678.429L 1972.27,676.599L 1971.55,674.499L 1970.87,672.299L 1970.45,669.76L 1970.03,666.882L 1969.88,663.904L 1969.77,660.688L 1970.24,658.218L 1970.66,655.578L 1971.13,653.579L 1971.86,651.749L 1972.53,650.162L 1973.37,648.84L 1973.84,648.163L 1978.85,648.163L 1977.96,649.21L 1977.28,650.501L 1976.55,652.087L 1976.03,653.648L 1975.56,655.578L 1975.09,658.118L 1974.78,660.926L 1974.62,663.735L 1974.78,666.544L 1975.2,669.522L 1975.72,671.791L 1976.29,673.182L 1977.28,674.637 Z "/>
		<path fill="#DCFF85" fill-opacity="1" stroke-width="0.2" stroke-linejoin="round" d="M 2013.05,648.094L 2018.84,648.094L 2018.84,654.563L 2034.49,654.563L 2042.46,648.094L 2054.14,648.094L 2034.49,662.18L 2013.05,662.18L 2013.05,648.094 Z M 2013.05,666.919L 2035.1,666.919L 2054.4,681L 2043.5,681L 2034.06,674.536L 2018.74,674.536L 2018.74,681L 2013.05,681L 2013.05,666.919 Z "/>
		<path fill="#DCFF85" fill-opacity="1" stroke-width="0.2" stroke-linejoin="round" d="M 2079.74,648.094L 2079.74,674.737L 2081.41,674.737L 2090.22,663.365L 2097.94,663.365L 2084.02,681L 2070.51,681L 2056.54,663.259L 2064.26,663.259L 2073.12,674.637L 2074.73,674.637L 2074.73,648.094L 2079.74,648.094 Z "/>
		<path fill="#DCFF85" fill-opacity="1" stroke-width="0.2" stroke-linejoin="round" d="M 2100.13,648.094L 2105.92,648.094L 2105.92,654.563L 2121.56,654.563L 2129.54,648.094L 2141.21,648.094L 2121.56,662.18L 2100.13,662.18L 2100.13,648.094 Z M 2100.13,666.919L 2122.18,666.919L 2141.48,681L 2130.58,681L 2121.14,674.536L 2105.81,674.536L 2105.81,681L 2100.13,681L 2100.13,666.919 Z "/>
		<path fill="#DCFF85" fill-opacity="1" stroke-width="0.2" stroke-linejoin="round" d="M 2171.04,648.094L 2176.83,648.094L 2176.83,654.563L 2192.48,654.563L 2200.45,648.094L 2212.13,648.094L 2192.48,662.18L 2171.04,662.18L 2171.04,648.094 Z M 2171.04,666.919L 2193.1,666.919L 2212.39,681L 2201.5,681L 2192.05,674.536L 2176.73,674.536L 2176.73,681L 2171.04,681L 2171.04,666.919 Z "/>
		<path fill="#DCFF85" fill-opacity="1" stroke-width="0.2" stroke-linejoin="round" d="M 2227.67,648.094L 2248.06,673.182L 2248.06,648.094L 2253.79,648.094L 2253.79,681L 2245.92,681L 2219.07,648.094L 2227.67,648.094 Z M 2216.88,665.359L 2237.68,674.637L 2235.85,681L 2214.95,671.891L 2216.88,665.359 Z "/>
		<path fill="#DCFF85" fill-opacity="1" stroke-width="0.2" stroke-linejoin="round" d="M 2278.93,648.094L 2278.93,674.737L 2280.6,674.737L 2289.4,663.365L 2297.12,663.365L 2283.2,681L 2269.7,681L 2255.72,663.259L 2263.44,663.259L 2272.3,674.637L 2273.92,674.637L 2273.92,648.094L 2278.93,648.094 Z "/>
		<path fill="#DCFF85" fill-opacity="1" stroke-width="0.2" stroke-linejoin="round" d="M 2337.48,648.062L 2337.48,655.642L 2333.52,655.642L 2333.52,681L 2328.14,681L 2328.14,655.642L 2327.42,655.642L 2318.03,681L 2311.15,681L 2298.85,648.062L 2305.46,648.062L 2314.64,671.622L 2323.56,648.062L 2337.48,648.062 Z "/>
		<path fill="#DCFF85" fill-opacity="1" stroke-width="0.2" stroke-linejoin="round" d="M 2372.99,648.094L 2351.19,681L 2343.69,681L 2359.64,656.626L 2359.64,656.049L 2340.5,656.049L 2345.15,648.094L 2372.99,648.094 Z "/>
		<path fill="#DCFF85" fill-opacity="1" stroke-width="0.2" stroke-linejoin="round" d="M 2401.72,648.094L 2410.37,674.261L 2406.94,681L 2378.93,681L 2375.39,674.161L 2383.73,648.094L 2401.72,648.094 Z M 2381.44,673.79L 2404.27,673.79L 2398.38,655.679L 2387.33,655.679L 2381.44,673.79 Z "/>
		<path fill="#DCFF85" fill-opacity="1" stroke-width="0.2" stroke-linejoin="round" d="M 2426.8,647.993L 2426.8,681L 2421.64,681L 2421.64,656.287L 2416.11,662.92L 2412.09,658.049C 2412.06,657.869 2412.13,657.687 2412.31,657.504L 2420.08,647.993L 2426.8,647.993 Z "/>
		<path fill="#DCFF85" fill-opacity="1" stroke-width="0.2" stroke-linejoin="round" d="M 2460.59,648.332L 2460.49,648.908L 2439.16,681L 2431.44,681L 2440.15,668.474L 2430.71,668.474L 2434.73,660.958L 2445.26,660.958L 2448.7,655.848L 2429.36,655.811L 2433.11,648.332L 2460.59,648.332 Z "/>
		<path fill="#DCFF85" fill-opacity="1" stroke-width="0.2" stroke-linejoin="round" d="M 2510.64,648.263L 2510.64,656.15C 2513.91,655.452 2516.52,654.64 2518.47,653.714C 2520.42,652.788 2523.23,650.825 2526.91,647.824L 2526.91,654.595C 2524,657.123 2521.4,658.991 2519.12,660.199C 2516.84,661.407 2514.02,662.462 2510.64,663.365L 2510.64,673.452L 2526.91,673.452L 2526.91,681L 2489.43,681L 2489.43,658.35L 2496.25,658.318C 2499.35,658.139 2502.34,657.733 2505.22,657.102L 2505.27,648.263L 2510.64,648.263 Z M 2495.16,673.452L 2505.27,673.452L 2505.27,664.952C 2502.91,665.361 2500.46,665.609 2497.92,665.697L 2495.16,665.697L 2495.16,673.452 Z "/>
		<path fill="#DCFF85" fill-opacity="1" stroke-width="0.2" stroke-linejoin="round" d="M 2544.12,647.993L 2544.12,681L 2538.96,681L 2538.96,656.287L 2533.43,662.92L 2529.41,658.049C 2529.38,657.869 2529.45,657.687 2529.63,657.504L 2537.4,647.993L 2544.12,647.993 Z "/>
		<path fill="#DCFF85" fill-opacity="1" stroke-width="0.2" stroke-linejoin="round" d="M 2585.16,648.062L 2585.16,655.642L 2581.2,655.642L 2581.2,681L 2575.82,681L 2575.82,655.642L 2575.1,655.642L 2565.71,681L 2558.83,681L 2546.52,648.062L 2553.14,648.062L 2562.32,671.622L 2571.23,648.062L 2585.16,648.062 Z "/>
		<path fill="#DCFF85" fill-opacity="1" stroke-width="0.2" stroke-linejoin="round" d="M 2614.05,647.962L 2614.05,681.032L 2606.54,681.032L 2588.5,667.052L 2591.83,660.857L 2608.31,673.484L 2608.31,647.962L 2614.05,647.962 Z "/>
		<path fill="#DCFF85" fill-opacity="1" stroke-width="0.2" stroke-linejoin="round" d="M 2648.3,648.332L 2648.2,648.908L 2626.87,681L 2619.16,681L 2627.86,668.474L 2618.42,668.474L 2622.44,660.958L 2632.97,660.958L 2636.41,655.848L 2617.07,655.811L 2620.83,648.332L 2648.3,648.332 Z "/>
	</g>
	<path fill="#378AFB" fill-opacity="1" stroke-width="0.2" stroke-linejoin="round" stroke="#4E9AFB" stroke-opacity="1" d="M 3526.97,4219C 3545.21,4219 3560,4233.33 3560,4251C 3560,4268.67 3545.21,4283 3526.97,4283C 3508.72,4283 3493.94,4268.67 3493.94,4251C 3493.94,4233.33 3508.72,4219 3526.97,4219 Z "/>
	<path fill="none" stroke-width="16" stroke-linejoin="round" stroke="#DCFF85" stroke-opacity="1" d="M 631.195,686.065C 631.195,686.065 739.586,1026.44 755.273,1379.54"/>
	<path fill="none" stroke-width="16" stroke-linejoin="round" stroke="#DCFF85" stroke-opacity="1" d="M 591.728,695.25C 591.728,695.25 700.118,1035.62 715.806,1388.73"/>
	<line fill="none" stroke-width="16" stroke-linejoin="round" stroke="#DCFF85" stroke-opacity="1" x1="621.17" y1="546.883" x2="1152" y2="-159.996"/>
	<path fill="#378AFB" fill-opacity="1" stroke-width="0.2" stroke-linejoin="round" stroke="#4E9AFB" stroke-opacity="1" d="M 3061.84,4180C 3076.66,4180 3088.68,4191.64 3088.68,4206C 3088.68,4220.36 3076.66,4232 3061.84,4232C 3047.02,4232 3035,4220.36 3035,4206C 3035,4191.64 3047.02,4180 3061.84,4180 Z "/>
	<path fill="#030409" fill-opacity="1" stroke-width="16" stroke-linejoin="round" stroke="#DCFF85" stroke-opacity="1" d="M 697.338,1312.39L 655.235,1374.15L 691.724,1444.32L 761.897,1444.32L 804.001,1382.57L 767.511,1312.39L 697.338,1312.39 Z "/>
	<path fill="#DCFF85" fill-opacity="1" stroke-linejoin="round" stroke="#DCFF85" stroke-opacity="1" d="M 711.069,1334.18L 708.001,1421.39L 752.912,1421.39L 780.972,1379.51L 755.718,1334.38L 711.069,1334.18 Z "/>
	<path fill="#378AFB" fill-opacity="1" stroke-linejoin="round" d="M 515.567,1206.54L 514.509,1217.95L 512.42,1227.07L 509.391,1236.06L 505.404,1244.86L 500.556,1253.21L 494.995,1260.9L 485.333,1272.38L 472.855,1262.37L 482.517,1250.88L 487.139,1244.49L 491.18,1237.53L 494.502,1230.2L 497.021,1222.72L 498.756,1215.16L 499.615,1205.3L 515.567,1206.54 Z M 447.703,1292.59L 432.708,1295.54L 423.649,1296.2L 414.515,1295.98L 405.373,1294.85L 396.288,1292.79L 387.33,1289.79L 375.71,1284.98L 381.553,1270.09L 393.173,1274.9L 400.597,1277.38L 408.118,1279.09L 415.688,1280.02L 423.257,1280.21L 430.773,1279.66L 444.255,1276.96L 447.703,1292.59 Z M 345.111,1256.32L 339.22,1247.39L 335.281,1239.24L 332.142,1230.76L 329.825,1222.02L 328.348,1213.08L 327.732,1204L 327.997,1194.85L 328.813,1185.33L 344.765,1186.57L 343.949,1196.08L 343.729,1203.69L 344.241,1211.23L 345.469,1218.67L 347.395,1225.93L 350.003,1232.97L 353.274,1239.74L 358.361,1247.35L 345.111,1256.32 Z M 345.521,1146.89L 354.885,1135.74L 361.671,1129.47L 368.972,1123.93L 376.723,1119.16L 384.86,1115.17L 393.321,1111.98L 406.544,1108L 411.466,1123.22L 398.243,1127.21L 391.209,1129.86L 384.446,1133.17L 378.006,1137.14L 371.943,1141.73L 366.31,1146.94L 357.999,1156.9L 345.521,1146.89 Z M 449.219,1111.06L 465.107,1117.8L 473.424,1122.64L 481.069,1128.19L 488.018,1134.39L 494.246,1141.18L 499.731,1148.48L 504.453,1156.24L 509.276,1165.34L 495.222,1172.98L 490.399,1163.89L 486.482,1157.45L 481.936,1151.4L 476.779,1145.78L 471.026,1140.64L 464.69,1136.04L 457.781,1132.03L 443.376,1125.96L 449.219,1111.06 Z "/>
	<path fill="none" stroke-width="19" stroke-linecap="square" stroke-linejoin="miter" stroke="#378AFB" stroke-opacity="1" d="M 448.417,1151.72C 475.561,1165.84 486.054,1199.42 471.854,1226.72C 457.654,1254.02 424.138,1264.71 396.994,1250.59C 369.85,1236.48 359.356,1202.9 373.556,1175.6C 387.756,1148.29 421.272,1137.61 448.417,1151.72 Z "/>
	<line fill="none" stroke-width="19" stroke-linecap="square" stroke-linejoin="miter" stroke="#378AFB" stroke-opacity="1" x1="385.637" y1="1241.27" x2="456.192" y2="1161.73"/>
	<g>
		<path fill="#0083FF" fill-opacity="1" stroke-width="0.2" stroke-linejoin="round" d="M -130.405,1168.61L -130.405,1147.53L -163.491,1147.53L -163.491,1180.66L -130.405,1180.66L -130.405,1172.13L -154.969,1172.13L -154.969,1155.56L -138.927,1155.56L -138.927,1160.08L -145.742,1160.08L -145.742,1168.61L -130.405,1168.61 Z "/>
		<path fill="#0083FF" fill-opacity="1" stroke-width="0.2" stroke-linejoin="round" d="M -99.8246,1156.06L -97.6705,1156.06L -91.8036,1161.87L -91.8036,1180.66L -83.2813,1180.66L -83.2813,1158.22L -93.989,1147.53L -123.386,1147.53L -123.386,1180.66L -114.864,1180.66L -114.864,1156.06L -107.846,1156.06L -107.846,1180.66L -99.8246,1180.66L -99.8246,1156.06 Z "/>
		<path fill="#0083FF" fill-opacity="1" stroke-width="0.2" stroke-linejoin="round" d="M -76.263,1180.66L -67.7407,1180.66L -67.7407,1168.11L -44.6804,1168.11L -44.6804,1147.53L -76.263,1147.53L -76.263,1180.66 Z M -53.2027,1156.06L -53.2027,1159.58L -67.7407,1159.58L -67.7407,1156.06L -53.2027,1156.06 Z "/>
		<path fill="#0083FF" fill-opacity="1" stroke-width="0.2" stroke-linejoin="round" d="M -37.662,1180.66L -37.662,1147.53L -6.07939,1147.53L -6.07939,1168.11L -18.6513,1168.11L -6.07939,1180.66L -16.6226,1180.66L -29.1397,1168.21L -29.1397,1180.66L -37.662,1180.66 Z M -14.6017,1156.06L -29.1397,1156.06L -29.1397,1159.58L -14.6017,1159.58L -14.6017,1156.06 Z "/>
		<path fill="#0083FF" fill-opacity="1" stroke-width="0.2" stroke-linejoin="round" d="M 34.0255,1168.61L 34.0255,1147.53L 0.938965,1147.53L 0.938965,1180.66L 34.0255,1180.66L 34.0255,1172.13L 9.46126,1172.13L 9.46126,1155.56L 25.5032,1155.56L 25.5032,1160.08L 18.6885,1160.08L 18.6885,1168.61L 34.0255,1168.61 Z "/>
		<path fill="#0083FF" fill-opacity="1" stroke-width="0.2" stroke-linejoin="round" d="M 74.1304,1155.56L 49.5662,1155.56L 49.5662,1160.08L 74.1304,1160.08L 74.1304,1180.66L 41.0439,1180.66L 41.0439,1172.13L 65.6081,1172.13L 65.6081,1168.61L 41.0439,1168.61L 41.0439,1147.53L 74.1304,1147.53L 74.1304,1155.56 Z "/>
		<path fill="#0083FF" fill-opacity="1" stroke-width="0.2" stroke-linejoin="round" d="M 114.235,1155.56L 89.6711,1155.56L 89.6711,1160.08L 114.235,1160.08L 114.235,1180.66L 81.1488,1180.66L 81.1488,1172.13L 105.713,1172.13L 105.713,1168.61L 81.1488,1168.61L 81.1488,1147.53L 114.235,1147.53L 114.235,1155.56 Z "/>
		<path fill="#0083FF" fill-opacity="1" stroke-width="0.2" stroke-linejoin="round" d="M 154.842,1155.56L 154.842,1172.13L 167.68,1172.13L 167.68,1180.66L 146.821,1180.66L 146.821,1155.56L 141.251,1155.56L 141.251,1147.53L 172.34,1147.53L 172.34,1155.56L 154.842,1155.56 Z "/>
		<path fill="#0083FF" fill-opacity="1" stroke-width="0.2" stroke-linejoin="round" d="M 212.994,1168.61L 212.994,1147.53L 179.907,1147.53L 179.907,1180.66L 212.994,1180.66L 212.994,1172.13L 188.429,1172.13L 188.429,1155.56L 204.471,1155.56L 204.471,1160.08L 197.657,1160.08L 197.657,1168.61L 212.994,1168.61 Z "/>
		<path fill="#0083FF" fill-opacity="1" stroke-width="0.2" stroke-linejoin="round" d="M 233.547,1155.56L 233.547,1172.13L 246.386,1172.13L 246.386,1180.66L 225.526,1180.66L 225.526,1155.56L 219.957,1155.56L 219.957,1147.53L 251.046,1147.53L 251.046,1155.56L 233.547,1155.56 Z "/>
		<path fill="#0083FF" fill-opacity="1" stroke-width="0.2" stroke-linejoin="round" d="M 255.903,1177.16L 272.101,1147.53L 292.702,1147.53L 292.702,1180.66L 275.305,1180.66L 275.305,1172.13L 284.18,1172.13L 284.18,1156.06L 276.958,1156.06L 263.172,1181.16L 255.903,1177.16 Z "/>
	</g>
	<g>
		<path fill="#0083FF" fill-opacity="1" stroke-width="0.2" stroke-linejoin="round" d="M -240.66,1194.04L -240.66,1201.55L -245.79,1201.55L -245.79,1226.66L -252.756,1226.66L -252.756,1201.55L -253.695,1201.55L -265.855,1226.66L -274.774,1226.66L -290.712,1194.04L -282.142,1194.04L -270.246,1217.37L -258.699,1194.04L -240.66,1194.04 Z "/>
		<path fill="#0083FF" fill-opacity="1" stroke-width="0.2" stroke-linejoin="round" d="M -208.097,1194.07L -208.097,1202.83L -214.99,1202.89L -224.109,1219.15L -205.933,1219.15L -210.324,1226.66L -236.543,1226.66L -218.906,1194.07L -208.097,1194.07 Z "/>
		<path fill="#0083FF" fill-opacity="1" stroke-width="0.2" stroke-linejoin="round" d="M -169.666,1194.24L -169.666,1226.66L -195.737,1226.66C -200.058,1223.66 -202.355,1218.81 -202.63,1212.11C -202.088,1204.91 -199.294,1198.97 -194.249,1194.28L -182.902,1194.28L -182.902,1202.12L -190.808,1202.12L -190.808,1200.37L -192.022,1200.37C -193.823,1202.34 -194.724,1206.25 -194.724,1212.11C -194.815,1216.44 -194.161,1218.81 -192.761,1219.22L -177.635,1219.22L -177.635,1194.21L -169.666,1194.24 Z "/>
		<path fill="#0083FF" fill-opacity="1" stroke-width="0.2" stroke-linejoin="round" d="M -123.73,1194.07L -151.965,1226.66L -161.686,1226.66L -141.019,1202.52L -141.019,1201.95L -165.813,1201.95L -159.797,1194.07L -123.73,1194.07 Z "/>
		<path fill="#0083FF" fill-opacity="1" stroke-width="0.2" stroke-linejoin="round" d="M -71.1023,1194.04L -71.1023,1201.55L -76.2321,1201.55L -76.2321,1226.66L -83.1985,1226.66L -83.1985,1201.55L -84.1379,1201.55L -96.2974,1226.66L -105.216,1226.66L -121.155,1194.04L -112.584,1194.04L -100.688,1217.37L -89.141,1194.04L -71.1023,1194.04 Z "/>
		<path fill="#0083FF" fill-opacity="1" stroke-width="0.2" stroke-linejoin="round" d="M -51.2375,1194.07L -24.8286,1218.92L -24.8286,1194.07L -17.3978,1194.07L -17.3978,1226.66L -27.594,1226.66L -62.3837,1194.07L -51.2375,1194.07 Z M -65.2231,1211.17L -38.2758,1220.36L -40.6402,1226.66L -67.7246,1217.64L -65.2231,1211.17 Z "/>
		<path fill="#0083FF" fill-opacity="1" stroke-width="0.2" stroke-linejoin="round" d="M 2.12919,1194.07L 28.5381,1218.92L 28.5381,1194.07L 35.9689,1194.07L 35.9689,1226.66L 25.7727,1226.66L -9.01703,1194.07L 2.12919,1194.07 Z M -11.8564,1211.17L 15.0909,1220.36L 12.7265,1226.66L -14.3579,1217.64L -11.8564,1211.17 Z "/>
		<path fill="#0083FF" fill-opacity="1" stroke-width="0.2" stroke-linejoin="round" d="M 102.983,1194.07L 102.983,1220.46L 105.147,1220.46L 116.557,1209.2L 126.553,1209.2L 108.525,1226.66L 91.0245,1226.66L 72.9224,1209.09L 82.9181,1209.09L 94.4021,1220.36L 96.492,1220.36L 96.492,1194.07L 102.983,1194.07 Z "/>
		<path fill="#0083FF" fill-opacity="1" stroke-width="0.2" stroke-linejoin="round" d="M 178.843,1194.04L 178.843,1201.55L 173.713,1201.55L 173.713,1226.66L 166.747,1226.66L 166.747,1201.55L 165.808,1201.55L 153.648,1226.66L 144.729,1226.66L 128.791,1194.04L 137.361,1194.04L 149.257,1217.37L 160.804,1194.04L 178.843,1194.04 Z "/>
		<path fill="#0083FF" fill-opacity="1" stroke-width="0.2" stroke-linejoin="round" d="M 211.743,1194.07L 211.743,1220.46L 213.907,1220.46L 225.317,1209.2L 235.313,1209.2L 217.285,1226.66L 199.785,1226.66L 181.682,1209.09L 191.678,1209.09L 203.162,1220.36L 205.252,1220.36L 205.252,1194.07L 211.743,1194.07 Z "/>
		<path fill="#0083FF" fill-opacity="1" stroke-width="0.2" stroke-linejoin="round" d="M 238.152,1194.07L 245.657,1194.07L 245.657,1200.48L 265.923,1200.48L 276.256,1194.07L 291.382,1194.07L 265.923,1208.02L 238.152,1208.02L 238.152,1194.07 Z M 238.152,1212.72L 266.725,1212.72L 291.72,1226.66L 277.607,1226.66L 265.374,1220.26L 245.52,1220.26L 245.52,1226.66L 238.152,1226.66L 238.152,1212.72 Z "/>
	</g>
	<g>
		<path fill="#378AFB" fill-opacity="1" stroke-linejoin="round" d="M 2989.21,5427.43L 2988.23,5432.37L 2985.41,5441.57L 2981.75,5450.27L 2977.28,5458.45L 2972.09,5466.06L 2966.22,5473.06L 2959.73,5479.42L 2952.69,5485.1L 2945.15,5490.08L 2937.16,5494.33L 2928.79,5497.8L 2920.09,5500.46L 2911.11,5502.28L 2901.92,5503.22L 2892.57,5503.26L 2883.12,5502.35L 2880.65,5501.86L 2882.98,5486.03L 2885.45,5486.52L 2893.3,5487.28L 2901.06,5487.25L 2908.7,5486.46L 2916.15,5484.95L 2923.38,5482.74L 2930.34,5479.85L 2936.98,5476.33L 2943.25,5472.19L 2949.09,5467.47L 2954.47,5462.19L 2959.34,5456.39L 2963.64,5450.09L 2967.33,5443.32L 2970.38,5436.11L 2972.72,5428.47L 2973.38,5425.12L 2989.21,5427.43 Z M 2803.15,5395.33L 2804.95,5386.25L 2807.76,5377.05L 2811.43,5368.34L 2815.9,5360.17L 2821.09,5352.56L 2826.96,5345.56L 2833.45,5339.2L 2840.49,5333.51L 2848.03,5328.53L 2856.02,5324.29L 2864.39,5320.82L 2873.09,5318.16L 2882.07,5316.34L 2891.26,5315.39L 2900.61,5315.36L 2910.06,5316.27L 2916.67,5317.58L 2914.34,5333.41L 2907.73,5332.1L 2899.88,5331.34L 2892.12,5331.37L 2884.48,5332.15L 2877.03,5333.67L 2869.8,5335.88L 2862.84,5338.76L 2856.2,5342.29L 2849.93,5346.43L 2844.09,5351.15L 2838.71,5356.43L 2833.84,5362.23L 2829.54,5368.53L 2825.84,5375.29L 2822.8,5382.51L 2820.46,5390.15L 2818.98,5397.64L 2803.15,5395.33 Z "/>
		<path fill="#378AFB" fill-opacity="1" stroke-width="19" stroke-linecap="square" stroke-linejoin="miter" stroke="#378AFB" stroke-opacity="1" d="M 2917.7,5370.06C 2939.47,5381.38 2947.89,5408.32 2936.5,5430.23C 2925.11,5452.13 2898.22,5460.7 2876.44,5449.38C 2854.66,5438.05 2846.24,5411.11 2857.64,5389.21C 2869.03,5367.3 2895.92,5358.73 2917.7,5370.06 Z "/>
		<path fill="#378AFB" fill-opacity="1" stroke-linejoin="round" d="M 2915.83,5502.01L 2910.89,5503.02L 2901.32,5503.99L 2891.87,5503.99L 2882.61,5503.05L 2873.58,5501.21L 2864.85,5498.52L 2856.47,5495.01L 2848.5,5490.72L 2840.98,5485.71L 2833.97,5479.99L 2827.53,5473.62L 2821.7,5466.63L 2816.54,5459.06L 2812.1,5450.96L 2808.44,5442.35L 2805.61,5433.3L 2805.11,5430.83L 2820.6,5426.83L 2821.11,5429.3L 2823.46,5436.83L 2826.49,5443.97L 2830.18,5450.7L 2834.46,5456.99L 2839.31,5462.79L 2844.67,5468.09L 2850.49,5472.84L 2856.74,5477.01L 2863.36,5480.57L 2870.31,5483.48L 2877.54,5485.71L 2885.02,5487.23L 2892.69,5488.01L 2900.52,5488.01L 2908.47,5487.21L 2911.81,5486.52L 2915.83,5502.01 Z M 2873.22,5318.06L 2882.3,5316.2L 2891.86,5315.23L 2901.31,5315.23L 2910.58,5316.17L 2919.61,5318.01L 2928.34,5320.71L 2936.71,5324.21L 2944.69,5328.5L 2952.2,5333.52L 2959.21,5339.23L 2965.66,5345.6L 2971.49,5352.59L 2976.65,5360.16L 2981.09,5368.27L 2984.75,5376.87L 2987.57,5385.93L 2988.93,5392.53L 2973.43,5396.53L 2972.08,5389.92L 2969.73,5382.39L 2966.69,5375.25L 2963.01,5368.52L 2958.72,5362.24L 2953.88,5356.43L 2948.52,5351.13L 2942.7,5346.38L 2936.45,5342.21L 2929.83,5338.66L 2922.88,5335.74L 2915.64,5333.51L 2908.17,5331.99L 2900.5,5331.21L 2892.67,5331.21L 2884.72,5332.01L 2877.24,5333.55L 2873.22,5318.06 Z "/>
	</g>
	<g>
		<path fill="#0083FF" fill-opacity="1" stroke-width="0.2" stroke-linejoin="round" d="M 3059.21,5364.37L 3051.98,5360.37L 3038.2,5385.47L 3031.03,5385.47L 3031.03,5360.62L 3022.51,5360.62L 3022.51,5394L 3043.02,5394L 3059.21,5364.37 Z "/>
		<path fill="#0083FF" fill-opacity="1" stroke-width="0.2" stroke-linejoin="round" d="M 3088.18,5385.47L 3088.18,5360.87L 3096.7,5360.87L 3096.7,5394L 3074.33,5394L 3063.62,5383.31L 3063.62,5360.87L 3072.14,5360.87L 3072.14,5379.65L 3077.79,5385.47L 3088.18,5385.47 Z "/>
		<path fill="#0083FF" fill-opacity="1" stroke-width="0.2" stroke-linejoin="round" d="M 3103.72,5394L 3103.72,5360.87L 3112.24,5360.87L 3112.24,5385.47L 3134.25,5385.47L 3134.25,5394L 3103.72,5394 Z "/>
		<path fill="#0083FF" fill-opacity="1" stroke-width="0.2" stroke-linejoin="round" d="M 3141.32,5394L 3149.84,5394L 3149.84,5381.45L 3172.9,5381.45L 3172.9,5360.87L 3141.32,5360.87L 3141.32,5394 Z M 3164.38,5369.4L 3164.38,5372.92L 3149.84,5372.92L 3149.84,5369.4L 3164.38,5369.4 Z "/>
		<path fill="#0083FF" fill-opacity="1" stroke-width="0.2" stroke-linejoin="round" d="M 3193.46,5368.9L 3193.46,5385.47L 3206.29,5385.47L 3206.29,5394L 3185.44,5394L 3185.44,5368.9L 3179.87,5368.9L 3179.87,5360.87L 3210.96,5360.87L 3210.96,5368.9L 3193.46,5368.9 Z "/>
		<path fill="#0083FF" fill-opacity="1" stroke-width="0.2" stroke-linejoin="round" d="M 3251.61,5381.95L 3251.61,5360.87L 3218.52,5360.87L 3218.52,5394L 3251.61,5394L 3251.61,5385.47L 3227.04,5385.47L 3227.04,5368.9L 3243.09,5368.9L 3243.09,5373.42L 3236.27,5373.42L 3236.27,5381.95L 3251.61,5381.95 Z "/>
		<path fill="#0083FF" fill-opacity="1" stroke-width="0.2" stroke-linejoin="round" d="M 3258.63,5394L 3258.63,5360.87L 3290.21,5360.87L 3290.21,5381.45L 3277.64,5381.45L 3290.21,5394L 3279.67,5394L 3267.15,5381.55L 3267.15,5394L 3258.63,5394 Z M 3281.69,5369.4L 3267.15,5369.4L 3267.15,5372.92L 3281.69,5372.92L 3281.69,5369.4 Z "/>
	</g>
	<g>
		<path fill="#0083FF" fill-opacity="1" stroke-width="0.2" stroke-linejoin="round" d="M 3031.16,5407.41L 3040,5416.17L 3041.43,5416.17L 3050.21,5407.41L 3061.02,5407.41L 3043.86,5424.31L 3043.86,5440L 3037.51,5440L 3037.51,5424.31L 3020.35,5407.51L 3031.16,5407.41 Z "/>
		<path fill="#0083FF" fill-opacity="1" stroke-width="0.2" stroke-linejoin="round" d="M 3109.18,5407.41L 3110.81,5409.02L 3110.81,5438.32L 3109.05,5440L 3064.06,5440L 3064.06,5407.41L 3071.83,5407.41L 3071.83,5432.96L 3103.04,5432.96L 3103.04,5414.92L 3092.97,5414.92L 3088.24,5421.13L 3078.17,5421.13L 3088.78,5407.41L 3109.18,5407.41 Z "/>
		<path fill="#0083FF" fill-opacity="1" stroke-width="0.2" stroke-linejoin="round" d="M 3147.62,5407.28L 3147.62,5440.03L 3137.89,5440.03L 3114.52,5426.19L 3118.84,5420.05L 3140.19,5432.56L 3140.19,5407.28L 3147.62,5407.28 Z "/>
		<path fill="#0083FF" fill-opacity="1" stroke-width="0.2" stroke-linejoin="round" d="M 3184.57,5407.58L 3184.57,5440L 3158.5,5440C 3154.18,5437 3151.88,5432.15 3151.6,5425.45C 3152.15,5418.25 3154.94,5412.31 3159.99,5407.62L 3171.33,5407.62L 3171.33,5415.46L 3163.43,5415.46L 3163.43,5413.71L 3162.21,5413.71C 3160.41,5415.68 3159.51,5419.6 3159.51,5425.45C 3159.42,5429.79 3160.07,5432.16 3161.47,5432.56L 3176.6,5432.56L 3176.6,5407.55L 3184.57,5407.58 Z "/>
		<path fill="#0083FF" fill-opacity="1" stroke-width="0.2" stroke-linejoin="round" d="M 3217.4,5407.41L 3217.4,5433.8L 3219.57,5433.8L 3230.98,5422.54L 3240.97,5422.54L 3222.95,5440L 3205.45,5440L 3187.34,5422.43L 3197.34,5422.43L 3208.82,5433.7L 3210.91,5433.7L 3210.91,5407.41L 3217.4,5407.41 Z "/>
		<path fill="#0083FF" fill-opacity="1" stroke-width="0.2" stroke-linejoin="round" d="M 3293.26,5407.38L 3293.26,5414.89L 3288.13,5414.89L 3288.13,5440L 3281.17,5440L 3281.17,5414.89L 3280.23,5414.89L 3268.07,5440L 3259.15,5440L 3243.21,5407.38L 3251.78,5407.38L 3263.68,5430.71L 3275.23,5407.38L 3293.26,5407.38 Z "/>
		<path fill="#0083FF" fill-opacity="1" stroke-width="0.2" stroke-linejoin="round" d="M 3339.26,5407.41L 3311.03,5440L 3301.31,5440L 3321.97,5415.86L 3321.97,5415.29L 3297.18,5415.29L 3303.2,5407.41L 3339.26,5407.41 Z "/>
	</g>
	<g>
		<line fill="none" stroke-width="2" stroke-linejoin="round" stroke="#1B56E3" stroke-opacity="0.603922" x1="3528" y1="0" x2="3528" y2="2160"/>
		<line fill="none" stroke-width="2" stroke-linejoin="round" stroke="#1B56E3" stroke-opacity="0.603922" x1="3140" y1="0" x2="3140" y2="2160"/>
		<line fill="none" stroke-width="2" stroke-linejoin="round" stroke="#1B56E3" stroke-opacity="0.603922" x1="-9.6639e-005" y1="376" x2="3840" y2="376"/>
		<line fill="none" stroke-width="2" stroke-linejoin="round" stroke="#1B56E3" stroke-opacity="0.603922" x1="0.000486374" y1="768" x2="3840" y2="768"/>
		<line fill="none" stroke-width="2" stroke-linejoin="round" stroke="#1B56E3" stroke-opacity="0.603922" x1="0.000486374" y1="1160" x2="3840" y2="1160"/>
		<line fill="none" stroke-width="2" stroke-linejoin="round" stroke="#1B56E3" stroke-opacity="0.603922" x1="0.000486374" y1="1549" x2="3840" y2="1549"/>
		<line fill="none" stroke-width="2" stroke-linejoin="round" stroke="#1B56E3" stroke-opacity="0.603922" x1="0.000486374" y1="1941" x2="3840" y2="1941"/>
		<line fill="none" stroke-width="2" stroke-linejoin="round" stroke="#1B56E3" stroke-opacity="0.603922" x1="2739" y1="-0.000244141" x2="2739" y2="2160"/>
		<line fill="none" stroke-width="2" stroke-linejoin="round" stroke="#1B56E3" stroke-opacity="0.603922" x1="2351" y1="0.000244141" x2="2351" y2="2160"/>
		<line fill="none" stroke-width="2" stroke-linejoin="round" stroke="#1B56E3" stroke-opacity="0.603922" x1="1949" y1="0" x2="1949" y2="2160"/>
		<line fill="none" stroke-width="2" stroke-linejoin="round" stroke="#1B56E3" stroke-opacity="0.603922" x1="1561" y1="0" x2="1561" y2="2160"/>
		<line fill="none" stroke-width="2" stroke-linejoin="round" stroke="#1B56E3" stroke-opacity="0.603922" x1="1160" y1="-0.000244141" x2="1160" y2="2160"/>
		<line fill="none" stroke-width="2" stroke-linejoin="round" stroke="#1B56E3" stroke-opacity="0.603922" x1="772" y1="0.000244141" x2="772" y2="2160"/>
		<line fill="none" stroke-width="2" stroke-linejoin="round" stroke="#1B56E3" stroke-opacity="0.603922" x1="371" y1="0" x2="371" y2="2160"/>
	</g>
	<ellipse fill="#030409" fill-opacity="1" stroke-width="16" stroke-linejoin="round" stroke="#DCFF85" stroke-opacity="1" cx="582.479" cy="586.95" rx="111.672" ry="107.95"/>
	<ellipse fill="#DCFF85" fill-opacity="1" stroke-width="0.2" stroke-linejoin="round" cx="582.102" cy="585.833" rx="67.004" ry="67.0037"/>
	<path fill="#030409" fill-opacity="1" stroke-width="16" stroke-linejoin="round" stroke="#DCFF85" stroke-opacity="1" d="M 1781.34,572.075L 1739.23,633.827L 1775.72,704L 1845.9,704L 1888,642.248L 1851.51,572.075L 1781.34,572.075 Z "/>
	<path fill="#DCFF85" fill-opacity="1" stroke-linejoin="round" stroke="#DCFF85" stroke-opacity="1" d="M 1795.07,593.86L 1792,681.075L 1836.91,681.075L 1864.97,639.19L 1839.72,594.061L 1795.07,593.86 Z "/>
	<g>
		<path fill="#378AFB" fill-opacity="1" stroke-linejoin="round" d="M 1395.03,1303.43L 1394.05,1308.37L 1391.24,1317.57L 1387.57,1326.27L 1383.1,1334.45L 1377.91,1342.06L 1372.04,1349.06L 1365.55,1355.42L 1358.51,1361.1L 1350.97,1366.09L 1342.98,1370.33L 1334.61,1373.8L 1325.91,1376.46L 1316.93,1378.28L 1307.74,1379.22L 1298.39,1379.26L 1288.94,1378.35L 1286.47,1377.86L 1288.8,1362.03L 1291.27,1362.52L 1299.12,1363.28L 1306.88,1363.25L 1314.52,1362.46L 1321.97,1360.95L 1329.2,1358.74L 1336.16,1355.85L 1342.8,1352.33L 1349.07,1348.19L 1354.91,1343.47L 1360.29,1338.19L 1365.16,1332.39L 1369.46,1326.09L 1373.16,1319.32L 1376.2,1312.11L 1378.54,1304.47L 1379.2,1301.12L 1395.03,1303.43 Z M 1208.97,1271.33L 1210.77,1262.25L 1213.59,1253.05L 1217.25,1244.34L 1221.72,1236.17L 1226.91,1228.56L 1232.78,1221.56L 1239.27,1215.2L 1246.31,1209.51L 1253.85,1204.53L 1261.84,1200.29L 1270.21,1196.82L 1278.91,1194.16L 1287.89,1192.34L 1297.08,1191.39L 1306.43,1191.36L 1315.88,1192.27L 1322.49,1193.58L 1320.16,1209.41L 1313.55,1208.1L 1305.7,1207.34L 1297.94,1207.37L 1290.3,1208.15L 1282.85,1209.67L 1275.62,1211.88L 1268.66,1214.76L 1262.02,1218.29L 1255.75,1222.43L 1249.91,1227.15L 1244.53,1232.43L 1239.66,1238.23L 1235.36,1244.53L 1231.66,1251.29L 1228.62,1258.51L 1226.28,1266.15L 1224.8,1273.64L 1208.97,1271.33 Z "/>
		<path fill="#378AFB" fill-opacity="1" stroke-width="19" stroke-linecap="square" stroke-linejoin="miter" stroke="#378AFB" stroke-opacity="1" d="M 1323.52,1246.06C 1345.29,1257.38 1353.71,1284.32 1342.32,1306.22C 1330.93,1328.13 1304.04,1336.7 1282.26,1325.38C 1260.48,1314.05 1252.06,1287.11 1263.46,1265.21C 1274.85,1243.3 1301.74,1234.73 1323.52,1246.06 Z "/>
		<path fill="#378AFB" fill-opacity="1" stroke-linejoin="round" d="M 1321.65,1378.01L 1316.71,1379.02L 1307.14,1379.99L 1297.69,1379.99L 1288.43,1379.05L 1279.4,1377.21L 1270.67,1374.52L 1262.29,1371.01L 1254.32,1366.72L 1246.8,1361.71L 1239.79,1355.99L 1233.35,1349.62L 1227.52,1342.63L 1222.36,1335.06L 1217.92,1326.96L 1214.26,1318.35L 1211.43,1309.3L 1210.93,1306.83L 1226.42,1302.83L 1226.93,1305.3L 1229.28,1312.83L 1232.31,1319.97L 1236,1326.7L 1240.28,1332.99L 1245.13,1338.79L 1250.49,1344.09L 1256.31,1348.84L 1262.56,1353.01L 1269.18,1356.57L 1276.13,1359.48L 1283.36,1361.71L 1290.84,1363.23L 1298.51,1364.01L 1306.34,1364.01L 1314.29,1363.21L 1317.63,1362.52L 1321.65,1378.01 Z M 1279.04,1194.06L 1288.12,1192.2L 1297.68,1191.23L 1307.13,1191.23L 1316.4,1192.17L 1325.43,1194.01L 1334.16,1196.7L 1342.53,1200.21L 1350.51,1204.5L 1358.02,1209.52L 1365.03,1215.23L 1371.48,1221.6L 1377.31,1228.59L 1382.47,1236.16L 1386.91,1244.27L 1390.57,1252.87L 1393.39,1261.93L 1394.75,1268.53L 1379.25,1272.53L 1377.9,1265.92L 1375.55,1258.39L 1372.51,1251.25L 1368.83,1244.52L 1364.54,1238.24L 1359.7,1232.43L 1354.34,1227.13L 1348.52,1222.38L 1342.27,1218.21L 1335.65,1214.66L 1328.7,1211.74L 1321.46,1209.51L 1313.99,1207.99L 1306.32,1207.21L 1298.49,1207.21L 1290.54,1208.01L 1283.06,1209.55L 1279.04,1194.06 Z "/>
	</g>
	<g>
		<path fill="#0083FF" fill-opacity="1" stroke-width="0.2" stroke-linejoin="round" d="M 1448.21,1244.37L 1440.98,1240.37L 1427.2,1265.47L 1420.03,1265.47L 1420.03,1240.62L 1411.51,1240.62L 1411.51,1274L 1432.02,1274L 1448.21,1244.37 Z "/>
		<path fill="#0083FF" fill-opacity="1" stroke-width="0.2" stroke-linejoin="round" d="M 1477.18,1265.47L 1477.18,1240.87L 1485.7,1240.87L 1485.7,1274L 1463.33,1274L 1452.62,1263.31L 1452.62,1240.87L 1461.14,1240.87L 1461.14,1259.65L 1466.79,1265.47L 1477.18,1265.47 Z "/>
		<path fill="#0083FF" fill-opacity="1" stroke-width="0.2" stroke-linejoin="round" d="M 1492.72,1274L 1492.72,1240.87L 1501.24,1240.87L 1501.24,1265.47L 1523.25,1265.47L 1523.25,1274L 1492.72,1274 Z "/>
		<path fill="#0083FF" fill-opacity="1" stroke-width="0.2" stroke-linejoin="round" d="M 1530.32,1274L 1538.84,1274L 1538.84,1261.45L 1561.9,1261.45L 1561.9,1240.87L 1530.32,1240.87L 1530.32,1274 Z M 1553.38,1249.4L 1553.38,1252.92L 1538.84,1252.92L 1538.84,1249.4L 1553.38,1249.4 Z "/>
		<path fill="#0083FF" fill-opacity="1" stroke-width="0.2" stroke-linejoin="round" d="M 1582.46,1248.9L 1582.46,1265.47L 1595.29,1265.47L 1595.29,1274L 1574.44,1274L 1574.44,1248.9L 1568.87,1248.9L 1568.87,1240.87L 1599.96,1240.87L 1599.96,1248.9L 1582.46,1248.9 Z "/>
		<path fill="#0083FF" fill-opacity="1" stroke-width="0.2" stroke-linejoin="round" d="M 1640.61,1261.95L 1640.61,1240.87L 1607.52,1240.87L 1607.52,1274L 1640.61,1274L 1640.61,1265.47L 1616.04,1265.47L 1616.04,1248.9L 1632.09,1248.9L 1632.09,1253.42L 1625.27,1253.42L 1625.27,1261.95L 1640.61,1261.95 Z "/>
		<path fill="#0083FF" fill-opacity="1" stroke-width="0.2" stroke-linejoin="round" d="M 1647.63,1274L 1647.63,1240.87L 1679.21,1240.87L 1679.21,1261.45L 1666.64,1261.45L 1679.21,1274L 1668.67,1274L 1656.15,1261.55L 1656.15,1274L 1647.63,1274 Z M 1670.69,1249.4L 1656.15,1249.4L 1656.15,1252.92L 1670.69,1252.92L 1670.69,1249.4 Z "/>
	</g>
	<g>
		<path fill="#0083FF" fill-opacity="1" stroke-width="0.2" stroke-linejoin="round" d="M 1420.16,1287.41L 1429,1296.17L 1430.43,1296.17L 1439.21,1287.41L 1450.02,1287.41L 1432.86,1304.31L 1432.86,1320L 1426.51,1320L 1426.51,1304.31L 1409.35,1287.51L 1420.16,1287.41 Z "/>
		<path fill="#0083FF" fill-opacity="1" stroke-width="0.2" stroke-linejoin="round" d="M 1498.18,1287.41L 1499.81,1289.02L 1499.81,1318.32L 1498.05,1320L 1453.06,1320L 1453.06,1287.41L 1460.83,1287.41L 1460.83,1312.96L 1492.04,1312.96L 1492.04,1294.92L 1481.97,1294.92L 1477.24,1301.13L 1467.17,1301.13L 1477.78,1287.41L 1498.18,1287.41 Z "/>
		<path fill="#0083FF" fill-opacity="1" stroke-width="0.2" stroke-linejoin="round" d="M 1536.62,1287.28L 1536.62,1320.03L 1526.89,1320.03L 1503.52,1306.19L 1507.84,1300.05L 1529.19,1312.56L 1529.19,1287.28L 1536.62,1287.28 Z "/>
		<path fill="#0083FF" fill-opacity="1" stroke-width="0.2" stroke-linejoin="round" d="M 1573.57,1287.58L 1573.57,1320L 1547.5,1320C 1543.18,1317 1540.88,1312.15 1540.6,1305.45C 1541.15,1298.25 1543.94,1292.31 1548.98,1287.62L 1560.33,1287.62L 1560.33,1295.46L 1552.43,1295.46L 1552.43,1293.71L 1551.21,1293.71C 1549.41,1295.68 1548.51,1299.6 1548.51,1305.45C 1548.42,1309.79 1549.07,1312.15 1550.47,1312.56L 1565.6,1312.56L 1565.6,1287.55L 1573.57,1287.58 Z "/>
		<path fill="#0083FF" fill-opacity="1" stroke-width="0.2" stroke-linejoin="round" d="M 1606.4,1287.41L 1606.4,1313.8L 1608.57,1313.8L 1619.98,1302.54L 1629.97,1302.54L 1611.95,1320L 1594.45,1320L 1576.34,1302.43L 1586.34,1302.43L 1597.82,1313.7L 1599.91,1313.7L 1599.91,1287.41L 1606.4,1287.41 Z "/>
		<path fill="#0083FF" fill-opacity="1" stroke-width="0.2" stroke-linejoin="round" d="M 1682.26,1287.38L 1682.26,1294.89L 1677.13,1294.89L 1677.13,1320L 1670.17,1320L 1670.17,1294.89L 1669.23,1294.89L 1657.07,1320L 1648.15,1320L 1632.21,1287.38L 1640.78,1287.38L 1652.68,1310.71L 1664.23,1287.38L 1682.26,1287.38 Z "/>
		<path fill="#0083FF" fill-opacity="1" stroke-width="0.2" stroke-linejoin="round" d="M 1728.26,1287.41L 1700.03,1320L 1690.31,1320L 1710.97,1295.86L 1710.97,1295.29L 1686.18,1295.29L 1692.2,1287.41L 1728.26,1287.41 Z "/>
	</g>
	<g>
		<path fill="#DCFF85" fill-opacity="1" stroke-width="0.2" stroke-linejoin="round" d="M 844.992,1348.54L 828.645,1348.54L 828.645,1353.3L 844.992,1353.3L 844.992,1375L 822.974,1375L 822.974,1366L 839.32,1366L 839.32,1362.3L 822.974,1362.3L 822.974,1340.07L 844.992,1340.07L 844.992,1348.54 Z "/>
		<path fill="#DCFF85" fill-opacity="1" stroke-width="0.2" stroke-linejoin="round" d="M 858.669,1348.54L 858.669,1366L 867.213,1366L 867.213,1375L 853.332,1375L 853.332,1348.54L 849.626,1348.54L 849.626,1340.07L 870.314,1340.07L 870.314,1348.54L 858.669,1348.54 Z "/>
		<path fill="#DCFF85" fill-opacity="1" stroke-width="0.2" stroke-linejoin="round" d="M 873.546,1371.31L 884.326,1340.07L 898.035,1340.07L 898.035,1375L 886.458,1375L 886.458,1366L 892.363,1366L 892.363,1349.07L 887.557,1349.07L 878.383,1375.53L 873.546,1371.31 Z "/>
		<path fill="#DCFF85" fill-opacity="1" stroke-width="0.2" stroke-linejoin="round" d="M 924.723,1348.54L 908.376,1348.54L 908.376,1353.3L 924.723,1353.3L 924.723,1375L 902.705,1375L 902.705,1366L 919.052,1366L 919.052,1362.3L 902.705,1362.3L 902.705,1340.07L 924.723,1340.07L 924.723,1348.54 Z "/>
		<path fill="#DCFF85" fill-opacity="1" stroke-width="0.2" stroke-linejoin="round" d="M 951.411,1348.54L 935.065,1348.54L 935.065,1353.3L 951.411,1353.3L 951.411,1375L 929.393,1375L 929.393,1366L 945.74,1366L 945.74,1362.3L 929.393,1362.3L 929.393,1340.07L 951.411,1340.07L 951.411,1348.54 Z "/>
		<rect x="956.082" y="1340.07" fill="#DCFF85" fill-opacity="1" stroke-width="0.2" stroke-linejoin="round" width="5.6712" height="34.9268"/>
		<path fill="#DCFF85" fill-opacity="1" stroke-width="0.2" stroke-linejoin="round" d="M 964.62,1371.31L 975.399,1340.07L 989.108,1340.07L 989.108,1375L 977.531,1375L 977.531,1366L 983.437,1366L 983.437,1349.07L 978.631,1349.07L 969.457,1375.53L 964.62,1371.31 Z "/>
		<path fill="#DCFF85" fill-opacity="1" stroke-width="0.2" stroke-linejoin="round" d="M 1005.32,1371.31L 1016.1,1340.07L 1029.81,1340.07L 1029.81,1375L 1018.23,1375L 1018.23,1366L 1024.14,1366L 1024.14,1349.07L 1019.33,1349.07L 1010.16,1375.53L 1005.32,1371.31 Z "/>
		<path fill="#DCFF85" fill-opacity="1" stroke-width="0.2" stroke-linejoin="round" d="M 1034.48,1375L 1034.48,1340.07L 1040.15,1340.07L 1040.15,1366L 1054.79,1366L 1054.79,1375L 1034.48,1375 Z "/>
		<path fill="#DCFF85" fill-opacity="1" stroke-width="0.2" stroke-linejoin="round" d="M 1059.5,1375L 1059.5,1340.07L 1065.17,1340.07L 1065.17,1366L 1079.81,1366L 1079.81,1375L 1059.5,1375 Z "/>
		<path fill="#DCFF85" fill-opacity="1" stroke-width="0.2" stroke-linejoin="round" d="M 1106.54,1362.3L 1106.54,1340.07L 1084.52,1340.07L 1084.52,1375L 1106.54,1375L 1106.54,1366L 1090.19,1366L 1090.19,1348.54L 1100.87,1348.54L 1100.87,1353.3L 1096.33,1353.3L 1096.33,1362.3L 1106.54,1362.3 Z "/>
		<path fill="#DCFF85" fill-opacity="1" stroke-width="0.2" stroke-linejoin="round" d="M 1131.56,1340.18L 1125.89,1340.18L 1125.89,1360.38L 1114.71,1339.54L 1110.44,1345.08L 1121.85,1366L 1110.97,1366L 1110.97,1375L 1131.56,1375L 1131.56,1340.18 Z "/>
	</g>
	<g>
		<path fill="#DCFF85" fill-opacity="1" stroke-width="0.2" stroke-linejoin="round" d="M 838.13,1389.1L 854.172,1414.11L 854.172,1389.1L 858.687,1389.1L 858.687,1421.91L 852.492,1421.91L 831.358,1389.1L 838.13,1389.1 Z M 829.634,1406.31L 846.003,1415.56L 844.567,1421.91L 828.114,1412.82L 829.634,1406.31 Z "/>
		<path fill="#DCFF85" fill-opacity="1" stroke-width="0.2" stroke-linejoin="round" d="M 878.468,1389.1L 878.468,1415.66L 879.782,1415.66L 886.713,1404.32L 892.786,1404.32L 881.834,1421.91L 871.203,1421.91L 860.206,1404.22L 866.278,1404.22L 873.255,1415.56L 874.524,1415.56L 874.524,1389.1L 878.468,1389.1 Z "/>
		<path fill="#DCFF85" fill-opacity="1" stroke-width="0.2" stroke-linejoin="round" d="M 894.51,1389.1L 899.069,1389.1L 899.069,1395.55L 911.38,1395.55L 917.658,1389.1L 926.846,1389.1L 911.38,1403.14L 894.51,1403.14L 894.51,1389.1 Z M 894.51,1407.87L 911.868,1407.87L 927.051,1421.91L 918.479,1421.91L 911.047,1415.46L 898.986,1415.46L 898.986,1421.91L 894.51,1421.91L 894.51,1407.87 Z "/>
		<path fill="#DCFF85" fill-opacity="1" stroke-width="0.2" stroke-linejoin="round" d="M 939.08,1389.1L 955.123,1414.11L 955.123,1389.1L 959.637,1389.1L 959.637,1421.91L 953.443,1421.91L 932.309,1389.1L 939.08,1389.1 Z M 930.584,1406.31L 946.954,1415.56L 945.518,1421.91L 929.065,1412.82L 930.584,1406.31 Z "/>
		<path fill="#DCFF85" fill-opacity="1" stroke-width="0.2" stroke-linejoin="round" d="M 971.5,1389.1L 987.542,1414.11L 987.542,1389.1L 992.057,1389.1L 992.057,1421.91L 985.863,1421.91L 964.729,1389.1L 971.5,1389.1 Z M 963.004,1406.31L 979.374,1415.56L 977.937,1421.91L 961.484,1412.82L 963.004,1406.31 Z "/>
		<path fill="#DCFF85" fill-opacity="1" stroke-width="0.2" stroke-linejoin="round" d="M 1005.52,1389L 1005.52,1421.91L 1001.46,1421.91L 1001.46,1397.27L 997.103,1403.88L 993.942,1399.03C 993.916,1398.85 993.972,1398.66 994.108,1398.48L 1000.23,1389L 1005.52,1389 Z "/>
		<path fill="#DCFF85" fill-opacity="1" stroke-width="0.2" stroke-linejoin="round" d="M 1007.77,1389.1L 1012.33,1389.1L 1012.33,1395.55L 1024.64,1395.55L 1030.92,1389.1L 1040.11,1389.1L 1024.64,1403.14L 1007.77,1403.14L 1007.77,1389.1 Z M 1007.77,1407.87L 1025.13,1407.87L 1040.31,1421.91L 1031.74,1421.91L 1024.31,1415.46L 1012.25,1415.46L 1012.25,1421.91L 1007.77,1421.91L 1007.77,1407.87 Z "/>
		<path fill="#DCFF85" fill-opacity="1" stroke-width="0.2" stroke-linejoin="round" d="M 1063.58,1389.1L 1068.14,1389.1L 1068.14,1395.55L 1080.45,1395.55L 1086.73,1389.1L 1095.92,1389.1L 1080.45,1403.14L 1063.58,1403.14L 1063.58,1389.1 Z M 1063.58,1407.87L 1080.94,1407.87L 1096.12,1421.91L 1087.55,1421.91L 1080.12,1415.46L 1068.06,1415.46L 1068.06,1421.91L 1063.58,1421.91L 1063.58,1407.87 Z "/>
		<path fill="#DCFF85" fill-opacity="1" stroke-width="0.2" stroke-linejoin="round" d="M 1118.82,1388.97L 1118.82,1421.94L 1112.91,1421.94L 1098.71,1408L 1101.34,1401.83L 1114.31,1414.41L 1114.31,1388.97L 1118.82,1388.97 Z "/>
		<path fill="#DCFF85" fill-opacity="1" stroke-width="0.2" stroke-linejoin="round" d="M 1141.8,1388.97L 1141.8,1421.94L 1135.89,1421.94L 1121.69,1408L 1124.32,1401.83L 1137.29,1414.41L 1137.29,1388.97L 1141.8,1388.97 Z "/>
		<path fill="#DCFF85" fill-opacity="1" stroke-width="0.2" stroke-linejoin="round" d="M 1174.47,1389.07L 1174.47,1396.63L 1171.35,1396.63L 1171.35,1421.91L 1167.12,1421.91L 1167.12,1396.63L 1166.55,1396.63L 1159.16,1421.91L 1153.74,1421.91L 1144.06,1389.07L 1149.27,1389.07L 1156.49,1412.56L 1163.51,1389.07L 1174.47,1389.07 Z "/>
		<path fill="#DCFF85" fill-opacity="1" stroke-width="0.2" stroke-linejoin="round" d="M 1205,1389.03L 1193.79,1421.91L 1186.82,1421.91L 1176.6,1391.87L 1176.6,1390.32L 1177.13,1389.27L 1177.83,1389.03L 1187.19,1389.03L 1191.91,1402.67L 1187.02,1402.67L 1184.03,1392.74L 1181.73,1392.74L 1189.85,1416.64L 1190.92,1416.64L 1200.4,1389.03L 1205,1389.03 Z "/>
	</g>
	<path fill="none" stroke-width="16" stroke-linejoin="round" stroke="#DCFF85" stroke-opacity="1" d="M 2792,1673.34C 2792,1673.34 2664,1831.31 2696,2400"/>
	<g>
		<path fill="#DCFF85" fill-opacity="1" stroke-width="0.2" stroke-linejoin="round" d="M 3206.35,1391.73L 3206.35,1368.62L 3186.2,1368.62L 3186.2,1391.73L 3174.38,1391.73L 3174.38,1330.72L 3186.2,1330.72L 3186.04,1353.55L 3203.47,1330.72L 3218.16,1330.72L 3200.73,1352.9L 3218.16,1352.9L 3218.16,1391.73L 3206.35,1391.73 Z "/>
		<path fill="#DCFF85" fill-opacity="1" stroke-width="0.2" stroke-linejoin="round" d="M 3273.75,1391.73L 3227.89,1391.73L 3227.89,1330.72L 3239.7,1330.72L 3239.7,1376.01L 3261.94,1376.01L 3261.94,1330.72L 3273.75,1330.72L 3273.75,1391.73 Z "/>
		<path fill="#DCFF85" fill-opacity="1" stroke-width="0.2" stroke-linejoin="round" d="M 3279.72,1385.29L 3302.17,1330.72L 3330.73,1330.72L 3330.73,1391.73L 3306.61,1391.73L 3306.61,1376.01L 3318.92,1376.01L 3318.92,1346.43L 3308.91,1346.43L 3289.8,1392.65L 3279.72,1385.29 Z "/>
		<path fill="#DCFF85" fill-opacity="1" stroke-width="0.2" stroke-linejoin="round" d="M 3359.22,1345.51L 3359.22,1376.01L 3377.01,1376.01L 3377.01,1391.73L 3348.1,1391.73L 3348.1,1345.51L 3340.38,1345.51L 3340.38,1330.72L 3383.47,1330.72L 3383.47,1345.51L 3359.22,1345.51 Z "/>
	</g>
	<g>
		<path fill="#DCFF85" fill-opacity="1" stroke-width="0.2" stroke-linejoin="round" d="M 3235.23,1408.54C 3235.76,1408.81 3236.18,1409.28 3236.48,1409.95L 3236.48,1455.74C 3236.24,1456.54 3235.74,1457.09 3234.96,1457.4L 3171.77,1457.4L 3171.77,1446.12L 3226.25,1446.12L 3226.25,1419.76L 3171.77,1419.76L 3171.77,1408.54L 3235.23,1408.54 Z "/>
		<path fill="#DCFF85" fill-opacity="1" stroke-width="0.2" stroke-linejoin="round" d="M 3301.92,1408.48L 3304.08,1410.9L 3304.08,1454.88L 3301.73,1457.4L 3241.96,1457.4L 3241.96,1408.48L 3252.28,1408.48L 3252.28,1446.83L 3293.75,1446.83L 3293.75,1419.76L 3280.38,1419.76L 3274.09,1429.07L 3260.71,1429.07L 3274.81,1408.48L 3301.92,1408.48 Z "/>
		<path fill="#DCFF85" fill-opacity="1" stroke-width="0.2" stroke-linejoin="round" d="M 3308.47,1408.48L 3318.44,1408.48L 3318.44,1418.1L 3345.37,1418.1L 3359.09,1408.48L 3379.19,1408.48L 3345.37,1429.42L 3308.47,1429.42L 3308.47,1408.48 Z M 3308.47,1436.47L 3346.43,1436.47L 3379.64,1457.4L 3360.89,1457.4L 3344.64,1447.79L 3318.26,1447.79L 3318.26,1457.4L 3308.47,1457.4L 3308.47,1436.47 Z "/>
		<path fill="#DCFF85" fill-opacity="1" stroke-width="0.2" stroke-linejoin="round" d="M 3423.27,1408.48L 3423.27,1448.09L 3426.15,1448.09L 3441.31,1431.18L 3454.59,1431.18L 3430.63,1457.4L 3407.38,1457.4L 3383.33,1431.03L 3396.61,1431.03L 3411.87,1447.94L 3414.65,1447.94L 3414.65,1408.48L 3423.27,1408.48 Z "/>
	</g>
	<g>
		<path fill="#1059FB" fill-opacity="0.901961" stroke-width="0.2" stroke-linejoin="round" stroke="#438DFE" stroke-opacity="0.901961" d="M 2891.45,1897.75C 2908.59,1897.75 2922.49,1911.36 2922.49,1928.16C 2922.49,1944.95 2908.59,1958.56 2891.45,1958.56C 2874.31,1958.56 2860.42,1944.95 2860.42,1928.16C 2860.42,1911.36 2874.31,1897.75 2891.45,1897.75 Z "/>
		<path fill="#1059FB" fill-opacity="1" stroke-width="0.2" stroke-linejoin="round" stroke="#438DFE" stroke-opacity="1" d="M 2848.14,1918.21L 2807.23,1918.21C 2807.23,1918.21 2801.46,1876.86 2840.66,1856.9L 2863.53,1892.7L 2848.14,1918.21 Z "/>
		<path fill="#1059FB" fill-opacity="1" stroke-width="0.2" stroke-linejoin="round" stroke="#438DFE" stroke-opacity="1" d="M 2877.24,1882.01L 2855.65,1849.53C 2855.65,1849.53 2889.57,1825.2 2925.47,1850.64L 2904.4,1882.41L 2877.24,1882.01 Z "/>
		<path fill="#1059FB" fill-opacity="1" stroke-width="0.2" stroke-linejoin="round" stroke="#438DFE" stroke-opacity="1" d="M 2934.8,1918.21L 2975.71,1918.21C 2975.71,1918.21 2981.48,1876.86 2942.28,1856.9L 2919.41,1892.7L 2934.8,1918.21 Z "/>
		<path fill="#1059FB" fill-opacity="1" stroke-width="0.2" stroke-linejoin="round" stroke="#438DFE" stroke-opacity="1" d="M 2848.14,1936.9L 2807.23,1936.9C 2807.23,1936.9 2801.46,1978.24 2840.66,1998.2L 2863.53,1962.41L 2848.14,1936.9 Z "/>
		<path fill="#1059FB" fill-opacity="1" stroke-width="0.2" stroke-linejoin="round" stroke="#438DFE" stroke-opacity="1" d="M 2877.24,1973.1L 2855.65,2005.58C 2855.65,2005.58 2889.57,2029.91 2925.47,2004.47L 2904.4,1972.7L 2877.24,1973.1 Z "/>
		<path fill="#1059FB" fill-opacity="1" stroke-width="0.2" stroke-linejoin="round" stroke="#438DFE" stroke-opacity="1" d="M 2934.8,1936.9L 2975.71,1936.9C 2975.71,1936.9 2981.48,1978.24 2942.28,1998.2L 2919.41,1962.41L 2934.8,1936.9 Z "/>
	</g>
	<g>
		<path fill="#0083FF" fill-opacity="1" stroke-width="0.2" stroke-linejoin="round" d="M 3031.09,1924L 3031.09,1911.45L 3018.68,1911.45L 3018.68,1924L 3011.41,1924L 3011.41,1890.87L 3018.68,1890.87L 3018.68,1902.92L 3031.09,1902.92L 3031.09,1890.87L 3038.36,1890.87L 3038.36,1924L 3031.09,1924 Z "/>
		<path fill="#0083FF" fill-opacity="1" stroke-width="0.2" stroke-linejoin="round" d="M 3065.31,1915.47L 3065.31,1890.87L 3072.58,1890.87L 3072.58,1924L 3053.49,1924L 3044.35,1913.31L 3044.35,1890.87L 3051.62,1890.87L 3051.62,1909.65L 3056.44,1915.47L 3065.31,1915.47 Z "/>
		<path fill="#0083FF" fill-opacity="1" stroke-width="0.2" stroke-linejoin="round" d="M 3098.67,1899.4L 3100.51,1899.4L 3105.51,1905.21L 3105.51,1924L 3112.79,1924L 3112.79,1901.56L 3103.65,1890.87L 3078.57,1890.87L 3078.57,1924L 3085.84,1924L 3085.84,1899.4L 3091.83,1899.4L 3091.83,1924L 3098.67,1924L 3098.67,1899.4 Z "/>
		<path fill="#0083FF" fill-opacity="1" stroke-width="0.2" stroke-linejoin="round" d="M 3140.78,1896.15L 3134.79,1902.92L 3145.72,1902.92L 3145.72,1924L 3118.77,1924L 3118.77,1890.87L 3140.78,1890.87L 3140.78,1896.15 Z M 3126.05,1915.47L 3138.45,1915.47L 3138.45,1911.45L 3126.05,1911.45L 3126.05,1915.47 Z M 3130.13,1898.4L 3126.05,1898.4L 3125.99,1903.27L 3130.13,1898.4 Z "/>
		<path fill="#0083FF" fill-opacity="1" stroke-width="0.2" stroke-linejoin="round" d="M 3149.4,1920.5L 3163.22,1890.87L 3180.8,1890.87L 3180.8,1924L 3165.95,1924L 3165.95,1915.47L 3173.53,1915.47L 3173.53,1899.4L 3167.36,1899.4L 3155.6,1924.5L 3149.4,1920.5 Z "/>
		<path fill="#0083FF" fill-opacity="1" stroke-width="0.2" stroke-linejoin="round" d="M 3186.79,1924L 3186.79,1890.87L 3213.73,1890.87L 3213.73,1911.45L 3203.01,1911.45L 3213.73,1924L 3204.74,1924L 3194.06,1911.55L 3194.06,1924L 3186.79,1924 Z M 3206.46,1899.4L 3194.06,1899.4L 3194.06,1902.92L 3206.46,1902.92L 3206.46,1899.4 Z "/>
		<rect x="3219.72" y="1890.87" fill="#0083FF" fill-opacity="1" stroke-width="0.2" stroke-linejoin="round" width="7.27148" height="33.1324"/>
		<path fill="#0083FF" fill-opacity="1" stroke-width="0.2" stroke-linejoin="round" d="M 3240.25,1899.4L 3240.25,1924L 3232.98,1924L 3232.98,1890.87L 3252.07,1890.87L 3261.21,1901.56L 3261.21,1924L 3253.94,1924L 3253.94,1905.21L 3249.12,1899.4L 3240.25,1899.4 Z "/>
		<path fill="#0083FF" fill-opacity="1" stroke-width="0.2" stroke-linejoin="round" d="M 3295.43,1911.95L 3295.43,1890.87L 3267.2,1890.87L 3267.2,1924L 3295.43,1924L 3295.43,1915.47L 3274.47,1915.47L 3274.47,1898.9L 3288.16,1898.9L 3288.16,1903.42L 3282.35,1903.42L 3282.35,1911.95L 3295.43,1911.95 Z "/>
	</g>
	<g>
		<path fill="#0083FF" fill-opacity="1" stroke-width="0.2" stroke-linejoin="round" d="M 3054.43,1937.31L 3054.43,1944.82L 3009.45,1944.82L 3009.45,1937.31L 3054.43,1937.31 Z M 3017.13,1949.85L 3046.7,1949.85L 3046.7,1957.36L 3017.13,1957.36L 3017.13,1949.85 Z M 3009.45,1962.46L 3054.43,1962.46L 3054.43,1970L 3009.45,1970L 3009.45,1962.46 Z "/>
		<path fill="#0083FF" fill-opacity="1" stroke-width="0.2" stroke-linejoin="round" d="M 3096.62,1937.41L 3098.02,1939.02L 3098.02,1968.32L 3096.5,1970L 3057.8,1970L 3057.8,1937.41L 3064.48,1937.41L 3064.48,1962.96L 3091.33,1962.96L 3091.33,1944.92L 3082.67,1944.92L 3078.6,1951.13L 3069.94,1951.13L 3079.07,1937.41L 3096.62,1937.41 Z "/>
		<path fill="#0083FF" fill-opacity="1" stroke-width="0.2" stroke-linejoin="round" d="M 3125.5,1937.41L 3125.5,1946.17L 3119.57,1946.23L 3111.73,1962.49L 3127.36,1962.49L 3123.58,1970L 3101.03,1970L 3116.2,1937.41L 3125.5,1937.41 Z "/>
		<path fill="#0083FF" fill-opacity="1" stroke-width="0.2" stroke-linejoin="round" d="M 3138.75,1937.65L 3166.76,1937.65L 3174.95,1948.21L 3174.95,1949.92L 3167.75,1949.92L 3164.43,1944.92L 3141.19,1944.92L 3137.7,1949.92L 3130.49,1949.92L 3130.49,1948.21L 3138.75,1937.65 Z M 3143.74,1949.82L 3162.45,1949.82L 3162.45,1957.6L 3143.74,1957.6L 3143.74,1949.82 Z M 3130.44,1958.5L 3137.64,1958.5L 3141.07,1962.82L 3164.37,1962.82L 3167.68,1958.57L 3174.89,1958.57L 3174.89,1960.08L 3166.69,1970.03L 3138.63,1970.03L 3130.44,1960.08L 3130.44,1958.5 Z "/>
		<path fill="#0083FF" fill-opacity="1" stroke-width="0.2" stroke-linejoin="round" d="M 3178.14,1937.41L 3184.6,1937.41L 3184.6,1943.82L 3202.03,1943.82L 3210.92,1937.41L 3223.93,1937.41L 3202.03,1951.36L 3178.14,1951.36L 3178.14,1937.41 Z M 3178.14,1956.06L 3202.72,1956.06L 3224.22,1970L 3212.08,1970L 3201.56,1963.6L 3184.48,1963.6L 3184.48,1970L 3178.14,1970L 3178.14,1956.06 Z "/>
		<path fill="#0083FF" fill-opacity="1" stroke-width="0.2" stroke-linejoin="round" d="M 3263.74,1937.41L 3239.45,1970L 3231.09,1970L 3248.86,1945.86L 3248.86,1945.29L 3227.54,1945.29L 3232.71,1937.41L 3263.74,1937.41 Z "/>
		<path fill="#0083FF" fill-opacity="1" stroke-width="0.2" stroke-linejoin="round" d="M 3282.45,1937.31L 3282.45,1970L 3276.7,1970L 3276.7,1945.53L 3270.54,1952.1L 3266.06,1947.27C 3266.02,1947.09 3266.1,1946.91 3266.3,1946.73L 3274.96,1937.31L 3282.45,1937.31 Z "/>
		<path fill="#0083FF" fill-opacity="1" stroke-width="0.2" stroke-linejoin="round" d="M 3294.02,1963.7L 3294.72,1963.63L 3306.97,1937.41L 3314.65,1937.41L 3330.97,1970L 3323.42,1970L 3310.87,1944.25L 3298.72,1970L 3291.23,1970L 3290.82,1969.97L 3290.07,1968.76L 3289.37,1967.45L 3288.43,1965.64L 3287.62,1963.56L 3286.87,1961.38L 3286.4,1958.87L 3285.94,1956.02L 3285.76,1953.07L 3285.65,1949.89L 3286.17,1947.44L 3286.64,1944.82L 3287.16,1942.84L 3287.97,1941.03L 3288.72,1939.46L 3289.66,1938.15L 3290.18,1937.48L 3295.76,1937.48L 3294.77,1938.52L 3294.02,1939.8L 3293.2,1941.37L 3292.62,1942.91L 3292.1,1944.82L 3291.57,1947.34L 3291.23,1950.12L 3291.05,1952.9L 3291.23,1955.68L 3291.69,1958.63L 3292.27,1960.88L 3292.91,1962.26L 3294.02,1963.7 Z "/>
		<path fill="#0083FF" fill-opacity="1" stroke-width="0.2" stroke-linejoin="round" d="M 3376.41,1937.38L 3376.41,1944.89L 3372,1944.89L 3372,1970L 3366.01,1970L 3366.01,1944.89L 3365.2,1944.89L 3354.74,1970L 3347.07,1970L 3333.36,1937.38L 3340.73,1937.38L 3350.96,1960.71L 3360.9,1937.38L 3376.41,1937.38 Z "/>
	</g>
	<g>
		<path fill="#378AFB" fill-opacity="1" stroke-linejoin="round" d="M 646.213,1774.43L 645.232,1779.37L 642.415,1788.57L 638.746,1797.27L 634.283,1805.45L 629.087,1813.06L 623.218,1820.06L 616.733,1826.42L 609.691,1832.1L 602.15,1837.09L 594.165,1841.33L 585.792,1844.8L 577.088,1847.46L 568.11,1849.28L 558.917,1850.22L 549.567,1850.26L 540.124,1849.35L 537.654,1848.86L 539.981,1833.03L 542.45,1833.52L 550.3,1834.28L 558.063,1834.25L 565.695,1833.46L 573.151,1831.95L 580.382,1829.74L 587.341,1826.85L 593.979,1823.33L 600.246,1819.19L 606.094,1814.47L 611.474,1809.19L 616.338,1803.39L 620.641,1797.09L 624.335,1790.32L 627.376,1783.11L 629.716,1775.47L 630.38,1772.12L 646.213,1774.43 Z M 460.145,1742.33L 461.947,1733.25L 464.765,1724.05L 468.434,1715.34L 472.897,1707.17L 478.092,1699.56L 483.962,1692.56L 490.447,1686.2L 497.488,1680.51L 505.03,1675.53L 513.015,1671.29L 521.388,1667.82L 530.092,1665.16L 539.069,1663.34L 548.263,1662.39L 557.612,1662.36L 567.056,1663.27L 573.669,1664.58L 571.343,1680.41L 564.73,1679.1L 556.879,1678.34L 549.117,1678.37L 541.485,1679.15L 534.029,1680.67L 526.798,1682.88L 519.839,1685.76L 513.201,1689.29L 506.934,1693.43L 501.086,1698.15L 495.706,1703.43L 490.842,1709.23L 486.539,1715.53L 482.845,1722.29L 479.804,1729.51L 477.464,1737.15L 475.978,1744.64L 460.145,1742.33 Z "/>
		<path fill="#378AFB" fill-opacity="1" stroke-width="19" stroke-linecap="square" stroke-linejoin="miter" stroke="#378AFB" stroke-opacity="1" d="M 574.697,1717.06C 596.474,1728.38 604.893,1755.32 593.5,1777.22C 582.108,1799.13 555.218,1807.7 533.441,1796.38C 511.663,1785.05 503.245,1758.11 514.637,1736.21C 526.029,1714.3 552.919,1705.73 574.697,1717.06 Z "/>
		<path fill="#378AFB" fill-opacity="1" stroke-linejoin="round" d="M 572.826,1849.01L 567.89,1850.02L 558.321,1850.99L 548.873,1850.99L 539.606,1850.05L 530.58,1848.21L 521.85,1845.52L 513.471,1842.01L 505.498,1837.72L 497.981,1832.71L 490.974,1826.99L 484.529,1820.62L 478.698,1813.63L 473.537,1806.06L 469.099,1797.96L 465.44,1789.35L 462.613,1780.3L 462.108,1777.83L 477.601,1773.83L 478.106,1776.3L 480.455,1783.83L 483.494,1790.97L 487.178,1797.7L 491.464,1803.99L 496.308,1809.79L 501.665,1815.09L 507.49,1819.84L 513.737,1824.01L 520.358,1827.57L 527.309,1830.48L 534.544,1832.71L 542.018,1834.23L 549.69,1835.01L 557.52,1835.01L 565.469,1834.21L 568.811,1833.52L 572.826,1849.01 Z M 530.221,1665.06L 539.295,1663.2L 548.865,1662.23L 558.313,1662.23L 567.579,1663.17L 576.606,1665.01L 585.336,1667.7L 593.714,1671.21L 601.688,1675.5L 609.204,1680.52L 616.212,1686.23L 622.657,1692.6L 628.487,1699.59L 633.648,1707.16L 638.086,1715.27L 641.746,1723.87L 644.572,1732.93L 645.925,1739.53L 630.432,1743.53L 629.079,1736.92L 626.73,1729.39L 623.692,1722.25L 620.008,1715.52L 615.722,1709.24L 610.878,1703.43L 605.52,1698.13L 599.695,1693.38L 593.449,1689.21L 586.827,1685.66L 579.876,1682.74L 572.642,1680.51L 565.167,1678.99L 557.495,1678.21L 549.666,1678.21L 541.716,1679.01L 534.236,1680.55L 530.221,1665.06 Z "/>
	</g>
	<path fill="#378AFB" fill-opacity="1" stroke-width="0.2" stroke-linejoin="round" stroke="#4E9AFB" stroke-opacity="1" d="M 2366.97,1870.7C 2385.21,1870.7 2400,1885.02 2400,1902.7C 2400,1920.37 2385.21,1934.7 2366.97,1934.7C 2348.72,1934.7 2333.94,1920.37 2333.94,1902.7C 2333.94,1885.02 2348.72,1870.7 2366.97,1870.7 Z "/>
	<path fill="#378AFB" fill-opacity="1" stroke-width="0.2" stroke-linejoin="round" stroke="#4E9AFB" stroke-opacity="1" d="M 830.968,2000.71C 849.211,2000.71 864,2015.04 864,2032.71C 864,2050.39 849.211,2064.71 830.968,2064.71C 812.724,2064.71 797.936,2050.39 797.936,2032.71C 797.936,2015.04 812.724,2000.71 830.968,2000.71 Z "/>
	<path fill="#378AFB" fill-opacity="1" stroke-width="0.2" stroke-linejoin="round" stroke="#4E9AFB" stroke-opacity="1" d="M 2941.97,850C 2960.21,850 2975,864.326 2975,882C 2975,899.673 2960.21,914 2941.97,914C 2923.72,914 2908.94,899.673 2908.94,882C 2908.94,864.326 2923.72,850 2941.97,850 Z "/>
	<path fill="#378AFB" fill-opacity="1" stroke-width="0.2" stroke-linejoin="round" stroke="#4E9AFB" stroke-opacity="1" d="M 2726.07,614.537C 2744.31,614.537 2759.1,628.863 2759.1,646.537C 2759.1,664.21 2744.31,678.537 2726.07,678.537C 2707.83,678.537 2693.04,664.21 2693.04,646.537C 2693.04,628.863 2707.83,614.537 2726.07,614.537 Z "/>
	<path fill="#378AFB" fill-opacity="1" stroke-width="0.2" stroke-linejoin="round" stroke="#4E9AFB" stroke-opacity="1" d="M 2689.03,128C 2707.28,128 2722.06,142.327 2722.06,160C 2722.06,177.673 2707.28,192 2689.03,192C 2670.79,192 2656,177.673 2656,160C 2656,142.327 2670.79,128 2689.03,128 Z "/>
	<path fill="#378AFB" fill-opacity="1" stroke-width="0.2" stroke-linejoin="round" stroke="#4E9AFB" stroke-opacity="1" d="M 1633.03,352C 1651.28,352 1666.06,366.327 1666.06,384C 1666.06,401.673 1651.28,416 1633.03,416C 1614.79,416 1600,401.673 1600,384C 1600,366.327 1614.79,352 1633.03,352 Z "/>
	<path fill="#378AFB" fill-opacity="1" stroke-width="0.2" stroke-linejoin="round" stroke="#4E9AFB" stroke-opacity="1" d="M 2366.97,1242C 2385.21,1242 2400,1256.33 2400,1274C 2400,1291.67 2385.21,1306 2366.97,1306C 2348.72,1306 2333.94,1291.67 2333.94,1274C 2333.94,1256.33 2348.72,1242 2366.97,1242 Z "/>
	<path fill="#378AFB" fill-opacity="1" stroke-width="0.2" stroke-linejoin="round" stroke="#4E9AFB" stroke-opacity="1" d="M 1950.97,448C 1969.21,448 1984,462.327 1984,480C 1984,497.673 1969.21,512 1950.97,512C 1932.72,512 1917.94,497.673 1917.94,480C 1917.94,462.327 1932.72,448 1950.97,448 Z "/>
	<path fill="#378AFB" fill-opacity="1" stroke-width="0.2" stroke-linejoin="round" stroke="#4E9AFB" stroke-opacity="1" d="M 1081,836C 1099.24,836 1114.03,850.326 1114.03,868C 1114.03,885.673 1099.24,900 1081,900C 1062.76,900 1047.97,885.673 1047.97,868C 1047.97,850.326 1062.76,836 1081,836 Z "/>
	<path fill="#378AFB" fill-opacity="1" stroke-width="0.2" stroke-linejoin="round" stroke="#4E9AFB" stroke-opacity="1" d="M 1113,605C 1131.24,605 1146.03,619.327 1146.03,637C 1146.03,654.673 1131.24,669 1113,669C 1094.76,669 1079.97,654.673 1079.97,637C 1079.97,619.327 1094.76,605 1113,605 Z "/>
	<path fill="#378AFB" fill-opacity="1" stroke-width="0.2" stroke-linejoin="round" stroke="#4E9AFB" stroke-opacity="1" d="M 1377.03,103C 1395.28,103 1410.06,117.327 1410.06,135C 1410.06,152.673 1395.28,167 1377.03,167C 1358.79,167 1344,152.673 1344,135C 1344,117.327 1358.79,103 1377.03,103 Z "/>
	<path fill="#378AFB" fill-opacity="1" stroke-width="0.2" stroke-linejoin="round" stroke="#4E9AFB" stroke-opacity="1" d="M 884.968,365C 903.211,365 918,379.327 918,397C 918,414.673 903.211,429 884.968,429C 866.724,429 851.936,414.673 851.936,397C 851.936,379.327 866.724,365 884.968,365 Z "/>
	<path fill="#378AFB" fill-opacity="1" stroke-width="0.2" stroke-linejoin="round" stroke="#4E9AFB" stroke-opacity="1" d="M 1441.03,416C 1459.28,416 1474.06,430.327 1474.06,448C 1474.06,465.673 1459.28,480 1441.03,480C 1422.79,480 1408,465.673 1408,448C 1408,430.327 1422.79,416 1441.03,416 Z "/>
</svg>
