<?xml version="1.0" encoding="utf-8"?>
<!DOCTYPE svg PUBLIC "-//W3C//DTD SVG 1.1//EN" "http://www.w3.org/Graphics/SVG/1.1/DTD/svg11.dtd">
<svg xmlns="http://www.w3.org/2000/svg" xmlns:xlink="http://www.w3.org/1999/xlink" version="1.1" baseProfile="full" width="768" height="240" viewBox="0 0 768.00 240.00" enable-background="new 0 0 768.00 240.00" xml:space="preserve">
	<path fill="#888888" fill-opacity="1" stroke-width="0.2" stroke-linejoin="round" d="M -8.47272e-006,0L 57.1224,0L 768,0L 768,240L -8.47272e-006,240L -8.47272e-006,0 Z "/>
	<g>
		<path fill="#ECE5D3" fill-opacity="1" stroke-width="0.2" stroke-linejoin="round" d="M 62.4092,96.0066C 61.1129,95.5565 60.0316,94.8364 59.1652,93.8462C 58.338,92.8935 57.7256,91.6483 57.3283,90.1105C 56.9049,88.5727 56.6964,86.7424 56.703,84.6195C 56.6965,82.4591 56.9049,80.6137 57.3283,79.0834C 57.7256,77.5831 58.338,76.3529 59.1652,75.3927C 60.0316,74.4025 61.1129,73.6824 62.4092,73.2323C 63.738,72.715 65.3404,72.4452 67.2164,72.423L 76.556,72.423L 76.556,76.3829L 78.7624,76.3829L 79.5554,74.5826L 79.5554,68.97L 66.8647,68.97C 62.2295,68.976 58.7977,70.2317 56.5695,72.7372C 54.6644,75.3252 53.7091,79.286 53.7036,84.6195C 53.7091,89.953 54.6644,93.9137 56.5695,96.5017C 58.7977,98.9784 62.2295,100.219 66.8647,100.225L 79.7839,100.225L 79.7839,96.7717L 67.2164,96.7717C 65.3404,96.7642 63.738,96.5092 62.4092,96.0066 Z "/>
		<path fill="#ECE5D3" fill-opacity="1" stroke-width="0.2" stroke-linejoin="round" d="M 82.8761,84.3956L 82.8761,84.3508C 82.8913,81.6638 83.1379,79.4366 83.6159,77.669C 84.094,75.9014 84.8274,74.3019 85.8162,72.8706C 87.2528,70.9834 89.0761,69.7016 91.2859,69.0252C 93.4957,68.3488 95.3762,68.0312 96.9274,68.0723C 98.4626,68.0312 100.337,68.3488 102.55,69.0253C 104.763,69.7016 106.58,70.9834 108,72.8706C 109.008,74.3019 109.751,75.9014 110.23,77.669C 110.708,79.4366 110.946,81.6638 110.942,84.3508L 110.942,84.3956C 110.946,87.0825 110.708,89.3098 110.23,91.0774C 109.751,92.845 109.008,94.4444 108,95.8757C 106.58,97.7629 104.763,99.0447 102.55,99.7211C 100.337,100.398 98.4626,100.715 96.9274,100.674C 95.3762,100.715 93.4957,100.398 91.2859,99.7211C 89.0761,99.0447 87.2528,97.7629 85.8162,95.8757C 84.8274,94.4444 84.094,92.845 83.6159,91.0774C 83.1379,89.3098 82.8913,87.0825 82.8761,84.3956 Z M 86.618,84.3508L 86.618,84.3956C 86.5759,85.6522 86.7175,87.2199 87.0428,89.0986C 87.3682,90.9774 88.1302,92.6236 89.329,94.0371C 90.5214,95.1965 91.8785,95.972 93.4002,96.3634C 94.922,96.7549 96.0977,96.9361 96.9274,96.9072C 97.7579,96.9361 98.932,96.7549 100.45,96.3634C 101.967,95.9719 103.313,95.1965 104.488,94.0371C 105.688,92.6236 106.456,90.9774 106.793,89.0986C 107.129,87.2198 107.277,85.6522 107.237,84.3956L 107.237,84.3508C 107.277,83.0755 107.129,81.5004 106.793,79.6253C 106.456,77.7502 105.688,76.0966 104.488,74.6644C 103.313,73.5265 101.967,72.7641 100.45,72.3773C 98.932,71.9906 97.7579,71.8112 96.9274,71.8392C 96.0977,71.8112 94.922,71.9906 93.4002,72.3773C 91.8785,72.7641 90.5214,73.5265 89.329,74.6644C 88.1302,76.0966 87.3682,77.7503 87.0428,79.6253C 86.7175,81.5004 86.5759,83.0755 86.618,84.3508 Z "/>
		<path fill="#ECE5D3" fill-opacity="1" stroke-width="0.2" stroke-linejoin="round" d="M 112.584,84.3956L 112.584,84.3508C 112.599,81.6638 112.846,79.4366 113.324,77.669C 113.802,75.9014 114.536,74.3019 115.524,72.8706C 116.961,70.9834 118.784,69.7016 120.994,69.0252C 123.204,68.3488 125.084,68.0312 126.636,68.0723C 128.171,68.0312 130.045,68.3488 132.258,69.0253C 134.471,69.7016 136.288,70.9834 137.709,72.8706C 138.716,74.3019 139.46,75.9014 139.938,77.669C 140.417,79.4366 140.654,81.6638 140.65,84.3508L 140.65,84.3956C 140.654,87.0825 140.417,89.3098 139.938,91.0774C 139.46,92.845 138.716,94.4444 137.709,95.8757C 136.288,97.7629 134.471,99.0447 132.258,99.7211C 130.045,100.398 128.171,100.715 126.636,100.674C 125.084,100.715 123.204,100.398 120.994,99.7211C 118.784,99.0447 116.961,97.7629 115.524,95.8757C 114.536,94.4444 113.802,92.845 113.324,91.0774C 112.846,89.3098 112.599,87.0825 112.584,84.3956 Z M 116.326,84.3508L 116.326,84.3956C 116.284,85.6522 116.426,87.2199 116.751,89.0986C 117.076,90.9774 117.838,92.6236 119.037,94.0371C 120.23,95.1965 121.587,95.972 123.108,96.3634C 124.63,96.7549 125.806,96.9361 126.636,96.9072C 127.466,96.9361 128.64,96.7549 130.158,96.3634C 131.676,95.9719 133.022,95.1965 134.196,94.0371C 135.396,92.6236 136.165,90.9774 136.501,89.0986C 136.837,87.2198 136.985,85.6522 136.945,84.3956L 136.945,84.3508C 136.985,83.0755 136.837,81.5004 136.501,79.6253C 136.165,77.7502 135.396,76.0966 134.196,74.6644C 133.022,73.5265 131.676,72.7641 130.158,72.3773C 128.64,71.9906 127.466,71.8112 126.636,71.8392C 125.806,71.8112 124.63,71.9906 123.108,72.3773C 121.587,72.7641 120.23,73.5265 119.037,74.6644C 117.838,76.0966 117.076,77.7503 116.751,79.6253C 116.426,81.5004 116.284,83.0755 116.326,84.3508 Z "/>
		<path fill="#ECE5D3" fill-opacity="1" stroke-width="0.2" stroke-linejoin="round" d="M 165.546,90.4548L 161.931,90.4548L 164.728,96.2329L 164.728,96.7717L 147.161,96.7717L 147.161,68.9309L 144.161,68.9309L 144.161,100.225L 167.728,100.225L 167.728,95.3348L 165.546,90.4548 Z "/>
		<rect x="170.061" y="68.9309" fill="#ECE5D3" fill-opacity="1" stroke-width="0.2" stroke-linejoin="round" width="2.99937" height="31.333"/>
		<path fill="#ECE5D3" fill-opacity="1" stroke-width="0.2" stroke-linejoin="round" d="M 202.435,68.97L 202.435,80.1461L 185.356,68.97L 178.44,68.97L 178.44,100.264L 181.439,100.264L 181.439,72.423L 184.103,72.423L 202.435,84.6367L 202.435,100.264L 205.434,100.264L 205.434,68.97L 202.435,68.97 Z "/>
		<path fill="#ECE5D3" fill-opacity="1" stroke-width="0.2" stroke-linejoin="round" d="M 222.577,100.292C 218.079,100.285 214.738,98.9994 212.555,96.4358C 210.385,93.8618 209.297,89.9064 209.291,84.5694C 209.297,79.261 210.385,75.3189 212.555,72.7431C 214.738,70.179 218.079,68.8932 222.577,68.8858L 235.294,68.8858L 235.294,72.5182L 222.919,72.5182C 221.097,72.5111 219.54,72.7503 218.25,73.2359C 216.991,73.6839 215.94,74.4006 215.099,75.3861C 214.295,76.3418 213.701,77.5662 213.315,79.0594C 212.903,80.5825 212.701,82.4191 212.707,84.5694C 212.701,86.7017 212.903,88.5345 213.315,90.0679C 213.701,91.6001 214.295,92.8408 215.099,93.79C 215.94,94.7766 216.991,95.4941 218.25,95.9425C 219.54,96.4283 221.097,96.6675 222.919,96.66L 232.447,96.66L 232.447,88.2293L 228.309,88.2293L 228.309,86.4218L 230.663,84.5694L 235.523,84.5694L 235.523,100.292L 222.577,100.292 Z "/>
		<path fill="#ECE5D3" fill-opacity="1" stroke-width="0.2" stroke-linejoin="round" d="M 270.217,82.8709C 268.695,82.8786 267.543,82.4916 266.76,81.7099C 265.995,80.9282 265.612,79.566 265.612,77.6233C 265.612,75.6729 265.995,74.3262 266.76,73.5832C 267.538,72.8017 268.737,72.415 270.357,72.423L 284.323,72.423L 284.323,76.4159L 286.529,76.4159L 287.322,74.5584L 287.322,68.97L 269.821,68.97C 267.34,68.9701 265.51,69.6522 264.332,71.0163C 263.186,72.4147 262.613,74.617 262.613,77.6233C 262.613,80.6312 263.186,82.8351 264.332,84.2352C 265.497,85.6348 267.314,86.331 269.783,86.3239L 280.459,86.3239C 282.075,86.3315 283.256,86.7236 284.001,87.5001C 284.71,88.2765 285.072,89.6183 285.085,91.5254C 285.072,93.4249 284.71,94.7817 284.001,95.5958C 283.259,96.3722 282.072,96.7642 280.441,96.7717L 265.231,96.7717L 265.231,92.9274L 263.025,92.9274L 262.232,94.7365L 262.232,100.27L 280.866,100.225C 283.352,100.23 285.179,99.516 286.348,98.0823C 287.516,96.6486 288.095,94.463 288.084,91.5254C 288.095,88.6094 287.516,86.4368 286.348,85.0078C 285.179,83.5787 283.352,82.8664 280.866,82.8709L 270.217,82.8709 Z "/>
		<path fill="#ECE5D3" fill-opacity="1" stroke-width="0.2" stroke-linejoin="round" d="M 320.458,100.225L 320.458,68.9309L 317.459,68.9309L 317.459,96.7717L 307.248,96.7717C 305.392,96.7793 303.806,96.5394 302.491,96.0522C 301.208,95.6024 300.138,94.8828 299.281,93.8934C 298.462,92.9415 297.856,91.6972 297.463,90.1605C 297.044,88.6239 296.838,86.795 296.844,84.6737L 296.844,68.9309L 293.845,68.9309L 293.845,84.6737C 293.85,90.0031 294.805,93.9609 296.711,96.5469C 298.917,98.9937 302.313,100.22 306.9,100.225L 320.458,100.225 Z "/>
		<path fill="#ECE5D3" fill-opacity="1" stroke-width="0.2" stroke-linejoin="round" d="M 346.524,87.4781C 347.538,87.059 348.362,86.448 348.995,85.6452C 349.606,84.8664 350.084,83.8569 350.428,82.6167C 350.745,81.4259 350.911,80.0758 350.928,78.5665C 350.911,77.0192 350.745,75.654 350.428,74.4708C 350.084,73.2307 349.606,72.2213 348.995,71.4426C 348.362,70.6398 347.538,70.0288 346.524,69.6096C 345.472,69.1833 344.302,68.9701 343.016,68.97L 324.695,68.97L 324.695,100.264L 327.695,100.264L 327.695,88.1176L 343.562,88.1176C 344.647,88.0749 345.634,87.8618 346.524,87.4781 Z M 327.695,72.423L 342.665,72.423C 346.193,72.4002 347.948,74.448 347.929,78.5665C 347.948,82.647 346.193,84.6797 342.665,84.6646L 327.695,84.6646L 327.695,72.423 Z "/>
		<path fill="#ECE5D3" fill-opacity="1" stroke-width="0.2" stroke-linejoin="round" d="M 374.709,87.4781C 375.723,87.059 376.546,86.448 377.18,85.6452C 377.791,84.8664 378.268,83.8569 378.613,82.6167C 378.929,81.4259 379.096,80.0758 379.113,78.5665C 379.096,77.0192 378.929,75.654 378.613,74.4708C 378.268,73.2307 377.791,72.2213 377.18,71.4426C 376.546,70.6398 375.723,70.0288 374.709,69.6096C 373.656,69.1833 372.487,68.9701 371.2,68.97L 352.88,68.97L 352.88,100.264L 355.879,100.264L 355.879,88.1176L 371.746,88.1176C 372.831,88.0749 373.819,87.8618 374.709,87.4781 Z M 355.879,72.423L 370.85,72.423C 374.378,72.4002 376.133,74.448 376.113,78.5665C 376.133,82.647 374.378,84.6797 370.85,84.6646L 355.879,84.6646L 355.879,72.423 Z "/>
		<path fill="#ECE5D3" fill-opacity="1" stroke-width="0.2" stroke-linejoin="round" d="M 404.354,90.4548L 400.739,90.4548L 403.536,96.2329L 403.536,96.7717L 385.969,96.7717L 385.969,68.9309L 382.969,68.9309L 382.969,100.225L 406.536,100.225L 406.536,95.3348L 404.354,90.4548 Z "/>
		<path fill="#ECE5D3" fill-opacity="1" stroke-width="0.2" stroke-linejoin="round" d="M 422.709,72.8939L 415.243,88.2786L 406.102,68.9476L 401.836,68.9476L 413.263,92.393L 409.454,100.264L 413.567,100.264L 428.803,68.9476L 419.205,68.9476L 417.376,72.8939L 422.709,72.8939 Z "/>
		<path fill="#ECE5D3" fill-opacity="1" stroke-width="0.2" stroke-linejoin="round" d="M 481.758,100.225L 481.758,68.9309L 478.759,68.9309L 478.759,96.7717L 468.548,96.7717C 466.692,96.7793 465.106,96.5394 463.791,96.0522C 462.508,95.6024 461.438,94.8828 460.581,93.8934C 459.762,92.9415 459.156,91.6972 458.763,90.1605C 458.344,88.6239 458.138,86.795 458.144,84.6737L 458.144,68.9309L 455.145,68.9309L 455.145,84.6737C 455.15,90.0031 456.106,93.9609 458.011,96.5469C 460.217,98.9937 463.613,100.22 468.2,100.225L 481.758,100.225 Z "/>
		<path fill="#ECE5D3" fill-opacity="1" stroke-width="0.2" stroke-linejoin="round" d="M 509.991,68.97L 509.991,80.1461L 492.912,68.97L 485.996,68.97L 485.996,100.264L 488.995,100.264L 488.995,72.423L 491.659,72.423L 509.991,84.6367L 509.991,100.264L 512.99,100.264L 512.99,68.97L 509.991,68.97 Z "/>
		<rect x="517.227" y="68.9309" fill="#ECE5D3" fill-opacity="1" stroke-width="0.2" stroke-linejoin="round" width="2.99939" height="31.333"/>
		<path fill="#ECE5D3" fill-opacity="1" stroke-width="0.2" stroke-linejoin="round" d="M 552.678,72.423L 552.678,68.97L 525.758,68.97L 525.758,72.423L 534.138,72.423L 537.794,79.7868L 537.794,100.264L 540.794,100.264L 540.794,78.8887L 537.931,72.423L 552.678,72.423 Z "/>
	</g>
	<g>
		<path fill="#ECE5D3" fill-opacity="1" stroke-width="0.2" stroke-linejoin="round" d="M 121.459,158.238L 116.298,158.238C 114.942,158.237 113.994,158.47 113.454,158.937C 112.914,159.404 112.655,160.109 112.676,161.052L 112.676,161.379C 112.658,162.287 112.896,162.981 113.391,163.464C 113.886,163.946 114.749,164.189 115.978,164.194L 118.917,164.194C 119.738,164.197 120.323,164.345 120.674,164.635C 121.024,164.926 121.195,165.337 121.186,165.868L 121.186,166.504C 121.195,167.035 121.024,167.449 120.674,167.744C 120.323,168.039 119.738,168.189 118.917,168.194L 112.524,168.194L 112.524,169.251L 118.597,169.251C 119.954,169.254 120.902,169.015 121.442,168.533C 121.981,168.05 122.241,167.301 122.219,166.287L 122.219,166.101C 122.238,165.121 121.999,164.383 121.504,163.885C 121.009,163.387 120.147,163.138 118.917,163.137L 115.978,163.137C 115.158,163.13 114.572,162.988 114.222,162.713C 113.871,162.437 113.7,162.071 113.71,161.612L 113.71,160.834C 113.7,160.376 113.871,160.006 114.222,159.726C 114.572,159.446 115.158,159.302 115.978,159.295L 121.459,159.295L 121.459,158.238 Z "/>
		<path fill="#ECE5D3" fill-opacity="1" stroke-width="0.2" stroke-linejoin="round" d="M 123.313,166.732C 123.318,167.529 123.527,168.146 123.942,168.584C 124.356,169.022 124.948,169.245 125.718,169.251L 128.628,169.251C 129.397,169.245 129.99,169.022 130.404,168.584C 130.819,168.146 131.028,167.529 131.033,166.732L 131.033,161.384L 129.999,161.384L 129.999,166.763C 130.012,167.73 129.55,168.207 128.612,168.194L 125.733,168.194C 124.796,168.207 124.334,167.73 124.347,166.763L 124.347,161.384L 123.313,161.384L 123.313,166.732 Z "/>
		<path fill="#ECE5D3" fill-opacity="1" stroke-width="0.2" stroke-linejoin="round" d="M 132.583,161.398L 132.583,172.095L 133.616,172.095L 133.616,168.893C 133.982,169.131 134.438,169.251 134.984,169.251L 137.901,169.251C 138.669,169.244 139.26,169.023 139.674,168.588C 140.088,168.152 140.297,167.543 140.302,166.759L 140.302,163.89C 140.297,163.106 140.088,162.497 139.674,162.061C 139.26,161.626 138.669,161.405 137.901,161.398L 132.583,161.398 Z M 133.616,162.455L 137.886,162.455C 138.82,162.443 139.281,162.911 139.269,163.859L 139.269,166.79C 139.281,167.738 138.82,168.207 137.886,168.194L 134.999,168.194C 134.064,168.207 133.603,167.738 133.616,166.79L 133.616,162.455 Z "/>
		<path fill="#ECE5D3" fill-opacity="1" stroke-width="0.2" stroke-linejoin="round" d="M 141.7,161.398L 141.7,172.095L 142.733,172.095L 142.733,168.893C 143.099,169.131 143.555,169.251 144.101,169.251L 147.018,169.251C 147.786,169.244 148.377,169.023 148.791,168.588C 149.205,168.152 149.415,167.543 149.419,166.759L 149.419,163.89C 149.415,163.106 149.205,162.497 148.791,162.061C 148.377,161.626 147.786,161.405 147.018,161.398L 141.7,161.398 Z M 142.733,162.455L 147.003,162.455C 147.938,162.443 148.399,162.911 148.386,163.859L 148.386,166.79C 148.399,167.738 147.938,168.207 147.003,168.194L 144.116,168.194C 143.182,168.207 142.721,167.738 142.733,166.79L 142.733,162.455 Z "/>
		<rect x="150.817" y="158.223" fill="#ECE5D3" fill-opacity="1" stroke-width="0.2" stroke-linejoin="round" width="1.03337" height="11.0425"/>
		<path fill="#ECE5D3" fill-opacity="1" stroke-width="0.2" stroke-linejoin="round" d="M 156.613,169.195L 156.46,169.523C 156.267,169.996 156.07,170.366 155.868,170.632C 155.665,170.898 155.334,171.034 154.875,171.038L 153.563,171.038L 153.548,172.095L 154.89,172.095C 155.631,172.081 156.184,171.838 156.546,171.366C 156.908,170.894 157.251,170.279 157.573,169.523L 161.415,161.384L 160.272,161.384L 157.177,168.007L 154.097,161.384L 152.953,161.384L 156.613,169.195 Z "/>
		<path fill="#ECE5D3" fill-opacity="1" stroke-width="0.2" stroke-linejoin="round" d="M 173.566,168.194L 168.748,168.194C 167.804,168.207 167.338,167.738 167.35,166.79L 167.35,163.859C 167.338,162.911 167.804,162.443 168.748,162.455L 173.566,162.455L 173.566,161.398L 168.733,161.398C 167.958,161.405 167.363,161.626 166.947,162.061C 166.531,162.497 166.321,163.106 166.317,163.89L 166.317,166.759C 166.321,167.543 166.531,168.152 166.947,168.588C 167.363,169.023 167.958,169.244 168.733,169.251L 173.566,169.251L 173.566,168.194 Z "/>
		<path fill="#ECE5D3" fill-opacity="1" stroke-width="0.2" stroke-linejoin="round" d="M 174.523,166.759C 174.528,167.543 174.736,168.152 175.148,168.588C 175.561,169.023 176.146,169.244 176.906,169.251L 180.466,169.251C 181.226,169.244 181.812,169.023 182.224,168.588C 182.636,168.152 182.845,167.543 182.85,166.759L 182.85,163.89C 182.845,163.106 182.636,162.497 182.224,162.061C 181.812,161.626 181.226,161.405 180.466,161.398L 176.906,161.398C 176.146,161.405 175.561,161.626 175.148,162.061C 174.736,162.497 174.528,163.106 174.523,163.89L 174.523,166.759 Z M 181.816,166.79C 181.829,167.738 181.374,168.207 180.451,168.194L 176.921,168.194C 175.998,168.207 175.544,167.738 175.556,166.79L 175.556,163.859C 175.544,162.911 175.998,162.443 176.921,162.455L 180.451,162.455C 181.374,162.443 181.829,162.911 181.816,163.859L 181.816,166.79 Z "/>
		<path fill="#ECE5D3" fill-opacity="1" stroke-width="0.2" stroke-linejoin="round" d="M 184.096,166.759C 184.101,167.543 184.309,168.152 184.722,168.588C 185.134,169.023 185.72,169.244 186.479,169.251L 190.04,169.251C 190.799,169.244 191.385,169.023 191.797,168.588C 192.209,168.152 192.418,167.543 192.423,166.759L 192.423,163.89C 192.418,163.106 192.209,162.497 191.797,162.061C 191.385,161.626 190.799,161.405 190.04,161.398L 186.479,161.398C 185.72,161.405 185.134,161.626 184.722,162.061C 184.309,162.497 184.101,163.106 184.096,163.89L 184.096,166.759 Z M 191.39,166.79C 191.402,167.738 190.947,168.207 190.025,168.194L 186.494,168.194C 185.572,168.207 185.117,167.738 185.129,166.79L 185.129,163.859C 185.117,162.911 185.572,162.443 186.494,162.455L 190.025,162.455C 190.947,162.443 191.402,162.911 191.39,163.859L 191.39,166.79 Z "/>
		<rect x="193.821" y="158.223" fill="#ECE5D3" fill-opacity="1" stroke-width="0.2" stroke-linejoin="round" width="1.03337" height="11.0425"/>
		<path fill="#ECE5D3" fill-opacity="1" stroke-width="0.2" stroke-linejoin="round" d="M 203.67,168.194L 198.887,168.194C 198.419,168.199 198.061,168.097 197.813,167.89C 197.565,167.683 197.44,167.341 197.438,166.864L 197.438,165.915L 201.593,165.932C 202.35,165.914 202.935,165.711 203.346,165.323C 203.758,164.936 203.967,164.47 203.972,163.928L 203.972,163.388C 203.967,162.845 203.758,162.382 203.346,161.999C 202.935,161.616 202.35,161.416 201.593,161.398L 198.783,161.398C 198.026,161.406 197.441,161.625 197.03,162.053C 196.618,162.482 196.409,163.073 196.404,163.826L 196.404,166.757C 196.409,167.542 196.618,168.152 197.03,168.587C 197.441,169.023 198.026,169.244 198.783,169.251L 203.67,169.251L 203.67,168.194 Z M 197.438,163.796C 197.425,162.89 197.879,162.443 198.798,162.455L 201.578,162.455C 202.042,162.463 202.385,162.553 202.607,162.727C 202.83,162.9 202.94,163.111 202.938,163.359L 202.938,163.957C 202.94,164.205 202.83,164.419 202.607,164.596C 202.385,164.774 202.042,164.867 201.578,164.875L 197.438,164.861L 197.438,163.796 Z "/>
		<path fill="#ECE5D3" fill-opacity="1" stroke-width="0.2" stroke-linejoin="round" d="M 206.555,169.265L 206.555,163.886C 206.542,162.919 207.008,162.442 207.953,162.455L 211.296,162.455L 211.312,161.398L 207.938,161.398C 207.163,161.405 206.567,161.627 206.152,162.065C 205.736,162.503 205.526,163.12 205.522,163.917L 205.522,169.265L 206.555,169.265 Z "/>
		<path fill="#ECE5D3" fill-opacity="1" stroke-width="0.2" stroke-linejoin="round" d="M 223.103,168.194L 218.286,168.194C 217.341,168.207 216.875,167.738 216.888,166.79L 216.888,163.859C 216.875,162.911 217.341,162.443 218.286,162.455L 223.103,162.455L 223.103,161.398L 218.271,161.398C 217.496,161.405 216.9,161.626 216.485,162.061C 216.069,162.497 215.859,163.106 215.855,163.89L 215.855,166.759C 215.859,167.543 216.069,168.152 216.485,168.588C 216.9,169.023 217.496,169.244 218.271,169.251L 223.103,169.251L 223.103,168.194 Z "/>
		<path fill="#ECE5D3" fill-opacity="1" stroke-width="0.2" stroke-linejoin="round" d="M 224.06,166.759C 224.065,167.543 224.274,168.152 224.686,168.588C 225.098,169.023 225.684,169.244 226.444,169.251L 230.004,169.251C 230.764,169.244 231.35,169.023 231.762,168.588C 232.174,168.152 232.383,167.543 232.388,166.759L 232.388,163.89C 232.383,163.106 232.174,162.497 231.762,162.061C 231.35,161.626 230.764,161.405 230.004,161.398L 226.444,161.398C 225.684,161.405 225.098,161.626 224.686,162.061C 224.274,162.497 224.065,163.106 224.06,163.89L 224.06,166.759 Z M 231.354,166.79C 231.367,167.738 230.911,168.207 229.989,168.194L 226.458,168.194C 225.536,168.207 225.081,167.738 225.094,166.79L 225.094,163.859C 225.081,162.911 225.536,162.443 226.458,162.455L 229.989,162.455C 230.911,162.443 231.367,162.911 231.354,163.859L 231.354,166.79 Z "/>
		<path fill="#ECE5D3" fill-opacity="1" stroke-width="0.2" stroke-linejoin="round" d="M 233.634,166.759C 233.639,167.543 233.847,168.152 234.259,168.588C 234.672,169.023 235.257,169.244 236.017,169.251L 239.577,169.251C 240.337,169.244 240.923,169.023 241.335,168.588C 241.747,168.152 241.956,167.543 241.961,166.759L 241.961,163.89C 241.956,163.106 241.747,162.497 241.335,162.061C 240.923,161.626 240.337,161.405 239.577,161.398L 236.017,161.398C 235.257,161.405 234.672,161.626 234.259,162.061C 233.847,162.497 233.639,163.106 233.634,163.89L 233.634,166.759 Z M 240.927,166.79C 240.94,167.738 240.485,168.207 239.562,168.194L 236.032,168.194C 235.109,168.207 234.655,167.738 234.667,166.79L 234.667,163.859C 234.655,162.911 235.109,162.443 236.032,162.455L 239.562,162.455C 240.485,162.443 240.94,162.911 240.927,163.859L 240.927,166.79 Z "/>
		<rect x="243.359" y="158.223" fill="#ECE5D3" fill-opacity="1" stroke-width="0.2" stroke-linejoin="round" width="1.03337" height="11.0425"/>
		<path fill="#ECE5D3" fill-opacity="1" stroke-width="0.2" stroke-linejoin="round" d="M 248.032,161.398C 247.268,161.414 246.679,161.617 246.265,162.007C 245.852,162.397 245.643,162.88 245.638,163.455L 245.638,163.845C 245.643,164.412 245.852,164.878 246.265,165.245C 246.679,165.611 247.268,165.798 248.032,165.804L 248.047,165.804L 249.498,165.789L 250.948,165.789C 251.418,165.797 251.765,165.892 251.989,166.074C 252.214,166.256 252.326,166.475 252.324,166.73L 252.324,167.268C 252.326,167.522 252.214,167.738 251.989,167.916C 251.765,168.093 251.418,168.186 250.948,168.194L 245.486,168.194L 245.486,169.251L 250.963,169.251C 251.728,169.234 252.317,169.033 252.73,168.647C 253.144,168.262 253.353,167.792 253.358,167.238L 253.358,166.76C 253.353,166.214 253.144,165.76 252.73,165.398C 252.317,165.036 251.728,164.851 250.963,164.845L 248.047,164.86C 247.578,164.852 247.231,164.752 247.006,164.562C 246.781,164.371 246.67,164.143 246.672,163.876L 246.672,163.424C 246.67,163.158 246.781,162.932 247.006,162.746C 247.231,162.56 247.578,162.463 248.047,162.455L 253.04,162.455L 253.04,161.398L 248.032,161.398 Z "/>
		<path fill="#ECE5D3" fill-opacity="1" stroke-width="0.2" stroke-linejoin="round" d="M 258.402,166.759C 258.407,167.543 258.617,168.152 259.032,168.588C 259.448,169.023 260.043,169.244 260.819,169.251L 263.144,169.251L 263.129,168.194L 260.834,168.194C 259.889,168.207 259.423,167.738 259.436,166.79L 259.436,162.455L 261.715,162.455L 261.715,161.398L 259.436,161.398L 259.436,159.028L 258.402,159.028L 258.402,166.759 Z "/>
		<path fill="#ECE5D3" fill-opacity="1" stroke-width="0.2" stroke-linejoin="round" d="M 263.873,166.759C 263.878,167.543 264.087,168.152 264.499,168.588C 264.911,169.023 265.497,169.244 266.256,169.251L 269.817,169.251C 270.576,169.244 271.162,169.023 271.574,168.588C 271.987,168.152 272.195,167.543 272.2,166.759L 272.2,163.89C 272.195,163.106 271.987,162.497 271.574,162.061C 271.162,161.626 270.576,161.405 269.817,161.398L 266.256,161.398C 265.497,161.405 264.911,161.626 264.499,162.061C 264.087,162.497 263.878,163.106 263.873,163.89L 263.873,166.759 Z M 271.167,166.79C 271.179,167.738 270.724,168.207 269.802,168.194L 266.271,168.194C 265.349,168.207 264.894,167.738 264.906,166.79L 264.906,163.859C 264.894,162.911 265.349,162.443 266.271,162.455L 269.802,162.455C 270.724,162.443 271.179,162.911 271.167,163.859L 271.167,166.79 Z "/>
		<path fill="#ECE5D3" fill-opacity="1" stroke-width="0.2" stroke-linejoin="round" d="M 284.828,165.324L 283.46,165.324L 283.46,169.275L 282.092,169.275L 282.092,165.324L 277.078,165.324L 277.078,163.673L 282.149,157.739L 283.46,157.739L 283.46,164.06L 284.828,164.06L 284.828,165.324 Z M 282.092,164.06L 282.092,159.408L 278.116,164.06L 282.092,164.06 Z "/>
		<path fill="#ECE5D3" fill-opacity="1" stroke-width="0.2" stroke-linejoin="round" d="M 292.122,169.275L 286.803,169.275L 286.803,168.169L 288.779,168.169L 288.779,160.425L 286.803,160.425L 286.803,159.319C 287.547,159.319 288.095,159.209 288.447,158.988C 288.8,158.768 288.998,158.351 289.042,157.739L 290.146,157.739L 290.146,168.169L 292.122,168.169L 292.122,169.275 Z "/>
		<path fill="#ECE5D3" fill-opacity="1" stroke-width="0.2" stroke-linejoin="round" d="M 305.783,169.251L 305.783,158.223L 304.749,158.223L 304.749,161.756C 304.383,161.518 303.927,161.398 303.381,161.398L 300.465,161.398C 299.696,161.405 299.105,161.626 298.691,162.061C 298.277,162.497 298.068,163.106 298.063,163.89L 298.063,166.759C 298.068,167.543 298.277,168.152 298.691,168.588C 299.105,169.023 299.696,169.244 300.465,169.251L 305.783,169.251 Z M 304.749,168.194L 300.48,168.194C 299.545,168.207 299.084,167.738 299.096,166.79L 299.096,163.859C 299.084,162.911 299.545,162.443 300.48,162.455L 303.366,162.455C 304.301,162.443 304.762,162.911 304.749,163.859L 304.749,168.194 Z "/>
		<path fill="#ECE5D3" fill-opacity="1" stroke-width="0.2" stroke-linejoin="round" d="M 314.598,168.194L 309.815,168.194C 309.347,168.199 308.989,168.097 308.741,167.89C 308.493,167.683 308.368,167.341 308.366,166.864L 308.366,165.915L 312.521,165.932C 313.278,165.914 313.863,165.711 314.275,165.323C 314.686,164.936 314.895,164.47 314.9,163.928L 314.9,163.388C 314.895,162.845 314.686,162.382 314.275,161.999C 313.863,161.616 313.278,161.416 312.521,161.398L 309.711,161.398C 308.954,161.406 308.369,161.625 307.958,162.053C 307.546,162.482 307.338,163.073 307.332,163.826L 307.332,166.757C 307.338,167.542 307.546,168.152 307.958,168.587C 308.369,169.023 308.954,169.244 309.711,169.251L 314.598,169.251L 314.598,168.194 Z M 308.366,163.796C 308.353,162.89 308.807,162.443 309.726,162.455L 312.506,162.455C 312.97,162.463 313.313,162.553 313.536,162.727C 313.758,162.9 313.868,163.111 313.867,163.359L 313.867,163.957C 313.868,164.205 313.758,164.419 313.536,164.596C 313.313,164.774 312.97,164.867 312.506,164.875L 308.366,164.861L 308.366,163.796 Z "/>
		<path fill="#ECE5D3" fill-opacity="1" stroke-width="0.2" stroke-linejoin="round" d="M 324.169,161.398L 318.851,161.398C 318.083,161.405 317.492,161.626 317.078,162.061C 316.664,162.497 316.454,163.106 316.45,163.89L 316.45,166.759C 316.454,167.543 316.664,168.152 317.078,168.588C 317.492,169.023 318.083,169.244 318.851,169.251L 321.768,169.251C 322.314,169.251 322.77,169.131 323.136,168.893L 323.136,169.614C 323.148,170.566 322.688,171.041 321.753,171.038L 316.943,171.038L 316.927,172.095L 321.768,172.095C 322.536,172.088 323.127,171.868 323.541,171.434C 323.955,170.999 324.165,170.393 324.169,169.614L 324.169,161.398 Z M 323.136,162.455L 323.136,166.79C 323.148,167.738 322.688,168.207 321.753,168.194L 318.866,168.194C 317.932,168.207 317.471,167.738 317.483,166.79L 317.483,163.859C 317.471,162.911 317.932,162.443 318.866,162.455L 323.136,162.455 Z "/>
		<path fill="#ECE5D3" fill-opacity="1" stroke-width="0.2" stroke-linejoin="round" d="M 326.753,169.265L 326.753,163.886C 326.74,162.919 327.206,162.442 328.151,162.455L 331.494,162.455L 331.509,161.398L 328.135,161.398C 327.36,161.405 326.765,161.627 326.349,162.065C 325.933,162.503 325.723,163.12 325.719,163.917L 325.719,169.265L 326.753,169.265 Z "/>
		<path fill="#ECE5D3" fill-opacity="1" stroke-width="0.2" stroke-linejoin="round" d="M 339.519,168.194L 334.736,168.194C 334.268,168.199 333.91,168.097 333.662,167.89C 333.414,167.683 333.289,167.341 333.287,166.864L 333.287,165.915L 337.442,165.932C 338.199,165.914 338.784,165.711 339.195,165.323C 339.607,164.936 339.816,164.47 339.821,163.928L 339.821,163.388C 339.816,162.845 339.607,162.382 339.195,161.999C 338.784,161.616 338.199,161.416 337.442,161.398L 334.632,161.398C 333.875,161.406 333.29,161.625 332.879,162.053C 332.467,162.482 332.258,163.073 332.253,163.826L 332.253,166.757C 332.258,167.542 332.467,168.152 332.879,168.587C 333.29,169.023 333.875,169.244 334.632,169.251L 339.519,169.251L 339.519,168.194 Z M 333.287,163.796C 333.274,162.89 333.728,162.443 334.647,162.455L 337.427,162.455C 337.891,162.463 338.234,162.553 338.456,162.727C 338.679,162.9 338.789,163.111 338.787,163.359L 338.787,163.957C 338.789,164.205 338.679,164.419 338.456,164.596C 338.234,164.774 337.891,164.867 337.427,164.875L 333.287,164.861L 333.287,163.796 Z "/>
		<path fill="#ECE5D3" fill-opacity="1" stroke-width="0.2" stroke-linejoin="round" d="M 348.636,168.194L 343.853,168.194C 343.385,168.199 343.027,168.097 342.779,167.89C 342.531,167.683 342.406,167.341 342.404,166.864L 342.404,165.915L 346.559,165.932C 347.316,165.914 347.901,165.711 348.313,165.323C 348.725,164.936 348.933,164.47 348.938,163.928L 348.938,163.388C 348.933,162.845 348.725,162.382 348.313,161.999C 347.901,161.616 347.316,161.416 346.559,161.398L 343.75,161.398C 342.992,161.406 342.408,161.625 341.996,162.053C 341.584,162.482 341.376,163.073 341.371,163.826L 341.371,166.757C 341.376,167.542 341.584,168.152 341.996,168.587C 342.408,169.023 342.992,169.244 343.75,169.251L 348.636,169.251L 348.636,168.194 Z M 342.404,163.796C 342.392,162.89 342.845,162.443 343.764,162.455L 346.544,162.455C 347.008,162.463 347.352,162.553 347.574,162.727C 347.796,162.9 347.906,163.111 347.905,163.359L 347.905,163.957C 347.906,164.205 347.796,164.419 347.574,164.596C 347.352,164.774 347.008,164.867 346.544,164.875L 342.404,164.861L 342.404,163.796 Z "/>
		<path fill="#ECE5D3" fill-opacity="1" stroke-width="0.2" stroke-linejoin="round" d="M 352.578,161.398C 351.814,161.414 351.225,161.617 350.811,162.007C 350.398,162.397 350.189,162.88 350.184,163.455L 350.184,163.845C 350.189,164.412 350.398,164.878 350.811,165.245C 351.225,165.611 351.814,165.798 352.578,165.804L 352.593,165.804L 354.044,165.789L 355.494,165.789C 355.964,165.797 356.311,165.892 356.535,166.074C 356.76,166.256 356.872,166.475 356.87,166.73L 356.87,167.268C 356.872,167.522 356.76,167.738 356.535,167.916C 356.311,168.093 355.964,168.186 355.494,168.194L 350.032,168.194L 350.032,169.251L 355.509,169.251C 356.274,169.234 356.863,169.033 357.276,168.647C 357.69,168.262 357.899,167.792 357.904,167.238L 357.904,166.76C 357.899,166.214 357.69,165.76 357.276,165.398C 356.863,165.036 356.274,164.851 355.509,164.845L 352.593,164.86C 352.124,164.852 351.777,164.752 351.552,164.562C 351.327,164.371 351.216,164.143 351.217,163.876L 351.217,163.424C 351.216,163.158 351.327,162.932 351.552,162.746C 351.777,162.56 352.124,162.463 352.593,162.455L 357.586,162.455L 357.586,161.398L 352.578,161.398 Z "/>
		<path fill="#ECE5D3" fill-opacity="1" stroke-width="0.2" stroke-linejoin="round" d="M 363.424,162.455L 368.876,162.455C 369.799,162.442 370.255,162.911 370.242,163.861L 370.242,164.734L 365.029,164.717C 364.269,164.735 363.683,164.938 363.271,165.326C 362.858,165.713 362.65,166.179 362.645,166.722L 362.645,167.261C 362.65,167.804 362.858,168.267 363.271,168.65C 363.683,169.033 364.269,169.233 365.029,169.251L 368.891,169.251C 369.651,169.243 370.237,169.024 370.65,168.596C 371.062,168.167 371.271,167.576 371.276,166.824L 371.276,163.892C 371.271,163.107 371.062,162.497 370.65,162.062C 370.237,161.626 369.651,161.405 368.891,161.398L 363.424,161.398L 363.424,162.455 Z M 370.242,166.853C 370.255,167.759 369.799,168.206 368.876,168.194L 365.044,168.194C 364.578,168.186 364.233,168.096 364.01,167.922C 363.787,167.749 363.676,167.538 363.678,167.29L 363.678,166.692C 363.676,166.444 363.787,166.23 364.01,166.053C 364.233,165.875 364.578,165.782 365.044,165.774L 370.242,165.789L 370.242,166.853 Z "/>
		<path fill="#ECE5D3" fill-opacity="1" stroke-width="0.2" stroke-linejoin="round" d="M 373.555,169.265L 373.555,163.886C 373.543,162.919 374.005,162.442 374.942,162.455L 377.821,162.455C 378.758,162.442 379.22,162.919 379.208,163.886L 379.208,169.265L 380.241,169.265L 380.241,163.917C 380.237,163.12 380.027,162.503 379.613,162.065C 379.198,161.627 378.606,161.405 377.836,161.398L 374.927,161.398C 374.157,161.405 373.565,161.627 373.15,162.065C 372.736,162.503 372.526,163.12 372.522,163.917L 372.522,169.265L 373.555,169.265 Z "/>
		<path fill="#ECE5D3" fill-opacity="1" stroke-width="0.2" stroke-linejoin="round" d="M 389.359,169.251L 389.359,158.223L 388.325,158.223L 388.325,161.756C 387.959,161.518 387.504,161.398 386.957,161.398L 384.041,161.398C 383.272,161.405 382.681,161.626 382.267,162.061C 381.853,162.497 381.644,163.106 381.639,163.89L 381.639,166.759C 381.644,167.543 381.853,168.152 382.267,168.588C 382.681,169.023 383.272,169.244 384.041,169.251L 389.359,169.251 Z M 388.325,168.194L 384.056,168.194C 383.121,168.207 382.66,167.738 382.672,166.79L 382.672,163.859C 382.66,162.911 383.121,162.443 384.056,162.455L 386.942,162.455C 387.877,162.443 388.338,162.911 388.325,163.859L 388.325,168.194 Z "/>
		<path fill="#ECE5D3" fill-opacity="1" stroke-width="0.2" stroke-linejoin="round" d="M 395.334,162.455L 400.787,162.455C 401.71,162.442 402.166,162.911 402.153,163.861L 402.153,164.734L 396.94,164.717C 396.18,164.735 395.594,164.938 395.181,165.326C 394.769,165.713 394.56,166.179 394.555,166.722L 394.555,167.261C 394.56,167.804 394.769,168.267 395.181,168.65C 395.594,169.033 396.18,169.233 396.94,169.251L 400.802,169.251C 401.562,169.243 402.148,169.024 402.561,168.596C 402.973,168.167 403.182,167.576 403.187,166.824L 403.187,163.892C 403.182,163.107 402.973,162.497 402.561,162.062C 402.148,161.626 401.562,161.405 400.802,161.398L 395.334,161.398L 395.334,162.455 Z M 402.153,166.853C 402.166,167.759 401.71,168.206 400.787,168.194L 396.955,168.194C 396.489,168.186 396.144,168.096 395.921,167.922C 395.698,167.749 395.587,167.538 395.589,167.29L 395.589,166.692C 395.587,166.444 395.698,166.23 395.921,166.053C 396.144,165.875 396.489,165.782 396.955,165.774L 402.153,165.789L 402.153,166.853 Z "/>
		<path fill="#ECE5D3" fill-opacity="1" stroke-width="0.2" stroke-linejoin="round" d="M 404.585,169.251L 409.903,169.251C 410.671,169.244 411.262,169.023 411.676,168.588C 412.09,168.152 412.299,167.543 412.304,166.759L 412.304,163.89C 412.299,163.106 412.09,162.497 411.676,162.061C 411.262,161.626 410.671,161.405 409.903,161.398L 406.986,161.398C 406.44,161.398 405.984,161.518 405.618,161.756L 405.618,158.223L 404.585,158.223L 404.585,169.251 Z M 405.618,168.194L 405.618,163.859C 405.605,162.911 406.066,162.443 407.001,162.455L 409.888,162.455C 410.822,162.443 411.283,162.911 411.271,163.859L 411.271,166.79C 411.283,167.738 410.822,168.207 409.888,168.194L 405.618,168.194 Z "/>
		<path fill="#ECE5D3" fill-opacity="1" stroke-width="0.2" stroke-linejoin="round" d="M 413.55,166.759C 413.555,167.543 413.764,168.152 414.176,168.588C 414.588,169.023 415.174,169.244 415.933,169.251L 419.494,169.251C 420.253,169.244 420.839,169.023 421.251,168.588C 421.664,168.152 421.872,167.543 421.877,166.759L 421.877,163.89C 421.872,163.106 421.664,162.497 421.251,162.061C 420.839,161.626 420.253,161.405 419.494,161.398L 415.933,161.398C 415.174,161.405 414.588,161.626 414.176,162.061C 413.764,162.497 413.555,163.106 413.55,163.89L 413.55,166.759 Z M 420.844,166.79C 420.856,167.738 420.401,168.207 419.479,168.194L 415.948,168.194C 415.026,168.207 414.571,167.738 414.583,166.79L 414.583,163.859C 414.571,162.911 415.026,162.443 415.948,162.455L 419.479,162.455C 420.401,162.443 420.856,162.911 420.844,163.859L 420.844,166.79 Z "/>
		<path fill="#ECE5D3" fill-opacity="1" stroke-width="0.2" stroke-linejoin="round" d="M 426.432,169.252L 427.533,169.252L 431.152,161.384L 430.021,161.384L 426.99,168.035L 423.944,161.384L 422.814,161.384L 426.432,169.252 Z "/>
		<path fill="#ECE5D3" fill-opacity="1" stroke-width="0.2" stroke-linejoin="round" d="M 439.506,168.194L 434.723,168.194C 434.255,168.199 433.897,168.097 433.649,167.89C 433.401,167.683 433.276,167.341 433.274,166.864L 433.274,165.915L 437.429,165.932C 438.186,165.914 438.771,165.711 439.183,165.323C 439.595,164.936 439.803,164.47 439.808,163.928L 439.808,163.388C 439.803,162.845 439.595,162.382 439.183,161.999C 438.771,161.616 438.186,161.416 437.429,161.398L 434.62,161.398C 433.862,161.406 433.278,161.625 432.866,162.053C 432.454,162.482 432.246,163.073 432.241,163.826L 432.241,166.757C 432.246,167.542 432.454,168.152 432.866,168.587C 433.278,169.023 433.862,169.244 434.62,169.251L 439.506,169.251L 439.506,168.194 Z M 433.274,163.796C 433.262,162.89 433.715,162.443 434.634,162.455L 437.414,162.455C 437.878,162.463 438.222,162.553 438.444,162.727C 438.666,162.9 438.776,163.111 438.775,163.359L 438.775,163.957C 438.776,164.205 438.666,164.419 438.444,164.596C 438.222,164.774 437.878,164.867 437.414,164.875L 433.274,164.861L 433.274,163.796 Z "/>
		<rect x="441.951" y="167.063" fill="#ECE5D3" fill-opacity="1" stroke-width="0.2" stroke-linejoin="round" width="1.82349" height="2.21246"/>
		<path fill="#ECE5D3" fill-opacity="1" stroke-width="0.2" stroke-linejoin="round" d="M 112.98,189.02L 114.014,189.02L 114.014,184.264L 119.353,184.264C 120.711,184.261 121.661,184.035 122.201,183.585C 122.741,183.135 123,182.479 122.979,181.615L 122.979,180.641C 123,179.777 122.741,179.12 122.201,178.671C 121.661,178.221 120.711,177.995 119.353,177.992L 112.98,177.992L 112.98,189.02 Z M 114.014,183.207L 114.014,179.049L 119.673,179.049C 120.495,179.05 121.082,179.206 121.433,179.516C 121.784,179.827 121.955,180.284 121.946,180.888L 121.946,181.383C 121.955,181.986 121.784,182.441 121.433,182.747C 121.082,183.053 120.495,183.206 119.673,183.207L 114.014,183.207 Z "/>
		<rect x="124.225" y="177.977" fill="#ECE5D3" fill-opacity="1" stroke-width="0.2" stroke-linejoin="round" width="1.03336" height="11.0426"/>
		<path fill="#ECE5D3" fill-opacity="1" stroke-width="0.2" stroke-linejoin="round" d="M 134.074,187.948L 129.291,187.948C 128.823,187.953 128.465,187.851 128.217,187.644C 127.969,187.437 127.844,187.095 127.842,186.618L 127.842,185.669L 131.997,185.686C 132.754,185.668 133.339,185.465 133.75,185.078C 134.162,184.69 134.371,184.224 134.376,183.682L 134.376,183.142C 134.371,182.599 134.162,182.136 133.75,181.753C 133.339,181.37 132.754,181.17 131.997,181.152L 129.187,181.152C 128.43,181.16 127.845,181.379 127.434,181.807C 127.022,182.236 126.813,182.827 126.808,183.58L 126.808,186.511C 126.813,187.296 127.022,187.906 127.434,188.341C 127.845,188.777 128.43,188.998 129.187,189.005L 134.074,189.005L 134.074,187.948 Z M 127.842,183.551C 127.829,182.644 128.283,182.197 129.202,182.209L 131.982,182.209C 132.446,182.217 132.789,182.307 133.011,182.481C 133.234,182.654 133.344,182.865 133.342,183.113L 133.342,183.711C 133.344,183.96 133.234,184.173 133.011,184.35C 132.789,184.528 132.446,184.621 131.982,184.629L 127.842,184.615L 127.842,183.551 Z "/>
		<path fill="#ECE5D3" fill-opacity="1" stroke-width="0.2" stroke-linejoin="round" d="M 136.401,182.209L 141.853,182.209C 142.776,182.197 143.232,182.665 143.22,183.615L 143.22,184.488L 138.007,184.471C 137.246,184.489 136.66,184.692 136.248,185.08C 135.835,185.467 135.627,185.933 135.622,186.476L 135.622,187.015C 135.627,187.558 135.835,188.021 136.248,188.404C 136.66,188.787 137.246,188.988 138.007,189.005L 141.868,189.005C 142.628,188.997 143.214,188.778 143.627,188.35C 144.039,187.921 144.248,187.33 144.253,186.578L 144.253,183.646C 144.248,182.861 144.039,182.251 143.627,181.816C 143.214,181.38 142.628,181.159 141.868,181.152L 136.401,181.152L 136.401,182.209 Z M 143.22,186.607C 143.232,187.513 142.776,187.96 141.853,187.948L 138.021,187.948C 137.555,187.94 137.21,187.85 136.987,187.676C 136.764,187.503 136.654,187.292 136.655,187.044L 136.655,186.446C 136.654,186.198 136.764,185.985 136.987,185.807C 137.21,185.629 137.555,185.536 138.021,185.528L 143.22,185.543L 143.22,186.607 Z "/>
		<path fill="#ECE5D3" fill-opacity="1" stroke-width="0.2" stroke-linejoin="round" d="M 147.741,181.152C 146.976,181.168 146.387,181.371 145.974,181.761C 145.561,182.151 145.352,182.634 145.347,183.209L 145.347,183.599C 145.352,184.166 145.561,184.632 145.974,184.999C 146.387,185.366 146.976,185.552 147.741,185.558L 147.756,185.558L 149.206,185.543L 150.657,185.543C 151.126,185.551 151.473,185.646 151.698,185.828C 151.923,186.011 152.035,186.229 152.033,186.484L 152.033,187.022C 152.035,187.276 151.923,187.492 151.698,187.67C 151.473,187.847 151.126,187.94 150.657,187.948L 145.195,187.948L 145.195,189.005L 150.672,189.005C 151.437,188.988 152.026,188.787 152.439,188.402C 152.853,188.016 153.062,187.546 153.066,186.992L 153.066,186.514C 153.062,185.968 152.853,185.514 152.439,185.152C 152.026,184.79 151.437,184.605 150.672,184.599L 147.756,184.614C 147.287,184.606 146.939,184.506 146.715,184.316C 146.49,184.125 146.379,183.897 146.38,183.631L 146.38,183.178C 146.379,182.912 146.49,182.686 146.715,182.5C 146.939,182.314 147.287,182.217 147.756,182.209L 152.748,182.209L 152.748,181.152L 147.741,181.152 Z "/>
		<path fill="#ECE5D3" fill-opacity="1" stroke-width="0.2" stroke-linejoin="round" d="M 161.426,187.948L 156.643,187.948C 156.175,187.953 155.817,187.851 155.569,187.644C 155.321,187.437 155.196,187.095 155.194,186.618L 155.194,185.669L 159.349,185.686C 160.106,185.668 160.691,185.465 161.103,185.078C 161.514,184.69 161.723,184.224 161.728,183.682L 161.728,183.142C 161.723,182.599 161.514,182.136 161.103,181.753C 160.691,181.37 160.106,181.17 159.349,181.152L 156.539,181.152C 155.782,181.16 155.197,181.379 154.786,181.807C 154.374,182.236 154.165,182.827 154.16,183.58L 154.16,186.511C 154.165,187.296 154.374,187.906 154.786,188.341C 155.197,188.777 155.782,188.998 156.539,189.005L 161.426,189.005L 161.426,187.948 Z M 155.194,183.551C 155.181,182.644 155.635,182.197 156.554,182.209L 159.334,182.209C 159.798,182.217 160.141,182.307 160.364,182.481C 160.586,182.654 160.696,182.865 160.695,183.113L 160.695,183.711C 160.696,183.96 160.586,184.173 160.364,184.35C 160.141,184.528 159.798,184.621 159.334,184.629L 155.194,184.615L 155.194,183.551 Z "/>
		<path fill="#ECE5D3" fill-opacity="1" stroke-width="0.2" stroke-linejoin="round" d="M 174.325,187.948L 169.508,187.948C 168.563,187.961 168.097,187.493 168.11,186.544L 168.11,183.614C 168.097,182.665 168.563,182.197 169.508,182.209L 174.325,182.209L 174.325,181.152L 169.493,181.152C 168.718,181.159 168.122,181.38 167.707,181.815C 167.291,182.251 167.081,182.86 167.077,183.644L 167.077,186.513C 167.081,187.297 167.291,187.906 167.707,188.342C 168.122,188.777 168.718,188.998 169.493,189.005L 174.325,189.005L 174.325,187.948 Z "/>
		<path fill="#ECE5D3" fill-opacity="1" stroke-width="0.2" stroke-linejoin="round" d="M 175.282,186.513C 175.287,187.297 175.496,187.906 175.908,188.342C 176.32,188.777 176.906,188.998 177.666,189.005L 181.226,189.005C 181.986,188.998 182.572,188.777 182.984,188.342C 183.396,187.906 183.605,187.297 183.61,186.513L 183.61,183.644C 183.605,182.86 183.396,182.251 182.984,181.815C 182.572,181.38 181.986,181.159 181.226,181.152L 177.666,181.152C 176.906,181.159 176.32,181.38 175.908,181.815C 175.496,182.251 175.287,182.86 175.282,183.644L 175.282,186.513 Z M 182.576,186.544C 182.589,187.493 182.133,187.961 181.211,187.948L 177.68,187.948C 176.758,187.961 176.303,187.493 176.316,186.544L 176.316,183.614C 176.303,182.665 176.758,182.197 177.68,182.209L 181.211,182.209C 182.133,182.197 182.589,182.665 182.576,183.614L 182.576,186.544 Z "/>
		<path fill="#ECE5D3" fill-opacity="1" stroke-width="0.2" stroke-linejoin="round" d="M 185.889,189.02L 185.889,183.64C 185.876,182.673 186.339,182.196 187.276,182.209L 190.155,182.209C 191.092,182.196 191.554,182.673 191.542,183.64L 191.542,189.02L 192.575,189.02L 192.575,183.671C 192.57,182.874 192.361,182.257 191.946,181.819C 191.532,181.381 190.94,181.159 190.17,181.152L 187.261,181.152C 186.491,181.159 185.899,181.381 185.484,181.819C 185.07,182.257 184.86,182.874 184.856,183.671L 184.856,189.02L 185.889,189.02 Z "/>
		<path fill="#ECE5D3" fill-opacity="1" stroke-width="0.2" stroke-linejoin="round" d="M 194.125,186.513C 194.129,187.297 194.339,187.906 194.755,188.342C 195.171,188.777 195.766,188.998 196.541,189.005L 198.866,189.005L 198.851,187.948L 196.556,187.948C 195.612,187.961 195.146,187.493 195.158,186.544L 195.158,182.209L 197.438,182.209L 197.438,181.152L 195.158,181.152L 195.158,178.782L 194.125,178.782L 194.125,186.513 Z "/>
		<path fill="#ECE5D3" fill-opacity="1" stroke-width="0.2" stroke-linejoin="round" d="M 200.222,182.209L 205.675,182.209C 206.598,182.197 207.054,182.665 207.041,183.615L 207.041,184.488L 201.828,184.471C 201.068,184.489 200.482,184.692 200.069,185.08C 199.657,185.467 199.448,185.933 199.443,186.476L 199.443,187.015C 199.448,187.558 199.657,188.021 200.069,188.404C 200.482,188.787 201.068,188.988 201.828,189.005L 205.689,189.005C 206.45,188.997 207.036,188.778 207.449,188.35C 207.861,187.921 208.07,187.33 208.075,186.578L 208.075,183.646C 208.07,182.861 207.861,182.251 207.449,181.816C 207.036,181.38 206.45,181.159 205.689,181.152L 200.222,181.152L 200.222,182.209 Z M 207.041,186.607C 207.054,187.513 206.598,187.96 205.675,187.948L 201.843,187.948C 201.377,187.94 201.032,187.85 200.809,187.676C 200.586,187.503 200.475,187.292 200.477,187.044L 200.477,186.446C 200.475,186.198 200.586,185.985 200.809,185.807C 201.032,185.629 201.377,185.536 201.843,185.528L 207.041,185.543L 207.041,186.607 Z "/>
		<path fill="#ECE5D3" fill-opacity="1" stroke-width="0.2" stroke-linejoin="round" d="M 216.569,187.948L 211.752,187.948C 210.807,187.961 210.341,187.493 210.354,186.544L 210.354,183.614C 210.341,182.665 210.807,182.197 211.752,182.209L 216.569,182.209L 216.569,181.152L 211.737,181.152C 210.962,181.159 210.366,181.38 209.951,181.815C 209.535,182.251 209.325,182.86 209.321,183.644L 209.321,186.513C 209.325,187.297 209.535,187.906 209.951,188.342C 210.366,188.777 210.962,188.998 211.737,189.005L 216.569,189.005L 216.569,187.948 Z "/>
		<path fill="#ECE5D3" fill-opacity="1" stroke-width="0.2" stroke-linejoin="round" d="M 217.678,186.513C 217.682,187.297 217.892,187.906 218.308,188.342C 218.724,188.777 219.319,188.998 220.094,189.005L 222.419,189.005L 222.404,187.948L 220.11,187.948C 219.165,187.961 218.699,187.493 218.712,186.544L 218.712,182.209L 220.991,182.209L 220.991,181.152L 218.712,181.152L 218.712,178.782L 217.678,178.782L 217.678,186.513 Z "/>
		<path fill="#ECE5D3" fill-opacity="1" stroke-width="0.2" stroke-linejoin="round" d="M 227.251,186.513C 227.256,187.297 227.466,187.906 227.881,188.342C 228.297,188.777 228.892,188.998 229.668,189.005L 231.993,189.005L 231.978,187.948L 229.683,187.948C 228.738,187.961 228.272,187.493 228.285,186.544L 228.285,182.209L 230.564,182.209L 230.564,181.152L 228.285,181.152L 228.285,178.782L 227.251,178.782L 227.251,186.513 Z "/>
		<path fill="#ECE5D3" fill-opacity="1" stroke-width="0.2" stroke-linejoin="round" d="M 232.874,189.02L 233.907,189.02L 233.907,183.64C 233.895,182.673 234.357,182.196 235.294,182.209L 238.173,182.209C 239.11,182.196 239.572,182.673 239.56,183.64L 239.56,189.02L 240.593,189.02L 240.593,183.671C 240.589,182.874 240.379,182.257 239.965,181.819C 239.55,181.381 238.958,181.159 238.188,181.152L 235.279,181.152C 234.731,181.152 234.274,181.272 233.907,181.51L 233.907,177.977L 232.874,177.977L 232.874,189.02 Z "/>
		<path fill="#ECE5D3" fill-opacity="1" stroke-width="0.2" stroke-linejoin="round" d="M 249.257,187.948L 244.474,187.948C 244.006,187.953 243.648,187.851 243.4,187.644C 243.152,187.437 243.027,187.095 243.025,186.618L 243.025,185.669L 247.179,185.686C 247.937,185.668 248.522,185.465 248.933,185.078C 249.345,184.69 249.554,184.224 249.559,183.682L 249.559,183.142C 249.554,182.599 249.345,182.136 248.933,181.753C 248.522,181.37 247.937,181.17 247.179,181.152L 244.37,181.152C 243.613,181.16 243.028,181.379 242.617,181.807C 242.205,182.236 241.996,182.827 241.991,183.58L 241.991,186.511C 241.996,187.296 242.205,187.906 242.617,188.341C 243.028,188.777 243.613,188.998 244.37,189.005L 249.257,189.005L 249.257,187.948 Z M 243.025,183.551C 243.012,182.644 243.466,182.197 244.385,182.209L 247.165,182.209C 247.629,182.217 247.972,182.307 248.194,182.481C 248.417,182.654 248.527,182.865 248.525,183.113L 248.525,183.711C 248.527,183.96 248.417,184.173 248.194,184.35C 247.972,184.528 247.629,184.621 247.165,184.629L 243.025,184.615L 243.025,183.551 Z "/>
		<path fill="#ECE5D3" fill-opacity="1" stroke-width="0.2" stroke-linejoin="round" d="M 263.691,177.992L 258.529,177.992C 257.173,177.991 256.225,178.224 255.685,178.691C 255.145,179.158 254.886,179.863 254.907,180.806L 254.907,181.133C 254.889,182.041 255.127,182.736 255.622,183.218C 256.117,183.7 256.98,183.943 258.21,183.948L 261.148,183.948C 261.969,183.952 262.555,184.099 262.905,184.389C 263.256,184.68 263.426,185.091 263.417,185.622L 263.417,186.258C 263.426,186.79 263.256,187.203 262.905,187.498C 262.555,187.793 261.969,187.943 261.148,187.948L 254.756,187.948L 254.756,189.005L 260.829,189.005C 262.185,189.009 263.133,188.769 263.673,188.287C 264.213,187.804 264.472,187.055 264.45,186.041L 264.45,185.855C 264.469,184.876 264.231,184.137 263.736,183.639C 263.241,183.142 262.378,182.892 261.148,182.891L 258.21,182.891C 257.389,182.884 256.803,182.742 256.453,182.467C 256.102,182.191 255.932,181.825 255.941,181.366L 255.941,180.589C 255.932,180.13 256.102,179.76 256.453,179.48C 256.803,179.2 257.389,179.056 258.21,179.049L 263.691,179.049L 263.691,177.992 Z "/>
		<path fill="#ECE5D3" fill-opacity="1" stroke-width="0.2" stroke-linejoin="round" d="M 272.962,187.948L 268.179,187.948C 267.711,187.953 267.353,187.851 267.105,187.644C 266.857,187.437 266.732,187.095 266.73,186.618L 266.73,185.669L 270.885,185.686C 271.642,185.668 272.227,185.465 272.639,185.078C 273.05,184.69 273.259,184.224 273.264,183.682L 273.264,183.142C 273.259,182.599 273.05,182.136 272.639,181.753C 272.227,181.37 271.642,181.17 270.885,181.152L 268.075,181.152C 267.318,181.16 266.733,181.379 266.322,181.807C 265.91,182.236 265.702,182.827 265.696,183.58L 265.696,186.511C 265.702,187.296 265.91,187.906 266.322,188.341C 266.733,188.777 267.318,188.998 268.075,189.005L 272.962,189.005L 272.962,187.948 Z M 266.73,183.551C 266.717,182.644 267.171,182.197 268.09,182.209L 270.87,182.209C 271.334,182.217 271.677,182.307 271.9,182.481C 272.122,182.654 272.232,182.865 272.231,183.113L 272.231,183.711C 272.232,183.96 272.122,184.173 271.9,184.35C 271.677,184.528 271.334,184.621 270.87,184.629L 266.73,184.615L 266.73,183.551 Z "/>
		<path fill="#ECE5D3" fill-opacity="1" stroke-width="0.2" stroke-linejoin="round" d="M 275.847,189.02L 275.847,183.64C 275.835,182.673 276.301,182.196 277.245,182.209L 280.588,182.209L 280.604,181.152L 277.23,181.152C 276.455,181.159 275.859,181.381 275.444,181.819C 275.028,182.257 274.818,182.874 274.814,183.671L 274.814,189.02L 275.847,189.02 Z "/>
		<path fill="#ECE5D3" fill-opacity="1" stroke-width="0.2" stroke-linejoin="round" d="M 284.505,189.006L 285.606,189.006L 289.225,181.138L 288.094,181.138L 285.063,187.789L 282.017,181.138L 280.886,181.138L 284.505,189.006 Z "/>
		<path fill="#ECE5D3" fill-opacity="1" stroke-width="0.2" stroke-linejoin="round" d="M 290.156,179.222L 291.352,179.222L 291.352,177.977L 290.156,177.977L 290.156,179.222 Z M 290.313,189.02L 291.347,189.02L 291.347,181.138L 290.313,181.138L 290.313,189.02 Z "/>
		<path fill="#ECE5D3" fill-opacity="1" stroke-width="0.2" stroke-linejoin="round" d="M 299.841,187.948L 295.024,187.948C 294.079,187.961 293.613,187.493 293.626,186.544L 293.626,183.614C 293.613,182.665 294.079,182.197 295.024,182.209L 299.841,182.209L 299.841,181.152L 295.009,181.152C 294.234,181.159 293.638,181.38 293.223,181.815C 292.807,182.251 292.597,182.86 292.593,183.644L 292.593,186.513C 292.597,187.297 292.807,187.906 293.223,188.342C 293.638,188.777 294.234,188.998 295.009,189.005L 299.841,189.005L 299.841,187.948 Z "/>
		<path fill="#ECE5D3" fill-opacity="1" stroke-width="0.2" stroke-linejoin="round" d="M 308.216,187.948L 303.433,187.948C 302.965,187.953 302.607,187.851 302.359,187.644C 302.111,187.437 301.986,187.095 301.984,186.618L 301.984,185.669L 306.139,185.686C 306.896,185.668 307.481,185.465 307.893,185.078C 308.304,184.69 308.513,184.224 308.518,183.682L 308.518,183.142C 308.513,182.599 308.304,182.136 307.893,181.753C 307.481,181.37 306.896,181.17 306.139,181.152L 303.329,181.152C 302.572,181.16 301.987,181.379 301.576,181.807C 301.164,182.236 300.955,182.827 300.95,183.58L 300.95,186.511C 300.955,187.296 301.164,187.906 301.576,188.341C 301.987,188.777 302.572,188.998 303.329,189.005L 308.216,189.005L 308.216,187.948 Z M 301.984,183.551C 301.971,182.644 302.425,182.197 303.344,182.209L 306.124,182.209C 306.588,182.217 306.931,182.307 307.153,182.481C 307.376,182.654 307.486,182.865 307.484,183.113L 307.484,183.711C 307.486,183.96 307.376,184.173 307.153,184.35C 306.931,184.528 306.588,184.621 306.124,184.629L 301.984,184.615L 301.984,183.551 Z "/>
		<path fill="#ECE5D3" fill-opacity="1" stroke-width="0.2" stroke-linejoin="round" d="M 314.171,189.005L 321.608,189.005C 322.966,189.025 323.915,188.753 324.455,188.187C 324.995,187.622 325.254,186.642 325.233,185.247L 325.233,181.749C 325.254,180.354 324.995,179.374 324.455,178.809C 323.915,178.244 322.966,177.971 321.608,177.992L 314.171,177.992L 314.171,189.005 Z M 315.204,187.948L 315.204,179.049L 321.928,179.049C 322.75,179.04 323.336,179.217 323.687,179.579C 324.038,179.941 324.209,180.54 324.2,181.374L 324.2,185.637C 324.209,186.471 324.038,187.067 323.687,187.425C 323.336,187.783 322.75,187.957 321.928,187.948L 315.204,187.948 Z "/>
		<path fill="#ECE5D3" fill-opacity="1" stroke-width="0.2" stroke-linejoin="round" d="M 334.048,187.948L 329.265,187.948C 328.797,187.953 328.439,187.851 328.191,187.644C 327.943,187.437 327.818,187.095 327.816,186.618L 327.816,185.669L 331.971,185.686C 332.729,185.668 333.313,185.465 333.725,185.078C 334.137,184.69 334.345,184.224 334.35,183.682L 334.35,183.142C 334.345,182.599 334.137,182.136 333.725,181.753C 333.313,181.37 332.729,181.17 331.971,181.152L 329.162,181.152C 328.404,181.16 327.82,181.379 327.408,181.807C 326.996,182.236 326.788,182.827 326.783,183.58L 326.783,186.511C 326.788,187.296 326.996,187.906 327.408,188.341C 327.82,188.777 328.404,188.998 329.162,189.005L 334.048,189.005L 334.048,187.948 Z M 327.816,183.551C 327.804,182.644 328.257,182.197 329.177,182.209L 331.956,182.209C 332.421,182.217 332.764,182.307 332.986,182.481C 333.208,182.654 333.319,182.865 333.317,183.113L 333.317,183.711C 333.319,183.96 333.208,184.173 332.986,184.35C 332.764,184.528 332.421,184.621 331.956,184.629L 327.816,184.615L 327.816,183.551 Z "/>
		<path fill="#ECE5D3" fill-opacity="1" stroke-width="0.2" stroke-linejoin="round" d="M 337.99,181.152C 337.226,181.168 336.637,181.371 336.224,181.761C 335.81,182.151 335.601,182.634 335.596,183.209L 335.596,183.599C 335.601,184.166 335.81,184.632 336.224,184.999C 336.637,185.366 337.226,185.552 337.99,185.558L 338.005,185.558L 339.456,185.543L 340.906,185.543C 341.376,185.551 341.723,185.646 341.948,185.828C 342.172,186.011 342.284,186.229 342.282,186.484L 342.282,187.022C 342.284,187.276 342.172,187.492 341.948,187.67C 341.723,187.847 341.376,187.94 340.906,187.948L 335.444,187.948L 335.444,189.005L 340.921,189.005C 341.686,188.988 342.275,188.787 342.689,188.402C 343.102,188.016 343.311,187.546 343.316,186.992L 343.316,186.514C 343.311,185.968 343.102,185.514 342.689,185.152C 342.275,184.79 341.686,184.605 340.921,184.599L 338.005,184.614C 337.536,184.606 337.189,184.506 336.964,184.316C 336.74,184.125 336.628,183.897 336.63,183.631L 336.63,183.178C 336.628,182.912 336.74,182.686 336.964,182.5C 337.189,182.314 337.536,182.217 338.005,182.209L 342.998,182.209L 342.998,181.152L 337.99,181.152 Z "/>
		<path fill="#ECE5D3" fill-opacity="1" stroke-width="0.2" stroke-linejoin="round" d="M 349.44,181.138L 345.443,184.275L 345.443,177.977L 344.41,177.977L 344.41,189.02L 345.443,189.02L 345.443,185.41L 349.805,189.02L 351.339,189.02L 346.309,184.827L 351.005,181.138L 349.44,181.138 Z "/>
		<path fill="#ECE5D3" fill-opacity="1" stroke-width="0.2" stroke-linejoin="round" d="M 357.144,189.02L 357.144,182.209L 359.423,182.209L 359.423,181.152L 357.144,181.152L 357.144,180.451C 357.131,179.503 357.597,179.036 358.542,179.049L 360.837,179.049L 360.852,177.992L 358.527,177.992C 357.751,177.999 357.156,178.219 356.74,178.655C 356.325,179.09 356.115,179.699 356.11,180.482L 356.11,189.02L 357.144,189.02 Z "/>
		<path fill="#ECE5D3" fill-opacity="1" stroke-width="0.2" stroke-linejoin="round" d="M 360.365,186.513C 360.37,187.297 360.579,187.906 360.991,188.342C 361.403,188.777 361.989,188.998 362.749,189.005L 366.309,189.005C 367.068,188.998 367.654,188.777 368.067,188.342C 368.479,187.906 368.688,187.297 368.692,186.513L 368.692,183.644C 368.688,182.86 368.479,182.251 368.067,181.815C 367.654,181.38 367.068,181.159 366.309,181.152L 362.749,181.152C 361.989,181.159 361.403,181.38 360.991,181.815C 360.579,182.251 360.37,182.86 360.365,183.644L 360.365,186.513 Z M 367.659,186.544C 367.671,187.493 367.216,187.961 366.294,187.948L 362.763,187.948C 361.841,187.961 361.386,187.493 361.399,186.544L 361.399,183.614C 361.386,182.665 361.841,182.197 362.763,182.209L 366.294,182.209C 367.216,182.197 367.671,182.665 367.659,183.614L 367.659,186.544 Z "/>
		<path fill="#ECE5D3" fill-opacity="1" stroke-width="0.2" stroke-linejoin="round" d="M 371.124,189.02L 371.124,183.64C 371.111,182.673 371.577,182.196 372.522,182.209L 375.865,182.209L 375.88,181.152L 372.507,181.152C 371.731,181.159 371.136,181.381 370.72,181.819C 370.305,182.257 370.095,182.874 370.09,183.671L 370.09,189.02L 371.124,189.02 Z "/>
		<path fill="#ECE5D3" fill-opacity="1" stroke-width="0.2" stroke-linejoin="round" d="M 381.051,182.209L 386.503,182.209C 387.426,182.197 387.882,182.665 387.869,183.615L 387.869,184.488L 382.656,184.471C 381.896,184.489 381.31,184.692 380.897,185.08C 380.485,185.467 380.276,185.933 380.271,186.476L 380.271,187.015C 380.276,187.558 380.485,188.021 380.897,188.404C 381.31,188.787 381.896,188.988 382.656,189.005L 386.518,189.005C 387.278,188.997 387.864,188.778 388.277,188.35C 388.689,187.921 388.898,187.33 388.903,186.578L 388.903,183.646C 388.898,182.861 388.689,182.251 388.277,181.816C 387.864,181.38 387.278,181.159 386.518,181.152L 381.051,181.152L 381.051,182.209 Z M 387.869,186.607C 387.882,187.513 387.426,187.96 386.503,187.948L 382.671,187.948C 382.205,187.94 381.86,187.85 381.637,187.676C 381.414,187.503 381.303,187.292 381.305,187.044L 381.305,186.446C 381.303,186.198 381.414,185.985 381.637,185.807C 381.86,185.629 382.205,185.536 382.671,185.528L 387.869,185.543L 387.869,186.607 Z "/>
		<path fill="#ECE5D3" fill-opacity="1" stroke-width="0.2" stroke-linejoin="round" d="M 392.391,181.152C 391.626,181.168 391.037,181.371 390.624,181.761C 390.211,182.151 390.001,182.634 389.997,183.209L 389.997,183.599C 390.001,184.166 390.211,184.632 390.624,184.999C 391.037,185.366 391.626,185.552 392.391,185.558L 392.406,185.558L 393.856,185.543L 395.307,185.543C 395.776,185.551 396.123,185.646 396.348,185.828C 396.573,186.011 396.684,186.229 396.683,186.484L 396.683,187.022C 396.684,187.276 396.573,187.492 396.348,187.67C 396.123,187.847 395.776,187.94 395.307,187.948L 389.845,187.948L 389.845,189.005L 395.322,189.005C 396.086,188.988 396.676,188.787 397.089,188.402C 397.502,188.016 397.711,187.546 397.716,186.992L 397.716,186.514C 397.711,185.968 397.502,185.514 397.089,185.152C 396.676,184.79 396.086,184.605 395.322,184.599L 392.406,184.614C 391.936,184.606 391.589,184.506 391.365,184.316C 391.14,184.125 391.029,183.897 391.03,183.631L 391.03,183.178C 391.029,182.912 391.14,182.686 391.365,182.5C 391.589,182.314 391.936,182.217 392.406,182.209L 397.398,182.209L 397.398,181.152L 392.391,181.152 Z "/>
		<path fill="#ECE5D3" fill-opacity="1" stroke-width="0.2" stroke-linejoin="round" d="M 400.9,181.152C 400.136,181.168 399.547,181.371 399.133,181.761C 398.72,182.151 398.511,182.634 398.506,183.209L 398.506,183.599C 398.511,184.166 398.72,184.632 399.133,184.999C 399.547,185.366 400.136,185.552 400.9,185.558L 400.915,185.558L 402.366,185.543L 403.816,185.543C 404.286,185.551 404.633,185.646 404.858,185.828C 405.082,186.011 405.194,186.229 405.192,186.484L 405.192,187.022C 405.194,187.276 405.082,187.492 404.858,187.67C 404.633,187.847 404.286,187.94 403.816,187.948L 398.354,187.948L 398.354,189.005L 403.831,189.005C 404.596,188.988 405.185,188.787 405.599,188.402C 406.012,188.016 406.221,187.546 406.226,186.992L 406.226,186.514C 406.221,185.968 406.012,185.514 405.599,185.152C 405.185,184.79 404.596,184.605 403.831,184.599L 400.915,184.614C 400.446,184.606 400.099,184.506 399.874,184.316C 399.65,184.125 399.538,183.897 399.54,183.631L 399.54,183.178C 399.538,182.912 399.65,182.686 399.874,182.5C 400.099,182.314 400.446,182.217 400.915,182.209L 405.908,182.209L 405.908,181.152L 400.9,181.152 Z "/>
		<path fill="#ECE5D3" fill-opacity="1" stroke-width="0.2" stroke-linejoin="round" d="M 407.162,179.222L 408.359,179.222L 408.359,177.977L 407.162,177.977L 407.162,179.222 Z M 407.32,189.02L 408.353,189.02L 408.353,181.138L 407.32,181.138L 407.32,189.02 Z "/>
		<path fill="#ECE5D3" fill-opacity="1" stroke-width="0.2" stroke-linejoin="round" d="M 411.841,181.152C 411.077,181.168 410.488,181.371 410.074,181.761C 409.661,182.151 409.452,182.634 409.447,183.209L 409.447,183.599C 409.452,184.166 409.661,184.632 410.074,184.999C 410.488,185.366 411.077,185.552 411.841,185.558L 411.856,185.558L 413.307,185.543L 414.757,185.543C 415.227,185.551 415.574,185.646 415.798,185.828C 416.023,186.011 416.135,186.229 416.133,186.484L 416.133,187.022C 416.135,187.276 416.023,187.492 415.798,187.67C 415.574,187.847 415.227,187.94 414.757,187.948L 409.295,187.948L 409.295,189.005L 414.772,189.005C 415.537,188.988 416.126,188.787 416.539,188.402C 416.953,188.016 417.162,187.546 417.167,186.992L 417.167,186.514C 417.162,185.968 416.953,185.514 416.539,185.152C 416.126,184.79 415.537,184.605 414.772,184.599L 411.856,184.614C 411.387,184.606 411.04,184.506 410.815,184.316C 410.59,184.125 410.479,183.897 410.48,183.631L 410.48,183.178C 410.479,182.912 410.59,182.686 410.815,182.5C 411.04,182.314 411.387,182.217 411.856,182.209L 416.849,182.209L 416.849,181.152L 411.841,181.152 Z "/>
		<path fill="#ECE5D3" fill-opacity="1" stroke-width="0.2" stroke-linejoin="round" d="M 418.261,186.513C 418.265,187.297 418.475,187.906 418.891,188.342C 419.306,188.777 419.902,188.998 420.677,189.005L 423.002,189.005L 422.987,187.948L 420.692,187.948C 419.747,187.961 419.281,187.493 419.294,186.544L 419.294,182.209L 421.573,182.209L 421.573,181.152L 419.294,181.152L 419.294,178.782L 418.261,178.782L 418.261,186.513 Z "/>
		<path fill="#ECE5D3" fill-opacity="1" stroke-width="0.2" stroke-linejoin="round" d="M 424.358,182.209L 429.81,182.209C 430.734,182.197 431.189,182.665 431.177,183.615L 431.177,184.488L 425.964,184.471C 425.204,184.489 424.618,184.692 424.205,185.08C 423.793,185.467 423.584,185.933 423.579,186.476L 423.579,187.015C 423.584,187.558 423.793,188.021 424.205,188.404C 424.618,188.787 425.204,188.988 425.964,189.005L 429.825,189.005C 430.585,188.997 431.172,188.778 431.584,188.35C 431.997,187.921 432.205,187.33 432.21,186.578L 432.21,183.646C 432.205,182.861 431.997,182.251 431.584,181.816C 431.172,181.38 430.585,181.159 429.825,181.152L 424.358,181.152L 424.358,182.209 Z M 431.177,186.607C 431.189,187.513 430.734,187.96 429.81,187.948L 425.979,187.948C 425.512,187.94 425.168,187.85 424.945,187.676C 424.722,187.503 424.611,187.292 424.612,187.044L 424.612,186.446C 424.611,186.198 424.722,185.985 424.945,185.807C 425.168,185.629 425.512,185.536 425.979,185.528L 431.177,185.543L 431.177,186.607 Z "/>
		<path fill="#ECE5D3" fill-opacity="1" stroke-width="0.2" stroke-linejoin="round" d="M 434.49,189.02L 434.49,183.64C 434.477,182.673 434.939,182.196 435.876,182.209L 438.755,182.209C 439.693,182.196 440.155,182.673 440.142,183.64L 440.142,189.02L 441.176,189.02L 441.176,183.671C 441.171,182.874 440.962,182.257 440.547,181.819C 440.133,181.381 439.54,181.159 438.771,181.152L 435.861,181.152C 435.091,181.159 434.499,181.381 434.085,181.819C 433.67,182.257 433.461,182.874 433.456,183.671L 433.456,189.02L 434.49,189.02 Z "/>
		<path fill="#ECE5D3" fill-opacity="1" stroke-width="0.2" stroke-linejoin="round" d="M 449.822,187.948L 445.005,187.948C 444.06,187.961 443.594,187.493 443.607,186.544L 443.607,183.614C 443.594,182.665 444.06,182.197 445.005,182.209L 449.822,182.209L 449.822,181.152L 444.99,181.152C 444.215,181.159 443.619,181.38 443.204,181.815C 442.788,182.251 442.578,182.86 442.574,183.644L 442.574,186.513C 442.578,187.297 442.788,187.906 443.204,188.342C 443.619,188.777 444.215,188.998 444.99,189.005L 449.822,189.005L 449.822,187.948 Z "/>
		<path fill="#ECE5D3" fill-opacity="1" stroke-width="0.2" stroke-linejoin="round" d="M 458.197,187.948L 453.414,187.948C 452.946,187.953 452.588,187.851 452.34,187.644C 452.092,187.437 451.967,187.095 451.965,186.618L 451.965,185.669L 456.12,185.686C 456.877,185.668 457.462,185.465 457.873,185.078C 458.285,184.69 458.494,184.224 458.499,183.682L 458.499,183.142C 458.494,182.599 458.285,182.136 457.873,181.753C 457.462,181.37 456.877,181.17 456.12,181.152L 453.31,181.152C 452.553,181.16 451.968,181.379 451.557,181.807C 451.145,182.236 450.936,182.827 450.931,183.58L 450.931,186.511C 450.936,187.296 451.145,187.906 451.557,188.341C 451.968,188.777 452.553,188.998 453.31,189.005L 458.197,189.005L 458.197,187.948 Z M 451.965,183.551C 451.952,182.644 452.406,182.197 453.325,182.209L 456.105,182.209C 456.569,182.217 456.912,182.307 457.134,182.481C 457.357,182.654 457.467,182.865 457.465,183.113L 457.465,183.711C 457.467,183.96 457.357,184.173 457.134,184.35C 456.912,184.528 456.569,184.621 456.105,184.629L 451.965,184.615L 451.965,183.551 Z "/>
		<rect x="460.641" y="186.817" fill="#ECE5D3" fill-opacity="1" stroke-width="0.2" stroke-linejoin="round" width="1.82349" height="2.21246"/>
	</g>
	<path fill="none" stroke-width="2.816" stroke-linejoin="round" stroke="#ECE5D3" stroke-opacity="1" d="M 33.3334,0.001297L 33.3334,119.841C 33.3333,119.841 33.3333,139.415 56.8,139.415C 84.5333,139.415 474.989,139.415 474.989,139.415C 474.989,139.415 514.613,137.817 533.48,194.177C 543.567,224.312 566.661,218.51 630.667,218.51C 673.352,218.51 716,218.51 716,218.51C 716,218.51 737.333,218.51 737.333,199.735C 737.333,176.566 737.333,-0.00505066 737.333,-0.00505066"/>
	<path fill="none" stroke-width="2.816" stroke-linejoin="round" stroke="#ECE5D3" stroke-opacity="1" d="M 85.8133,139.715L 85.8133,188.15C 85.8133,188.15 86.6667,208.922 110.133,208.523C 139.846,208.017 540.64,208.523 540.64,208.523"/>
	<path fill="#ECE5D3" fill-opacity="1" stroke-width="0.2" stroke-linejoin="round" d="M 43.5294,-0.000534058L 43.5294,22.6499L 33.1614,32.3569L 33.1614,-0.00238037L 43.5294,-0.000534058 Z "/>
	<path fill="#ECE5D3" fill-opacity="1" stroke-width="0.2" stroke-linejoin="round" d="M 725.685,0.00178528L 725.685,22.6522L 736.053,32.3593L 736.053,-4.57764e-005L 725.685,0.00178528 Z "/>
	<path fill="#FF7F1A" fill-opacity="1" fill-rule="evenodd" stroke-width="0.2" stroke-linejoin="round" d="M 650.674,40.6159L 716.48,152.014L 700.996,176.96L 636.48,176.96L 636.48,145.12L 662.73,145.12L 667.448,135.67L 643.362,91.3686L 636.48,91.3687L 636.48,40.616L 650.674,40.6159 Z M 622.286,40.616L 556.48,152.014L 571.964,176.96L 636.48,176.96L 636.48,145.12L 610.23,145.12L 605.512,135.67L 629.598,91.3687L 636.48,91.3687L 636.48,40.6161L 622.286,40.616 Z "/>
</svg>
