<?xml version="1.0" encoding="utf-8"?>
<!DOCTYPE svg PUBLIC "-//W3C//DTD SVG 1.1//EN" "http://www.w3.org/Graphics/SVG/1.1/DTD/svg11.dtd">
<svg xmlns="http://www.w3.org/2000/svg" xmlns:xlink="http://www.w3.org/1999/xlink" version="1.1" baseProfile="full" width="3840" height="2160" viewBox="0 0 3840.00 2160.00" enable-background="new 0 0 3840.00 2160.00" xml:space="preserve">
	<rect x="0.000651042" y="0" fill="#030409" fill-opacity="1" fill-rule="evenodd" stroke-linejoin="round" stroke="#000000" stroke-opacity="1" width="3840" height="2160"/>
	<path fill="none" stroke-width="16" stroke-linejoin="round" stroke="#05408F" stroke-opacity="0.803922" d="M 2127,-95.9973C 2127,-95.9973 1971.11,806.227 2208,1280C 2400,1664 3002.57,2105.21 3136,2272"/>
	<path fill="none" stroke-width="16" stroke-linejoin="round" stroke="#00347C" stroke-opacity="1" d="M 143,2240C 143,2240 561,1840 1233,1712C 1283.92,1702.3 1376.41,1705.66 1408,1664C 1568,1453 2061,1312 2592,960C 3116.57,612.261 3856.12,297.284 4032,224"/>
	<line fill="none" stroke-width="2" stroke-linejoin="round" stroke="#1B56E3" stroke-opacity="0.603922" x1="3328" y1="-0.000244141" x2="3328" y2="2160"/>
	<line fill="none" stroke-width="2" stroke-linejoin="round" stroke="#1B56E3" stroke-opacity="0.603922" x1="2816" y1="-0.000244141" x2="2816" y2="2160"/>
	<line fill="none" stroke-width="2" stroke-linejoin="round" stroke="#1B56E3" stroke-opacity="0.603922" x1="2304" y1="0" x2="2304" y2="2160"/>
	<line fill="none" stroke-width="2" stroke-linejoin="round" stroke="#1B56E3" stroke-opacity="0.603922" x1="1792" y1="-0.000244141" x2="1792" y2="2160"/>
	<line fill="none" stroke-width="2" stroke-linejoin="round" stroke="#1B56E3" stroke-opacity="0.603922" x1="1280" y1="-0.000244141" x2="1280" y2="2160"/>
	<line fill="none" stroke-width="2" stroke-linejoin="round" stroke="#1B56E3" stroke-opacity="0.603922" x1="768" y1="0" x2="768" y2="2160"/>
	<line fill="none" stroke-width="2" stroke-linejoin="round" stroke="#1B56E3" stroke-opacity="0.603922" x1="256" y1="0" x2="256" y2="2160"/>
	<line fill="none" stroke-width="2" stroke-linejoin="round" stroke="#1B56E3" stroke-opacity="0.603922" x1="0.000228882" y1="256" x2="3840" y2="256"/>
	<line fill="none" stroke-width="2" stroke-linejoin="round" stroke="#1B56E3" stroke-opacity="0.603922" x1="-0.000164668" y1="768" x2="3840" y2="768"/>
	<line fill="none" stroke-width="2" stroke-linejoin="round" stroke="#1B56E3" stroke-opacity="0.603922" x1="-0.000164668" y1="1280" x2="3840" y2="1280"/>
	<line fill="none" stroke-width="2" stroke-linejoin="round" stroke="#1B56E3" stroke-opacity="0.603922" x1="0.000160853" y1="1792" x2="3840" y2="1792"/>
	<g>
		<path fill="#1059FB" fill-opacity="0.901961" stroke-width="0.2" stroke-linejoin="round" stroke="#438DFE" stroke-opacity="0.901961" d="M 605.726,1292.15C 625.851,1292.15 642.165,1308.14 642.165,1327.85C 642.165,1347.57 625.851,1363.56 605.726,1363.56C 585.601,1363.56 569.287,1347.57 569.287,1327.85C 569.287,1308.14 585.601,1292.15 605.726,1292.15 Z "/>
		<path fill="#1059FB" fill-opacity="1" stroke-width="0.2" stroke-linejoin="round" stroke="#438DFE" stroke-opacity="1" d="M 554.875,1316.17L 506.835,1316.17C 506.835,1316.17 500.057,1267.63 546.091,1244.19L 572.94,1286.22L 554.875,1316.17 Z "/>
		<path fill="#1059FB" fill-opacity="1" stroke-width="0.2" stroke-linejoin="round" stroke="#438DFE" stroke-opacity="1" d="M 589.035,1273.67L 563.688,1235.53C 563.688,1235.53 603.517,1206.97 645.666,1236.83L 620.928,1274.14L 589.035,1273.67 Z "/>
		<path fill="#1059FB" fill-opacity="1" stroke-width="0.2" stroke-linejoin="round" stroke="#438DFE" stroke-opacity="1" d="M 656.62,1316.17L 704.66,1316.17C 704.66,1316.17 711.438,1267.63 665.404,1244.19L 638.555,1286.22L 656.62,1316.17 Z "/>
		<path fill="#1059FB" fill-opacity="1" stroke-width="0.2" stroke-linejoin="round" stroke="#438DFE" stroke-opacity="1" d="M 554.875,1338.12L 506.835,1338.12C 506.835,1338.12 500.057,1386.67 546.091,1410.1L 572.94,1368.07L 554.875,1338.12 Z "/>
		<path fill="#1059FB" fill-opacity="1" stroke-width="0.2" stroke-linejoin="round" stroke="#438DFE" stroke-opacity="1" d="M 589.037,1380.62L 563.69,1418.76C 563.69,1418.76 603.519,1447.33 645.668,1417.46L 620.93,1380.16L 589.037,1380.62 Z "/>
		<path fill="#1059FB" fill-opacity="1" stroke-width="0.2" stroke-linejoin="round" stroke="#438DFE" stroke-opacity="1" d="M 656.621,1338.12L 704.66,1338.12C 704.66,1338.12 711.439,1386.67 665.405,1410.1L 638.556,1368.07L 656.621,1338.12 Z "/>
	</g>
	<g>
		<path fill="#0083FF" fill-opacity="1" stroke-width="0.2" stroke-linejoin="round" d="M 211.432,1306.86L 227.631,1277.23L 248.231,1277.23L 248.231,1310.36L 230.834,1310.36L 230.834,1301.83L 239.709,1301.83L 239.709,1285.76L 232.487,1285.76L 218.701,1310.86L 211.432,1306.86 Z "/>
		<path fill="#0083FF" fill-opacity="1" stroke-width="0.2" stroke-linejoin="round" d="M 263.772,1285.76L 281.052,1285.76L 286.832,1291.57L 286.832,1310.36L 295.355,1310.36L 295.355,1287.92L 284.647,1277.23L 255.25,1277.23L 255.25,1310.36L 263.772,1310.36L 263.772,1285.76 Z "/>
		<path fill="#0083FF" fill-opacity="1" stroke-width="0.2" stroke-linejoin="round" d="M 299.663,1306.86L 315.861,1277.23L 336.462,1277.23L 336.462,1310.36L 319.065,1310.36L 319.065,1301.83L 327.94,1301.83L 327.94,1285.76L 320.718,1285.76L 306.932,1310.86L 299.663,1306.86 Z "/>
		<path fill="#0083FF" fill-opacity="1" stroke-width="0.2" stroke-linejoin="round" d="M 344.483,1297.63L 351.627,1290.31L 343.575,1282.13L 349.395,1276.22L 364.982,1292.08L 369.048,1287.89L 369.048,1277.13L 377.57,1277.13L 377.57,1291.37L 371.068,1297.93L 378.471,1305.46L 372.659,1311.36L 357.823,1296.22L 353.006,1301.06L 353.006,1310.45L 344.483,1310.45L 344.483,1297.63 Z "/>
		<path fill="#0083FF" fill-opacity="1" stroke-width="0.2" stroke-linejoin="round" d="M 418.677,1298.31L 418.677,1277.23L 385.591,1277.23L 385.591,1310.36L 418.677,1310.36L 418.677,1301.83L 394.113,1301.83L 394.113,1285.26L 410.155,1285.26L 410.155,1289.78L 403.34,1289.78L 403.34,1298.31L 418.677,1298.31 Z "/>
		<path fill="#0083FF" fill-opacity="1" stroke-width="0.2" stroke-linejoin="round" d="M 458.782,1285.26L 434.218,1285.26L 434.218,1289.78L 458.782,1289.78L 458.782,1310.36L 425.696,1310.36L 425.696,1301.83L 450.26,1301.83L 450.26,1298.31L 425.696,1298.31L 425.696,1277.23L 458.782,1277.23L 458.782,1285.26 Z "/>
	</g>
	<g>
		<path fill="#0083FF" fill-opacity="1" stroke-width="0.2" stroke-linejoin="round" d="M 119.811,1332.41L 127.738,1332.41L 127.738,1338.82L 149.142,1338.82L 160.057,1332.41L 176.032,1332.41L 149.142,1346.36L 119.811,1346.36L 119.811,1332.41 Z M 119.811,1351.06L 149.99,1351.06L 176.389,1365L 161.483,1365L 148.563,1358.6L 127.593,1358.6L 127.593,1365L 119.811,1365L 119.811,1351.06 Z "/>
		<path fill="#0083FF" fill-opacity="1" stroke-width="0.2" stroke-linejoin="round" d="M 190.736,1358.7L 191.595,1358.63L 206.645,1332.41L 216.065,1332.41L 236.11,1365L 226.834,1365L 211.427,1339.25L 196.511,1365L 187.314,1365L 186.812,1364.97L 185.887,1363.76L 185.029,1362.45L 183.88,1360.64L 182.888,1358.56L 181.963,1356.38L 181.383,1353.87L 180.814,1351.02L 180.603,1348.07L 180.458,1344.89L 181.104,1342.44L 181.673,1339.82L 182.32,1337.84L 183.312,1336.03L 184.237,1334.46L 185.385,1333.15L 186.021,1332.48L 192.877,1332.48L 191.662,1333.52L 190.736,1334.8L 189.733,1336.37L 189.02,1337.91L 188.384,1339.82L 187.738,1342.34L 187.314,1345.12L 187.091,1347.9L 187.314,1350.68L 187.882,1353.63L 188.596,1355.88L 189.376,1357.26L 190.736,1358.7 Z "/>
		<path fill="#0083FF" fill-opacity="1" stroke-width="0.2" stroke-linejoin="round" d="M 239.677,1332.41L 247.603,1332.41L 247.603,1338.82L 269.008,1338.82L 279.922,1332.41L 295.898,1332.41L 269.008,1346.36L 239.677,1346.36L 239.677,1332.41 Z M 239.677,1351.06L 269.855,1351.06L 296.254,1365L 281.349,1365L 268.428,1358.6L 247.459,1358.6L 247.459,1365L 239.677,1365L 239.677,1351.06 Z "/>
		<path fill="#0083FF" fill-opacity="1" stroke-width="0.2" stroke-linejoin="round" d="M 342.062,1361.68L 334.292,1365L 307.603,1365L 299.9,1361.68L 317.737,1332.48L 325.585,1332.48L 342.062,1361.68 Z M 331.929,1358.56L 321.661,1339.66L 310.39,1358.56L 331.929,1358.56 Z "/>
		<path fill="#0083FF" fill-opacity="1" stroke-width="0.2" stroke-linejoin="round" d="M 397.502,1332.38L 397.502,1339.89L 392.084,1339.89L 392.084,1365L 384.726,1365L 384.726,1339.89L 383.734,1339.89L 370.892,1365L 361.471,1365L 344.637,1332.38L 353.69,1332.38L 366.254,1355.71L 378.45,1332.38L 397.502,1332.38 Z "/>
		<path fill="#0083FF" fill-opacity="1" stroke-width="0.2" stroke-linejoin="round" d="M 418.483,1332.41L 446.376,1357.26L 446.376,1332.41L 454.224,1332.41L 454.224,1365L 443.455,1365L 406.711,1332.41L 418.483,1332.41 Z M 403.712,1349.51L 432.173,1358.7L 429.676,1365L 401.07,1355.98L 403.712,1349.51 Z "/>
	</g>
	<path fill="#378AFB" fill-opacity="1" stroke-width="0.2" stroke-linejoin="round" stroke="#4E9AFB" stroke-opacity="1" d="M 638.968,1042C 657.211,1042 672,1056.33 672,1074C 672,1091.67 657.211,1106 638.968,1106C 620.724,1106 605.936,1091.67 605.936,1074C 605.936,1056.33 620.724,1042 638.968,1042 Z "/>
	<path fill="#378AFB" fill-opacity="1" stroke-width="0.2" stroke-linejoin="round" stroke="#4E9AFB" stroke-opacity="1" d="M 578.032,1444C 596.276,1444 611.064,1458.33 611.064,1476C 611.064,1493.67 596.276,1508 578.032,1508C 559.789,1508 545,1493.67 545,1476C 545,1458.33 559.789,1444 578.032,1444 Z "/>
	<path fill="#378AFB" fill-opacity="1" stroke-width="0.2" stroke-linejoin="round" stroke="#4E9AFB" stroke-opacity="1" d="M 613,798.002C 631.243,798.002 646.032,812.328 646.032,830.001C 646.032,847.675 631.243,862.001 613,862.001C 594.757,862.001 579.968,847.675 579.968,830.001C 579.968,812.328 594.757,798.002 613,798.002 Z "/>
	<path fill="#378AFB" fill-opacity="1" stroke-width="0.2" stroke-linejoin="round" stroke="#4E9AFB" stroke-opacity="1" d="M 487.032,640.001C 505.276,640.001 520.064,654.328 520.064,672.001C 520.064,689.674 505.276,704.001 487.032,704.001C 468.789,704.001 454,689.674 454,672.001C 454,654.328 468.789,640.001 487.032,640.001 Z "/>
	<path fill="none" stroke-width="19" stroke-linejoin="round" stroke="#00419A" stroke-opacity="0.803922" d="M 1216,1618C 970,1358 823,1312 759,1312C 740.883,1312 691.623,1270.01 704,1216C 792,832 588,518 -7.79393e-005,-0.000244141"/>
	<g>
		<path fill="#DCFF85" fill-opacity="1" stroke-width="0.2" stroke-linejoin="round" d="M 547.489,1597.43L 547.489,1569.53L 562.958,1556.24L 594.684,1556.24L 594.684,1566.85L 567.782,1566.85L 559.554,1573.93L 559.554,1586.82L 594.684,1586.82L 594.684,1597.43L 547.489,1597.43 Z "/>
		<path fill="#DCFF85" fill-opacity="1" stroke-width="0.2" stroke-linejoin="round" d="M 651.105,1556.24L 651.105,1597.43L 604.265,1597.43L 604.265,1556.24L 651.105,1556.24 Z M 639.04,1566.85L 616.33,1566.85L 616.33,1586.82L 639.04,1586.82L 639.04,1566.85 Z "/>
		<path fill="#DCFF85" fill-opacity="1" stroke-width="0.2" stroke-linejoin="round" d="M 661.041,1597.43L 661.041,1556.24L 705.752,1556.24L 705.752,1581.83L 687.954,1581.83L 705.752,1597.43L 690.826,1597.43L 673.106,1581.95L 673.106,1597.43L 661.041,1597.43 Z M 693.687,1566.85L 673.106,1566.85L 673.106,1571.22L 693.687,1571.22L 693.687,1566.85 Z "/>
		<path fill="#DCFF85" fill-opacity="1" stroke-width="0.2" stroke-linejoin="round" d="M 762.528,1597.43L 715.688,1597.43L 715.688,1556.24L 727.752,1556.24L 727.752,1586.82L 750.463,1586.82L 750.463,1556.24L 762.528,1556.24L 762.528,1597.43 Z "/>
		<path fill="#DCFF85" fill-opacity="1" stroke-width="0.2" stroke-linejoin="round" d="M 819.304,1566.22L 784.528,1566.22L 784.528,1571.84L 819.304,1571.84L 819.304,1597.43L 772.464,1597.43L 772.464,1586.82L 807.239,1586.82L 807.239,1582.45L 772.464,1582.45L 772.464,1556.24L 819.304,1556.24L 819.304,1566.22 Z "/>
		<path fill="#DCFF85" fill-opacity="1" stroke-width="0.2" stroke-linejoin="round" d="M 829.24,1597.43L 829.24,1569.53L 844.709,1556.24L 876.435,1556.24L 876.435,1566.85L 849.533,1566.85L 841.304,1573.93L 841.304,1586.82L 876.435,1586.82L 876.435,1597.43L 829.24,1597.43 Z "/>
		<path fill="#DCFF85" fill-opacity="1" stroke-width="0.2" stroke-linejoin="round" d="M 882.179,1593.08L 905.111,1556.24L 934.275,1556.24L 934.275,1597.43L 909.646,1597.43L 909.646,1586.82L 922.21,1586.82L 922.21,1566.85L 911.986,1566.85L 892.469,1598.05L 882.179,1593.08 Z "/>
		<path fill="#DCFF85" fill-opacity="1" stroke-width="0.2" stroke-linejoin="round" d="M 956.276,1566.85L 980.738,1566.85L 988.922,1574.07L 988.922,1597.43L 1000.99,1597.43L 1000.99,1569.53L 985.828,1556.24L 944.211,1556.24L 944.211,1597.43L 956.276,1597.43L 956.276,1566.85 Z "/>
		<path fill="#DCFF85" fill-opacity="1" stroke-width="0.2" stroke-linejoin="round" d="M 1030.08,1566.22L 1030.08,1586.82L 1048.26,1586.82L 1048.26,1597.43L 1018.73,1597.43L 1018.73,1566.22L 1010.85,1566.22L 1010.85,1556.24L 1054.86,1556.24L 1054.86,1566.22L 1030.08,1566.22 Z "/>
	</g>
	<g>
		<path fill="#DCFF85" fill-opacity="1" stroke-width="0.2" stroke-linejoin="round" d="M 405.785,1625.13L 417.364,1625.13L 417.364,1663.32L 405.785,1663.32L 405.785,1625.13 Z M 421.095,1642.16L 432.561,1642.16L 432.561,1663.32L 421.095,1663.32L 421.095,1642.16 Z M 436.275,1642.16L 447.967,1642.16L 447.967,1680.35L 436.275,1680.35L 436.275,1642.16 Z "/>
		<path fill="#DCFF85" fill-opacity="1" stroke-width="0.2" stroke-linejoin="round" d="M 505.635,1624.78L 522.786,1668.97L 515.971,1680.35L 460.466,1680.35L 453.441,1668.8L 469.978,1624.78L 505.635,1624.78 Z M 465.424,1668.18L 510.69,1668.18L 499.014,1637.59L 477.1,1637.59L 465.424,1668.18 Z "/>
		<path fill="#DCFF85" fill-opacity="1" stroke-width="0.2" stroke-linejoin="round" d="M 591.307,1624.78L 548.108,1680.35L 533.234,1680.35L 564.854,1639.19L 564.854,1638.21L 526.92,1638.21L 536.125,1624.78L 591.307,1624.78 Z "/>
		<path fill="#DCFF85" fill-opacity="1" stroke-width="0.2" stroke-linejoin="round" d="M 665.108,1624.78L 667.595,1627.52L 667.595,1677.49L 664.898,1680.35L 596.071,1680.35L 596.071,1624.78L 607.957,1624.78L 607.957,1668.35L 655.71,1668.35L 655.71,1637.59L 640.303,1637.59L 633.068,1648.16L 617.662,1648.16L 633.892,1624.78L 665.108,1624.78 Z "/>
		<path fill="#DCFF85" fill-opacity="1" stroke-width="0.2" stroke-linejoin="round" d="M 697.052,1624.78L 737.457,1667.15L 737.457,1624.78L 748.826,1624.78L 748.826,1680.35L 733.226,1680.35L 679.998,1624.78L 697.052,1624.78 Z M 675.654,1653.94L 716.883,1669.61L 713.265,1680.35L 671.826,1664.97L 675.654,1653.94 Z "/>
		<path fill="#DCFF85" fill-opacity="1" stroke-width="0.2" stroke-linejoin="round" d="M 754.09,1625.13L 765.669,1625.13L 765.669,1663.32L 754.09,1663.32L 754.09,1625.13 Z M 769.4,1642.16L 780.866,1642.16L 780.866,1663.32L 769.4,1663.32L 769.4,1642.16 Z M 784.58,1642.16L 796.272,1642.16L 796.272,1680.35L 784.58,1680.35L 784.58,1642.16 Z "/>
		<path fill="#DCFF85" fill-opacity="1" stroke-width="0.2" stroke-linejoin="round" d="M 801.843,1624.78L 813.325,1624.78L 813.325,1635.7L 844.332,1635.7L 860.142,1624.78L 883.284,1624.78L 844.332,1648.57L 801.843,1648.57L 801.843,1624.78 Z M 801.843,1656.57L 845.559,1656.57L 883.8,1680.35L 862.209,1680.35L 843.492,1669.44L 813.115,1669.44L 813.115,1680.35L 801.843,1680.35L 801.843,1656.57 Z "/>
		<path fill="#DCFF85" fill-opacity="1" stroke-width="0.2" stroke-linejoin="round" d="M 904.584,1669.61L 905.828,1669.49L 927.629,1624.78L 941.275,1624.78L 970.311,1680.35L 956.875,1680.35L 934.557,1636.44L 912.95,1680.35L 899.627,1680.35L 898.9,1680.3L 897.56,1678.24L 896.316,1676.01L 894.653,1672.92L 893.215,1669.37L 891.875,1665.66L 891.035,1661.37L 890.212,1656.51L 889.905,1651.48L 889.695,1646.05L 890.631,1641.88L 891.455,1637.42L 892.392,1634.04L 893.829,1630.95L 895.169,1628.27L 896.833,1626.04L 897.753,1624.89L 907.685,1624.89L 905.925,1626.66L 904.584,1628.84L 903.131,1631.52L 902.097,1634.16L 901.177,1637.42L 900.24,1641.71L 899.627,1646.45L 899.304,1651.19L 899.627,1655.94L 900.45,1660.97L 901.484,1664.8L 902.614,1667.15L 904.584,1669.61 Z "/>
		<path fill="#DCFF85" fill-opacity="1" stroke-width="0.2" stroke-linejoin="round" d="M 1019.82,1624.78L 1019.82,1669.78L 1023.14,1669.78L 1040.59,1650.57L 1055.89,1650.57L 1028.3,1680.35L 1001.53,1680.35L 973.832,1650.39L 989.125,1650.39L 1006.7,1669.61L 1009.89,1669.61L 1009.89,1624.78L 1019.82,1624.78 Z "/>
	</g>
	<line fill="none" stroke-width="16" stroke-linejoin="round" stroke="#DCFF85" stroke-opacity="1" x1="1387" y1="1622" x2="1778" y2="1254"/>
	<g>
		<path fill="#DCFF85" fill-opacity="1" stroke-width="0.2" stroke-linejoin="round" d="M 1226.5,913.927L 1226.5,877.091L 1242.1,859.542L 1274.11,859.542L 1274.11,873.55L 1246.97,873.55L 1238.67,882.898L 1238.67,899.919L 1274.11,899.919L 1274.11,913.927L 1226.5,913.927 Z "/>
		<path fill="#DCFF85" fill-opacity="1" stroke-width="0.2" stroke-linejoin="round" d="M 1316.71,913.927L 1316.71,893.327L 1295.95,893.327L 1295.95,913.927L 1283.78,913.927L 1283.78,859.542L 1295.95,859.542L 1295.95,879.318L 1316.71,879.318L 1316.71,859.542L 1328.88,859.542L 1328.88,913.927L 1316.71,913.927 Z "/>
		<path fill="#DCFF85" fill-opacity="1" stroke-width="0.2" stroke-linejoin="round" d="M 1335.04,908.185L 1358.17,859.542L 1387.6,859.542L 1387.6,913.927L 1362.75,913.927L 1362.75,899.919L 1375.42,899.919L 1375.42,873.55L 1365.11,873.55L 1345.42,914.751L 1335.04,908.185 Z "/>
		<path fill="#DCFF85" fill-opacity="1" stroke-width="0.2" stroke-linejoin="round" d="M 1409.79,873.55L 1434.47,873.55L 1442.73,883.091L 1442.73,913.927L 1454.9,913.927L 1454.9,877.091L 1439.61,859.542L 1397.62,859.542L 1397.62,913.927L 1409.79,913.927L 1409.79,873.55 Z "/>
		<path fill="#DCFF85" fill-opacity="1" stroke-width="0.2" stroke-linejoin="round" d="M 1512.18,859.542L 1512.18,896.378L 1496.87,913.927L 1464.92,913.927L 1464.92,859.542L 1512.18,859.542 Z M 1500.01,873.55L 1477.09,873.55L 1477.09,899.919L 1491.93,899.919L 1500.01,890.571L 1500.01,873.55 Z "/>
		<path fill="#DCFF85" fill-opacity="1" stroke-width="0.2" stroke-linejoin="round" d="M 1522.2,913.927L 1522.2,859.542L 1567.31,859.542L 1567.31,893.327L 1549.35,893.327L 1567.31,913.927L 1552.25,913.927L 1534.37,893.494L 1534.37,913.927L 1522.2,913.927 Z M 1555.14,873.55L 1534.37,873.55L 1534.37,879.318L 1555.14,879.318L 1555.14,873.55 Z "/>
		<rect x="1577.33" y="859.542" fill="#DCFF85" fill-opacity="1" stroke-width="0.2" stroke-linejoin="round" width="12.1719" height="54.3854"/>
		<path fill="#DCFF85" fill-opacity="1" stroke-width="0.2" stroke-linejoin="round" d="M 1599.53,913.927L 1599.53,859.542L 1611.7,859.542L 1611.7,899.919L 1643.13,899.919L 1643.13,913.927L 1599.53,913.927 Z "/>
		<path fill="#DCFF85" fill-opacity="1" stroke-width="0.2" stroke-linejoin="round" d="M 1649.36,908.185L 1672.49,859.542L 1701.92,859.542L 1701.92,913.927L 1677.07,913.927L 1677.07,899.919L 1689.74,899.919L 1689.74,873.55L 1679.43,873.55L 1659.74,914.751L 1649.36,908.185 Z "/>
	</g>
	<g>
		<path fill="#DCFF85" fill-opacity="1" stroke-width="0.2" stroke-linejoin="round" d="M 1089.77,940.012L 1101.3,940.012L 1101.3,978.474L 1089.77,978.474L 1089.77,940.012 Z M 1105.02,957.17L 1116.44,957.17L 1116.44,978.474L 1105.02,978.474L 1105.02,957.17 Z M 1120.13,957.17L 1131.78,957.17L 1131.78,995.632L 1120.13,995.632L 1120.13,957.17 Z "/>
		<path fill="#DCFF85" fill-opacity="1" stroke-width="0.2" stroke-linejoin="round" d="M 1216.68,939.491L 1216.68,952.392L 1137.02,952.392L 1137.02,939.491L 1216.68,939.491 Z M 1150.61,961.029L 1202.98,961.029L 1202.98,973.922L 1150.61,973.922L 1150.61,961.029 Z M 1137.02,982.676L 1216.68,982.676L 1216.68,995.632L 1137.02,995.632L 1137.02,982.676 Z "/>
		<path fill="#DCFF85" fill-opacity="1" stroke-width="0.2" stroke-linejoin="round" d="M 1222.75,939.661L 1234.18,939.661L 1234.18,950.665L 1265.05,950.665L 1280.8,939.661L 1303.84,939.661L 1265.05,963.62L 1222.75,963.62L 1222.75,939.661 Z M 1222.75,971.682L 1266.28,971.682L 1304.36,995.632L 1282.86,995.632L 1264.22,984.637L 1233.97,984.637L 1233.97,995.632L 1222.75,995.632L 1222.75,971.682 Z "/>
		<path fill="#DCFF85" fill-opacity="1" stroke-width="0.2" stroke-linejoin="round" d="M 1325.05,984.808L 1326.29,984.691L 1348,939.661L 1361.59,939.661L 1390.5,995.632L 1377.12,995.632L 1354.9,951.411L 1333.38,995.632L 1320.11,995.632L 1319.39,995.578L 1318.06,993.499L 1316.82,991.259L 1315.16,988.146L 1313.73,984.574L 1312.4,980.832L 1311.56,976.513L 1310.74,971.619L 1310.43,966.553L 1310.22,961.083L 1311.16,956.882L 1311.98,952.392L 1312.91,948.991L 1314.34,945.878L 1315.68,943.179L 1317.33,940.93L 1318.25,939.778L 1328.14,939.778L 1326.39,941.56L 1325.05,943.755L 1323.6,946.454L 1322.57,949.108L 1321.66,952.392L 1320.73,956.711L 1320.11,961.488L 1319.79,966.266L 1320.11,971.043L 1320.93,976.108L 1321.96,979.968L 1323.09,982.334L 1325.05,984.808 Z "/>
		<path fill="#DCFF85" fill-opacity="1" stroke-width="0.2" stroke-linejoin="round" d="M 1456.67,940.066L 1456.48,941.047L 1414.38,995.632L 1399.15,995.632L 1416.34,974.327L 1397.7,974.327L 1405.63,961.542L 1426.42,961.542L 1433.21,952.851L 1395.03,952.788L 1402.45,940.066L 1456.67,940.066 Z "/>
		<path fill="#DCFF85" fill-opacity="1" stroke-width="0.2" stroke-linejoin="round" d="M 1525.63,939.661L 1482.61,995.632L 1467.8,995.632L 1499.29,954.174L 1499.29,953.193L 1461.51,953.193L 1470.68,939.661L 1525.63,939.661 Z "/>
		<path fill="#DCFF85" fill-opacity="1" stroke-width="0.2" stroke-linejoin="round" d="M 1558.77,939.491L 1558.77,995.632L 1548.59,995.632L 1548.59,953.598L 1537.67,964.88L 1529.74,956.594C 1529.68,956.288 1529.82,955.979 1530.16,955.667L 1545.5,939.491L 1558.77,939.491 Z "/>
		<path fill="#DCFF85" fill-opacity="1" stroke-width="0.2" stroke-linejoin="round" d="M 1615.49,939.437L 1615.49,995.686L 1600.66,995.686L 1565.06,971.907L 1571.63,961.371L 1604.17,982.847L 1604.17,939.437L 1615.49,939.437 Z "/>
		<path fill="#DCFF85" fill-opacity="1" stroke-width="0.2" stroke-linejoin="round" d="M 1622.06,939.661L 1633.5,939.661L 1633.5,950.665L 1664.37,950.665L 1680.11,939.661L 1703.16,939.661L 1664.37,963.62L 1622.06,963.62L 1622.06,939.661 Z M 1622.06,971.682L 1665.59,971.682L 1703.67,995.632L 1682.17,995.632L 1663.54,984.637L 1633.29,984.637L 1633.29,995.632L 1622.06,995.632L 1622.06,971.682 Z "/>
	</g>
	<path fill="#DCFF85" fill-opacity="1" stroke-linejoin="round" stroke="#DCFF85" stroke-opacity="1" d="M 2762.91,1712.33L 2759.84,1799.54L 2804.75,1799.54L 2832.81,1757.66L 2807.56,1712.53L 2762.91,1712.33 Z "/>
	<path fill="none" stroke-width="16" stroke-linejoin="round" stroke="#DCFF85" stroke-opacity="1" d="M 2751.42,1690.07L 2709.32,1751.83L 2745.81,1822L 2815.98,1822L 2858.08,1760.25L 2821.59,1690.08L 2751.42,1690.07 Z "/>
	<path fill="none" stroke-width="16" stroke-linejoin="round" stroke="#DCFF85" stroke-opacity="1" d="M 1409,1657C 1409,1657 1933,1516 2725,1720"/>
	<path fill="none" stroke-width="16" stroke-linejoin="round" stroke="#DCFF85" stroke-opacity="1" d="M 1416.09,1717.79C 1416.09,1717.79 1941.27,1581.26 2731.51,1792"/>
	<path fill="none" stroke-width="16" stroke-linejoin="round" stroke="#DCFF85" stroke-opacity="1" d="M 1422,1731C 1422,1731 1908.68,1707.26 2432.43,2062.16C 2433.31,2062.76 2596.36,2170.55 2615,2183C 2656.84,2210.93 2559.29,2146.86 2441,2068"/>
	<path fill="none" stroke-width="16" stroke-linejoin="round" stroke="#DCFF85" stroke-opacity="1" d="M 1312,1830C 1312,1830 1355,2144 1344,2189"/>
	<path fill="none" stroke-width="16" stroke-linejoin="round" stroke="#DCFF85" stroke-opacity="1" d="M 1330.22,1832C 1330.22,1832 1483,2151 1472,2196"/>
	<g>
		<ellipse fill="none" stroke-width="16" stroke-linejoin="round" stroke="#55A6FE" stroke-opacity="1" cx="3491.5" cy="874.5" rx="73.5002" ry="73.5"/>
		<path fill="#55A6FE" fill-opacity="1" stroke-linejoin="round" stroke="#55A6FE" stroke-opacity="1" d="M 3492.25,839.273L 3529.85,804.624L 3453.98,805.359L 3492.25,839.273 Z "/>
		<path fill="#55A6FE" fill-opacity="1" stroke-linejoin="round" stroke="#55A6FE" stroke-opacity="1" d="M 3490.27,908.99L 3527.88,943.638L 3452,942.903L 3490.27,908.99 Z "/>
		<path fill="#55A6FE" fill-opacity="1" stroke-linejoin="round" stroke="#55A6FE" stroke-opacity="1" d="M 3527.37,876.247L 3562.01,913.853L 3561.28,837.978L 3527.37,876.247 Z "/>
		<path fill="#55A6FE" fill-opacity="1" stroke-linejoin="round" stroke="#55A6FE" stroke-opacity="1" d="M 3457.66,874.269L 3423.01,911.874L 3423.75,836L 3457.66,874.269 Z "/>
	</g>
	<g>
		<path fill="#0083FF" fill-opacity="1" stroke-width="0.2" stroke-linejoin="round" d="M 3601.51,864L 3601.51,841.559L 3612.44,830.868L 3634.85,830.868L 3634.85,839.402L 3615.84,839.402L 3610.03,845.096L 3610.03,855.466L 3634.85,855.466L 3634.85,864L 3601.51,864 Z "/>
		<path fill="#0083FF" fill-opacity="1" stroke-width="0.2" stroke-linejoin="round" d="M 3638.9,860.502L 3655.1,830.868L 3675.7,830.868L 3675.7,864L 3658.31,864L 3658.31,855.466L 3667.18,855.466L 3667.18,839.402L 3659.96,839.402L 3646.17,864.502L 3638.9,860.502 Z "/>
		<path fill="#0083FF" fill-opacity="1" stroke-width="0.2" stroke-linejoin="round" d="M 3682.72,864L 3682.72,830.868L 3714.3,830.868L 3714.3,851.45L 3701.73,851.45L 3714.3,864L 3703.76,864L 3691.24,851.552L 3691.24,864L 3682.72,864 Z M 3705.78,839.402L 3691.24,839.402L 3691.24,842.916L 3705.78,842.916L 3705.78,839.402 Z "/>
		<rect x="3721.32" y="830.868" fill="#0083FF" fill-opacity="1" stroke-width="0.2" stroke-linejoin="round" width="8.52222" height="33.1324"/>
		<path fill="#0083FF" fill-opacity="1" stroke-width="0.2" stroke-linejoin="round" d="M 3769.95,830.868L 3769.95,853.309L 3759.23,864L 3736.86,864L 3736.86,830.868L 3769.95,830.868 Z M 3761.43,839.402L 3745.39,839.402L 3745.39,855.466L 3755.77,855.466L 3761.43,849.771L 3761.43,839.402 Z "/>
		<path fill="#0083FF" fill-opacity="1" stroke-width="0.2" stroke-linejoin="round" d="M 3774.26,860.502L 3790.46,830.868L 3811.06,830.868L 3811.06,864L 3793.66,864L 3793.66,855.466L 3802.54,855.466L 3802.54,839.402L 3795.31,839.402L 3781.53,864.502L 3774.26,860.502 Z "/>
	</g>
	<g>
		<path fill="#0083FF" fill-opacity="1" stroke-width="0.2" stroke-linejoin="round" d="M 3607.6,883.587L 3613.8,883.587L 3613.8,904.748L 3607.6,904.748L 3607.6,883.587 Z M 3615.8,893.027L 3621.94,893.027L 3621.94,904.748L 3615.8,904.748L 3615.8,893.027 Z M 3623.92,893.027L 3630.19,893.027L 3630.19,914.188L 3623.92,914.188L 3623.92,893.027 Z "/>
		<path fill="#0083FF" fill-opacity="1" stroke-width="0.2" stroke-linejoin="round" d="M 3633.17,883.394L 3639.32,883.394L 3639.32,889.448L 3655.92,889.448L 3664.39,883.394L 3676.78,883.394L 3655.92,896.576L 3633.17,896.576L 3633.17,883.394 Z M 3633.17,901.011L 3656.58,901.011L 3677.06,914.188L 3665.5,914.188L 3655.47,908.139L 3639.21,908.139L 3639.21,914.188L 3633.17,914.188L 3633.17,901.011 Z "/>
		<path fill="#0083FF" fill-opacity="1" stroke-width="0.2" stroke-linejoin="round" d="M 3714.7,883.394L 3691.56,914.188L 3683.6,914.188L 3700.53,891.379L 3700.53,890.839L 3680.22,890.839L 3685.15,883.394L 3714.7,883.394 Z "/>
		<path fill="#0083FF" fill-opacity="1" stroke-width="0.2" stroke-linejoin="round" d="M 3732.52,883.3L 3732.52,914.188L 3727.05,914.188L 3727.05,891.062L 3721.17,897.269L 3716.91,892.71C 3716.88,892.542 3716.95,892.372 3717.13,892.2L 3725.38,883.3L 3732.52,883.3 Z "/>
		<path fill="#0083FF" fill-opacity="1" stroke-width="0.2" stroke-linejoin="round" d="M 3768.38,883.617L 3768.28,884.157L 3745.64,914.188L 3737.45,914.188L 3746.69,902.466L 3736.67,902.466L 3740.93,895.433L 3752.12,895.433L 3755.77,890.651L 3735.24,890.616L 3739.22,883.617L 3768.38,883.617 Z "/>
		<path fill="#0083FF" fill-opacity="1" stroke-width="0.2" stroke-linejoin="round" d="M 3770.99,883.394L 3777.14,883.394L 3777.14,889.448L 3793.74,889.448L 3802.21,883.394L 3814.6,883.394L 3793.74,896.576L 3770.99,896.576L 3770.99,883.394 Z M 3770.99,901.011L 3794.4,901.011L 3814.88,914.188L 3803.31,914.188L 3793.29,908.139L 3777.02,908.139L 3777.02,914.188L 3770.99,914.188L 3770.99,901.011 Z "/>
	</g>
	<path fill="#378AFB" fill-opacity="1" stroke-width="0.2" stroke-linejoin="round" stroke="#4E9AFB" stroke-opacity="1" d="M 1430.97,586.001C 1449.21,586.001 1464,600.328 1464,618.001C 1464,635.674 1449.21,650.001 1430.97,650.001C 1412.72,650.001 1397.94,635.674 1397.94,618.001C 1397.94,600.328 1412.72,586.001 1430.97,586.001 Z "/>
	<path fill="#378AFB" fill-opacity="1" stroke-width="0.2" stroke-linejoin="round" stroke="#4E9AFB" stroke-opacity="1" d="M 1953.03,448.001C 1971.28,448.001 1986.06,462.328 1986.06,480.001C 1986.06,497.674 1971.28,512.001 1953.03,512.001C 1934.79,512.001 1920,497.674 1920,480.001C 1920,462.328 1934.79,448.001 1953.03,448.001 Z "/>
	<path fill="#267FF8" fill-opacity="1" stroke-width="0.2" stroke-linejoin="round" stroke="#267FF8" stroke-opacity="1" d="M 1899.03,1248C 1917.28,1248 1932.06,1262.33 1932.06,1280C 1932.06,1297.67 1917.28,1312 1899.03,1312C 1880.79,1312 1866,1297.67 1866,1280C 1866,1262.33 1880.79,1248 1899.03,1248 Z "/>
	<path fill="#267FF8" fill-opacity="1" stroke-width="0.2" stroke-linejoin="round" stroke="#267FF8" stroke-opacity="1" d="M 2285.03,1026C 2303.28,1026 2318.06,1040.33 2318.06,1058C 2318.06,1075.67 2303.28,1090 2285.03,1090C 2266.79,1090 2252,1075.67 2252,1058C 2252,1040.33 2266.79,1026 2285.03,1026 Z "/>
	<path fill="#267FF8" fill-opacity="1" stroke-width="0.2" stroke-linejoin="round" stroke="#267FF8" stroke-opacity="1" d="M 2310.48,833C 2326.79,833 2340,845.802 2340,861.594C 2340,877.385 2326.79,890.187 2310.48,890.187C 2294.18,890.187 2280.97,877.385 2280.97,861.594C 2280.97,845.802 2294.18,833 2310.48,833 Z "/>
	<path fill="#378AFB" fill-opacity="1" stroke-width="0.2" stroke-linejoin="round" stroke="#4E9AFB" stroke-opacity="1" d="M 2457.03,1072C 2475.28,1072 2490.06,1086.33 2490.06,1104C 2490.06,1121.67 2475.28,1136 2457.03,1136C 2438.79,1136 2424,1121.67 2424,1104C 2424,1086.33 2438.79,1072 2457.03,1072 Z "/>
	<path fill="#378AFB" fill-opacity="1" stroke-width="0.2" stroke-linejoin="round" stroke="#4E9AFB" stroke-opacity="1" d="M 1853.97,1846C 1872.21,1846 1887,1860.33 1887,1878C 1887,1895.67 1872.21,1910 1853.97,1910C 1835.72,1910 1820.94,1895.67 1820.94,1878C 1820.94,1860.33 1835.72,1846 1853.97,1846 Z "/>
	<path fill="#378AFB" fill-opacity="1" stroke-width="0.2" stroke-linejoin="round" stroke="#4E9AFB" stroke-opacity="1" d="M 1940.97,1948C 1959.21,1948 1974,1962.33 1974,1980C 1974,1997.67 1959.21,2012 1940.97,2012C 1922.72,2012 1907.94,1997.67 1907.94,1980C 1907.94,1962.33 1922.72,1948 1940.97,1948 Z "/>
	<path fill="#267FF8" fill-opacity="1" stroke-width="0.2" stroke-linejoin="round" stroke="#4E9AFB" stroke-opacity="1" d="M 2317.97,1514C 2336.21,1514 2351,1528.33 2351,1546C 2351,1563.67 2336.21,1578 2317.97,1578C 2299.72,1578 2284.94,1563.67 2284.94,1546C 2284.94,1528.33 2299.72,1514 2317.97,1514 Z "/>
	<path fill="#378AFB" fill-opacity="1" stroke-width="0.2" stroke-linejoin="round" stroke="#4E9AFB" stroke-opacity="1" d="M 2961.97,635.001C 2980.21,635.001 2995,649.328 2995,667.001C 2995,684.674 2980.21,699.001 2961.97,699.001C 2943.72,699.001 2928.94,684.674 2928.94,667.001C 2928.94,649.328 2943.72,635.001 2961.97,635.001 Z "/>
	<path fill="#378AFB" fill-opacity="1" stroke-width="0.2" stroke-linejoin="round" stroke="#4E9AFB" stroke-opacity="1" d="M 2721.03,1450C 2739.28,1450 2754.06,1464.33 2754.06,1482C 2754.06,1499.67 2739.28,1514 2721.03,1514C 2702.79,1514 2688,1499.67 2688,1482C 2688,1464.33 2702.79,1450 2721.03,1450 Z "/>
	<path fill="#378AFB" fill-opacity="1" stroke-width="0.2" stroke-linejoin="round" stroke="#4E9AFB" stroke-opacity="1" d="M 3404.03,416.001C 3422.28,416.001 3437.06,430.328 3437.06,448.001C 3437.06,465.674 3422.28,480.001 3404.03,480.001C 3385.79,480.001 3371,465.674 3371,448.001C 3371,430.328 3385.79,416.001 3404.03,416.001 Z "/>
	<path fill="none" stroke-width="16" stroke-linejoin="round" stroke="#267FF8" stroke-opacity="1" d="M 416,-96C 416,-96 598.637,688.149 1263,1664C 1568,2112 1700,2181 1732,2229"/>
	<ellipse fill="#030409" fill-opacity="1" stroke-width="16" stroke-linejoin="round" stroke="#DCFF85" stroke-opacity="1" cx="1294" cy="1710.1" rx="125.069" ry="120.9"/>
	<ellipse fill="#DCFF85" fill-opacity="1" stroke-width="0.2" stroke-linejoin="round" cx="1295.69" cy="1711.54" rx="75.0422" ry="75.0419"/>
	<path fill="none" stroke-width="16" stroke-linejoin="round" stroke="#DCFF85" stroke-opacity="1" d="M 1385,1800C 1385,1800 1570,2195 1559,2240"/>
	<path fill="none" stroke-width="19" stroke-linejoin="round" stroke="#1C79D4" stroke-opacity="0.803922" d="M 1996,-95.9976C 1996,-95.9976 1984,1152 2464,2176"/>
	<path fill="#DCFF85" fill-opacity="1" stroke-width="6" stroke-linejoin="round" stroke="#DCFF85" stroke-opacity="1" d="M 1861.44,705.047L 1861.44,770.922L 1940.49,705.048L 1861.44,705.047 Z "/>
	<path fill="none" fill-rule="evenodd" stroke-width="16" stroke-linejoin="round" stroke="#05408F" stroke-opacity="0.803922" d="M 2272,1152C 2272,1152 2576.11,1072.84 2665,1525C 2688,1642 3037.34,1570.04 3136,1696C 3248,1839 3680,2176 3680,2176"/>
	<path fill="none" stroke-width="16" stroke-linejoin="round" stroke="#DCFF85" stroke-opacity="1" d="M 1778,625.996L 1856.81,625.996L 2406,625.996L 2406,1254L 1778,1254L 1778,691.65L 1778,625.996 Z "/>
	<rect x="1861.44" y="705.047" fill="none" stroke-width="16" stroke-linejoin="round" stroke="#DCFF85" stroke-opacity="1" width="456.728" height="465.512"/>
	<path fill="#DCFF85" fill-opacity="1" stroke-width="6" stroke-linejoin="round" stroke="#DCFF85" stroke-opacity="1" d="M 2314,1162L 2314,1096.13L 2234.95,1162L 2314,1162 Z "/>
	<ellipse fill="#030409" fill-opacity="1" stroke-width="16" stroke-linejoin="round" stroke="#DCFF85" stroke-opacity="1" cx="2094.64" cy="939.121" rx="131.748" ry="127.357"/>
	<ellipse fill="#DCFF85" fill-opacity="1" stroke-width="0.2" stroke-linejoin="round" cx="2094.2" cy="937.803" rx="79.0496" ry="79.0493"/>
	<g>
		<path fill="#DCFF85" fill-opacity="1" stroke-width="0.2" stroke-linejoin="round" d="M 2906.99,1722.46L 2906.99,1739.98L 2896.1,1739.98L 2896.1,1749L 2914.25,1749L 2914.25,1722.46L 2918.94,1722.46L 2918.94,1713.96L 2892.08,1713.96L 2892.08,1722.46L 2906.99,1722.46 Z "/>
		<rect x="2924.92" y="1713.96" fill="#DCFF85" fill-opacity="1" stroke-width="0.2" stroke-linejoin="round" width="7.2583" height="35.0353"/>
		<path fill="#DCFF85" fill-opacity="1" stroke-width="0.2" stroke-linejoin="round" d="M 2945.41,1722.99L 2960.13,1722.99L 2965.06,1729.14L 2965.06,1749L 2972.31,1749L 2972.31,1725.27L 2963.19,1713.96L 2938.16,1713.96L 2938.16,1749L 2945.41,1749L 2945.41,1722.99 Z "/>
		<path fill="#DCFF85" fill-opacity="1" stroke-width="0.2" stroke-linejoin="round" d="M 2975.98,1745.3L 2989.78,1713.96L 3007.33,1713.96L 3007.33,1749L 2992.51,1749L 2992.51,1739.98L 3000.07,1739.98L 3000.07,1722.99L 2993.92,1722.99L 2982.17,1749.53L 2975.98,1745.3 Z "/>
		<path fill="#DCFF85" fill-opacity="1" stroke-width="0.2" stroke-linejoin="round" d="M 3024.83,1722.46L 3024.83,1739.98L 3035.77,1739.98L 3035.77,1749L 3018,1749L 3018,1722.46L 3013.26,1722.46L 3013.26,1713.96L 3039.74,1713.96L 3039.74,1722.46L 3024.83,1722.46 Z "/>
		<path fill="#DCFF85" fill-opacity="1" stroke-width="0.2" stroke-linejoin="round" d="M 3043.87,1745.3L 3057.67,1713.96L 3075.22,1713.96L 3075.22,1749L 3060.4,1749L 3060.4,1739.98L 3067.96,1739.98L 3067.96,1722.99L 3061.81,1722.99L 3050.06,1749.53L 3043.87,1745.3 Z "/>
		<path fill="#DCFF85" fill-opacity="1" stroke-width="0.2" stroke-linejoin="round" d="M 3095.96,1745.3L 3109.76,1713.96L 3127.31,1713.96L 3127.31,1749L 3112.49,1749L 3112.49,1739.98L 3120.05,1739.98L 3120.05,1722.99L 3113.9,1722.99L 3102.16,1749.53L 3095.96,1745.3 Z "/>
		<path fill="#DCFF85" fill-opacity="1" stroke-width="0.2" stroke-linejoin="round" d="M 3161.47,1722.46L 3140.54,1722.46L 3140.54,1727.24L 3161.47,1727.24L 3161.47,1749L 3133.28,1749L 3133.28,1739.98L 3154.21,1739.98L 3154.21,1736.26L 3133.28,1736.26L 3133.28,1713.96L 3161.47,1713.96L 3161.47,1722.46 Z "/>
		<path fill="#DCFF85" fill-opacity="1" stroke-width="0.2" stroke-linejoin="round" d="M 3178.97,1722.46L 3178.97,1739.98L 3189.91,1739.98L 3189.91,1749L 3172.14,1749L 3172.14,1722.46L 3167.4,1722.46L 3167.4,1713.96L 3193.88,1713.96L 3193.88,1722.46L 3178.97,1722.46 Z "/>
		<path fill="#DCFF85" fill-opacity="1" stroke-width="0.2" stroke-linejoin="round" d="M 3228.5,1736.26L 3228.5,1713.96L 3200.32,1713.96L 3200.32,1749L 3228.5,1749L 3228.5,1739.98L 3207.58,1739.98L 3207.58,1722.46L 3221.24,1722.46L 3221.24,1727.24L 3215.44,1727.24L 3215.44,1736.26L 3228.5,1736.26 Z "/>
		<path fill="#DCFF85" fill-opacity="1" stroke-width="0.2" stroke-linejoin="round" d="M 3234.48,1749L 3234.48,1713.96L 3261.38,1713.96L 3261.38,1735.73L 3250.67,1735.73L 3261.38,1749L 3252.4,1749L 3241.74,1735.84L 3241.74,1749L 3234.48,1749 Z M 3254.12,1722.99L 3241.74,1722.99L 3241.74,1726.7L 3254.12,1726.7L 3254.12,1722.99 Z "/>
		<path fill="#DCFF85" fill-opacity="1" stroke-width="0.2" stroke-linejoin="round" d="M 3295.54,1713.96L 3295.54,1749L 3267.36,1749L 3267.36,1713.96L 3295.54,1713.96 Z M 3288.28,1722.99L 3274.61,1722.99L 3274.61,1739.98L 3288.28,1739.98L 3288.28,1722.99 Z "/>
		<rect x="3301.51" y="1713.96" fill="#DCFF85" fill-opacity="1" stroke-width="0.2" stroke-linejoin="round" width="7.2583" height="35.0353"/>
		<path fill="#DCFF85" fill-opacity="1" stroke-width="0.2" stroke-linejoin="round" d="M 3342.93,1713.96L 3342.93,1737.69L 3333.8,1749L 3314.75,1749L 3314.75,1713.96L 3342.93,1713.96 Z M 3335.67,1722.99L 3322.01,1722.99L 3322.01,1739.98L 3330.86,1739.98L 3335.67,1733.95L 3335.67,1722.99 Z "/>
		<path fill="#DCFF85" fill-opacity="1" stroke-width="0.2" stroke-linejoin="round" d="M 3392.76,1722.99L 3373.25,1722.99L 3373.25,1729.89L 3388.57,1729.89L 3388.57,1738.91L 3373.25,1738.91L 3373.25,1749L 3365.99,1749L 3365.99,1713.96L 3392.76,1713.96L 3392.76,1722.99 Z "/>
		<rect x="3398.87" y="1713.96" fill="#DCFF85" fill-opacity="1" stroke-width="0.2" stroke-linejoin="round" width="7.25854" height="35.0353"/>
		<path fill="#DCFF85" fill-opacity="1" stroke-width="0.2" stroke-linejoin="round" d="M 3440.28,1736.26L 3440.28,1713.96L 3412.1,1713.96L 3412.1,1749L 3440.28,1749L 3440.28,1739.98L 3419.36,1739.98L 3419.36,1722.46L 3433.02,1722.46L 3433.02,1727.24L 3427.22,1727.24L 3427.22,1736.26L 3440.28,1736.26 Z "/>
		<path fill="#DCFF85" fill-opacity="1" stroke-width="0.2" stroke-linejoin="round" d="M 3446.26,1749L 3446.26,1713.96L 3453.52,1713.96L 3453.52,1739.98L 3472.26,1739.98L 3472.26,1749L 3446.26,1749 Z "/>
		<path fill="#DCFF85" fill-opacity="1" stroke-width="0.2" stroke-linejoin="round" d="M 3506.46,1713.96L 3506.46,1737.69L 3497.34,1749L 3478.28,1749L 3478.28,1713.96L 3506.46,1713.96 Z M 3499.21,1722.99L 3485.54,1722.99L 3485.54,1739.98L 3494.39,1739.98L 3499.21,1733.95L 3499.21,1722.99 Z "/>
	</g>
	<g>
		<path fill="#DCFF85" fill-opacity="1" stroke-width="0.2" stroke-linejoin="round" d="M 2928.79,1759.1L 2916.43,1791.97L 2892.39,1791.97L 2892.39,1784.55L 2912.83,1784.55L 2916.43,1774.26C 2914.59,1775.64 2912.89,1776.58 2911.34,1777.07C 2909.8,1777.57 2908.01,1778 2906,1778.38C 2903.98,1778.75 2900.72,1778.98 2896.2,1779.07L 2892.5,1779.07L 2892.5,1771.66L 2896.3,1771.66C 2900.75,1771.3 2903.61,1771 2904.88,1770.78C 2906.15,1770.55 2907.88,1770.02 2910.06,1769.19C 2912.74,1767.92 2914.93,1766.71 2916.64,1765.56C 2918.34,1764.41 2920.25,1762.25 2922.38,1759.06L 2928.79,1759.1 Z "/>
		<path fill="#DCFF85" fill-opacity="1" stroke-width="0.2" stroke-linejoin="round" d="M 2945.63,1758.96L 2945.63,1791.97L 2940.47,1791.97L 2940.47,1767.26L 2934.94,1773.89L 2930.92,1769.02C 2930.89,1768.84 2930.96,1768.66 2931.13,1768.47L 2938.91,1758.96L 2945.63,1758.96 Z "/>
		<path fill="#DCFF85" fill-opacity="1" stroke-width="0.2" stroke-linejoin="round" d="M 2956.01,1785.61L 2956.63,1785.54L 2967.63,1759.06L 2974.52,1759.06L 2989.17,1791.97L 2982.39,1791.97L 2971.13,1765.97L 2960.23,1791.97L 2953.51,1791.97L 2953.14,1791.94L 2952.46,1790.71L 2951.84,1789.4L 2951,1787.57L 2950.27,1785.47L 2949.6,1783.27L 2949.17,1780.73L 2948.76,1777.85L 2948.6,1774.87L 2948.5,1771.66L 2948.97,1769.19L 2949.38,1766.55L 2949.86,1764.55L 2950.58,1762.72L 2951.26,1761.13L 2952.1,1759.81L 2952.56,1759.13L 2957.57,1759.13L 2956.68,1760.18L 2956.01,1761.47L 2955.27,1763.06L 2954.75,1764.62L 2954.29,1766.55L 2953.82,1769.09L 2953.51,1771.89L 2953.34,1774.7L 2953.51,1777.51L 2953.92,1780.49L 2954.44,1782.76L 2955.01,1784.15L 2956.01,1785.61 Z "/>
		<path fill="#DCFF85" fill-opacity="1" stroke-width="0.2" stroke-linejoin="round" d="M 2991.77,1759.06L 2997.57,1759.06L 2997.57,1765.53L 3013.21,1765.53L 3021.18,1759.06L 3032.86,1759.06L 3013.21,1773.15L 2991.77,1773.15L 2991.77,1759.06 Z M 2991.77,1777.89L 3013.83,1777.89L 3033.12,1791.97L 3022.23,1791.97L 3012.79,1785.5L 2997.46,1785.5L 2997.46,1791.97L 2991.77,1791.97L 2991.77,1777.89 Z "/>
		<path fill="#DCFF85" fill-opacity="1" stroke-width="0.2" stroke-linejoin="round" d="M 3058.47,1759.06L 3058.47,1785.71L 3060.14,1785.71L 3068.94,1774.33L 3076.66,1774.33L 3062.74,1791.97L 3049.24,1791.97L 3035.26,1774.23L 3042.98,1774.23L 3051.84,1785.61L 3053.46,1785.61L 3053.46,1759.06L 3058.47,1759.06 Z "/>
		<path fill="#DCFF85" fill-opacity="1" stroke-width="0.2" stroke-linejoin="round" d="M 3078.85,1759.06L 3084.64,1759.06L 3084.64,1765.53L 3100.29,1765.53L 3108.26,1759.06L 3119.94,1759.06L 3100.29,1773.15L 3078.85,1773.15L 3078.85,1759.06 Z M 3078.85,1777.89L 3100.91,1777.89L 3120.2,1791.97L 3109.31,1791.97L 3099.86,1785.5L 3084.54,1785.5L 3084.54,1791.97L 3078.85,1791.97L 3078.85,1777.89 Z "/>
		<path fill="#DCFF85" fill-opacity="1" stroke-width="0.2" stroke-linejoin="round" d="M 3149.76,1759.06L 3155.56,1759.06L 3155.56,1765.53L 3171.2,1765.53L 3179.18,1759.06L 3190.85,1759.06L 3171.2,1773.15L 3149.76,1773.15L 3149.76,1759.06 Z M 3149.76,1777.89L 3171.82,1777.89L 3191.11,1791.97L 3180.22,1791.97L 3170.78,1785.5L 3155.45,1785.5L 3155.45,1791.97L 3149.76,1791.97L 3149.76,1777.89 Z "/>
		<path fill="#DCFF85" fill-opacity="1" stroke-width="0.2" stroke-linejoin="round" d="M 3206.4,1759.06L 3226.78,1784.15L 3226.78,1759.06L 3232.52,1759.06L 3232.52,1791.97L 3224.65,1791.97L 3197.79,1759.06L 3206.4,1759.06 Z M 3195.6,1776.33L 3216.4,1785.61L 3214.58,1791.97L 3193.67,1782.86L 3195.6,1776.33 Z "/>
		<path fill="#DCFF85" fill-opacity="1" stroke-width="0.2" stroke-linejoin="round" d="M 3257.65,1759.06L 3257.65,1785.71L 3259.32,1785.71L 3268.13,1774.33L 3275.84,1774.33L 3261.93,1791.97L 3248.42,1791.97L 3234.45,1774.23L 3242.16,1774.23L 3251.03,1785.61L 3252.64,1785.61L 3252.64,1759.06L 3257.65,1759.06 Z "/>
		<path fill="#DCFF85" fill-opacity="1" stroke-width="0.2" stroke-linejoin="round" d="M 3316.2,1759.03L 3316.2,1766.61L 3312.25,1766.61L 3312.25,1791.97L 3306.87,1791.97L 3306.87,1766.61L 3306.14,1766.61L 3296.76,1791.97L 3289.87,1791.97L 3277.57,1759.03L 3284.19,1759.03L 3293.37,1782.59L 3302.28,1759.03L 3316.2,1759.03 Z "/>
		<path fill="#DCFF85" fill-opacity="1" stroke-width="0.2" stroke-linejoin="round" d="M 3351.71,1759.06L 3329.92,1791.97L 3322.41,1791.97L 3338.37,1767.59L 3338.37,1767.02L 3319.23,1767.02L 3323.87,1759.06L 3351.71,1759.06 Z "/>
		<path fill="#DCFF85" fill-opacity="1" stroke-width="0.2" stroke-linejoin="round" d="M 3380.45,1759.06L 3389.1,1785.23L 3385.66,1791.97L 3357.66,1791.97L 3354.11,1785.13L 3362.46,1759.06L 3380.45,1759.06 Z M 3360.16,1784.76L 3383,1784.76L 3377.11,1766.65L 3366.05,1766.65L 3360.16,1784.76 Z "/>
		<path fill="#DCFF85" fill-opacity="1" stroke-width="0.2" stroke-linejoin="round" d="M 3405.52,1758.96L 3405.52,1791.97L 3400.37,1791.97L 3400.37,1767.26L 3394.83,1773.89L 3390.82,1769.02C 3390.78,1768.84 3390.86,1768.66 3391.03,1768.47L 3398.8,1758.96L 3405.52,1758.96 Z "/>
		<path fill="#DCFF85" fill-opacity="1" stroke-width="0.2" stroke-linejoin="round" d="M 3439.31,1759.3L 3439.21,1759.88L 3417.88,1791.97L 3410.17,1791.97L 3418.88,1779.44L 3409.43,1779.44L 3413.45,1771.93L 3423.98,1771.93L 3427.42,1766.82L 3408.08,1766.78L 3411.84,1759.3L 3439.31,1759.3 Z "/>
		<path fill="#DCFF85" fill-opacity="1" stroke-width="0.2" stroke-linejoin="round" d="M 3489.37,1759.23L 3489.37,1767.12C 3492.64,1766.42 3495.24,1765.61 3497.19,1764.68C 3499.14,1763.76 3501.95,1761.79 3505.64,1758.79L 3505.64,1765.56C 3502.72,1768.09 3500.12,1769.96 3497.84,1771.17C 3495.56,1772.38 3492.74,1773.43 3489.37,1774.33L 3489.37,1784.42L 3505.64,1784.42L 3505.64,1791.97L 3468.15,1791.97L 3468.15,1769.32L 3474.98,1769.29C 3478.07,1769.11 3481.06,1768.7 3483.95,1768.07L 3484,1759.23L 3489.37,1759.23 Z M 3473.89,1784.42L 3484,1784.42L 3484,1775.92C 3481.63,1776.33 3479.18,1776.58 3476.65,1776.67L 3473.89,1776.67L 3473.89,1784.42 Z "/>
		<path fill="#DCFF85" fill-opacity="1" stroke-width="0.2" stroke-linejoin="round" d="M 3522.84,1758.96L 3522.84,1791.97L 3517.69,1791.97L 3517.69,1767.26L 3512.15,1773.89L 3508.14,1769.02C 3508.1,1768.84 3508.18,1768.66 3508.35,1768.47L 3516.12,1758.96L 3522.84,1758.96 Z "/>
		<path fill="#DCFF85" fill-opacity="1" stroke-width="0.2" stroke-linejoin="round" d="M 3563.88,1759.03L 3563.88,1766.61L 3559.92,1766.61L 3559.92,1791.97L 3554.54,1791.97L 3554.54,1766.61L 3553.82,1766.61L 3544.43,1791.97L 3537.55,1791.97L 3525.25,1759.03L 3531.86,1759.03L 3541.04,1782.59L 3549.96,1759.03L 3563.88,1759.03 Z "/>
		<path fill="#DCFF85" fill-opacity="1" stroke-width="0.2" stroke-linejoin="round" d="M 3592.77,1758.93L 3592.77,1792L 3585.26,1792L 3567.22,1778.02L 3570.55,1771.83L 3587.03,1784.45L 3587.03,1758.93L 3592.77,1758.93 Z "/>
		<path fill="#DCFF85" fill-opacity="1" stroke-width="0.2" stroke-linejoin="round" d="M 3627.02,1759.3L 3626.92,1759.88L 3605.59,1791.97L 3597.88,1791.97L 3606.59,1779.44L 3597.15,1779.44L 3601.16,1771.93L 3611.7,1771.93L 3615.13,1766.82L 3595.79,1766.78L 3599.55,1759.3L 3627.02,1759.3 Z "/>
	</g>
</svg>
